G04*
G04 #@! TF.GenerationSoftware,Altium Limited,Altium Designer,18.0.7 (293)*
G04*
G04 Layer_Physical_Order=1*
G04 Layer_Color=255*
%FSTAX24Y24*%
%MOIN*%
G70*
G01*
G75*
%ADD24C,0.0472*%
%ADD25C,0.0197*%
%ADD26C,0.0157*%
%ADD27C,0.0630*%
%ADD28R,0.1093X0.1093*%
%ADD29C,0.1093*%
%ADD30R,0.0630X0.0984*%
%ADD31O,0.0630X0.0984*%
%ADD32C,0.0984*%
%ADD33C,0.0768*%
%ADD34R,0.0768X0.0768*%
%ADD35O,0.0700X0.1000*%
%ADD36R,0.0700X0.1000*%
%ADD37R,0.0630X0.0630*%
%ADD38C,0.0551*%
%ADD39C,0.1969*%
G36*
X05689Y051996D02*
X056788Y051877D01*
X056675Y051692D01*
X056592Y051492D01*
X056541Y051281D01*
X056524Y051065D01*
X056541Y050849D01*
X056592Y050638D01*
X056675Y050437D01*
X056788Y050253D01*
X056929Y050088D01*
X057094Y049947D01*
X057279Y049833D01*
X057479Y04975D01*
X05769Y0497D01*
X057906Y049683D01*
X058123Y0497D01*
X058333Y04975D01*
X058534Y049833D01*
X058719Y049947D01*
X058838Y050048D01*
X058888Y050025D01*
X058888Y009979D01*
X058838Y009956D01*
X058719Y010057D01*
X058534Y010171D01*
X058333Y010254D01*
X058123Y010304D01*
X057906Y010321D01*
X05769Y010304D01*
X057479Y010254D01*
X057279Y010171D01*
X057094Y010057D01*
X056929Y009916D01*
X056788Y009751D01*
X056675Y009566D01*
X056592Y009366D01*
X056541Y009155D01*
X056524Y008939D01*
X056541Y008723D01*
X056592Y008512D01*
X056675Y008311D01*
X056788Y008127D01*
X05689Y008008D01*
X056867Y007958D01*
X025756D01*
X025741Y052011D01*
X025777Y052046D01*
X056867D01*
X05689Y051996D01*
D02*
G37*
%LPC*%
G36*
X044051Y051529D02*
X04392Y051516D01*
X043794Y051478D01*
X043678Y051415D01*
X043576Y051332D01*
X043492Y05123D01*
X04343Y051114D01*
X043392Y050988D01*
X043379Y050856D01*
X043392Y050725D01*
X04343Y050599D01*
X043492Y050483D01*
X043576Y050381D01*
X043678Y050297D01*
X043794Y050235D01*
X04392Y050197D01*
X044051Y050184D01*
X044182Y050197D01*
X044309Y050235D01*
X044425Y050297D01*
X044516Y050372D01*
X044524Y050378D01*
X044526Y05038D01*
X045753D01*
X046222Y049911D01*
X046219Y049885D01*
X046166Y04987D01*
X04615Y04989D01*
X046042Y049979D01*
X045919Y050045D01*
X045785Y050085D01*
X045646Y050099D01*
X045507Y050085D01*
X045374Y050045D01*
X04525Y049979D01*
X045146Y049893D01*
X045042Y049979D01*
X044919Y050045D01*
X044785Y050085D01*
X044646Y050099D01*
X044507Y050085D01*
X044373Y050045D01*
X04425Y049979D01*
X044146Y049893D01*
X044042Y049979D01*
X043919Y050045D01*
X043785Y050085D01*
X043646Y050099D01*
X043507Y050085D01*
X043373Y050045D01*
X04325Y049979D01*
X043146Y049893D01*
X043042Y049979D01*
X042919Y050045D01*
X042785Y050085D01*
X042646Y050099D01*
X042507Y050085D01*
X042373Y050045D01*
X04225Y049979D01*
X042146Y049893D01*
X042042Y049979D01*
X041919Y050045D01*
X041785Y050085D01*
X041646Y050099D01*
X041507Y050085D01*
X041374Y050045D01*
X04125Y049979D01*
X041146Y049893D01*
X041042Y049979D01*
X040919Y050045D01*
X040785Y050085D01*
X040646Y050099D01*
X040507Y050085D01*
X040374Y050045D01*
X04025Y049979D01*
X040142Y04989D01*
X040054Y049783D01*
X039988Y049659D01*
X039948Y049526D01*
X039934Y049387D01*
Y049033D01*
X039948Y048894D01*
X039988Y04876D01*
X040054Y048637D01*
X040142Y048529D01*
X04025Y048441D01*
X040374Y048375D01*
X040507Y048334D01*
X040646Y048321D01*
X040785Y048334D01*
X040919Y048375D01*
X041042Y048441D01*
X041146Y048526D01*
X04125Y048441D01*
X041374Y048375D01*
X041507Y048334D01*
X041646Y048321D01*
X041785Y048334D01*
X041919Y048375D01*
X042042Y048441D01*
X042146Y048526D01*
X04225Y048441D01*
X042373Y048375D01*
X042507Y048334D01*
X042646Y048321D01*
X042785Y048334D01*
X042919Y048375D01*
X043042Y048441D01*
X043146Y048526D01*
X04325Y048441D01*
X043373Y048375D01*
X043507Y048334D01*
X043646Y048321D01*
X043785Y048334D01*
X043919Y048375D01*
X044042Y048441D01*
X044146Y048526D01*
X04425Y048441D01*
X044373Y048375D01*
X044507Y048334D01*
X044646Y048321D01*
X044785Y048334D01*
X044919Y048375D01*
X045042Y048441D01*
X045146Y048526D01*
X04525Y048441D01*
X045374Y048375D01*
X045507Y048334D01*
X045646Y048321D01*
X045785Y048334D01*
X045919Y048375D01*
X046042Y048441D01*
X04615Y048529D01*
X046185Y048572D01*
X046232Y048556D01*
Y044579D01*
X04623Y044577D01*
X046224Y044569D01*
X046149Y044478D01*
X046087Y044362D01*
X046049Y044236D01*
X046036Y044104D01*
X046043Y044035D01*
X045996Y044004D01*
X045919Y044045D01*
X045785Y044085D01*
X045646Y044099D01*
X045507Y044085D01*
X045374Y044045D01*
X04525Y043979D01*
X045146Y043893D01*
X045042Y043979D01*
X044919Y044045D01*
X044785Y044085D01*
X044646Y044099D01*
X044507Y044085D01*
X044373Y044045D01*
X04425Y043979D01*
X044146Y043893D01*
X044042Y043979D01*
X043919Y044045D01*
X043785Y044085D01*
X043646Y044099D01*
X043507Y044085D01*
X043373Y044045D01*
X04325Y043979D01*
X043146Y043893D01*
X043042Y043979D01*
X042919Y044045D01*
X042785Y044085D01*
X042646Y044099D01*
X042507Y044085D01*
X042373Y044045D01*
X04225Y043979D01*
X042146Y043893D01*
X042042Y043979D01*
X041919Y044045D01*
X041785Y044085D01*
X041646Y044099D01*
X041507Y044085D01*
X041405Y044054D01*
X041355Y044089D01*
Y044096D01*
X039937D01*
Y042324D01*
X040202D01*
X04022Y042274D01*
X040142Y04221D01*
X040054Y042102D01*
X039988Y041979D01*
X039948Y041846D01*
X039934Y041707D01*
Y041352D01*
X039948Y041213D01*
X039988Y04108D01*
X040054Y040957D01*
X040142Y040849D01*
X04025Y04076D01*
X040374Y040694D01*
X040507Y040654D01*
X040646Y04064D01*
X040785Y040654D01*
X040919Y040694D01*
X041042Y04076D01*
X041146Y040846D01*
X04125Y04076D01*
X041374Y040694D01*
X041507Y040654D01*
X041646Y04064D01*
X041785Y040654D01*
X041919Y040694D01*
X042042Y04076D01*
X042146Y040846D01*
X04225Y04076D01*
X042373Y040694D01*
X042507Y040654D01*
X042646Y04064D01*
X042785Y040654D01*
X042919Y040694D01*
X043042Y04076D01*
X043146Y040846D01*
X04324Y040769D01*
X04325Y040712D01*
X043202Y040672D01*
X043118Y04057D01*
X043056Y040454D01*
X043018Y040328D01*
X043005Y040197D01*
X043018Y040066D01*
X043056Y039939D01*
X043118Y039823D01*
X043193Y039732D01*
X043199Y039724D01*
X043201Y039722D01*
Y039695D01*
X043217Y039572D01*
X043264Y039457D01*
X043305Y039404D01*
X04328Y039354D01*
X039169D01*
X039046Y039338D01*
X038931Y039291D01*
X038832Y039215D01*
X038204Y038587D01*
X037292D01*
X03729Y038589D01*
X037282Y038595D01*
X037191Y038669D01*
X037074Y038732D01*
X036948Y03877D01*
X036817Y038783D01*
X036686Y03877D01*
X03656Y038732D01*
X036443Y038669D01*
X036341Y038586D01*
X036271Y038501D01*
X036221Y038518D01*
Y042786D01*
X036572Y043136D01*
X036575Y043136D01*
X036585Y043138D01*
X036702Y043149D01*
X036828Y043188D01*
X036944Y04325D01*
X037046Y043334D01*
X03713Y043435D01*
X037192Y043552D01*
X03723Y043678D01*
X037243Y043809D01*
X03723Y04394D01*
X037192Y044066D01*
X03713Y044183D01*
X037152Y044234D01*
X037233Y044242D01*
X03736Y04428D01*
X037476Y044343D01*
X037578Y044426D01*
X037661Y044528D01*
X037724Y044644D01*
X037762Y044771D01*
X037773Y044888D01*
X037775Y044898D01*
X037775Y044901D01*
X038097Y045222D01*
X041598D01*
X0416Y04522D01*
X041608Y045214D01*
X041699Y04514D01*
X041815Y045077D01*
X041942Y045039D01*
X042073Y045026D01*
X042204Y045039D01*
X04233Y045077D01*
X042446Y04514D01*
X042548Y045223D01*
X042632Y045325D01*
X042694Y045441D01*
X042732Y045568D01*
X042745Y045699D01*
X042732Y04583D01*
X042694Y045956D01*
X042688Y045967D01*
X042714Y04601D01*
X043507D01*
X04351Y045981D01*
X043548Y045855D01*
X04361Y045739D01*
X043694Y045637D01*
X043796Y045553D01*
X043912Y045491D01*
X044038Y045453D01*
X044169Y04544D01*
X0443Y045453D01*
X044427Y045491D01*
X044543Y045553D01*
X044645Y045637D01*
X044728Y045739D01*
X044791Y045855D01*
X044829Y045981D01*
X044842Y046112D01*
X044829Y046243D01*
X044791Y04637D01*
X044728Y046486D01*
X044645Y046588D01*
X044543Y046671D01*
X044427Y046734D01*
X0443Y046772D01*
X044183Y046783D01*
X044174Y046785D01*
X044171Y046785D01*
X044132Y046823D01*
X044034Y046899D01*
X043919Y046947D01*
X043795Y046963D01*
X03727D01*
X037146Y046947D01*
X037031Y046899D01*
X036933Y046823D01*
X036184Y046074D01*
X036181Y046074D01*
X036171Y046073D01*
X03614Y04607D01*
X036102Y046103D01*
Y046446D01*
X037477Y047821D01*
X038537D01*
X038539Y047819D01*
X038547Y047813D01*
X038638Y047738D01*
X038754Y047676D01*
X038881Y047638D01*
X039012Y047625D01*
X039143Y047638D01*
X039269Y047676D01*
X039385Y047738D01*
X039487Y047822D01*
X039571Y047924D01*
X039633Y04804D01*
X039671Y048166D01*
X039684Y048297D01*
X039671Y048428D01*
X039633Y048555D01*
X039571Y048671D01*
X039487Y048773D01*
X039385Y048856D01*
X039269Y048919D01*
X039143Y048957D01*
X039012Y04897D01*
X038881Y048957D01*
X038754Y048919D01*
X038638Y048856D01*
X038547Y048782D01*
X038539Y048776D01*
X038537Y048774D01*
X03728D01*
X037156Y048758D01*
X037041Y04871D01*
X036943Y048634D01*
X035289Y046981D01*
X035213Y046882D01*
X035166Y046767D01*
X035149Y046644D01*
Y044774D01*
X035166Y04465D01*
X035213Y044535D01*
X035289Y044437D01*
X0359Y043826D01*
X0359Y043823D01*
X035898Y043813D01*
X035898Y04381D01*
X035408Y04332D01*
X035332Y043221D01*
X035285Y043106D01*
X035268Y042983D01*
Y03613D01*
X035266Y036128D01*
X03526Y03612D01*
X035186Y036029D01*
X035124Y035913D01*
X035085Y035787D01*
X035072Y035656D01*
X035085Y035524D01*
X035124Y035398D01*
X035186Y035282D01*
X035269Y03518D01*
X035371Y035096D01*
X035488Y035034D01*
X035614Y034996D01*
X035745Y034983D01*
X035876Y034996D01*
X036002Y035034D01*
X036119Y035096D01*
X03622Y03518D01*
X036304Y035282D01*
X036366Y035398D01*
X036404Y035524D01*
X036417Y035656D01*
X036404Y035787D01*
X036366Y035913D01*
X036304Y036029D01*
X036229Y03612D01*
X036223Y036128D01*
X036221Y03613D01*
Y036654D01*
X036267Y036676D01*
X036283Y036662D01*
X036399Y0366D01*
X036525Y036562D01*
X036656Y036549D01*
X036788Y036562D01*
X036914Y0366D01*
X03703Y036662D01*
X037121Y036737D01*
X037129Y036743D01*
X037131Y036745D01*
X038812D01*
X038935Y036761D01*
X03905Y036809D01*
X039149Y036885D01*
X039918Y037653D01*
X041866D01*
X041922Y037585D01*
X042024Y037502D01*
X04214Y03744D01*
X042266Y037401D01*
X042398Y037388D01*
X042529Y037401D01*
X042655Y03744D01*
X042771Y037502D01*
X042873Y037585D01*
X042957Y037687D01*
X043019Y037804D01*
X043057Y03793D01*
X04307Y038061D01*
X043057Y038192D01*
X043019Y038318D01*
X042998Y038359D01*
X043023Y038401D01*
X043411D01*
X043526Y038286D01*
X043526Y038283D01*
X043528Y038273D01*
X043539Y038156D01*
X043577Y03803D01*
X04364Y037914D01*
X043723Y037812D01*
X043825Y037728D01*
X043941Y037666D01*
X044068Y037628D01*
X044199Y037615D01*
X04433Y037628D01*
X044456Y037666D01*
X044572Y037728D01*
X044674Y037812D01*
X044738Y037889D01*
X044801Y037897D01*
X044866Y037832D01*
X044964Y037757D01*
X045079Y037709D01*
X045203Y037693D01*
X045911D01*
X04635Y037253D01*
Y036018D01*
X046343Y036013D01*
X046278Y036028D01*
X046238Y036102D01*
X04615Y03621D01*
X046042Y036299D01*
X045919Y036365D01*
X045785Y036405D01*
X045646Y036419D01*
X045507Y036405D01*
X045374Y036365D01*
X04525Y036299D01*
X045146Y036213D01*
X045042Y036299D01*
X044919Y036365D01*
X044785Y036405D01*
X044646Y036419D01*
X044507Y036405D01*
X044373Y036365D01*
X04425Y036299D01*
X044146Y036213D01*
X044042Y036299D01*
X043919Y036365D01*
X043785Y036405D01*
X043646Y036419D01*
X043507Y036405D01*
X043373Y036365D01*
X04325Y036299D01*
X043146Y036213D01*
X043042Y036299D01*
X042919Y036365D01*
X042785Y036405D01*
X042646Y036419D01*
X042507Y036405D01*
X042373Y036365D01*
X04225Y036299D01*
X042146Y036213D01*
X042042Y036299D01*
X041919Y036365D01*
X041785Y036405D01*
X041646Y036419D01*
X041507Y036405D01*
X041405Y036374D01*
X041355Y036409D01*
Y036415D01*
X039937D01*
Y034644D01*
X041355D01*
Y03465D01*
X041405Y034685D01*
X041507Y034654D01*
X041646Y03464D01*
X041785Y034654D01*
X041919Y034694D01*
X042042Y03476D01*
X042146Y034846D01*
X04225Y03476D01*
X042373Y034694D01*
X042507Y034654D01*
X042646Y03464D01*
X042785Y034654D01*
X042919Y034694D01*
X043042Y03476D01*
X043146Y034846D01*
X04325Y03476D01*
X043373Y034694D01*
X043507Y034654D01*
X043646Y03464D01*
X043785Y034654D01*
X043919Y034694D01*
X044042Y03476D01*
X044146Y034846D01*
X04425Y03476D01*
X044281Y034744D01*
X04428Y034732D01*
X04427Y034693D01*
X04416Y034634D01*
X044058Y03455D01*
X043974Y034448D01*
X043912Y034332D01*
X043874Y034206D01*
X043861Y034075D01*
X043874Y033944D01*
X043912Y033817D01*
X043974Y033701D01*
X044058Y033599D01*
X04416Y033516D01*
X044276Y033453D01*
X044402Y033415D01*
X044533Y033402D01*
X044665Y033415D01*
X044791Y033453D01*
X044907Y033516D01*
X044998Y03359D01*
X045006Y033596D01*
X045008Y033598D01*
X045911D01*
X046035Y033615D01*
X04615Y033662D01*
X046248Y033738D01*
X047164Y034653D01*
X047239Y034752D01*
X047287Y034867D01*
X047303Y03499D01*
Y037451D01*
X047287Y037574D01*
X047239Y037689D01*
X047164Y037788D01*
X046445Y038506D01*
X046347Y038582D01*
X046232Y03863D01*
X046108Y038646D01*
X0454D01*
X04423Y039816D01*
X044236Y039823D01*
X044299Y039939D01*
X044337Y040066D01*
X04435Y040197D01*
X044337Y040328D01*
X044299Y040454D01*
X044236Y04057D01*
X044153Y040672D01*
X044083Y04073D01*
Y040794D01*
X044146Y040846D01*
X04425Y04076D01*
X044373Y040694D01*
X044507Y040654D01*
X044646Y04064D01*
X044785Y040654D01*
X044919Y040694D01*
X045042Y04076D01*
X045146Y040846D01*
X04525Y04076D01*
X045374Y040694D01*
X045507Y040654D01*
X045646Y04064D01*
X045785Y040654D01*
X045919Y040694D01*
X046042Y04076D01*
X04615Y040849D01*
X046238Y040957D01*
X046304Y04108D01*
X046344Y041213D01*
X046358Y041352D01*
Y041707D01*
X046344Y041846D01*
X046304Y041979D01*
X046238Y042102D01*
X04615Y04221D01*
X046042Y042299D01*
X045962Y042341D01*
Y042398D01*
X046042Y042441D01*
X04615Y042529D01*
X046238Y042637D01*
X046304Y04276D01*
X046344Y042894D01*
X046358Y043033D01*
Y043387D01*
X046349Y043481D01*
X046396Y043513D01*
X046451Y043483D01*
X046577Y043445D01*
X046709Y043432D01*
X04684Y043445D01*
X046966Y043483D01*
X047082Y043545D01*
X047184Y043629D01*
X047268Y043731D01*
X04733Y043847D01*
X047368Y043973D01*
X047381Y044104D01*
X047368Y044236D01*
X04733Y044362D01*
X047268Y044478D01*
X047193Y044569D01*
X047187Y044577D01*
X047185Y044579D01*
Y050098D01*
X047169Y050222D01*
X047121Y050337D01*
X047046Y050435D01*
X046288Y051193D01*
X046189Y051269D01*
X046074Y051317D01*
X045951Y051333D01*
X044526D01*
X044524Y051335D01*
X044516Y051341D01*
X044425Y051415D01*
X044309Y051478D01*
X044182Y051516D01*
X044051Y051529D01*
D02*
G37*
G36*
X031827Y047574D02*
X031696Y047561D01*
X031569Y047523D01*
X031453Y047461D01*
X031351Y047377D01*
X031268Y047275D01*
X031205Y047159D01*
X031167Y047033D01*
X031154Y046902D01*
X031167Y046771D01*
X031205Y046644D01*
X031268Y046528D01*
X03133Y046452D01*
Y046262D01*
X03128Y04625D01*
X031254Y046299D01*
X03117Y046401D01*
X031069Y046484D01*
X030952Y046547D01*
X030826Y046585D01*
X030695Y046598D01*
X030564Y046585D01*
X030438Y046547D01*
X030321Y046484D01*
X030219Y046401D01*
X030136Y046299D01*
X030074Y046183D01*
X030035Y046056D01*
X030026Y045958D01*
X029675Y045607D01*
X029596Y045504D01*
X029546Y045384D01*
X029529Y045256D01*
Y043302D01*
X029479Y04329D01*
X029428Y043385D01*
X029344Y043487D01*
X029243Y043571D01*
X029126Y043633D01*
X029Y043671D01*
X028869Y043684D01*
X028738Y043671D01*
X028612Y043633D01*
X028495Y043571D01*
X028393Y043487D01*
X02831Y043385D01*
X028248Y043269D01*
X028209Y043143D01*
X028196Y043012D01*
X028201Y042969D01*
X0282Y042964D01*
X028201Y042747D01*
Y042551D01*
X028164Y042517D01*
X028148Y042519D01*
X028017Y042506D01*
X027891Y042468D01*
X027775Y042406D01*
X027673Y042322D01*
X027589Y04222D01*
X027527Y042104D01*
X027489Y041978D01*
X027476Y041846D01*
X027489Y041715D01*
X027527Y041589D01*
X027589Y041473D01*
X027673Y041371D01*
X027679Y041366D01*
X02768Y041365D01*
Y034284D01*
X027678Y034282D01*
X027672Y034274D01*
X027597Y034183D01*
X027535Y034066D01*
X027497Y03394D01*
X027484Y033809D01*
X027497Y033678D01*
X027535Y033552D01*
X027597Y033435D01*
X027681Y033334D01*
X027783Y03325D01*
X027899Y033188D01*
X028025Y033149D01*
X028156Y033137D01*
X028164Y033137D01*
X028201Y033104D01*
Y031128D01*
X028199Y031126D01*
X028193Y031118D01*
X028119Y031027D01*
X028057Y030911D01*
X028018Y030785D01*
X028005Y030654D01*
X028018Y030522D01*
X028057Y030396D01*
X028119Y03028D01*
X028202Y030178D01*
X028304Y030094D01*
X028421Y030032D01*
X028547Y029994D01*
X028678Y029981D01*
X028809Y029994D01*
X028935Y030032D01*
X029052Y030094D01*
X029153Y030178D01*
X029168Y030196D01*
X029215Y030179D01*
Y027776D01*
X029224Y02769D01*
X02918Y027644D01*
X029131Y027649D01*
X029Y027636D01*
X028873Y027598D01*
X028757Y027536D01*
X028655Y027452D01*
X028572Y02735D01*
X028509Y027234D01*
X028471Y027108D01*
X028458Y026976D01*
X028471Y026845D01*
X028509Y026719D01*
X028572Y026603D01*
X028655Y026501D01*
X028757Y026417D01*
X028873Y026355D01*
X029Y026317D01*
X029117Y026305D01*
X029126Y026304D01*
X029129Y026304D01*
X029502Y025931D01*
X029469Y025894D01*
X029437Y025919D01*
X029321Y025982D01*
X029195Y02602D01*
X029064Y026033D01*
X028933Y02602D01*
X028806Y025982D01*
X02869Y025919D01*
X028588Y025836D01*
X028505Y025734D01*
X028442Y025618D01*
X028404Y025491D01*
X028391Y02536D01*
X028404Y025229D01*
X028442Y025103D01*
X028505Y024987D01*
X028588Y024885D01*
X02869Y024801D01*
X028806Y024739D01*
X028933Y024701D01*
X02905Y024689D01*
X02906Y024688D01*
X029063Y024688D01*
X037554Y016196D01*
Y015906D01*
X037552Y015904D01*
X037546Y015896D01*
X037471Y015805D01*
X037409Y015688D01*
X037371Y015562D01*
X037358Y015431D01*
X037371Y0153D01*
X037409Y015174D01*
X037471Y015057D01*
X037555Y014956D01*
X037657Y014872D01*
X037773Y01481D01*
X037899Y014771D01*
X03803Y014759D01*
X038162Y014771D01*
X038288Y01481D01*
X038404Y014872D01*
X038506Y014956D01*
X038589Y015057D01*
X038652Y015174D01*
X03869Y0153D01*
X038703Y015431D01*
X03869Y015562D01*
X038652Y015688D01*
X038589Y015805D01*
X038515Y015896D01*
X038509Y015904D01*
X038507Y015906D01*
Y016394D01*
X038491Y016517D01*
X038443Y016632D01*
X038367Y016731D01*
X029736Y025361D01*
X029736Y025364D01*
X029735Y025374D01*
X029723Y025491D01*
X029685Y025618D01*
X029623Y025734D01*
X029597Y025765D01*
X029634Y025799D01*
X041323Y01411D01*
Y01129D01*
X041321Y011288D01*
X041315Y01128D01*
X041241Y011189D01*
X041179Y011072D01*
X04114Y010946D01*
X041127Y010815D01*
X04114Y010684D01*
X041179Y010558D01*
X041241Y010441D01*
X041324Y010339D01*
X041426Y010256D01*
X041543Y010194D01*
X041669Y010155D01*
X0418Y010142D01*
X041931Y010155D01*
X042057Y010194D01*
X042174Y010256D01*
X042276Y010339D01*
X042359Y010441D01*
X042421Y010558D01*
X04246Y010684D01*
X042473Y010815D01*
X04246Y010946D01*
X042421Y011072D01*
X042359Y011189D01*
X042284Y01128D01*
X042279Y011288D01*
X042277Y01129D01*
Y014307D01*
X04226Y01443D01*
X042213Y014545D01*
X042137Y014644D01*
X038791Y01799D01*
X038794Y01804D01*
X038828Y018068D01*
X038912Y01817D01*
X038974Y018286D01*
X039012Y018412D01*
X039025Y018543D01*
X039012Y018675D01*
X038974Y018801D01*
X038912Y018917D01*
X038828Y019019D01*
X038726Y019102D01*
X038645Y019146D01*
X033117Y024674D01*
X033124Y024723D01*
X033185Y024756D01*
X033261Y024819D01*
X035184D01*
X040649Y019354D01*
X040752Y019275D01*
X040872Y019225D01*
X041Y019208D01*
X043886D01*
X043903Y019158D01*
X043841Y019107D01*
X043758Y019006D01*
X043696Y018889D01*
X043657Y018763D01*
X043644Y018632D01*
X043657Y018501D01*
X043684Y018413D01*
Y017894D01*
X043696Y01777D01*
X043732Y017651D01*
X043791Y017542D01*
X043869Y017446D01*
X045572Y015743D01*
X045572Y015743D01*
X045668Y015665D01*
X045777Y015606D01*
X045896Y01557D01*
X04602Y015558D01*
X04602Y015558D01*
X047901D01*
Y013956D01*
X049388D01*
Y013959D01*
X049428Y013988D01*
X049499Y013967D01*
X049644Y013953D01*
X04979Y013967D01*
X04993Y01401D01*
X05006Y014079D01*
X050173Y014172D01*
X050266Y014285D01*
X050294Y014338D01*
X050359Y014352D01*
X050418Y014307D01*
X050527Y014262D01*
X050594Y014253D01*
Y01485D01*
X050694D01*
Y014253D01*
X050762Y014262D01*
X050871Y014307D01*
X05093Y014352D01*
X050995Y014338D01*
X051023Y014285D01*
X051116Y014172D01*
X051229Y014079D01*
X051359Y01401D01*
X051499Y013967D01*
X051644Y013953D01*
X05179Y013967D01*
X05193Y01401D01*
X05206Y014079D01*
X052144Y014148D01*
X052229Y014079D01*
X052359Y01401D01*
X052499Y013967D01*
X052644Y013953D01*
X05279Y013967D01*
X05293Y01401D01*
X05306Y014079D01*
X053144Y014148D01*
X053229Y014079D01*
X053359Y01401D01*
X053499Y013967D01*
X053644Y013953D01*
X05379Y013967D01*
X05393Y01401D01*
X05406Y014079D01*
X054173Y014172D01*
X054266Y014285D01*
X054335Y014414D01*
X054377Y014554D01*
X054392Y0147D01*
Y015D01*
X054377Y015146D01*
X054335Y015286D01*
X054266Y015415D01*
X054173Y015528D01*
X05406Y015621D01*
X05393Y01569D01*
X05379Y015733D01*
X053644Y015747D01*
X053499Y015733D01*
X053359Y01569D01*
X053229Y015621D01*
X053144Y015552D01*
X05306Y015621D01*
X052975Y015667D01*
X05297Y015716D01*
X053003Y015743D01*
X054587Y017328D01*
X054666Y017424D01*
X054725Y017533D01*
X054761Y017652D01*
X054773Y017776D01*
X054773Y017776D01*
Y019181D01*
X054799Y019268D01*
X054812Y0194D01*
X054799Y019531D01*
X054761Y019657D01*
X054699Y019773D01*
X054615Y019875D01*
X054513Y019959D01*
X054397Y020021D01*
X054271Y020059D01*
X05414Y020072D01*
X054009Y020059D01*
X053882Y020021D01*
X053766Y019959D01*
X053664Y019875D01*
X053581Y019773D01*
X053518Y019657D01*
X05348Y019531D01*
X053467Y0194D01*
X05348Y019268D01*
X053507Y019181D01*
Y018038D01*
X052293Y016824D01*
X049851D01*
X049763Y016851D01*
X049632Y016863D01*
X049501Y016851D01*
X049413Y016824D01*
X046282D01*
X045887Y017219D01*
X045919Y017257D01*
X046039Y017208D01*
X046167Y017191D01*
X051522D01*
X05165Y017208D01*
X05177Y017257D01*
X051873Y017336D01*
X052253Y017717D01*
X052352Y017726D01*
X052478Y017764D01*
X052594Y017827D01*
X052696Y01791D01*
X05278Y018012D01*
X052842Y018128D01*
X05288Y018255D01*
X052893Y018386D01*
X05288Y018517D01*
X052842Y018643D01*
X05278Y018759D01*
X052696Y018861D01*
X052594Y018945D01*
X052478Y019007D01*
X052352Y019045D01*
X05222Y019058D01*
X05216Y019052D01*
X052101Y019163D01*
X052017Y019265D01*
X051915Y019349D01*
X051799Y019411D01*
X051673Y019449D01*
X051541Y019462D01*
X05141Y019449D01*
X051284Y019411D01*
X051168Y019349D01*
X051066Y019265D01*
X050982Y019163D01*
X05092Y019047D01*
X050882Y018921D01*
X050872Y018822D01*
X050725Y018676D01*
X046599D01*
X04553Y019745D01*
X045595Y019823D01*
X045657Y019939D01*
X045695Y020066D01*
X045708Y020197D01*
X045695Y020328D01*
X045657Y020454D01*
X045595Y02057D01*
X045511Y020672D01*
X045409Y020756D01*
X045293Y020818D01*
X045167Y020856D01*
X045068Y020866D01*
X044514Y02142D01*
X044543Y021462D01*
X044549Y02146D01*
X044597Y021453D01*
Y021776D01*
X044274D01*
X044281Y021728D01*
X044283Y021722D01*
X044241Y021694D01*
X043726Y022209D01*
Y023603D01*
X043788Y02368D01*
X04385Y023796D01*
X043889Y023922D01*
X043902Y024053D01*
X043889Y024184D01*
X04385Y024311D01*
X043788Y024427D01*
X043705Y024529D01*
X043603Y024612D01*
X043486Y024674D01*
X04336Y024713D01*
X043229Y024726D01*
X043098Y024713D01*
X042972Y024674D01*
X042856Y024612D01*
X042754Y024529D01*
X04267Y024427D01*
X042608Y024311D01*
X04257Y024184D01*
X042557Y024053D01*
X04257Y023922D01*
X042608Y023796D01*
X04267Y02368D01*
X042733Y023603D01*
Y022607D01*
X042687Y022588D01*
X042087Y023188D01*
Y023694D01*
X04215Y02377D01*
X042212Y023886D01*
X04225Y024012D01*
X042263Y024144D01*
X04225Y024275D01*
X042212Y024401D01*
X04215Y024517D01*
X042066Y024619D01*
X041964Y024703D01*
X041848Y024765D01*
X041722Y024803D01*
X041591Y024816D01*
X041459Y024803D01*
X041333Y024765D01*
X041217Y024703D01*
X041115Y024619D01*
X041031Y024517D01*
X040969Y024401D01*
X040931Y024275D01*
X040918Y024144D01*
X040931Y024012D01*
X040969Y023886D01*
X041031Y02377D01*
X041094Y023694D01*
Y022982D01*
X041111Y022854D01*
X041161Y022734D01*
X04124Y022631D01*
X043624Y020247D01*
X043604Y020201D01*
X041206D01*
X035741Y025666D01*
X035638Y025745D01*
X035518Y025794D01*
X03539Y025811D01*
X033261D01*
X033185Y025874D01*
X033068Y025936D01*
X032942Y025975D01*
X032811Y025987D01*
X03268Y025975D01*
X032608Y025953D01*
X032568Y025983D01*
Y026198D01*
X032595Y026286D01*
X032608Y026417D01*
X032595Y026549D01*
X032556Y026675D01*
X032494Y026791D01*
X032411Y026893D01*
X032309Y026977D01*
X032192Y027039D01*
X032066Y027077D01*
X031935Y02709D01*
X031804Y027077D01*
X031716Y02705D01*
X031469D01*
X030481Y028038D01*
Y034623D01*
X030528Y034642D01*
X035177Y029994D01*
X035279Y029915D01*
X035399Y029865D01*
X035528Y029848D01*
X044505D01*
X046232Y028121D01*
Y024488D01*
X046249Y02436D01*
X046298Y02424D01*
X046377Y024137D01*
X047598Y022917D01*
X047701Y022838D01*
X04782Y022788D01*
X047949Y022771D01*
X051039D01*
X051168Y022788D01*
X051288Y022838D01*
X05139Y022917D01*
X051627Y023153D01*
X051627Y023153D01*
X051705Y023256D01*
X051755Y023375D01*
X051772Y023504D01*
X051772Y023504D01*
Y024213D01*
X051772Y024213D01*
X051755Y024341D01*
X051705Y024461D01*
X051627Y024564D01*
X051627Y024564D01*
X050475Y025715D01*
X050372Y025794D01*
X050252Y025844D01*
X050124Y025861D01*
X0496D01*
X049523Y025923D01*
X049407Y025986D01*
X049281Y026024D01*
X04915Y026037D01*
X049018Y026024D01*
X048892Y025986D01*
X048776Y025923D01*
X048674Y02584D01*
X04859Y025738D01*
X048544Y025652D01*
X048494Y025664D01*
Y028819D01*
X048494Y028819D01*
X048477Y028947D01*
X048428Y029067D01*
X048349Y02917D01*
X048349Y02917D01*
X045731Y031788D01*
X045628Y031867D01*
X045508Y031916D01*
X04538Y031933D01*
X036324D01*
X033686Y034571D01*
X033709Y034619D01*
X033716Y034618D01*
Y03499D01*
Y035362D01*
X033668Y035356D01*
X033576Y035318D01*
X033515Y035271D01*
X033465Y035293D01*
Y03656D01*
X033448Y036688D01*
X033398Y036808D01*
X033319Y036911D01*
X032476Y037754D01*
X032467Y037853D01*
X032428Y037979D01*
X032366Y038095D01*
X032303Y038172D01*
Y038661D01*
X032303Y038661D01*
X032287Y03879D01*
X032237Y03891D01*
X032176Y038989D01*
X032204Y039013D01*
X032288Y039115D01*
X03235Y039231D01*
X032388Y039357D01*
X032401Y039488D01*
X032388Y039619D01*
X03235Y039746D01*
X032288Y039862D01*
X032225Y039938D01*
Y042828D01*
X03223Y042836D01*
X032278Y042894D01*
X03234Y04301D01*
X032378Y043137D01*
X032391Y043268D01*
X032378Y043399D01*
X03234Y043525D01*
X032278Y043641D01*
X032194Y043743D01*
X032092Y043827D01*
X031976Y043889D01*
X03185Y043927D01*
X031718Y04394D01*
X031587Y043927D01*
X031461Y043889D01*
X031401Y043857D01*
X031359Y043883D01*
Y043987D01*
X032131Y04476D01*
X032139Y044766D01*
X032152Y044774D01*
X032171Y044782D01*
X032183Y044785D01*
X032203Y044795D01*
X032238Y044806D01*
X032355Y044868D01*
X032457Y044952D01*
X03254Y045054D01*
X032602Y04517D01*
X032641Y045296D01*
X032654Y045427D01*
X032641Y045558D01*
X032602Y045685D01*
X03254Y045801D01*
X032457Y045903D01*
X032355Y045986D01*
X032323Y046003D01*
X032323Y046004D01*
Y046452D01*
X032386Y046528D01*
X032448Y046644D01*
X032486Y046771D01*
X032499Y046902D01*
X032486Y047033D01*
X032448Y047159D01*
X032386Y047275D01*
X032302Y047377D01*
X0322Y047461D01*
X032084Y047523D01*
X031958Y047561D01*
X031827Y047574D01*
D02*
G37*
G36*
X057103Y046509D02*
X055686D01*
Y045091D01*
X055692D01*
X055727Y045041D01*
X055696Y044939D01*
X055682Y0448D01*
X055696Y044661D01*
X055737Y044527D01*
X055802Y044404D01*
X055891Y044296D01*
X055999Y044208D01*
X056122Y044142D01*
X056256Y044102D01*
X056394Y044088D01*
X056533Y044102D01*
X056667Y044142D01*
X05679Y044208D01*
X056898Y044296D01*
X056987Y044404D01*
X057052Y044527D01*
X057093Y044661D01*
X057107Y0448D01*
X057093Y044939D01*
X057062Y045041D01*
X057097Y045091D01*
X057103D01*
Y046509D01*
D02*
G37*
G36*
X034807Y043273D02*
Y042951D01*
X03513D01*
X035123Y042999D01*
X035086Y043091D01*
X035025Y043169D01*
X034947Y043229D01*
X034856Y043267D01*
X034807Y043273D01*
D02*
G37*
G36*
X034707D02*
X034659Y043267D01*
X034568Y043229D01*
X03449Y043169D01*
X034429Y043091D01*
X034392Y042999D01*
X034385Y042951D01*
X034707D01*
Y043273D01*
D02*
G37*
G36*
X03513Y042851D02*
X034807D01*
Y042529D01*
X034856Y042535D01*
X034947Y042573D01*
X035025Y042633D01*
X035086Y042712D01*
X035123Y042803D01*
X03513Y042851D01*
D02*
G37*
G36*
X034707D02*
X034385D01*
X034392Y042803D01*
X034429Y042712D01*
X03449Y042633D01*
X034568Y042573D01*
X034659Y042535D01*
X034707Y042529D01*
Y042851D01*
D02*
G37*
G36*
X051509Y03888D02*
Y038558D01*
X051832D01*
X051825Y038606D01*
X051788Y038697D01*
X051727Y038776D01*
X051649Y038836D01*
X051557Y038874D01*
X051509Y03888D01*
D02*
G37*
G36*
X051409D02*
X051361Y038874D01*
X05127Y038836D01*
X051192Y038776D01*
X051131Y038697D01*
X051094Y038606D01*
X051087Y038558D01*
X051409D01*
Y03888D01*
D02*
G37*
G36*
X057103Y040659D02*
X055686D01*
Y039241D01*
X055692D01*
X055727Y039191D01*
X055696Y039089D01*
X055682Y03895D01*
X055696Y038811D01*
X055737Y038677D01*
X055802Y038554D01*
X055891Y038446D01*
X055999Y038358D01*
X056122Y038292D01*
X056256Y038252D01*
X056394Y038238D01*
X056533Y038252D01*
X056667Y038292D01*
X05679Y038358D01*
X056898Y038446D01*
X056987Y038554D01*
X057052Y038677D01*
X057093Y038811D01*
X057107Y03895D01*
X057093Y039089D01*
X057062Y039191D01*
X057097Y039241D01*
X057103D01*
Y040659D01*
D02*
G37*
G36*
X051832Y038458D02*
X051509D01*
Y038136D01*
X051557Y038142D01*
X051649Y03818D01*
X051727Y03824D01*
X051788Y038318D01*
X051825Y03841D01*
X051832Y038458D01*
D02*
G37*
G36*
X051409D02*
X051087D01*
X051094Y03841D01*
X051131Y038318D01*
X051192Y03824D01*
X05127Y03818D01*
X051361Y038142D01*
X051409Y038136D01*
Y038458D01*
D02*
G37*
G36*
X053294Y036642D02*
Y03632D01*
X053616D01*
X05361Y036368D01*
X053572Y036459D01*
X053512Y036538D01*
X053434Y036598D01*
X053342Y036636D01*
X053294Y036642D01*
D02*
G37*
G36*
X053194D02*
X053146Y036636D01*
X053055Y036598D01*
X052976Y036538D01*
X052916Y036459D01*
X052878Y036368D01*
X052872Y03632D01*
X053194D01*
Y036642D01*
D02*
G37*
G36*
X053616Y03622D02*
X053294D01*
Y035897D01*
X053342Y035904D01*
X053434Y035942D01*
X053512Y036002D01*
X053572Y03608D01*
X05361Y036172D01*
X053616Y03622D01*
D02*
G37*
G36*
X053194D02*
X052872D01*
X052878Y036172D01*
X052916Y03608D01*
X052976Y036002D01*
X053055Y035942D01*
X053146Y035904D01*
X053194Y035897D01*
Y03622D01*
D02*
G37*
G36*
X033816Y035362D02*
Y03504D01*
X034138D01*
X034132Y035088D01*
X034094Y03518D01*
X034034Y035258D01*
X033955Y035318D01*
X033864Y035356D01*
X033816Y035362D01*
D02*
G37*
G36*
X034138Y03494D02*
X033816D01*
Y034618D01*
X033864Y034624D01*
X033955Y034662D01*
X034034Y034722D01*
X034094Y034801D01*
X034132Y034892D01*
X034138Y03494D01*
D02*
G37*
G36*
X057103Y034909D02*
X055686D01*
Y033491D01*
X055692D01*
X055727Y033441D01*
X055696Y033339D01*
X055682Y0332D01*
X055696Y033061D01*
X055737Y032927D01*
X055802Y032804D01*
X055891Y032696D01*
X055999Y032608D01*
X056122Y032542D01*
X056256Y032502D01*
X056394Y032488D01*
X056533Y032502D01*
X056667Y032542D01*
X05679Y032608D01*
X056898Y032696D01*
X056987Y032804D01*
X057052Y032927D01*
X057093Y033061D01*
X057107Y0332D01*
X057093Y033339D01*
X057062Y033441D01*
X057097Y033491D01*
X057103D01*
Y034909D01*
D02*
G37*
G36*
X049426Y032016D02*
Y031694D01*
X049748D01*
X049742Y031742D01*
X049704Y031833D01*
X049644Y031912D01*
X049565Y031972D01*
X049474Y03201D01*
X049426Y032016D01*
D02*
G37*
G36*
X049326D02*
X049278Y03201D01*
X049187Y031972D01*
X049108Y031912D01*
X049048Y031833D01*
X04901Y031742D01*
X049004Y031694D01*
X049326D01*
Y032016D01*
D02*
G37*
G36*
X049748Y031594D02*
X049426D01*
Y031271D01*
X049474Y031278D01*
X049565Y031316D01*
X049644Y031376D01*
X049704Y031454D01*
X049742Y031546D01*
X049748Y031594D01*
D02*
G37*
G36*
X049326D02*
X049004D01*
X04901Y031546D01*
X049048Y031454D01*
X049108Y031376D01*
X049187Y031316D01*
X049278Y031278D01*
X049326Y031271D01*
Y031594D01*
D02*
G37*
G36*
X057103Y029109D02*
X055686D01*
Y027691D01*
X055692D01*
X055727Y027641D01*
X055696Y027539D01*
X055682Y0274D01*
X055696Y027261D01*
X055737Y027127D01*
X055802Y027004D01*
X055891Y026896D01*
X055999Y026808D01*
X056122Y026742D01*
X056256Y026702D01*
X056394Y026688D01*
X056533Y026702D01*
X056667Y026742D01*
X05679Y026808D01*
X056898Y026896D01*
X056987Y027004D01*
X057052Y027127D01*
X057093Y027261D01*
X057107Y0274D01*
X057093Y027539D01*
X057062Y027641D01*
X057097Y027691D01*
X057103D01*
Y029109D01*
D02*
G37*
G36*
X0448Y025973D02*
Y02565D01*
X045122D01*
X045116Y025698D01*
X045078Y02579D01*
X045018Y025868D01*
X044939Y025928D01*
X044848Y025966D01*
X0448Y025973D01*
D02*
G37*
G36*
X0447D02*
X044652Y025966D01*
X044561Y025928D01*
X044482Y025868D01*
X044422Y02579D01*
X044384Y025698D01*
X044378Y02565D01*
X0447D01*
Y025973D01*
D02*
G37*
G36*
X045122Y02555D02*
X0448D01*
Y025228D01*
X044848Y025234D01*
X044939Y025272D01*
X045018Y025333D01*
X045078Y025411D01*
X045116Y025502D01*
X045122Y02555D01*
D02*
G37*
G36*
X0447D02*
X044378D01*
X044384Y025502D01*
X044422Y025411D01*
X044482Y025333D01*
X044561Y025272D01*
X044652Y025234D01*
X0447Y025228D01*
Y02555D01*
D02*
G37*
G36*
X05542Y037598D02*
X055289Y037585D01*
X055163Y037547D01*
X055047Y037485D01*
X054945Y037401D01*
X054861Y037299D01*
X054799Y037183D01*
X054761Y037057D01*
X054751Y036958D01*
X052793Y035001D01*
X052715Y034898D01*
X052665Y034778D01*
X052648Y03465D01*
X052665Y034522D01*
X052715Y034402D01*
X052733Y034378D01*
Y025287D01*
X05267Y02521D01*
X052608Y025094D01*
X05257Y024968D01*
X052557Y024837D01*
X05257Y024705D01*
X052608Y024579D01*
X05267Y024463D01*
X052754Y024361D01*
X052856Y024277D01*
X052972Y024215D01*
X053098Y024177D01*
X053229Y024164D01*
X053261Y024167D01*
X053298Y024134D01*
Y02405D01*
X053235Y023974D01*
X053173Y023857D01*
X053135Y023731D01*
X053122Y0236D01*
X053135Y023469D01*
X053173Y023343D01*
X053235Y023226D01*
X053319Y023124D01*
X053421Y023041D01*
X053537Y022979D01*
X053638Y022948D01*
X053664Y022939D01*
X053681Y022888D01*
X053672Y0228D01*
X053685Y022669D01*
X053723Y022543D01*
X053785Y022426D01*
X053869Y022324D01*
X053971Y022241D01*
X054087Y022179D01*
X054213Y02214D01*
X054344Y022127D01*
X054476Y02214D01*
X054602Y022179D01*
X054718Y022241D01*
X05482Y022324D01*
X054904Y022426D01*
X054966Y022543D01*
X055004Y022669D01*
X055017Y0228D01*
X055004Y022931D01*
X054966Y023057D01*
X054904Y023174D01*
X054841Y02325D01*
Y02432D01*
X055377Y024856D01*
X055476Y024866D01*
X055602Y024904D01*
X055718Y024967D01*
X05582Y02505D01*
X055904Y025152D01*
X055966Y025268D01*
X056004Y025395D01*
X056017Y025526D01*
X056004Y025657D01*
X055966Y025783D01*
X055904Y025899D01*
X05582Y026001D01*
X055718Y026085D01*
X055602Y026147D01*
X055476Y026185D01*
X055344Y026198D01*
X055213Y026185D01*
X055087Y026147D01*
X054971Y026085D01*
X054869Y026001D01*
X054785Y025899D01*
X054723Y025783D01*
X054685Y025657D01*
X054675Y025558D01*
X054337Y02522D01*
X054291Y025239D01*
Y029094D01*
X055453Y030256D01*
X055551Y030266D01*
X055678Y030304D01*
X055794Y030367D01*
X055896Y03045D01*
X055979Y030552D01*
X056042Y030668D01*
X05608Y030795D01*
X056093Y030926D01*
X05608Y031057D01*
X056042Y031183D01*
X055979Y031299D01*
X055896Y031401D01*
X055794Y031485D01*
X055678Y031547D01*
X055551Y031585D01*
X05542Y031598D01*
X055289Y031585D01*
X055163Y031547D01*
X055047Y031485D01*
X054945Y031401D01*
X054861Y031299D01*
X054799Y031183D01*
X054761Y031057D01*
X054751Y030958D01*
X053772Y029979D01*
X053726Y029998D01*
Y034529D01*
X055453Y036256D01*
X055551Y036266D01*
X055678Y036304D01*
X055794Y036367D01*
X055896Y03645D01*
X055979Y036552D01*
X056042Y036668D01*
X05608Y036795D01*
X056093Y036926D01*
X05608Y037057D01*
X056042Y037183D01*
X055979Y037299D01*
X055896Y037401D01*
X055794Y037485D01*
X055678Y037547D01*
X055551Y037585D01*
X05542Y037598D01*
D02*
G37*
G36*
X055794Y022301D02*
Y021979D01*
X056116D01*
X05611Y022027D01*
X056072Y022119D01*
X056012Y022197D01*
X055934Y022257D01*
X055842Y022295D01*
X055794Y022301D01*
D02*
G37*
G36*
X055694D02*
X055646Y022295D01*
X055555Y022257D01*
X055476Y022197D01*
X055416Y022119D01*
X055378Y022027D01*
X055372Y021979D01*
X055694D01*
Y022301D01*
D02*
G37*
G36*
X044697Y022198D02*
Y021876D01*
X045019D01*
X045013Y021924D01*
X044975Y022015D01*
X044914Y022094D01*
X044836Y022154D01*
X044745Y022192D01*
X044697Y022198D01*
D02*
G37*
G36*
X044597D02*
X044549Y022192D01*
X044457Y022154D01*
X044379Y022094D01*
X044319Y022015D01*
X044281Y021924D01*
X044274Y021876D01*
X044597D01*
Y022198D01*
D02*
G37*
G36*
X056116Y021879D02*
X055794D01*
Y021557D01*
X055842Y021563D01*
X055934Y021601D01*
X056012Y021661D01*
X056072Y02174D01*
X05611Y021831D01*
X056116Y021879D01*
D02*
G37*
G36*
X055694D02*
X055372D01*
X055378Y021831D01*
X055416Y02174D01*
X055476Y021661D01*
X055555Y021601D01*
X055646Y021563D01*
X055694Y021557D01*
Y021879D01*
D02*
G37*
G36*
X045019Y021776D02*
X044697D01*
Y021453D01*
X044745Y02146D01*
X044836Y021498D01*
X044914Y021558D01*
X044975Y021636D01*
X045013Y021728D01*
X045019Y021776D01*
D02*
G37*
G36*
X03384Y019669D02*
Y019347D01*
X034162D01*
X034156Y019395D01*
X034118Y019487D01*
X034058Y019565D01*
X03398Y019625D01*
X033888Y019663D01*
X03384Y019669D01*
D02*
G37*
G36*
X03374D02*
X033692Y019663D01*
X033601Y019625D01*
X033522Y019565D01*
X033462Y019487D01*
X033424Y019395D01*
X033418Y019347D01*
X03374D01*
Y019669D01*
D02*
G37*
G36*
X034162Y019247D02*
X03384D01*
Y018925D01*
X033888Y018931D01*
X03398Y018969D01*
X034058Y019029D01*
X034118Y019108D01*
X034156Y019199D01*
X034162Y019247D01*
D02*
G37*
G36*
X03374D02*
X033418D01*
X033424Y019199D01*
X033462Y019108D01*
X033522Y019029D01*
X033601Y018969D01*
X033692Y018931D01*
X03374Y018925D01*
Y019247D01*
D02*
G37*
%LPD*%
D24*
X050941Y01935D02*
X052526Y020935D01*
X047122Y01935D02*
X050941D01*
X044647Y021826D02*
X047122Y01935D01*
X051459Y038054D02*
X053244Y03627D01*
X051459Y038054D02*
Y038508D01*
X019757Y014982D02*
Y018701D01*
X020353Y019297D01*
X03379D01*
X031935Y024961D02*
Y026417D01*
Y024961D02*
X038352Y018543D01*
X031207Y026417D02*
X031935D01*
X029848Y027776D02*
X031207Y026417D01*
X029848Y027776D02*
Y037352D01*
X055744Y02186D02*
Y021929D01*
X055715D02*
X055744D01*
X05472Y020935D02*
X055715Y021929D01*
X033766Y041909D02*
X034757Y042901D01*
X033766Y03499D02*
Y041909D01*
X051177Y034203D02*
X053244Y03627D01*
X051177Y032549D02*
Y034203D01*
X050272Y031644D02*
X051177Y032549D01*
X049376Y031644D02*
X050272D01*
X044254Y021826D02*
X044647D01*
X043909Y022171D02*
X044254Y021826D01*
X043909Y02476D02*
X04475Y0256D01*
X043909Y022171D02*
Y02476D01*
X052526Y020935D02*
X05472D01*
X044317Y017894D02*
Y018632D01*
X04602Y016191D02*
X049632D01*
X044317Y017894D02*
X04602Y016191D01*
X05414Y017776D02*
Y0194D01*
X052555Y016191D02*
X05414Y017776D01*
X049632Y016191D02*
X052555D01*
D25*
X041591Y022982D02*
X046394Y018179D01*
X043229Y022003D02*
X045035Y020197D01*
X043229Y022003D02*
Y024053D01*
X030026Y045256D02*
X030695Y045925D01*
X031981Y045312D02*
Y045427D01*
X030862Y044193D02*
X031981Y045312D01*
X053229Y024837D02*
Y034565D01*
X053144Y03465D02*
X053229Y034565D01*
X046394Y018179D02*
X050931D01*
X051541Y018789D01*
X041591Y022982D02*
Y024144D01*
X046167Y017687D02*
X051522D01*
X04415Y019705D02*
X046167Y017687D01*
X041Y019705D02*
X04415D01*
X051522Y017687D02*
X05222Y018386D01*
X03539Y025315D02*
X041Y019705D01*
X054344Y0228D02*
Y024526D01*
X032811Y025315D02*
X03539D01*
X04725Y024823D02*
Y028553D01*
X044967Y030837D02*
X04725Y028553D01*
X035911Y030837D02*
X044967D01*
X047998Y024724D02*
Y028819D01*
X04538Y031437D02*
X047998Y028819D01*
X031325Y035423D02*
X035911Y030837D01*
X035528Y030344D02*
X044711D01*
X030764Y035108D02*
X035528Y030344D01*
X031325Y035423D02*
Y038593D01*
X030478Y039439D02*
X031325Y038593D01*
X030478Y039439D02*
Y044656D01*
X031827Y046004D01*
Y046902D01*
X036118Y031437D02*
X04538D01*
X032968Y034587D02*
X036118Y031437D01*
X030764Y035108D02*
Y038376D01*
X031807Y037721D02*
Y038661D01*
X030026Y039114D02*
X030764Y038376D01*
X031728Y039488D02*
Y043258D01*
X031718Y043268D02*
X031728Y043258D01*
X030026Y039114D02*
Y045256D01*
X030862Y039606D02*
Y044193D01*
Y039606D02*
X031807Y038661D01*
X032968Y034587D02*
Y03656D01*
X031807Y037721D02*
X032968Y03656D01*
X04915Y025364D02*
X050124D01*
X051276Y024213D01*
Y023504D02*
Y024213D01*
X051039Y023268D02*
X051276Y023504D01*
X047949Y023268D02*
X051039D01*
X046728Y024488D02*
X047949Y023268D01*
X046728Y024488D02*
Y028327D01*
X044711Y030344D02*
X046728Y028327D01*
X054344Y024526D02*
X055344Y025526D01*
X053794Y0236D02*
Y0293D01*
X05542Y030926D01*
X053144Y03465D02*
X05542Y036926D01*
D26*
X018351Y029581D02*
X020896D01*
X021757Y02872D01*
X022332Y045325D02*
Y04802D01*
X021113Y049238D02*
X022332Y04802D01*
X018278Y049238D02*
X021113D01*
X028148Y041846D02*
X028156Y041839D01*
Y033809D02*
Y041839D01*
X028678Y030654D02*
Y042821D01*
X028869Y043012D01*
X03803Y015431D02*
Y016394D01*
X029064Y02536D02*
X03803Y016394D01*
X0418Y010815D02*
Y014307D01*
X029131Y026976D02*
X0418Y014307D01*
X035626Y044774D02*
X0366Y043799D01*
X035745Y035656D02*
Y042983D01*
X036571Y043809D01*
X021757Y027D02*
X02258Y026177D01*
X021757Y027D02*
Y02872D01*
X02166Y0361D02*
X022615Y035146D01*
X02166Y0361D02*
Y038189D01*
X020853Y038996D02*
X02166Y038189D01*
X018196Y038996D02*
X020853D01*
X043608Y038878D02*
X044199Y038287D01*
X039169Y038878D02*
X043608D01*
X038402Y03811D02*
X039169Y038878D01*
X036817Y03811D02*
X038402D01*
X036656Y037221D02*
X038812D01*
X03972Y03813D01*
X044533Y034075D02*
X045911D01*
X046827Y03499D01*
X046108Y038169D02*
X046827Y037451D01*
Y03499D02*
Y037451D01*
X03972Y03813D02*
X042329D01*
X042398Y038061D01*
X043677Y039695D02*
Y040197D01*
Y039695D02*
X045203Y038169D01*
X046108D01*
X046709Y044104D02*
Y050098D01*
X045951Y050856D02*
X046709Y050098D01*
X044051Y050856D02*
X045951D01*
X035626Y044774D02*
Y046644D01*
X03728Y048297D01*
X039012D01*
X043795Y046486D02*
X04414Y046142D01*
X03727Y046486D02*
X043795D01*
X036185Y045402D02*
X03727Y046486D01*
X037899Y045699D02*
X042073D01*
X037102Y044902D02*
X037899Y045699D01*
D27*
X021221Y021939D02*
D03*
X013347D02*
D03*
X021792Y030959D02*
D03*
X013918D02*
D03*
X021694Y040624D02*
D03*
X01382D02*
D03*
X056394Y0274D02*
D03*
Y0332D02*
D03*
Y03895D02*
D03*
Y0448D02*
D03*
D28*
X009087Y026656D02*
D03*
Y049419D02*
D03*
D29*
Y029907D02*
D03*
Y033159D02*
D03*
Y036411D02*
D03*
Y039663D02*
D03*
Y042915D02*
D03*
Y046167D02*
D03*
D30*
X040646Y04321D02*
D03*
Y035529D02*
D03*
D31*
X041646Y04321D02*
D03*
X042646D02*
D03*
X043646D02*
D03*
X044646D02*
D03*
X045646D02*
D03*
X040646Y04921D02*
D03*
X041646D02*
D03*
X042646D02*
D03*
X043646D02*
D03*
X044646D02*
D03*
X045646D02*
D03*
X041646Y035529D02*
D03*
X042646D02*
D03*
X043646D02*
D03*
X044646D02*
D03*
X045646D02*
D03*
X040646Y041529D02*
D03*
X041646D02*
D03*
X042646D02*
D03*
X043646D02*
D03*
X044646D02*
D03*
X045646D02*
D03*
D32*
X014202Y013571D02*
D03*
X015776D02*
D03*
X017351D02*
D03*
X018926D02*
D03*
D33*
X007513Y015041D02*
D03*
D34*
Y01701D02*
D03*
D35*
X053644Y01485D02*
D03*
X052644D02*
D03*
X051644D02*
D03*
X050644D02*
D03*
X049644D02*
D03*
D36*
X048644D02*
D03*
D37*
X056394Y0284D02*
D03*
Y0342D02*
D03*
Y03995D02*
D03*
Y0458D02*
D03*
D38*
X043229Y024053D02*
D03*
X030695Y045925D02*
D03*
X031981Y045427D02*
D03*
X053229Y024837D02*
D03*
X018351Y029581D02*
D03*
X029064Y02536D02*
D03*
X022332Y045325D02*
D03*
X018278Y049238D02*
D03*
X051459Y038508D02*
D03*
X028678Y030654D02*
D03*
X028156Y033809D02*
D03*
X028148Y041846D02*
D03*
X028869Y043012D02*
D03*
X03803Y015431D02*
D03*
X0418Y010815D02*
D03*
X029131Y026976D02*
D03*
X019757Y018701D02*
D03*
Y014982D02*
D03*
X035745Y035656D02*
D03*
X03379Y019297D02*
D03*
X02258Y026177D02*
D03*
X022615Y035146D02*
D03*
X018196Y038996D02*
D03*
X038352Y018543D02*
D03*
X055744Y021929D02*
D03*
X044199Y038287D02*
D03*
X036817Y03811D02*
D03*
X04475Y0256D02*
D03*
X044647Y021826D02*
D03*
X031935Y026417D02*
D03*
X029848Y037352D02*
D03*
X045035Y020197D02*
D03*
X044317Y018632D02*
D03*
X051541Y018789D02*
D03*
X041591Y024144D02*
D03*
X05222Y018386D02*
D03*
X049632Y016191D02*
D03*
X05414Y0194D02*
D03*
X032811Y025315D02*
D03*
X04725Y024823D02*
D03*
X031827Y046902D02*
D03*
X031728Y039488D02*
D03*
X030764Y038376D02*
D03*
X031807Y037721D02*
D03*
X04915Y025364D02*
D03*
X047998Y024724D02*
D03*
X033766Y03499D02*
D03*
X034757Y042901D02*
D03*
X053244Y03627D02*
D03*
X049376Y031644D02*
D03*
X044533Y034075D02*
D03*
X031718Y043268D02*
D03*
X042398Y038061D02*
D03*
X043677Y040197D02*
D03*
X036656Y037221D02*
D03*
X046709Y044104D02*
D03*
X044051Y050856D02*
D03*
X036571Y043809D02*
D03*
X039012Y048297D02*
D03*
X044169Y046112D02*
D03*
X036185Y045402D02*
D03*
X042073Y045699D02*
D03*
X037102Y044902D02*
D03*
X05542Y036926D02*
D03*
X053794Y0236D02*
D03*
X05542Y030926D02*
D03*
X054344Y0228D02*
D03*
X055344Y025526D02*
D03*
D39*
X057906Y051065D02*
D03*
Y008939D02*
D03*
X003182D02*
D03*
Y051065D02*
D03*
M02*
