G04*
G04 #@! TF.GenerationSoftware,Altium Limited,Altium Designer,18.0.7 (293)*
G04*
G04 Layer_Color=128*
%FSLAX44Y44*%
%MOMM*%
G71*
G01*
G75*
%ADD38R,1.4000X1.2000*%
%ADD39R,1.2000X1.4000*%
%ADD40R,4.1000X2.0000*%
%ADD41R,2.0000X1.9000*%
%ADD42R,0.8500X1.2000*%
%ADD43R,1.7800X1.5200*%
%ADD44R,4.3180X0.7000*%
%ADD45O,4.3180X0.7000*%
%ADD46R,1.2000X0.8500*%
%ADD47R,1.9000X2.0000*%
%ADD48R,1.5200X1.7800*%
%ADD49R,1.3000X2.0000*%
%ADD50R,6.3500X6.3500*%
%ADD51R,0.4826X1.4732*%
%ADD52R,1.4732X0.4826*%
G04:AMPARAMS|DCode=53|XSize=5.5mm|YSize=1.5mm|CornerRadius=0.1875mm|HoleSize=0mm|Usage=FLASHONLY|Rotation=0.000|XOffset=0mm|YOffset=0mm|HoleType=Round|Shape=RoundedRectangle|*
%AMROUNDEDRECTD53*
21,1,5.5000,1.1250,0,0,0.0*
21,1,5.1250,1.5000,0,0,0.0*
1,1,0.3750,2.5625,-0.5625*
1,1,0.3750,-2.5625,-0.5625*
1,1,0.3750,-2.5625,0.5625*
1,1,0.3750,2.5625,0.5625*
%
%ADD53ROUNDEDRECTD53*%
%ADD54R,1.2000X1.9000*%
G04:AMPARAMS|DCode=55|XSize=1mm|YSize=2mm|CornerRadius=0.125mm|HoleSize=0mm|Usage=FLASHONLY|Rotation=180.000|XOffset=0mm|YOffset=0mm|HoleType=Round|Shape=RoundedRectangle|*
%AMROUNDEDRECTD55*
21,1,1.0000,1.7500,0,0,180.0*
21,1,0.7500,2.0000,0,0,180.0*
1,1,0.2500,-0.3750,0.8750*
1,1,0.2500,0.3750,0.8750*
1,1,0.2500,0.3750,-0.8750*
1,1,0.2500,-0.3750,-0.8750*
%
%ADD55ROUNDEDRECTD55*%
G04:AMPARAMS|DCode=56|XSize=5.5mm|YSize=5.7mm|CornerRadius=0.6875mm|HoleSize=0mm|Usage=FLASHONLY|Rotation=180.000|XOffset=0mm|YOffset=0mm|HoleType=Round|Shape=RoundedRectangle|*
%AMROUNDEDRECTD56*
21,1,5.5000,4.3250,0,0,180.0*
21,1,4.1250,5.7000,0,0,180.0*
1,1,1.3750,-2.0625,2.1625*
1,1,1.3750,2.0625,2.1625*
1,1,1.3750,2.0625,-2.1625*
1,1,1.3750,-2.0625,-2.1625*
%
%ADD56ROUNDEDRECTD56*%
%ADD57R,2.0000X1.3000*%
%ADD58R,6.3500X6.3500*%
%ADD59R,1.9000X1.2000*%
G04:AMPARAMS|DCode=60|XSize=1.41mm|YSize=1.47mm|CornerRadius=0.1763mm|HoleSize=0mm|Usage=FLASHONLY|Rotation=180.000|XOffset=0mm|YOffset=0mm|HoleType=Round|Shape=RoundedRectangle|*
%AMROUNDEDRECTD60*
21,1,1.4100,1.1175,0,0,180.0*
21,1,1.0575,1.4700,0,0,180.0*
1,1,0.3525,-0.5288,0.5587*
1,1,0.3525,0.5288,0.5587*
1,1,0.3525,0.5288,-0.5587*
1,1,0.3525,-0.5288,-0.5587*
%
%ADD60ROUNDEDRECTD60*%
D38*
X581626Y490924D02*
D03*
Y509924D02*
D03*
X650848Y517659D02*
D03*
Y536659D02*
D03*
X788704Y395536D02*
D03*
Y376536D02*
D03*
X852778Y744836D02*
D03*
Y763836D02*
D03*
X504798Y695306D02*
D03*
Y714306D02*
D03*
X479398Y695306D02*
D03*
Y714306D02*
D03*
X428598Y695306D02*
D03*
Y714306D02*
D03*
X403198Y695306D02*
D03*
Y714306D02*
D03*
X503582Y794404D02*
D03*
Y775404D02*
D03*
X478182Y794404D02*
D03*
Y775404D02*
D03*
X428652Y794404D02*
D03*
Y775404D02*
D03*
X403252Y794404D02*
D03*
Y775404D02*
D03*
X676248Y889616D02*
D03*
Y908616D02*
D03*
X547978Y890886D02*
D03*
Y909886D02*
D03*
X420978Y885806D02*
D03*
Y904806D02*
D03*
X805842Y1059834D02*
D03*
Y1040834D02*
D03*
X805788Y1085196D02*
D03*
Y1104196D02*
D03*
X503528Y1017886D02*
D03*
Y1036886D02*
D03*
X478128Y1017886D02*
D03*
Y1036886D02*
D03*
X426058Y1017886D02*
D03*
Y1036886D02*
D03*
X400658Y1017886D02*
D03*
Y1036886D02*
D03*
X502312Y1122064D02*
D03*
Y1103064D02*
D03*
X476912Y1122064D02*
D03*
Y1103064D02*
D03*
X426112Y1122064D02*
D03*
Y1103064D02*
D03*
X400712Y1122064D02*
D03*
Y1103064D02*
D03*
X308002Y796944D02*
D03*
Y777944D02*
D03*
X250852Y748684D02*
D03*
Y729684D02*
D03*
X277522Y795674D02*
D03*
Y776674D02*
D03*
X250852Y799484D02*
D03*
Y780484D02*
D03*
X277468Y998836D02*
D03*
Y1017836D02*
D03*
X194918Y998836D02*
D03*
Y1017836D02*
D03*
X277522Y1068724D02*
D03*
Y1049724D02*
D03*
X193702Y1068724D02*
D03*
Y1049724D02*
D03*
X976596Y1086554D02*
D03*
Y1105554D02*
D03*
X977292Y1064914D02*
D03*
Y1045914D02*
D03*
Y993794D02*
D03*
Y974794D02*
D03*
X349858Y728326D02*
D03*
Y747326D02*
D03*
D39*
X547936Y509236D02*
D03*
X528936D02*
D03*
X488384Y509304D02*
D03*
X507384D02*
D03*
X691584Y378494D02*
D03*
X710584D02*
D03*
X252164Y826804D02*
D03*
X271164D02*
D03*
X287636Y523902D02*
D03*
X306636D02*
D03*
X260916Y551146D02*
D03*
X241916D02*
D03*
X261004Y521308D02*
D03*
X242004D02*
D03*
X241916Y490882D02*
D03*
X260916D02*
D03*
X243186Y462942D02*
D03*
X262186D02*
D03*
X300884Y459132D02*
D03*
X319883D02*
D03*
X819804Y318108D02*
D03*
X800804D02*
D03*
D40*
X655000Y449580D02*
D03*
X742000D02*
D03*
X656855Y309748D02*
D03*
X743855D02*
D03*
D41*
X896874Y716802D02*
D03*
X853186D02*
D03*
X344424Y491744D02*
D03*
X300736D02*
D03*
D42*
X570890Y909120D02*
D03*
X589788Y909066D02*
D03*
X580390Y884120D02*
D03*
X341020Y461113D02*
D03*
X359918Y461059D02*
D03*
X350520Y436113D02*
D03*
X445160Y905310D02*
D03*
X464058Y905256D02*
D03*
X454660Y880310D02*
D03*
X699160Y909120D02*
D03*
X718058Y909066D02*
D03*
X708660Y884120D02*
D03*
D43*
X858520Y845210D02*
D03*
X909320D02*
D03*
X883920D02*
D03*
X858520Y927710D02*
D03*
X909320D02*
D03*
X883920D02*
D03*
D44*
X604520Y1022350D02*
D03*
X603250Y699770D02*
D03*
D45*
X680720Y1022350D02*
D03*
X604520Y1035050D02*
D03*
Y1047750D02*
D03*
Y1060450D02*
D03*
Y1073150D02*
D03*
Y1085850D02*
D03*
Y1098550D02*
D03*
Y1111250D02*
D03*
X680720D02*
D03*
Y1098550D02*
D03*
Y1085850D02*
D03*
Y1073150D02*
D03*
Y1060450D02*
D03*
Y1047750D02*
D03*
Y1035050D02*
D03*
X679450Y712470D02*
D03*
Y725170D02*
D03*
Y737870D02*
D03*
Y750570D02*
D03*
Y763270D02*
D03*
Y775970D02*
D03*
Y788670D02*
D03*
X603250D02*
D03*
Y775970D02*
D03*
Y763270D02*
D03*
Y750570D02*
D03*
Y737870D02*
D03*
Y725170D02*
D03*
Y712470D02*
D03*
X679450Y699770D02*
D03*
D46*
X303730Y869340D02*
D03*
X303784Y888238D02*
D03*
X328730Y878840D02*
D03*
X879040Y744880D02*
D03*
X879094Y763778D02*
D03*
X904040Y754380D02*
D03*
D47*
X340614Y783336D02*
D03*
Y827024D02*
D03*
D48*
X253390Y655320D02*
D03*
Y680720D02*
D03*
Y629920D02*
D03*
X335890Y655320D02*
D03*
Y680720D02*
D03*
Y629920D02*
D03*
X327000Y354330D02*
D03*
Y405130D02*
D03*
Y379730D02*
D03*
X244500Y354330D02*
D03*
Y405130D02*
D03*
Y379730D02*
D03*
D49*
X205105Y335915D02*
D03*
X158115D02*
D03*
X159385Y639445D02*
D03*
X206375D02*
D03*
D50*
X182245Y405765D02*
D03*
X183515Y709295D02*
D03*
D51*
X561848Y413004D02*
D03*
X553974D02*
D03*
X545846D02*
D03*
X537972D02*
D03*
X529844D02*
D03*
X521970D02*
D03*
X514096D02*
D03*
X505968D02*
D03*
X498094D02*
D03*
X489966D02*
D03*
X482092D02*
D03*
Y298196D02*
D03*
X489966D02*
D03*
X498094D02*
D03*
X505968D02*
D03*
X514096D02*
D03*
X521970D02*
D03*
X529844D02*
D03*
X537972D02*
D03*
X545846D02*
D03*
X553974D02*
D03*
X561848D02*
D03*
D52*
X464566Y395478D02*
D03*
Y387604D02*
D03*
Y379476D02*
D03*
Y371602D02*
D03*
Y363474D02*
D03*
Y355600D02*
D03*
Y347726D02*
D03*
Y339598D02*
D03*
Y331724D02*
D03*
Y323596D02*
D03*
Y315722D02*
D03*
X579374D02*
D03*
Y323596D02*
D03*
Y331724D02*
D03*
Y339598D02*
D03*
Y347726D02*
D03*
Y355600D02*
D03*
Y363474D02*
D03*
Y371602D02*
D03*
Y379476D02*
D03*
Y387604D02*
D03*
Y395478D02*
D03*
D53*
X586060Y558800D02*
D03*
X501060D02*
D03*
D54*
X955144Y536556D02*
D03*
X904144D02*
D03*
X955144Y454056D02*
D03*
X904144D02*
D03*
D55*
X861163Y432047D02*
D03*
X815463Y432047D02*
D03*
D56*
X838314Y506047D02*
D03*
D57*
X934085Y965835D02*
D03*
Y1012825D02*
D03*
D58*
X864235Y989965D02*
D03*
D59*
X822344Y399329D02*
D03*
Y348330D02*
D03*
X904844Y399329D02*
D03*
Y348330D02*
D03*
D60*
X777480Y544830D02*
D03*
Y519430D02*
D03*
X680480D02*
D03*
Y544830D02*
D03*
M02*
