G04*
G04 #@! TF.GenerationSoftware,Altium Limited,Altium Designer,18.0.7 (293)*
G04*
G04 Layer_Color=32896*
%FSLAX44Y44*%
%MOMM*%
G71*
G01*
G75*
%ADD10C,0.2540*%
%ADD12C,0.1524*%
%ADD13C,0.2000*%
%ADD85C,0.2500*%
%ADD86C,0.3000*%
%ADD87C,0.4000*%
%ADD88C,0.1778*%
%ADD89C,0.1270*%
D10*
X645160Y1013460D02*
X643890Y1015660D01*
X641350D01*
X640080Y1013460D01*
X210453Y362585D02*
X209726Y365061D01*
X207776Y366750D01*
X205222Y367118D01*
X202875Y366046D01*
X201481Y363875D01*
Y361295D01*
X202875Y359124D01*
X205222Y358052D01*
X207776Y358420D01*
X209726Y360109D01*
X210453Y362585D01*
X643890Y690880D02*
X642620Y693080D01*
X640080D01*
X638810Y690880D01*
X211723Y666115D02*
X210996Y668591D01*
X209046Y670280D01*
X206492Y670648D01*
X204145Y669576D01*
X202750Y667405D01*
Y664825D01*
X204145Y662654D01*
X206492Y661582D01*
X209046Y661950D01*
X210996Y663639D01*
X211723Y666115D01*
X911994Y1013594D02*
X911267Y1016070D01*
X909317Y1017759D01*
X906763Y1018127D01*
X904416Y1017055D01*
X903021Y1014884D01*
Y1012304D01*
X904416Y1010133D01*
X906763Y1009062D01*
X909317Y1009429D01*
X911267Y1011118D01*
X911994Y1013594D01*
X666180Y501080D02*
X750000D01*
X647000Y481900D02*
X666180Y501080D01*
X647000Y417260D02*
Y481900D01*
X666180Y398080D02*
X750000D01*
X647000Y417260D02*
X666180Y398080D01*
X750000D02*
Y501080D01*
X668035Y361247D02*
X751855D01*
X648855Y342067D02*
X668035Y361247D01*
X648855Y277428D02*
Y342067D01*
X668035Y258248D02*
X751855D01*
X648855Y277428D02*
X668035Y258248D01*
X751855D02*
Y361247D01*
X577850Y909320D02*
X582930D01*
X596900D02*
X598170D01*
Y886460D02*
Y909320D01*
X588010Y886460D02*
X598170D01*
X562610Y909320D02*
X563880D01*
X562610Y886460D02*
Y909320D01*
Y886460D02*
X572770D01*
X656336Y1013460D02*
Y1014349D01*
Y1016127D02*
Y1017016D01*
X626872Y1013460D02*
X640080D01*
X645160D02*
X656336D01*
X627380Y1116330D02*
Y1118870D01*
X656590D01*
Y1116330D02*
Y1118870D01*
X656336Y1014349D02*
Y1016127D01*
X626872Y1013460D02*
Y1016508D01*
X595630Y1028700D02*
X626110D01*
X595630Y1041400D02*
X626110D01*
X595630Y1054100D02*
X626110D01*
X595630Y1092200D02*
X626110D01*
X595630Y1079500D02*
X626110D01*
X595630Y1066800D02*
X626110D01*
X595630Y1104900D02*
X626110D01*
X659130D02*
X689610D01*
X659130Y1066800D02*
X689610D01*
X659130Y1079500D02*
X689610D01*
X659130Y1092200D02*
X689610D01*
X659130Y1054100D02*
X689610D01*
X659130Y1041400D02*
X689610D01*
X659130Y1028700D02*
X689610D01*
X303530Y876300D02*
Y881380D01*
Y895350D02*
Y896620D01*
X326390D01*
Y886460D02*
Y896620D01*
X303530Y861060D02*
Y862330D01*
Y861060D02*
X326390D01*
Y871220D01*
X347980Y461313D02*
X353060D01*
X367030D02*
X368300D01*
Y438453D02*
Y461313D01*
X358140Y438453D02*
X368300D01*
X332740Y461313D02*
X334010D01*
X332740Y438453D02*
Y461313D01*
Y438453D02*
X342900D01*
X878840Y751840D02*
Y756920D01*
Y770890D02*
Y772160D01*
X901700D01*
Y762000D02*
Y772160D01*
X878840Y736600D02*
Y737870D01*
Y736600D02*
X901700D01*
Y746760D01*
X452120Y905510D02*
X457200D01*
X471170D02*
X472440D01*
Y882650D02*
Y905510D01*
X462280Y882650D02*
X472440D01*
X436880Y905510D02*
X438150D01*
X436880Y882650D02*
Y905510D01*
Y882650D02*
X447040D01*
X706120Y909320D02*
X711200D01*
X725170D02*
X726440D01*
Y886460D02*
Y909320D01*
X716280Y886460D02*
X726440D01*
X690880Y909320D02*
X692150D01*
X690880Y886460D02*
Y909320D01*
Y886460D02*
X701040D01*
X657860Y706120D02*
X688340D01*
X657860Y718820D02*
X688340D01*
X657860Y731520D02*
X688340D01*
X657860Y769620D02*
X688340D01*
X657860Y756920D02*
X688340D01*
X657860Y744220D02*
X688340D01*
X657860Y782320D02*
X688340D01*
X594360D02*
X624840D01*
X594360Y744220D02*
X624840D01*
X594360Y756920D02*
X624840D01*
X594360Y769620D02*
X624840D01*
X594360Y731520D02*
X624840D01*
X594360Y718820D02*
X624840D01*
X594360Y706120D02*
X624840D01*
X625602Y690880D02*
Y693928D01*
X655066Y691769D02*
Y693547D01*
X655320Y793750D02*
Y796290D01*
X626110D02*
X655320D01*
X626110Y793750D02*
Y796290D01*
X643890Y690880D02*
X655066D01*
X625602D02*
X638810D01*
X655066Y693547D02*
Y694436D01*
Y690880D02*
Y691769D01*
X321312Y604515D02*
X326391D01*
X328930Y601976D01*
Y591819D01*
X326391Y589280D01*
X321312D01*
X318773Y591819D01*
Y601976D01*
X321312Y604515D01*
X313695D02*
X303538D01*
X308617D01*
Y589280D01*
X288303Y601976D02*
X290842Y604515D01*
X295921D01*
X298460Y601976D01*
Y591819D01*
X295921Y589280D01*
X290842D01*
X288303Y591819D01*
X283225Y589280D02*
Y604515D01*
X275607D01*
X273068Y601976D01*
Y596898D01*
X275607Y594358D01*
X283225D01*
X257833Y589280D02*
X267990D01*
X257833Y599437D01*
Y601976D01*
X260372Y604515D01*
X265450D01*
X267990Y601976D01*
X628645Y577850D02*
X626106D01*
X621027Y582928D01*
X626106Y588007D01*
X628645D01*
X621027Y582928D02*
X613410D01*
Y593085D02*
Y598163D01*
Y595624D01*
X628645D01*
X626106Y593085D01*
X701040Y820923D02*
Y808227D01*
X698501Y805688D01*
X693422D01*
X690883Y808227D01*
Y820923D01*
X678187Y805688D02*
Y820923D01*
X685805Y813306D01*
X675648D01*
X874128Y560990D02*
Y548294D01*
X871588Y545755D01*
X866510D01*
X863971Y548294D01*
Y560990D01*
X858893Y558451D02*
X856353Y560990D01*
X851275D01*
X848736Y558451D01*
Y555912D01*
X851275Y553373D01*
X853814D01*
X851275D01*
X848736Y550833D01*
Y548294D01*
X851275Y545755D01*
X856353D01*
X858893Y548294D01*
X734060Y1023615D02*
Y1010919D01*
X731521Y1008380D01*
X726442D01*
X723903Y1010919D01*
Y1023615D01*
X708668Y1008380D02*
X718825D01*
X708668Y1018537D01*
Y1021076D01*
X711207Y1023615D01*
X716286D01*
X718825Y1021076D01*
X599445Y525780D02*
X612141D01*
X614680Y523241D01*
Y518162D01*
X612141Y515623D01*
X599445D01*
X614680Y510545D02*
Y505467D01*
Y508006D01*
X599445D01*
X601984Y510545D01*
X567690Y687070D02*
Y702305D01*
X560073D01*
X557533Y699766D01*
Y694688D01*
X560073Y692148D01*
X567690D01*
X562612D02*
X557533Y687070D01*
X544837D02*
Y702305D01*
X552455Y694688D01*
X542298D01*
X537220Y699766D02*
X534681Y702305D01*
X529602D01*
X527063Y699766D01*
Y689609D01*
X529602Y687070D01*
X534681D01*
X537220Y689609D01*
Y699766D01*
X251968Y1051560D02*
Y1066795D01*
X244350D01*
X241811Y1064256D01*
Y1059177D01*
X244350Y1056638D01*
X251968D01*
X246890D02*
X241811Y1051560D01*
X236733Y1064256D02*
X234194Y1066795D01*
X229115D01*
X226576Y1064256D01*
Y1061717D01*
X229115Y1059177D01*
X231655D01*
X229115D01*
X226576Y1056638D01*
Y1054099D01*
X229115Y1051560D01*
X234194D01*
X236733Y1054099D01*
X221498D02*
X218959Y1051560D01*
X213880D01*
X211341Y1054099D01*
Y1064256D01*
X213880Y1066795D01*
X218959D01*
X221498Y1064256D01*
Y1061717D01*
X218959Y1059177D01*
X211341D01*
X335788Y1051560D02*
Y1066795D01*
X328171D01*
X325631Y1064256D01*
Y1059177D01*
X328171Y1056638D01*
X335788D01*
X330710D02*
X325631Y1051560D01*
X320553Y1064256D02*
X318014Y1066795D01*
X312935D01*
X310396Y1064256D01*
Y1061717D01*
X312935Y1059177D01*
X315475D01*
X312935D01*
X310396Y1056638D01*
Y1054099D01*
X312935Y1051560D01*
X318014D01*
X320553Y1054099D01*
X305318Y1064256D02*
X302779Y1066795D01*
X297700D01*
X295161Y1064256D01*
Y1061717D01*
X297700Y1059177D01*
X295161Y1056638D01*
Y1054099D01*
X297700Y1051560D01*
X302779D01*
X305318Y1054099D01*
Y1056638D01*
X302779Y1059177D01*
X305318Y1061717D01*
Y1064256D01*
X302779Y1059177D02*
X297700D01*
X253238Y1000760D02*
Y1015995D01*
X245620D01*
X243081Y1013456D01*
Y1008378D01*
X245620Y1005838D01*
X253238D01*
X248160D02*
X243081Y1000760D01*
X238003Y1013456D02*
X235464Y1015995D01*
X230385D01*
X227846Y1013456D01*
Y1010917D01*
X230385Y1008378D01*
X232925D01*
X230385D01*
X227846Y1005838D01*
Y1003299D01*
X230385Y1000760D01*
X235464D01*
X238003Y1003299D01*
X222768Y1015995D02*
X212611D01*
Y1013456D01*
X222768Y1003299D01*
Y1000760D01*
X335788D02*
Y1015995D01*
X328171D01*
X325631Y1013456D01*
Y1008378D01*
X328171Y1005838D01*
X335788D01*
X330710D02*
X325631Y1000760D01*
X320553Y1013456D02*
X318014Y1015995D01*
X312935D01*
X310396Y1013456D01*
Y1010917D01*
X312935Y1008378D01*
X315475D01*
X312935D01*
X310396Y1005838D01*
Y1003299D01*
X312935Y1000760D01*
X318014D01*
X320553Y1003299D01*
X295161Y1015995D02*
X300240Y1013456D01*
X305318Y1008378D01*
Y1003299D01*
X302779Y1000760D01*
X297700D01*
X295161Y1003299D01*
Y1005838D01*
X297700Y1008378D01*
X305318D01*
X452120Y742950D02*
Y758185D01*
X444502D01*
X441963Y755646D01*
Y750567D01*
X444502Y748028D01*
X452120D01*
X447042D02*
X441963Y742950D01*
X436885Y755646D02*
X434346Y758185D01*
X429267D01*
X426728Y755646D01*
Y753107D01*
X429267Y750567D01*
X431807D01*
X429267D01*
X426728Y748028D01*
Y745489D01*
X429267Y742950D01*
X434346D01*
X436885Y745489D01*
X411493Y758185D02*
X421650D01*
Y750567D01*
X416572Y753107D01*
X414032D01*
X411493Y750567D01*
Y745489D01*
X414032Y742950D01*
X419111D01*
X421650Y745489D01*
X501650Y746760D02*
Y761995D01*
X494033D01*
X491493Y759456D01*
Y754378D01*
X494033Y751838D01*
X501650D01*
X496572D02*
X491493Y746760D01*
X486415Y759456D02*
X483876Y761995D01*
X478797D01*
X476258Y759456D01*
Y756917D01*
X478797Y754378D01*
X481337D01*
X478797D01*
X476258Y751838D01*
Y749299D01*
X478797Y746760D01*
X483876D01*
X486415Y749299D01*
X463562Y746760D02*
Y761995D01*
X471180Y754378D01*
X461023D01*
X387350Y695960D02*
Y711195D01*
X379733D01*
X377193Y708656D01*
Y703577D01*
X379733Y701038D01*
X387350D01*
X382272D02*
X377193Y695960D01*
X372115Y708656D02*
X369576Y711195D01*
X364497D01*
X361958Y708656D01*
Y706117D01*
X364497Y703577D01*
X367037D01*
X364497D01*
X361958Y701038D01*
Y698499D01*
X364497Y695960D01*
X369576D01*
X372115Y698499D01*
X356880Y708656D02*
X354341Y711195D01*
X349262D01*
X346723Y708656D01*
Y706117D01*
X349262Y703577D01*
X351801D01*
X349262D01*
X346723Y701038D01*
Y698499D01*
X349262Y695960D01*
X354341D01*
X356880Y698499D01*
X459740Y720090D02*
X444505D01*
Y712473D01*
X447044Y709933D01*
X452122D01*
X454662Y712473D01*
Y720090D01*
Y715012D02*
X459740Y709933D01*
X447044Y704855D02*
X444505Y702316D01*
Y697237D01*
X447044Y694698D01*
X449583D01*
X452122Y697237D01*
Y699777D01*
Y697237D01*
X454662Y694698D01*
X457201D01*
X459740Y697237D01*
Y702316D01*
X457201Y704855D01*
X459740Y679463D02*
Y689620D01*
X449583Y679463D01*
X447044D01*
X444505Y682002D01*
Y687081D01*
X447044Y689620D01*
X562610Y716280D02*
Y731515D01*
X554992D01*
X552453Y728976D01*
Y723897D01*
X554992Y721358D01*
X562610D01*
X557532D02*
X552453Y716280D01*
X547375Y728976D02*
X544836Y731515D01*
X539757D01*
X537218Y728976D01*
Y726437D01*
X539757Y723897D01*
X542297D01*
X539757D01*
X537218Y721358D01*
Y718819D01*
X539757Y716280D01*
X544836D01*
X547375Y718819D01*
X532140Y716280D02*
X527062D01*
X529601D01*
Y731515D01*
X532140Y728976D01*
X561340Y796290D02*
Y811525D01*
X553722D01*
X551183Y808986D01*
Y803907D01*
X553722Y801368D01*
X561340D01*
X556262D02*
X551183Y796290D01*
X546105Y808986D02*
X543566Y811525D01*
X538487D01*
X535948Y808986D01*
Y806447D01*
X538487Y803907D01*
X541027D01*
X538487D01*
X535948Y801368D01*
Y798829D01*
X538487Y796290D01*
X543566D01*
X546105Y798829D01*
X530870Y808986D02*
X528331Y811525D01*
X523252D01*
X520713Y808986D01*
Y798829D01*
X523252Y796290D01*
X528331D01*
X530870Y798829D01*
Y808986D01*
X549910Y744220D02*
Y759455D01*
X542293D01*
X539753Y756916D01*
Y751837D01*
X542293Y749298D01*
X549910D01*
X544832D02*
X539753Y744220D01*
X524518D02*
X534675D01*
X524518Y754377D01*
Y756916D01*
X527057Y759455D01*
X532136D01*
X534675Y756916D01*
X519440Y746759D02*
X516901Y744220D01*
X511822D01*
X509283Y746759D01*
Y756916D01*
X511822Y759455D01*
X516901D01*
X519440Y756916D01*
Y754377D01*
X516901Y751837D01*
X509283D01*
X660400Y868680D02*
Y883915D01*
X652783D01*
X650243Y881376D01*
Y876298D01*
X652783Y873758D01*
X660400D01*
X655322D02*
X650243Y868680D01*
X635008D02*
X645165D01*
X635008Y878837D01*
Y881376D01*
X637547Y883915D01*
X642626D01*
X645165Y881376D01*
X629930D02*
X627391Y883915D01*
X622312D01*
X619773Y881376D01*
Y878837D01*
X622312Y876298D01*
X619773Y873758D01*
Y871219D01*
X622312Y868680D01*
X627391D01*
X629930Y871219D01*
Y873758D01*
X627391Y876298D01*
X629930Y878837D01*
Y881376D01*
X627391Y876298D02*
X622312D01*
X530860Y914400D02*
Y929635D01*
X523242D01*
X520703Y927096D01*
Y922018D01*
X523242Y919478D01*
X530860D01*
X525782D02*
X520703Y914400D01*
X505468D02*
X515625D01*
X505468Y924557D01*
Y927096D01*
X508007Y929635D01*
X513086D01*
X515625Y927096D01*
X500390Y929635D02*
X490233D01*
Y927096D01*
X500390Y916939D01*
Y914400D01*
X420370Y920750D02*
Y935985D01*
X412752D01*
X410213Y933446D01*
Y928367D01*
X412752Y925828D01*
X420370D01*
X415292D02*
X410213Y920750D01*
X394978D02*
X405135D01*
X394978Y930907D01*
Y933446D01*
X397517Y935985D01*
X402596D01*
X405135Y933446D01*
X379743Y935985D02*
X384822Y933446D01*
X389900Y928367D01*
Y923289D01*
X387361Y920750D01*
X382282D01*
X379743Y923289D01*
Y925828D01*
X382282Y928367D01*
X389900D01*
X558800Y1038860D02*
Y1054095D01*
X551183D01*
X548643Y1051556D01*
Y1046478D01*
X551183Y1043938D01*
X558800D01*
X553722D02*
X548643Y1038860D01*
X533408D02*
X543565D01*
X533408Y1049017D01*
Y1051556D01*
X535947Y1054095D01*
X541026D01*
X543565Y1051556D01*
X518173Y1054095D02*
X528330D01*
Y1046478D01*
X523251Y1049017D01*
X520712D01*
X518173Y1046478D01*
Y1041399D01*
X520712Y1038860D01*
X525791D01*
X528330Y1041399D01*
X384810Y1107440D02*
Y1122675D01*
X377192D01*
X374653Y1120136D01*
Y1115058D01*
X377192Y1112518D01*
X384810D01*
X379732D02*
X374653Y1107440D01*
X359418D02*
X369575D01*
X359418Y1117597D01*
Y1120136D01*
X361957Y1122675D01*
X367036D01*
X369575Y1120136D01*
X346722Y1107440D02*
Y1122675D01*
X354340Y1115058D01*
X344183D01*
X455930Y1073150D02*
Y1088385D01*
X448312D01*
X445773Y1085846D01*
Y1080768D01*
X448312Y1078228D01*
X455930D01*
X450852D02*
X445773Y1073150D01*
X430538D02*
X440695D01*
X430538Y1083307D01*
Y1085846D01*
X433077Y1088385D01*
X438156D01*
X440695Y1085846D01*
X425460D02*
X422921Y1088385D01*
X417842D01*
X415303Y1085846D01*
Y1083307D01*
X417842Y1080768D01*
X420382D01*
X417842D01*
X415303Y1078228D01*
Y1075689D01*
X417842Y1073150D01*
X422921D01*
X425460Y1075689D01*
X394970Y1052830D02*
Y1068065D01*
X387352D01*
X384813Y1065526D01*
Y1060447D01*
X387352Y1057908D01*
X394970D01*
X389892D02*
X384813Y1052830D01*
X369578D02*
X379735D01*
X369578Y1062987D01*
Y1065526D01*
X372117Y1068065D01*
X377196D01*
X379735Y1065526D01*
X354343Y1052830D02*
X364500D01*
X354343Y1062987D01*
Y1065526D01*
X356882Y1068065D01*
X361961D01*
X364500Y1065526D01*
X454660Y1051560D02*
Y1066795D01*
X447043D01*
X444503Y1064256D01*
Y1059177D01*
X447043Y1056638D01*
X454660D01*
X449582D02*
X444503Y1051560D01*
X429268D02*
X439425D01*
X429268Y1061717D01*
Y1064256D01*
X431807Y1066795D01*
X436886D01*
X439425Y1064256D01*
X424190Y1051560D02*
X419112D01*
X421651D01*
Y1066795D01*
X424190Y1064256D01*
X508000Y1051560D02*
Y1066795D01*
X500382D01*
X497843Y1064256D01*
Y1059177D01*
X500382Y1056638D01*
X508000D01*
X502922D02*
X497843Y1051560D01*
X482608D02*
X492765D01*
X482608Y1061717D01*
Y1064256D01*
X485147Y1066795D01*
X490226D01*
X492765Y1064256D01*
X477530D02*
X474991Y1066795D01*
X469912D01*
X467373Y1064256D01*
Y1054099D01*
X469912Y1051560D01*
X474991D01*
X477530Y1054099D01*
Y1064256D01*
X532130Y1131570D02*
X516895D01*
Y1123952D01*
X519434Y1121413D01*
X524512D01*
X527052Y1123952D01*
Y1131570D01*
Y1126492D02*
X532130Y1121413D01*
Y1116335D02*
Y1111257D01*
Y1113796D01*
X516895D01*
X519434Y1116335D01*
X529591Y1103639D02*
X532130Y1101100D01*
Y1096021D01*
X529591Y1093482D01*
X519434D01*
X516895Y1096021D01*
Y1101100D01*
X519434Y1103639D01*
X521973D01*
X524512Y1101100D01*
Y1093482D01*
X504190Y1073150D02*
Y1088385D01*
X496572D01*
X494033Y1085846D01*
Y1080768D01*
X496572Y1078228D01*
X504190D01*
X499112D02*
X494033Y1073150D01*
X488955D02*
X483877D01*
X486416D01*
Y1088385D01*
X488955Y1085846D01*
X476259D02*
X473720Y1088385D01*
X468642D01*
X466102Y1085846D01*
Y1083307D01*
X468642Y1080768D01*
X466102Y1078228D01*
Y1075689D01*
X468642Y1073150D01*
X473720D01*
X476259Y1075689D01*
Y1078228D01*
X473720Y1080768D01*
X476259Y1083307D01*
Y1085846D01*
X473720Y1080768D02*
X468642D01*
X257810Y433070D02*
Y448305D01*
X250193D01*
X247653Y445766D01*
Y440687D01*
X250193Y438148D01*
X257810D01*
X252732D02*
X247653Y433070D01*
X242575D02*
X237497D01*
X240036D01*
Y448305D01*
X242575Y445766D01*
X229879Y448305D02*
X219722D01*
Y445766D01*
X229879Y435609D01*
Y433070D01*
X311150Y427990D02*
Y443225D01*
X303533D01*
X300993Y440686D01*
Y435607D01*
X303533Y433068D01*
X311150D01*
X306072D02*
X300993Y427990D01*
X295915D02*
X290837D01*
X293376D01*
Y443225D01*
X295915Y440686D01*
X273062Y443225D02*
X278141Y440686D01*
X283219Y435607D01*
Y430529D01*
X280680Y427990D01*
X275602D01*
X273062Y430529D01*
Y433068D01*
X275602Y435607D01*
X283219D01*
X227330Y516890D02*
Y532125D01*
X219713D01*
X217173Y529586D01*
Y524507D01*
X219713Y521968D01*
X227330D01*
X222252D02*
X217173Y516890D01*
X212095D02*
X207017D01*
X209556D01*
Y532125D01*
X212095Y529586D01*
X189242Y532125D02*
X199399D01*
Y524507D01*
X194321Y527047D01*
X191782D01*
X189242Y524507D01*
Y519429D01*
X191782Y516890D01*
X196860D01*
X199399Y519429D01*
X227330Y485140D02*
Y500375D01*
X219713D01*
X217173Y497836D01*
Y492757D01*
X219713Y490218D01*
X227330D01*
X222252D02*
X217173Y485140D01*
X212095D02*
X207017D01*
X209556D01*
Y500375D01*
X212095Y497836D01*
X191782Y485140D02*
Y500375D01*
X199399Y492757D01*
X189242D01*
X314960Y561340D02*
Y576575D01*
X307342D01*
X304803Y574036D01*
Y568957D01*
X307342Y566418D01*
X314960D01*
X309882D02*
X304803Y561340D01*
X299725D02*
X294647D01*
X297186D01*
Y576575D01*
X299725Y574036D01*
X287029D02*
X284490Y576575D01*
X279412D01*
X276872Y574036D01*
Y571497D01*
X279412Y568957D01*
X281951D01*
X279412D01*
X276872Y566418D01*
Y563879D01*
X279412Y561340D01*
X284490D01*
X287029Y563879D01*
X309880Y746760D02*
Y761995D01*
X302262D01*
X299723Y759456D01*
Y754378D01*
X302262Y751838D01*
X309880D01*
X304802D02*
X299723Y746760D01*
X294645D02*
X289567D01*
X292106D01*
Y761995D01*
X294645Y759456D01*
X271792Y746760D02*
X281949D01*
X271792Y756917D01*
Y759456D01*
X274331Y761995D01*
X279410D01*
X281949Y759456D01*
X318770Y817880D02*
Y833115D01*
X311152D01*
X308613Y830576D01*
Y825498D01*
X311152Y822958D01*
X318770D01*
X313692D02*
X308613Y817880D01*
X303535D02*
X298457D01*
X300996D01*
Y833115D01*
X303535Y830576D01*
X290839Y817880D02*
X285761D01*
X288300D01*
Y833115D01*
X290839Y830576D01*
X234950Y781050D02*
Y796285D01*
X227332D01*
X224793Y793746D01*
Y788668D01*
X227332Y786128D01*
X234950D01*
X229872D02*
X224793Y781050D01*
X219715D02*
X214637D01*
X217176D01*
Y796285D01*
X219715Y793746D01*
X207019D02*
X204480Y796285D01*
X199401D01*
X196862Y793746D01*
Y783589D01*
X199401Y781050D01*
X204480D01*
X207019Y783589D01*
Y793746D01*
X292100Y720090D02*
Y735325D01*
X284482D01*
X281943Y732786D01*
Y727708D01*
X284482Y725168D01*
X292100D01*
X287022D02*
X281943Y720090D01*
X276865Y722629D02*
X274326Y720090D01*
X269247D01*
X266708Y722629D01*
Y732786D01*
X269247Y735325D01*
X274326D01*
X276865Y732786D01*
Y730247D01*
X274326Y727708D01*
X266708D01*
X392938Y730250D02*
Y745485D01*
X385321D01*
X382781Y742946D01*
Y737868D01*
X385321Y735328D01*
X392938D01*
X387860D02*
X382781Y730250D01*
X377703Y742946D02*
X375164Y745485D01*
X370085D01*
X367546Y742946D01*
Y740407D01*
X370085Y737868D01*
X367546Y735328D01*
Y732789D01*
X370085Y730250D01*
X375164D01*
X377703Y732789D01*
Y735328D01*
X375164Y737868D01*
X377703Y740407D01*
Y742946D01*
X375164Y737868D02*
X370085D01*
X645160Y488950D02*
Y504185D01*
X637542D01*
X635003Y501646D01*
Y496567D01*
X637542Y494028D01*
X645160D01*
X640082D02*
X635003Y488950D01*
X629925Y504185D02*
X619768D01*
Y501646D01*
X629925Y491489D01*
Y488950D01*
X861822Y310642D02*
Y325877D01*
X854204D01*
X851665Y323338D01*
Y318260D01*
X854204Y315720D01*
X861822D01*
X856744D02*
X851665Y310642D01*
X836430Y325877D02*
X841509Y323338D01*
X846587Y318260D01*
Y313181D01*
X844048Y310642D01*
X838969D01*
X836430Y313181D01*
Y315720D01*
X838969Y318260D01*
X846587D01*
X1020318Y976630D02*
Y991865D01*
X1012701D01*
X1010161Y989326D01*
Y984248D01*
X1012701Y981708D01*
X1020318D01*
X1015240D02*
X1010161Y976630D01*
X994926Y991865D02*
X1005083D01*
Y984248D01*
X1000005Y986787D01*
X997465D01*
X994926Y984248D01*
Y979169D01*
X997465Y976630D01*
X1002544D01*
X1005083Y979169D01*
X834390Y746760D02*
Y761995D01*
X826773D01*
X824233Y759456D01*
Y754378D01*
X826773Y751838D01*
X834390D01*
X829312D02*
X824233Y746760D01*
X811537D02*
Y761995D01*
X819155Y754378D01*
X808998D01*
X1020318Y1047750D02*
Y1062985D01*
X1012701D01*
X1010161Y1060446D01*
Y1055368D01*
X1012701Y1052828D01*
X1020318D01*
X1015240D02*
X1010161Y1047750D01*
X1005083Y1060446D02*
X1002544Y1062985D01*
X997465D01*
X994926Y1060446D01*
Y1057907D01*
X997465Y1055368D01*
X1000005D01*
X997465D01*
X994926Y1052828D01*
Y1050289D01*
X997465Y1047750D01*
X1002544D01*
X1005083Y1050289D01*
X802640Y1117600D02*
Y1132835D01*
X795023D01*
X792483Y1130296D01*
Y1125218D01*
X795023Y1122678D01*
X802640D01*
X797562D02*
X792483Y1117600D01*
X777248D02*
X787405D01*
X777248Y1127757D01*
Y1130296D01*
X779787Y1132835D01*
X784866D01*
X787405Y1130296D01*
X840740Y1036320D02*
Y1051555D01*
X833122D01*
X830583Y1049016D01*
Y1043938D01*
X833122Y1041398D01*
X840740D01*
X835662D02*
X830583Y1036320D01*
X825505D02*
X820427D01*
X822966D01*
Y1051555D01*
X825505Y1049016D01*
X750573Y891539D02*
Y901696D01*
X753112Y904235D01*
X758191D01*
X760730Y901696D01*
Y891539D01*
X758191Y889000D01*
X753112D01*
X755652Y894078D02*
X750573Y889000D01*
X753112D02*
X750573Y891539D01*
X735338Y904235D02*
X740417Y901696D01*
X745495Y896618D01*
Y891539D01*
X742956Y889000D01*
X737877D01*
X735338Y891539D01*
Y894078D01*
X737877Y896618D01*
X745495D01*
X621033Y913129D02*
Y923286D01*
X623573Y925825D01*
X628651D01*
X631190Y923286D01*
Y913129D01*
X628651Y910590D01*
X623573D01*
X626112Y915668D02*
X621033Y910590D01*
X623573D02*
X621033Y913129D01*
X605798Y925825D02*
X615955D01*
Y918207D01*
X610877Y920747D01*
X608337D01*
X605798Y918207D01*
Y913129D01*
X608337Y910590D01*
X613416D01*
X615955Y913129D01*
X496573Y887729D02*
Y897886D01*
X499113Y900425D01*
X504191D01*
X506730Y897886D01*
Y887729D01*
X504191Y885190D01*
X499113D01*
X501652Y890268D02*
X496573Y885190D01*
X499113D02*
X496573Y887729D01*
X483877Y885190D02*
Y900425D01*
X491495Y892807D01*
X481338D01*
X382273Y416559D02*
Y426716D01*
X384813Y429255D01*
X389891D01*
X392430Y426716D01*
Y416559D01*
X389891Y414020D01*
X384813D01*
X387352Y419098D02*
X382273Y414020D01*
X384813D02*
X382273Y416559D01*
X377195Y426716D02*
X374656Y429255D01*
X369577D01*
X367038Y426716D01*
Y424177D01*
X369577Y421637D01*
X372117D01*
X369577D01*
X367038Y419098D01*
Y416559D01*
X369577Y414020D01*
X374656D01*
X377195Y416559D01*
X275593Y875029D02*
Y885186D01*
X278132Y887725D01*
X283211D01*
X285750Y885186D01*
Y875029D01*
X283211Y872490D01*
X278132D01*
X280672Y877568D02*
X275593Y872490D01*
X278132D02*
X275593Y875029D01*
X260358Y872490D02*
X270515D01*
X260358Y882647D01*
Y885186D01*
X262897Y887725D01*
X267976D01*
X270515Y885186D01*
X930405Y749299D02*
Y759456D01*
X932944Y761995D01*
X938023D01*
X940562Y759456D01*
Y749299D01*
X938023Y746760D01*
X932944D01*
X935484Y751838D02*
X930405Y746760D01*
X932944D02*
X930405Y749299D01*
X925327Y746760D02*
X920249D01*
X922788D01*
Y761995D01*
X925327Y759456D01*
X311152Y327655D02*
X316231D01*
X318770Y325116D01*
Y314959D01*
X316231Y312420D01*
X311152D01*
X308613Y314959D01*
Y325116D01*
X311152Y327655D01*
X303535D02*
X293378D01*
X298457D01*
Y312420D01*
X278143Y325116D02*
X280682Y327655D01*
X285761D01*
X288300Y325116D01*
Y314959D01*
X285761Y312420D01*
X280682D01*
X278143Y314959D01*
X273065Y312420D02*
Y327655D01*
X265447D01*
X262908Y325116D01*
Y320037D01*
X265447Y317498D01*
X273065D01*
X257830Y325116D02*
X255291Y327655D01*
X250212D01*
X247673Y325116D01*
Y322577D01*
X250212Y320037D01*
X252751D01*
X250212D01*
X247673Y317498D01*
Y314959D01*
X250212Y312420D01*
X255291D01*
X257830Y314959D01*
X882653Y829305D02*
X887731D01*
X890270Y826766D01*
Y816609D01*
X887731Y814070D01*
X882653D01*
X880113Y816609D01*
Y826766D01*
X882653Y829305D01*
X875035D02*
X864878D01*
X869957D01*
Y814070D01*
X849643Y826766D02*
X852182Y829305D01*
X857261D01*
X859800Y826766D01*
Y816609D01*
X857261Y814070D01*
X852182D01*
X849643Y816609D01*
X844565Y814070D02*
Y829305D01*
X836947D01*
X834408Y826766D01*
Y821687D01*
X836947Y819148D01*
X844565D01*
X829330Y814070D02*
X824251D01*
X826790D01*
Y829305D01*
X829330Y826766D01*
X369570Y546095D02*
Y530860D01*
X361953D01*
X359413Y533399D01*
Y543556D01*
X361953Y546095D01*
X369570D01*
X354335Y543556D02*
X351796Y546095D01*
X346717D01*
X344178Y543556D01*
Y541017D01*
X346717Y538478D01*
X349257D01*
X346717D01*
X344178Y535938D01*
Y533399D01*
X346717Y530860D01*
X351796D01*
X354335Y533399D01*
X369570Y866135D02*
Y850900D01*
X361953D01*
X359413Y853439D01*
Y863596D01*
X361953Y866135D01*
X369570D01*
X344178Y850900D02*
X354335D01*
X344178Y861057D01*
Y863596D01*
X346717Y866135D01*
X351796D01*
X354335Y863596D01*
X883920Y694685D02*
Y679450D01*
X876302D01*
X873763Y681989D01*
Y692146D01*
X876302Y694685D01*
X883920D01*
X868685Y679450D02*
X863607D01*
X866146D01*
Y694685D01*
X868685Y692146D01*
X831853Y382266D02*
X834392Y384805D01*
X839471D01*
X842010Y382266D01*
Y372109D01*
X839471Y369570D01*
X834392D01*
X831853Y372109D01*
X826775Y369570D02*
X821697D01*
X824236D01*
Y384805D01*
X826775Y382266D01*
X814079D02*
X811540Y384805D01*
X806461D01*
X803922Y382266D01*
Y372109D01*
X806461Y369570D01*
X811540D01*
X814079Y372109D01*
Y382266D01*
X662943Y383536D02*
X665482Y386075D01*
X670561D01*
X673100Y383536D01*
Y373379D01*
X670561Y370840D01*
X665482D01*
X662943Y373379D01*
X657865D02*
X655326Y370840D01*
X650247D01*
X647708Y373379D01*
Y383536D01*
X650247Y386075D01*
X655326D01*
X657865Y383536D01*
Y380997D01*
X655326Y378457D01*
X647708D01*
X701043Y246376D02*
X703583Y248915D01*
X708661D01*
X711200Y246376D01*
Y236219D01*
X708661Y233680D01*
X703583D01*
X701043Y236219D01*
X695965Y246376D02*
X693426Y248915D01*
X688347D01*
X685808Y246376D01*
Y243837D01*
X688347Y241297D01*
X685808Y238758D01*
Y236219D01*
X688347Y233680D01*
X693426D01*
X695965Y236219D01*
Y238758D01*
X693426Y241297D01*
X695965Y243837D01*
Y246376D01*
X693426Y241297D02*
X688347D01*
X760734Y416563D02*
X758195Y419103D01*
Y424181D01*
X760734Y426720D01*
X770891D01*
X773430Y424181D01*
Y419103D01*
X770891Y416563D01*
X758195Y411485D02*
Y401328D01*
X760734D01*
X770891Y411485D01*
X773430D01*
X215903Y557526D02*
X218442Y560065D01*
X223521D01*
X226060Y557526D01*
Y547369D01*
X223521Y544830D01*
X218442D01*
X215903Y547369D01*
X200668Y560065D02*
X205747Y557526D01*
X210825Y552448D01*
Y547369D01*
X208286Y544830D01*
X203207D01*
X200668Y547369D01*
Y549908D01*
X203207Y552448D01*
X210825D01*
X224793Y833116D02*
X227332Y835655D01*
X232411D01*
X234950Y833116D01*
Y822959D01*
X232411Y820420D01*
X227332D01*
X224793Y822959D01*
X209558Y835655D02*
X219715D01*
Y828037D01*
X214637Y830577D01*
X212097D01*
X209558Y828037D01*
Y822959D01*
X212097Y820420D01*
X217176D01*
X219715Y822959D01*
X542293Y467356D02*
X544832Y469895D01*
X549911D01*
X552450Y467356D01*
Y457199D01*
X549911Y454660D01*
X544832D01*
X542293Y457199D01*
X529597Y454660D02*
Y469895D01*
X537215Y462277D01*
X527058D01*
X609603Y478786D02*
X612142Y481325D01*
X617221D01*
X619760Y478786D01*
Y468629D01*
X617221Y466090D01*
X612142D01*
X609603Y468629D01*
X604525Y478786D02*
X601986Y481325D01*
X596907D01*
X594368Y478786D01*
Y476247D01*
X596907Y473708D01*
X599447D01*
X596907D01*
X594368Y471168D01*
Y468629D01*
X596907Y466090D01*
X601986D01*
X604525Y468629D01*
X457203Y515616D02*
X459743Y518155D01*
X464821D01*
X467360Y515616D01*
Y505459D01*
X464821Y502920D01*
X459743D01*
X457203Y505459D01*
X441968Y502920D02*
X452125D01*
X441968Y513077D01*
Y515616D01*
X444507Y518155D01*
X449586D01*
X452125Y515616D01*
X1004319Y1101086D02*
X1006859Y1103625D01*
X1011937D01*
X1014476Y1101086D01*
Y1090929D01*
X1011937Y1088390D01*
X1006859D01*
X1004319Y1090929D01*
X999241Y1088390D02*
X994163D01*
X996702D01*
Y1103625D01*
X999241Y1101086D01*
X134620Y377185D02*
Y361950D01*
X127002D01*
X124463Y364489D01*
Y367028D01*
X127002Y369567D01*
X134620D01*
X127002D01*
X124463Y372107D01*
Y374646D01*
X127002Y377185D01*
X134620D01*
X119385D02*
X109228D01*
X114307D01*
Y361950D01*
X104150Y374646D02*
X101611Y377185D01*
X96532D01*
X93993Y374646D01*
Y372107D01*
X96532Y369567D01*
X99072D01*
X96532D01*
X93993Y367028D01*
Y364489D01*
X96532Y361950D01*
X101611D01*
X104150Y364489D01*
X216186Y764916D02*
Y749681D01*
X208568D01*
X206029Y752220D01*
Y754759D01*
X208568Y757299D01*
X216186D01*
X208568D01*
X206029Y759838D01*
Y762377D01*
X208568Y764916D01*
X216186D01*
X200951D02*
X190794D01*
X195873D01*
Y749681D01*
X175559D02*
X185716D01*
X175559Y759838D01*
Y762377D01*
X178098Y764916D01*
X183177D01*
X185716Y762377D01*
X942594Y1047999D02*
Y1032764D01*
X934977D01*
X932437Y1035303D01*
Y1037842D01*
X934977Y1040381D01*
X942594D01*
X934977D01*
X932437Y1042921D01*
Y1045460D01*
X934977Y1047999D01*
X942594D01*
X927359D02*
X917202D01*
X922281D01*
Y1032764D01*
X912124D02*
X907046D01*
X909585D01*
Y1047999D01*
X912124Y1045460D01*
X970280Y570225D02*
Y554990D01*
X962663D01*
X960123Y557529D01*
Y560068D01*
X962663Y562607D01*
X970280D01*
X962663D01*
X960123Y565147D01*
Y567686D01*
X962663Y570225D01*
X970280D01*
X944888Y554990D02*
X955045D01*
X944888Y565147D01*
Y567686D01*
X947427Y570225D01*
X952506D01*
X955045Y567686D01*
X914400Y439860D02*
Y424625D01*
X906783D01*
X904243Y427165D01*
Y429704D01*
X906783Y432243D01*
X914400D01*
X906783D01*
X904243Y434782D01*
Y437321D01*
X906783Y439860D01*
X914400D01*
X899165Y424625D02*
X894087D01*
X896626D01*
Y439860D01*
X899165Y437321D01*
X473964Y434201D02*
Y429123D01*
Y431662D01*
X458729D01*
X461268Y434201D01*
D12*
X572516Y305054D02*
Y309880D01*
Y401320D02*
Y406146D01*
X471424D02*
X476250D01*
X471424Y305054D02*
Y309880D01*
X567690Y305054D02*
X572516D01*
X471424D02*
X476250D01*
X471424Y401320D02*
Y406146D01*
X567690D02*
X572516D01*
D13*
X792480Y544630D02*
X790480D01*
X792480D01*
X572770Y517906D02*
X590550D01*
X572770Y482854D02*
X590550D01*
X572770Y504462D02*
Y517906D01*
Y482854D02*
Y496712D01*
X590550Y482854D02*
Y496712D01*
Y504462D02*
Y517906D01*
X520954Y500380D02*
Y518160D01*
X556006Y500380D02*
Y518160D01*
X520954Y500380D02*
X534398D01*
X542148D02*
X556006D01*
X542148Y518160D02*
X556006D01*
X520954D02*
X534398D01*
X515366Y500380D02*
Y518160D01*
X480314Y500380D02*
Y518160D01*
X501922D02*
X515366D01*
X480314D02*
X494172D01*
X480314Y500380D02*
X494172D01*
X501922D02*
X515366D01*
X659892Y509702D02*
Y523120D01*
X641858Y509702D02*
X659892D01*
X641858D02*
Y523120D01*
Y530871D02*
Y544702D01*
X659892Y530871D02*
Y544702D01*
X641858D02*
X659892D01*
X718566Y369570D02*
Y387350D01*
X683514Y369570D02*
Y387350D01*
X705122D02*
X718566D01*
X683514D02*
X697372D01*
X683514Y369570D02*
X697372D01*
X705122D02*
X718566D01*
X779780Y368554D02*
X797560D01*
X779780Y403606D02*
X797560D01*
Y368554D02*
Y381998D01*
Y389748D02*
Y403606D01*
X779780Y389748D02*
Y403606D01*
Y368554D02*
Y381998D01*
X910844Y706641D02*
Y714378D01*
X838962Y701815D02*
X906018D01*
X838962D02*
Y731787D01*
X905764D01*
X910844Y714378D02*
Y726708D01*
X905764Y731787D02*
X910844Y726708D01*
X906018Y701815D02*
X910844Y706641D01*
X861822Y736880D02*
Y750298D01*
X843788Y736880D02*
X861822D01*
X843788D02*
Y750298D01*
Y758048D02*
Y771880D01*
X861822Y758048D02*
Y771880D01*
X843788D02*
X861822D01*
X513842Y687350D02*
Y700768D01*
X495808Y687350D02*
X513842D01*
X495808D02*
Y700768D01*
Y708518D02*
Y722350D01*
X513842Y708518D02*
Y722350D01*
X495808D02*
X513842D01*
X488442Y687350D02*
Y700768D01*
X470408Y687350D02*
X488442D01*
X470408D02*
Y700768D01*
Y708518D02*
Y722350D01*
X488442Y708518D02*
Y722350D01*
X470408D02*
X488442D01*
X437642Y687350D02*
Y700768D01*
X419608Y687350D02*
X437642D01*
X419608D02*
Y700768D01*
Y708518D02*
Y722350D01*
X437642Y708518D02*
Y722350D01*
X419608D02*
X437642D01*
X412242Y687350D02*
Y700768D01*
X394208Y687350D02*
X412242D01*
X394208D02*
Y700768D01*
Y708518D02*
Y722350D01*
X412242Y708518D02*
Y722350D01*
X394208D02*
X412242D01*
X494538Y788942D02*
Y802360D01*
X512572D01*
Y788942D02*
Y802360D01*
Y767360D02*
Y781192D01*
X494538Y767360D02*
Y781192D01*
Y767360D02*
X512572D01*
X469138Y788942D02*
Y802360D01*
X487172D01*
Y788942D02*
Y802360D01*
Y767360D02*
Y781192D01*
X469138Y767360D02*
Y781192D01*
Y767360D02*
X487172D01*
X419608Y788942D02*
Y802360D01*
X437642D01*
Y788942D02*
Y802360D01*
Y767360D02*
Y781192D01*
X419608Y767360D02*
Y781192D01*
Y767360D02*
X437642D01*
X394208Y788942D02*
Y802360D01*
X412242D01*
Y788942D02*
Y802360D01*
Y767360D02*
Y781192D01*
X394208Y767360D02*
Y781192D01*
Y767360D02*
X412242D01*
X685292Y881660D02*
Y895078D01*
X667258Y881660D02*
X685292D01*
X667258D02*
Y895078D01*
Y902828D02*
Y916660D01*
X685292Y902828D02*
Y916660D01*
X667258D02*
X685292D01*
X557022Y882930D02*
Y896348D01*
X538988Y882930D02*
X557022D01*
X538988D02*
Y896348D01*
Y904098D02*
Y917930D01*
X557022Y904098D02*
Y917930D01*
X538988D02*
X557022D01*
X430022Y877850D02*
Y891268D01*
X411988Y877850D02*
X430022D01*
X411988D02*
Y891268D01*
Y899018D02*
Y912850D01*
X430022Y899018D02*
Y912850D01*
X411988D02*
X430022D01*
X796798Y1054372D02*
Y1067790D01*
X814832D01*
Y1054372D02*
Y1067790D01*
Y1032790D02*
Y1046622D01*
X796798Y1032790D02*
Y1046622D01*
Y1032790D02*
X814832D01*
Y1077240D02*
Y1090658D01*
X796798Y1077240D02*
X814832D01*
X796798D02*
Y1090658D01*
Y1098408D02*
Y1112240D01*
X814832Y1098408D02*
Y1112240D01*
X796798D02*
X814832D01*
X512572Y1009930D02*
Y1023348D01*
X494538Y1009930D02*
X512572D01*
X494538D02*
Y1023348D01*
Y1031098D02*
Y1044930D01*
X512572Y1031098D02*
Y1044930D01*
X494538D02*
X512572D01*
X487172Y1009930D02*
Y1023348D01*
X469138Y1009930D02*
X487172D01*
X469138D02*
Y1023348D01*
Y1031098D02*
Y1044930D01*
X487172Y1031098D02*
Y1044930D01*
X469138D02*
X487172D01*
X435102Y1009930D02*
Y1023348D01*
X417068Y1009930D02*
X435102D01*
X417068D02*
Y1023348D01*
Y1031098D02*
Y1044930D01*
X435102Y1031098D02*
Y1044930D01*
X417068D02*
X435102D01*
X409702Y1009930D02*
Y1023348D01*
X391668Y1009930D02*
X409702D01*
X391668D02*
Y1023348D01*
Y1031098D02*
Y1044930D01*
X409702Y1031098D02*
Y1044930D01*
X391668D02*
X409702D01*
X493268Y1116602D02*
Y1130020D01*
X511302D01*
Y1116602D02*
Y1130020D01*
Y1095020D02*
Y1108852D01*
X493268Y1095020D02*
Y1108852D01*
Y1095020D02*
X511302D01*
X467868Y1116602D02*
Y1130020D01*
X485902D01*
Y1116602D02*
Y1130020D01*
Y1095020D02*
Y1108852D01*
X467868Y1095020D02*
Y1108852D01*
Y1095020D02*
X485902D01*
X417068Y1116602D02*
Y1130020D01*
X435102D01*
Y1116602D02*
Y1130020D01*
Y1095020D02*
Y1108852D01*
X417068Y1095020D02*
Y1108852D01*
Y1095020D02*
X435102D01*
X391668Y1116602D02*
Y1130020D01*
X409702D01*
Y1116602D02*
Y1130020D01*
Y1095020D02*
Y1108852D01*
X391668Y1095020D02*
Y1108852D01*
Y1095020D02*
X409702D01*
X330454Y769366D02*
X338190D01*
X325628Y774192D02*
Y841248D01*
X355600D01*
Y774446D02*
Y841248D01*
X338190Y769366D02*
X350520D01*
X355600Y774446D01*
X325628Y774192D02*
X330454Y769366D01*
X279146Y817880D02*
Y835660D01*
X244094Y817880D02*
Y835660D01*
X265702D02*
X279146D01*
X244094D02*
X257952D01*
X244094Y817880D02*
X257952D01*
X265702D02*
X279146D01*
X298958Y791482D02*
Y804900D01*
X316992D01*
Y791482D02*
Y804900D01*
Y769900D02*
Y783732D01*
X298958Y769900D02*
Y783732D01*
Y769900D02*
X316992D01*
X241808Y743222D02*
Y756640D01*
X259842D01*
Y743222D02*
Y756640D01*
Y721640D02*
Y735472D01*
X241808Y721640D02*
Y735472D01*
Y721640D02*
X259842D01*
X268478Y790212D02*
Y803630D01*
X286512D01*
Y790212D02*
Y803630D01*
Y768630D02*
Y782462D01*
X268478Y768630D02*
Y782462D01*
Y768630D02*
X286512D01*
X241808Y794022D02*
Y807440D01*
X259842D01*
Y794022D02*
Y807440D01*
Y772440D02*
Y786272D01*
X241808Y772440D02*
Y786272D01*
Y772440D02*
X259842D01*
X358394Y481584D02*
Y489320D01*
X286512Y476758D02*
X353568D01*
X286512D02*
Y506730D01*
X353314D01*
X358394Y489320D02*
Y501650D01*
X353314Y506730D02*
X358394Y501650D01*
X353568Y476758D02*
X358394Y481584D01*
X279680Y514858D02*
X293098D01*
X279680D02*
Y532892D01*
X293098D01*
X300848D02*
X314680D01*
X300848Y514858D02*
X314680D01*
Y532892D01*
X233934Y542290D02*
Y560070D01*
X268986Y542290D02*
Y560070D01*
X233934Y542290D02*
X247378D01*
X255128D02*
X268986D01*
X255128Y560070D02*
X268986D01*
X233934D02*
X247378D01*
X255542Y530352D02*
X268960D01*
Y512318D02*
Y530352D01*
X255542Y512318D02*
X268960D01*
X233960D02*
X247792D01*
X233960Y530352D02*
X247792D01*
X233960Y512318D02*
Y530352D01*
Y481838D02*
X247378D01*
X233960D02*
Y499872D01*
X247378D01*
X255128D02*
X268960D01*
X255128Y481838D02*
X268960D01*
Y499872D01*
X235230Y453898D02*
X248648D01*
X235230D02*
Y471932D01*
X248648D01*
X256398D02*
X270230D01*
X256398Y453898D02*
X270230D01*
Y471932D01*
X292927Y450088D02*
X306346D01*
X292927D02*
Y468122D01*
X306346D01*
X314095D02*
X327928D01*
X314095Y450088D02*
X327928D01*
Y468122D01*
X814342Y327152D02*
X827760D01*
Y309118D02*
Y327152D01*
X814342Y309118D02*
X827760D01*
X792760D02*
X806592D01*
X792760Y327152D02*
X806592D01*
X792760Y309118D02*
Y327152D01*
X286512Y990880D02*
Y1004298D01*
X268478Y990880D02*
X286512D01*
X268478D02*
Y1004298D01*
Y1012048D02*
Y1025880D01*
X286512Y1012048D02*
Y1025880D01*
X268478D02*
X286512D01*
X203962Y990880D02*
Y1004298D01*
X185928Y990880D02*
X203962D01*
X185928D02*
Y1004298D01*
Y1012048D02*
Y1025880D01*
X203962Y1012048D02*
Y1025880D01*
X185928D02*
X203962D01*
X268478Y1063262D02*
Y1076680D01*
X286512D01*
Y1063262D02*
Y1076680D01*
Y1041680D02*
Y1055512D01*
X268478Y1041680D02*
Y1055512D01*
Y1041680D02*
X286512D01*
X184658Y1063262D02*
Y1076680D01*
X202692D01*
Y1063262D02*
Y1076680D01*
Y1041680D02*
Y1055512D01*
X184658Y1041680D02*
Y1055512D01*
Y1041680D02*
X202692D01*
X967740Y1113536D02*
X985520D01*
X967740Y1078484D02*
X985520D01*
X967740Y1100092D02*
Y1113536D01*
Y1078484D02*
Y1092342D01*
X985520Y1078484D02*
Y1092342D01*
Y1100092D02*
Y1113536D01*
X968248Y1059452D02*
Y1072870D01*
X986282D01*
Y1059452D02*
Y1072870D01*
Y1037870D02*
Y1051702D01*
X968248Y1037870D02*
Y1051702D01*
Y1037870D02*
X986282D01*
X968248Y988332D02*
Y1001750D01*
X986282D01*
Y988332D02*
Y1001750D01*
Y966750D02*
Y980582D01*
X968248Y966750D02*
Y980582D01*
Y966750D02*
X986282D01*
X358902Y720370D02*
Y733788D01*
X340868Y720370D02*
X358902D01*
X340868D02*
Y733788D01*
Y741538D02*
Y755370D01*
X358902Y741538D02*
Y755370D01*
X340868D02*
X358902D01*
D85*
X571500Y899160D02*
X569625Y900242D01*
Y898077D01*
X571500Y899160D01*
X314940Y868700D02*
X313065Y869782D01*
Y867617D01*
X314940Y868700D01*
X341630Y451153D02*
X339755Y452235D01*
Y450070D01*
X341630Y451153D01*
X890250Y744240D02*
X888375Y745322D01*
Y743157D01*
X890250Y744240D01*
X445770Y895350D02*
X443895Y896432D01*
Y894268D01*
X445770Y895350D01*
X699770Y899160D02*
X697895Y900242D01*
Y898077D01*
X699770Y899160D01*
X862413Y445547D02*
X860538Y446630D01*
Y444464D01*
X862413Y445547D01*
D86*
X910920Y829460D02*
X908920D01*
X910920D01*
X352640Y681320D02*
X350640D01*
X352640D01*
X343750Y405730D02*
X341750D01*
X343750D01*
D87*
X617220Y1016000D02*
X615220D01*
X617220D01*
X615950Y693420D02*
X613950D01*
X615950D01*
D88*
X574768Y498136D02*
Y502708D01*
X588484Y498136D02*
Y502708D01*
X536152Y502378D02*
X540724D01*
X536152Y516094D02*
X540724D01*
X495596Y516162D02*
X500168D01*
X495596Y502446D02*
X500168D01*
X657706Y524874D02*
Y529446D01*
X643990Y524874D02*
Y529446D01*
X698796Y385352D02*
X703368D01*
X698796Y371636D02*
X703368D01*
X795562Y383752D02*
Y388324D01*
X781846Y383752D02*
Y388324D01*
X859636Y752052D02*
Y756624D01*
X845920Y752052D02*
Y756624D01*
X511656Y702522D02*
Y707094D01*
X497940Y702522D02*
Y707094D01*
X486256Y702522D02*
Y707094D01*
X472540Y702522D02*
Y707094D01*
X435456Y702522D02*
Y707094D01*
X421740Y702522D02*
Y707094D01*
X410056Y702522D02*
Y707094D01*
X396340Y702522D02*
Y707094D01*
X496724Y782616D02*
Y787188D01*
X510440Y782616D02*
Y787188D01*
X471324Y782616D02*
Y787188D01*
X485040Y782616D02*
Y787188D01*
X421794Y782616D02*
Y787188D01*
X435510Y782616D02*
Y787188D01*
X396394Y782616D02*
Y787188D01*
X410110Y782616D02*
Y787188D01*
X683106Y896832D02*
Y901404D01*
X669390Y896832D02*
Y901404D01*
X554836Y898102D02*
Y902674D01*
X541120Y898102D02*
Y902674D01*
X427836Y893022D02*
Y897594D01*
X414120Y893022D02*
Y897594D01*
X798984Y1048046D02*
Y1052618D01*
X812700Y1048046D02*
Y1052618D01*
X812646Y1092412D02*
Y1096984D01*
X798930Y1092412D02*
Y1096984D01*
X510386Y1025102D02*
Y1029674D01*
X496670Y1025102D02*
Y1029674D01*
X484986Y1025102D02*
Y1029674D01*
X471270Y1025102D02*
Y1029674D01*
X432916Y1025102D02*
Y1029674D01*
X419200Y1025102D02*
Y1029674D01*
X407516Y1025102D02*
Y1029674D01*
X393800Y1025102D02*
Y1029674D01*
X495454Y1110276D02*
Y1114848D01*
X509170Y1110276D02*
Y1114848D01*
X470054Y1110276D02*
Y1114848D01*
X483770Y1110276D02*
Y1114848D01*
X419254Y1110276D02*
Y1114848D01*
X432970Y1110276D02*
Y1114848D01*
X393854Y1110276D02*
Y1114848D01*
X407570Y1110276D02*
Y1114848D01*
X259376Y833662D02*
X263948D01*
X259376Y819946D02*
X263948D01*
X301144Y785156D02*
Y789728D01*
X314860Y785156D02*
Y789728D01*
X243994Y736896D02*
Y741468D01*
X257710Y736896D02*
Y741468D01*
X270664Y783886D02*
Y788458D01*
X284380Y783886D02*
Y788458D01*
X243994Y787696D02*
Y792268D01*
X257710Y787696D02*
Y792268D01*
X294852Y517044D02*
X299424D01*
X294852Y530760D02*
X299424D01*
X249132Y544288D02*
X253704D01*
X249132Y558004D02*
X253704D01*
X249216Y528166D02*
X253788D01*
X249216Y514450D02*
X253788D01*
X249132Y484024D02*
X253704D01*
X249132Y497740D02*
X253704D01*
X250402Y456084D02*
X254974D01*
X250402Y469800D02*
X254974D01*
X308099Y452274D02*
X312672D01*
X308099Y465990D02*
X312672D01*
X216535Y352425D02*
Y414655D01*
X147955D02*
X216535D01*
X147955Y352425D02*
Y414655D01*
Y352425D02*
X210185D01*
X216535D01*
X808016Y324966D02*
X812588D01*
X808016Y311250D02*
X812588D01*
X284326Y1006052D02*
Y1010624D01*
X270610Y1006052D02*
Y1010624D01*
X201776Y1006052D02*
Y1010624D01*
X188060Y1006052D02*
Y1010624D01*
X270664Y1056936D02*
Y1061508D01*
X284380Y1056936D02*
Y1061508D01*
X186844Y1056936D02*
Y1061508D01*
X200560Y1056936D02*
Y1061508D01*
X969738Y1093766D02*
Y1098338D01*
X983454Y1093766D02*
Y1098338D01*
X970434Y1053126D02*
Y1057698D01*
X984150Y1053126D02*
Y1057698D01*
X970434Y982006D02*
Y986578D01*
X984150Y982006D02*
Y986578D01*
X356716Y735542D02*
Y740114D01*
X343000Y735542D02*
Y740114D01*
X211455Y655955D02*
X217805D01*
X149225D02*
X211455D01*
X149225D02*
Y718185D01*
X217805D01*
Y655955D02*
Y718185D01*
X917575Y1017905D02*
Y1024255D01*
Y955675D02*
Y1017905D01*
X855345Y955675D02*
X917575D01*
X855345D02*
Y1024255D01*
X917575D01*
D89*
X841370Y854960D02*
Y917960D01*
X841420Y854710D02*
X847420D01*
X841420Y918210D02*
X847420D01*
X920420Y854710D02*
X926470D01*
Y918210D01*
X920420D02*
X926470D01*
X262890Y691820D02*
Y697870D01*
X326390D01*
Y691820D02*
Y697870D01*
X262890Y612820D02*
Y618820D01*
X326390Y612820D02*
Y618820D01*
X263140Y612770D02*
X326140D01*
X254250Y337180D02*
X317250D01*
X317500Y337230D02*
Y343230D01*
X254000Y337230D02*
Y343230D01*
X317500Y416230D02*
Y422280D01*
X254000D02*
X317500D01*
X254000Y416230D02*
Y422280D01*
X485140Y582930D02*
X601980D01*
X485140Y534670D02*
Y547370D01*
Y570230D02*
Y582930D01*
X601980Y570230D02*
Y582930D01*
X532130Y558800D02*
X537210D01*
Y551180D02*
Y566420D01*
X541020Y546100D02*
Y571500D01*
X546100D01*
Y546100D02*
Y571500D01*
X541020Y546100D02*
X546100D01*
X549910Y551180D02*
Y566420D01*
Y558800D02*
X554990D01*
X485140Y534670D02*
X601980D01*
Y547370D01*
X868314Y514047D02*
X873314D01*
X803314D02*
X808314D01*
X803314Y454047D02*
X873314D01*
X820313Y442047D02*
Y454047D01*
X810313D02*
X820313D01*
X810313Y442047D02*
Y454047D01*
X843314Y446047D02*
Y454047D01*
X833314D02*
X843314D01*
X833314Y446047D02*
Y454047D01*
Y446047D02*
X843314D01*
X856313Y442047D02*
Y454047D01*
X866313D01*
Y442047D02*
Y454047D01*
X803314D02*
Y514047D01*
X873314Y454047D02*
Y514047D01*
X694980Y556530D02*
X762980D01*
X694980Y507730D02*
X762980D01*
M02*
