M48
;Layer_Color=9474304
;FILE_FORMAT=2:4
INCH,LZ
;TYPE=PLATED
T1F00S00C0.0315
T2F00S00C0.0394
T3F00S00C0.0400
T4F00S00C0.0472
T5F00S00C0.0512
T6F00S00C0.0728
T7F00S00C0.1181
%
T01
X019757Y014982
X03803Y015431
X0418Y010815
X049632Y016191
X051541Y018789
X05222Y018386
X05414Y0194
X054344Y0228
X053794Y0236
X053229Y024837
X055344Y025526
X056394Y0274
Y0284
X05542Y030926
X055744Y021929
X04915Y025364
X047998Y024724
X04725Y024823
X04475Y0256
X043229Y024053
X041591Y024144
X044647Y021826
X045035Y020197
X044317Y018632
X038352Y018543
X03379Y019297
X032811Y025315
X031935Y026417
X029131Y026976
X029064Y02536
X028678Y030654
X02258Y026177
X018351Y029581
X019757Y018701
X022615Y035146
X028156Y033809
X029848Y037352
X030764Y038376
X028148Y041846
X028869Y043012
X030695Y045925
X022332Y045325
X018196Y038996
X031728Y039488
X031807Y037721
X033766Y03499
X035745Y035656
X036656Y037221
X036817Y03811
X042398Y038061
X044199Y038287
X043677Y040197
X043646Y041529
X042646
X041646
X040646
Y04321
X041646
X042646
X043646
X044646
X045646
Y041529
X044646
X046709Y044104
X044169Y046112
X042073Y045699
X037102Y044902
X036185Y045402
X036571Y043809
X034757Y042901
X031718Y043268
X031981Y045427
X040646Y035529
X041646
X042646
X043646
X044646
X045646
X044533Y034075
X049376Y031644
X053244Y03627
X05542Y036926
X056394Y03895
Y03995
Y0448
Y0458
Y0342
Y0332
X051459Y038508
X045646Y04921
X044646
X043646
X042646
X041646
X040646
X039012Y048297
X044051Y050856
X031827Y046902
X018278Y049238
T02
X021221Y021939
X021792Y030959
X013918
X013347Y021939
X01382Y040624
X021694
T03
X048644Y01485
X049644
X050644
X051644
X052644
X053644
T04
X015776Y013571
X017351
X018926
T05
X007513Y015041
X014202Y013571
X007513Y01701
T06
X009087Y026656
Y029907
Y033159
Y036411
Y039663
Y042915
Y046167
Y049419
T07
X003182Y008939
X057906
Y051065
X003182
M30
