G04*
G04 #@! TF.GenerationSoftware,Altium Limited,Altium Designer,18.0.7 (293)*
G04*
G04 Layer_Physical_Order=2*
G04 Layer_Color=16711680*
%FSLAX44Y44*%
%MOMM*%
G71*
G01*
G75*
%ADD10C,0.2540*%
%ADD26C,0.5080*%
%ADD27C,1.7780*%
%ADD28R,1.7780X1.7780*%
%ADD29R,6.0960X3.8100*%
%ADD30O,6.0960X3.8100*%
%ADD31R,3.8100X6.0960*%
%ADD32O,3.8100X6.0960*%
%ADD33O,1.7780X2.5400*%
%ADD34R,1.7780X2.5400*%
%ADD35R,1.6000X1.6000*%
%ADD36C,1.6000*%
%ADD37C,1.2700*%
%ADD38R,1.4000X1.2000*%
%ADD39R,1.2000X1.4000*%
%ADD40R,4.1000X2.0000*%
%ADD41R,2.0000X1.9000*%
%ADD42R,0.8500X1.2000*%
%ADD43R,1.7800X1.5200*%
%ADD44R,4.3180X0.7000*%
%ADD45O,4.3180X0.7000*%
%ADD46R,1.2000X0.8500*%
%ADD47R,1.9000X2.0000*%
%ADD48R,1.5200X1.7800*%
%ADD49R,1.3000X2.0000*%
%ADD50R,6.3500X6.3500*%
%ADD51R,0.4826X1.4732*%
%ADD52R,1.4732X0.4826*%
G04:AMPARAMS|DCode=53|XSize=5.5mm|YSize=1.5mm|CornerRadius=0.1875mm|HoleSize=0mm|Usage=FLASHONLY|Rotation=0.000|XOffset=0mm|YOffset=0mm|HoleType=Round|Shape=RoundedRectangle|*
%AMROUNDEDRECTD53*
21,1,5.5000,1.1250,0,0,0.0*
21,1,5.1250,1.5000,0,0,0.0*
1,1,0.3750,2.5625,-0.5625*
1,1,0.3750,-2.5625,-0.5625*
1,1,0.3750,-2.5625,0.5625*
1,1,0.3750,2.5625,0.5625*
%
%ADD53ROUNDEDRECTD53*%
%ADD54R,1.2000X1.9000*%
G04:AMPARAMS|DCode=55|XSize=1mm|YSize=2mm|CornerRadius=0.125mm|HoleSize=0mm|Usage=FLASHONLY|Rotation=180.000|XOffset=0mm|YOffset=0mm|HoleType=Round|Shape=RoundedRectangle|*
%AMROUNDEDRECTD55*
21,1,1.0000,1.7500,0,0,180.0*
21,1,0.7500,2.0000,0,0,180.0*
1,1,0.2500,-0.3750,0.8750*
1,1,0.2500,0.3750,0.8750*
1,1,0.2500,0.3750,-0.8750*
1,1,0.2500,-0.3750,-0.8750*
%
%ADD55ROUNDEDRECTD55*%
G04:AMPARAMS|DCode=56|XSize=5.5mm|YSize=5.7mm|CornerRadius=0.6875mm|HoleSize=0mm|Usage=FLASHONLY|Rotation=180.000|XOffset=0mm|YOffset=0mm|HoleType=Round|Shape=RoundedRectangle|*
%AMROUNDEDRECTD56*
21,1,5.5000,4.3250,0,0,180.0*
21,1,4.1250,5.7000,0,0,180.0*
1,1,1.3750,-2.0625,2.1625*
1,1,1.3750,2.0625,2.1625*
1,1,1.3750,2.0625,-2.1625*
1,1,1.3750,-2.0625,-2.1625*
%
%ADD56ROUNDEDRECTD56*%
%ADD57R,2.0000X1.3000*%
%ADD58R,6.3500X6.3500*%
%ADD59R,1.9000X1.2000*%
G04:AMPARAMS|DCode=60|XSize=1.41mm|YSize=1.47mm|CornerRadius=0.1763mm|HoleSize=0mm|Usage=FLASHONLY|Rotation=180.000|XOffset=0mm|YOffset=0mm|HoleType=Round|Shape=RoundedRectangle|*
%AMROUNDEDRECTD60*
21,1,1.4100,1.1175,0,0,180.0*
21,1,1.0575,1.4700,0,0,180.0*
1,1,0.3525,-0.5288,0.5587*
1,1,0.3525,0.5288,0.5587*
1,1,0.3525,0.5288,-0.5587*
1,1,0.3525,-0.5288,-0.5587*
%
%ADD60ROUNDEDRECTD60*%
%ADD61C,0.7620*%
G36*
X1158240Y0D02*
X0D01*
Y1315720D01*
X1158240D01*
Y0D01*
D02*
G37*
%LPC*%
G36*
X287062Y1048454D02*
X278792D01*
Y1043785D01*
X282548D01*
X282065Y1043734D01*
X281634Y1043581D01*
X281253Y1043325D01*
X280922Y1042967D01*
X280643Y1042507D01*
X280414Y1041945D01*
X280237Y1041281D01*
X280221Y1041184D01*
X287062D01*
Y1048454D01*
D02*
G37*
G36*
X276252D02*
X267982D01*
Y1041184D01*
X274715D01*
X274699Y1041281D01*
X274522Y1041945D01*
X274293Y1042507D01*
X274014Y1042967D01*
X273683Y1043325D01*
X273302Y1043581D01*
X272871Y1043734D01*
X272388Y1043785D01*
X276252D01*
Y1048454D01*
D02*
G37*
G36*
X203242D02*
X194972D01*
Y1043785D01*
X198782D01*
X198299Y1043734D01*
X197868Y1043581D01*
X197487Y1043325D01*
X197156Y1042967D01*
X196877Y1042507D01*
X196648Y1041945D01*
X196471Y1041281D01*
X196455Y1041184D01*
X203242D01*
Y1048454D01*
D02*
G37*
G36*
X192432D02*
X184162D01*
Y1041184D01*
X190949D01*
X190933Y1041281D01*
X190756Y1041945D01*
X190527Y1042507D01*
X190248Y1042967D01*
X189917Y1043325D01*
X189536Y1043581D01*
X189105Y1043734D01*
X188622Y1043785D01*
X192432D01*
Y1048454D01*
D02*
G37*
G36*
X443230Y1219299D02*
X440246Y1218906D01*
X437466Y1217754D01*
X435078Y1215922D01*
X393419Y1174263D01*
X391587Y1171876D01*
X390436Y1169095D01*
X390043Y1166112D01*
Y1161254D01*
X389971Y1161161D01*
X388806Y1159847D01*
X388075Y1159108D01*
X388036Y1159076D01*
X385655Y1156175D01*
X383886Y1152865D01*
X382797Y1149275D01*
X382429Y1145540D01*
X382797Y1141805D01*
X383787Y1138541D01*
X383552Y1138224D01*
X383552D01*
Y1105904D01*
Y1086904D01*
X389183D01*
Y1086458D01*
X389576Y1083474D01*
X390728Y1080694D01*
X392560Y1078306D01*
X399621Y1071245D01*
X392506Y1064130D01*
X390674Y1061742D01*
X389522Y1058962D01*
X389129Y1055978D01*
Y1053046D01*
X383498D01*
Y1020726D01*
Y1012190D01*
X382522D01*
Y974090D01*
X390043D01*
Y962409D01*
X390436Y959425D01*
X391587Y956644D01*
X393419Y954257D01*
X422378Y925298D01*
X424766Y923466D01*
X427546Y922314D01*
X428140Y922236D01*
X428057Y920966D01*
X403818D01*
Y914295D01*
X402798Y913539D01*
X400746Y914161D01*
X397510Y914480D01*
X394273Y914161D01*
X391161Y913217D01*
X388293Y911684D01*
X385779Y909621D01*
X385613Y909419D01*
X384810D01*
X384810Y909419D01*
X383334Y909224D01*
X382380Y910062D01*
Y920750D01*
X381943Y924065D01*
X380663Y927155D01*
X378628Y929808D01*
X336718Y971718D01*
X334065Y973753D01*
X330975Y975033D01*
X327660Y975470D01*
X320493D01*
Y980820D01*
X288997D01*
Y982676D01*
X294628D01*
Y1014996D01*
X287008D01*
Y1016566D01*
X277468D01*
X267928D01*
Y1014996D01*
X260308D01*
Y982676D01*
X265939D01*
Y977357D01*
X265508Y976919D01*
X264913Y976388D01*
X264615Y976044D01*
X264029Y975563D01*
X261760Y972798D01*
X260074Y969643D01*
X259035Y966220D01*
X258685Y962660D01*
X259035Y959100D01*
X260074Y955677D01*
X260928Y954078D01*
X260023Y953594D01*
X257509Y951531D01*
X255446Y949017D01*
X253913Y946149D01*
X252969Y943036D01*
X252650Y939800D01*
X252797Y938311D01*
X251944Y937370D01*
X245336D01*
X236600Y946105D01*
Y980820D01*
X206447D01*
Y982676D01*
X212078D01*
Y1014996D01*
X204458D01*
Y1016566D01*
X194918D01*
X185378D01*
Y1014996D01*
X177758D01*
Y1009726D01*
X175370Y1009491D01*
X174100Y1010494D01*
Y1090900D01*
X174261Y1090981D01*
X175788Y1090323D01*
X176181Y1089027D01*
X177717Y1086154D01*
X177222Y1084884D01*
X176542D01*
Y1052564D01*
X184162D01*
Y1050994D01*
X193702D01*
X203242D01*
Y1052564D01*
X210862D01*
Y1057195D01*
X233064D01*
X236048Y1057588D01*
X238828Y1058740D01*
X241216Y1060572D01*
X254532Y1073888D01*
X256364Y1076276D01*
X257299Y1078533D01*
X258111Y1079199D01*
X259092Y1080395D01*
X260362Y1079940D01*
Y1052564D01*
X267982D01*
Y1050994D01*
X277522D01*
X287062D01*
Y1052564D01*
X294682D01*
Y1057195D01*
X328581D01*
X333911Y1051865D01*
Y1050807D01*
X333679Y1050570D01*
X333529Y1050371D01*
X331646Y1048077D01*
X330113Y1045209D01*
X329169Y1042096D01*
X328850Y1038860D01*
X329169Y1035623D01*
X330113Y1032511D01*
X331646Y1029643D01*
X333709Y1027129D01*
X336223Y1025066D01*
X339091Y1023533D01*
X342203Y1022589D01*
X345440Y1022270D01*
X348676Y1022589D01*
X351789Y1023533D01*
X354657Y1025066D01*
X357171Y1027129D01*
X359234Y1029643D01*
X360767Y1032511D01*
X361711Y1035623D01*
X362030Y1038860D01*
X361711Y1042096D01*
X360767Y1045209D01*
X359234Y1048077D01*
X357603Y1050065D01*
X357351Y1050414D01*
X356969Y1050821D01*
Y1056640D01*
X356576Y1059624D01*
X355424Y1062404D01*
X353592Y1064792D01*
X341508Y1076876D01*
X339120Y1078708D01*
X336340Y1079860D01*
X333356Y1080253D01*
X320493D01*
Y1115440D01*
X314313D01*
X313426Y1117582D01*
X311390Y1120235D01*
X306238Y1125388D01*
X303585Y1127423D01*
X300495Y1128703D01*
X297180Y1129140D01*
X180340D01*
X177025Y1128703D01*
X173935Y1127423D01*
X171282Y1125388D01*
X152232Y1106338D01*
X150197Y1103685D01*
X148917Y1100595D01*
X148480Y1097280D01*
Y939800D01*
X148917Y936485D01*
X150197Y933395D01*
X152232Y930742D01*
X167472Y915502D01*
X170125Y913467D01*
X173215Y912187D01*
X176530Y911750D01*
X204470D01*
X207785Y912187D01*
X210875Y913467D01*
X213528Y915502D01*
X222250Y924224D01*
X230972Y915502D01*
X233625Y913467D01*
X236715Y912187D01*
X240030Y911750D01*
X240030Y911750D01*
X278130D01*
X281445Y912187D01*
X284535Y913467D01*
X287188Y915502D01*
X311390Y939705D01*
X313426Y942358D01*
X314313Y944500D01*
X320493D01*
Y949850D01*
X322354D01*
X356760Y915444D01*
Y871513D01*
X355587Y871027D01*
X344890Y881724D01*
Y893250D01*
X312570D01*
X312324Y894418D01*
Y895028D01*
X306537D01*
X306553Y894931D01*
X306730Y894267D01*
X306959Y893705D01*
X307238Y893245D01*
X307569Y892887D01*
X307950Y892632D01*
X308381Y892478D01*
X308864Y892427D01*
X305054D01*
Y888238D01*
X303784D01*
Y886968D01*
X295244D01*
Y883750D01*
X287570D01*
Y854930D01*
X292313D01*
X292594Y852796D01*
X293746Y850016D01*
X295578Y847628D01*
X302998Y840208D01*
X305386Y838376D01*
X308166Y837224D01*
X311150Y836831D01*
X313594D01*
X314002Y835629D01*
X313412Y835176D01*
X299850Y821614D01*
X298018Y819226D01*
X296866Y816446D01*
X296473Y813462D01*
Y813104D01*
X290842D01*
Y811834D01*
X287915D01*
X287506Y812822D01*
X287324Y813060D01*
Y843964D01*
X285254D01*
Y850246D01*
X284774Y853893D01*
X283367Y857291D01*
X281127Y860210D01*
X260154Y881183D01*
X257235Y883423D01*
X253837Y884830D01*
X250190Y885311D01*
X214630D01*
Y900430D01*
X133350D01*
Y842010D01*
X214630D01*
Y857130D01*
X244354D01*
X256249Y845234D01*
X255723Y843964D01*
X236004D01*
Y815644D01*
X233692D01*
Y800084D01*
X232519Y799598D01*
X227134Y804984D01*
X224215Y807223D01*
X220817Y808630D01*
X217170Y809110D01*
X211044D01*
X209124Y812242D01*
X206138Y815738D01*
X202642Y818724D01*
X198722Y821127D01*
X194474Y822886D01*
X190004Y823960D01*
X185420Y824320D01*
X162560D01*
X157976Y823960D01*
X153506Y822886D01*
X149258Y821127D01*
X145338Y818724D01*
X141842Y815738D01*
X138856Y812242D01*
X136453Y808322D01*
X134694Y804074D01*
X133620Y799604D01*
X133260Y795020D01*
X133620Y790436D01*
X134694Y785966D01*
X136453Y781718D01*
X138856Y777798D01*
X141842Y774302D01*
X145338Y771316D01*
X149258Y768913D01*
X153506Y767154D01*
X157976Y766080D01*
X159900Y765929D01*
Y751205D01*
X141605D01*
Y667385D01*
X151582D01*
X152068Y666212D01*
X151233Y665377D01*
X149401Y662989D01*
X148249Y660209D01*
X148170Y659605D01*
X142725D01*
Y619285D01*
X176045D01*
Y648871D01*
X189715D01*
Y619285D01*
X195160D01*
X195239Y618681D01*
X196391Y615901D01*
X198223Y613513D01*
X212828Y598908D01*
X215216Y597076D01*
X217996Y595924D01*
X220980Y595531D01*
X220980Y595531D01*
X274320D01*
X277304Y595924D01*
X280084Y597076D01*
X282472Y598908D01*
X294436Y610872D01*
X295928Y610568D01*
X296086Y610186D01*
X297918Y607798D01*
X308511Y597205D01*
Y554238D01*
X308279Y554000D01*
X308129Y553801D01*
X306246Y551507D01*
X304713Y548639D01*
X303769Y545527D01*
X303450Y542290D01*
X303478Y542003D01*
X302626Y541062D01*
X277076D01*
Y568306D01*
X255677D01*
X255526Y569451D01*
X254119Y572849D01*
X251880Y575768D01*
X251879Y575768D01*
X242374Y585274D01*
X239455Y587513D01*
X236057Y588920D01*
X232410Y589400D01*
X205740D01*
X205740Y589401D01*
X202093Y588920D01*
X198695Y587513D01*
X195777Y585274D01*
X195776Y585273D01*
X191368Y580865D01*
X190787Y580371D01*
X190227Y579949D01*
X189748Y579637D01*
X189356Y579420D01*
X189055Y579284D01*
X188841Y579208D01*
X188704Y579174D01*
X188627Y579162D01*
X188066Y579134D01*
X187992Y579120D01*
X139700D01*
Y529197D01*
X129736Y519234D01*
X127497Y516315D01*
X126090Y512917D01*
X125610Y509270D01*
Y372110D01*
X126090Y368463D01*
X127497Y365065D01*
X129736Y362146D01*
X141455Y350428D01*
Y315755D01*
X161971D01*
X164568Y313158D01*
X166956Y311326D01*
X169736Y310174D01*
X172720Y309781D01*
X172720Y309781D01*
X228600D01*
X231584Y310174D01*
X234364Y311326D01*
X236752Y313158D01*
X253922Y330328D01*
X255754Y332716D01*
X256812Y335270D01*
X262260D01*
Y360670D01*
Y386070D01*
Y394075D01*
X264844Y395146D01*
X267232Y396978D01*
X282472Y412218D01*
X284304Y414606D01*
X285456Y417386D01*
X285849Y420370D01*
Y430248D01*
X287022Y430734D01*
X292838Y424918D01*
X292838Y424918D01*
X295226Y423086D01*
X298006Y421934D01*
X300990Y421541D01*
X300990Y421541D01*
X309240D01*
Y386070D01*
Y360670D01*
Y335270D01*
X344760D01*
Y360670D01*
Y368446D01*
X345884Y368594D01*
X348664Y369746D01*
X351052Y371578D01*
X358672Y379198D01*
X360504Y381586D01*
X361656Y384366D01*
X362049Y387350D01*
Y419953D01*
X364930D01*
Y452272D01*
X366098Y452519D01*
X366708D01*
Y460397D01*
X367978Y461212D01*
X370840Y460930D01*
X374076Y461249D01*
X377189Y462193D01*
X380057Y463726D01*
X382571Y465789D01*
X384634Y468303D01*
X386167Y471171D01*
X387111Y474283D01*
X387430Y477520D01*
X387174Y480116D01*
X388153Y481296D01*
X388620Y481250D01*
X391856Y481569D01*
X394969Y482513D01*
X397837Y484046D01*
X400351Y486109D01*
X402414Y488623D01*
X403947Y491491D01*
X404891Y494604D01*
X405210Y497840D01*
X404891Y501077D01*
X403947Y504189D01*
X402414Y507057D01*
X400783Y509045D01*
X400531Y509394D01*
X400149Y509801D01*
Y513385D01*
X434035Y547271D01*
X464854D01*
X464922Y547106D01*
X466852Y544591D01*
X469366Y542663D01*
X472293Y541450D01*
X475435Y541036D01*
X488326D01*
X488687Y538295D01*
X489967Y535205D01*
X492002Y532552D01*
X496917Y527637D01*
X496431Y526464D01*
X472224D01*
Y522114D01*
X445804D01*
X442489Y521677D01*
X439399Y520397D01*
X436746Y518362D01*
X385912Y467528D01*
X383877Y464875D01*
X382597Y461785D01*
X382160Y458470D01*
Y233026D01*
X382597Y229711D01*
X383877Y226621D01*
X385912Y223969D01*
X410659Y199222D01*
X413312Y197187D01*
X416401Y195907D01*
X419716Y195470D01*
X462280D01*
X465595Y195907D01*
X468685Y197187D01*
X471338Y199222D01*
X481498Y209382D01*
X483533Y212035D01*
X484813Y215125D01*
X485038Y216835D01*
X485976Y217604D01*
X488356Y220505D01*
X489078Y221855D01*
X490706Y222207D01*
X492076Y221156D01*
X494856Y220004D01*
X495155Y219965D01*
X495073Y220785D01*
X494897Y221604D01*
X494670Y222297D01*
X494393Y222864D01*
X494065Y223305D01*
X493687Y223620D01*
X493258Y223808D01*
X492779Y223871D01*
X496570D01*
Y234950D01*
Y250121D01*
X494856Y249896D01*
X492076Y248744D01*
X490706Y247693D01*
X489078Y248045D01*
X488356Y249395D01*
X485976Y252296D01*
X483075Y254676D01*
X479765Y256445D01*
X476175Y257534D01*
X472440Y257902D01*
X468705Y257534D01*
X467110Y257050D01*
X466090Y257807D01*
Y257810D01*
X461193D01*
X460707Y258983D01*
X464515Y262791D01*
X502920D01*
X505904Y263184D01*
X508684Y264336D01*
X509302Y264810D01*
X510441Y264248D01*
Y252900D01*
X509704Y252296D01*
X507324Y249395D01*
X506602Y248045D01*
X504974Y247693D01*
X503604Y248744D01*
X500824Y249896D01*
X499110Y250121D01*
Y234950D01*
Y223871D01*
X502901D01*
X502422Y223808D01*
X501993Y223620D01*
X501615Y223305D01*
X501287Y222864D01*
X501010Y222297D01*
X500783Y221604D01*
X500607Y220785D01*
X500497Y219961D01*
X500824Y220004D01*
X503604Y221156D01*
X504974Y222207D01*
X506602Y221855D01*
X507324Y220505D01*
X509704Y217604D01*
X512605Y215224D01*
X515915Y213455D01*
X519506Y212366D01*
X523240Y211998D01*
X526974Y212366D01*
X530565Y213455D01*
X533875Y215224D01*
X535940Y216919D01*
X538005Y215224D01*
X541315Y213455D01*
X544906Y212366D01*
X548640Y211998D01*
X552374Y212366D01*
X555965Y213455D01*
X559275Y215224D01*
X561340Y216919D01*
X563405Y215224D01*
X566715Y213455D01*
X570305Y212366D01*
X574040Y211998D01*
X577775Y212366D01*
X581365Y213455D01*
X584675Y215224D01*
X587576Y217604D01*
X589956Y220505D01*
X591725Y223815D01*
X592814Y227405D01*
X593182Y231140D01*
Y238760D01*
X592814Y242495D01*
X591725Y246085D01*
X589956Y249395D01*
X587576Y252296D01*
X584675Y254676D01*
X581365Y256445D01*
X577775Y257534D01*
X574040Y257902D01*
X570305Y257534D01*
X566715Y256445D01*
X563405Y254676D01*
X561340Y252981D01*
X560169Y253943D01*
Y255270D01*
X560089Y255873D01*
X561667Y256716D01*
X564181Y258779D01*
X566244Y261293D01*
X567777Y264161D01*
X568721Y267274D01*
X569040Y270510D01*
X568855Y272389D01*
X587526Y291060D01*
X587526Y291060D01*
X588523Y292360D01*
X589789Y292256D01*
X590726Y290503D01*
X592789Y287989D01*
X595303Y285926D01*
X598171Y284393D01*
X601283Y283449D01*
X604520Y283130D01*
X607757Y283449D01*
X610869Y284393D01*
X613737Y285926D01*
X616251Y287989D01*
X618314Y290503D01*
X619847Y293371D01*
X620791Y296483D01*
X620943Y298028D01*
X625022Y302106D01*
X626195Y301620D01*
Y289587D01*
X644045D01*
Y286755D01*
X644482Y283440D01*
X645761Y280350D01*
X647797Y277697D01*
X658962Y266532D01*
X661615Y264497D01*
X664705Y263217D01*
X668020Y262780D01*
X820420D01*
X823735Y263217D01*
X826825Y264497D01*
X829478Y266532D01*
X870221Y307276D01*
X872257Y309929D01*
X873537Y313018D01*
X873973Y316334D01*
Y361465D01*
X875176Y361874D01*
X875768Y361102D01*
X885184Y351686D01*
Y332169D01*
X899428D01*
X899494Y332157D01*
X899651Y332169D01*
X900790D01*
X902527Y330719D01*
X909708Y323539D01*
X909708Y323539D01*
X912626Y321299D01*
X916025Y319892D01*
X918210Y319604D01*
Y304292D01*
X999490D01*
Y362712D01*
X924504D01*
Y364490D01*
X904988D01*
X895449Y374029D01*
Y383170D01*
X924504D01*
Y389722D01*
X925696Y390161D01*
X926702Y388984D01*
X930198Y385998D01*
X934118Y383595D01*
X938366Y381836D01*
X942836Y380762D01*
X947420Y380402D01*
X970280D01*
X974864Y380762D01*
X979334Y381836D01*
X983582Y383595D01*
X987502Y385998D01*
X990998Y388984D01*
X993984Y392480D01*
X996387Y396400D01*
X998146Y400648D01*
X999220Y405118D01*
X999580Y409702D01*
X999220Y414286D01*
X998146Y418756D01*
X996387Y423004D01*
X993984Y426924D01*
X990998Y430420D01*
X987502Y433406D01*
X983582Y435809D01*
X979334Y437568D01*
X974864Y438642D01*
X972941Y438793D01*
Y450350D01*
X972941Y450350D01*
X972460Y453997D01*
X971304Y456788D01*
Y473716D01*
X938984D01*
Y437717D01*
X938366Y437568D01*
X934118Y435809D01*
X930198Y433406D01*
X926702Y430420D01*
X923716Y426924D01*
X921796Y423792D01*
X915217D01*
X911570Y423312D01*
X908171Y421905D01*
X905253Y419665D01*
X905253Y419665D01*
X902448Y416861D01*
X900889Y415490D01*
X895449D01*
Y429056D01*
X900788Y434396D01*
X920304D01*
Y473716D01*
X894269D01*
X893783Y474889D01*
X912296Y493402D01*
X914128Y495790D01*
X915280Y498570D01*
X915673Y501554D01*
X915673Y501554D01*
Y516896D01*
X920304D01*
Y556216D01*
X887984D01*
Y516896D01*
X892616D01*
Y506329D01*
X869565Y483279D01*
X868362Y483872D01*
X868435Y484422D01*
Y504777D01*
X839584D01*
Y474926D01*
X858939D01*
X859488Y474998D01*
X860081Y473795D01*
X853012Y466726D01*
X851180Y464338D01*
X850028Y461557D01*
X849635Y458573D01*
Y449210D01*
X849276Y448935D01*
X847447Y446551D01*
X847054Y445603D01*
X844550Y445850D01*
X841313Y445531D01*
X838201Y444587D01*
X835333Y443054D01*
X832819Y440991D01*
X831992Y439983D01*
X830722Y440437D01*
Y440797D01*
X830330Y443776D01*
X829180Y446551D01*
X828500Y447438D01*
X828273Y447832D01*
Y451996D01*
X827837Y455312D01*
X826557Y458401D01*
X824521Y461054D01*
X824143Y461432D01*
X823991Y462976D01*
X823047Y466089D01*
X821514Y468957D01*
X819451Y471471D01*
X816937Y473534D01*
X816416Y473812D01*
X816811Y475041D01*
X817689Y474926D01*
X837044D01*
Y504777D01*
X808192D01*
Y485475D01*
X809280Y486806D01*
X809780Y487558D01*
X810186Y488287D01*
X810498Y488995D01*
X810717Y489680D01*
X810842Y490344D01*
X810873Y490986D01*
X810811Y491606D01*
X812994Y479421D01*
X812844Y479954D01*
X812615Y480335D01*
X812306Y480564D01*
X811916Y480642D01*
X811446Y480567D01*
X810896Y480340D01*
X810266Y479962D01*
X809616Y479476D01*
X810974Y477707D01*
X811780Y477088D01*
X811190Y475940D01*
X810956Y476011D01*
X807720Y476330D01*
X804483Y476011D01*
X801371Y475067D01*
X798503Y473534D01*
X795989Y471471D01*
X793926Y468957D01*
X792393Y466089D01*
X791449Y462976D01*
X791130Y459740D01*
X791449Y456503D01*
X792393Y453391D01*
X793926Y450523D01*
X795989Y448009D01*
X798503Y445946D01*
X800954Y444636D01*
X800597Y443776D01*
X800205Y440797D01*
Y434930D01*
X800052Y434751D01*
X779646Y414345D01*
X777613Y411696D01*
X771544D01*
Y379376D01*
X779164D01*
Y377806D01*
X788704D01*
X798244D01*
Y379376D01*
X805864D01*
Y383170D01*
X842004D01*
Y402686D01*
X847181Y407862D01*
X848354Y407376D01*
Y321639D01*
X837137Y310423D01*
X835964Y310909D01*
Y332169D01*
X842004D01*
Y364490D01*
X802684D01*
Y335268D01*
X796974D01*
X796114Y336877D01*
X794051Y339391D01*
X791537Y341454D01*
X788669Y342987D01*
X785556Y343931D01*
X782320Y344250D01*
X779083Y343931D01*
X775971Y342987D01*
X773103Y341454D01*
X770589Y339391D01*
X768526Y336877D01*
X766993Y334009D01*
X766049Y330896D01*
X765730Y327660D01*
X766049Y324423D01*
X766387Y323308D01*
X765631Y322287D01*
X746608D01*
X746624Y322191D01*
X746801Y321526D01*
X747030Y320964D01*
X747309Y320504D01*
X747640Y320146D01*
X748021Y319891D01*
X748452Y319738D01*
X748935Y319687D01*
X745125D01*
Y311017D01*
X766895D01*
Y318801D01*
X768165Y319119D01*
X768526Y318443D01*
X770589Y315929D01*
X773103Y313866D01*
X775971Y312333D01*
X779083Y311389D01*
X781643Y311137D01*
X782067Y311068D01*
X782626Y311050D01*
X783720Y309956D01*
X783720Y309956D01*
X784644Y309247D01*
Y300948D01*
X826003D01*
X826489Y299775D01*
X815114Y288400D01*
X687713D01*
X687515Y289587D01*
X687515D01*
Y322292D01*
X700642Y335419D01*
X702677Y338072D01*
X703957Y341161D01*
X704394Y344477D01*
Y361334D01*
X707744D01*
Y368954D01*
X709314D01*
Y378494D01*
Y388034D01*
X707744D01*
Y395654D01*
X675424D01*
Y361334D01*
X678774D01*
Y349782D01*
X659174Y330182D01*
X658966Y330005D01*
X658837Y329907D01*
X654482D01*
X653996Y331081D01*
X664058Y341142D01*
X666093Y343795D01*
X667373Y346885D01*
X667810Y350200D01*
Y393380D01*
Y429420D01*
X685660D01*
Y469740D01*
X673665D01*
X673179Y470913D01*
X676062Y473797D01*
X677607Y473949D01*
X680719Y474893D01*
X683587Y476426D01*
X686101Y478489D01*
X688164Y481003D01*
X689697Y483871D01*
X690641Y486983D01*
X690960Y490220D01*
X690641Y493456D01*
X689697Y496569D01*
X688164Y499437D01*
X686101Y501951D01*
X683587Y504014D01*
X680719Y505547D01*
X677607Y506491D01*
X674370Y506810D01*
X671133Y506491D01*
X669278Y505928D01*
X668008Y506870D01*
Y520499D01*
Y528292D01*
X668355Y528463D01*
X669278Y528788D01*
X670906Y528113D01*
X671274Y526898D01*
X671140Y526696D01*
X670806Y525018D01*
Y520700D01*
X687503D01*
Y524510D01*
X687554Y524027D01*
X687707Y523596D01*
X687963Y523215D01*
X688321Y522884D01*
X688781Y522605D01*
X689343Y522376D01*
X690007Y522199D01*
X690154Y522174D01*
Y525018D01*
X689820Y526696D01*
X689686Y526898D01*
X690054Y528113D01*
X691780Y528828D01*
X694271Y530739D01*
X696182Y533230D01*
X697383Y536130D01*
X697793Y539243D01*
Y550418D01*
X697383Y553530D01*
X696182Y556430D01*
X694271Y558921D01*
X691780Y560832D01*
X688880Y562033D01*
X685768Y562443D01*
X678916D01*
X678230Y563221D01*
X678472Y564629D01*
X679777Y565326D01*
X682291Y567389D01*
X684354Y569903D01*
X685887Y572771D01*
X686831Y575883D01*
X687150Y579120D01*
X686831Y582356D01*
X685887Y585469D01*
X684354Y588337D01*
X682291Y590851D01*
X679777Y592914D01*
X676909Y594447D01*
X673796Y595391D01*
X672249Y595544D01*
X671809Y596863D01*
X673187Y599441D01*
X674131Y602553D01*
X674383Y605113D01*
X674453Y605537D01*
X674470Y606096D01*
X684772Y616399D01*
X685968Y615971D01*
X686039Y615253D01*
X686983Y612141D01*
X688516Y609273D01*
X690579Y606759D01*
X693093Y604696D01*
X695961Y603163D01*
X699073Y602219D01*
X702310Y601900D01*
X705546Y602219D01*
X708659Y603163D01*
X711527Y604696D01*
X714041Y606759D01*
X716104Y609273D01*
X717637Y612141D01*
X718581Y615253D01*
X718833Y617813D01*
X718903Y618237D01*
X718920Y618796D01*
X727271Y627147D01*
X728527Y626960D01*
X729156Y625783D01*
X731219Y623269D01*
X733733Y621206D01*
X736601Y619673D01*
X739714Y618729D01*
X742950Y618410D01*
X746187Y618729D01*
X749299Y619673D01*
X752167Y621206D01*
X754681Y623269D01*
X756744Y625783D01*
X758277Y628651D01*
X759221Y631763D01*
X759473Y634323D01*
X759542Y634748D01*
X759560Y635306D01*
X768631Y644377D01*
X770463Y646764D01*
X771614Y649545D01*
X771851Y651341D01*
X772079Y651637D01*
X773244Y652951D01*
X773975Y653690D01*
X774014Y653722D01*
X776395Y656623D01*
X778164Y659933D01*
X779253Y663523D01*
X779621Y667258D01*
X779253Y670993D01*
X778164Y674583D01*
X776395Y677893D01*
X774014Y680794D01*
X771113Y683174D01*
X767804Y684943D01*
X764213Y686032D01*
X762971Y686155D01*
X762775Y687397D01*
X765865Y688677D01*
X768518Y690712D01*
X780127Y702321D01*
X781050Y702230D01*
X784286Y702549D01*
X787399Y703493D01*
X790267Y705026D01*
X792781Y707089D01*
X794844Y709603D01*
X794959Y709819D01*
X796191Y709510D01*
Y639775D01*
X722926Y566510D01*
X722593Y566507D01*
X722347Y566472D01*
X719393Y566181D01*
X716281Y565237D01*
X713413Y563704D01*
X710899Y561641D01*
X708836Y559127D01*
X707303Y556259D01*
X706359Y553147D01*
X706040Y549910D01*
X706359Y546674D01*
X707303Y543561D01*
X708836Y540693D01*
X710899Y538179D01*
X713413Y536116D01*
X716281Y534583D01*
X719393Y533639D01*
X722630Y533320D01*
X725866Y533639D01*
X728979Y534583D01*
X731847Y536116D01*
X734361Y538179D01*
X736424Y540693D01*
X737957Y543561D01*
X738901Y546674D01*
X739153Y549233D01*
X739222Y549658D01*
X739240Y550216D01*
X815872Y626848D01*
X815872Y626848D01*
X817704Y629236D01*
X818856Y632016D01*
X819249Y635000D01*
Y740715D01*
X830841Y752307D01*
X835618D01*
Y747676D01*
Y736461D01*
X833026D01*
Y697141D01*
X873346D01*
Y722366D01*
X874519Y722852D01*
X876714Y720658D01*
Y697141D01*
X908050D01*
Y675640D01*
X989330D01*
Y725563D01*
X1022153Y758387D01*
X1024393Y761305D01*
X1025800Y764703D01*
X1026281Y768350D01*
X1026281Y768350D01*
X1026281Y1109980D01*
X1025800Y1113627D01*
X1024393Y1117025D01*
X1022153Y1119944D01*
X1022153Y1119944D01*
X998024Y1144073D01*
X995105Y1146313D01*
X991707Y1147720D01*
X988060Y1148201D01*
X866140D01*
X862493Y1147720D01*
X859095Y1146313D01*
X856177Y1144073D01*
X856176Y1144073D01*
X842206Y1130104D01*
X839967Y1127185D01*
X838931Y1124683D01*
X838868Y1124657D01*
X834948Y1122254D01*
X831452Y1119268D01*
X828466Y1115772D01*
X826063Y1111852D01*
X824304Y1107604D01*
X824218Y1107247D01*
X822948Y1107398D01*
Y1120356D01*
X788628D01*
Y1115586D01*
X787911Y1115289D01*
X785258Y1113254D01*
X782094Y1110090D01*
X752290D01*
X751750Y1110991D01*
X751708Y1111360D01*
X752620Y1114363D01*
X752938Y1117600D01*
X752620Y1120836D01*
X751676Y1123949D01*
X750143Y1126817D01*
X749370Y1127758D01*
X750191Y1128759D01*
X751883Y1127855D01*
X755474Y1126766D01*
X759209Y1126398D01*
X762943Y1126766D01*
X766534Y1127855D01*
X769843Y1129624D01*
X772744Y1132004D01*
X775125Y1134905D01*
X776894Y1138215D01*
X777983Y1141805D01*
X778351Y1145540D01*
X777983Y1149275D01*
X776894Y1152865D01*
X775125Y1156175D01*
X772744Y1159076D01*
X769843Y1161456D01*
X766534Y1163225D01*
X762943Y1164314D01*
X759209Y1164682D01*
X756625Y1164428D01*
X745570Y1175483D01*
X745572Y1175603D01*
X745549Y1175804D01*
X745570Y1176020D01*
X745251Y1179257D01*
X744307Y1182369D01*
X742774Y1185237D01*
X740711Y1187751D01*
X738197Y1189814D01*
X735329Y1191347D01*
X732216Y1192291D01*
X728980Y1192610D01*
X725743Y1192291D01*
X722631Y1191347D01*
X719763Y1189814D01*
X717249Y1187751D01*
X715186Y1185237D01*
X714150Y1183299D01*
X712586Y1183067D01*
X707699Y1187954D01*
X707110Y1189726D01*
X706946Y1190348D01*
X706946Y1190348D01*
X706945Y1190349D01*
X706945Y1190349D01*
X706648Y1191076D01*
X706207Y1192529D01*
X704674Y1195397D01*
X702611Y1197911D01*
X700097Y1199974D01*
X697229Y1201507D01*
X694117Y1202451D01*
X690880Y1202770D01*
X687644Y1202451D01*
X684531Y1201507D01*
X681663Y1199974D01*
X679149Y1197911D01*
X677576Y1195994D01*
X675980Y1195794D01*
X674460Y1197314D01*
X674457Y1197647D01*
X674422Y1197893D01*
X674131Y1200846D01*
X673187Y1203959D01*
X671654Y1206827D01*
X669591Y1209341D01*
X667077Y1211404D01*
X664209Y1212937D01*
X661096Y1213881D01*
X657860Y1214200D01*
X654623Y1213881D01*
X651511Y1212937D01*
X648643Y1211404D01*
X646129Y1209341D01*
X644066Y1206827D01*
X642533Y1203959D01*
X641589Y1200846D01*
X641518Y1200129D01*
X640322Y1199702D01*
X624102Y1215922D01*
X621714Y1217754D01*
X618934Y1218906D01*
X615950Y1219299D01*
X443230D01*
X443230Y1219299D01*
D02*
G37*
G36*
X287008Y1026376D02*
X280221D01*
X280237Y1026279D01*
X280414Y1025615D01*
X280643Y1025053D01*
X280922Y1024593D01*
X281253Y1024235D01*
X281634Y1023979D01*
X282065Y1023826D01*
X282548Y1023775D01*
X278738D01*
Y1019106D01*
X287008D01*
Y1026376D01*
D02*
G37*
G36*
X204458D02*
X196455D01*
X196471Y1026279D01*
X196648Y1025615D01*
X196877Y1025053D01*
X197156Y1024593D01*
X197487Y1024235D01*
X197868Y1023979D01*
X198299Y1023826D01*
X198782Y1023775D01*
X196188D01*
Y1019106D01*
X204458D01*
Y1026376D01*
D02*
G37*
G36*
X274715D02*
X267928D01*
Y1019106D01*
X276198D01*
Y1023775D01*
X272388D01*
X272871Y1023826D01*
X273302Y1023979D01*
X273683Y1024235D01*
X274014Y1024593D01*
X274293Y1025053D01*
X274522Y1025615D01*
X274699Y1026279D01*
X274715Y1026376D01*
D02*
G37*
G36*
X190949D02*
X185378D01*
Y1019106D01*
X193648D01*
Y1023775D01*
X188622D01*
X189105Y1023826D01*
X189536Y1023979D01*
X189917Y1024235D01*
X190248Y1024593D01*
X190527Y1025053D01*
X190756Y1025615D01*
X190933Y1026279D01*
X190949Y1026376D01*
D02*
G37*
G36*
X301031Y895028D02*
X295244D01*
Y889508D01*
X302514D01*
Y892427D01*
X298704D01*
X299187Y892478D01*
X299618Y892632D01*
X299999Y892887D01*
X300330Y893245D01*
X300609Y893705D01*
X300838Y894267D01*
X301015Y894931D01*
X301031Y895028D01*
D02*
G37*
G36*
X818120Y566260D02*
X814883Y565941D01*
X811771Y564997D01*
X808903Y563464D01*
X806915Y561833D01*
X806566Y561581D01*
X805905Y560960D01*
X804736Y560806D01*
X801956Y559654D01*
X799568Y557822D01*
X799568Y557822D01*
X795556Y553810D01*
X794119Y554169D01*
X793182Y556430D01*
X791271Y558921D01*
X788780Y560832D01*
X785880Y562033D01*
X782767Y562443D01*
X772193D01*
X769080Y562033D01*
X766180Y560832D01*
X763689Y558921D01*
X761778Y556430D01*
X760577Y553530D01*
X760167Y550418D01*
Y543821D01*
X746228Y529882D01*
X744396Y527494D01*
X743244Y524714D01*
X742851Y521730D01*
Y489417D01*
X742649Y489251D01*
X740586Y486737D01*
X739053Y483869D01*
X738109Y480756D01*
X737790Y477520D01*
X738109Y474283D01*
X739053Y471171D01*
X740586Y468303D01*
X742649Y465789D01*
X745163Y463726D01*
X745792Y463390D01*
X745474Y462120D01*
X743270D01*
Y450850D01*
X762439D01*
Y454748D01*
X762490Y454265D01*
X762643Y453833D01*
X762899Y453452D01*
X763257Y453122D01*
X763717Y452842D01*
X764279Y452614D01*
X764943Y452436D01*
X765040Y452420D01*
Y462120D01*
X763286D01*
X762968Y463390D01*
X763597Y463726D01*
X766111Y465789D01*
X768174Y468303D01*
X769707Y471171D01*
X770651Y474283D01*
X770970Y477520D01*
X770651Y480756D01*
X769707Y483869D01*
X768174Y486737D01*
X766111Y489251D01*
X765909Y489417D01*
Y502166D01*
X767179Y503014D01*
X769080Y502227D01*
X772193Y501817D01*
X782767D01*
X785880Y502227D01*
X788780Y503428D01*
X791271Y505339D01*
X793182Y507830D01*
X794383Y510730D01*
X794793Y513843D01*
Y520439D01*
X808931Y534576D01*
X809418Y534426D01*
X809875Y532955D01*
X809465Y532420D01*
X808516Y530130D01*
X808192Y527672D01*
Y507317D01*
X837044D01*
Y534519D01*
X833233D01*
X833716Y534570D01*
X834148Y534724D01*
X834529Y534979D01*
X834859Y535337D01*
X835138Y535797D01*
X835367Y536359D01*
X835545Y537023D01*
X835569Y537168D01*
X830861D01*
X830260Y538438D01*
X831914Y540453D01*
X833447Y543321D01*
X834391Y546433D01*
X834710Y549670D01*
X834391Y552906D01*
X833447Y556019D01*
X831914Y558887D01*
X829851Y561401D01*
X827337Y563464D01*
X824469Y564997D01*
X821357Y565941D01*
X818120Y566260D01*
D02*
G37*
G36*
X963684Y548596D02*
X956414D01*
Y537826D01*
X963684D01*
Y548596D01*
D02*
G37*
G36*
X953874D02*
X946727D01*
X946876Y548452D01*
X948957Y546656D01*
X949836Y546026D01*
X950608Y545574D01*
X951273Y545301D01*
X951830Y545207D01*
X952280Y545291D01*
X952623Y545554D01*
X952859Y545995D01*
X950057Y537826D01*
X953874D01*
Y548596D01*
D02*
G37*
G36*
X946604Y541444D02*
Y537826D01*
X949035D01*
X948754Y538463D01*
X948337Y539200D01*
X947812Y539975D01*
X947178Y540788D01*
X946604Y541444D01*
D02*
G37*
G36*
X963684Y535286D02*
X956414D01*
Y524516D01*
X963684D01*
Y535286D01*
D02*
G37*
G36*
X953874D02*
X946604D01*
Y524516D01*
X953874D01*
Y535286D01*
D02*
G37*
G36*
X687503Y518160D02*
X681750D01*
Y509456D01*
X685768D01*
X687446Y509790D01*
X688869Y510741D01*
X689820Y512164D01*
X690154Y513843D01*
Y516686D01*
X690007Y516661D01*
X689343Y516484D01*
X688781Y516255D01*
X688321Y515976D01*
X687963Y515645D01*
X687707Y515264D01*
X687554Y514833D01*
X687503Y514350D01*
Y518160D01*
D02*
G37*
G36*
X679210D02*
X670806D01*
Y513843D01*
X671140Y512164D01*
X672091Y510741D01*
X673514Y509790D01*
X675192Y509456D01*
X679210D01*
Y518160D01*
D02*
G37*
G36*
X858939Y537168D02*
X841058D01*
X841082Y537023D01*
X841260Y536359D01*
X841488Y535797D01*
X841768Y535337D01*
X842098Y534979D01*
X842479Y534724D01*
X842911Y534570D01*
X843393Y534519D01*
X839584D01*
Y507317D01*
X868435D01*
Y527672D01*
X868111Y530130D01*
X867162Y532420D01*
X865653Y534387D01*
X863687Y535896D01*
X861396Y536845D01*
X858939Y537168D01*
D02*
G37*
G36*
X740730Y462120D02*
X718960D01*
Y450850D01*
X740730D01*
Y462120D01*
D02*
G37*
G36*
X762439Y448310D02*
X743270D01*
Y439610D01*
X747080D01*
X746597Y439560D01*
X746166Y439407D01*
X745785Y439153D01*
X745454Y438798D01*
X745175Y438340D01*
X744946Y437782D01*
X744769Y437121D01*
X744755Y437040D01*
X765040D01*
Y446915D01*
X764943Y446899D01*
X764279Y446721D01*
X763717Y446493D01*
X763257Y446213D01*
X762899Y445883D01*
X762643Y445502D01*
X762490Y445070D01*
X762439Y444588D01*
Y448310D01*
D02*
G37*
G36*
X740730D02*
X718960D01*
Y437040D01*
X739245D01*
X739231Y437121D01*
X739054Y437782D01*
X738825Y438340D01*
X738546Y438798D01*
X738215Y439153D01*
X737834Y439407D01*
X737403Y439560D01*
X736920Y439610D01*
X740730D01*
Y448310D01*
D02*
G37*
G36*
X719124Y388034D02*
X711854D01*
Y379764D01*
X719124D01*
Y388034D01*
D02*
G37*
G36*
Y377224D02*
X711854D01*
Y368954D01*
X719124D01*
Y377224D01*
D02*
G37*
G36*
X798244Y375266D02*
X789974D01*
Y370597D01*
X793476D01*
X793052Y370549D01*
X792673Y370405D01*
X792338Y370165D01*
X792048Y369828D01*
X791802Y369396D01*
X791601Y368868D01*
X791445Y368243D01*
X791407Y367996D01*
X798244D01*
Y375266D01*
D02*
G37*
G36*
X787434D02*
X779164D01*
Y367996D01*
X786001D01*
X785963Y368243D01*
X785807Y368868D01*
X785606Y369396D01*
X785360Y369828D01*
X785070Y370165D01*
X784735Y370405D01*
X784356Y370549D01*
X783932Y370597D01*
X787434D01*
Y375266D01*
D02*
G37*
G36*
X741102Y322287D02*
X720815D01*
Y311017D01*
X742585D01*
Y319687D01*
X738775D01*
X739258Y319738D01*
X739689Y319891D01*
X740070Y320146D01*
X740401Y320504D01*
X740680Y320964D01*
X740909Y321526D01*
X741086Y322191D01*
X741102Y322287D01*
D02*
G37*
G36*
X766895Y308477D02*
X745125D01*
Y297208D01*
X766895D01*
Y308477D01*
D02*
G37*
G36*
X742585D02*
X720815D01*
Y297208D01*
X742585D01*
Y308477D01*
D02*
G37*
%LPD*%
G36*
X495826Y1206500D02*
X495361Y1206482D01*
X494983Y1206428D01*
X494692Y1206338D01*
X494488Y1206213D01*
X494370Y1206051D01*
X494339Y1205853D01*
X494395Y1205620D01*
X494537Y1205350D01*
X494766Y1205045D01*
X495082Y1204704D01*
X491490D01*
X491123Y1205045D01*
X490742Y1205350D01*
X490345Y1205620D01*
X489934Y1205853D01*
X489508Y1206051D01*
X489067Y1206213D01*
X488611Y1206338D01*
X488140Y1206428D01*
X487654Y1206482D01*
X487154Y1206500D01*
X490220Y1209040D01*
X495826Y1206500D01*
D02*
G37*
G36*
X664218Y1196685D02*
X664339Y1195127D01*
X664451Y1194432D01*
X664598Y1193791D01*
X664779Y1193205D01*
X664995Y1192675D01*
X665246Y1192199D01*
X665532Y1191779D01*
X665852Y1191414D01*
X664055Y1189619D01*
X663691Y1189938D01*
X663271Y1190224D01*
X662795Y1190474D01*
X662265Y1190691D01*
X661679Y1190872D01*
X661039Y1191019D01*
X660343Y1191131D01*
X659591Y1191209D01*
X657924Y1191260D01*
X664210Y1197546D01*
X664218Y1196685D01*
D02*
G37*
G36*
X533432Y1192460D02*
X532416Y1191273D01*
X532003Y1190702D01*
X531654Y1190145D01*
X531368Y1189603D01*
X531146Y1189075D01*
X530987Y1188561D01*
X530892Y1188063D01*
X530860Y1187578D01*
X528320D01*
X528288Y1188063D01*
X528193Y1188561D01*
X528034Y1189075D01*
X527812Y1189603D01*
X527526Y1190145D01*
X527177Y1190702D01*
X526764Y1191273D01*
X526288Y1191859D01*
X525145Y1193075D01*
X534035D01*
X533432Y1192460D01*
D02*
G37*
G36*
X485685Y1183005D02*
X485244Y1183412D01*
X484806Y1183733D01*
X484370Y1183966D01*
X483936Y1184112D01*
X483504Y1184172D01*
X483074Y1184144D01*
X482647Y1184029D01*
X482222Y1183828D01*
X481799Y1183539D01*
X481379Y1183163D01*
X480278Y1185654D01*
X480832Y1186216D01*
X484264Y1190107D01*
X484690Y1190657D01*
X485100Y1191206D01*
X485685Y1183005D01*
D02*
G37*
G36*
X697283Y1186801D02*
X698295Y1183757D01*
X698554Y1183171D01*
X698816Y1182655D01*
X699080Y1182210D01*
X699346Y1181835D01*
X699615Y1181529D01*
X698304Y1179249D01*
X697910Y1179593D01*
X697476Y1179880D01*
X697001Y1180107D01*
X696487Y1180275D01*
X695933Y1180386D01*
X695338Y1180437D01*
X694704Y1180430D01*
X694029Y1180364D01*
X693314Y1180239D01*
X692560Y1180056D01*
X697036Y1187737D01*
X697283Y1186801D01*
D02*
G37*
G36*
X585502Y1182300D02*
X584486Y1181113D01*
X584073Y1180542D01*
X583724Y1179985D01*
X583438Y1179443D01*
X583216Y1178915D01*
X583057Y1178401D01*
X582962Y1177903D01*
X582930Y1177418D01*
X580390D01*
X580358Y1177903D01*
X580263Y1178401D01*
X580104Y1178915D01*
X579882Y1179443D01*
X579596Y1179985D01*
X579247Y1180542D01*
X578834Y1181113D01*
X578358Y1181699D01*
X577215Y1182915D01*
X586105D01*
X585502Y1182300D01*
D02*
G37*
G36*
X735311Y1174927D02*
X735394Y1173384D01*
X735492Y1172694D01*
X735628Y1172057D01*
X735801Y1171473D01*
X736012Y1170943D01*
X736260Y1170467D01*
X736546Y1170044D01*
X736870Y1169675D01*
X735022Y1167930D01*
X734662Y1168247D01*
X734245Y1168531D01*
X733771Y1168784D01*
X733241Y1169006D01*
X732653Y1169195D01*
X732009Y1169354D01*
X731308Y1169480D01*
X730551Y1169576D01*
X728866Y1169671D01*
X735325Y1175779D01*
X735311Y1174927D01*
D02*
G37*
G36*
X507937Y1168400D02*
X507075Y1168392D01*
X505517Y1168271D01*
X504822Y1168159D01*
X504181Y1168012D01*
X503595Y1167831D01*
X503065Y1167615D01*
X502589Y1167364D01*
X502169Y1167078D01*
X501805Y1166758D01*
X500009Y1168555D01*
X500328Y1168919D01*
X500614Y1169339D01*
X500864Y1169815D01*
X501081Y1170345D01*
X501262Y1170931D01*
X501409Y1171572D01*
X501521Y1172267D01*
X501599Y1173019D01*
X501650Y1174687D01*
X507937Y1168400D01*
D02*
G37*
G36*
X613512Y1168940D02*
X613224Y1168717D01*
X612970Y1168464D01*
X612750Y1168181D01*
X612563Y1167869D01*
X612411Y1167526D01*
X612292Y1167154D01*
X612208Y1166753D01*
X612157Y1166321D01*
X612140Y1165860D01*
X609600D01*
X609583Y1166321D01*
X609532Y1166753D01*
X609448Y1167154D01*
X609329Y1167526D01*
X609177Y1167869D01*
X608990Y1168181D01*
X608770Y1168464D01*
X608516Y1168717D01*
X608228Y1168940D01*
X607907Y1169134D01*
X613833D01*
X613512Y1168940D01*
D02*
G37*
G36*
X556307Y1158864D02*
X556446Y1158199D01*
X556679Y1157514D01*
X557005Y1156809D01*
X557424Y1156085D01*
X557936Y1155340D01*
X558542Y1154576D01*
X559240Y1153793D01*
X560917Y1152166D01*
X549063D01*
X549948Y1152989D01*
X551438Y1154576D01*
X552044Y1155340D01*
X552556Y1156085D01*
X552975Y1156809D01*
X553301Y1157514D01*
X553534Y1158199D01*
X553673Y1158864D01*
X553720Y1159510D01*
X556260D01*
X556307Y1158864D01*
D02*
G37*
G36*
X684328Y1159068D02*
X684477Y1158424D01*
X684724Y1157742D01*
X685071Y1157021D01*
X685517Y1156262D01*
X686062Y1155464D01*
X686705Y1154628D01*
X688290Y1152840D01*
X689231Y1151889D01*
X676786D01*
X677727Y1152840D01*
X679312Y1154628D01*
X679956Y1155464D01*
X680500Y1156262D01*
X680946Y1157021D01*
X681293Y1157742D01*
X681540Y1158424D01*
X681689Y1159068D01*
X681739Y1159673D01*
X684278D01*
X684328Y1159068D01*
D02*
G37*
G36*
X658928D02*
X659077Y1158424D01*
X659324Y1157742D01*
X659671Y1157021D01*
X660117Y1156262D01*
X660662Y1155464D01*
X661305Y1154628D01*
X662890Y1152840D01*
X663831Y1151889D01*
X651385D01*
X652327Y1152840D01*
X653912Y1154628D01*
X654556Y1155464D01*
X655100Y1156262D01*
X655546Y1157021D01*
X655893Y1157742D01*
X656140Y1158424D01*
X656289Y1159068D01*
X656339Y1159673D01*
X658878D01*
X658928Y1159068D01*
D02*
G37*
G36*
X530910D02*
X531058Y1158424D01*
X531306Y1157742D01*
X531652Y1157021D01*
X532098Y1156262D01*
X532643Y1155464D01*
X533287Y1154628D01*
X534872Y1152840D01*
X535813Y1151889D01*
X523367D01*
X524308Y1152840D01*
X525893Y1154628D01*
X526537Y1155464D01*
X527082Y1156262D01*
X527528Y1157021D01*
X527874Y1157742D01*
X528122Y1158424D01*
X528270Y1159068D01*
X528320Y1159673D01*
X530860D01*
X530910Y1159068D01*
D02*
G37*
G36*
X479091D02*
X479240Y1158424D01*
X479487Y1157742D01*
X479834Y1157021D01*
X480280Y1156262D01*
X480825Y1155464D01*
X481468Y1154628D01*
X483053Y1152840D01*
X483994Y1151889D01*
X471549D01*
X472490Y1152840D01*
X474075Y1154628D01*
X474718Y1155464D01*
X475263Y1156262D01*
X475709Y1157021D01*
X476056Y1157742D01*
X476303Y1158424D01*
X476452Y1159068D01*
X476502Y1159673D01*
X479041D01*
X479091Y1159068D01*
D02*
G37*
G36*
X428291D02*
X428440Y1158424D01*
X428687Y1157742D01*
X429034Y1157021D01*
X429480Y1156262D01*
X430024Y1155464D01*
X430668Y1154628D01*
X432253Y1152840D01*
X433195Y1151889D01*
X420748D01*
X421689Y1152840D01*
X423274Y1154628D01*
X423918Y1155464D01*
X424463Y1156262D01*
X424909Y1157021D01*
X425256Y1157742D01*
X425503Y1158424D01*
X425652Y1159068D01*
X425701Y1159673D01*
X428242D01*
X428291Y1159068D01*
D02*
G37*
G36*
X402891D02*
X403040Y1158424D01*
X403287Y1157742D01*
X403634Y1157021D01*
X404080Y1156262D01*
X404624Y1155464D01*
X405268Y1154628D01*
X406853Y1152840D01*
X407794Y1151889D01*
X395349D01*
X396289Y1152840D01*
X397874Y1154628D01*
X398518Y1155464D01*
X399063Y1156262D01*
X399509Y1157021D01*
X399856Y1157742D01*
X400103Y1158424D01*
X400252Y1159068D01*
X400302Y1159673D01*
X402841D01*
X402891Y1159068D01*
D02*
G37*
G36*
X508453Y1138240D02*
X506868Y1136452D01*
X506225Y1135615D01*
X505680Y1134818D01*
X505234Y1134059D01*
X504887Y1133338D01*
X504640Y1132656D01*
X504491Y1132012D01*
X504441Y1131407D01*
X501902D01*
X501852Y1132012D01*
X501703Y1132656D01*
X501456Y1133338D01*
X501109Y1134059D01*
X500663Y1134818D01*
X500118Y1135615D01*
X499474Y1136452D01*
X497890Y1138240D01*
X496949Y1139191D01*
X509394D01*
X508453Y1138240D01*
D02*
G37*
G36*
X483053D02*
X481468Y1136452D01*
X480825Y1135615D01*
X480280Y1134818D01*
X479834Y1134059D01*
X479487Y1133338D01*
X479240Y1132656D01*
X479091Y1132012D01*
X479041Y1131407D01*
X476502D01*
X476452Y1132012D01*
X476303Y1132656D01*
X476056Y1133338D01*
X475709Y1134059D01*
X475263Y1134818D01*
X474718Y1135615D01*
X474075Y1136452D01*
X472490Y1138240D01*
X471549Y1139191D01*
X483994D01*
X483053Y1138240D01*
D02*
G37*
G36*
X457653D02*
X456068Y1136452D01*
X455424Y1135615D01*
X454880Y1134818D01*
X454434Y1134059D01*
X454087Y1133338D01*
X453840Y1132656D01*
X453691Y1132012D01*
X453642Y1131407D01*
X451101D01*
X451052Y1132012D01*
X450903Y1132656D01*
X450656Y1133338D01*
X450309Y1134059D01*
X449863Y1134818D01*
X449318Y1135615D01*
X448675Y1136452D01*
X447090Y1138240D01*
X446148Y1139191D01*
X458595D01*
X457653Y1138240D01*
D02*
G37*
G36*
X432253D02*
X430668Y1136452D01*
X430024Y1135615D01*
X429480Y1134818D01*
X429034Y1134059D01*
X428687Y1133338D01*
X428440Y1132656D01*
X428291Y1132012D01*
X428242Y1131407D01*
X425701D01*
X425652Y1132012D01*
X425503Y1132656D01*
X425256Y1133338D01*
X424909Y1134059D01*
X424463Y1134818D01*
X423918Y1135615D01*
X423274Y1136452D01*
X421689Y1138240D01*
X420748Y1139191D01*
X433195D01*
X432253Y1138240D01*
D02*
G37*
G36*
X406853D02*
X405268Y1136452D01*
X404624Y1135615D01*
X404080Y1134818D01*
X403634Y1134059D01*
X403287Y1133338D01*
X403040Y1132656D01*
X402891Y1132012D01*
X402841Y1131407D01*
X400302D01*
X400252Y1132012D01*
X400103Y1132656D01*
X399856Y1133338D01*
X399509Y1134059D01*
X399063Y1134818D01*
X398518Y1135615D01*
X397874Y1136452D01*
X396289Y1138240D01*
X395349Y1139191D01*
X407794D01*
X406853Y1138240D01*
D02*
G37*
G36*
X504454Y1130085D02*
X504492Y1129648D01*
X504556Y1129263D01*
X504645Y1128928D01*
X504759Y1128646D01*
X504899Y1128414D01*
X505064Y1128234D01*
X505254Y1128106D01*
X505470Y1128029D01*
X505712Y1128003D01*
X500631D01*
X500873Y1128029D01*
X501089Y1128106D01*
X501279Y1128234D01*
X501444Y1128414D01*
X501584Y1128646D01*
X501698Y1128928D01*
X501787Y1129263D01*
X501851Y1129648D01*
X501889Y1130085D01*
X501902Y1130574D01*
X504441D01*
X504454Y1130085D01*
D02*
G37*
G36*
X479054D02*
X479092Y1129648D01*
X479156Y1129263D01*
X479245Y1128928D01*
X479359Y1128646D01*
X479499Y1128414D01*
X479664Y1128234D01*
X479854Y1128106D01*
X480070Y1128029D01*
X480312Y1128003D01*
X475232D01*
X475473Y1128029D01*
X475689Y1128106D01*
X475879Y1128234D01*
X476044Y1128414D01*
X476184Y1128646D01*
X476298Y1128928D01*
X476387Y1129263D01*
X476451Y1129648D01*
X476489Y1130085D01*
X476502Y1130574D01*
X479041D01*
X479054Y1130085D01*
D02*
G37*
G36*
X428254D02*
X428292Y1129648D01*
X428356Y1129263D01*
X428445Y1128928D01*
X428559Y1128646D01*
X428699Y1128414D01*
X428864Y1128234D01*
X429054Y1128106D01*
X429270Y1128029D01*
X429511Y1128003D01*
X424431D01*
X424673Y1128029D01*
X424889Y1128106D01*
X425079Y1128234D01*
X425244Y1128414D01*
X425384Y1128646D01*
X425498Y1128928D01*
X425587Y1129263D01*
X425651Y1129648D01*
X425689Y1130085D01*
X425701Y1130574D01*
X428242D01*
X428254Y1130085D01*
D02*
G37*
G36*
X402854D02*
X402892Y1129648D01*
X402956Y1129263D01*
X403045Y1128928D01*
X403159Y1128646D01*
X403299Y1128414D01*
X403464Y1128234D01*
X403654Y1128106D01*
X403870Y1128029D01*
X404112Y1128003D01*
X399031D01*
X399273Y1128029D01*
X399489Y1128106D01*
X399679Y1128234D01*
X399844Y1128414D01*
X399984Y1128646D01*
X400098Y1128928D01*
X400187Y1129263D01*
X400251Y1129648D01*
X400289Y1130085D01*
X400302Y1130574D01*
X402841D01*
X402854Y1130085D01*
D02*
G37*
G36*
X453673Y1126129D02*
X453769Y1125630D01*
X453927Y1125117D01*
X454150Y1124589D01*
X454435Y1124046D01*
X454785Y1123490D01*
X455197Y1122918D01*
X455673Y1122332D01*
X456816Y1121116D01*
X447926D01*
X448530Y1121731D01*
X449546Y1122918D01*
X449958Y1123490D01*
X450308Y1124046D01*
X450593Y1124589D01*
X450816Y1125117D01*
X450975Y1125630D01*
X451070Y1126129D01*
X451101Y1126613D01*
X453642D01*
X453673Y1126129D01*
D02*
G37*
G36*
X304898Y1109359D02*
X304974Y1108490D01*
X305101Y1107723D01*
X305279Y1107059D01*
X305508Y1106497D01*
X305787Y1106037D01*
X306117Y1105679D01*
X306498Y1105423D01*
X306930Y1105270D01*
X307412Y1105219D01*
X297253D01*
X297735Y1105270D01*
X298167Y1105423D01*
X298548Y1105679D01*
X298878Y1106037D01*
X299158Y1106497D01*
X299386Y1107059D01*
X299564Y1107723D01*
X299691Y1108490D01*
X299767Y1109359D01*
X299792Y1110330D01*
X304872D01*
X304898Y1109359D01*
D02*
G37*
G36*
X221005Y1108089D02*
X221082Y1107220D01*
X221209Y1106453D01*
X221386Y1105789D01*
X221615Y1105227D01*
X221894Y1104767D01*
X222225Y1104409D01*
X222606Y1104153D01*
X223037Y1104000D01*
X223520Y1103949D01*
X213360D01*
X213843Y1104000D01*
X214274Y1104153D01*
X214655Y1104409D01*
X214986Y1104767D01*
X215265Y1105227D01*
X215494Y1105789D01*
X215671Y1106453D01*
X215798Y1107220D01*
X215875Y1108089D01*
X215900Y1109060D01*
X220980D01*
X221005Y1108089D01*
D02*
G37*
G36*
X432866Y1099536D02*
X432762Y1099340D01*
X432741Y1099097D01*
X432801Y1098807D01*
X432942Y1098471D01*
X433166Y1098089D01*
X433471Y1097660D01*
X433858Y1097185D01*
X434878Y1096095D01*
X432081Y1095298D01*
X431603Y1095760D01*
X430724Y1096497D01*
X430325Y1096772D01*
X429953Y1096986D01*
X429607Y1097138D01*
X429288Y1097227D01*
X428995Y1097255D01*
X428729Y1097221D01*
X428489Y1097125D01*
X433051Y1099687D01*
X432866Y1099536D01*
D02*
G37*
G36*
X403011Y1097099D02*
X402795Y1097022D01*
X402604Y1096894D01*
X402439Y1096714D01*
X402299Y1096482D01*
X402185Y1096200D01*
X402096Y1095865D01*
X402033Y1095480D01*
X401995Y1095043D01*
X401982Y1094555D01*
X399442D01*
X399429Y1095043D01*
X399391Y1095480D01*
X399328Y1095865D01*
X399239Y1096200D01*
X399124Y1096482D01*
X398985Y1096714D01*
X398820Y1096894D01*
X398629Y1097022D01*
X398413Y1097099D01*
X398172Y1097125D01*
X403252D01*
X403011Y1097099D01*
D02*
G37*
G36*
X281710Y1090733D02*
X280324Y1089156D01*
X279761Y1088412D01*
X279285Y1087698D01*
X278895Y1087015D01*
X278592Y1086361D01*
X278376Y1085738D01*
X278246Y1085145D01*
X278202Y1084581D01*
X275662D01*
X275619Y1085145D01*
X275489Y1085738D01*
X275273Y1086361D01*
X274970Y1087015D01*
X274580Y1087698D01*
X274104Y1088412D01*
X273541Y1089156D01*
X272155Y1090733D01*
X271333Y1091567D01*
X282533D01*
X281710Y1090733D01*
D02*
G37*
G36*
X197817Y1089463D02*
X196432Y1087886D01*
X195869Y1087142D01*
X195392Y1086428D01*
X195003Y1085745D01*
X194700Y1085091D01*
X194483Y1084468D01*
X194353Y1083875D01*
X194310Y1083311D01*
X191770D01*
X191727Y1083875D01*
X191597Y1084468D01*
X191380Y1085091D01*
X191077Y1085745D01*
X190688Y1086428D01*
X190211Y1087142D01*
X189648Y1087886D01*
X188263Y1089463D01*
X187440Y1090297D01*
X198640D01*
X197817Y1089463D01*
D02*
G37*
G36*
X798819Y1082656D02*
X798793Y1082897D01*
X798717Y1083113D01*
X798590Y1083304D01*
X798412Y1083469D01*
X798184Y1083608D01*
X797904Y1083723D01*
X797574Y1083812D01*
X797193Y1083875D01*
X796761Y1083913D01*
X796279Y1083926D01*
Y1086466D01*
X796761Y1086479D01*
X797193Y1086517D01*
X797574Y1086580D01*
X797904Y1086669D01*
X798184Y1086784D01*
X798412Y1086923D01*
X798590Y1087088D01*
X798717Y1087279D01*
X798793Y1087495D01*
X798819Y1087736D01*
Y1082656D01*
D02*
G37*
G36*
X249022Y1085120D02*
X248734Y1084897D01*
X248480Y1084644D01*
X248260Y1084361D01*
X248073Y1084049D01*
X247921Y1083706D01*
X247802Y1083334D01*
X247718Y1082933D01*
X247667Y1082501D01*
X247650Y1082040D01*
X245110D01*
X245093Y1082501D01*
X245042Y1082933D01*
X244958Y1083334D01*
X244839Y1083706D01*
X244687Y1084049D01*
X244500Y1084361D01*
X244280Y1084644D01*
X244026Y1084897D01*
X243738Y1085120D01*
X243417Y1085314D01*
X249343D01*
X249022Y1085120D01*
D02*
G37*
G36*
X793463Y1083767D02*
X793107Y1083361D01*
X792822Y1082927D01*
X792610Y1082465D01*
X792468Y1081975D01*
X792399Y1081456D01*
X792400Y1080910D01*
X792474Y1080335D01*
X792619Y1079732D01*
X792835Y1079101D01*
X793123Y1078441D01*
X784839Y1081501D01*
X785789Y1081925D01*
X790236Y1084242D01*
X790556Y1084480D01*
X790799Y1084695D01*
X793463Y1083767D01*
D02*
G37*
G36*
X978895Y1080589D02*
X978679Y1080512D01*
X978488Y1080384D01*
X978323Y1080204D01*
X978184Y1079972D01*
X978069Y1079690D01*
X977980Y1079355D01*
X977917Y1078970D01*
X977879Y1078533D01*
X977866Y1078045D01*
X975326D01*
X975313Y1078533D01*
X975275Y1078970D01*
X975212Y1079355D01*
X975123Y1079690D01*
X975008Y1079972D01*
X974869Y1080204D01*
X974704Y1080384D01*
X974513Y1080512D01*
X974297Y1080589D01*
X974056Y1080615D01*
X979136D01*
X978895Y1080589D01*
D02*
G37*
G36*
X278215Y1076745D02*
X278253Y1076308D01*
X278317Y1075923D01*
X278406Y1075588D01*
X278520Y1075306D01*
X278660Y1075074D01*
X278825Y1074894D01*
X279015Y1074766D01*
X279231Y1074689D01*
X279473Y1074663D01*
X274393D01*
X274634Y1074689D01*
X274850Y1074766D01*
X275040Y1074894D01*
X275205Y1075074D01*
X275345Y1075306D01*
X275459Y1075588D01*
X275548Y1075923D01*
X275612Y1076308D01*
X275650Y1076745D01*
X275662Y1077234D01*
X278202D01*
X278215Y1076745D01*
D02*
G37*
G36*
X194323D02*
X194361Y1076308D01*
X194424Y1075923D01*
X194513Y1075588D01*
X194627Y1075306D01*
X194767Y1075074D01*
X194932Y1074894D01*
X195123Y1074766D01*
X195339Y1074689D01*
X195580Y1074663D01*
X190500D01*
X190741Y1074689D01*
X190957Y1074766D01*
X191148Y1074894D01*
X191313Y1075074D01*
X191453Y1075306D01*
X191567Y1075588D01*
X191656Y1075923D01*
X191719Y1076308D01*
X191757Y1076745D01*
X191770Y1077234D01*
X194310D01*
X194323Y1076745D01*
D02*
G37*
G36*
X977879Y1072935D02*
X977917Y1072498D01*
X977980Y1072113D01*
X978069Y1071778D01*
X978184Y1071496D01*
X978323Y1071264D01*
X978488Y1071084D01*
X978679Y1070956D01*
X978895Y1070879D01*
X979136Y1070853D01*
X974056D01*
X974297Y1070879D01*
X974513Y1070956D01*
X974704Y1071084D01*
X974869Y1071264D01*
X975008Y1071496D01*
X975123Y1071778D01*
X975212Y1072113D01*
X975275Y1072498D01*
X975313Y1072935D01*
X975326Y1073423D01*
X977866D01*
X977879Y1072935D01*
D02*
G37*
G36*
X284517Y1071023D02*
X284593Y1070807D01*
X284720Y1070616D01*
X284898Y1070451D01*
X285126Y1070312D01*
X285406Y1070197D01*
X285736Y1070108D01*
X286117Y1070045D01*
X286549Y1070007D01*
X287031Y1069994D01*
Y1067454D01*
X286549Y1067441D01*
X286117Y1067403D01*
X285736Y1067340D01*
X285406Y1067251D01*
X285126Y1067137D01*
X284898Y1066997D01*
X284720Y1066832D01*
X284593Y1066641D01*
X284517Y1066425D01*
X284492Y1066184D01*
Y1071264D01*
X284517Y1071023D01*
D02*
G37*
G36*
X200697D02*
X200773Y1070807D01*
X200900Y1070616D01*
X201078Y1070451D01*
X201306Y1070312D01*
X201586Y1070197D01*
X201916Y1070108D01*
X202297Y1070045D01*
X202729Y1070007D01*
X203211Y1069994D01*
Y1067454D01*
X202729Y1067441D01*
X202297Y1067403D01*
X201916Y1067340D01*
X201586Y1067251D01*
X201306Y1067137D01*
X201078Y1066997D01*
X200900Y1066832D01*
X200773Y1066641D01*
X200697Y1066425D01*
X200672Y1066184D01*
Y1071264D01*
X200697Y1071023D01*
D02*
G37*
G36*
X733997Y1061720D02*
X733467Y1061703D01*
X732945Y1061639D01*
X732431Y1061528D01*
X731924Y1061372D01*
X731425Y1061170D01*
X730934Y1060921D01*
X730451Y1060626D01*
X729975Y1060285D01*
X729507Y1059898D01*
X729047Y1059465D01*
X725455Y1063057D01*
X725888Y1063517D01*
X726275Y1063985D01*
X726616Y1064461D01*
X726911Y1064944D01*
X727160Y1065435D01*
X727362Y1065934D01*
X727518Y1066441D01*
X727629Y1066955D01*
X727693Y1067477D01*
X727710Y1068007D01*
X733997Y1061720D01*
D02*
G37*
G36*
X346742Y1048408D02*
X346837Y1047909D01*
X346996Y1047395D01*
X347218Y1046868D01*
X347504Y1046325D01*
X347853Y1045768D01*
X348266Y1045197D01*
X348742Y1044611D01*
X349885Y1043395D01*
X340995D01*
X341598Y1044010D01*
X342614Y1045197D01*
X343027Y1045768D01*
X343376Y1046325D01*
X343662Y1046868D01*
X343884Y1047395D01*
X344043Y1047909D01*
X344138Y1048408D01*
X344170Y1048892D01*
X346710D01*
X346742Y1048408D01*
D02*
G37*
G36*
X427341Y1044907D02*
X427379Y1044470D01*
X427442Y1044085D01*
X427531Y1043750D01*
X427645Y1043468D01*
X427785Y1043236D01*
X427950Y1043056D01*
X428141Y1042928D01*
X428357Y1042851D01*
X428598Y1042825D01*
X423518D01*
X423759Y1042851D01*
X423975Y1042928D01*
X424166Y1043056D01*
X424331Y1043236D01*
X424470Y1043468D01*
X424585Y1043750D01*
X424674Y1044085D01*
X424737Y1044470D01*
X424775Y1044907D01*
X424788Y1045396D01*
X427328D01*
X427341Y1044907D01*
D02*
G37*
G36*
X401941D02*
X401979Y1044470D01*
X402042Y1044085D01*
X402131Y1043750D01*
X402245Y1043468D01*
X402385Y1043236D01*
X402550Y1043056D01*
X402741Y1042928D01*
X402957Y1042851D01*
X403198Y1042825D01*
X398118D01*
X398359Y1042851D01*
X398575Y1042928D01*
X398766Y1043056D01*
X398931Y1043236D01*
X399071Y1043468D01*
X399185Y1043750D01*
X399274Y1044085D01*
X399337Y1044470D01*
X399375Y1044907D01*
X399388Y1045396D01*
X401928D01*
X401941Y1044907D01*
D02*
G37*
G36*
X812837Y1043133D02*
X812913Y1042917D01*
X813040Y1042726D01*
X813218Y1042561D01*
X813447Y1042421D01*
X813726Y1042307D01*
X814056Y1042218D01*
X814437Y1042155D01*
X814869Y1042117D01*
X815351Y1042104D01*
Y1039564D01*
X814869Y1039551D01*
X814437Y1039513D01*
X814056Y1039450D01*
X813726Y1039361D01*
X813447Y1039247D01*
X813218Y1039107D01*
X813040Y1038942D01*
X812913Y1038751D01*
X812837Y1038535D01*
X812812Y1038294D01*
Y1043374D01*
X812837Y1043133D01*
D02*
G37*
G36*
X510493Y1039185D02*
X510570Y1038969D01*
X510698Y1038778D01*
X510878Y1038613D01*
X511110Y1038474D01*
X511392Y1038359D01*
X511727Y1038270D01*
X512112Y1038207D01*
X512549Y1038169D01*
X513037Y1038156D01*
Y1035616D01*
X512549Y1035603D01*
X512112Y1035565D01*
X511727Y1035502D01*
X511392Y1035413D01*
X511110Y1035298D01*
X510878Y1035159D01*
X510698Y1034994D01*
X510570Y1034803D01*
X510493Y1034587D01*
X510467Y1034346D01*
Y1039426D01*
X510493Y1039185D01*
D02*
G37*
G36*
X772791Y1083381D02*
X772073Y1082039D01*
X771129Y1078926D01*
X770810Y1075690D01*
X771129Y1072454D01*
X772073Y1069341D01*
X773606Y1066473D01*
X775669Y1063959D01*
X777289Y1062630D01*
X777373Y1060918D01*
X774532Y1058078D01*
X772497Y1055425D01*
X771217Y1052335D01*
X770780Y1049020D01*
Y1023103D01*
X769826Y1022265D01*
X768350Y1022460D01*
X754768D01*
X754591Y1022981D01*
X754447Y1023730D01*
X755795Y1025487D01*
X756575Y1027368D01*
X756423Y1027354D01*
X755846Y1027259D01*
X755295Y1027125D01*
X754772Y1026954D01*
X754276Y1026744D01*
X753808Y1026497D01*
X753366Y1026211D01*
X752952Y1025887D01*
X752565Y1025525D01*
Y1028700D01*
X748030D01*
Y1031240D01*
X752565D01*
Y1034415D01*
X752952Y1034053D01*
X753366Y1033729D01*
X753808Y1033443D01*
X754276Y1033196D01*
X754772Y1032986D01*
X755295Y1032815D01*
X755846Y1032681D01*
X756423Y1032586D01*
X756575Y1032572D01*
X755795Y1034453D01*
X754370Y1036310D01*
X752513Y1037735D01*
X750953Y1038382D01*
X750580Y1039805D01*
X760898Y1050122D01*
X762933Y1052775D01*
X764213Y1055865D01*
X764650Y1059180D01*
Y1084470D01*
X772138D01*
X772791Y1083381D01*
D02*
G37*
G36*
X899547Y1021684D02*
X898541Y1020643D01*
X896960Y1018775D01*
X896386Y1017949D01*
X895955Y1017194D01*
X895667Y1016512D01*
X895524Y1015901D01*
Y1015362D01*
X895667Y1014895D01*
X895955Y1014500D01*
X888770Y1021684D01*
X889165Y1021397D01*
X889632Y1021254D01*
X890171D01*
X890782Y1021397D01*
X891464Y1021684D01*
X892219Y1022116D01*
X893045Y1022690D01*
X893943Y1023409D01*
X895955Y1025277D01*
X899547Y1021684D01*
D02*
G37*
G36*
X505470Y1011921D02*
X505254Y1011844D01*
X505064Y1011716D01*
X504899Y1011536D01*
X504759Y1011304D01*
X504645Y1011022D01*
X504556Y1010687D01*
X504492Y1010302D01*
X504454Y1009865D01*
X504441Y1009377D01*
X501902D01*
X501889Y1009865D01*
X501851Y1010302D01*
X501787Y1010687D01*
X501698Y1011022D01*
X501584Y1011304D01*
X501444Y1011536D01*
X501279Y1011716D01*
X501089Y1011844D01*
X500873Y1011921D01*
X500631Y1011947D01*
X505712D01*
X505470Y1011921D01*
D02*
G37*
G36*
X480070D02*
X479854Y1011844D01*
X479664Y1011716D01*
X479499Y1011536D01*
X479359Y1011304D01*
X479245Y1011022D01*
X479156Y1010687D01*
X479092Y1010302D01*
X479054Y1009865D01*
X479041Y1009377D01*
X476502D01*
X476489Y1009865D01*
X476451Y1010302D01*
X476387Y1010687D01*
X476298Y1011022D01*
X476184Y1011304D01*
X476044Y1011536D01*
X475879Y1011716D01*
X475689Y1011844D01*
X475473Y1011921D01*
X475232Y1011947D01*
X480312D01*
X480070Y1011921D01*
D02*
G37*
G36*
X429270D02*
X429054Y1011844D01*
X428864Y1011716D01*
X428699Y1011536D01*
X428559Y1011304D01*
X428445Y1011022D01*
X428356Y1010687D01*
X428292Y1010302D01*
X428254Y1009865D01*
X428242Y1009377D01*
X425701D01*
X425689Y1009865D01*
X425651Y1010302D01*
X425587Y1010687D01*
X425498Y1011022D01*
X425384Y1011304D01*
X425244Y1011536D01*
X425079Y1011716D01*
X424889Y1011844D01*
X424673Y1011921D01*
X424431Y1011947D01*
X429511D01*
X429270Y1011921D01*
D02*
G37*
G36*
X403870D02*
X403654Y1011844D01*
X403464Y1011716D01*
X403299Y1011536D01*
X403159Y1011304D01*
X403045Y1011022D01*
X402956Y1010687D01*
X402892Y1010302D01*
X402854Y1009865D01*
X402841Y1009377D01*
X400302D01*
X400289Y1009865D01*
X400251Y1010302D01*
X400187Y1010687D01*
X400098Y1011022D01*
X399984Y1011304D01*
X399844Y1011536D01*
X399679Y1011716D01*
X399489Y1011844D01*
X399273Y1011921D01*
X399031Y1011947D01*
X404112D01*
X403870Y1011921D01*
D02*
G37*
G36*
X936384Y1006360D02*
X936168Y1006283D01*
X935977Y1006155D01*
X935812Y1005975D01*
X935673Y1005743D01*
X935558Y1005461D01*
X935469Y1005126D01*
X935406Y1004741D01*
X935368Y1004304D01*
X935355Y1003816D01*
X932815D01*
X932802Y1004304D01*
X932764Y1004741D01*
X932701Y1005126D01*
X932612Y1005461D01*
X932497Y1005743D01*
X932358Y1005975D01*
X932193Y1006155D01*
X932002Y1006283D01*
X931786Y1006360D01*
X931545Y1006386D01*
X936625D01*
X936384Y1006360D01*
D02*
G37*
G36*
X402854Y1004051D02*
X402892Y1003614D01*
X402956Y1003229D01*
X403045Y1002894D01*
X403159Y1002612D01*
X403299Y1002380D01*
X403464Y1002200D01*
X403654Y1002072D01*
X403870Y1001995D01*
X404112Y1001969D01*
X399031D01*
X399273Y1001995D01*
X399489Y1002072D01*
X399679Y1002200D01*
X399844Y1002380D01*
X399984Y1002612D01*
X400098Y1002894D01*
X400187Y1003229D01*
X400251Y1003614D01*
X400289Y1004051D01*
X400302Y1004539D01*
X402841D01*
X402854Y1004051D01*
D02*
G37*
G36*
X504491Y1006668D02*
X504640Y1006024D01*
X504887Y1005342D01*
X505234Y1004621D01*
X505680Y1003862D01*
X506225Y1003064D01*
X506868Y1002228D01*
X508453Y1000440D01*
X509394Y999489D01*
X496949D01*
X497890Y1000440D01*
X499474Y1002228D01*
X500118Y1003064D01*
X500663Y1003862D01*
X501109Y1004621D01*
X501456Y1005342D01*
X501703Y1006024D01*
X501852Y1006668D01*
X501902Y1007273D01*
X504441D01*
X504491Y1006668D01*
D02*
G37*
G36*
X479091D02*
X479240Y1006024D01*
X479487Y1005342D01*
X479834Y1004621D01*
X480280Y1003862D01*
X480825Y1003064D01*
X481468Y1002228D01*
X483053Y1000440D01*
X483994Y999489D01*
X471549D01*
X472490Y1000440D01*
X474075Y1002228D01*
X474718Y1003064D01*
X475263Y1003862D01*
X475709Y1004621D01*
X476056Y1005342D01*
X476303Y1006024D01*
X476452Y1006668D01*
X476502Y1007273D01*
X479041D01*
X479091Y1006668D01*
D02*
G37*
G36*
X428291D02*
X428440Y1006024D01*
X428687Y1005342D01*
X429034Y1004621D01*
X429480Y1003862D01*
X430024Y1003064D01*
X430668Y1002228D01*
X432253Y1000440D01*
X433195Y999489D01*
X420748D01*
X421689Y1000440D01*
X423274Y1002228D01*
X423918Y1003064D01*
X424463Y1003862D01*
X424909Y1004621D01*
X425256Y1005342D01*
X425503Y1006024D01*
X425652Y1006668D01*
X425701Y1007273D01*
X428242D01*
X428291Y1006668D01*
D02*
G37*
G36*
X987854Y1000763D02*
X986800Y999674D01*
X985154Y997743D01*
X984561Y996901D01*
X984122Y996141D01*
X983836Y995464D01*
X983705Y994869D01*
X983726Y994357D01*
X983902Y993927D01*
X984231Y993579D01*
X976077Y999733D01*
X976515Y999493D01*
X977014Y999388D01*
X977576Y999416D01*
X978201Y999577D01*
X978888Y999873D01*
X979638Y1000302D01*
X980450Y1000865D01*
X981325Y1001561D01*
X982262Y1002392D01*
X983261Y1003356D01*
X987854Y1000763D01*
D02*
G37*
G36*
X970353Y995066D02*
X970959Y995069D01*
X974782Y995322D01*
X975109Y995401D01*
X975347Y995491D01*
X975497Y995591D01*
Y991997D01*
X975347Y992097D01*
X975109Y992187D01*
X974782Y992266D01*
X974366Y992334D01*
X973269Y992440D01*
X970959Y992519D01*
X970353Y992522D01*
Y991254D01*
X970327Y991495D01*
X970250Y991711D01*
X970122Y991902D01*
X969942Y992067D01*
X969710Y992206D01*
X969428Y992321D01*
X969093Y992410D01*
X968708Y992473D01*
X968271Y992511D01*
X967783Y992524D01*
Y995064D01*
X968271Y995077D01*
X968708Y995115D01*
X969093Y995178D01*
X969428Y995267D01*
X969710Y995381D01*
X969942Y995521D01*
X970122Y995686D01*
X970250Y995877D01*
X970327Y996093D01*
X970353Y996334D01*
Y995066D01*
D02*
G37*
G36*
X279767Y992871D02*
X279551Y992794D01*
X279360Y992666D01*
X279195Y992486D01*
X279056Y992254D01*
X278941Y991972D01*
X278852Y991637D01*
X278789Y991252D01*
X278751Y990815D01*
X278738Y990327D01*
X276198D01*
X276185Y990815D01*
X276147Y991252D01*
X276084Y991637D01*
X275995Y991972D01*
X275881Y992254D01*
X275741Y992486D01*
X275576Y992666D01*
X275385Y992794D01*
X275169Y992871D01*
X274928Y992897D01*
X280008D01*
X279767Y992871D01*
D02*
G37*
G36*
X197217D02*
X197001Y992794D01*
X196810Y992666D01*
X196645Y992486D01*
X196506Y992254D01*
X196391Y991972D01*
X196302Y991637D01*
X196239Y991252D01*
X196201Y990815D01*
X196188Y990327D01*
X193648D01*
X193635Y990815D01*
X193597Y991252D01*
X193534Y991637D01*
X193445Y991972D01*
X193330Y992254D01*
X193191Y992486D01*
X193026Y992666D01*
X192835Y992794D01*
X192619Y992871D01*
X192378Y992897D01*
X197458D01*
X197217Y992871D01*
D02*
G37*
G36*
X873427Y995565D02*
X868045Y989963D01*
X864233Y993775D01*
X864328Y993829D01*
X864527Y993990D01*
X865235Y994636D01*
X869835Y999157D01*
X873427Y995565D01*
D02*
G37*
G36*
X861543Y987269D02*
X861437Y987299D01*
X861182Y987325D01*
X860225Y987369D01*
X853775Y987425D01*
Y992505D01*
X861543Y992661D01*
Y987269D01*
D02*
G37*
G36*
X832546Y984885D02*
X832495Y985368D01*
X832342Y985799D01*
X832086Y986180D01*
X831728Y986511D01*
X831268Y986790D01*
X830706Y987019D01*
X830042Y987196D01*
X829275Y987323D01*
X828407Y987400D01*
X827436Y987425D01*
Y992505D01*
X828407Y992530D01*
X829275Y992607D01*
X830042Y992734D01*
X830706Y992911D01*
X831268Y993140D01*
X831728Y993419D01*
X832086Y993750D01*
X832342Y994131D01*
X832495Y994562D01*
X832546Y995045D01*
Y984885D01*
D02*
G37*
G36*
X658889Y984255D02*
X658673Y984179D01*
X658482Y984052D01*
X658317Y983874D01*
X658177Y983645D01*
X658063Y983366D01*
X657974Y983036D01*
X657911Y982655D01*
X657873Y982223D01*
X657860Y981740D01*
X655320D01*
X655307Y982223D01*
X655269Y982655D01*
X655206Y983036D01*
X655117Y983366D01*
X655003Y983645D01*
X654863Y983874D01*
X654698Y984052D01*
X654507Y984179D01*
X654291Y984255D01*
X654050Y984280D01*
X659130D01*
X658889Y984255D01*
D02*
G37*
G36*
X531889D02*
X531673Y984179D01*
X531482Y984052D01*
X531317Y983874D01*
X531177Y983645D01*
X531063Y983366D01*
X530974Y983036D01*
X530911Y982655D01*
X530873Y982223D01*
X530860Y981740D01*
X528320D01*
X528307Y982223D01*
X528269Y982655D01*
X528206Y983036D01*
X528117Y983366D01*
X528003Y983645D01*
X527863Y983874D01*
X527698Y984052D01*
X527507Y984179D01*
X527291Y984255D01*
X527050Y984280D01*
X532130D01*
X531889Y984255D01*
D02*
G37*
G36*
X403870D02*
X403654Y984179D01*
X403464Y984052D01*
X403299Y983874D01*
X403159Y983645D01*
X403045Y983366D01*
X402956Y983036D01*
X402892Y982655D01*
X402854Y982223D01*
X402841Y981740D01*
X400302D01*
X400289Y982223D01*
X400251Y982655D01*
X400187Y983036D01*
X400098Y983366D01*
X399984Y983645D01*
X399844Y983874D01*
X399679Y984052D01*
X399489Y984179D01*
X399273Y984255D01*
X399031Y984280D01*
X404112D01*
X403870Y984255D01*
D02*
G37*
G36*
X688290Y985840D02*
X686705Y984052D01*
X686062Y983215D01*
X685517Y982418D01*
X685071Y981659D01*
X684724Y980938D01*
X684477Y980256D01*
X684328Y979612D01*
X684278Y979007D01*
X681739D01*
X681689Y979612D01*
X681540Y980256D01*
X681293Y980938D01*
X680946Y981659D01*
X680500Y982418D01*
X679956Y983215D01*
X679312Y984052D01*
X677727Y985840D01*
X676786Y986791D01*
X689231D01*
X688290Y985840D01*
D02*
G37*
G36*
X560272D02*
X558687Y984052D01*
X558043Y983215D01*
X557498Y982418D01*
X557052Y981659D01*
X556706Y980938D01*
X556458Y980256D01*
X556310Y979612D01*
X556260Y979007D01*
X553720D01*
X553671Y979612D01*
X553522Y980256D01*
X553274Y980938D01*
X552928Y981659D01*
X552482Y982418D01*
X551937Y983215D01*
X551293Y984052D01*
X549708Y985840D01*
X548767Y986791D01*
X561213D01*
X560272Y985840D01*
D02*
G37*
G36*
X508453D02*
X506868Y984052D01*
X506225Y983215D01*
X505680Y982418D01*
X505234Y981659D01*
X504887Y980938D01*
X504640Y980256D01*
X504491Y979612D01*
X504441Y979007D01*
X501902D01*
X501852Y979612D01*
X501703Y980256D01*
X501456Y980938D01*
X501109Y981659D01*
X500663Y982418D01*
X500118Y983215D01*
X499474Y984052D01*
X497890Y985840D01*
X496949Y986791D01*
X509394D01*
X508453Y985840D01*
D02*
G37*
G36*
X432253D02*
X430668Y984052D01*
X430024Y983215D01*
X429480Y982418D01*
X429034Y981659D01*
X428687Y980938D01*
X428440Y980256D01*
X428291Y979612D01*
X428242Y979007D01*
X425701D01*
X425652Y979612D01*
X425503Y980256D01*
X425256Y980938D01*
X424909Y981659D01*
X424463Y982418D01*
X423918Y983215D01*
X423274Y984052D01*
X421689Y985840D01*
X420748Y986791D01*
X433195D01*
X432253Y985840D01*
D02*
G37*
G36*
X504382Y976984D02*
X504692Y976733D01*
X504998Y976524D01*
X505302Y976357D01*
X505603Y976232D01*
X505902Y976149D01*
X506198Y976107D01*
X506490Y976108D01*
X506780Y976151D01*
X507067Y976236D01*
X503314Y972483D01*
X503399Y972770D01*
X503442Y973060D01*
X503442Y973353D01*
X503401Y973648D01*
X503318Y973947D01*
X503193Y974248D01*
X503026Y974552D01*
X502817Y974858D01*
X502566Y975168D01*
X502273Y975480D01*
X504070Y977277D01*
X504382Y976984D01*
D02*
G37*
G36*
X196188Y974815D02*
X196224Y974358D01*
X196334Y973828D01*
X196515Y973222D01*
X196770Y972542D01*
X197497Y970959D01*
X198515Y969078D01*
X199825Y966899D01*
X191266Y968966D01*
X185040Y962740D01*
X185033Y963911D01*
X184897Y966006D01*
X184769Y966930D01*
X184601Y967772D01*
X184394Y968531D01*
X184146Y969207D01*
X183858Y969801D01*
X183530Y970312D01*
X183163Y970741D01*
X184959Y972537D01*
X185388Y972170D01*
X185899Y971842D01*
X186493Y971554D01*
X187169Y971306D01*
X187928Y971099D01*
X188770Y970931D01*
X189694Y970803D01*
X190721Y970737D01*
X191340Y971242D01*
X191952Y971824D01*
X192470Y972412D01*
X192894Y973006D01*
X193224Y973605D01*
X193460Y974210D01*
X193601Y974821D01*
X193648Y975437D01*
X196188Y974815D01*
D02*
G37*
G36*
X974915Y968855D02*
X974675Y968951D01*
X974409Y968985D01*
X974116Y968957D01*
X973797Y968867D01*
X973451Y968716D01*
X973079Y968502D01*
X972680Y968227D01*
X972254Y967889D01*
X971802Y967490D01*
X971322Y967028D01*
X968526Y967824D01*
X969077Y968393D01*
X969933Y969390D01*
X970238Y969819D01*
X970462Y970201D01*
X970603Y970537D01*
X970664Y970827D01*
X970642Y971070D01*
X970538Y971266D01*
X970353Y971417D01*
X974915Y968855D01*
D02*
G37*
G36*
X278738Y975254D02*
X278780Y974713D01*
X278905Y974131D01*
X279113Y973508D01*
X279404Y972843D01*
X279779Y972137D01*
X280237Y971389D01*
X281403Y969770D01*
X282111Y968898D01*
X282902Y967986D01*
X271728Y968735D01*
X272577Y969492D01*
X274007Y970946D01*
X274589Y971644D01*
X275080Y972323D01*
X275483Y972982D01*
X275796Y973623D01*
X276019Y974243D01*
X276153Y974844D01*
X276198Y975426D01*
X278738Y975254D01*
D02*
G37*
G36*
X944080Y968134D02*
X944156Y967918D01*
X944283Y967727D01*
X944461Y967562D01*
X944689Y967422D01*
X944969Y967308D01*
X945299Y967219D01*
X945680Y967156D01*
X946112Y967118D01*
X946594Y967105D01*
Y964565D01*
X946112Y964552D01*
X945680Y964514D01*
X945299Y964451D01*
X944969Y964362D01*
X944689Y964248D01*
X944461Y964108D01*
X944283Y963943D01*
X944156Y963752D01*
X944080Y963536D01*
X944054Y963295D01*
Y968375D01*
X944080Y968134D01*
D02*
G37*
G36*
X310323Y967257D02*
X310476Y966826D01*
X310732Y966445D01*
X311089Y966114D01*
X311549Y965835D01*
X312111Y965606D01*
X312776Y965429D01*
X313542Y965302D01*
X314411Y965225D01*
X315382Y965200D01*
Y960120D01*
X314411Y960095D01*
X313542Y960018D01*
X312776Y959891D01*
X312111Y959714D01*
X311549Y959485D01*
X311089Y959206D01*
X310732Y958875D01*
X310476Y958494D01*
X310323Y958063D01*
X310272Y957580D01*
Y967740D01*
X310323Y967257D01*
D02*
G37*
G36*
X930853Y959376D02*
X930497Y959321D01*
X930140Y959228D01*
X929782Y959100D01*
X929423Y958935D01*
X929063Y958735D01*
X928703Y958498D01*
X928341Y958225D01*
X927979Y957915D01*
X927616Y957569D01*
X924023D01*
X924041Y957604D01*
X924056Y957671D01*
X924070Y957770D01*
X924092Y958064D01*
X924116Y959365D01*
X931208Y959396D01*
X930853Y959376D01*
D02*
G37*
G36*
X720462Y961236D02*
X720142Y960871D01*
X719856Y960451D01*
X719605Y959975D01*
X719389Y959445D01*
X719208Y958859D01*
X719061Y958219D01*
X718949Y957523D01*
X718871Y956771D01*
X718820Y955104D01*
X712533Y961390D01*
X713395Y961398D01*
X714953Y961519D01*
X715648Y961631D01*
X716289Y961778D01*
X716875Y961959D01*
X717405Y962176D01*
X717881Y962426D01*
X718301Y962712D01*
X718665Y963031D01*
X720462Y961236D01*
D02*
G37*
G36*
X588382D02*
X588062Y960871D01*
X587776Y960451D01*
X587525Y959975D01*
X587309Y959445D01*
X587128Y958859D01*
X586981Y958219D01*
X586869Y957523D01*
X586791Y956771D01*
X586740Y955104D01*
X580453Y961390D01*
X581315Y961398D01*
X582873Y961519D01*
X583568Y961631D01*
X584209Y961778D01*
X584795Y961959D01*
X585325Y962176D01*
X585801Y962426D01*
X586221Y962712D01*
X586586Y963031D01*
X588382Y961236D01*
D02*
G37*
G36*
X780940Y978944D02*
Y948946D01*
X779956Y947747D01*
X778423Y944879D01*
X777479Y941767D01*
X777160Y938530D01*
X777479Y935294D01*
X778423Y932181D01*
X779956Y929313D01*
X782019Y926799D01*
X784533Y924736D01*
X787401Y923203D01*
X790514Y922259D01*
X793750Y921940D01*
X796986Y922259D01*
X800099Y923203D01*
X802967Y924736D01*
X805481Y926799D01*
X807544Y929313D01*
X809077Y932181D01*
X810021Y935294D01*
X810340Y938530D01*
X810021Y941767D01*
X809077Y944879D01*
X807544Y947747D01*
X806560Y948946D01*
Y978772D01*
X807699Y979333D01*
X808300Y978872D01*
X811390Y977592D01*
X814705Y977155D01*
X822325D01*
Y948055D01*
X827919D01*
Y893722D01*
X826978Y892869D01*
X826770Y892890D01*
X823533Y892571D01*
X820421Y891627D01*
X817553Y890094D01*
X815039Y888031D01*
X813831Y886559D01*
X731416D01*
X731291Y887511D01*
X730395Y889673D01*
X728970Y891530D01*
X727113Y892955D01*
X724951Y893851D01*
X723070Y894099D01*
Y900280D01*
X724238Y900526D01*
X724848D01*
Y907796D01*
X718058D01*
Y909066D01*
X716788D01*
Y915035D01*
X713839D01*
X714158Y915086D01*
X714443Y915239D01*
X714695Y915493D01*
X714913Y915848D01*
X715098Y916305D01*
X715249Y916864D01*
X715367Y917525D01*
X715376Y917606D01*
X713570D01*
Y925280D01*
X684750D01*
Y924776D01*
X659088D01*
Y892456D01*
Y873456D01*
X668365D01*
X668969Y872389D01*
X668438Y871216D01*
X666053Y870981D01*
X662941Y870037D01*
X660073Y868504D01*
X657559Y866441D01*
X655496Y863927D01*
X654105Y861325D01*
X652765Y860869D01*
X629462Y884172D01*
X630007Y885191D01*
X630951Y888304D01*
X631270Y891540D01*
X630951Y894777D01*
X630007Y897889D01*
X628474Y900757D01*
X626411Y903271D01*
X623897Y905334D01*
X621029Y906867D01*
X617916Y907811D01*
X614680Y908130D01*
X611443Y907811D01*
X608331Y906867D01*
X605463Y905334D01*
X602949Y903271D01*
X600886Y900757D01*
X599353Y897889D01*
X598409Y894777D01*
X598100Y891639D01*
X594800D01*
Y900280D01*
X595968Y900526D01*
X596578D01*
Y907796D01*
X589788D01*
Y909066D01*
X588518D01*
Y917606D01*
X585300D01*
Y921921D01*
X623570D01*
X626554Y922314D01*
X629334Y923466D01*
X631722Y925298D01*
X641690Y935266D01*
X643286Y935066D01*
X644859Y933149D01*
X647373Y931086D01*
X650241Y929553D01*
X653354Y928609D01*
X656590Y928290D01*
X659827Y928609D01*
X662939Y929553D01*
X665807Y931086D01*
X668321Y933149D01*
X670384Y935663D01*
X671917Y938531D01*
X672861Y941644D01*
X673180Y944880D01*
X673154Y945140D01*
X691160Y963147D01*
X691161Y963147D01*
X692993Y965534D01*
X694144Y968315D01*
X694537Y971299D01*
X694537Y971299D01*
Y977426D01*
X694609Y977519D01*
X695774Y978833D01*
X695791Y978851D01*
X697774Y977224D01*
X701083Y975455D01*
X704674Y974366D01*
X708409Y973998D01*
X712143Y974366D01*
X714372Y975042D01*
X715045Y973919D01*
X712766Y971640D01*
X712433Y971637D01*
X712187Y971602D01*
X709233Y971311D01*
X706121Y970367D01*
X703253Y968834D01*
X700739Y966771D01*
X698676Y964257D01*
X697143Y961389D01*
X696199Y958277D01*
X695880Y955040D01*
X696199Y951804D01*
X697143Y948691D01*
X698676Y945823D01*
X700739Y943309D01*
X703253Y941246D01*
X706121Y939713D01*
X709233Y938769D01*
X712470Y938450D01*
X715706Y938769D01*
X718819Y939713D01*
X721687Y941246D01*
X724201Y943309D01*
X726264Y945823D01*
X727797Y948691D01*
X728741Y951804D01*
X728993Y954363D01*
X729062Y954788D01*
X729080Y955346D01*
X731804Y958070D01*
X733733Y956486D01*
X736601Y954953D01*
X739714Y954009D01*
X742950Y953690D01*
X746187Y954009D01*
X749299Y954953D01*
X752167Y956486D01*
X754681Y958549D01*
X756744Y961063D01*
X758277Y963931D01*
X759221Y967044D01*
X759540Y970280D01*
X759514Y970540D01*
X763512Y974538D01*
X766534Y975455D01*
X769843Y977224D01*
X772744Y979604D01*
X775125Y982505D01*
X775407Y983034D01*
X776664Y983221D01*
X780940Y978944D01*
D02*
G37*
G36*
X468805Y953558D02*
X468782Y953598D01*
X468731Y953634D01*
X468654Y953666D01*
X468550Y953694D01*
X468419Y953717D01*
X468261Y953736D01*
X467864Y953762D01*
X467360Y953770D01*
Y956310D01*
X467626Y956312D01*
X468419Y956363D01*
X468550Y956386D01*
X468654Y956414D01*
X468731Y956445D01*
X468782Y956481D01*
X468805Y956522D01*
Y953558D01*
D02*
G37*
G36*
X848906Y958199D02*
X848258Y957970D01*
X847687Y957587D01*
X847192Y957052D01*
X846773Y956363D01*
X846430Y955522D01*
X846163Y954527D01*
X845972Y953380D01*
X845858Y952079D01*
X845820Y950626D01*
X838200D01*
X838162Y952079D01*
X838048Y953380D01*
X837857Y954527D01*
X837590Y955522D01*
X837247Y956363D01*
X836828Y957052D01*
X836333Y957587D01*
X835762Y957970D01*
X835114Y958199D01*
X834390Y958276D01*
X849630D01*
X848906Y958199D01*
D02*
G37*
G36*
X281710Y956113D02*
X280324Y954536D01*
X279761Y953792D01*
X279285Y953078D01*
X278895Y952395D01*
X278592Y951741D01*
X278376Y951118D01*
X278246Y950525D01*
X278202Y949961D01*
X275662D01*
X275619Y950525D01*
X275489Y951118D01*
X275273Y951741D01*
X274970Y952395D01*
X274580Y953078D01*
X274104Y953792D01*
X273541Y954536D01*
X272155Y956113D01*
X271333Y956947D01*
X282533D01*
X281710Y956113D01*
D02*
G37*
G36*
X306930Y954640D02*
X306498Y954487D01*
X306117Y954233D01*
X305787Y953878D01*
X305508Y953420D01*
X305279Y952862D01*
X305101Y952201D01*
X304974Y951439D01*
X304898Y950576D01*
X304872Y949611D01*
X299792D01*
X299767Y950576D01*
X299691Y951439D01*
X299564Y952201D01*
X299386Y952862D01*
X299158Y953420D01*
X298878Y953878D01*
X298548Y954233D01*
X298167Y954487D01*
X297735Y954640D01*
X297253Y954690D01*
X307412D01*
X306930Y954640D01*
D02*
G37*
G36*
X542662Y951076D02*
X542342Y950711D01*
X542056Y950291D01*
X541805Y949815D01*
X541589Y949285D01*
X541408Y948699D01*
X541261Y948058D01*
X541149Y947363D01*
X541071Y946611D01*
X541020Y944943D01*
X534734Y951230D01*
X535595Y951238D01*
X537153Y951359D01*
X537849Y951471D01*
X538489Y951618D01*
X539075Y951799D01*
X539605Y952016D01*
X540081Y952266D01*
X540501Y952552D01*
X540866Y952871D01*
X542662Y951076D01*
D02*
G37*
G36*
X796309Y947528D02*
X796366Y946923D01*
X796461Y946346D01*
X796595Y945795D01*
X796766Y945272D01*
X796976Y944776D01*
X797223Y944308D01*
X797509Y943866D01*
X797833Y943452D01*
X798195Y943065D01*
X789305D01*
X789667Y943452D01*
X789991Y943866D01*
X790276Y944308D01*
X790524Y944776D01*
X790734Y945272D01*
X790905Y945795D01*
X791039Y946346D01*
X791134Y946923D01*
X791191Y947528D01*
X791210Y948160D01*
X796290D01*
X796309Y947528D01*
D02*
G37*
G36*
X223037Y954640D02*
X222606Y954487D01*
X222225Y954233D01*
X221894Y953878D01*
X221615Y953420D01*
X221386Y952862D01*
X221209Y952201D01*
X221082Y951439D01*
X221045Y951021D01*
X221124Y950310D01*
X221303Y949368D01*
X221555Y948456D01*
X221878Y947574D01*
X222273Y946722D01*
X222740Y945899D01*
X223279Y945106D01*
X223890Y944343D01*
X224572Y943610D01*
Y936426D01*
X223890Y937093D01*
X222740Y938124D01*
X222273Y938487D01*
X221878Y938748D01*
X221555Y938907D01*
X221303Y938966D01*
X221124Y938922D01*
X221016Y938777D01*
X220980Y938530D01*
X215900Y946150D01*
X218767Y949611D01*
X215900D01*
X215875Y950576D01*
X215798Y951439D01*
X215671Y952201D01*
X215494Y952862D01*
X215265Y953420D01*
X214986Y953878D01*
X214655Y954233D01*
X214274Y954487D01*
X213843Y954640D01*
X213360Y954690D01*
X223520D01*
X223037Y954640D01*
D02*
G37*
G36*
X918185Y930009D02*
X918262Y929793D01*
X918390Y929602D01*
X918570Y929437D01*
X918802Y929297D01*
X919084Y929183D01*
X919419Y929094D01*
X919804Y929031D01*
X920241Y928993D01*
X920730Y928980D01*
Y926440D01*
X920241Y926427D01*
X919804Y926389D01*
X919419Y926326D01*
X919084Y926237D01*
X918802Y926123D01*
X918570Y925983D01*
X918390Y925818D01*
X918262Y925627D01*
X918185Y925411D01*
X918159Y925170D01*
Y930250D01*
X918185Y930009D01*
D02*
G37*
G36*
X566701Y907346D02*
X566675Y907587D01*
X566598Y907803D01*
X566469Y907994D01*
X566290Y908159D01*
X566058Y908298D01*
X565775Y908413D01*
X565441Y908502D01*
X565056Y908565D01*
X564619Y908603D01*
X564130Y908616D01*
Y911156D01*
X564619Y911169D01*
X565056Y911207D01*
X565441Y911270D01*
X565775Y911359D01*
X566058Y911473D01*
X566290Y911613D01*
X566469Y911778D01*
X566598Y911969D01*
X566675Y912185D01*
X566701Y912426D01*
Y907346D01*
D02*
G37*
G36*
X554943Y912185D02*
X555020Y911969D01*
X555148Y911778D01*
X555328Y911613D01*
X555560Y911473D01*
X555842Y911359D01*
X556177Y911270D01*
X556562Y911207D01*
X556999Y911169D01*
X557487Y911156D01*
Y908616D01*
X556999Y908603D01*
X556562Y908565D01*
X556177Y908502D01*
X555842Y908413D01*
X555560Y908298D01*
X555328Y908159D01*
X555148Y907994D01*
X555020Y907803D01*
X554943Y907587D01*
X554917Y907346D01*
Y912426D01*
X554943Y912185D01*
D02*
G37*
G36*
X694971Y906076D02*
X694945Y906317D01*
X694868Y906533D01*
X694740Y906724D01*
X694560Y906889D01*
X694328Y907029D01*
X694045Y907143D01*
X693711Y907232D01*
X693326Y907295D01*
X692889Y907333D01*
X692400Y907346D01*
Y909886D01*
X692889Y909899D01*
X693326Y909937D01*
X693711Y910000D01*
X694045Y910089D01*
X694328Y910203D01*
X694560Y910343D01*
X694740Y910508D01*
X694868Y910699D01*
X694945Y910915D01*
X694971Y911156D01*
Y906076D01*
D02*
G37*
G36*
X683213Y910915D02*
X683290Y910699D01*
X683418Y910508D01*
X683598Y910343D01*
X683830Y910203D01*
X684112Y910089D01*
X684447Y910000D01*
X684832Y909937D01*
X685269Y909899D01*
X685758Y909886D01*
Y907346D01*
X685269Y907333D01*
X684832Y907295D01*
X684447Y907232D01*
X684112Y907143D01*
X683830Y907029D01*
X683598Y906889D01*
X683418Y906724D01*
X683290Y906533D01*
X683213Y906317D01*
X683187Y906076D01*
Y911156D01*
X683213Y910915D01*
D02*
G37*
G36*
X440971Y902266D02*
X440945Y902507D01*
X440868Y902723D01*
X440740Y902914D01*
X440560Y903079D01*
X440328Y903219D01*
X440046Y903333D01*
X439711Y903422D01*
X439326Y903485D01*
X438889Y903523D01*
X438400Y903536D01*
Y906076D01*
X438889Y906089D01*
X439326Y906127D01*
X439711Y906190D01*
X440046Y906279D01*
X440328Y906394D01*
X440560Y906533D01*
X440740Y906698D01*
X440868Y906889D01*
X440945Y907105D01*
X440971Y907346D01*
Y902266D01*
D02*
G37*
G36*
X427943Y907105D02*
X428020Y906889D01*
X428148Y906698D01*
X428328Y906533D01*
X428560Y906394D01*
X428842Y906279D01*
X429177Y906190D01*
X429562Y906127D01*
X429999Y906089D01*
X430488Y906076D01*
Y903536D01*
X429999Y903523D01*
X429562Y903485D01*
X429177Y903422D01*
X428842Y903333D01*
X428560Y903219D01*
X428328Y903079D01*
X428148Y902914D01*
X428020Y902723D01*
X427943Y902507D01*
X427917Y902266D01*
Y907346D01*
X427943Y907105D01*
D02*
G37*
G36*
X530818Y892909D02*
X471368D01*
X470025Y892732D01*
X469070Y893569D01*
Y896470D01*
X470238Y896716D01*
X470848D01*
Y903986D01*
X464058D01*
Y905256D01*
X462788D01*
Y911226D01*
X459838D01*
X460158Y911270D01*
X460443Y911403D01*
X460695Y911626D01*
X460913Y911937D01*
X461098Y912337D01*
X461249Y912825D01*
X461367Y913403D01*
X461416Y913796D01*
X459570D01*
Y921470D01*
X460653Y921921D01*
X530818D01*
Y892909D01*
D02*
G37*
G36*
X683002Y886088D02*
X682898Y885892D01*
X682877Y885649D01*
X682937Y885359D01*
X683078Y885023D01*
X683302Y884641D01*
X683607Y884212D01*
X683994Y883736D01*
X685014Y882646D01*
X682217Y881850D01*
X681739Y882312D01*
X680860Y883049D01*
X680461Y883324D01*
X680089Y883538D01*
X679743Y883689D01*
X679424Y883779D01*
X679131Y883807D01*
X678865Y883773D01*
X678625Y883677D01*
X683187Y886239D01*
X683002Y886088D01*
D02*
G37*
G36*
X706283Y878181D02*
X706166Y878400D01*
X705995Y878529D01*
X705771Y878569D01*
X705492Y878521D01*
X705160Y878382D01*
X704774Y878155D01*
X704334Y877839D01*
X703840Y877433D01*
X702691Y876354D01*
X702644Y879900D01*
X703072Y880346D01*
X703765Y881179D01*
X704029Y881567D01*
X704239Y881936D01*
X704394Y882286D01*
X704495Y882616D01*
X704542Y882927D01*
X704533Y883220D01*
X704471Y883493D01*
X706283Y878181D01*
D02*
G37*
G36*
X877640Y882682D02*
X878827Y881666D01*
X879398Y881253D01*
X879955Y880904D01*
X880498Y880618D01*
X881025Y880396D01*
X881539Y880237D01*
X882038Y880142D01*
X882522Y880110D01*
Y877570D01*
X882038Y877538D01*
X881539Y877443D01*
X881025Y877284D01*
X880498Y877062D01*
X879955Y876776D01*
X879398Y876427D01*
X878827Y876014D01*
X878241Y875538D01*
X877025Y874395D01*
Y883285D01*
X877640Y882682D01*
D02*
G37*
G36*
X334600Y878960D02*
X334563Y878692D01*
X334588Y878398D01*
X334675Y878078D01*
X334823Y877732D01*
X335034Y877359D01*
X335306Y876961D01*
X335641Y876537D01*
X336037Y876087D01*
X336496Y875610D01*
X335690Y872824D01*
X335124Y873372D01*
X334131Y874221D01*
X333703Y874524D01*
X333321Y874744D01*
X332984Y874883D01*
X332694Y874940D01*
X332449Y874915D01*
X332250Y874809D01*
X332097Y874621D01*
X334700Y879202D01*
X334600Y878960D01*
D02*
G37*
G36*
X823216Y871038D02*
X822430Y871555D01*
X820309Y872780D01*
X819682Y873080D01*
X818546Y873515D01*
X818038Y873651D01*
X817569Y873733D01*
X817140Y873760D01*
X816610Y876300D01*
X817126Y876335D01*
X817634Y876438D01*
X818136Y876610D01*
X818630Y876852D01*
X819116Y877162D01*
X819595Y877541D01*
X820067Y877990D01*
X820531Y878507D01*
X820988Y879093D01*
X821438Y879748D01*
X823216Y871038D01*
D02*
G37*
G36*
X204485Y878116D02*
X204715Y877468D01*
X205098Y876897D01*
X205633Y876402D01*
X206322Y875983D01*
X207163Y875640D01*
X208158Y875373D01*
X209305Y875182D01*
X210606Y875068D01*
X212059Y875030D01*
Y867410D01*
X210606Y867372D01*
X209305Y867258D01*
X208158Y867067D01*
X207163Y866800D01*
X206322Y866458D01*
X205633Y866038D01*
X205098Y865543D01*
X204715Y864972D01*
X204485Y864324D01*
X204409Y863600D01*
Y878840D01*
X204485Y878116D01*
D02*
G37*
G36*
X306029Y865125D02*
X305813Y865048D01*
X305622Y864920D01*
X305457Y864740D01*
X305317Y864508D01*
X305203Y864225D01*
X305114Y863891D01*
X305051Y863506D01*
X305013Y863069D01*
X305000Y862580D01*
X302460D01*
X302447Y863069D01*
X302409Y863506D01*
X302346Y863891D01*
X302257Y864225D01*
X302142Y864508D01*
X302003Y864740D01*
X301838Y864920D01*
X301647Y865048D01*
X301431Y865125D01*
X301190Y865151D01*
X306270D01*
X306029Y865125D01*
D02*
G37*
G36*
X552482Y864800D02*
X551466Y863613D01*
X551053Y863042D01*
X550704Y862485D01*
X550418Y861943D01*
X550196Y861415D01*
X550037Y860901D01*
X549942Y860403D01*
X549910Y859918D01*
X547370D01*
X547338Y860403D01*
X547243Y860901D01*
X547084Y861415D01*
X546862Y861943D01*
X546576Y862485D01*
X546227Y863042D01*
X545814Y863613D01*
X545338Y864199D01*
X544195Y865415D01*
X553085D01*
X552482Y864800D01*
D02*
G37*
G36*
X910603Y854831D02*
X910641Y854394D01*
X910704Y854009D01*
X910793Y853674D01*
X910908Y853392D01*
X911047Y853160D01*
X911212Y852980D01*
X911403Y852852D01*
X911619Y852775D01*
X911860Y852749D01*
X906780D01*
X907021Y852775D01*
X907237Y852852D01*
X907428Y852980D01*
X907593Y853160D01*
X907732Y853392D01*
X907847Y853674D01*
X907936Y854009D01*
X907999Y854394D01*
X908037Y854831D01*
X908050Y855320D01*
X910590D01*
X910603Y854831D01*
D02*
G37*
G36*
X719270Y857917D02*
X722067Y854595D01*
X723128Y853476D01*
X723682Y852914D01*
X722581Y850423D01*
X722161Y850799D01*
X721738Y851087D01*
X721313Y851289D01*
X720886Y851404D01*
X720456Y851432D01*
X720024Y851372D01*
X719591Y851226D01*
X719154Y850993D01*
X718716Y850672D01*
X718275Y850265D01*
X718860Y858466D01*
X719270Y857917D01*
D02*
G37*
G36*
X598202Y853370D02*
X597186Y852183D01*
X596773Y851612D01*
X596424Y851055D01*
X596138Y850512D01*
X595916Y849985D01*
X595757Y849471D01*
X595662Y848972D01*
X595630Y848488D01*
X593090D01*
X593058Y848972D01*
X592963Y849471D01*
X592804Y849985D01*
X592582Y850512D01*
X592296Y851055D01*
X591947Y851612D01*
X591534Y852183D01*
X591058Y852769D01*
X589915Y853985D01*
X598805D01*
X598202Y853370D01*
D02*
G37*
G36*
X621062Y843210D02*
X620046Y842023D01*
X619633Y841452D01*
X619284Y840895D01*
X618998Y840352D01*
X618776Y839825D01*
X618617Y839311D01*
X618522Y838812D01*
X618490Y838328D01*
X615950D01*
X615918Y838812D01*
X615823Y839311D01*
X615664Y839825D01*
X615442Y840352D01*
X615156Y840895D01*
X614807Y841452D01*
X614394Y842023D01*
X613918Y842609D01*
X612775Y843825D01*
X621665D01*
X621062Y843210D01*
D02*
G37*
G36*
X886219Y837615D02*
X886003Y837539D01*
X885812Y837412D01*
X885647Y837234D01*
X885508Y837005D01*
X885393Y836726D01*
X885304Y836396D01*
X885241Y836015D01*
X885203Y835583D01*
X885190Y835100D01*
X882650D01*
X882637Y835583D01*
X882599Y836015D01*
X882536Y836396D01*
X882447Y836726D01*
X882333Y837005D01*
X882193Y837234D01*
X882028Y837412D01*
X881837Y837539D01*
X881621Y837615D01*
X881380Y837641D01*
X886460D01*
X886219Y837615D01*
D02*
G37*
G36*
X761798Y833186D02*
X761947Y832542D01*
X762194Y831860D01*
X762541Y831139D01*
X762987Y830380D01*
X763532Y829583D01*
X764175Y828746D01*
X765760Y826958D01*
X766702Y826007D01*
X754256D01*
X755197Y826958D01*
X756782Y828746D01*
X757426Y829583D01*
X757970Y830380D01*
X758416Y831139D01*
X758763Y831860D01*
X759010Y832542D01*
X759159Y833186D01*
X759209Y833791D01*
X761749D01*
X761798Y833186D01*
D02*
G37*
G36*
X736398D02*
X736547Y832542D01*
X736794Y831860D01*
X737141Y831139D01*
X737587Y830380D01*
X738132Y829583D01*
X738775Y828746D01*
X740360Y826958D01*
X741301Y826007D01*
X728856D01*
X729797Y826958D01*
X731382Y828746D01*
X732026Y829583D01*
X732570Y830380D01*
X733016Y831139D01*
X733363Y831860D01*
X733610Y832542D01*
X733759Y833186D01*
X733809Y833791D01*
X736348D01*
X736398Y833186D01*
D02*
G37*
G36*
X660198D02*
X660347Y832542D01*
X660594Y831860D01*
X660941Y831139D01*
X661387Y830380D01*
X661932Y829583D01*
X662576Y828746D01*
X664161Y826958D01*
X665101Y826007D01*
X652655D01*
X653597Y826958D01*
X655182Y828746D01*
X655826Y829583D01*
X656370Y830380D01*
X656816Y831139D01*
X657163Y831860D01*
X657410Y832542D01*
X657559Y833186D01*
X657608Y833791D01*
X660148D01*
X660198Y833186D01*
D02*
G37*
G36*
X557579D02*
X557728Y832542D01*
X557976Y831860D01*
X558322Y831139D01*
X558768Y830380D01*
X559313Y829583D01*
X559957Y828746D01*
X561542Y826958D01*
X562483Y826007D01*
X550037D01*
X550978Y826958D01*
X552563Y828746D01*
X553207Y829583D01*
X553752Y830380D01*
X554198Y831139D01*
X554544Y831860D01*
X554792Y832542D01*
X554940Y833186D01*
X554990Y833791D01*
X557530D01*
X557579Y833186D01*
D02*
G37*
G36*
X532179D02*
X532328Y832542D01*
X532576Y831860D01*
X532923Y831139D01*
X533368Y830380D01*
X533913Y829583D01*
X534557Y828746D01*
X536142Y826958D01*
X537083Y826007D01*
X524637D01*
X525578Y826958D01*
X527163Y828746D01*
X527807Y829583D01*
X528352Y830380D01*
X528797Y831139D01*
X529144Y831860D01*
X529392Y832542D01*
X529540Y833186D01*
X529590Y833791D01*
X532130D01*
X532179Y833186D01*
D02*
G37*
G36*
X505761D02*
X505910Y832542D01*
X506157Y831860D01*
X506504Y831139D01*
X506950Y830380D01*
X507495Y829583D01*
X508138Y828746D01*
X509723Y826958D01*
X510664Y826007D01*
X498218D01*
X499160Y826958D01*
X500745Y828746D01*
X501388Y829583D01*
X501933Y830380D01*
X502379Y831139D01*
X502726Y831860D01*
X502973Y832542D01*
X503122Y833186D01*
X503172Y833791D01*
X505712D01*
X505761Y833186D01*
D02*
G37*
G36*
X480361D02*
X480510Y832542D01*
X480757Y831860D01*
X481104Y831139D01*
X481550Y830380D01*
X482094Y829583D01*
X482738Y828746D01*
X484323Y826958D01*
X485265Y826007D01*
X472818D01*
X473759Y826958D01*
X475345Y828746D01*
X475988Y829583D01*
X476533Y830380D01*
X476979Y831139D01*
X477326Y831860D01*
X477573Y832542D01*
X477722Y833186D01*
X477771Y833791D01*
X480312D01*
X480361Y833186D01*
D02*
G37*
G36*
X450399Y832851D02*
X451446Y831995D01*
X453829Y830256D01*
X458523Y827088D01*
X446918Y825475D01*
X447530Y826239D01*
X448021Y826979D01*
X448391Y827695D01*
X448641Y828386D01*
X448770Y829054D01*
X448779Y829697D01*
X448666Y830316D01*
X448434Y830910D01*
X448081Y831481D01*
X447607Y832027D01*
X450038Y833188D01*
X450399Y832851D01*
D02*
G37*
G36*
X331175Y824484D02*
X331149Y824725D01*
X331072Y824941D01*
X330944Y825132D01*
X330764Y825297D01*
X330532Y825436D01*
X330250Y825551D01*
X329915Y825640D01*
X329530Y825703D01*
X329093Y825741D01*
X328605Y825754D01*
Y828294D01*
X329093Y828307D01*
X329530Y828345D01*
X329915Y828408D01*
X330250Y828497D01*
X330532Y828612D01*
X330764Y828751D01*
X330944Y828916D01*
X331072Y829107D01*
X331149Y829323D01*
X331175Y829564D01*
Y824484D01*
D02*
G37*
G36*
X254463Y819809D02*
X254247Y819733D01*
X254056Y819606D01*
X253891Y819428D01*
X253752Y819200D01*
X253637Y818920D01*
X253548Y818590D01*
X253485Y818209D01*
X253447Y817777D01*
X253434Y817294D01*
X250894D01*
X250881Y817777D01*
X250843Y818209D01*
X250780Y818590D01*
X250691Y818920D01*
X250576Y819200D01*
X250437Y819428D01*
X250272Y819606D01*
X250081Y819733D01*
X249865Y819809D01*
X249624Y819835D01*
X254704D01*
X254463Y819809D01*
D02*
G37*
G36*
X273589Y823769D02*
X273347Y823314D01*
X273133Y822745D01*
X272947Y822063D01*
X272790Y821268D01*
X272662Y820359D01*
X272621Y819835D01*
X273704D01*
X273463Y819809D01*
X273247Y819733D01*
X273056Y819606D01*
X272891Y819428D01*
X272752Y819200D01*
X272637Y818920D01*
X272548Y818590D01*
X272498Y818286D01*
X272491Y818202D01*
X272434Y815592D01*
X269894D01*
X269880Y816954D01*
X269738Y818746D01*
X269691Y818920D01*
X269576Y819200D01*
X269437Y819428D01*
X269272Y819606D01*
X269081Y819733D01*
X268865Y819809D01*
X268624Y819835D01*
X269651D01*
X269538Y821268D01*
X269381Y822063D01*
X269195Y822745D01*
X268981Y823314D01*
X268739Y823769D01*
X268468Y824112D01*
X273860D01*
X273589Y823769D01*
D02*
G37*
G36*
X509723Y812358D02*
X508138Y810570D01*
X507495Y809734D01*
X506950Y808936D01*
X506504Y808177D01*
X506157Y807456D01*
X505910Y806774D01*
X505761Y806130D01*
X505712Y805525D01*
X503172D01*
X503122Y806130D01*
X502973Y806774D01*
X502726Y807456D01*
X502379Y808177D01*
X501933Y808936D01*
X501388Y809734D01*
X500745Y810570D01*
X499160Y812358D01*
X498218Y813309D01*
X510664D01*
X509723Y812358D01*
D02*
G37*
G36*
X484323D02*
X482738Y810570D01*
X482094Y809734D01*
X481550Y808936D01*
X481104Y808177D01*
X480757Y807456D01*
X480510Y806774D01*
X480361Y806130D01*
X480312Y805525D01*
X477771D01*
X477722Y806130D01*
X477573Y806774D01*
X477326Y807456D01*
X476979Y808177D01*
X476533Y808936D01*
X475988Y809734D01*
X475345Y810570D01*
X473759Y812358D01*
X472818Y813309D01*
X485265D01*
X484323Y812358D01*
D02*
G37*
G36*
X433523D02*
X431938Y810570D01*
X431295Y809734D01*
X430750Y808936D01*
X430304Y808177D01*
X429957Y807456D01*
X429710Y806774D01*
X429561Y806130D01*
X429511Y805525D01*
X426972D01*
X426922Y806130D01*
X426773Y806774D01*
X426526Y807456D01*
X426179Y808177D01*
X425733Y808936D01*
X425188Y809734D01*
X424544Y810570D01*
X422960Y812358D01*
X422019Y813309D01*
X434464D01*
X433523Y812358D01*
D02*
G37*
G36*
X408123D02*
X406538Y810570D01*
X405895Y809734D01*
X405350Y808936D01*
X404904Y808177D01*
X404557Y807456D01*
X404310Y806774D01*
X404161Y806130D01*
X404112Y805525D01*
X401572D01*
X401522Y806130D01*
X401373Y806774D01*
X401126Y807456D01*
X400779Y808177D01*
X400333Y808936D01*
X399788Y809734D01*
X399145Y810570D01*
X397560Y812358D01*
X396618Y813309D01*
X409064D01*
X408123Y812358D01*
D02*
G37*
G36*
X253447Y807505D02*
X253485Y807068D01*
X253548Y806683D01*
X253637Y806348D01*
X253752Y806066D01*
X253891Y805834D01*
X254056Y805654D01*
X254247Y805526D01*
X254463Y805449D01*
X254704Y805423D01*
X249624D01*
X249865Y805449D01*
X250081Y805526D01*
X250272Y805654D01*
X250437Y805834D01*
X250576Y806066D01*
X250691Y806348D01*
X250780Y806683D01*
X250843Y807068D01*
X250881Y807505D01*
X250894Y807993D01*
X253434D01*
X253447Y807505D01*
D02*
G37*
G36*
X309285Y804965D02*
X309323Y804528D01*
X309386Y804143D01*
X309475Y803808D01*
X309590Y803526D01*
X309729Y803294D01*
X309894Y803114D01*
X310085Y802986D01*
X310301Y802909D01*
X310542Y802883D01*
X305462D01*
X305703Y802909D01*
X305919Y802986D01*
X306110Y803114D01*
X306275Y803294D01*
X306415Y803526D01*
X306529Y803808D01*
X306618Y804143D01*
X306681Y804528D01*
X306719Y804965D01*
X306732Y805453D01*
X309272D01*
X309285Y804965D01*
D02*
G37*
G36*
X278805Y803695D02*
X278843Y803258D01*
X278906Y802873D01*
X278995Y802538D01*
X279109Y802256D01*
X279249Y802024D01*
X279414Y801844D01*
X279605Y801716D01*
X279821Y801639D01*
X280062Y801613D01*
X274982D01*
X275223Y801639D01*
X275439Y801716D01*
X275630Y801844D01*
X275795Y802024D01*
X275935Y802256D01*
X276049Y802538D01*
X276138Y802873D01*
X276201Y803258D01*
X276239Y803695D01*
X276252Y804184D01*
X278792D01*
X278805Y803695D01*
D02*
G37*
G36*
X817046Y862830D02*
X817584Y862477D01*
X817844Y862350D01*
X820421Y860973D01*
X823533Y860029D01*
X826770Y859710D01*
X826978Y859731D01*
X827919Y858878D01*
Y829310D01*
X828400Y825663D01*
X829807Y822265D01*
X832047Y819346D01*
X853636Y797757D01*
X853636Y797757D01*
X856555Y795517D01*
X859953Y794110D01*
X863600Y793629D01*
X863600Y793630D01*
X909711D01*
X910416Y792573D01*
X909394Y790104D01*
X908320Y785634D01*
X907960Y781050D01*
X908320Y776466D01*
X909394Y771996D01*
X910284Y769846D01*
X909579Y768790D01*
X887880D01*
X887634Y769958D01*
Y770568D01*
X881846D01*
X881863Y770471D01*
X882040Y769807D01*
X882269Y769245D01*
X882548Y768785D01*
X882879Y768427D01*
X883260Y768171D01*
X883691Y768018D01*
X884174Y767967D01*
X880364D01*
Y763778D01*
X877824D01*
Y767967D01*
X874014D01*
X874497Y768018D01*
X874928Y768171D01*
X875309Y768427D01*
X875640Y768785D01*
X875919Y769245D01*
X876148Y769807D01*
X876325Y770471D01*
X876341Y770568D01*
X870554D01*
X869938Y771583D01*
Y779996D01*
X835618D01*
Y775365D01*
X826066D01*
X823082Y774972D01*
X820302Y773820D01*
X817914Y771988D01*
X817914Y771988D01*
X799568Y753642D01*
X797736Y751254D01*
X796584Y748474D01*
X796191Y745490D01*
Y728130D01*
X794959Y727821D01*
X794844Y728037D01*
X792781Y730551D01*
X790267Y732614D01*
X787399Y734147D01*
X784286Y735091D01*
X781050Y735410D01*
X781008Y735406D01*
X780874Y735657D01*
X778811Y738171D01*
X776297Y740234D01*
X773429Y741767D01*
X770316Y742711D01*
X767080Y743030D01*
X763844Y742711D01*
X760731Y741767D01*
X757863Y740234D01*
X755349Y738171D01*
X753286Y735657D01*
X751753Y732789D01*
X750809Y729677D01*
X750598Y727532D01*
X745795Y722729D01*
X729945D01*
X719352Y733322D01*
X716964Y735154D01*
X714184Y736306D01*
X711200Y736699D01*
X704955D01*
X704429Y737102D01*
X704234Y737183D01*
Y738557D01*
X704429Y738638D01*
X704976Y739058D01*
X707834Y739434D01*
X710472Y740527D01*
X712470Y740330D01*
X715706Y740649D01*
X718819Y741593D01*
X721687Y743126D01*
X724201Y745189D01*
X726264Y747703D01*
X727797Y750571D01*
X728260Y752097D01*
X729793Y752777D01*
X732094Y752079D01*
X735330Y751760D01*
X738567Y752079D01*
X741679Y753023D01*
X744547Y754556D01*
X747061Y756619D01*
X749124Y759133D01*
X750657Y762001D01*
X751601Y765114D01*
X751920Y768350D01*
X751601Y771587D01*
X750657Y774699D01*
X749124Y777567D01*
X747061Y780081D01*
X744547Y782144D01*
X741679Y783677D01*
X738567Y784621D01*
X735330Y784940D01*
X735182Y785088D01*
X735410Y787400D01*
X735091Y790637D01*
X734147Y793749D01*
X732614Y796617D01*
X730551Y799131D01*
X729263Y800188D01*
X729873Y801330D01*
X731344Y800884D01*
X735079Y800516D01*
X738813Y800884D01*
X742404Y801973D01*
X745713Y803742D01*
X747778Y805437D01*
X749844Y803742D01*
X753153Y801973D01*
X756744Y800884D01*
X760479Y800516D01*
X764213Y800884D01*
X767804Y801973D01*
X771113Y803742D01*
X774014Y806122D01*
X776395Y809023D01*
X778164Y812333D01*
X779253Y815923D01*
X779621Y819658D01*
X779253Y823392D01*
X778164Y826983D01*
X776395Y830293D01*
X774014Y833194D01*
X773975Y833226D01*
X773244Y833965D01*
X772079Y835279D01*
X772007Y835372D01*
Y846071D01*
X772007Y846071D01*
X771614Y849055D01*
X770463Y851836D01*
X768631Y854223D01*
X768098Y854756D01*
X768553Y856097D01*
X769401Y856209D01*
X771563Y857105D01*
X773420Y858530D01*
X774845Y860387D01*
X775741Y862549D01*
X775866Y863501D01*
X815884D01*
X817046Y862830D01*
D02*
G37*
G36*
X648244Y803742D02*
X651553Y801973D01*
X653430Y801404D01*
X653685Y799999D01*
X651618Y798412D01*
X649428Y795559D01*
X648052Y792236D01*
X647582Y788670D01*
X648013Y785397D01*
X647532Y785028D01*
X639912Y777408D01*
X639683Y777109D01*
X637540Y777320D01*
X634973Y777067D01*
X634648Y779536D01*
X633272Y782859D01*
X631082Y785712D01*
X628229Y787902D01*
X627413Y788240D01*
X627498Y788670D01*
X627030Y791027D01*
X625695Y793025D01*
X623697Y794360D01*
X621340Y794828D01*
X588540D01*
X588097Y796289D01*
X586564Y799157D01*
X586068Y799761D01*
X586512Y801223D01*
X588985Y801973D01*
X592295Y803742D01*
X594360Y805437D01*
X596425Y803742D01*
X599735Y801973D01*
X603326Y800884D01*
X607060Y800516D01*
X610794Y800884D01*
X614385Y801973D01*
X617695Y803742D01*
X619760Y805437D01*
X621825Y803742D01*
X625135Y801973D01*
X628726Y800884D01*
X632460Y800516D01*
X636194Y800884D01*
X639785Y801973D01*
X643095Y803742D01*
X645669Y805855D01*
X648244Y803742D01*
D02*
G37*
G36*
X505724Y802425D02*
X505762Y801988D01*
X505826Y801603D01*
X505915Y801268D01*
X506029Y800986D01*
X506169Y800754D01*
X506334Y800574D01*
X506524Y800446D01*
X506740Y800369D01*
X506982Y800343D01*
X501902D01*
X502143Y800369D01*
X502359Y800446D01*
X502549Y800574D01*
X502714Y800754D01*
X502854Y800986D01*
X502968Y801268D01*
X503057Y801603D01*
X503121Y801988D01*
X503159Y802425D01*
X503172Y802914D01*
X505712D01*
X505724Y802425D01*
D02*
G37*
G36*
X480324D02*
X480362Y801988D01*
X480426Y801603D01*
X480515Y801268D01*
X480629Y800986D01*
X480769Y800754D01*
X480934Y800574D01*
X481124Y800446D01*
X481340Y800369D01*
X481581Y800343D01*
X476502D01*
X476743Y800369D01*
X476959Y800446D01*
X477149Y800574D01*
X477314Y800754D01*
X477454Y800986D01*
X477568Y801268D01*
X477657Y801603D01*
X477721Y801988D01*
X477759Y802425D01*
X477771Y802914D01*
X480312D01*
X480324Y802425D01*
D02*
G37*
G36*
X429524D02*
X429562Y801988D01*
X429626Y801603D01*
X429715Y801268D01*
X429829Y800986D01*
X429969Y800754D01*
X430134Y800574D01*
X430324Y800446D01*
X430540Y800369D01*
X430782Y800343D01*
X425701D01*
X425943Y800369D01*
X426159Y800446D01*
X426349Y800574D01*
X426514Y800754D01*
X426654Y800986D01*
X426768Y801268D01*
X426857Y801603D01*
X426921Y801988D01*
X426959Y802425D01*
X426972Y802914D01*
X429511D01*
X429524Y802425D01*
D02*
G37*
G36*
X931061Y804121D02*
X933494Y802116D01*
X934634Y801351D01*
X935723Y800744D01*
X936762Y800295D01*
X937749Y800004D01*
X938686Y799871D01*
X939571Y799897D01*
X940406Y800080D01*
X924151Y794810D01*
X924860Y795125D01*
X925359Y795543D01*
X925647Y796063D01*
X925726Y796685D01*
X925594Y797410D01*
X925252Y798237D01*
X924700Y799167D01*
X923937Y800199D01*
X922964Y801334D01*
X921781Y802570D01*
X929768Y805361D01*
X931061Y804121D01*
D02*
G37*
G36*
X202930Y801905D02*
X203195Y801260D01*
X203636Y800690D01*
X204255Y800197D01*
X205050Y799779D01*
X206021Y799437D01*
X207169Y799172D01*
X208494Y798982D01*
X209996Y798868D01*
X211674Y798830D01*
Y791210D01*
X209996Y791172D01*
X208494Y791058D01*
X207169Y790868D01*
X206021Y790603D01*
X205050Y790261D01*
X204255Y789843D01*
X203636Y789350D01*
X203195Y788780D01*
X202930Y788135D01*
X202841Y787413D01*
Y802626D01*
X202930Y801905D01*
D02*
G37*
G36*
X510577Y777703D02*
X510653Y777487D01*
X510780Y777296D01*
X510958Y777131D01*
X511186Y776992D01*
X511466Y776877D01*
X511796Y776788D01*
X512177Y776725D01*
X512609Y776687D01*
X513092Y776674D01*
Y774134D01*
X512609Y774121D01*
X512177Y774083D01*
X511796Y774020D01*
X511466Y773931D01*
X511186Y773817D01*
X510958Y773677D01*
X510780Y773512D01*
X510653Y773321D01*
X510577Y773105D01*
X510551Y772864D01*
Y777944D01*
X510577Y777703D01*
D02*
G37*
G36*
X471243Y772864D02*
X471217Y773105D01*
X471140Y773321D01*
X471012Y773512D01*
X470832Y773677D01*
X470600Y773817D01*
X470318Y773931D01*
X469983Y774020D01*
X469598Y774083D01*
X469161Y774121D01*
X468672Y774134D01*
Y776674D01*
X469161Y776687D01*
X469598Y776725D01*
X469983Y776788D01*
X470318Y776877D01*
X470600Y776992D01*
X470832Y777131D01*
X471012Y777296D01*
X471140Y777487D01*
X471217Y777703D01*
X471243Y777944D01*
Y772864D01*
D02*
G37*
G36*
X253277Y777449D02*
X253034Y776994D01*
X252821Y776425D01*
X252635Y775743D01*
X252478Y774948D01*
X252421Y774545D01*
X253392D01*
X253151Y774519D01*
X252935Y774442D01*
X252744Y774314D01*
X252579Y774134D01*
X252439Y773902D01*
X252325Y773620D01*
X252313Y773575D01*
X252179Y771882D01*
X252122Y769272D01*
X249582D01*
X249568Y770634D01*
X249319Y773767D01*
X249265Y773902D01*
X249125Y774134D01*
X248960Y774314D01*
X248769Y774442D01*
X248553Y774519D01*
X248312Y774545D01*
X249258D01*
X249226Y774948D01*
X249069Y775743D01*
X248883Y776425D01*
X248669Y776994D01*
X248427Y777449D01*
X248156Y777792D01*
X253548D01*
X253277Y777449D01*
D02*
G37*
G36*
X180886Y775914D02*
X180238Y775684D01*
X179667Y775302D01*
X179172Y774766D01*
X178752Y774078D01*
X178410Y773236D01*
X178143Y772241D01*
X177952Y771094D01*
X177838Y769793D01*
X177800Y768340D01*
X170180D01*
X170142Y769793D01*
X170028Y771094D01*
X169837Y772241D01*
X169570Y773236D01*
X169228Y774078D01*
X168808Y774766D01*
X168313Y775302D01*
X167742Y775684D01*
X167094Y775914D01*
X166370Y775990D01*
X181610D01*
X180886Y775914D01*
D02*
G37*
G36*
X430308Y769447D02*
X430227Y769394D01*
X430155Y769305D01*
X430094Y769181D01*
X430041Y769021D01*
X429998Y768825D01*
X429965Y768594D01*
X429941Y768328D01*
X429922Y767688D01*
X427382D01*
X427377Y768026D01*
X427339Y768594D01*
X427306Y768825D01*
X427263Y769021D01*
X427210Y769181D01*
X427149Y769305D01*
X427077Y769394D01*
X426996Y769447D01*
X426906Y769465D01*
X430398D01*
X430308Y769447D01*
D02*
G37*
G36*
X729998Y764902D02*
X729548Y765557D01*
X729091Y766143D01*
X728627Y766660D01*
X728155Y767109D01*
X727676Y767488D01*
X727189Y767798D01*
X726696Y768040D01*
X726194Y768212D01*
X725686Y768316D01*
X725170Y768350D01*
X725700Y770890D01*
X726129Y770917D01*
X726598Y770999D01*
X727106Y771135D01*
X727654Y771326D01*
X728242Y771571D01*
X729536Y772224D01*
X730243Y772632D01*
X731776Y773612D01*
X729998Y764902D01*
D02*
G37*
G36*
X845808Y761296D02*
X845783Y761537D01*
X845707Y761753D01*
X845580Y761944D01*
X845402Y762109D01*
X845173Y762249D01*
X844894Y762363D01*
X844564Y762452D01*
X844183Y762515D01*
X843751Y762553D01*
X843269Y762566D01*
Y765106D01*
X843751Y765119D01*
X844183Y765157D01*
X844564Y765220D01*
X844894Y765309D01*
X845173Y765424D01*
X845402Y765563D01*
X845580Y765728D01*
X845707Y765919D01*
X845783Y766135D01*
X845808Y766376D01*
Y761296D01*
D02*
G37*
G36*
X252135Y756705D02*
X252173Y756268D01*
X252236Y755883D01*
X252325Y755548D01*
X252439Y755266D01*
X252579Y755034D01*
X252744Y754854D01*
X252935Y754726D01*
X253151Y754649D01*
X253392Y754623D01*
X248312D01*
X248553Y754649D01*
X248769Y754726D01*
X248960Y754854D01*
X249125Y755034D01*
X249265Y755266D01*
X249379Y755548D01*
X249468Y755883D01*
X249531Y756268D01*
X249569Y756705D01*
X249582Y757194D01*
X252122D01*
X252135Y756705D01*
D02*
G37*
G36*
X909760Y751886D02*
X909631Y751715D01*
X909591Y751491D01*
X909639Y751212D01*
X909778Y750880D01*
X910005Y750494D01*
X910321Y750054D01*
X910727Y749560D01*
X911806Y748410D01*
X908260Y748364D01*
X907814Y748792D01*
X906981Y749485D01*
X906593Y749749D01*
X906224Y749959D01*
X905874Y750114D01*
X905544Y750215D01*
X905232Y750262D01*
X904940Y750254D01*
X904668Y750191D01*
X909979Y752003D01*
X909760Y751886D01*
D02*
G37*
G36*
X177838Y747181D02*
X177952Y745880D01*
X178143Y744733D01*
X178410Y743738D01*
X178752Y742897D01*
X179172Y742208D01*
X179667Y741673D01*
X180238Y741290D01*
X180886Y741060D01*
X181610Y740984D01*
X166370D01*
X167094Y741060D01*
X167742Y741290D01*
X168313Y741673D01*
X168808Y742208D01*
X169228Y742897D01*
X169570Y743738D01*
X169837Y744733D01*
X170028Y745880D01*
X170142Y747181D01*
X170180Y748634D01*
X177800D01*
X177838Y747181D01*
D02*
G37*
G36*
X881339Y740665D02*
X881123Y740588D01*
X880932Y740460D01*
X880767Y740280D01*
X880627Y740048D01*
X880513Y739765D01*
X880424Y739431D01*
X880361Y739046D01*
X880323Y738609D01*
X880310Y738120D01*
X877770D01*
X877757Y738609D01*
X877719Y739046D01*
X877656Y739431D01*
X877567Y739765D01*
X877452Y740048D01*
X877313Y740280D01*
X877148Y740460D01*
X876957Y740588D01*
X876741Y740665D01*
X876500Y740691D01*
X881580D01*
X881339Y740665D01*
D02*
G37*
G36*
X855077Y738871D02*
X854861Y738794D01*
X854670Y738666D01*
X854505Y738486D01*
X854365Y738254D01*
X854251Y737972D01*
X854162Y737637D01*
X854099Y737252D01*
X854061Y736815D01*
X854048Y736327D01*
X851508D01*
X851495Y736815D01*
X851457Y737252D01*
X851394Y737637D01*
X851305Y737972D01*
X851190Y738254D01*
X851051Y738486D01*
X850886Y738666D01*
X850695Y738794D01*
X850479Y738871D01*
X850238Y738897D01*
X855318D01*
X855077Y738871D01*
D02*
G37*
G36*
X854061Y728328D02*
X854099Y727897D01*
X854162Y727516D01*
X854251Y727185D01*
X854365Y726906D01*
X854505Y726677D01*
X854670Y726500D01*
X854861Y726373D01*
X855077Y726296D01*
X855318Y726271D01*
X850238D01*
X850479Y726296D01*
X850695Y726373D01*
X850886Y726500D01*
X851051Y726677D01*
X851190Y726906D01*
X851305Y727185D01*
X851394Y727516D01*
X851457Y727897D01*
X851495Y728328D01*
X851508Y728811D01*
X854048D01*
X854061Y728328D01*
D02*
G37*
G36*
X977511Y728228D02*
X976752Y727307D01*
X976210Y726494D01*
X975885Y725790D01*
X975777Y725194D01*
X975885Y724706D01*
X976210Y724327D01*
X976752Y724056D01*
X977511Y723893D01*
X978486Y723839D01*
X956933D01*
X958005Y723893D01*
X959079Y724056D01*
X960153Y724327D01*
X961229Y724706D01*
X962306Y725194D01*
X963384Y725790D01*
X964464Y726494D01*
X965545Y727307D01*
X966626Y728228D01*
X967710Y729258D01*
X978486D01*
X977511Y728228D01*
D02*
G37*
G36*
X887903Y727587D02*
X888807Y726826D01*
X889212Y726546D01*
X889587Y726333D01*
X889931Y726187D01*
X890244Y726108D01*
X890526Y726095D01*
X890777Y726150D01*
X890997Y726271D01*
X886905Y723179D01*
X887071Y723354D01*
X887160Y723570D01*
X887172Y723827D01*
X887108Y724125D01*
X886967Y724463D01*
X886749Y724843D01*
X886454Y725264D01*
X886082Y725725D01*
X885108Y726771D01*
X887404Y728067D01*
X887903Y727587D01*
D02*
G37*
G36*
X253151Y723719D02*
X252935Y723642D01*
X252744Y723514D01*
X252579Y723334D01*
X252439Y723102D01*
X252325Y722820D01*
X252236Y722485D01*
X252173Y722100D01*
X252135Y721663D01*
X252122Y721174D01*
X249582D01*
X249569Y721663D01*
X249531Y722100D01*
X249468Y722485D01*
X249379Y722820D01*
X249265Y723102D01*
X249125Y723334D01*
X248960Y723514D01*
X248769Y723642D01*
X248553Y723719D01*
X248312Y723745D01*
X253392D01*
X253151Y723719D01*
D02*
G37*
G36*
X480681Y722327D02*
X480719Y721890D01*
X480782Y721505D01*
X480871Y721170D01*
X480985Y720888D01*
X481125Y720656D01*
X481290Y720476D01*
X481481Y720348D01*
X481697Y720271D01*
X481938Y720245D01*
X476858D01*
X477099Y720271D01*
X477315Y720348D01*
X477506Y720476D01*
X477671Y720656D01*
X477811Y720888D01*
X477925Y721170D01*
X478014Y721505D01*
X478077Y721890D01*
X478115Y722327D01*
X478128Y722815D01*
X480668D01*
X480681Y722327D01*
D02*
G37*
G36*
X429881D02*
X429919Y721890D01*
X429982Y721505D01*
X430071Y721170D01*
X430186Y720888D01*
X430325Y720656D01*
X430490Y720476D01*
X430681Y720348D01*
X430897Y720271D01*
X431138Y720245D01*
X426058D01*
X426299Y720271D01*
X426515Y720348D01*
X426706Y720476D01*
X426871Y720656D01*
X427010Y720888D01*
X427125Y721170D01*
X427214Y721505D01*
X427277Y721890D01*
X427315Y722327D01*
X427328Y722815D01*
X429868D01*
X429881Y722327D01*
D02*
G37*
G36*
X404481D02*
X404519Y721890D01*
X404582Y721505D01*
X404671Y721170D01*
X404785Y720888D01*
X404925Y720656D01*
X405090Y720476D01*
X405281Y720348D01*
X405497Y720271D01*
X405738Y720245D01*
X400658D01*
X400899Y720271D01*
X401115Y720348D01*
X401306Y720476D01*
X401471Y720656D01*
X401610Y720888D01*
X401725Y721170D01*
X401814Y721505D01*
X401877Y721890D01*
X401915Y722327D01*
X401928Y722815D01*
X404468D01*
X404481Y722327D01*
D02*
G37*
G36*
X352157Y722361D02*
X351941Y722284D01*
X351750Y722156D01*
X351585Y721976D01*
X351446Y721744D01*
X351331Y721462D01*
X351242Y721127D01*
X351179Y720742D01*
X351141Y720305D01*
X351128Y719817D01*
X348588D01*
X348575Y720305D01*
X348537Y720742D01*
X348474Y721127D01*
X348385Y721462D01*
X348270Y721744D01*
X348131Y721976D01*
X347966Y722156D01*
X347775Y722284D01*
X347559Y722361D01*
X347318Y722387D01*
X352398D01*
X352157Y722361D01*
D02*
G37*
G36*
X511763Y716605D02*
X511840Y716389D01*
X511968Y716198D01*
X512148Y716033D01*
X512380Y715893D01*
X512662Y715779D01*
X512997Y715690D01*
X513382Y715627D01*
X513819Y715589D01*
X514308Y715576D01*
Y713036D01*
X513819Y713023D01*
X513382Y712985D01*
X512997Y712922D01*
X512662Y712833D01*
X512380Y712719D01*
X512148Y712579D01*
X511968Y712414D01*
X511840Y712223D01*
X511763Y712007D01*
X511737Y711766D01*
Y716846D01*
X511763Y716605D01*
D02*
G37*
G36*
X535955Y706807D02*
X536001Y706394D01*
X536078Y706011D01*
X536185Y705659D01*
X536323Y705338D01*
X536492Y705049D01*
X536691Y704790D01*
X536921Y704561D01*
X537181Y704364D01*
X537472Y704198D01*
X531868D01*
X532159Y704364D01*
X532419Y704561D01*
X532649Y704790D01*
X532848Y705049D01*
X533017Y705338D01*
X533155Y705659D01*
X533262Y706011D01*
X533339Y706394D01*
X533385Y706807D01*
X533400Y707252D01*
X535940D01*
X535955Y706807D01*
D02*
G37*
G36*
X565158Y706465D02*
X565279Y704907D01*
X565391Y704212D01*
X565538Y703571D01*
X565719Y702985D01*
X565936Y702455D01*
X566186Y701979D01*
X566472Y701559D01*
X566791Y701195D01*
X564995Y699398D01*
X564631Y699718D01*
X564211Y700004D01*
X563735Y700255D01*
X563205Y700471D01*
X562619Y700652D01*
X561978Y700799D01*
X561283Y700911D01*
X560531Y700989D01*
X558863Y701040D01*
X565150Y707327D01*
X565158Y706465D01*
D02*
G37*
G36*
X337173Y691641D02*
X337211Y691204D01*
X337274Y690819D01*
X337363Y690484D01*
X337477Y690202D01*
X337617Y689970D01*
X337782Y689790D01*
X337973Y689662D01*
X338189Y689585D01*
X338430Y689559D01*
X333350D01*
X333591Y689585D01*
X333807Y689662D01*
X333998Y689790D01*
X334163Y689970D01*
X334302Y690202D01*
X334417Y690484D01*
X334506Y690819D01*
X334569Y691204D01*
X334607Y691641D01*
X334620Y692130D01*
X337160D01*
X337173Y691641D01*
D02*
G37*
G36*
X252135D02*
X252173Y691204D01*
X252236Y690819D01*
X252325Y690484D01*
X252439Y690202D01*
X252579Y689970D01*
X252744Y689790D01*
X252935Y689662D01*
X253151Y689585D01*
X253392Y689559D01*
X248312D01*
X248553Y689585D01*
X248769Y689662D01*
X248960Y689790D01*
X249125Y689970D01*
X249265Y690202D01*
X249379Y690484D01*
X249468Y690819D01*
X249531Y691204D01*
X249569Y691641D01*
X249582Y692130D01*
X252122D01*
X252135Y691641D01*
D02*
G37*
G36*
X506740Y689341D02*
X506524Y689264D01*
X506334Y689136D01*
X506169Y688956D01*
X506029Y688724D01*
X505915Y688442D01*
X505826Y688107D01*
X505762Y687722D01*
X505724Y687285D01*
X505712Y686796D01*
X503172D01*
X503159Y687285D01*
X503121Y687722D01*
X503057Y688107D01*
X502968Y688442D01*
X502854Y688724D01*
X502714Y688956D01*
X502549Y689136D01*
X502359Y689264D01*
X502143Y689341D01*
X501902Y689367D01*
X506982D01*
X506740Y689341D01*
D02*
G37*
G36*
X481697D02*
X481481Y689264D01*
X481290Y689136D01*
X481125Y688956D01*
X480985Y688724D01*
X480871Y688442D01*
X480782Y688107D01*
X480719Y687722D01*
X480681Y687285D01*
X480668Y686796D01*
X478128D01*
X478115Y687285D01*
X478077Y687722D01*
X478014Y688107D01*
X477925Y688442D01*
X477811Y688724D01*
X477671Y688956D01*
X477506Y689136D01*
X477315Y689264D01*
X477099Y689341D01*
X476858Y689367D01*
X481938D01*
X481697Y689341D01*
D02*
G37*
G36*
X430540D02*
X430324Y689264D01*
X430134Y689136D01*
X429969Y688956D01*
X429829Y688724D01*
X429715Y688442D01*
X429626Y688107D01*
X429562Y687722D01*
X429524Y687285D01*
X429511Y686796D01*
X426972D01*
X426959Y687285D01*
X426921Y687722D01*
X426857Y688107D01*
X426768Y688442D01*
X426654Y688724D01*
X426514Y688956D01*
X426349Y689136D01*
X426159Y689264D01*
X425943Y689341D01*
X425701Y689367D01*
X430782D01*
X430540Y689341D01*
D02*
G37*
G36*
X405497D02*
X405281Y689264D01*
X405090Y689136D01*
X404925Y688956D01*
X404785Y688724D01*
X404671Y688442D01*
X404582Y688107D01*
X404519Y687722D01*
X404481Y687285D01*
X404468Y686796D01*
X401928D01*
X401915Y687285D01*
X401877Y687722D01*
X401814Y688107D01*
X401725Y688442D01*
X401610Y688724D01*
X401471Y688956D01*
X401306Y689136D01*
X401115Y689264D01*
X400899Y689341D01*
X400658Y689367D01*
X405738D01*
X405497Y689341D01*
D02*
G37*
G36*
X404481Y678169D02*
X404519Y677732D01*
X404582Y677347D01*
X404671Y677012D01*
X404785Y676730D01*
X404925Y676498D01*
X405090Y676318D01*
X405281Y676190D01*
X405497Y676113D01*
X405738Y676087D01*
X400658D01*
X400899Y676113D01*
X401115Y676190D01*
X401306Y676318D01*
X401471Y676498D01*
X401610Y676730D01*
X401725Y677012D01*
X401814Y677347D01*
X401877Y677732D01*
X401915Y678169D01*
X401928Y678658D01*
X404468D01*
X404481Y678169D01*
D02*
G37*
G36*
X505761Y680786D02*
X505910Y680142D01*
X506157Y679460D01*
X506504Y678739D01*
X506950Y677980D01*
X507495Y677182D01*
X508138Y676346D01*
X509723Y674558D01*
X510664Y673607D01*
X498218D01*
X499160Y674558D01*
X500745Y676346D01*
X501388Y677182D01*
X501933Y677980D01*
X502379Y678739D01*
X502726Y679460D01*
X502973Y680142D01*
X503122Y680786D01*
X503172Y681391D01*
X505712D01*
X505761Y680786D01*
D02*
G37*
G36*
X429561D02*
X429710Y680142D01*
X429957Y679460D01*
X430304Y678739D01*
X430750Y677980D01*
X431295Y677182D01*
X431938Y676346D01*
X433523Y674558D01*
X434464Y673607D01*
X422019D01*
X422960Y674558D01*
X424544Y676346D01*
X425188Y677182D01*
X425733Y677980D01*
X426179Y678739D01*
X426526Y679460D01*
X426773Y680142D01*
X426922Y680786D01*
X426972Y681391D01*
X429511D01*
X429561Y680786D01*
D02*
G37*
G36*
X480668Y681332D02*
X480717Y680742D01*
X480862Y680106D01*
X481104Y679424D01*
X481443Y678695D01*
X481880Y677921D01*
X482413Y677099D01*
X483769Y675318D01*
X484593Y674358D01*
X485514Y673352D01*
X473078Y673851D01*
X474038Y674749D01*
X475653Y676452D01*
X476310Y677257D01*
X476866Y678031D01*
X477320Y678774D01*
X477673Y679486D01*
X477926Y680166D01*
X478078Y680816D01*
X478128Y681435D01*
X480668Y681332D01*
D02*
G37*
G36*
X661177Y658373D02*
X660961Y658297D01*
X660771Y658170D01*
X660606Y657992D01*
X660466Y657764D01*
X660352Y657484D01*
X660263Y657154D01*
X660199Y656773D01*
X660161Y656341D01*
X660148Y655859D01*
X657608D01*
X657596Y656341D01*
X657558Y656773D01*
X657494Y657154D01*
X657405Y657484D01*
X657291Y657764D01*
X657151Y657992D01*
X656986Y658170D01*
X656796Y658297D01*
X656580Y658373D01*
X656339Y658399D01*
X661419D01*
X661177Y658373D01*
D02*
G37*
G36*
X533159D02*
X532943Y658297D01*
X532752Y658170D01*
X532587Y657992D01*
X532448Y657764D01*
X532333Y657484D01*
X532244Y657154D01*
X532181Y656773D01*
X532143Y656341D01*
X532130Y655859D01*
X529590D01*
X529577Y656341D01*
X529539Y656773D01*
X529476Y657154D01*
X529387Y657484D01*
X529272Y657764D01*
X529133Y657992D01*
X528968Y658170D01*
X528777Y658297D01*
X528561Y658373D01*
X528320Y658399D01*
X533400D01*
X533159Y658373D01*
D02*
G37*
G36*
X405140D02*
X404924Y658297D01*
X404734Y658170D01*
X404569Y657992D01*
X404429Y657764D01*
X404315Y657484D01*
X404226Y657154D01*
X404162Y656773D01*
X404124Y656341D01*
X404112Y655859D01*
X401572D01*
X401559Y656341D01*
X401521Y656773D01*
X401457Y657154D01*
X401368Y657484D01*
X401254Y657764D01*
X401114Y657992D01*
X400949Y658170D01*
X400759Y658297D01*
X400543Y658373D01*
X400302Y658399D01*
X405382D01*
X405140Y658373D01*
D02*
G37*
G36*
X765760Y659958D02*
X764175Y658170D01*
X763532Y657334D01*
X762987Y656536D01*
X762541Y655777D01*
X762194Y655056D01*
X761947Y654374D01*
X761798Y653730D01*
X761749Y653125D01*
X759209D01*
X759159Y653730D01*
X759010Y654374D01*
X758763Y655056D01*
X758416Y655777D01*
X757970Y656536D01*
X757426Y657334D01*
X756782Y658170D01*
X755197Y659958D01*
X754256Y660909D01*
X766702D01*
X765760Y659958D01*
D02*
G37*
G36*
X740360D02*
X738775Y658170D01*
X738132Y657334D01*
X737587Y656536D01*
X737141Y655777D01*
X736794Y655056D01*
X736547Y654374D01*
X736398Y653730D01*
X736348Y653125D01*
X733809D01*
X733759Y653730D01*
X733610Y654374D01*
X733363Y655056D01*
X733016Y655777D01*
X732570Y656536D01*
X732026Y657334D01*
X731382Y658170D01*
X729797Y659958D01*
X728856Y660909D01*
X741301D01*
X740360Y659958D01*
D02*
G37*
G36*
X689560D02*
X687975Y658170D01*
X687332Y657334D01*
X686787Y656536D01*
X686341Y655777D01*
X685994Y655056D01*
X685747Y654374D01*
X685598Y653730D01*
X685548Y653125D01*
X683008D01*
X682959Y653730D01*
X682810Y654374D01*
X682563Y655056D01*
X682216Y655777D01*
X681770Y656536D01*
X681226Y657334D01*
X680582Y658170D01*
X678997Y659958D01*
X678055Y660909D01*
X690501D01*
X689560Y659958D01*
D02*
G37*
G36*
X637742D02*
X636157Y658170D01*
X635513Y657334D01*
X634968Y656536D01*
X634523Y655777D01*
X634176Y655056D01*
X633928Y654374D01*
X633779Y653730D01*
X633730Y653125D01*
X631190D01*
X631141Y653730D01*
X630992Y654374D01*
X630744Y655056D01*
X630397Y655777D01*
X629952Y656536D01*
X629407Y657334D01*
X628763Y658170D01*
X627178Y659958D01*
X626237Y660909D01*
X638683D01*
X637742Y659958D01*
D02*
G37*
G36*
X612342D02*
X610757Y658170D01*
X610113Y657334D01*
X609568Y656536D01*
X609123Y655777D01*
X608776Y655056D01*
X608528Y654374D01*
X608380Y653730D01*
X608330Y653125D01*
X605790D01*
X605741Y653730D01*
X605592Y654374D01*
X605344Y655056D01*
X604997Y655777D01*
X604552Y656536D01*
X604007Y657334D01*
X603363Y658170D01*
X601778Y659958D01*
X600837Y660909D01*
X613283D01*
X612342Y659958D01*
D02*
G37*
G36*
X561542D02*
X559957Y658170D01*
X559313Y657334D01*
X558768Y656536D01*
X558322Y655777D01*
X557976Y655056D01*
X557728Y654374D01*
X557579Y653730D01*
X557530Y653125D01*
X554990D01*
X554940Y653730D01*
X554792Y654374D01*
X554544Y655056D01*
X554198Y655777D01*
X553752Y656536D01*
X553207Y657334D01*
X552563Y658170D01*
X550978Y659958D01*
X550037Y660909D01*
X562483D01*
X561542Y659958D01*
D02*
G37*
G36*
X509723D02*
X508138Y658170D01*
X507495Y657334D01*
X506950Y656536D01*
X506504Y655777D01*
X506157Y655056D01*
X505910Y654374D01*
X505761Y653730D01*
X505712Y653125D01*
X503172D01*
X503122Y653730D01*
X502973Y654374D01*
X502726Y655056D01*
X502379Y655777D01*
X501933Y656536D01*
X501388Y657334D01*
X500745Y658170D01*
X499160Y659958D01*
X498218Y660909D01*
X510664D01*
X509723Y659958D01*
D02*
G37*
G36*
X433523D02*
X431938Y658170D01*
X431295Y657334D01*
X430750Y656536D01*
X430304Y655777D01*
X429957Y655056D01*
X429710Y654374D01*
X429561Y653730D01*
X429511Y653125D01*
X426972D01*
X426922Y653730D01*
X426773Y654374D01*
X426526Y655056D01*
X426179Y655777D01*
X425733Y656536D01*
X425188Y657334D01*
X424544Y658170D01*
X422960Y659958D01*
X422019Y660909D01*
X434464D01*
X433523Y659958D01*
D02*
G37*
G36*
X160668Y651466D02*
X160706Y651029D01*
X160769Y650644D01*
X160858Y650309D01*
X160972Y650027D01*
X161112Y649795D01*
X161277Y649615D01*
X161468Y649487D01*
X161684Y649410D01*
X161925Y649384D01*
X156845D01*
X157086Y649410D01*
X157302Y649487D01*
X157493Y649615D01*
X157658Y649795D01*
X157797Y650027D01*
X157912Y650309D01*
X158001Y650644D01*
X158064Y651029D01*
X158102Y651466D01*
X158115Y651954D01*
X160655D01*
X160668Y651466D01*
D02*
G37*
G36*
X750941Y641196D02*
X750622Y640831D01*
X750336Y640411D01*
X750086Y639935D01*
X749869Y639405D01*
X749688Y638819D01*
X749541Y638178D01*
X749429Y637483D01*
X749351Y636731D01*
X749300Y635064D01*
X743014Y641350D01*
X743875Y641358D01*
X745433Y641479D01*
X746128Y641591D01*
X746769Y641738D01*
X747355Y641919D01*
X747885Y642135D01*
X748361Y642386D01*
X748781Y642672D01*
X749146Y642991D01*
X750941Y641196D01*
D02*
G37*
G36*
X507249Y642672D02*
X507669Y642386D01*
X508145Y642135D01*
X508675Y641919D01*
X509261Y641738D01*
X509902Y641591D01*
X510597Y641479D01*
X511349Y641401D01*
X513017Y641350D01*
X506730Y635064D01*
X506722Y635925D01*
X506601Y637483D01*
X506489Y638178D01*
X506342Y638819D01*
X506161Y639405D01*
X505945Y639935D01*
X505694Y640411D01*
X505408Y640831D01*
X505089Y641196D01*
X506884Y642991D01*
X507249Y642672D01*
D02*
G37*
G36*
X208674Y629450D02*
X208458Y629374D01*
X208267Y629247D01*
X208102Y629069D01*
X207962Y628840D01*
X207848Y628561D01*
X207759Y628231D01*
X207696Y627850D01*
X207658Y627418D01*
X207645Y626936D01*
X205105D01*
X205092Y627418D01*
X205054Y627850D01*
X204991Y628231D01*
X204902Y628561D01*
X204788Y628840D01*
X204648Y629069D01*
X204483Y629247D01*
X204292Y629374D01*
X204076Y629450D01*
X203835Y629476D01*
X208915D01*
X208674Y629450D01*
D02*
G37*
G36*
X261010Y634517D02*
X261163Y634086D01*
X261417Y633705D01*
X261772Y633374D01*
X262229Y633095D01*
X262788Y632866D01*
X263449Y632689D01*
X264211Y632562D01*
X265074Y632485D01*
X266040Y632460D01*
Y627380D01*
X265074Y627355D01*
X264211Y627278D01*
X263449Y627151D01*
X262788Y626974D01*
X262229Y626745D01*
X261772Y626466D01*
X261417Y626135D01*
X261163Y625754D01*
X261010Y625323D01*
X260959Y624840D01*
Y635000D01*
X261010Y634517D01*
D02*
G37*
G36*
X710302Y624686D02*
X709982Y624321D01*
X709696Y623901D01*
X709445Y623425D01*
X709229Y622895D01*
X709048Y622309D01*
X708901Y621669D01*
X708789Y620973D01*
X708711Y620221D01*
X708660Y618554D01*
X702374Y624840D01*
X703235Y624848D01*
X704793Y624969D01*
X705489Y625081D01*
X706129Y625228D01*
X706715Y625409D01*
X707245Y625625D01*
X707721Y625876D01*
X708141Y626162D01*
X708505Y626482D01*
X710302Y624686D01*
D02*
G37*
G36*
X589651D02*
X589332Y624321D01*
X589046Y623901D01*
X588796Y623425D01*
X588579Y622895D01*
X588398Y622309D01*
X588251Y621669D01*
X588139Y620973D01*
X588061Y620221D01*
X588010Y618554D01*
X581724Y624840D01*
X582585Y624848D01*
X584143Y624969D01*
X584838Y625081D01*
X585479Y625228D01*
X586065Y625409D01*
X586595Y625625D01*
X587071Y625876D01*
X587491Y626162D01*
X587855Y626482D01*
X589651Y624686D01*
D02*
G37*
G36*
X665852Y611986D02*
X665532Y611621D01*
X665246Y611201D01*
X664995Y610725D01*
X664779Y610195D01*
X664598Y609609D01*
X664451Y608969D01*
X664339Y608273D01*
X664261Y607521D01*
X664210Y605854D01*
X657924Y612140D01*
X658785Y612148D01*
X660343Y612269D01*
X661039Y612381D01*
X661679Y612528D01*
X662265Y612709D01*
X662795Y612925D01*
X663271Y613176D01*
X663691Y613462D01*
X664055Y613782D01*
X665852Y611986D01*
D02*
G37*
G36*
X504926Y598355D02*
X504697Y598050D01*
X504555Y597780D01*
X504499Y597547D01*
X504530Y597349D01*
X504648Y597187D01*
X504852Y597062D01*
X505144Y596972D01*
X505521Y596918D01*
X505986Y596900D01*
X500380Y594360D01*
X497314Y596900D01*
X497814Y596918D01*
X498300Y596972D01*
X498771Y597062D01*
X499227Y597187D01*
X499668Y597349D01*
X500094Y597547D01*
X500505Y597780D01*
X500902Y598050D01*
X501283Y598355D01*
X501650Y598696D01*
X505242D01*
X504926Y598355D01*
D02*
G37*
G36*
X666025Y574675D02*
X665410Y575278D01*
X664223Y576294D01*
X663652Y576707D01*
X663095Y577056D01*
X662552Y577342D01*
X662025Y577564D01*
X661511Y577723D01*
X661012Y577818D01*
X660528Y577850D01*
Y580390D01*
X661012Y580422D01*
X661511Y580517D01*
X662025Y580676D01*
X662552Y580898D01*
X663095Y581184D01*
X663652Y581533D01*
X664223Y581946D01*
X664809Y582422D01*
X666025Y583565D01*
Y574675D01*
D02*
G37*
G36*
X208434Y572616D02*
X207782Y571910D01*
X207313Y571278D01*
X207026Y570720D01*
X206922Y570237D01*
X207001Y569828D01*
X207263Y569494D01*
X207707Y569234D01*
X208334Y569048D01*
X209143Y568936D01*
X210136Y568899D01*
X188583D01*
X189655Y568953D01*
X190729Y569116D01*
X191803Y569387D01*
X192879Y569766D01*
X193956Y570254D01*
X195034Y570850D01*
X196114Y571554D01*
X197194Y572367D01*
X198276Y573288D01*
X199359Y574318D01*
X208434Y572616D01*
D02*
G37*
G36*
X499265Y557003D02*
X499115Y557103D01*
X498877Y557193D01*
X498550Y557272D01*
X498134Y557340D01*
X497037Y557446D01*
X494727Y557525D01*
X493780Y557530D01*
Y560070D01*
X494727Y560075D01*
X498550Y560328D01*
X498877Y560407D01*
X499115Y560497D01*
X499265Y560597D01*
Y557003D01*
D02*
G37*
G36*
X473585Y556260D02*
X473559Y556501D01*
X473482Y556717D01*
X473354Y556908D01*
X473174Y557073D01*
X472942Y557212D01*
X472659Y557327D01*
X472325Y557416D01*
X471940Y557479D01*
X471503Y557517D01*
X471014Y557530D01*
Y560070D01*
X471503Y560083D01*
X471940Y560121D01*
X472325Y560184D01*
X472659Y560273D01*
X472942Y560387D01*
X473174Y560527D01*
X473354Y560692D01*
X473482Y560883D01*
X473559Y561099D01*
X473585Y561340D01*
Y556260D01*
D02*
G37*
G36*
X730621Y556105D02*
X730302Y555741D01*
X730016Y555321D01*
X729765Y554845D01*
X729549Y554315D01*
X729368Y553729D01*
X729221Y553088D01*
X729109Y552393D01*
X729031Y551641D01*
X728980Y549973D01*
X722693Y556260D01*
X723555Y556268D01*
X725113Y556389D01*
X725808Y556501D01*
X726449Y556648D01*
X727035Y556829D01*
X727565Y557046D01*
X728041Y557296D01*
X728461Y557582D01*
X728826Y557901D01*
X730621Y556105D01*
D02*
G37*
G36*
X583925Y551299D02*
X583709Y551222D01*
X583518Y551093D01*
X583353Y550914D01*
X583214Y550682D01*
X583099Y550400D01*
X583010Y550065D01*
X582947Y549680D01*
X582909Y549243D01*
X582896Y548754D01*
X580356D01*
X580343Y549243D01*
X580305Y549680D01*
X580242Y550065D01*
X580153Y550400D01*
X580038Y550682D01*
X579899Y550914D01*
X579734Y551093D01*
X579543Y551222D01*
X579327Y551299D01*
X579086Y551325D01*
X584166D01*
X583925Y551299D01*
D02*
G37*
G36*
X321342Y551838D02*
X321437Y551339D01*
X321596Y550825D01*
X321818Y550298D01*
X322104Y549755D01*
X322453Y549198D01*
X322866Y548627D01*
X323342Y548041D01*
X324485Y546825D01*
X315595D01*
X316198Y547440D01*
X317214Y548627D01*
X317627Y549198D01*
X317976Y549755D01*
X318262Y550298D01*
X318484Y550825D01*
X318643Y551339D01*
X318738Y551838D01*
X318770Y552322D01*
X321310D01*
X321342Y551838D01*
D02*
G37*
G36*
X505657Y551274D02*
X505226Y551120D01*
X504845Y550865D01*
X504514Y550507D01*
X504235Y550047D01*
X504006Y549485D01*
X503829Y548821D01*
X503702Y548054D01*
X503625Y547185D01*
X503600Y546214D01*
X498520D01*
X498495Y547185D01*
X498418Y548054D01*
X498291Y548821D01*
X498114Y549485D01*
X497885Y550047D01*
X497606Y550507D01*
X497275Y550865D01*
X496894Y551120D01*
X496463Y551274D01*
X495980Y551325D01*
X506140D01*
X505657Y551274D01*
D02*
G37*
G36*
X263215Y544181D02*
X262999Y544104D01*
X262808Y543976D01*
X262643Y543796D01*
X262504Y543564D01*
X262389Y543282D01*
X262300Y542947D01*
X262237Y542562D01*
X262199Y542125D01*
X262186Y541637D01*
X259646D01*
X259633Y542125D01*
X259595Y542562D01*
X259532Y542947D01*
X259443Y543282D01*
X259328Y543564D01*
X259189Y543796D01*
X259024Y543976D01*
X258833Y544104D01*
X258617Y544181D01*
X258376Y544207D01*
X263456D01*
X263215Y544181D01*
D02*
G37*
G36*
X262199Y530329D02*
X262237Y529892D01*
X262300Y529507D01*
X262389Y529172D01*
X262504Y528890D01*
X262643Y528658D01*
X262808Y528478D01*
X262999Y528350D01*
X263215Y528273D01*
X263456Y528247D01*
X258376D01*
X258617Y528273D01*
X258833Y528350D01*
X259024Y528478D01*
X259189Y528658D01*
X259328Y528890D01*
X259443Y529172D01*
X259532Y529507D01*
X259595Y529892D01*
X259633Y530329D01*
X259646Y530817D01*
X262186D01*
X262199Y530329D01*
D02*
G37*
G36*
X171019Y530837D02*
X169942Y530675D01*
X168864Y530406D01*
X167786Y530028D01*
X166709Y529543D01*
X165631Y528951D01*
X164553Y528250D01*
X163476Y527442D01*
X162398Y526526D01*
X161320Y525502D01*
X150544D01*
X151514Y526526D01*
X152268Y527442D01*
X152807Y528250D01*
X153131Y528951D01*
X153238Y529543D01*
X153131Y530028D01*
X152807Y530406D01*
X152268Y530675D01*
X151514Y530837D01*
X150544Y530891D01*
X172097D01*
X171019Y530837D01*
D02*
G37*
G36*
X906443Y527091D02*
X906227Y527014D01*
X906036Y526885D01*
X905871Y526706D01*
X905732Y526474D01*
X905617Y526191D01*
X905528Y525857D01*
X905465Y525472D01*
X905427Y525035D01*
X905414Y524546D01*
X902874D01*
X902861Y525035D01*
X902823Y525472D01*
X902760Y525857D01*
X902671Y526191D01*
X902557Y526474D01*
X902417Y526706D01*
X902252Y526885D01*
X902061Y527014D01*
X901845Y527091D01*
X901604Y527117D01*
X906684D01*
X906443Y527091D01*
D02*
G37*
G36*
X337212Y521362D02*
X336955Y521326D01*
X336801Y521218D01*
X336749Y521039D01*
X336800Y520787D01*
X336954Y520464D01*
X337210Y520069D01*
X338595Y518452D01*
X339262Y517770D01*
X332078D01*
X331345Y518452D01*
X330582Y519063D01*
X329789Y519602D01*
X328966Y520069D01*
X328114Y520464D01*
X327232Y520787D01*
X326320Y521039D01*
X325378Y521218D01*
X324407Y521326D01*
X323406Y521362D01*
X329538Y526442D01*
X337212Y521362D01*
D02*
G37*
G36*
X582909Y517945D02*
X582947Y517508D01*
X583010Y517123D01*
X583099Y516788D01*
X583214Y516506D01*
X583353Y516274D01*
X583518Y516094D01*
X583709Y515966D01*
X583925Y515889D01*
X584166Y515863D01*
X579086D01*
X579327Y515889D01*
X579543Y515966D01*
X579734Y516094D01*
X579899Y516274D01*
X580038Y516506D01*
X580153Y516788D01*
X580242Y517123D01*
X580305Y517508D01*
X580343Y517945D01*
X580356Y518433D01*
X582896D01*
X582909Y517945D01*
D02*
G37*
G36*
X289031Y516945D02*
X288676Y516890D01*
X288320Y516799D01*
X287962Y516671D01*
X287604Y516506D01*
X287244Y516305D01*
X286883Y516068D01*
X286521Y515794D01*
X286157Y515484D01*
X285793Y515136D01*
X282200D01*
X282529Y515484D01*
X282785Y515794D01*
X282967Y516068D01*
X283077Y516305D01*
X283114Y516506D01*
X283077Y516671D01*
X282967Y516799D01*
X282785Y516890D01*
X282529Y516945D01*
X282200Y516963D01*
X289385D01*
X289031Y516945D01*
D02*
G37*
G36*
X244215Y514313D02*
X243999Y514237D01*
X243808Y514110D01*
X243643Y513932D01*
X243503Y513703D01*
X243389Y513424D01*
X243300Y513094D01*
X243237Y512713D01*
X243199Y512281D01*
X243186Y511799D01*
X240646D01*
X240633Y512281D01*
X240595Y512713D01*
X240532Y513094D01*
X240443Y513424D01*
X240329Y513703D01*
X240189Y513932D01*
X240024Y514110D01*
X239833Y514237D01*
X239617Y514313D01*
X239376Y514338D01*
X244456D01*
X244215Y514313D01*
D02*
G37*
G36*
X652063Y511720D02*
X651626Y511959D01*
X651126Y512065D01*
X650564Y512037D01*
X649939Y511875D01*
X649252Y511580D01*
X648502Y511151D01*
X647690Y510588D01*
X646815Y509891D01*
X645878Y509061D01*
X644878Y508097D01*
X640286Y510689D01*
X641340Y511778D01*
X642986Y513710D01*
X643579Y514552D01*
X644018Y515311D01*
X644304Y515989D01*
X644435Y516583D01*
X644414Y517096D01*
X644238Y517526D01*
X643909Y517873D01*
X652063Y511720D01*
D02*
G37*
G36*
X548546Y566321D02*
X548296Y564425D01*
Y553175D01*
X548710Y550033D01*
X549922Y547106D01*
X551852Y544591D01*
X554366Y542663D01*
X557293Y541450D01*
X560435Y541036D01*
X570097D01*
Y526084D01*
X564466D01*
Y521857D01*
X563184Y521731D01*
X560071Y520787D01*
X557203Y519254D01*
X557077Y519150D01*
X556476Y518776D01*
X549206D01*
Y509236D01*
X546666D01*
Y518776D01*
X545096D01*
Y526396D01*
X534389D01*
X520923Y539863D01*
X521409Y541036D01*
X526685D01*
X529827Y541450D01*
X532754Y542663D01*
X535269Y544591D01*
X537198Y547106D01*
X538410Y550033D01*
X538824Y553175D01*
Y564425D01*
X538574Y566321D01*
X539688Y567591D01*
X547432D01*
X548546Y566321D01*
D02*
G37*
G36*
X574687Y507384D02*
X574661Y507625D01*
X574584Y507841D01*
X574456Y508032D01*
X574276Y508197D01*
X574044Y508336D01*
X573762Y508451D01*
X573427Y508540D01*
X573042Y508603D01*
X572605Y508641D01*
X572117Y508654D01*
Y511194D01*
X572605Y511207D01*
X573042Y511245D01*
X573427Y511308D01*
X573762Y511397D01*
X574044Y511511D01*
X574276Y511651D01*
X574456Y511816D01*
X574584Y512007D01*
X574661Y512223D01*
X574687Y512464D01*
Y507384D01*
D02*
G37*
G36*
X389922Y507388D02*
X390017Y506889D01*
X390176Y506375D01*
X390398Y505848D01*
X390684Y505305D01*
X391033Y504748D01*
X391446Y504177D01*
X391922Y503591D01*
X393065Y502375D01*
X384175D01*
X384778Y502990D01*
X385794Y504177D01*
X386207Y504748D01*
X386556Y505305D01*
X386842Y505848D01*
X387064Y506375D01*
X387223Y506889D01*
X387318Y507388D01*
X387350Y507872D01*
X389890D01*
X389922Y507388D01*
D02*
G37*
G36*
X243200Y500732D02*
X243342Y498940D01*
X243389Y498766D01*
X243503Y498487D01*
X243643Y498258D01*
X243808Y498080D01*
X243999Y497953D01*
X244215Y497877D01*
X244456Y497851D01*
X243429D01*
X243542Y496418D01*
X243699Y495623D01*
X243885Y494941D01*
X244098Y494372D01*
X244341Y493917D01*
X244612Y493574D01*
X239220D01*
X239491Y493917D01*
X239734Y494372D01*
X239947Y494941D01*
X240133Y495623D01*
X240290Y496418D01*
X240418Y497327D01*
X240459Y497851D01*
X239376D01*
X239617Y497877D01*
X239833Y497953D01*
X240024Y498080D01*
X240189Y498258D01*
X240329Y498487D01*
X240443Y498766D01*
X240532Y499096D01*
X240582Y499400D01*
X240589Y499484D01*
X240646Y502094D01*
X243186D01*
X243200Y500732D01*
D02*
G37*
G36*
X216159Y480010D02*
X215258Y479057D01*
X214424Y478066D01*
X213658Y477037D01*
X212959Y475970D01*
X212328Y474866D01*
X211764Y473723D01*
X211267Y472543D01*
X210838Y471326D01*
X210476Y470070D01*
X210181Y468777D01*
X206124Y486143D01*
X206384Y485379D01*
X206756Y484835D01*
X207241Y484511D01*
X207838Y484407D01*
X208547Y484523D01*
X209368Y484859D01*
X210302Y485415D01*
X211348Y486191D01*
X212505Y487188D01*
X213776Y488404D01*
X216159Y480010D01*
D02*
G37*
G36*
X235947Y483913D02*
X235870Y484513D01*
X235642Y485050D01*
X235261Y485524D01*
X234727Y485935D01*
X234042Y486282D01*
X233203Y486567D01*
X232213Y486788D01*
X231070Y486946D01*
X229774Y487040D01*
X228326Y487072D01*
Y494692D01*
X229774Y494724D01*
X232213Y494976D01*
X233203Y495197D01*
X234042Y495482D01*
X234727Y495829D01*
X235261Y496240D01*
X235642Y496714D01*
X235870Y497251D01*
X235947Y497851D01*
Y483913D01*
D02*
G37*
G36*
X372142Y487067D02*
X372237Y486569D01*
X372396Y486055D01*
X372618Y485527D01*
X372904Y484985D01*
X373253Y484428D01*
X373666Y483857D01*
X374142Y483271D01*
X375285Y482055D01*
X366395D01*
X366998Y482670D01*
X368014Y483857D01*
X368427Y484428D01*
X368776Y484985D01*
X369062Y485527D01*
X369284Y486055D01*
X369443Y486569D01*
X369538Y487067D01*
X369570Y487552D01*
X372110D01*
X372142Y487067D01*
D02*
G37*
G36*
X674306Y483870D02*
X673777Y483853D01*
X673255Y483789D01*
X672741Y483679D01*
X672234Y483522D01*
X671735Y483320D01*
X671244Y483071D01*
X670761Y482776D01*
X670285Y482435D01*
X669817Y482048D01*
X669357Y481615D01*
X665765Y485207D01*
X666198Y485667D01*
X666585Y486135D01*
X666926Y486611D01*
X667221Y487094D01*
X667470Y487585D01*
X667672Y488084D01*
X667829Y488591D01*
X667939Y489105D01*
X668003Y489627D01*
X668020Y490157D01*
X674306Y483870D01*
D02*
G37*
G36*
X472224Y492144D02*
X482216D01*
X482817Y490874D01*
X481506Y489277D01*
X479973Y486409D01*
X479029Y483297D01*
X478720Y480159D01*
X471170D01*
X471170Y480159D01*
X468186Y479766D01*
X465406Y478614D01*
X463018Y476782D01*
X454128Y467892D01*
X452296Y465504D01*
X451144Y462724D01*
X450751Y459740D01*
Y444140D01*
X449810Y443287D01*
X449580Y443310D01*
X446343Y442991D01*
X443231Y442047D01*
X440363Y440514D01*
X438897Y439311D01*
X438736Y439244D01*
X436348Y437412D01*
X434516Y435024D01*
X433364Y432244D01*
X432971Y429260D01*
Y399171D01*
X432333Y398955D01*
X431701Y398839D01*
X429933Y400195D01*
X427771Y401091D01*
X425560Y401382D01*
Y433251D01*
X426147Y433309D01*
X429259Y434253D01*
X432127Y435786D01*
X434641Y437849D01*
X436704Y440363D01*
X438237Y443231D01*
X439181Y446343D01*
X439500Y449580D01*
X439181Y452817D01*
X438237Y455929D01*
X436704Y458797D01*
X435720Y459996D01*
Y467134D01*
X465080Y496494D01*
X472224D01*
Y492144D01*
D02*
G37*
G36*
X346723Y482279D02*
X346507Y482202D01*
X346316Y482074D01*
X346151Y481894D01*
X346012Y481662D01*
X345897Y481380D01*
X345808Y481045D01*
X345745Y480660D01*
X345707Y480223D01*
X345694Y479734D01*
X343154D01*
X343141Y480223D01*
X343103Y480660D01*
X343040Y481045D01*
X342951Y481380D01*
X342836Y481662D01*
X342697Y481894D01*
X342532Y482074D01*
X342341Y482202D01*
X342125Y482279D01*
X341884Y482305D01*
X346964D01*
X346723Y482279D01*
D02*
G37*
G36*
X303035D02*
X302819Y482202D01*
X302628Y482074D01*
X302463Y481894D01*
X302323Y481662D01*
X302209Y481380D01*
X302120Y481045D01*
X302057Y480660D01*
X302019Y480223D01*
X302006Y479734D01*
X299466D01*
X299453Y480223D01*
X299415Y480660D01*
X299352Y481045D01*
X299263Y481380D01*
X299149Y481662D01*
X299009Y481894D01*
X298844Y482074D01*
X298653Y482202D01*
X298437Y482279D01*
X298196Y482305D01*
X303276D01*
X303035Y482279D01*
D02*
G37*
G36*
X342303Y469134D02*
X342341Y468697D01*
X342404Y468311D01*
X342493Y467977D01*
X342607Y467694D01*
X342747Y467463D01*
X342912Y467283D01*
X343103Y467155D01*
X343319Y467077D01*
X343560Y467052D01*
X338480D01*
X338721Y467077D01*
X338937Y467155D01*
X339128Y467283D01*
X339293Y467463D01*
X339432Y467694D01*
X339547Y467977D01*
X339636Y468311D01*
X339699Y468697D01*
X339737Y469134D01*
X339750Y469622D01*
X342290D01*
X342303Y469134D01*
D02*
G37*
G36*
X302019Y468159D02*
X302057Y467727D01*
X302120Y467346D01*
X302209Y467016D01*
X302323Y466736D01*
X302463Y466508D01*
X302628Y466330D01*
X302819Y466203D01*
X303035Y466127D01*
X303276Y466101D01*
X298196D01*
X298437Y466127D01*
X298653Y466203D01*
X298844Y466330D01*
X299009Y466508D01*
X299149Y466736D01*
X299263Y467016D01*
X299352Y467346D01*
X299415Y467727D01*
X299453Y468159D01*
X299466Y468642D01*
X302006D01*
X302019Y468159D01*
D02*
G37*
G36*
X575247Y467360D02*
X574385Y467352D01*
X572827Y467231D01*
X572132Y467119D01*
X571491Y466972D01*
X570905Y466791D01*
X570375Y466575D01*
X569899Y466324D01*
X569479Y466038D01*
X569114Y465718D01*
X567318Y467514D01*
X567638Y467879D01*
X567924Y468299D01*
X568175Y468775D01*
X568391Y469305D01*
X568572Y469891D01*
X568719Y470532D01*
X568831Y471227D01*
X568909Y471979D01*
X568960Y473647D01*
X575247Y467360D01*
D02*
G37*
G36*
X657565Y463658D02*
X657642Y462790D01*
X657769Y462023D01*
X657946Y461359D01*
X658175Y460797D01*
X658454Y460337D01*
X658785Y459979D01*
X659166Y459724D01*
X659597Y459570D01*
X660080Y459519D01*
X637934D01*
X638586Y459555D01*
X639093Y459664D01*
X639455Y459845D01*
X639673Y460099D01*
X639745Y460425D01*
X639673Y460823D01*
X639455Y461294D01*
X639093Y461838D01*
X638586Y462453D01*
X637934Y463142D01*
X645118D01*
X645842Y462453D01*
X646565Y461838D01*
X647286Y461294D01*
X648006Y460823D01*
X648725Y460425D01*
X649443Y460099D01*
X650160Y459845D01*
X650753Y459695D01*
X650834Y459724D01*
X651215Y459979D01*
X651546Y460337D01*
X651825Y460797D01*
X652054Y461359D01*
X652231Y462023D01*
X652358Y462790D01*
X652435Y463658D01*
X652460Y464630D01*
X657540D01*
X657565Y463658D01*
D02*
G37*
G36*
X242349Y456003D02*
X242085Y456075D01*
X241800Y456090D01*
X241494Y456049D01*
X241167Y455951D01*
X240818Y455797D01*
X240448Y455586D01*
X240057Y455318D01*
X239645Y454994D01*
X239211Y454614D01*
X238757Y454176D01*
X235420Y454432D01*
X235995Y455025D01*
X236883Y456054D01*
X237196Y456491D01*
X237423Y456876D01*
X237562Y457209D01*
X237614Y457491D01*
X237579Y457721D01*
X237456Y457898D01*
X237247Y458025D01*
X242349Y456003D01*
D02*
G37*
G36*
X814087Y459147D02*
X814151Y458625D01*
X814261Y458111D01*
X814418Y457604D01*
X814620Y457105D01*
X814869Y456614D01*
X815164Y456131D01*
X815505Y455655D01*
X815892Y455187D01*
X816325Y454727D01*
X812733Y451135D01*
X812273Y451568D01*
X811805Y451955D01*
X811329Y452296D01*
X810846Y452591D01*
X810355Y452840D01*
X809856Y453042D01*
X809349Y453199D01*
X808835Y453309D01*
X808313Y453373D01*
X807784Y453390D01*
X814070Y459677D01*
X814087Y459147D01*
D02*
G37*
G36*
X187236Y454604D02*
X186588Y454374D01*
X186017Y453992D01*
X185522Y453456D01*
X185103Y452767D01*
X184760Y451926D01*
X184493Y450931D01*
X184302Y449784D01*
X184188Y448483D01*
X184150Y447030D01*
X176530D01*
X176492Y448483D01*
X176378Y449784D01*
X176187Y450931D01*
X175920Y451926D01*
X175578Y452767D01*
X175158Y453456D01*
X174663Y453992D01*
X174092Y454374D01*
X173444Y454604D01*
X172720Y454680D01*
X187960D01*
X187236Y454604D01*
D02*
G37*
G36*
X898175Y444586D02*
X898157Y444892D01*
X898103Y445128D01*
X898013Y445294D01*
X897887Y445390D01*
X897726Y445415D01*
X897528Y445371D01*
X897294Y445257D01*
X897025Y445073D01*
X896720Y444818D01*
X896378Y444494D01*
Y448086D01*
X896724Y448450D01*
X897034Y448812D01*
X897307Y449174D01*
X897544Y449534D01*
X897745Y449894D01*
X897909Y450252D01*
X898037Y450610D01*
X898130Y450967D01*
X898185Y451323D01*
X898205Y451678D01*
X898175Y444586D01*
D02*
G37*
G36*
X862446Y444092D02*
X862484Y443655D01*
X862548Y443270D01*
X862637Y442935D01*
X862751Y442653D01*
X862891Y442421D01*
X863056Y442241D01*
X863246Y442113D01*
X863462Y442036D01*
X863704Y442010D01*
X858624D01*
X858865Y442036D01*
X859081Y442113D01*
X859271Y442241D01*
X859436Y442421D01*
X859576Y442653D01*
X859690Y442935D01*
X859779Y443270D01*
X859843Y443655D01*
X859881Y444092D01*
X859893Y444580D01*
X862433D01*
X862446Y444092D01*
D02*
G37*
G36*
X818024Y446337D02*
X818087Y445607D01*
X818192Y444930D01*
X818338Y444306D01*
X818526Y443735D01*
X818756Y443218D01*
X819027Y442753D01*
X819341Y442341D01*
X819696Y441982D01*
X820093Y441676D01*
X810834D01*
X811231Y441982D01*
X811586Y442341D01*
X811900Y442753D01*
X812171Y443218D01*
X812401Y443735D01*
X812589Y444306D01*
X812736Y444930D01*
X812840Y445607D01*
X812903Y446337D01*
X812924Y447121D01*
X818003D01*
X818024Y446337D01*
D02*
G37*
G36*
X422846Y443230D02*
X422317Y443213D01*
X421795Y443149D01*
X421281Y443038D01*
X420774Y442882D01*
X420275Y442680D01*
X419784Y442431D01*
X419301Y442136D01*
X418825Y441795D01*
X418357Y441408D01*
X417897Y440975D01*
X414305Y444567D01*
X414738Y445027D01*
X415125Y445495D01*
X415466Y445971D01*
X415761Y446454D01*
X416010Y446945D01*
X416212Y447444D01*
X416368Y447951D01*
X416479Y448465D01*
X416543Y448987D01*
X416560Y449516D01*
X422846Y443230D01*
D02*
G37*
G36*
X184188Y443651D02*
X184302Y442350D01*
X184493Y441203D01*
X184760Y440208D01*
X185103Y439367D01*
X185522Y438678D01*
X186017Y438143D01*
X186588Y437760D01*
X187236Y437531D01*
X187960Y437454D01*
X172720D01*
X173444Y437531D01*
X174092Y437760D01*
X174663Y438143D01*
X175158Y438678D01*
X175578Y439367D01*
X175920Y440208D01*
X176187Y441203D01*
X176378Y442350D01*
X176492Y443651D01*
X176530Y445104D01*
X184150D01*
X184188Y443651D01*
D02*
G37*
G36*
X961114Y444586D02*
X961407Y444510D01*
X961670Y444282D01*
X961902Y443900D01*
X962103Y443367D01*
X962273Y442681D01*
X962413Y441843D01*
X962521Y440853D01*
X962645Y438414D01*
X962660Y436966D01*
X955040D01*
X955002Y438418D01*
X954888Y439717D01*
X954697Y440863D01*
X954430Y441857D01*
X954088Y442698D01*
X953668Y443387D01*
X953173Y443923D01*
X952602Y444307D01*
X951954Y444538D01*
X951230Y444617D01*
X961114Y444586D01*
D02*
G37*
G36*
X659597Y439560D02*
X659166Y439407D01*
X658785Y439153D01*
X658454Y438798D01*
X658175Y438340D01*
X657946Y437782D01*
X657769Y437121D01*
X657642Y436359D01*
X657565Y435496D01*
X657540Y434530D01*
X652460D01*
X652435Y435496D01*
X652358Y436359D01*
X652231Y437121D01*
X652054Y437782D01*
X651825Y438340D01*
X651546Y438798D01*
X651215Y439153D01*
X650834Y439407D01*
X650403Y439560D01*
X649920Y439610D01*
X660080D01*
X659597Y439560D01*
D02*
G37*
G36*
X598202Y434270D02*
X597186Y433083D01*
X596773Y432512D01*
X596424Y431955D01*
X596138Y431413D01*
X595916Y430885D01*
X595757Y430371D01*
X595662Y429873D01*
X595630Y429388D01*
X593090D01*
X593058Y429873D01*
X592963Y430371D01*
X592804Y430885D01*
X592582Y431413D01*
X592296Y431955D01*
X591947Y432512D01*
X591534Y433083D01*
X591058Y433669D01*
X589915Y434885D01*
X598805D01*
X598202Y434270D01*
D02*
G37*
G36*
X962698Y434929D02*
X962812Y433628D01*
X963003Y432481D01*
X963270Y431486D01*
X963613Y430644D01*
X964032Y429956D01*
X964527Y429420D01*
X965098Y429038D01*
X965746Y428808D01*
X966470Y428732D01*
X951230D01*
X951954Y428808D01*
X952602Y429038D01*
X953173Y429420D01*
X953668Y429956D01*
X954088Y430644D01*
X954430Y431486D01*
X954697Y432481D01*
X954888Y433628D01*
X955002Y434929D01*
X955040Y436382D01*
X962660D01*
X962698Y434929D01*
D02*
G37*
G36*
X352819Y430118D02*
X352603Y430041D01*
X352412Y429914D01*
X352247Y429737D01*
X352108Y429508D01*
X351993Y429229D01*
X351904Y428898D01*
X351841Y428517D01*
X351803Y428086D01*
X351790Y427603D01*
X349250D01*
X349237Y428086D01*
X349199Y428517D01*
X349136Y428898D01*
X349047Y429229D01*
X348932Y429508D01*
X348793Y429737D01*
X348628Y429914D01*
X348437Y430041D01*
X348221Y430118D01*
X347980Y430143D01*
X353060D01*
X352819Y430118D01*
D02*
G37*
G36*
X811238Y422148D02*
X810970Y422276D01*
X810664Y422324D01*
X810321Y422293D01*
X809941Y422184D01*
X809524Y421995D01*
X809070Y421728D01*
X808578Y421382D01*
X808048Y420957D01*
X806878Y419869D01*
Y427054D01*
X807603Y427814D01*
X808248Y428566D01*
X808811Y429308D01*
X809295Y430040D01*
X809697Y430763D01*
X810019Y431477D01*
X810260Y432181D01*
X810421Y432876D01*
X810501Y433562D01*
X810501Y434238D01*
X811238Y422148D01*
D02*
G37*
G36*
X329553Y416051D02*
X329591Y415614D01*
X329654Y415229D01*
X329743Y414894D01*
X329857Y414612D01*
X329997Y414380D01*
X330162Y414200D01*
X330353Y414072D01*
X330569Y413995D01*
X330810Y413969D01*
X325730D01*
X325971Y413995D01*
X326187Y414072D01*
X326378Y414200D01*
X326543Y414380D01*
X326683Y414612D01*
X326797Y414894D01*
X326886Y415229D01*
X326949Y415614D01*
X326987Y416051D01*
X327000Y416539D01*
X329540D01*
X329553Y416051D01*
D02*
G37*
G36*
X831888Y407061D02*
X831873Y406994D01*
X831859Y406895D01*
X831837Y406600D01*
X831814Y405299D01*
X824722Y405269D01*
X825077Y405288D01*
X825433Y405344D01*
X825790Y405436D01*
X826148Y405564D01*
X826506Y405729D01*
X826866Y405930D01*
X827226Y406167D01*
X827588Y406440D01*
X827950Y406749D01*
X828314Y407095D01*
X831906D01*
X831888Y407061D01*
D02*
G37*
G36*
X917911Y407008D02*
X916795Y405858D01*
X915066Y403858D01*
X914452Y403007D01*
X914006Y402256D01*
X913726Y401604D01*
X913615Y401052D01*
X913670Y400600D01*
X913893Y400247D01*
X914283Y399993D01*
X902008Y405269D01*
X902522Y405140D01*
X903118Y405159D01*
X903795Y405329D01*
X904554Y405647D01*
X905394Y406114D01*
X906315Y406731D01*
X907318Y407496D01*
X909567Y409474D01*
X910814Y410687D01*
X917911Y407008D01*
D02*
G37*
G36*
X618149Y541451D02*
X617459Y539176D01*
X617140Y535940D01*
X617459Y532704D01*
X618403Y529591D01*
X619936Y526723D01*
X621999Y524209D01*
X624513Y522146D01*
X627381Y520613D01*
X630494Y519669D01*
X632727Y519449D01*
X633200Y518126D01*
X627212Y512138D01*
X625177Y509485D01*
X623897Y506396D01*
X623460Y503080D01*
Y468397D01*
X623897Y465082D01*
X624340Y464012D01*
Y429420D01*
X642190D01*
Y403174D01*
X640920Y402743D01*
X640070Y403850D01*
X638213Y405275D01*
X636051Y406171D01*
X635000Y406310D01*
Y397510D01*
X633730D01*
Y396240D01*
X628114D01*
Y394547D01*
X628041Y394627D01*
X627911Y394699D01*
X627725Y394763D01*
X627483Y394818D01*
X627184Y394864D01*
X626416Y394932D01*
X625422Y394966D01*
X625161Y394968D01*
X625965Y393027D01*
X627390Y391170D01*
X629247Y389745D01*
X630807Y389098D01*
X631180Y387676D01*
X604421Y360917D01*
X601819D01*
X601333Y362090D01*
X602512Y363269D01*
X604344Y365657D01*
X605496Y368437D01*
X605889Y371421D01*
Y427472D01*
X606121Y427710D01*
X606271Y427909D01*
X608154Y430203D01*
X609687Y433071D01*
X610631Y436184D01*
X610950Y439420D01*
X610631Y442657D01*
X609687Y445769D01*
X608154Y448637D01*
X606091Y451151D01*
X603577Y453214D01*
X600709Y454747D01*
X597597Y455691D01*
X594360Y456010D01*
X591124Y455691D01*
X588011Y454747D01*
X585143Y453214D01*
X582629Y451151D01*
X580566Y448637D01*
X579033Y445769D01*
X578089Y442657D01*
X577770Y439420D01*
X578089Y436184D01*
X579033Y433071D01*
X580566Y430203D01*
X582197Y428215D01*
X582449Y427866D01*
X582831Y427459D01*
Y408051D01*
X574421D01*
Y430530D01*
X573377D01*
Y455473D01*
X575014Y457110D01*
X575347Y457113D01*
X575593Y457148D01*
X578546Y457439D01*
X581659Y458383D01*
X584527Y459916D01*
X587041Y461979D01*
X589104Y464493D01*
X590637Y467361D01*
X591581Y470474D01*
X591900Y473710D01*
X591581Y476946D01*
X590637Y480059D01*
X589976Y481295D01*
X590629Y482384D01*
X591166D01*
Y489654D01*
X581626D01*
Y492194D01*
X591166D01*
Y493764D01*
X598786D01*
Y526084D01*
X593155D01*
Y541036D01*
X611685D01*
X614827Y541450D01*
X617108Y542395D01*
X618149Y541451D01*
D02*
G37*
G36*
X252095Y407429D02*
X252171Y407213D01*
X252298Y407022D01*
X252476Y406857D01*
X252705Y406717D01*
X252984Y406603D01*
X253314Y406514D01*
X253695Y406451D01*
X254127Y406413D01*
X254610Y406400D01*
Y403860D01*
X254127Y403847D01*
X253695Y403809D01*
X253314Y403746D01*
X252984Y403657D01*
X252705Y403543D01*
X252476Y403403D01*
X252298Y403238D01*
X252171Y403047D01*
X252095Y402831D01*
X252069Y402590D01*
Y407670D01*
X252095Y407429D01*
D02*
G37*
G36*
X929999Y402095D02*
X929910Y402817D01*
X929645Y403462D01*
X929204Y404032D01*
X928585Y404525D01*
X927790Y404943D01*
X926819Y405285D01*
X925670Y405550D01*
X924345Y405740D01*
X922844Y405854D01*
X921166Y405892D01*
Y413512D01*
X922844Y413550D01*
X924345Y413664D01*
X925670Y413854D01*
X926819Y414119D01*
X927790Y414461D01*
X928585Y414879D01*
X929204Y415372D01*
X929645Y415942D01*
X929910Y416587D01*
X929999Y417309D01*
Y402095D01*
D02*
G37*
G36*
X791256Y404563D02*
X791356Y403343D01*
X791443Y402848D01*
X791554Y402428D01*
X791691Y402085D01*
X791853Y401818D01*
X792039Y401628D01*
X792250Y401513D01*
X792486Y401475D01*
X784922D01*
X785158Y401513D01*
X785369Y401628D01*
X785555Y401818D01*
X785717Y402085D01*
X785854Y402428D01*
X785965Y402848D01*
X786052Y403343D01*
X786114Y403915D01*
X786164Y405288D01*
X791244D01*
X791256Y404563D01*
D02*
G37*
G36*
X657540Y393380D02*
X652460Y382168D01*
X652424Y383097D01*
X652316Y383853D01*
X652137Y384435D01*
X651885Y384844D01*
X651562Y385080D01*
X651167Y385142D01*
X650700Y385031D01*
X650161Y384746D01*
X649550Y384287D01*
X648868Y383656D01*
Y390840D01*
X649550Y391573D01*
X650161Y392336D01*
X650700Y393129D01*
X651167Y393952D01*
X651562Y394804D01*
X651885Y395686D01*
X652137Y396598D01*
X652316Y397540D01*
X652424Y398511D01*
X652460Y399512D01*
X657540Y393380D01*
D02*
G37*
G36*
X334595Y382029D02*
X334671Y381813D01*
X334798Y381622D01*
X334976Y381457D01*
X335205Y381317D01*
X335484Y381203D01*
X335814Y381114D01*
X336195Y381051D01*
X336627Y381013D01*
X337109Y381000D01*
Y378460D01*
X336627Y378447D01*
X336195Y378409D01*
X335814Y378346D01*
X335484Y378257D01*
X335205Y378143D01*
X334976Y378003D01*
X334798Y377838D01*
X334671Y377647D01*
X334595Y377431D01*
X334570Y377190D01*
Y382270D01*
X334595Y382029D01*
D02*
G37*
G36*
X898787Y356203D02*
X900135Y355053D01*
X900322Y354930D01*
X900682Y354729D01*
X901041Y354565D01*
X901399Y354436D01*
X901756Y354344D01*
X902112Y354288D01*
X902467Y354269D01*
X901048Y354275D01*
X902080Y353394D01*
X902753Y352943D01*
X903366Y352592D01*
X903920Y352341D01*
X904413Y352190D01*
X904847Y352140D01*
X901034Y348327D01*
X900984Y348761D01*
X900833Y349254D01*
X900582Y349808D01*
X900231Y350421D01*
X899780Y351094D01*
X899228Y351827D01*
X897823Y353474D01*
X897040Y354292D01*
X895375Y354299D01*
X895283Y356095D01*
X896753D01*
X897814Y357156D01*
X898787Y356203D01*
D02*
G37*
G36*
X213371Y343506D02*
X213931Y342945D01*
X213015Y342009D01*
X212715Y341659D01*
X212442Y341297D01*
X212205Y340937D01*
X212005Y340577D01*
X211840Y340218D01*
X211712Y339860D01*
X211619Y339504D01*
X211564Y339147D01*
X211544Y338792D01*
X211551Y340298D01*
X210170Y338680D01*
X209718Y338006D01*
X209367Y337393D01*
X209116Y336839D01*
X208965Y336346D01*
X208915Y335913D01*
X205103Y339725D01*
X205536Y339775D01*
X206029Y339926D01*
X206583Y340177D01*
X207196Y340528D01*
X207869Y340980D01*
X208603Y341531D01*
X210249Y342936D01*
X211567Y344198D01*
X211574Y345885D01*
X211593Y345579D01*
X211646Y345343D01*
X211736Y345177D01*
X211862Y345081D01*
X212024Y345056D01*
X212221Y345100D01*
X212455Y345214D01*
X212724Y345398D01*
X213029Y345652D01*
X213371Y345977D01*
Y343506D01*
D02*
G37*
G36*
X248069Y345465D02*
X247853Y345388D01*
X247662Y345260D01*
X247497Y345080D01*
X247358Y344848D01*
X247243Y344566D01*
X247154Y344231D01*
X247091Y343846D01*
X247053Y343409D01*
X247040Y342920D01*
X244500D01*
X244487Y343409D01*
X244449Y343846D01*
X244386Y344231D01*
X244297Y344566D01*
X244182Y344848D01*
X244043Y345080D01*
X243878Y345260D01*
X243687Y345388D01*
X243471Y345465D01*
X243230Y345491D01*
X248310D01*
X248069Y345465D01*
D02*
G37*
G36*
X824643Y342365D02*
X824427Y342288D01*
X824237Y342159D01*
X824071Y341979D01*
X823932Y341748D01*
X823817Y341465D01*
X823728Y341131D01*
X823665Y340745D01*
X823627Y340308D01*
X823614Y339820D01*
X821074D01*
X821061Y340308D01*
X821023Y340745D01*
X820960Y341131D01*
X820871Y341465D01*
X820757Y341748D01*
X820617Y341979D01*
X820452Y342159D01*
X820261Y342288D01*
X820045Y342365D01*
X819804Y342391D01*
X824884D01*
X824643Y342365D01*
D02*
G37*
G36*
X913698Y349203D02*
X913363Y348627D01*
X913279Y347908D01*
X913446Y347045D01*
X913862Y346039D01*
X914529Y344890D01*
X915447Y343597D01*
X916615Y342161D01*
X919702Y338860D01*
X910814Y336972D01*
X909405Y338327D01*
X906809Y340494D01*
X905621Y341307D01*
X904507Y341939D01*
X903466Y342391D01*
X902499Y342662D01*
X901605Y342752D01*
X900784Y342661D01*
X900037Y342391D01*
X914283Y349636D01*
X913698Y349203D01*
D02*
G37*
G36*
X928431Y325882D02*
X928354Y326606D01*
X928125Y327254D01*
X927742Y327825D01*
X927207Y328320D01*
X926518Y328740D01*
X925677Y329082D01*
X924682Y329349D01*
X923535Y329540D01*
X922234Y329654D01*
X920780Y329692D01*
Y337312D01*
X922234Y337350D01*
X923535Y337464D01*
X924682Y337655D01*
X925677Y337922D01*
X926518Y338265D01*
X927207Y338684D01*
X927742Y339179D01*
X928125Y339750D01*
X928354Y340398D01*
X928431Y341122D01*
Y325882D01*
D02*
G37*
G36*
X164574Y332682D02*
X164629Y332327D01*
X164722Y331970D01*
X164850Y331612D01*
X165014Y331253D01*
X165215Y330893D01*
X165452Y330533D01*
X165725Y330171D01*
X166035Y329809D01*
X166381Y329445D01*
Y325853D01*
X166346Y325871D01*
X166279Y325886D01*
X166180Y325900D01*
X165886Y325923D01*
X164585Y325946D01*
X164554Y333038D01*
X164574Y332682D01*
D02*
G37*
G36*
X823627Y327129D02*
X823665Y326692D01*
X823728Y326307D01*
X823817Y325972D01*
X823932Y325690D01*
X824071Y325458D01*
X824237Y325278D01*
X824427Y325150D01*
X824643Y325073D01*
X824884Y325047D01*
X819804D01*
X820045Y325073D01*
X820261Y325150D01*
X820452Y325278D01*
X820617Y325458D01*
X820757Y325690D01*
X820871Y325972D01*
X820960Y326307D01*
X821023Y326692D01*
X821061Y327129D01*
X821074Y327617D01*
X823614D01*
X823627Y327129D01*
D02*
G37*
G36*
X673357Y322621D02*
X672850Y322005D01*
X672487Y321462D01*
X672270Y320991D01*
X672197Y320592D01*
X672270Y320266D01*
X672487Y320013D01*
X672850Y319831D01*
X673357Y319723D01*
X674009Y319687D01*
X659640D01*
X660353Y319723D01*
X661067Y319831D01*
X661783Y320013D01*
X662499Y320266D01*
X663217Y320592D01*
X663936Y320991D01*
X664656Y321462D01*
X665378Y322005D01*
X666101Y322621D01*
X666824Y323309D01*
X674009D01*
X673357Y322621D01*
D02*
G37*
G36*
X788678Y326735D02*
X788799Y325177D01*
X788911Y324482D01*
X789058Y323841D01*
X789239Y323255D01*
X789455Y322725D01*
X789706Y322249D01*
X789992Y321829D01*
X790312Y321465D01*
X788515Y319669D01*
X788151Y319988D01*
X787731Y320274D01*
X787255Y320524D01*
X786725Y320741D01*
X786139Y320922D01*
X785499Y321069D01*
X784803Y321181D01*
X784051Y321259D01*
X782383Y321310D01*
X788670Y327597D01*
X788678Y326735D01*
D02*
G37*
G36*
X794865Y315568D02*
X794839Y315809D01*
X794762Y316025D01*
X794634Y316216D01*
X794454Y316381D01*
X794222Y316521D01*
X793940Y316635D01*
X793605Y316724D01*
X793220Y316787D01*
X792783Y316825D01*
X792294Y316838D01*
Y319378D01*
X792783Y319391D01*
X793220Y319429D01*
X793605Y319492D01*
X793940Y319581D01*
X794222Y319695D01*
X794454Y319835D01*
X794634Y320000D01*
X794762Y320191D01*
X794839Y320407D01*
X794865Y320648D01*
Y315568D01*
D02*
G37*
G36*
X613125Y304733D02*
X612692Y304273D01*
X612305Y303805D01*
X611964Y303329D01*
X611669Y302846D01*
X611420Y302355D01*
X611218Y301856D01*
X611062Y301349D01*
X610951Y300835D01*
X610887Y300313D01*
X610870Y299783D01*
X604584Y306070D01*
X605113Y306087D01*
X605635Y306151D01*
X606149Y306262D01*
X606656Y306418D01*
X607155Y306620D01*
X607646Y306869D01*
X608129Y307164D01*
X608605Y307505D01*
X609073Y307892D01*
X609533Y308325D01*
X613125Y304733D01*
D02*
G37*
G36*
X661452Y299727D02*
X661021Y299575D01*
X660640Y299321D01*
X660309Y298965D01*
X660030Y298508D01*
X659801Y297949D01*
X659624Y297289D01*
X659497Y296527D01*
X659420Y295663D01*
X659395Y294698D01*
X654315D01*
X654290Y295663D01*
X654213Y296527D01*
X654086Y297289D01*
X653909Y297949D01*
X653680Y298508D01*
X653401Y298965D01*
X653070Y299321D01*
X652689Y299575D01*
X652258Y299727D01*
X651775Y299778D01*
X661935D01*
X661452Y299727D01*
D02*
G37*
G36*
X559643Y277685D02*
X559303Y277296D01*
X559016Y276863D01*
X558784Y276387D01*
X558605Y275867D01*
X558480Y275303D01*
X558409Y274696D01*
X558391Y274045D01*
X558427Y273350D01*
X558517Y272612D01*
X558661Y271829D01*
X551255Y276747D01*
X552176Y276935D01*
X554541Y277564D01*
X555196Y277795D01*
X556307Y278289D01*
X556764Y278552D01*
X557153Y278826D01*
X557476Y279110D01*
X559643Y277685D01*
D02*
G37*
G36*
X448323Y249671D02*
X448361Y249234D01*
X448424Y248849D01*
X448513Y248514D01*
X448628Y248232D01*
X448767Y248000D01*
X448932Y247820D01*
X449123Y247692D01*
X449339Y247615D01*
X449580Y247589D01*
X444500D01*
X444741Y247615D01*
X444957Y247692D01*
X445148Y247820D01*
X445313Y248000D01*
X445452Y248232D01*
X445567Y248514D01*
X445656Y248849D01*
X445719Y249234D01*
X445757Y249671D01*
X445770Y250159D01*
X448310D01*
X448323Y249671D01*
D02*
G37*
G36*
X549923Y249534D02*
X549960Y249048D01*
X550023Y248619D01*
X550112Y248248D01*
X550225Y247933D01*
X550364Y247676D01*
X550528Y247476D01*
X550717Y247333D01*
X550932Y247247D01*
X551171Y247218D01*
X546109D01*
X546348Y247247D01*
X546563Y247333D01*
X546752Y247476D01*
X546916Y247676D01*
X547055Y247933D01*
X547168Y248248D01*
X547257Y248619D01*
X547320Y249048D01*
X547357Y249534D01*
X547370Y250077D01*
X549910D01*
X549923Y249534D01*
D02*
G37*
G36*
X523253Y249656D02*
X523291Y249171D01*
X523354Y248747D01*
X523443Y248386D01*
X523557Y248085D01*
X523696Y247846D01*
X523861Y247669D01*
X524051Y247554D01*
X524266Y247500D01*
X524507Y247507D01*
X519444Y246742D01*
X519683Y246807D01*
X519896Y246925D01*
X520085Y247096D01*
X520248Y247321D01*
X520386Y247598D01*
X520499Y247930D01*
X520587Y248314D01*
X520650Y248752D01*
X520687Y249243D01*
X520700Y249788D01*
X523240Y250202D01*
X523253Y249656D01*
D02*
G37*
G36*
X475987Y223104D02*
X475776Y222963D01*
X475589Y222727D01*
X475428Y222397D01*
X475291Y221973D01*
X475179Y221455D01*
X475092Y220843D01*
X475030Y220136D01*
X474980Y218440D01*
X469900D01*
X469888Y219335D01*
X469701Y221455D01*
X469589Y221973D01*
X469452Y222397D01*
X469291Y222727D01*
X469104Y222963D01*
X468893Y223104D01*
X468657Y223151D01*
X476223D01*
X475987Y223104D01*
D02*
G37*
%LPC*%
G36*
X724848Y917606D02*
X720742D01*
X720749Y917525D01*
X720867Y916864D01*
X721018Y916305D01*
X721203Y915848D01*
X721421Y915493D01*
X721673Y915239D01*
X721958Y915086D01*
X722278Y915035D01*
X719328D01*
Y910336D01*
X724848D01*
Y917606D01*
D02*
G37*
G36*
X596578D02*
X591058D01*
Y910336D01*
X596578D01*
Y917606D01*
D02*
G37*
G36*
X470848Y913796D02*
X466712D01*
X466749Y913403D01*
X466867Y912825D01*
X467018Y912337D01*
X467203Y911937D01*
X467421Y911626D01*
X467673Y911403D01*
X467958Y911270D01*
X468278Y911226D01*
X465328D01*
Y906526D01*
X470848D01*
Y913796D01*
D02*
G37*
G36*
X632460Y406310D02*
X631409Y406171D01*
X629247Y405275D01*
X627390Y403850D01*
X625965Y401993D01*
X625161Y400052D01*
X625422Y400054D01*
X627483Y400202D01*
X627725Y400257D01*
X627911Y400321D01*
X628041Y400393D01*
X628114Y400473D01*
Y398780D01*
X632460D01*
Y406310D01*
D02*
G37*
%LPD*%
G36*
X813585Y545225D02*
X812970Y545828D01*
X811783Y546844D01*
X811212Y547257D01*
X810655Y547606D01*
X810113Y547892D01*
X809585Y548114D01*
X809071Y548273D01*
X808572Y548368D01*
X808088Y548400D01*
Y550940D01*
X808572Y550972D01*
X809071Y551067D01*
X809585Y551226D01*
X810113Y551448D01*
X810655Y551734D01*
X811212Y552083D01*
X811783Y552496D01*
X812369Y552972D01*
X813585Y554115D01*
Y545225D01*
D02*
G37*
D10*
X760479Y819658D02*
Y846071D01*
X754380Y852170D02*
X760479Y846071D01*
X749300Y852170D02*
X754380D01*
X717750Y875030D02*
X825500D01*
X735079Y819658D02*
Y839722D01*
X720090Y854710D02*
X735079Y839722D01*
X713740Y854710D02*
X720090D01*
X594360Y843280D02*
X607060Y830580D01*
X617220Y834898D02*
Y848360D01*
X594360Y843280D02*
Y858520D01*
X504441Y844801D02*
X508000Y848360D01*
X504441Y819658D02*
Y844801D01*
X497840Y875030D02*
X530860Y842010D01*
Y819658D02*
Y842010D01*
X574562Y874310D02*
X604634D01*
X568762Y880110D02*
X574562Y874310D01*
X607060Y819658D02*
Y830580D01*
X544386Y880110D02*
X568762D01*
X540576Y876300D02*
X544386Y880110D01*
X548640Y850900D02*
Y869950D01*
X604634Y874310D02*
X610434Y880110D01*
X617220D02*
X658878Y838452D01*
X610434Y880110D02*
X617220D01*
X499110Y876300D02*
X540576D01*
X497840Y875030D02*
X499110Y876300D01*
X538472Y881380D02*
X547978Y890886D01*
X471368Y881380D02*
X538472D01*
X490220Y861060D02*
X494030D01*
X479041Y849882D02*
X490220Y861060D01*
X479041Y819658D02*
Y849882D01*
X472202Y875030D02*
X497840D01*
X462043Y864870D02*
X472202Y875030D01*
X431800Y864870D02*
X462043D01*
X402841Y835911D02*
X431800Y864870D01*
X429696Y869950D02*
X459938D01*
X471368Y881380D01*
X405566Y845820D02*
X429696Y869950D01*
X392430Y845820D02*
X405566D01*
X429556Y875996D02*
X432400Y878840D01*
X412400Y875996D02*
X429556D01*
X453190Y878840D02*
X454660Y880310D01*
X432400Y878840D02*
X453190D01*
X669290Y854710D02*
X684278Y839722D01*
X617220Y834898D02*
X632460Y819658D01*
X684530Y866140D02*
Y881380D01*
X548640Y850900D02*
X556260Y843280D01*
X428242Y842262D02*
X440690Y854710D01*
X445770D01*
X409556Y878840D02*
X412400Y875996D01*
X401320Y878840D02*
X409556D01*
X396240Y873760D02*
X401320Y878840D01*
X500380Y1167130D02*
X508000Y1174750D01*
X500380Y1153663D02*
Y1167130D01*
Y1153663D02*
X503172Y1150872D01*
X728980Y1175769D02*
X759209Y1145540D01*
X728980Y1175769D02*
Y1176020D01*
X610870Y1165860D02*
X631190Y1145540D01*
X610870Y1165860D02*
Y1174750D01*
X490220Y1207770D02*
X529590Y1168400D01*
Y1145540D02*
Y1168400D01*
X693168Y1186180D02*
X733809Y1145540D01*
X690880Y1186180D02*
X693168D01*
X581660Y1170940D02*
Y1187450D01*
Y1170940D02*
X605790Y1146810D01*
X483870Y1187450D02*
X490220D01*
X477771Y1181351D02*
X483870Y1187450D01*
X477771Y1145540D02*
Y1181351D01*
X657860Y1197610D02*
X683008Y1172461D01*
Y1145540D02*
Y1172461D01*
X529590Y1184910D02*
Y1197610D01*
Y1184910D02*
X554990Y1159510D01*
X449580Y1193800D02*
Y1196340D01*
X426972Y1171191D02*
X449580Y1193800D01*
X490220Y1207770D02*
X615950D01*
X443230D02*
X490220D01*
X401572Y1166112D02*
X443230Y1207770D01*
X615950D02*
X657608Y1166112D01*
X488315Y413004D02*
Y421948D01*
X825500Y875030D02*
X826770Y876300D01*
X444500Y381616D02*
Y429260D01*
X429260Y558800D02*
X501060D01*
X388620Y518160D02*
X429260Y558800D01*
X807720Y745490D02*
X826066Y763836D01*
X807720Y635000D02*
Y745490D01*
X722630Y549910D02*
X807720Y635000D01*
X419100Y744220D02*
X572770D01*
X403198Y728318D02*
X419100Y744220D01*
X403198Y714306D02*
Y728318D01*
X502920Y274320D02*
X514096Y285496D01*
X459740Y274320D02*
X502920D01*
X447040Y261620D02*
X459740Y274320D01*
X447040Y234950D02*
Y261620D01*
X328270Y405130D02*
Y421030D01*
X316230Y433070D02*
X328270Y421030D01*
X300990Y433070D02*
X316230D01*
X350520Y387350D02*
Y436113D01*
X342900Y379730D02*
X350520Y387350D01*
X328270Y379730D02*
X342900D01*
X287636Y518776D02*
Y523902D01*
X279400Y510540D02*
X287636Y518776D01*
X279400Y454660D02*
Y510540D01*
Y454660D02*
X300990Y433070D01*
X306070Y615950D02*
X320040Y601980D01*
Y542290D02*
Y601980D01*
Y542290D02*
X321310Y541020D01*
X316230Y732790D02*
X361950Y778510D01*
X316230Y674980D02*
Y732790D01*
Y674980D02*
X335890Y655320D01*
X306070Y776012D02*
X308002Y777944D01*
X306070Y615950D02*
Y776012D01*
X361950Y778510D02*
Y848360D01*
X765810Y726440D02*
X767080D01*
X547936Y509236D02*
X565520Y491652D01*
X538480Y492760D02*
X539750D01*
X543560Y488950D01*
X579374Y355600D02*
X579755D01*
X742950Y1096935D02*
Y1097280D01*
X683260Y1083310D02*
X740410D01*
X410972Y349758D02*
X429006Y331724D01*
X410972Y349758D02*
Y351536D01*
X402841Y819658D02*
Y835911D01*
X428242Y819658D02*
Y842262D01*
X439420Y835660D02*
X445770D01*
X453642Y827788D01*
X521970Y491490D02*
X536067Y477393D01*
X459740Y624840D02*
X466090Y618490D01*
X438150Y605790D02*
X452120D01*
X504441Y643639D02*
X513080Y635000D01*
X543560Y422583D02*
Y488950D01*
Y422583D02*
X544195Y421948D01*
Y414655D02*
Y421948D01*
Y414655D02*
X545846Y413004D01*
X553974D02*
Y483616D01*
X515620Y480060D02*
X528193Y467487D01*
Y414655D02*
Y467487D01*
Y414655D02*
X529844Y413004D01*
X536067Y414909D02*
Y477393D01*
Y414909D02*
X537972Y413004D01*
X495300Y480060D02*
X515620D01*
X521970Y413004D02*
Y444102D01*
X503792Y462280D02*
X521970Y444102D01*
X570124Y909886D02*
X570890Y909120D01*
X547978Y909886D02*
X570124D01*
X505968Y413004D02*
Y422402D01*
X497840Y430530D02*
X505968Y422402D01*
X481330Y424180D02*
X486083D01*
X478790Y426720D02*
X481330Y424180D01*
X478790Y426720D02*
Y436880D01*
X514096Y413004D02*
Y439674D01*
X502920Y450850D02*
X514096Y439674D01*
X496570Y450850D02*
X502920D01*
X482600Y462280D02*
X503792D01*
X478790Y458470D02*
X482600Y462280D01*
X471170Y468630D02*
X511810D01*
X462280Y459740D02*
X471170Y468630D01*
X462280Y417830D02*
Y459740D01*
X370840Y477520D02*
Y507564D01*
X442396Y579120D01*
X670560D01*
X648970Y560070D02*
X664210D01*
X679450Y544830D01*
X750570Y711200D02*
X765810Y726440D01*
X704850Y750570D02*
X711200Y756920D01*
X712470D01*
X382270Y808990D02*
X386080Y805180D01*
Y795020D02*
Y805180D01*
X375920Y889000D02*
X384810Y897890D01*
X375920Y777240D02*
X398780Y754380D01*
X375920Y777240D02*
Y889000D01*
X382270Y808990D02*
Y880110D01*
X387966Y885806D01*
X420978D01*
X384810Y897890D02*
X397510D01*
X580938Y880310D02*
X581137Y880110D01*
X603250D01*
X614680Y891540D01*
X561848Y413004D02*
Y460248D01*
X575310Y473710D01*
X676248Y889616D02*
X684507Y881357D01*
X684530Y881380D01*
X697230Y832106D02*
Y872690D01*
X708660Y884120D01*
X703580Y769620D02*
X734060D01*
X697230Y763270D02*
X703580Y769620D01*
X734060D02*
X735330Y768350D01*
X783590Y1075690D02*
X793096Y1085196D01*
X872490Y878840D02*
X890270D01*
X488315Y413004D02*
X489966D01*
X486083Y424180D02*
X488315Y421948D01*
X708660Y884120D02*
X717750Y875030D01*
X706120Y1047750D02*
X712470Y1041400D01*
X680720Y1047750D02*
X706120D01*
X579374Y363474D02*
X586413D01*
X594360Y371421D01*
Y439420D01*
X454914Y379476D02*
X464566D01*
X449580Y384810D02*
X454914Y379476D01*
X449580Y384810D02*
Y405130D01*
X462280Y417830D01*
X566420Y505460D02*
X570884Y509924D01*
X581626D01*
X447040Y426720D02*
X449580D01*
X444500Y429260D02*
X447040Y426720D01*
X444500Y381616D02*
X454514Y371602D01*
X742000Y449580D02*
Y449668D01*
X454514Y371602D02*
X464566D01*
X388620Y497840D02*
Y518160D01*
X579374Y339598D02*
X588772D01*
X594360Y334010D01*
X603250D01*
X621030Y331470D02*
Y339090D01*
X610870Y321310D02*
X621030Y331470D01*
X596827Y321310D02*
X610870D01*
X586413Y331724D02*
X596827Y321310D01*
X579374Y331724D02*
X586413D01*
X650129Y535940D02*
X650848Y536659D01*
X633730Y535940D02*
X650129D01*
X679450Y544830D02*
X680480D01*
X409448Y353060D02*
X410972Y351536D01*
X552450Y272288D02*
X579374Y299212D01*
X552450Y270510D02*
Y272288D01*
X725170Y711200D02*
X750570D01*
X711200Y725170D02*
X725170Y711200D01*
X679450Y725170D02*
X711200D01*
X574040Y775970D02*
X603250D01*
X568960Y770890D02*
X574040Y775970D01*
X425546Y753110D02*
X565548D01*
X575708Y763270D01*
X603250D01*
X534670Y698500D02*
Y707252D01*
X527616Y714306D02*
X534670Y707252D01*
X504798Y714306D02*
X527616D01*
X542290Y760730D02*
X571500Y789940D01*
X572770D01*
X534670Y772160D02*
X581660Y819150D01*
X566420Y699770D02*
X603250D01*
X558800Y707390D02*
X566420Y699770D01*
X515054Y775404D02*
X523240Y783590D01*
X503582Y775404D02*
X515054D01*
X651510Y712470D02*
X679450D01*
X648970Y715010D02*
X651510Y712470D01*
X648970Y715010D02*
Y730250D01*
X457200Y772160D02*
X460444Y775404D01*
X478182D01*
X603250Y750570D02*
X631190D01*
X637540Y756920D01*
Y760730D01*
X435610D02*
X542290D01*
X428652Y767688D02*
X435610Y760730D01*
X428652Y767688D02*
Y775404D01*
X826066Y763836D02*
X852778D01*
X269240Y939800D02*
X276933Y947493D01*
Y962660D01*
X579374Y299212D02*
Y315722D01*
X429006Y331724D02*
X464566D01*
X529844Y274066D02*
Y298196D01*
X521970Y236220D02*
X523240Y234950D01*
X521970Y236220D02*
Y298196D01*
X514096Y285496D02*
Y298196D01*
X548640Y234950D02*
Y255270D01*
X529844Y274066D02*
X548640Y255270D01*
X345440Y1038860D02*
Y1056640D01*
X333356Y1068724D02*
X345440Y1056640D01*
X277522Y1068724D02*
X333356D01*
X246380Y1082040D02*
Y1090930D01*
X233064Y1068724D02*
X246380Y1082040D01*
X193702Y1068724D02*
X233064D01*
X177800Y977900D02*
Y993140D01*
Y977900D02*
X193040Y962660D01*
X679450Y750570D02*
X704850D01*
X679450Y763270D02*
X697230D01*
X680720Y1073150D02*
X711200D01*
X680720Y1085850D02*
X683260Y1083310D01*
X783590Y1075690D02*
X787400D01*
X717550Y1111250D02*
X720090Y1108710D01*
X680720Y1111250D02*
X717550D01*
X708409Y1145540D02*
X736348Y1117600D01*
X697230Y832106D02*
X709678Y819658D01*
X581660Y819150D02*
Y819658D01*
X543560Y1125220D02*
X560070D01*
X580390Y1145540D01*
X453642Y819658D02*
Y827788D01*
X452371Y1116581D02*
Y1145540D01*
X760479Y652529D02*
Y667258D01*
X742950Y635000D02*
X760479Y652529D01*
X632460Y650240D02*
Y667258D01*
X617220Y635000D02*
X632460Y650240D01*
X504441Y643639D02*
Y667258D01*
Y694949D01*
X504798Y695306D01*
X735079Y651258D02*
Y667258D01*
X702310Y618490D02*
X735079Y651258D01*
X607060Y643890D02*
Y667258D01*
X581660Y618490D02*
X607060Y643890D01*
X459740Y624840D02*
Y647956D01*
X479041Y667258D01*
X479398Y667615D01*
Y695306D01*
X684278Y632209D02*
Y667258D01*
X657860Y605790D02*
X684278Y632209D01*
X556260Y628650D02*
Y667258D01*
X533400Y605790D02*
X556260Y628650D01*
X428242Y615699D02*
X438150Y605790D01*
X428242Y615699D02*
Y667258D01*
Y694949D01*
X428598Y695306D01*
X658878Y630938D02*
Y667258D01*
X623570Y595630D02*
X658878Y630938D01*
X500380Y595630D02*
X623570D01*
X530860Y626110D02*
Y667258D01*
X500380Y595630D02*
X530860Y626110D01*
X427990Y595630D02*
X500380D01*
X402841Y620779D02*
X427990Y595630D01*
X402841Y620779D02*
Y667258D01*
X403198Y667615D01*
Y695306D01*
X759209Y986538D02*
Y993140D01*
X742950Y970280D02*
X759209Y986538D01*
X614680Y976630D02*
X631190Y993140D01*
X614680Y970280D02*
Y976630D01*
X503172Y976378D02*
X508000Y971550D01*
X503172Y976378D02*
Y993140D01*
X733809Y976378D02*
Y993140D01*
X712470Y955040D02*
X733809Y976378D01*
X605790Y980440D02*
Y993140D01*
X580390Y955040D02*
X605790Y980440D01*
X467360Y955040D02*
X474980D01*
X462280Y960120D02*
X467360Y955040D01*
X462280Y960120D02*
Y977648D01*
X477771Y993140D01*
X683008Y971299D02*
Y993140D01*
X656590Y944880D02*
X683008Y971299D01*
X554990Y965200D02*
Y993140D01*
X534670Y944880D02*
X554990Y965200D01*
X436880Y944880D02*
X443230D01*
X426972Y954789D02*
X436880Y944880D01*
X426972Y954789D02*
Y993140D01*
X656590Y992122D02*
X657608Y993140D01*
X656590Y966470D02*
Y992122D01*
X623570Y933450D02*
X656590Y966470D01*
X497840Y933450D02*
X623570D01*
X529590Y965200D02*
Y993140D01*
X497840Y933450D02*
X529590Y965200D01*
X430530Y933450D02*
X497840D01*
X401572Y962409D02*
X430530Y933450D01*
X401572Y962409D02*
Y993140D01*
X684278Y819658D02*
Y839722D01*
X556260Y819658D02*
Y843280D01*
X658878Y819658D02*
Y838452D01*
X503172Y1145540D02*
Y1150872D01*
X605790Y1145540D02*
Y1146810D01*
X554990Y1145540D02*
Y1159510D01*
X426972Y1145540D02*
Y1171191D01*
X657608Y1145540D02*
Y1166112D01*
X401572Y1145540D02*
Y1166112D01*
X661670Y1035050D02*
X683260D01*
X655320Y1041400D02*
X661670Y1035050D01*
X655320Y1041400D02*
Y1108710D01*
X640080Y1123950D02*
X655320Y1108710D01*
X582930Y1123950D02*
X640080D01*
X576580Y1117600D02*
X582930Y1123950D01*
X576580Y1107440D02*
Y1117600D01*
X562044Y1092904D02*
X576580Y1107440D01*
X550078Y1092904D02*
X562044D01*
X548242Y1094740D02*
X550078Y1092904D01*
X519430Y1094740D02*
X548242D01*
X515620Y1090930D02*
X519430Y1094740D01*
X489046Y1090930D02*
X515620D01*
X476912Y1103064D02*
X489046Y1090930D01*
X563880Y1022350D02*
X607060D01*
X502312Y1103064D02*
X554286D01*
X553720Y1008380D02*
X632460D01*
X525214Y1036886D02*
X553720Y1008380D01*
X503528Y1036886D02*
X525214D01*
X605790Y1071880D02*
X607060Y1073150D01*
X566420Y1071880D02*
X605790D01*
X539750Y1069340D02*
X556260Y1085850D01*
X417830Y1069340D02*
X539750D01*
X400712Y1086458D02*
X417830Y1069340D01*
X553720Y1064260D02*
X557530Y1060450D01*
X408940Y1064260D02*
X553720D01*
X400658Y1055978D02*
X408940Y1064260D01*
X551180Y1057910D02*
X561340Y1047750D01*
X433070Y1057910D02*
X551180D01*
X426058Y1050898D02*
X433070Y1057910D01*
X547370Y1051560D02*
X563880Y1035050D01*
X492802Y1051560D02*
X547370D01*
X478128Y1036886D02*
X492802Y1051560D01*
X445866Y1083310D02*
X525780D01*
X426112Y1103064D02*
X445866Y1083310D01*
X556260Y1085850D02*
X607060D01*
X557530Y1060450D02*
X607060D01*
X561340Y1047750D02*
X607060D01*
X563880Y1035050D02*
X607060D01*
Y1098550D02*
X632460D01*
X637540Y1093470D01*
Y1013460D02*
Y1093470D01*
X632460Y1008380D02*
X637540Y1013460D01*
X581626Y554366D02*
X586060Y558800D01*
X581626Y509924D02*
Y554366D01*
X319883Y452276D02*
X328930Y443230D01*
X319883Y452276D02*
Y459132D01*
X822344Y399329D02*
X844550Y421535D01*
Y429260D01*
X807720Y549670D02*
X818120D01*
X777480Y519430D02*
X807720Y549670D01*
X791872Y318108D02*
X800804D01*
X782320Y327660D02*
X791872Y318108D01*
X754380Y477520D02*
Y521730D01*
X777480Y544830D01*
X852778Y717209D02*
X853186Y716802D01*
X852778Y717209D02*
Y744836D01*
X879040Y734636D02*
X896874Y716802D01*
X879040Y734636D02*
Y744880D01*
X904040Y754380D02*
X916740Y741680D01*
X966470D01*
X990600Y765810D01*
Y801370D01*
X972820Y819150D02*
X990600Y801370D01*
X895350Y819150D02*
X972820D01*
X883920Y830580D02*
X895350Y819150D01*
X883920Y830580D02*
Y845210D01*
X793096Y1085196D02*
X805788D01*
X890270Y878840D02*
X909320Y859790D01*
Y845210D02*
Y859790D01*
X976596Y1065610D02*
X977292Y1064914D01*
X976596Y1065610D02*
Y1086554D01*
X805842Y1040834D02*
X869384D01*
X881380Y1052830D01*
Y1099820D01*
X904240Y1122680D01*
X981710D01*
X1001630Y1102760D01*
Y974090D02*
Y1102760D01*
X955250Y927710D02*
X1001630Y974090D01*
X909320Y927710D02*
X955250D01*
X277522Y795674D02*
X293370Y779826D01*
Y626110D02*
Y779826D01*
X274320Y607060D02*
X293370Y626110D01*
X220980Y607060D02*
X274320D01*
X206375Y621665D02*
X220980Y607060D01*
X206375Y621665D02*
Y639445D01*
X252730Y629920D02*
X253390D01*
X222250Y660400D02*
X252730Y629920D01*
X162560Y660400D02*
X222250D01*
X159385Y657225D02*
X162560Y660400D01*
X159385Y639445D02*
Y657225D01*
X331470Y878840D02*
X361950Y848360D01*
X328730Y878840D02*
X331470D01*
X340614Y783336D02*
X355600Y798322D01*
Y839470D01*
X346710Y848360D02*
X355600Y839470D01*
X311150Y848360D02*
X346710D01*
X303730Y855780D02*
X311150Y848360D01*
X303730Y855780D02*
Y869340D01*
X245770Y405130D02*
X259080D01*
X274320Y420370D01*
Y477478D01*
X260916Y490882D02*
X274320Y477478D01*
X241916Y490882D02*
Y521220D01*
X242004Y521308D01*
X260916Y521396D02*
X261004Y521308D01*
X260916Y521396D02*
Y551146D01*
X698656Y908616D02*
X699160Y909120D01*
X676248Y908616D02*
X698656D01*
X444656Y904806D02*
X445160Y905310D01*
X420978Y904806D02*
X444656D01*
X453390Y819910D02*
X453642Y819658D01*
X403252Y775404D02*
X425546Y753110D01*
X577850Y712470D02*
X603250D01*
X560070Y730250D02*
X577850Y712470D01*
X485140Y730250D02*
X560070D01*
X479398Y724508D02*
X485140Y730250D01*
X479398Y714306D02*
Y724508D01*
X575310Y725170D02*
X603250D01*
X562610Y737870D02*
X575310Y725170D01*
X436880Y737870D02*
X562610D01*
X428598Y729588D02*
X436880Y737870D01*
X428598Y714306D02*
Y729588D01*
X579120Y737870D02*
X603250D01*
X572770Y744220D02*
X579120Y737870D01*
X503582Y794404D02*
X504441Y795264D01*
Y819658D01*
X478182Y794404D02*
X479041Y795264D01*
Y819658D01*
X428242Y794815D02*
X428652Y794404D01*
X428242Y794815D02*
Y819658D01*
X402841Y794815D02*
X403252Y794404D01*
X402841Y794815D02*
Y819658D01*
X426058Y1036886D02*
Y1050898D01*
X400658Y1036886D02*
Y1055978D01*
X400712Y1086458D02*
Y1103064D01*
X503172Y1017530D02*
X503528Y1017886D01*
X503172Y993140D02*
Y1017530D01*
X477771D02*
X478128Y1017886D01*
X477771Y993140D02*
Y1017530D01*
X426058Y1017886D02*
X426972Y1016973D01*
Y993140D02*
Y1016973D01*
X400658Y1017886D02*
X401572Y1016973D01*
Y993140D02*
Y1016973D01*
X502312Y1122064D02*
X503172Y1122924D01*
Y1145540D01*
X476912Y1122064D02*
X477771Y1122924D01*
Y1145540D01*
X426112Y1122064D02*
X426972Y1122924D01*
Y1145540D01*
X400712Y1122064D02*
X401572Y1122924D01*
Y1145540D01*
X858520Y927710D02*
X876960Y946150D01*
X914400D01*
X934085Y965835D01*
X968333D01*
X977292Y974794D01*
X937876Y993794D02*
X977292D01*
X934085Y997585D02*
X937876Y993794D01*
X934085Y997585D02*
Y1012825D01*
X861163Y432047D02*
Y458573D01*
X904144Y501554D01*
Y536556D01*
X883920Y433832D02*
X904144Y454056D01*
X883920Y369254D02*
Y433832D01*
Y369254D02*
X904844Y348330D01*
X819804Y318108D02*
X822344Y320648D01*
Y348330D01*
X262186Y451416D02*
Y462942D01*
X231140Y420370D02*
X262186Y451416D01*
X231140Y368960D02*
Y420370D01*
Y368960D02*
X245770Y354330D01*
X223520Y440736D02*
X243186Y460402D01*
X223520Y354330D02*
Y440736D01*
X205105Y335915D02*
X223520Y354330D01*
X341020Y461113D02*
Y471830D01*
X344424Y475234D01*
Y491744D01*
X300736Y459280D02*
X300884Y459132D01*
X300736Y459280D02*
Y491744D01*
X245770Y338480D02*
Y354330D01*
X228600Y321310D02*
X245770Y338480D01*
X172720Y321310D02*
X228600D01*
X158115Y335915D02*
X172720Y321310D01*
X335890Y680720D02*
Y700380D01*
X349858Y714348D01*
Y728326D01*
X321564Y827024D02*
X340614D01*
X308002Y813462D02*
X321564Y827024D01*
X308002Y796944D02*
Y813462D01*
X250852Y683258D02*
X253390Y680720D01*
X250852Y683258D02*
Y729684D01*
Y748684D02*
Y780484D01*
X277522Y795674D02*
Y807058D01*
X271164Y813416D02*
X277522Y807058D01*
X271164Y813416D02*
Y826804D01*
X250852Y799484D02*
X252164Y800796D01*
Y826804D01*
X276933Y962660D02*
X277468Y963195D01*
Y998836D01*
X276933Y1069314D02*
X277522Y1068724D01*
X276933Y1069314D02*
Y1097280D01*
X193040Y962660D02*
X194918Y964538D01*
Y998836D01*
X193040Y1069386D02*
X193702Y1068724D01*
X193040Y1069386D02*
Y1096010D01*
D26*
X742000Y449668D02*
X776058D01*
X767080Y864870D02*
X792480Y839470D01*
Y825500D02*
Y839470D01*
Y825500D02*
X834390Y783590D01*
X718058Y889762D02*
X722630Y885190D01*
X814070Y938530D02*
Y979170D01*
X789940Y914400D02*
X814070Y938530D01*
X723392Y914400D02*
X789940D01*
X718058Y889762D02*
Y909066D01*
X723392Y914400D01*
X763270Y1029970D02*
X814070Y979170D01*
X329538Y523902D02*
X337212D01*
X337820Y515620D02*
X353060D01*
X329538Y523902D02*
X337820Y515620D01*
X306636Y523902D02*
X329538D01*
X352926Y745442D02*
X369570Y728798D01*
Y556260D02*
Y728798D01*
X337212Y523902D02*
X369570Y556260D01*
X349858Y747326D02*
X351742Y745442D01*
X352926D01*
X398780Y927100D02*
X474980D01*
X370840Y955040D02*
X398780Y927100D01*
X370840Y955040D02*
Y975360D01*
X176530Y924560D02*
X204470D01*
X161290Y939800D02*
X176530Y924560D01*
X161290Y939800D02*
Y1097280D01*
X218440Y938530D02*
Y946150D01*
X204470Y924560D02*
X218440Y938530D01*
X161290Y1097280D02*
X180340Y1116330D01*
X680720Y1060450D02*
X726440D01*
X734060Y1068070D01*
X763924Y376536D02*
X788704D01*
X742000Y398460D02*
X763924Y376536D01*
X742000Y398460D02*
Y449580D01*
X370840Y337820D02*
X387350Y321310D01*
X370840Y337820D02*
Y450137D01*
X359918Y461059D02*
X370840Y450137D01*
X296476Y1049724D02*
X370840Y975360D01*
X277522Y1049724D02*
X296476D01*
X277468Y1049670D02*
X277522Y1049724D01*
X277468Y1017836D02*
Y1049670D01*
X194918Y1017836D02*
X277468D01*
X193702Y1019052D02*
X194918Y1017836D01*
X193702Y1019052D02*
Y1049724D01*
X303784Y888238D02*
Y901446D01*
X295910Y909320D02*
X303784Y901446D01*
X171450Y909320D02*
X295910D01*
X149860Y930910D02*
X171450Y909320D01*
X149860Y930910D02*
Y1107440D01*
X172720Y1130300D01*
X327660D01*
X370840Y975360D02*
Y1087120D01*
X327660Y1130300D02*
X370840Y1087120D01*
X464058Y905256D02*
Y915670D01*
Y916178D02*
X474980Y927100D01*
X600710D01*
X589788Y909066D02*
X590336Y909613D01*
Y916725D01*
X600710Y927100D01*
X711200D01*
X718058Y920242D01*
Y909066D02*
Y920242D01*
X604520Y1111250D02*
X636270D01*
X640080Y1107440D01*
X748030Y1029970D02*
X763270D01*
X834390Y783590D02*
X868680D01*
X796290D02*
X834390D01*
X603250Y788670D02*
Y793750D01*
X608330Y798830D01*
X732790D01*
X760730Y770890D01*
Y748030D02*
Y770890D01*
X879094Y763778D02*
Y773176D01*
X868680Y783590D02*
X879094Y773176D01*
X760730Y748030D02*
X796290Y783590D01*
X750570Y737870D02*
X760730Y748030D01*
X679450Y737870D02*
X750570D01*
X781448D01*
X792480Y726838D01*
X778510Y718820D02*
X781050D01*
X792480Y647700D02*
Y726838D01*
X693420Y548640D02*
X792480Y647700D01*
X759460Y699770D02*
X778510Y718820D01*
X693420Y532370D02*
Y548640D01*
X680480Y519430D02*
X693420Y532370D01*
X661670Y548640D02*
X666750Y543560D01*
Y533160D02*
X680480Y519430D01*
X666750Y533160D02*
Y543560D01*
X626982Y548640D02*
X661670D01*
X621030Y542688D02*
X626982Y548640D01*
X621030Y496570D02*
Y542688D01*
X615384Y490924D02*
X621030Y496570D01*
X602546Y490924D02*
X615384D01*
X547936Y507780D02*
X564791Y490924D01*
X547936Y507780D02*
Y509236D01*
X580898Y491652D02*
X581626Y490924D01*
X565520Y491652D02*
X580898D01*
X581626Y490924D02*
X602546D01*
X613410Y480060D01*
Y408940D02*
Y480060D01*
X579755Y355727D02*
X600837D01*
X613410Y368300D01*
Y408940D01*
X624840Y397510D01*
X633730D01*
X327660Y962660D02*
X369570Y920750D01*
X302332Y962660D02*
X327660D01*
X349858Y747326D02*
X369570Y767038D01*
Y920750D01*
X302332Y948763D02*
Y962660D01*
X278130Y924560D02*
X302332Y948763D01*
X240030Y924560D02*
X278130D01*
X218440Y946150D02*
X240030Y924560D01*
X218440Y946150D02*
Y962660D01*
X180340Y1116330D02*
X223520D01*
X218440Y1096010D02*
Y1111250D01*
X223520Y1116330D01*
X297180D01*
X302332Y1111178D01*
Y1097280D02*
Y1111178D01*
X794316Y1104196D02*
X805788D01*
X787400Y1097280D02*
X794316Y1104196D01*
X742950Y1097280D02*
X787400D01*
X681990D02*
X742950D01*
Y1096935D02*
X751840Y1088045D01*
X680720Y1098550D02*
X681990Y1097280D01*
X751840Y1059180D02*
Y1088045D01*
X715010Y1022350D02*
X751840Y1059180D01*
X715010Y1022350D02*
X722630D01*
X680720D02*
X715010D01*
X722630D02*
X735330Y1009650D01*
X768350D01*
X793750Y984250D01*
Y938530D02*
Y984250D01*
X679450Y775970D02*
X707390D01*
X718820Y787400D01*
X656590Y775970D02*
X679450D01*
X648970Y768350D02*
X656590Y775970D01*
X648970Y751840D02*
Y768350D01*
X636270Y739140D02*
X648970Y751840D01*
X636270Y711200D02*
Y739140D01*
Y711200D02*
X647700Y699770D01*
X679450D01*
X759460D01*
X807720Y459740D02*
X815463Y451996D01*
Y432047D02*
Y451996D01*
X655000Y449668D02*
Y470850D01*
Y449580D02*
Y449668D01*
Y470850D02*
X674370Y490220D01*
X451485Y355600D02*
X451866Y355219D01*
X421640Y355600D02*
X451485D01*
X412750Y364490D02*
X421640Y355600D01*
X412750Y364490D02*
Y439420D01*
X422910Y449580D01*
Y472440D01*
X457200Y509304D02*
X488384D01*
X445804D02*
X457200D01*
X422910Y472440D02*
X457200Y506730D01*
Y509304D01*
X438150Y402590D02*
Y449580D01*
X483870Y495300D01*
X438150Y378986D02*
Y402590D01*
X427990Y392430D02*
X438150Y402590D01*
Y378986D02*
X453662Y363474D01*
X425450Y392430D02*
X427990D01*
X394970Y233026D02*
Y458470D01*
X387350Y321310D02*
Y461626D01*
X655000Y393380D02*
Y449580D01*
X680480Y519430D02*
X709930D01*
X742000Y487360D01*
Y449668D02*
Y487360D01*
X394970Y458470D02*
X445804Y509304D01*
X394970Y233026D02*
X419716Y208280D01*
X447108Y521384D02*
X503506D01*
X387350Y461626D02*
X447108Y521384D01*
X387350Y229870D02*
Y321310D01*
Y229870D02*
X417830Y199390D01*
X419716Y208280D02*
X462280D01*
X472440Y218440D01*
Y234950D01*
X497840Y215900D02*
Y234950D01*
X481330Y199390D02*
X497840Y215900D01*
X417830Y199390D02*
X481330D01*
X503506Y521384D02*
X507384Y517506D01*
Y509304D02*
Y517506D01*
Y499764D02*
Y509304D01*
X502920Y495300D02*
X507384Y499764D01*
X483870Y495300D02*
X502920D01*
X453662Y363474D02*
X464566D01*
X609727Y348107D02*
X655000Y393380D01*
X579755Y348107D02*
X609727D01*
X451866Y355219D02*
X464185D01*
X439547Y342900D02*
X451866Y355219D01*
X435610Y342900D02*
X439547D01*
X604520Y299720D02*
X655000Y350200D01*
Y393380D01*
X783590Y1049020D02*
X794404Y1059834D01*
X783590Y1021080D02*
Y1049020D01*
X993140Y1009642D02*
Y1096010D01*
X983596Y1105554D02*
X993140Y1096010D01*
X976596Y1105554D02*
X983596D01*
X788704Y405288D02*
X815463Y432047D01*
X788704Y395536D02*
Y405288D01*
X636270Y503080D02*
X650848Y517659D01*
X636270Y468397D02*
Y503080D01*
Y468397D02*
X655000Y449668D01*
X861163Y316334D02*
Y432047D01*
X820420Y275590D02*
X861163Y316334D01*
X668020Y275590D02*
X820420D01*
X656855Y286755D02*
X668020Y275590D01*
X656855Y286755D02*
Y309748D01*
X788704Y365794D02*
Y376536D01*
X761095Y338185D02*
X788704Y365794D01*
X743855Y338185D02*
X761095D01*
X277522Y635662D02*
Y776674D01*
X271780Y629920D02*
X277522Y635662D01*
X253390Y629920D02*
X271780D01*
X977292Y993794D02*
X993140Y1009642D01*
X794404Y1059834D02*
X805842D01*
X783590Y1021080D02*
X814705Y989965D01*
X864235D01*
X920184Y1045914D02*
X977292D01*
X864235Y989965D02*
X920184Y1045914D01*
X776058Y449668D02*
X832437Y506047D01*
X838314D01*
X936710Y554990D02*
X955144Y536556D01*
X848360Y554990D02*
X936710D01*
X838314Y544944D02*
X848360Y554990D01*
X838314Y506047D02*
Y544944D01*
X691584Y344477D02*
Y378494D01*
X656855Y309748D02*
X691584Y344477D01*
X710584Y371456D02*
Y378494D01*
Y371456D02*
X743855Y338185D01*
Y309748D02*
Y338185D01*
X528936Y509236D02*
Y513734D01*
X501060Y541610D02*
X528936Y513734D01*
X501060Y541610D02*
Y558800D01*
D27*
X453642Y819658D02*
D03*
X402841D02*
D03*
X428242D02*
D03*
X504441Y667258D02*
D03*
X428242D02*
D03*
X479041D02*
D03*
X504441Y819658D02*
D03*
X479041D02*
D03*
X453642Y667258D02*
D03*
X709678Y819658D02*
D03*
X658878D02*
D03*
X684278D02*
D03*
X760479Y667258D02*
D03*
X684278D02*
D03*
X735079D02*
D03*
X760479Y819658D02*
D03*
X735079D02*
D03*
X709678Y667258D02*
D03*
X581660Y819658D02*
D03*
X530860D02*
D03*
X556260D02*
D03*
X632460Y667258D02*
D03*
X556260D02*
D03*
X607060D02*
D03*
X632460Y819658D02*
D03*
X607060D02*
D03*
X581660Y667258D02*
D03*
X580390Y1145540D02*
D03*
X529590D02*
D03*
X554990D02*
D03*
X631190Y993140D02*
D03*
X554990D02*
D03*
X605790D02*
D03*
X631190Y1145540D02*
D03*
X605790D02*
D03*
X580390Y993140D02*
D03*
X708409D02*
D03*
X733809Y1145540D02*
D03*
X759209D02*
D03*
X733809Y993140D02*
D03*
X683008D02*
D03*
X759209D02*
D03*
X683008Y1145540D02*
D03*
X657608D02*
D03*
X708409D02*
D03*
X452371Y993140D02*
D03*
X477771Y1145540D02*
D03*
X503172D02*
D03*
X477771Y993140D02*
D03*
X426972D02*
D03*
X503172D02*
D03*
X426972Y1145540D02*
D03*
X401572D02*
D03*
X452371D02*
D03*
D28*
X402841Y667258D02*
D03*
X658878D02*
D03*
X530860D02*
D03*
X529590Y993140D02*
D03*
X657608D02*
D03*
X401572D02*
D03*
D29*
X948690Y704850D02*
D03*
X173990Y871220D02*
D03*
X180340Y549910D02*
D03*
X958850Y333502D02*
D03*
D30*
X948690Y781050D02*
D03*
X173990Y795020D02*
D03*
X180340Y473710D02*
D03*
X958850Y409702D02*
D03*
D31*
X928370Y1087120D02*
D03*
D32*
X852170D02*
D03*
D33*
X574040Y234950D02*
D03*
X548640D02*
D03*
X523240D02*
D03*
X497840D02*
D03*
X472440D02*
D03*
D34*
X447040D02*
D03*
D35*
X218440Y1096010D02*
D03*
X302332Y1097280D02*
D03*
X218440Y962660D02*
D03*
X302332D02*
D03*
D36*
X193040Y1096010D02*
D03*
X276933Y1097280D02*
D03*
X193040Y962660D02*
D03*
X276933D02*
D03*
D37*
X749300Y852170D02*
D03*
X767080Y864870D02*
D03*
X713740Y854710D02*
D03*
X617220Y848360D02*
D03*
X594360Y858520D02*
D03*
X508000Y848360D02*
D03*
X548640Y869950D02*
D03*
X494030Y861060D02*
D03*
X669290Y854710D02*
D03*
X684530Y866140D02*
D03*
X445770Y854710D02*
D03*
X728980Y1176020D02*
D03*
X610870Y1174750D02*
D03*
X508000D02*
D03*
X690880Y1186180D02*
D03*
X581660Y1187450D02*
D03*
X490220D02*
D03*
X657860Y1197610D02*
D03*
X529590D02*
D03*
X449580Y1196340D02*
D03*
X722630Y885190D02*
D03*
X781050Y718820D02*
D03*
X767080Y726440D02*
D03*
X722630Y549910D02*
D03*
X538480Y492760D02*
D03*
X740410Y1083310D02*
D03*
X410972Y349758D02*
D03*
X439420Y835660D02*
D03*
X392430Y845820D02*
D03*
X521970Y491490D02*
D03*
X466090Y618490D02*
D03*
X452120Y605790D02*
D03*
X513080Y635000D02*
D03*
X553974Y483616D02*
D03*
X497840Y430530D02*
D03*
X496570Y450850D02*
D03*
X478790Y458470D02*
D03*
X370840Y477520D02*
D03*
X670560Y579120D02*
D03*
X648970Y560070D02*
D03*
X712470Y756920D02*
D03*
X386080Y795020D02*
D03*
X614680Y891540D02*
D03*
X575310Y473710D02*
D03*
X735330Y768350D02*
D03*
X793750Y938530D02*
D03*
X826770Y876300D02*
D03*
X872490Y878840D02*
D03*
X478790Y436880D02*
D03*
X712470Y1041400D02*
D03*
X748030Y1029970D02*
D03*
X594360Y439420D02*
D03*
X511810Y468630D02*
D03*
X566420Y505460D02*
D03*
X449580Y426720D02*
D03*
X425450Y392430D02*
D03*
X388620Y497840D02*
D03*
X603250Y334010D02*
D03*
X633730Y535940D02*
D03*
X422910Y449580D02*
D03*
X552450Y270510D02*
D03*
X633730Y397510D02*
D03*
X435610Y342900D02*
D03*
X604520Y299720D02*
D03*
X621030Y339090D02*
D03*
X718820Y787400D02*
D03*
X568960Y770890D02*
D03*
X534670Y698500D02*
D03*
X572770Y789940D02*
D03*
X558800Y707390D02*
D03*
X534670Y772160D02*
D03*
X523240Y783590D02*
D03*
X648970Y730250D02*
D03*
X457200Y772160D02*
D03*
X637540Y760730D02*
D03*
X269240Y939800D02*
D03*
X320040Y542290D02*
D03*
X353060Y515620D02*
D03*
X495300Y480060D02*
D03*
X345440Y1038860D02*
D03*
X246380Y1090930D02*
D03*
X177800Y993140D02*
D03*
X711200Y1073150D02*
D03*
X734060Y1068070D02*
D03*
X787400Y1075690D02*
D03*
X720090Y1108710D02*
D03*
X736348Y1117600D02*
D03*
X398780Y754380D02*
D03*
X397510Y897890D02*
D03*
X543560Y1125220D02*
D03*
X396240Y873760D02*
D03*
X452371Y1116581D02*
D03*
X742950Y635000D02*
D03*
X617220D02*
D03*
X702310Y618490D02*
D03*
X581660D02*
D03*
X657860Y605790D02*
D03*
X533400D02*
D03*
X742950Y970280D02*
D03*
X614680D02*
D03*
X509270D02*
D03*
X712470Y955040D02*
D03*
X580390D02*
D03*
X474980D02*
D03*
X656590Y944880D02*
D03*
X534670D02*
D03*
X443230D02*
D03*
X640080Y1107440D02*
D03*
X563880Y1022350D02*
D03*
X554286Y1103064D02*
D03*
X566420Y1071880D02*
D03*
X525780Y1083310D02*
D03*
X328930Y443230D02*
D03*
X674370Y490220D02*
D03*
X807720Y459740D02*
D03*
X844550Y429260D02*
D03*
X818120Y549670D02*
D03*
X782320Y327660D02*
D03*
X754380Y477520D02*
D03*
D38*
X581626Y490924D02*
D03*
Y509924D02*
D03*
X650848Y517659D02*
D03*
Y536659D02*
D03*
X788704Y395536D02*
D03*
Y376536D02*
D03*
X852778Y744836D02*
D03*
Y763836D02*
D03*
X504798Y695306D02*
D03*
Y714306D02*
D03*
X479398Y695306D02*
D03*
Y714306D02*
D03*
X428598Y695306D02*
D03*
Y714306D02*
D03*
X403198Y695306D02*
D03*
Y714306D02*
D03*
X503582Y794404D02*
D03*
Y775404D02*
D03*
X478182Y794404D02*
D03*
Y775404D02*
D03*
X428652Y794404D02*
D03*
Y775404D02*
D03*
X403252Y794404D02*
D03*
Y775404D02*
D03*
X676248Y889616D02*
D03*
Y908616D02*
D03*
X547978Y890886D02*
D03*
Y909886D02*
D03*
X420978Y885806D02*
D03*
Y904806D02*
D03*
X805842Y1059834D02*
D03*
Y1040834D02*
D03*
X805788Y1085196D02*
D03*
Y1104196D02*
D03*
X503528Y1017886D02*
D03*
Y1036886D02*
D03*
X478128Y1017886D02*
D03*
Y1036886D02*
D03*
X426058Y1017886D02*
D03*
Y1036886D02*
D03*
X400658Y1017886D02*
D03*
Y1036886D02*
D03*
X502312Y1122064D02*
D03*
Y1103064D02*
D03*
X476912Y1122064D02*
D03*
Y1103064D02*
D03*
X426112Y1122064D02*
D03*
Y1103064D02*
D03*
X400712Y1122064D02*
D03*
Y1103064D02*
D03*
X308002Y796944D02*
D03*
Y777944D02*
D03*
X250852Y748684D02*
D03*
Y729684D02*
D03*
X277522Y795674D02*
D03*
Y776674D02*
D03*
X250852Y799484D02*
D03*
Y780484D02*
D03*
X277468Y998836D02*
D03*
Y1017836D02*
D03*
X194918Y998836D02*
D03*
Y1017836D02*
D03*
X277522Y1068724D02*
D03*
Y1049724D02*
D03*
X193702Y1068724D02*
D03*
Y1049724D02*
D03*
X976596Y1086554D02*
D03*
Y1105554D02*
D03*
X977292Y1064914D02*
D03*
Y1045914D02*
D03*
Y993794D02*
D03*
Y974794D02*
D03*
X349858Y728326D02*
D03*
Y747326D02*
D03*
D39*
X547936Y509236D02*
D03*
X528936D02*
D03*
X488384Y509304D02*
D03*
X507384D02*
D03*
X691584Y378494D02*
D03*
X710584D02*
D03*
X252164Y826804D02*
D03*
X271164D02*
D03*
X287636Y523902D02*
D03*
X306636D02*
D03*
X260916Y551146D02*
D03*
X241916D02*
D03*
X261004Y521308D02*
D03*
X242004D02*
D03*
X241916Y490882D02*
D03*
X260916D02*
D03*
X243186Y462942D02*
D03*
X262186D02*
D03*
X300884Y459132D02*
D03*
X319883D02*
D03*
X819804Y318108D02*
D03*
X800804D02*
D03*
D40*
X655000Y449580D02*
D03*
X742000D02*
D03*
X656855Y309748D02*
D03*
X743855D02*
D03*
D41*
X896874Y716802D02*
D03*
X853186D02*
D03*
X344424Y491744D02*
D03*
X300736D02*
D03*
D42*
X570890Y909120D02*
D03*
X589788Y909066D02*
D03*
X580390Y884120D02*
D03*
X341020Y461113D02*
D03*
X359918Y461059D02*
D03*
X350520Y436113D02*
D03*
X445160Y905310D02*
D03*
X464058Y905256D02*
D03*
X454660Y880310D02*
D03*
X699160Y909120D02*
D03*
X718058Y909066D02*
D03*
X708660Y884120D02*
D03*
D43*
X858520Y845210D02*
D03*
X909320D02*
D03*
X883920D02*
D03*
X858520Y927710D02*
D03*
X909320D02*
D03*
X883920D02*
D03*
D44*
X604520Y1022350D02*
D03*
X603250Y699770D02*
D03*
D45*
X680720Y1022350D02*
D03*
X604520Y1035050D02*
D03*
Y1047750D02*
D03*
Y1060450D02*
D03*
Y1073150D02*
D03*
Y1085850D02*
D03*
Y1098550D02*
D03*
Y1111250D02*
D03*
X680720D02*
D03*
Y1098550D02*
D03*
Y1085850D02*
D03*
Y1073150D02*
D03*
Y1060450D02*
D03*
Y1047750D02*
D03*
Y1035050D02*
D03*
X679450Y712470D02*
D03*
Y725170D02*
D03*
Y737870D02*
D03*
Y750570D02*
D03*
Y763270D02*
D03*
Y775970D02*
D03*
Y788670D02*
D03*
X603250D02*
D03*
Y775970D02*
D03*
Y763270D02*
D03*
Y750570D02*
D03*
Y737870D02*
D03*
Y725170D02*
D03*
Y712470D02*
D03*
X679450Y699770D02*
D03*
D46*
X303730Y869340D02*
D03*
X303784Y888238D02*
D03*
X328730Y878840D02*
D03*
X879040Y744880D02*
D03*
X879094Y763778D02*
D03*
X904040Y754380D02*
D03*
D47*
X340614Y783336D02*
D03*
Y827024D02*
D03*
D48*
X253390Y655320D02*
D03*
Y680720D02*
D03*
Y629920D02*
D03*
X335890Y655320D02*
D03*
Y680720D02*
D03*
Y629920D02*
D03*
X327000Y354330D02*
D03*
Y405130D02*
D03*
Y379730D02*
D03*
X244500Y354330D02*
D03*
Y405130D02*
D03*
Y379730D02*
D03*
D49*
X205105Y335915D02*
D03*
X158115D02*
D03*
X159385Y639445D02*
D03*
X206375D02*
D03*
D50*
X182245Y405765D02*
D03*
X183515Y709295D02*
D03*
D51*
X561848Y413004D02*
D03*
X553974D02*
D03*
X545846D02*
D03*
X537972D02*
D03*
X529844D02*
D03*
X521970D02*
D03*
X514096D02*
D03*
X505968D02*
D03*
X498094D02*
D03*
X489966D02*
D03*
X482092D02*
D03*
Y298196D02*
D03*
X489966D02*
D03*
X498094D02*
D03*
X505968D02*
D03*
X514096D02*
D03*
X521970D02*
D03*
X529844D02*
D03*
X537972D02*
D03*
X545846D02*
D03*
X553974D02*
D03*
X561848D02*
D03*
D52*
X464566Y395478D02*
D03*
Y387604D02*
D03*
Y379476D02*
D03*
Y371602D02*
D03*
Y363474D02*
D03*
Y355600D02*
D03*
Y347726D02*
D03*
Y339598D02*
D03*
Y331724D02*
D03*
Y323596D02*
D03*
Y315722D02*
D03*
X579374D02*
D03*
Y323596D02*
D03*
Y331724D02*
D03*
Y339598D02*
D03*
Y347726D02*
D03*
Y355600D02*
D03*
Y363474D02*
D03*
Y371602D02*
D03*
Y379476D02*
D03*
Y387604D02*
D03*
Y395478D02*
D03*
D53*
X586060Y558800D02*
D03*
X501060D02*
D03*
D54*
X955144Y536556D02*
D03*
X904144D02*
D03*
X955144Y454056D02*
D03*
X904144D02*
D03*
D55*
X861163Y432047D02*
D03*
X815463Y432047D02*
D03*
D56*
X838314Y506047D02*
D03*
D57*
X934085Y965835D02*
D03*
Y1012825D02*
D03*
D58*
X864235Y989965D02*
D03*
D59*
X822344Y399329D02*
D03*
Y348330D02*
D03*
X904844Y399329D02*
D03*
Y348330D02*
D03*
D60*
X777480Y544830D02*
D03*
Y519430D02*
D03*
X680480D02*
D03*
Y544830D02*
D03*
D61*
X866140Y1134110D02*
X988060D01*
X852170Y1120140D02*
X866140Y1134110D01*
X852170Y1087120D02*
Y1120140D01*
X842010Y829310D02*
Y967740D01*
Y829310D02*
X863600Y807720D01*
X922020D01*
X842010Y967740D02*
X864235Y989965D01*
X988060Y1134110D02*
X1012190Y1109980D01*
X1012190Y768350D01*
X948690Y704850D02*
X1012190Y768350D01*
X173990Y718820D02*
X183515Y709295D01*
X173990Y718820D02*
Y795020D01*
X221642Y490882D02*
X241916D01*
X204470Y473710D02*
X221642Y490882D01*
X180340Y473710D02*
X204470D01*
X182880Y358140D02*
X205105Y335915D01*
X153670Y358140D02*
X182880D01*
X139700Y372110D02*
X153670Y358140D01*
X139700Y372110D02*
Y509270D01*
X180340Y549910D01*
X922020Y807720D02*
X948690Y781050D01*
X946804Y1105554D02*
X976596D01*
X928370Y1087120D02*
X946804Y1105554D01*
X955144Y454056D02*
X958850Y450350D01*
Y409702D02*
Y450350D01*
X904844Y399329D02*
X915217Y409702D01*
X958850D01*
X904844Y348330D02*
X919672Y333502D01*
X958850D01*
X180340Y407670D02*
X182245Y405765D01*
X180340Y407670D02*
Y473710D01*
X241916Y551146D02*
Y565804D01*
X232410Y575310D02*
X241916Y565804D01*
X205740Y575310D02*
X232410D01*
X180340Y549910D02*
X205740Y575310D01*
X231706Y780484D02*
X250852D01*
X217170Y795020D02*
X231706Y780484D01*
X173990Y795020D02*
X217170D01*
X271164Y826804D02*
Y850246D01*
X250190Y871220D02*
X271164Y850246D01*
X173990Y871220D02*
X250190D01*
M02*
