G04*
G04 #@! TF.GenerationSoftware,Altium Limited,Altium Designer,18.0.7 (293)*
G04*
G04 Layer_Color=65535*
%FSTAX24Y24*%
%MOIN*%
G70*
G01*
G75*
%ADD10C,0.0120*%
%ADD11C,0.0100*%
%ADD12C,0.0050*%
%ADD13C,0.0150*%
%ADD14C,0.0250*%
G36*
X048999Y015945D02*
X048289D01*
X048639Y015595D01*
Y015585D01*
X048999Y015945D01*
D02*
G37*
D10*
X040646Y04481D02*
G03*
X040646Y04481I-00006J0D01*
G01*
X044246D02*
G03*
X044246Y04481I-00006J0D01*
G01*
X047646D02*
G03*
X047646Y04481I-00006J0D01*
G01*
X040646Y037129D02*
G03*
X040646Y037129I-00006J0D01*
G01*
X044246D02*
G03*
X044246Y037129I-00006J0D01*
G01*
X047646D02*
G03*
X047646Y037129I-00006J0D01*
G01*
D11*
X038896Y04631D02*
Y04751D01*
X038996Y04761D02*
X040196D01*
X038996Y04621D02*
X040196D01*
X040296Y04631D02*
Y04751D01*
Y04491D02*
Y04611D01*
X038996Y04481D02*
X040196D01*
X038996Y04621D02*
X040196D01*
X038896Y04491D02*
Y04611D01*
X042496Y04491D02*
Y04611D01*
X042596Y04621D02*
X043796D01*
X042596Y04481D02*
X043796D01*
X043896Y04491D02*
Y04611D01*
Y04631D02*
Y04751D01*
X042596Y04621D02*
X043796D01*
X042596Y04761D02*
X043796D01*
X042496Y04631D02*
Y04751D01*
X045896Y04491D02*
Y04611D01*
X045996Y04621D02*
X047196D01*
X045996Y04481D02*
X047196D01*
X047296Y04491D02*
Y04611D01*
Y04631D02*
Y04751D01*
X045996Y04621D02*
X047196D01*
X045996Y04761D02*
X047196D01*
X045896Y04631D02*
Y04751D01*
X038896Y038629D02*
Y039829D01*
X038996Y039929D02*
X040196D01*
X038996Y038529D02*
X040196D01*
X040296Y038629D02*
Y039829D01*
Y037229D02*
Y038429D01*
X038996Y037129D02*
X040196D01*
X038996Y038529D02*
X040196D01*
X038896Y037229D02*
Y038429D01*
X042496Y037229D02*
Y038429D01*
X042596Y038529D02*
X043796D01*
X042596Y037129D02*
X043796D01*
X043896Y037229D02*
Y038429D01*
Y038629D02*
Y039829D01*
X042596Y038529D02*
X043796D01*
X042596Y039929D02*
X043796D01*
X042496Y038629D02*
Y039829D01*
X045896Y037229D02*
Y038429D01*
X045996Y038529D02*
X047196D01*
X045996Y037129D02*
X047196D01*
X047296Y037229D02*
Y038429D01*
Y038629D02*
Y039829D01*
X045996Y038529D02*
X047196D01*
X045996Y039929D02*
X047196D01*
X045896Y038629D02*
Y039829D01*
X039246Y04291D02*
X039377D01*
X039312D01*
Y043303D01*
X039246Y043238D01*
Y035229D02*
X039377D01*
X039312D01*
Y035623D01*
X039246Y035557D01*
X035846Y043167D02*
Y042567D01*
X036246D01*
X036846D02*
X036446D01*
X036846Y042967D01*
Y043067D01*
X036746Y043167D01*
X036546D01*
X036446Y043067D01*
X035844Y050849D02*
Y050249D01*
X036244D01*
X036444D02*
X036644D01*
X036544D01*
Y050849D01*
X036444Y050749D01*
X007438Y052184D02*
X007838D01*
X007638D01*
Y051585D01*
X008038D02*
X008238D01*
X008138D01*
Y052184D01*
X008038Y052084D01*
X006009Y019157D02*
X006409D01*
X006209D01*
Y018557D01*
X007009D02*
X006609D01*
X007009Y018957D01*
Y019057D01*
X006909Y019157D01*
X006709D01*
X006609Y019057D01*
X055484Y0304D02*
Y0298D01*
Y0301D01*
X055884D01*
Y0304D01*
Y0298D01*
X056484Y0304D02*
X056084D01*
Y0301D01*
X056284Y0302D01*
X056384D01*
X056484Y0301D01*
Y0299D01*
X056384Y0298D01*
X056184D01*
X056084Y0299D01*
X055484Y0362D02*
Y0356D01*
Y0359D01*
X055884D01*
Y0362D01*
Y0356D01*
X056384D02*
Y0362D01*
X056084Y0359D01*
X056484D01*
X055484Y04195D02*
Y04135D01*
Y04165D01*
X055884D01*
Y04195D01*
Y04135D01*
X056084Y04185D02*
X056184Y04195D01*
X056384D01*
X056484Y04185D01*
Y04175D01*
X056384Y04165D01*
X056284D01*
X056384D01*
X056484Y04155D01*
Y04145D01*
X056384Y04135D01*
X056184D01*
X056084Y04145D01*
X055484Y0478D02*
Y0472D01*
Y0475D01*
X055884D01*
Y0478D01*
Y0472D01*
X056484D02*
X056084D01*
X056484Y0476D01*
Y0477D01*
X056384Y0478D01*
X056184D01*
X056084Y0477D01*
X047614Y01684D02*
Y01624D01*
Y01654D01*
X048014D01*
Y01684D01*
Y01624D01*
X048214D02*
X048414D01*
X048314D01*
Y01684D01*
X048214Y01674D01*
D12*
X005938Y01823D02*
X009481D01*
X005938Y014057D02*
Y01823D01*
Y014057D02*
X009481D01*
Y01823D01*
D13*
X054144Y01485D02*
X054644D01*
X053644Y01215D02*
X054644D01*
X053644D02*
Y01335D01*
X052644D02*
X053644D01*
X052644Y01215D02*
Y01335D01*
X049644Y01215D02*
X052644D01*
X049644D02*
Y01335D01*
X048644D02*
X049644D01*
X048644Y01215D02*
Y01335D01*
X047594Y01215D02*
X048644D01*
X054644D02*
Y01485D01*
X047594Y01215D02*
Y01485D01*
X048194D01*
D14*
X055505Y029376D02*
X057757D01*
Y026424D02*
Y029376D01*
X055505Y026424D02*
X057757D01*
X055505D02*
Y029376D01*
Y035176D02*
X057757D01*
Y032224D02*
Y035176D01*
X055505Y032224D02*
X057757D01*
X055505D02*
Y035176D01*
Y040926D02*
X057757D01*
Y037974D02*
Y040926D01*
X055505Y037974D02*
X057757D01*
X055505D02*
Y040926D01*
Y046776D02*
X057757D01*
Y043824D02*
Y046776D01*
X055505Y043824D02*
X057757D01*
X055505D02*
Y046776D01*
M02*
