G04*
G04 #@! TF.GenerationSoftware,Altium Limited,Altium Designer,18.0.7 (293)*
G04*
G04 Layer_Color=65535*
%FSLAX44Y44*%
%MOMM*%
G71*
G01*
G75*
%ADD10C,0.2540*%
%ADD11C,0.2032*%
%ADD12C,0.1524*%
%ADD13C,0.2000*%
%ADD14C,0.3810*%
%ADD15C,0.6350*%
G36*
X456057Y262763D02*
X438023D01*
X446913Y253873D01*
Y253619D01*
X456057Y262763D01*
D02*
G37*
D10*
X502160Y695452D02*
X501731Y697886D01*
X500495Y700026D01*
X498602Y701615D01*
X496279Y702460D01*
X493808D01*
X491485Y701615D01*
X489592Y700026D01*
X488356Y697886D01*
X487927Y695452D01*
X488356Y693018D01*
X489592Y690878D01*
X491485Y689289D01*
X493808Y688444D01*
X496279D01*
X498602Y689289D01*
X500495Y690878D01*
X501731Y693018D01*
X502160Y695452D01*
X758197D02*
X757768Y697886D01*
X756532Y700026D01*
X754639Y701615D01*
X752316Y702460D01*
X749845D01*
X747522Y701615D01*
X745629Y700026D01*
X744393Y697886D01*
X743964Y695452D01*
X744393Y693018D01*
X745629Y690878D01*
X747522Y689289D01*
X749845Y688444D01*
X752316D01*
X754639Y689289D01*
X756532Y690878D01*
X757768Y693018D01*
X758197Y695452D01*
X630178D02*
X629749Y697886D01*
X628514Y700026D01*
X626620Y701615D01*
X624298Y702460D01*
X621826D01*
X619504Y701615D01*
X617610Y700026D01*
X616375Y697886D01*
X615946Y695452D01*
X616375Y693018D01*
X617610Y690878D01*
X619504Y689289D01*
X621826Y688444D01*
X624298D01*
X626620Y689289D01*
X628514Y690878D01*
X629749Y693018D01*
X630178Y695452D01*
X628909Y1021334D02*
X628479Y1023768D01*
X627244Y1025908D01*
X625350Y1027497D01*
X623028Y1028342D01*
X620556D01*
X618234Y1027497D01*
X616340Y1025908D01*
X615105Y1023768D01*
X614675Y1021334D01*
X615105Y1018900D01*
X616340Y1016760D01*
X618234Y1015171D01*
X620556Y1014326D01*
X623028D01*
X625350Y1015171D01*
X627244Y1016760D01*
X628479Y1018900D01*
X628909Y1021334D01*
X756927D02*
X756498Y1023768D01*
X755262Y1025908D01*
X753369Y1027497D01*
X751046Y1028342D01*
X748575D01*
X746252Y1027497D01*
X744359Y1025908D01*
X743123Y1023768D01*
X742694Y1021334D01*
X743123Y1018900D01*
X744359Y1016760D01*
X746252Y1015171D01*
X748575Y1014326D01*
X751046D01*
X753369Y1015171D01*
X755262Y1016760D01*
X756498Y1018900D01*
X756927Y1021334D01*
X500890D02*
X500461Y1023768D01*
X499225Y1025908D01*
X497332Y1027497D01*
X495009Y1028342D01*
X492538D01*
X490215Y1027497D01*
X488322Y1025908D01*
X487086Y1023768D01*
X486657Y1021334D01*
X487086Y1018900D01*
X488322Y1016760D01*
X490215Y1015171D01*
X492538Y1014326D01*
X495009D01*
X497332Y1015171D01*
X499225Y1016760D01*
X500461Y1018900D01*
X500890Y1021334D01*
X928370Y471673D02*
Y456438D01*
Y461516D01*
X938527Y471673D01*
X930909Y464055D01*
X938527Y456438D01*
X953762Y471673D02*
X943605D01*
Y464055D01*
X948683D01*
X943605D01*
Y456438D01*
X968997Y471673D02*
X958840D01*
Y464055D01*
X963919Y466595D01*
X966458D01*
X968997Y464055D01*
Y458977D01*
X966458Y456438D01*
X961379D01*
X958840Y458977D01*
X87884Y612897D02*
Y597662D01*
Y602740D01*
X98041Y612897D01*
X90423Y605280D01*
X98041Y597662D01*
X113276Y612897D02*
X103119D01*
Y605280D01*
X108197D01*
X103119D01*
Y597662D01*
X125972D02*
Y612897D01*
X118354Y605280D01*
X128511D01*
X81534Y934207D02*
Y918972D01*
Y924050D01*
X91691Y934207D01*
X84073Y926590D01*
X91691Y918972D01*
X106926Y934207D02*
X96769D01*
Y926590D01*
X101847D01*
X96769D01*
Y918972D01*
X112004Y931668D02*
X114543Y934207D01*
X119622D01*
X122161Y931668D01*
Y929129D01*
X119622Y926590D01*
X117083D01*
X119622D01*
X122161Y924050D01*
Y921511D01*
X119622Y918972D01*
X114543D01*
X112004Y921511D01*
X815594Y1204971D02*
Y1189736D01*
Y1194814D01*
X825751Y1204971D01*
X818133Y1197354D01*
X825751Y1189736D01*
X840986Y1204971D02*
X830829D01*
Y1197354D01*
X835907D01*
X830829D01*
Y1189736D01*
X856221D02*
X846064D01*
X856221Y1199893D01*
Y1202432D01*
X853682Y1204971D01*
X848603D01*
X846064Y1202432D01*
X918210Y843021D02*
Y827786D01*
Y832864D01*
X928367Y843021D01*
X920749Y835404D01*
X928367Y827786D01*
X943602Y843021D02*
X933445D01*
Y835404D01*
X938523D01*
X933445D01*
Y827786D01*
X948680D02*
X953758D01*
X951219D01*
Y843021D01*
X948680Y840482D01*
X167640Y1144519D02*
Y1129284D01*
Y1136901D01*
X177797D01*
Y1144519D01*
Y1129284D01*
X193032Y1144519D02*
X182875D01*
Y1136901D01*
X187953Y1139441D01*
X190493D01*
X193032Y1136901D01*
Y1131823D01*
X190493Y1129284D01*
X185414D01*
X182875Y1131823D01*
X251460Y1145789D02*
Y1130554D01*
Y1138171D01*
X261617D01*
Y1145789D01*
Y1130554D01*
X274313D02*
Y1145789D01*
X266695Y1138171D01*
X276852D01*
X167640Y1011169D02*
Y995934D01*
Y1003551D01*
X177797D01*
Y1011169D01*
Y995934D01*
X182875Y1008630D02*
X185414Y1011169D01*
X190493D01*
X193032Y1008630D01*
Y1006091D01*
X190493Y1003551D01*
X187953D01*
X190493D01*
X193032Y1001012D01*
Y998473D01*
X190493Y995934D01*
X185414D01*
X182875Y998473D01*
X251460Y1011169D02*
Y995934D01*
Y1003551D01*
X261617D01*
Y1011169D01*
Y995934D01*
X276852D02*
X266695D01*
X276852Y1006091D01*
Y1008630D01*
X274313Y1011169D01*
X269234D01*
X266695Y1008630D01*
X420878Y285491D02*
Y270256D01*
Y277873D01*
X431035D01*
Y285491D01*
Y270256D01*
X436113D02*
X441191D01*
X438652D01*
Y285491D01*
X436113Y282952D01*
X661670Y801365D02*
X671827D01*
Y798826D01*
X661670Y788669D01*
Y786130D01*
X546097Y802635D02*
X541018Y800096D01*
X535940Y795017D01*
Y789939D01*
X538479Y787400D01*
X543558D01*
X546097Y789939D01*
Y792478D01*
X543558Y795017D01*
X535940D01*
X414017Y798825D02*
X403860D01*
Y791208D01*
X408938Y793747D01*
X411478D01*
X414017Y791208D01*
Y786129D01*
X411478Y783590D01*
X406399D01*
X403860Y786129D01*
X759457Y1172210D02*
Y1187445D01*
X751840Y1179827D01*
X761997D01*
X617220Y1061716D02*
X619759Y1064255D01*
X624837D01*
X627377Y1061716D01*
Y1059177D01*
X624837Y1056637D01*
X622298D01*
X624837D01*
X627377Y1054098D01*
Y1051559D01*
X624837Y1049020D01*
X619759D01*
X617220Y1051559D01*
X382137Y1147699D02*
X371981D01*
X382137Y1157856D01*
Y1160395D01*
X379598Y1162934D01*
X374520D01*
X371981Y1160395D01*
D11*
X1009162Y781050D02*
X1008832Y783553D01*
X1007866Y785886D01*
X1006329Y787889D01*
X1004326Y789426D01*
X1001993Y790393D01*
X999490Y790722D01*
X996987Y790393D01*
X994654Y789426D01*
X992651Y787889D01*
X991114Y785886D01*
X990147Y783553D01*
X989818Y781050D01*
X990147Y778547D01*
X991114Y776214D01*
X992651Y774211D01*
X994654Y772674D01*
X996987Y771708D01*
X999490Y771378D01*
X1001993Y771708D01*
X1004326Y772674D01*
X1006329Y774211D01*
X1007866Y776214D01*
X1008832Y778547D01*
X1009162Y781050D01*
Y704850D02*
X1008832Y707353D01*
X1007866Y709686D01*
X1006329Y711689D01*
X1004326Y713226D01*
X1001993Y714193D01*
X999490Y714522D01*
X996987Y714193D01*
X994654Y713226D01*
X992651Y711689D01*
X991114Y709686D01*
X990147Y707353D01*
X989818Y704850D01*
X990147Y702347D01*
X991114Y700014D01*
X992651Y698011D01*
X994654Y696474D01*
X996987Y695508D01*
X999490Y695178D01*
X1001993Y695508D01*
X1004326Y696474D01*
X1006329Y698011D01*
X1007866Y700014D01*
X1008832Y702347D01*
X1009162Y704850D01*
X861842Y1137920D02*
X861513Y1140423D01*
X860546Y1142756D01*
X859009Y1144759D01*
X857006Y1146296D01*
X854673Y1147262D01*
X852170Y1147592D01*
X849667Y1147262D01*
X847334Y1146296D01*
X845331Y1144759D01*
X843794Y1142756D01*
X842828Y1140423D01*
X842498Y1137920D01*
X842828Y1135417D01*
X843794Y1133084D01*
X845331Y1131081D01*
X847334Y1129544D01*
X849667Y1128577D01*
X852170Y1128248D01*
X854673Y1128577D01*
X857006Y1129544D01*
X859009Y1131081D01*
X860546Y1133084D01*
X861513Y1135417D01*
X861842Y1137920D01*
X938042D02*
X937712Y1140423D01*
X936746Y1142756D01*
X935209Y1144759D01*
X933206Y1146296D01*
X930873Y1147262D01*
X928370Y1147592D01*
X925867Y1147262D01*
X923534Y1146296D01*
X921531Y1144759D01*
X919994Y1142756D01*
X919027Y1140423D01*
X918698Y1137920D01*
X919027Y1135417D01*
X919994Y1133084D01*
X921531Y1131081D01*
X923534Y1129544D01*
X925867Y1128577D01*
X928370Y1128248D01*
X930873Y1128577D01*
X933206Y1129544D01*
X935209Y1131081D01*
X936746Y1133084D01*
X937712Y1135417D01*
X938042Y1137920D01*
X132862Y795020D02*
X132533Y797523D01*
X131566Y799856D01*
X130029Y801859D01*
X128026Y803396D01*
X125693Y804362D01*
X123190Y804692D01*
X120687Y804362D01*
X118354Y803396D01*
X116351Y801859D01*
X114814Y799856D01*
X113848Y797523D01*
X113518Y795020D01*
X113848Y792517D01*
X114814Y790184D01*
X116351Y788181D01*
X118354Y786644D01*
X120687Y785677D01*
X123190Y785348D01*
X125693Y785677D01*
X128026Y786644D01*
X130029Y788181D01*
X131566Y790184D01*
X132533Y792517D01*
X132862Y795020D01*
Y871220D02*
X132533Y873723D01*
X131566Y876056D01*
X130029Y878059D01*
X128026Y879596D01*
X125693Y880563D01*
X123190Y880892D01*
X120687Y880563D01*
X118354Y879596D01*
X116351Y878059D01*
X114814Y876056D01*
X113848Y873723D01*
X113518Y871220D01*
X113848Y868717D01*
X114814Y866384D01*
X116351Y864381D01*
X118354Y862844D01*
X120687Y861878D01*
X123190Y861548D01*
X125693Y861878D01*
X128026Y862844D01*
X130029Y864381D01*
X131566Y866384D01*
X132533Y868717D01*
X132862Y871220D01*
X139212Y473710D02*
X138883Y476213D01*
X137916Y478546D01*
X136379Y480549D01*
X134376Y482086D01*
X132043Y483052D01*
X129540Y483382D01*
X127037Y483052D01*
X124704Y482086D01*
X122701Y480549D01*
X121164Y478546D01*
X120197Y476213D01*
X119868Y473710D01*
X120197Y471207D01*
X121164Y468874D01*
X122701Y466871D01*
X124704Y465334D01*
X127037Y464367D01*
X129540Y464038D01*
X132043Y464367D01*
X134376Y465334D01*
X136379Y466871D01*
X137916Y468874D01*
X138883Y471207D01*
X139212Y473710D01*
Y549910D02*
X138883Y552413D01*
X137916Y554746D01*
X136379Y556749D01*
X134376Y558286D01*
X132043Y559253D01*
X129540Y559582D01*
X127037Y559253D01*
X124704Y558286D01*
X122701Y556749D01*
X121164Y554746D01*
X120197Y552413D01*
X119868Y549910D01*
X120197Y547407D01*
X121164Y545074D01*
X122701Y543071D01*
X124704Y541534D01*
X127037Y540568D01*
X129540Y540238D01*
X132043Y540568D01*
X134376Y541534D01*
X136379Y543071D01*
X137916Y545074D01*
X138883Y547407D01*
X139212Y549910D01*
X1019322Y409702D02*
X1018992Y412205D01*
X1018026Y414538D01*
X1016489Y416541D01*
X1014486Y418078D01*
X1012153Y419044D01*
X1009650Y419374D01*
X1007147Y419044D01*
X1004814Y418078D01*
X1002811Y416541D01*
X1001274Y414538D01*
X1000307Y412205D01*
X999978Y409702D01*
X1000307Y407199D01*
X1001274Y404866D01*
X1002811Y402863D01*
X1004814Y401326D01*
X1007147Y400359D01*
X1009650Y400030D01*
X1012153Y400359D01*
X1014486Y401326D01*
X1016489Y402863D01*
X1018026Y404866D01*
X1018992Y407199D01*
X1019322Y409702D01*
Y333502D02*
X1018992Y336005D01*
X1018026Y338338D01*
X1016489Y340341D01*
X1014486Y341878D01*
X1012153Y342845D01*
X1009650Y343174D01*
X1007147Y342845D01*
X1004814Y341878D01*
X1002811Y340341D01*
X1001274Y338338D01*
X1000307Y336005D01*
X999978Y333502D01*
X1000307Y330999D01*
X1001274Y328666D01*
X1002811Y326663D01*
X1004814Y325126D01*
X1007147Y324160D01*
X1009650Y323830D01*
X1012153Y324160D01*
X1014486Y325126D01*
X1016489Y326663D01*
X1018026Y328666D01*
X1018992Y330999D01*
X1019322Y333502D01*
D12*
X391665Y648208D02*
Y838708D01*
X515617D01*
Y648208D02*
Y838708D01*
X391665Y648208D02*
X515617D01*
X462785Y703834D02*
X467357Y698500D01*
X466342Y697738D02*
X467357Y698500D01*
X470914Y701040D02*
X478026Y740664D01*
X469644Y700278D02*
X470914Y701040D01*
X465326Y705612D02*
X469644Y700278D01*
X465326Y705612D02*
X470914Y736600D01*
X471930Y737108D01*
X478026Y740664D01*
X428242Y697738D02*
X466342D01*
X485137Y789686D02*
X486408Y789178D01*
X478787Y746252D02*
X486408Y789178D01*
X472946Y750316D02*
X478787Y746252D01*
X472946Y750316D02*
X479041Y783590D01*
X485137Y789686D01*
X416811Y697738D02*
X422146D01*
X431544Y791718D02*
X434084D01*
X430782Y791210D02*
X431544Y791718D01*
X430782Y791210D02*
X431035Y790956D01*
X437132Y785368D01*
X428242Y789940D02*
X433321Y785368D01*
X425701Y787908D02*
X428242Y789940D01*
X472183Y785368D02*
X477518D01*
X483106Y790702D01*
X481581Y791718D02*
X483106Y790702D01*
X478279Y791718D02*
X481581D01*
X433576D02*
X478279D01*
X471422Y739648D02*
X478279Y743458D01*
X472691Y747268D02*
X478279Y743458D01*
X423415Y703834D02*
X462785D01*
X414780Y698246D02*
X423415Y703834D01*
X414780Y698246D02*
X415541Y697738D01*
X416049D01*
X422907D01*
X415541D02*
X428242D01*
X413002Y700278D02*
X419352Y704596D01*
X411223Y701802D02*
X413002Y700278D01*
X419352Y704596D01*
X424431Y737108D01*
X411223Y701802D02*
X418082Y740918D01*
X424431Y737108D01*
X425701Y739648D02*
X471422D01*
X418843Y743966D02*
X425701Y739648D01*
X437132Y785368D02*
X472691D01*
X426972Y751078D02*
X433321Y785368D01*
X419352Y747268D02*
X425701Y787908D01*
X419352Y747268D02*
X426972Y751078D01*
X425701Y747268D02*
X472691D01*
X418843Y743966D02*
X425701Y747268D01*
X647702Y648208D02*
Y838708D01*
X771655D01*
Y648208D02*
Y838708D01*
X647702Y648208D02*
X771655D01*
X718822Y703834D02*
X723394Y698500D01*
X722378Y697738D02*
X723394Y698500D01*
X726951Y701040D02*
X734062Y740664D01*
X725680Y700278D02*
X726951Y701040D01*
X721363Y705612D02*
X725680Y700278D01*
X721363Y705612D02*
X726951Y736600D01*
X727967Y737108D01*
X734062Y740664D01*
X684278Y697738D02*
X722378D01*
X741174Y789686D02*
X742445Y789178D01*
X734825Y746252D02*
X742445Y789178D01*
X728982Y750316D02*
X734825Y746252D01*
X728982Y750316D02*
X735079Y783590D01*
X741174Y789686D01*
X672849Y697738D02*
X678183D01*
X687580Y791718D02*
X690120D01*
X686818Y791210D02*
X687580Y791718D01*
X686818Y791210D02*
X687073Y790956D01*
X693168Y785368D01*
X684278Y789940D02*
X689359Y785368D01*
X681739Y787908D02*
X684278Y789940D01*
X728221Y785368D02*
X733555D01*
X739143Y790702D01*
X737618Y791718D02*
X739143Y790702D01*
X734316Y791718D02*
X737618D01*
X689613D02*
X734316D01*
X727458Y739648D02*
X734316Y743458D01*
X728728Y747268D02*
X734316Y743458D01*
X679453Y703834D02*
X718822D01*
X670816Y698246D02*
X679453Y703834D01*
X670816Y698246D02*
X671579Y697738D01*
X672086D01*
X678944D01*
X671579D02*
X684278D01*
X669038Y700278D02*
X675388Y704596D01*
X667261Y701802D02*
X669038Y700278D01*
X675388Y704596D01*
X680469Y737108D01*
X667261Y701802D02*
X674118Y740918D01*
X680469Y737108D01*
X681739Y739648D02*
X727458D01*
X674881Y743966D02*
X681739Y739648D01*
X693168Y785368D02*
X728728D01*
X683008Y751078D02*
X689359Y785368D01*
X675388Y747268D02*
X681739Y787908D01*
X675388Y747268D02*
X683008Y751078D01*
X681739Y747268D02*
X728728D01*
X674881Y743966D02*
X681739Y747268D01*
X519684Y648208D02*
Y838708D01*
X643636D01*
Y648208D02*
Y838708D01*
X519684Y648208D02*
X643636D01*
X590804Y703834D02*
X595376Y698500D01*
X594360Y697738D02*
X595376Y698500D01*
X598932Y701040D02*
X606044Y740664D01*
X597662Y700278D02*
X598932Y701040D01*
X593344Y705612D02*
X597662Y700278D01*
X593344Y705612D02*
X598932Y736600D01*
X599948Y737108D01*
X606044Y740664D01*
X556260Y697738D02*
X594360D01*
X613156Y789686D02*
X614426Y789178D01*
X606806Y746252D02*
X614426Y789178D01*
X600964Y750316D02*
X606806Y746252D01*
X600964Y750316D02*
X607060Y783590D01*
X613156Y789686D01*
X544830Y697738D02*
X550164D01*
X559562Y791718D02*
X562102D01*
X558800Y791210D02*
X559562Y791718D01*
X558800Y791210D02*
X559054Y790956D01*
X565150Y785368D01*
X556260Y789940D02*
X561340Y785368D01*
X553720Y787908D02*
X556260Y789940D01*
X600202Y785368D02*
X605536D01*
X611124Y790702D01*
X609600Y791718D02*
X611124Y790702D01*
X606298Y791718D02*
X609600D01*
X561594D02*
X606298D01*
X599440Y739648D02*
X606298Y743458D01*
X600710Y747268D02*
X606298Y743458D01*
X551434Y703834D02*
X590804D01*
X542798Y698246D02*
X551434Y703834D01*
X542798Y698246D02*
X543560Y697738D01*
X544068D01*
X550926D01*
X543560D02*
X556260D01*
X541020Y700278D02*
X547370Y704596D01*
X539242Y701802D02*
X541020Y700278D01*
X547370Y704596D01*
X552450Y737108D01*
X539242Y701802D02*
X546100Y740918D01*
X552450Y737108D01*
X553720Y739648D02*
X599440D01*
X546862Y743966D02*
X553720Y739648D01*
X565150Y785368D02*
X600710D01*
X554990Y751078D02*
X561340Y785368D01*
X547370Y747268D02*
X553720Y787908D01*
X547370Y747268D02*
X554990Y751078D01*
X553720Y747268D02*
X600710D01*
X546862Y743966D02*
X553720Y747268D01*
X518414Y974090D02*
Y1164590D01*
X642366D01*
Y974090D02*
Y1164590D01*
X518414Y974090D02*
X642366D01*
X589534Y1029716D02*
X594106Y1024382D01*
X593090Y1023620D02*
X594106Y1024382D01*
X597662Y1026922D02*
X604774Y1066546D01*
X596392Y1026160D02*
X597662Y1026922D01*
X592074Y1031494D02*
X596392Y1026160D01*
X592074Y1031494D02*
X597662Y1062482D01*
X598678Y1062990D01*
X604774Y1066546D01*
X554990Y1023620D02*
X593090D01*
X611886Y1115568D02*
X613156Y1115060D01*
X605536Y1072134D02*
X613156Y1115060D01*
X599694Y1076198D02*
X605536Y1072134D01*
X599694Y1076198D02*
X605790Y1109472D01*
X611886Y1115568D01*
X543560Y1023620D02*
X548894D01*
X558292Y1117600D02*
X560832D01*
X557530Y1117092D02*
X558292Y1117600D01*
X557530Y1117092D02*
X557784Y1116838D01*
X563880Y1111250D01*
X554990Y1115822D02*
X560070Y1111250D01*
X552450Y1113790D02*
X554990Y1115822D01*
X598932Y1111250D02*
X604266D01*
X609854Y1116584D01*
X608330Y1117600D02*
X609854Y1116584D01*
X605028Y1117600D02*
X608330D01*
X560324D02*
X605028D01*
X598170Y1065530D02*
X605028Y1069340D01*
X599440Y1073150D02*
X605028Y1069340D01*
X550164Y1029716D02*
X589534D01*
X541528Y1024128D02*
X550164Y1029716D01*
X541528Y1024128D02*
X542290Y1023620D01*
X542798D01*
X549656D01*
X542290D02*
X554990D01*
X539750Y1026160D02*
X546100Y1030478D01*
X537972Y1027684D02*
X539750Y1026160D01*
X546100Y1030478D01*
X551180Y1062990D01*
X537972Y1027684D02*
X544830Y1066800D01*
X551180Y1062990D01*
X552450Y1065530D02*
X598170D01*
X545592Y1069848D02*
X552450Y1065530D01*
X563880Y1111250D02*
X599440D01*
X553720Y1076960D02*
X560070Y1111250D01*
X546100Y1073150D02*
X552450Y1113790D01*
X546100Y1073150D02*
X553720Y1076960D01*
X552450Y1073150D02*
X599440D01*
X545592Y1069848D02*
X552450Y1073150D01*
X673611Y1069848D02*
X680469Y1073150D01*
X727458D01*
X674118D02*
X681739Y1076960D01*
X674118Y1073150D02*
X680469Y1113790D01*
X681739Y1076960D02*
X688089Y1111250D01*
X691898D02*
X727458D01*
X673611Y1069848D02*
X680469Y1065530D01*
X726189D01*
X672849Y1066800D02*
X679199Y1062990D01*
X665991Y1027684D02*
X672849Y1066800D01*
X674118Y1030478D02*
X679199Y1062990D01*
X667768Y1026160D02*
X674118Y1030478D01*
X665991Y1027684D02*
X667768Y1026160D01*
X674118Y1030478D01*
X670309Y1023620D02*
X683008D01*
X670816D02*
X677674D01*
X670309D02*
X670816D01*
X669547Y1024128D02*
X670309Y1023620D01*
X669547Y1024128D02*
X678183Y1029716D01*
X717552D01*
X727458Y1073150D02*
X733046Y1069340D01*
X726189Y1065530D02*
X733046Y1069340D01*
X688343Y1117600D02*
X733046D01*
X736348D01*
X737872Y1116584D01*
X732284Y1111250D02*
X737872Y1116584D01*
X726951Y1111250D02*
X732284D01*
X680469Y1113790D02*
X683008Y1115822D01*
X688089Y1111250D01*
X685803Y1116838D02*
X691898Y1111250D01*
X685548Y1117092D02*
X685803Y1116838D01*
X685548Y1117092D02*
X686311Y1117600D01*
X688850D01*
X671579Y1023620D02*
X676913D01*
X733809Y1109472D02*
X739904Y1115568D01*
X727712Y1076198D02*
X733809Y1109472D01*
X727712Y1076198D02*
X733555Y1072134D01*
X741174Y1115060D01*
X739904Y1115568D02*
X741174Y1115060D01*
X683008Y1023620D02*
X721108D01*
X726696Y1062990D02*
X732793Y1066546D01*
X725680Y1062482D02*
X726696Y1062990D01*
X720092Y1031494D02*
X725680Y1062482D01*
X720092Y1031494D02*
X724410Y1026160D01*
X725680Y1026922D01*
X732793Y1066546D01*
X721108Y1023620D02*
X722124Y1024382D01*
X717552Y1029716D02*
X722124Y1024382D01*
X646432Y974090D02*
X770385D01*
Y1164590D01*
X646432D02*
X770385D01*
X646432Y974090D02*
Y1164590D01*
X417574Y1069848D02*
X424431Y1073150D01*
X471422D01*
X418082D02*
X425701Y1076960D01*
X418082Y1073150D02*
X424431Y1113790D01*
X425701Y1076960D02*
X432052Y1111250D01*
X435862D02*
X471422D01*
X417574Y1069848D02*
X424431Y1065530D01*
X470151D01*
X416811Y1066800D02*
X423162Y1062990D01*
X409953Y1027684D02*
X416811Y1066800D01*
X418082Y1030478D02*
X423162Y1062990D01*
X411731Y1026160D02*
X418082Y1030478D01*
X409953Y1027684D02*
X411731Y1026160D01*
X418082Y1030478D01*
X414272Y1023620D02*
X426972D01*
X414780D02*
X421637D01*
X414272D02*
X414780D01*
X413509Y1024128D02*
X414272Y1023620D01*
X413509Y1024128D02*
X422146Y1029716D01*
X461516D01*
X471422Y1073150D02*
X477010Y1069340D01*
X470151Y1065530D02*
X477010Y1069340D01*
X432305Y1117600D02*
X477010D01*
X480312D01*
X481836Y1116584D01*
X476247Y1111250D02*
X481836Y1116584D01*
X470914Y1111250D02*
X476247D01*
X424431Y1113790D02*
X426972Y1115822D01*
X432052Y1111250D01*
X429766Y1116838D02*
X435862Y1111250D01*
X429511Y1117092D02*
X429766Y1116838D01*
X429511Y1117092D02*
X430274Y1117600D01*
X432813D01*
X415541Y1023620D02*
X420876D01*
X477771Y1109472D02*
X483867Y1115568D01*
X471675Y1076198D02*
X477771Y1109472D01*
X471675Y1076198D02*
X477518Y1072134D01*
X485137Y1115060D01*
X483867Y1115568D02*
X485137Y1115060D01*
X426972Y1023620D02*
X465071D01*
X470659Y1062990D02*
X476755Y1066546D01*
X469644Y1062482D02*
X470659Y1062990D01*
X464055Y1031494D02*
X469644Y1062482D01*
X464055Y1031494D02*
X468373Y1026160D01*
X469644Y1026922D01*
X476755Y1066546D01*
X465071Y1023620D02*
X466087Y1024382D01*
X461516Y1029716D02*
X466087Y1024382D01*
X390396Y974090D02*
X514347D01*
Y1164590D01*
X390396D02*
X514347D01*
X390396Y974090D02*
Y1164590D01*
D13*
X916686Y665598D02*
Y819150D01*
X1042670Y665598D02*
Y819150D01*
X916686Y742950D02*
X1042177D01*
X916686Y665598D02*
X1034865D01*
X1042670D01*
X916686Y819150D02*
X1042670D01*
X814070Y1055116D02*
X967622D01*
X814070Y1181100D02*
X967622D01*
X890270Y1055116D02*
Y1180607D01*
X967622Y1055116D02*
Y1173295D01*
Y1181100D01*
X814070Y1055116D02*
Y1181100D01*
X205994Y756920D02*
Y910472D01*
X80010Y756920D02*
Y910472D01*
X80503Y833120D02*
X205994D01*
X87815Y910472D02*
X205994D01*
X80010D02*
X87815D01*
X80010Y756920D02*
X205994D01*
X212344Y435610D02*
Y589162D01*
X86360Y435610D02*
Y589162D01*
X86853Y511810D02*
X212344D01*
X94165Y589162D02*
X212344D01*
X86360D02*
X94165D01*
X86360Y435610D02*
X212344D01*
X926846Y294250D02*
Y447802D01*
X1052830Y294250D02*
Y447802D01*
X926846Y371602D02*
X1052337D01*
X926846Y294250D02*
X1045025D01*
X1052830D01*
X926846Y447802D02*
X1052830D01*
D14*
X586740Y234950D02*
X599440D01*
X574040Y166370D02*
X599440D01*
X574040D02*
Y196850D01*
X548640D02*
X574040D01*
X548640Y166370D02*
Y196850D01*
X472440Y166370D02*
X548640D01*
X472440D02*
Y196850D01*
X447040D02*
X472440D01*
X447040Y166370D02*
Y196850D01*
X420360Y166370D02*
X447040D01*
X599440D02*
Y234950D01*
X420360Y166370D02*
Y234950D01*
X435600D01*
D15*
X243240Y1061410D02*
Y1118610D01*
X168240Y1061410D02*
X243240D01*
X168240D02*
Y1118610D01*
X243240D01*
X327132Y1062680D02*
Y1119880D01*
X252132Y1062680D02*
X327132D01*
X252132D02*
Y1119880D01*
X327132D01*
X243240Y928060D02*
Y985260D01*
X168240Y928060D02*
X243240D01*
X168240D02*
Y985260D01*
X243240D01*
X327132Y928060D02*
Y985260D01*
X252132Y928060D02*
X327132D01*
X252132D02*
Y985260D01*
X327132D01*
M02*
