G04*
G04 #@! TF.GenerationSoftware,Altium Limited,Altium Designer,18.0.7 (293)*
G04*
G04 Layer_Color=8388736*
%FSTAX24Y24*%
%MOIN*%
G70*
G01*
G75*
%ADD10C,0.0710*%
%ADD11R,0.1173X0.1173*%
%ADD12C,0.1173*%
%ADD13R,0.0710X0.1064*%
%ADD14O,0.0710X0.1064*%
%ADD15C,0.1064*%
%ADD16C,0.0848*%
%ADD17R,0.0848X0.0848*%
%ADD18O,0.0780X0.1080*%
%ADD19R,0.0780X0.1080*%
%ADD20R,0.0710X0.0710*%
%ADD21C,0.0395*%
%ADD22C,0.2049*%
%ADD23C,0.0631*%
D10*
X021221Y021939D02*
D03*
X013347D02*
D03*
X021792Y030959D02*
D03*
X013918D02*
D03*
X021694Y040624D02*
D03*
X01382D02*
D03*
X056394Y0274D02*
D03*
Y0332D02*
D03*
Y03895D02*
D03*
Y0448D02*
D03*
D11*
X009087Y026656D02*
D03*
Y049419D02*
D03*
D12*
Y029907D02*
D03*
Y033159D02*
D03*
Y036411D02*
D03*
Y039663D02*
D03*
Y042915D02*
D03*
Y046167D02*
D03*
D13*
X040646Y04321D02*
D03*
Y035529D02*
D03*
D14*
X041646Y04321D02*
D03*
X042646D02*
D03*
X043646D02*
D03*
X044646D02*
D03*
X045646D02*
D03*
X040646Y04921D02*
D03*
X041646D02*
D03*
X042646D02*
D03*
X043646D02*
D03*
X044646D02*
D03*
X045646D02*
D03*
X041646Y035529D02*
D03*
X042646D02*
D03*
X043646D02*
D03*
X044646D02*
D03*
X045646D02*
D03*
X040646Y041529D02*
D03*
X041646D02*
D03*
X042646D02*
D03*
X043646D02*
D03*
X044646D02*
D03*
X045646D02*
D03*
D15*
X014202Y013571D02*
D03*
X015776D02*
D03*
X017351D02*
D03*
X018926D02*
D03*
D16*
X007513Y015041D02*
D03*
D17*
Y01701D02*
D03*
D18*
X053644Y01485D02*
D03*
X052644D02*
D03*
X051644D02*
D03*
X050644D02*
D03*
X049644D02*
D03*
D19*
X048644D02*
D03*
D20*
X056394Y0284D02*
D03*
Y0342D02*
D03*
Y03995D02*
D03*
Y0458D02*
D03*
D21*
X043229Y024053D02*
D03*
X030695Y045925D02*
D03*
X031981Y045427D02*
D03*
X053229Y024837D02*
D03*
X018351Y029581D02*
D03*
X029064Y02536D02*
D03*
X051459Y038508D02*
D03*
X028678Y030654D02*
D03*
X028156Y033809D02*
D03*
X028148Y041846D02*
D03*
X028869Y043012D02*
D03*
X03803Y015431D02*
D03*
X0418Y010815D02*
D03*
X029131Y026976D02*
D03*
X019757Y018701D02*
D03*
Y014982D02*
D03*
X035745Y035656D02*
D03*
X03379Y019297D02*
D03*
X02258Y026177D02*
D03*
X022615Y035146D02*
D03*
X018196Y038996D02*
D03*
X038352Y018543D02*
D03*
X055744Y021929D02*
D03*
X044199Y038287D02*
D03*
X036817Y03811D02*
D03*
X04475Y0256D02*
D03*
X044647Y021826D02*
D03*
X031935Y026417D02*
D03*
X029848Y037352D02*
D03*
X045035Y020197D02*
D03*
X044317Y018632D02*
D03*
X051541Y018789D02*
D03*
X041591Y024144D02*
D03*
X05222Y018386D02*
D03*
X049632Y016191D02*
D03*
X05414Y0194D02*
D03*
X032811Y025315D02*
D03*
X04725Y024823D02*
D03*
X031827Y046902D02*
D03*
X031728Y039488D02*
D03*
X030764Y038376D02*
D03*
X031807Y037721D02*
D03*
X04915Y025364D02*
D03*
X047998Y024724D02*
D03*
X033766Y03499D02*
D03*
X034757Y042901D02*
D03*
X053244Y03627D02*
D03*
X049376Y031644D02*
D03*
X044533Y034075D02*
D03*
X031718Y043268D02*
D03*
X042398Y038061D02*
D03*
X043677Y040197D02*
D03*
X036656Y037221D02*
D03*
X046709Y044104D02*
D03*
X044051Y050856D02*
D03*
X036571Y043809D02*
D03*
X039012Y048297D02*
D03*
X044169Y046112D02*
D03*
X036185Y045402D02*
D03*
X042073Y045699D02*
D03*
X037102Y044902D02*
D03*
X05542Y036926D02*
D03*
X053794Y0236D02*
D03*
X05542Y030926D02*
D03*
X054344Y0228D02*
D03*
X055344Y025526D02*
D03*
D22*
X057906Y051065D02*
D03*
Y008939D02*
D03*
X003182D02*
D03*
Y051065D02*
D03*
D23*
X022332Y045325D02*
D03*
X018278Y049238D02*
D03*
M02*
