G04*
G04 #@! TF.GenerationSoftware,Altium Limited,Altium Designer,18.0.7 (293)*
G04*
G04 Layer_Color=2752767*
%FSTAX24Y24*%
%MOIN*%
G70*
G01*
G75*
%ADD81C,0.0020*%
%ADD82C,0.0027*%
D81*
X021141Y021859D02*
Y022019D01*
X021301D01*
Y021859D01*
X021141D01*
X013267D02*
Y022019D01*
X013427D01*
Y021859D01*
X013267D01*
X021712Y030879D02*
Y031039D01*
X021872D01*
Y030879D01*
X021712D01*
X013838D02*
Y031039D01*
X013998D01*
Y030879D01*
X013838D01*
X021614Y040544D02*
Y040704D01*
X021774D01*
Y040544D01*
X021614D01*
X01374D02*
Y040704D01*
X0139D01*
Y040544D01*
X01374D01*
X040646Y04313D02*
X040566Y04329D01*
X040726D01*
X040646Y04313D01*
X041646D02*
X041566Y04329D01*
X041726D01*
X041646Y04313D01*
X042646D02*
X042566Y04329D01*
X042726D01*
X042646Y04313D01*
X043646D02*
X043566Y04329D01*
X043726D01*
X043646Y04313D01*
X044646D02*
X044566Y04329D01*
X044726D01*
X044646Y04313D01*
X045646D02*
X045566Y04329D01*
X045726D01*
X045646Y04313D01*
X040646Y04913D02*
X040566Y04929D01*
X040726D01*
X040646Y04913D01*
X041646D02*
X041566Y04929D01*
X041726D01*
X041646Y04913D01*
X042646D02*
X042566Y04929D01*
X042726D01*
X042646Y04913D01*
X043646D02*
X043566Y04929D01*
X043726D01*
X043646Y04913D01*
X044646D02*
X044566Y04929D01*
X044726D01*
X044646Y04913D01*
X045646D02*
X045566Y04929D01*
X045726D01*
X045646Y04913D01*
X040646Y035449D02*
X040566Y035609D01*
X040726D01*
X040646Y035449D01*
X041646D02*
X041566Y035609D01*
X041726D01*
X041646Y035449D01*
X042646D02*
X042566Y035609D01*
X042726D01*
X042646Y035449D01*
X043646D02*
X043566Y035609D01*
X043726D01*
X043646Y035449D01*
X044646D02*
X044566Y035609D01*
X044726D01*
X044646Y035449D01*
X045646D02*
X045566Y035609D01*
X045726D01*
X045646Y035449D01*
X040646Y041449D02*
X040566Y041609D01*
X040726D01*
X040646Y041449D01*
X041646D02*
X041566Y041609D01*
X041726D01*
X041646Y041449D01*
X042646D02*
X042566Y041609D01*
X042726D01*
X042646Y041449D01*
X043646D02*
X043566Y041609D01*
X043726D01*
X043646Y041449D01*
X044646D02*
X044566Y041609D01*
X044726D01*
X044646Y041449D01*
X045646D02*
X045566Y041609D01*
X045726D01*
X045646Y041449D01*
X014202Y013491D02*
X014242Y013531D01*
X014282D01*
X014242Y013571D01*
X014282Y013611D01*
X014242D01*
X014202Y013651D01*
X014162Y013611D01*
X014122D01*
X014162Y013571D01*
X014122Y013531D01*
X014162D01*
X014202Y013491D01*
X015696D02*
X015736Y013571D01*
X015696Y013651D01*
X015776Y013611D01*
X015856Y013651D01*
X015816Y013571D01*
X015856Y013491D01*
X015776Y013531D01*
X015696Y013491D01*
X017271D02*
X017311Y013571D01*
X017271Y013651D01*
X017351Y013611D01*
X017431Y013651D01*
X017391Y013571D01*
X017431Y013491D01*
X017351Y013531D01*
X017271Y013491D01*
X018846D02*
X018886Y013571D01*
X018846Y013651D01*
X018926Y013611D01*
X019006Y013651D01*
X018966Y013571D01*
X019006Y013491D01*
X018926Y013531D01*
X018846Y013491D01*
X007513Y014961D02*
X007553Y015001D01*
X007593D01*
X007553Y015041D01*
X007593Y015081D01*
X007553D01*
X007513Y015121D01*
X007473Y015081D01*
X007433D01*
X007473Y015041D01*
X007433Y015001D01*
X007473D01*
X007513Y014961D01*
Y01693D02*
X007553Y01697D01*
X007593D01*
X007553Y01701D01*
X007593Y01705D01*
X007553D01*
X007513Y01709D01*
X007473Y01705D01*
X007433D01*
X007473Y01701D01*
X007433Y01697D01*
X007473D01*
X007513Y01693D01*
X053604Y01481D02*
Y01477D01*
X053684D01*
Y01481D01*
X053724D01*
Y01489D01*
X053684D01*
Y01493D01*
X053604D01*
Y01489D01*
X053564D01*
Y01481D01*
X053604D01*
X052604D02*
Y01477D01*
X052684D01*
Y01481D01*
X052724D01*
Y01489D01*
X052684D01*
Y01493D01*
X052604D01*
Y01489D01*
X052564D01*
Y01481D01*
X052604D01*
X051604D02*
Y01477D01*
X051684D01*
Y01481D01*
X051724D01*
Y01489D01*
X051684D01*
Y01493D01*
X051604D01*
Y01489D01*
X051564D01*
Y01481D01*
X051604D01*
X050604D02*
Y01477D01*
X050684D01*
Y01481D01*
X050724D01*
Y01489D01*
X050684D01*
Y01493D01*
X050604D01*
Y01489D01*
X050564D01*
Y01481D01*
X050604D01*
X049604D02*
Y01477D01*
X049684D01*
Y01481D01*
X049724D01*
Y01489D01*
X049684D01*
Y01493D01*
X049604D01*
Y01489D01*
X049564D01*
Y01481D01*
X049604D01*
X048604D02*
Y01477D01*
X048684D01*
Y01481D01*
X048724D01*
Y01489D01*
X048684D01*
Y01493D01*
X048604D01*
Y01489D01*
X048564D01*
Y01481D01*
X048604D01*
X056394Y02832D02*
X056314Y02848D01*
X056474D01*
X056394Y02832D01*
Y02732D02*
X056314Y02748D01*
X056474D01*
X056394Y02732D01*
Y03412D02*
X056314Y03428D01*
X056474D01*
X056394Y03412D01*
Y03312D02*
X056314Y03328D01*
X056474D01*
X056394Y03312D01*
Y03987D02*
X056314Y04003D01*
X056474D01*
X056394Y03987D01*
Y03887D02*
X056314Y03903D01*
X056474D01*
X056394Y03887D01*
Y04572D02*
X056314Y04588D01*
X056474D01*
X056394Y04572D01*
Y04472D02*
X056314Y04488D01*
X056474D01*
X056394Y04472D01*
X043229Y023973D02*
X043149Y024133D01*
X043309D01*
X043229Y023973D01*
X030695Y045845D02*
X030615Y046005D01*
X030775D01*
X030695Y045845D01*
X031981Y045347D02*
X031901Y045507D01*
X032061D01*
X031981Y045347D01*
X053229Y024757D02*
X053149Y024917D01*
X053309D01*
X053229Y024757D01*
X057826Y050985D02*
X057866D01*
X057906Y051025D01*
X057946Y050985D01*
X057986D01*
Y051025D01*
X057946Y051065D01*
X057986Y051105D01*
Y051145D01*
X057946D01*
X057906Y051105D01*
X057866Y051145D01*
X057826D01*
Y051105D01*
X057866Y051065D01*
X057826Y051025D01*
Y050985D01*
Y008859D02*
X057866D01*
X057906Y008899D01*
X057946Y008859D01*
X057986D01*
Y008899D01*
X057946Y008939D01*
X057986Y008979D01*
Y009019D01*
X057946D01*
X057906Y008979D01*
X057866Y009019D01*
X057826D01*
Y008979D01*
X057866Y008939D01*
X057826Y008899D01*
Y008859D01*
X003102D02*
X003142D01*
X003182Y008899D01*
X003222Y008859D01*
X003262D01*
Y008899D01*
X003222Y008939D01*
X003262Y008979D01*
Y009019D01*
X003222D01*
X003182Y008979D01*
X003142Y009019D01*
X003102D01*
Y008979D01*
X003142Y008939D01*
X003102Y008899D01*
Y008859D01*
Y050985D02*
X003142D01*
X003182Y051025D01*
X003222Y050985D01*
X003262D01*
Y051025D01*
X003222Y051065D01*
X003262Y051105D01*
Y051145D01*
X003222D01*
X003182Y051105D01*
X003142Y051145D01*
X003102D01*
Y051105D01*
X003142Y051065D01*
X003102Y051025D01*
Y050985D01*
X018351Y029501D02*
X018271Y029661D01*
X018431D01*
X018351Y029501D01*
X029064Y02528D02*
X028984Y02544D01*
X029144D01*
X029064Y02528D01*
X022332Y045245D02*
X022252Y045405D01*
X022411D01*
X022332Y045245D01*
X018278Y049158D02*
X018198Y049318D01*
X018358D01*
X018278Y049158D01*
X051459Y038428D02*
X051379Y038588D01*
X051539D01*
X051459Y038428D01*
X028678Y030574D02*
X028598Y030734D01*
X028758D01*
X028678Y030574D01*
X028156Y033729D02*
X028076Y033889D01*
X028236D01*
X028156Y033729D01*
X028148Y041766D02*
X028068Y041926D01*
X028228D01*
X028148Y041766D01*
X028869Y042932D02*
X028789Y043092D01*
X028949D01*
X028869Y042932D01*
X03803Y015351D02*
X03795Y015511D01*
X03811D01*
X03803Y015351D01*
X0418Y010735D02*
X04172Y010895D01*
X04188D01*
X0418Y010735D01*
X029131Y026896D02*
X029051Y027056D01*
X029211D01*
X029131Y026896D01*
X019757Y018621D02*
X019677Y018781D01*
X019837D01*
X019757Y018621D01*
Y014902D02*
X019677Y015062D01*
X019837D01*
X019757Y014902D01*
X035745Y035576D02*
X035665Y035736D01*
X035825D01*
X035745Y035576D01*
X03379Y019217D02*
X03371Y019377D01*
X03387D01*
X03379Y019217D01*
X02258Y026097D02*
X0225Y026257D01*
X02266D01*
X02258Y026097D01*
X022615Y035066D02*
X022535Y035226D01*
X022695D01*
X022615Y035066D01*
X018196Y038916D02*
X018116Y039076D01*
X018276D01*
X018196Y038916D01*
X038352Y018463D02*
X038272Y018623D01*
X038432D01*
X038352Y018463D01*
X055744Y021849D02*
X055664Y022009D01*
X055824D01*
X055744Y021849D01*
X044199Y038207D02*
X044119Y038367D01*
X044279D01*
X044199Y038207D01*
X036817Y03803D02*
X036737Y03819D01*
X036897D01*
X036817Y03803D01*
X04475Y02552D02*
X04467Y02568D01*
X04483D01*
X04475Y02552D01*
X044647Y021746D02*
X044567Y021906D01*
X044727D01*
X044647Y021746D01*
X031935Y026337D02*
X031855Y026497D01*
X032015D01*
X031935Y026337D01*
X029848Y037272D02*
X029768Y037432D01*
X029928D01*
X029848Y037272D01*
X045035Y020117D02*
X044955Y020277D01*
X045115D01*
X045035Y020117D01*
X044317Y018552D02*
X044237Y018712D01*
X044397D01*
X044317Y018552D01*
X051541Y018709D02*
X051461Y018869D01*
X051621D01*
X051541Y018709D01*
X041591Y024064D02*
X041511Y024224D01*
X041671D01*
X041591Y024064D01*
X05222Y018306D02*
X05214Y018466D01*
X0523D01*
X05222Y018306D01*
X049632Y016111D02*
X049552Y016271D01*
X049712D01*
X049632Y016111D01*
X05414Y01932D02*
X05406Y01948D01*
X05422D01*
X05414Y01932D01*
X032811Y025235D02*
X032731Y025395D01*
X032891D01*
X032811Y025235D01*
X04725Y024743D02*
X04717Y024903D01*
X04733D01*
X04725Y024743D01*
X031827Y046822D02*
X031747Y046982D01*
X031907D01*
X031827Y046822D01*
X031728Y039408D02*
X031648Y039568D01*
X031808D01*
X031728Y039408D01*
X030764Y038296D02*
X030684Y038456D01*
X030844D01*
X030764Y038296D01*
X031807Y037641D02*
X031727Y037801D01*
X031887D01*
X031807Y037641D01*
X04915Y025284D02*
X04907Y025444D01*
X04923D01*
X04915Y025284D01*
X047998Y024644D02*
X047918Y024804D01*
X048078D01*
X047998Y024644D01*
X033766Y03491D02*
X033686Y03507D01*
X033846D01*
X033766Y03491D01*
X034757Y042821D02*
X034677Y042981D01*
X034837D01*
X034757Y042821D01*
X053244Y03619D02*
X053164Y03635D01*
X053324D01*
X053244Y03619D01*
X049376Y031564D02*
X049296Y031724D01*
X049456D01*
X049376Y031564D01*
X044533Y033995D02*
X044453Y034155D01*
X044613D01*
X044533Y033995D01*
X031718Y043188D02*
X031639Y043348D01*
X031799D01*
X031718Y043188D01*
X042398Y037981D02*
X042318Y038141D01*
X042478D01*
X042398Y037981D01*
X043677Y040117D02*
X043597Y040277D01*
X043757D01*
X043677Y040117D01*
X036656Y037141D02*
X036576Y037301D01*
X036736D01*
X036656Y037141D01*
X046709Y044024D02*
X046629Y044184D01*
X046789D01*
X046709Y044024D01*
X044051Y050776D02*
X043971Y050936D01*
X044131D01*
X044051Y050776D01*
X036571Y043729D02*
X036491Y043889D01*
X036651D01*
X036571Y043729D01*
X039012Y048217D02*
X038932Y048377D01*
X039092D01*
X039012Y048217D01*
X044169Y046032D02*
X044089Y046192D01*
X044249D01*
X044169Y046032D01*
X036185Y045322D02*
X036105Y045482D01*
X036265D01*
X036185Y045322D01*
X042073Y045619D02*
X041993Y045779D01*
X042153D01*
X042073Y045619D01*
X037102Y044822D02*
X037022Y044982D01*
X037182D01*
X037102Y044822D01*
X05542Y036846D02*
X05534Y037006D01*
X0555D01*
X05542Y036846D01*
X053794Y02352D02*
X053714Y02368D01*
X053874D01*
X053794Y02352D01*
X05542Y030846D02*
X05534Y031006D01*
X0555D01*
X05542Y030846D01*
X054344Y02272D02*
X054264Y02288D01*
X054424D01*
X054344Y02272D01*
X055344Y025446D02*
X055264Y025606D01*
X055424D01*
X055344Y025446D01*
D82*
X009167Y026656D02*
G03*
X009167Y026656I-00008J0D01*
G01*
Y029907D02*
G03*
X009167Y029907I-00008J0D01*
G01*
Y033159D02*
G03*
X009167Y033159I-00008J0D01*
G01*
Y036411D02*
G03*
X009167Y036411I-00008J0D01*
G01*
Y039663D02*
G03*
X009167Y039663I-00008J0D01*
G01*
Y042915D02*
G03*
X009167Y042915I-00008J0D01*
G01*
Y046167D02*
G03*
X009167Y046167I-00008J0D01*
G01*
Y049419D02*
G03*
X009167Y049419I-00008J0D01*
G01*
M02*
