G04*
G04 #@! TF.GenerationSoftware,Altium Limited,Altium Designer,18.0.7 (293)*
G04*
G04 Layer_Physical_Order=2*
G04 Layer_Color=16711680*
%FSTAX24Y24*%
%MOIN*%
G70*
G01*
G75*
%ADD24C,0.0472*%
%ADD25C,0.0197*%
%ADD26C,0.0157*%
%ADD27C,0.0630*%
%ADD28R,0.1093X0.1093*%
%ADD29C,0.1093*%
%ADD30R,0.0630X0.0984*%
%ADD31O,0.0630X0.0984*%
%ADD32C,0.0984*%
%ADD33C,0.0768*%
%ADD34R,0.0768X0.0768*%
%ADD35O,0.0700X0.1000*%
%ADD36R,0.0700X0.1000*%
%ADD37R,0.0630X0.0630*%
%ADD38C,0.0551*%
%ADD39C,0.1969*%
%ADD40R,0.0551X0.0472*%
%ADD41R,0.0787X0.0512*%
%ADD42R,0.2500X0.2500*%
%ADD43R,0.0335X0.0472*%
%ADD44R,0.0472X0.0335*%
%ADD45R,0.0748X0.0472*%
%ADD46R,0.0598X0.0701*%
G04:AMPARAMS|DCode=47|XSize=55.5mil|YSize=57.9mil|CornerRadius=6.9mil|HoleSize=0mil|Usage=FLASHONLY|Rotation=180.000|XOffset=0mil|YOffset=0mil|HoleType=Round|Shape=RoundedRectangle|*
%AMROUNDEDRECTD47*
21,1,0.0555,0.0440,0,0,180.0*
21,1,0.0416,0.0579,0,0,180.0*
1,1,0.0139,-0.0208,0.0220*
1,1,0.0139,0.0208,0.0220*
1,1,0.0139,0.0208,-0.0220*
1,1,0.0139,-0.0208,-0.0220*
%
%ADD47ROUNDEDRECTD47*%
%ADD48R,0.0472X0.0551*%
%ADD49R,0.0787X0.0748*%
G04:AMPARAMS|DCode=50|XSize=39.4mil|YSize=78.7mil|CornerRadius=4.9mil|HoleSize=0mil|Usage=FLASHONLY|Rotation=90.000|XOffset=0mil|YOffset=0mil|HoleType=Round|Shape=RoundedRectangle|*
%AMROUNDEDRECTD50*
21,1,0.0394,0.0689,0,0,90.0*
21,1,0.0295,0.0787,0,0,90.0*
1,1,0.0098,0.0344,0.0148*
1,1,0.0098,0.0344,-0.0148*
1,1,0.0098,-0.0344,-0.0148*
1,1,0.0098,-0.0344,0.0148*
%
%ADD50ROUNDEDRECTD50*%
G04:AMPARAMS|DCode=51|XSize=216.5mil|YSize=224.4mil|CornerRadius=27.1mil|HoleSize=0mil|Usage=FLASHONLY|Rotation=90.000|XOffset=0mil|YOffset=0mil|HoleType=Round|Shape=RoundedRectangle|*
%AMROUNDEDRECTD51*
21,1,0.2165,0.1703,0,0,90.0*
21,1,0.1624,0.2244,0,0,90.0*
1,1,0.0541,0.0851,0.0812*
1,1,0.0541,0.0851,-0.0812*
1,1,0.0541,-0.0851,-0.0812*
1,1,0.0541,-0.0851,0.0812*
%
%ADD51ROUNDEDRECTD51*%
%ADD52O,0.0787X0.0217*%
%ADD53R,0.1614X0.0787*%
%ADD54R,0.0748X0.0787*%
%ADD55R,0.0800X0.0190*%
%ADD56R,0.0190X0.0800*%
G04:AMPARAMS|DCode=57|XSize=216.5mil|YSize=59.1mil|CornerRadius=7.4mil|HoleSize=0mil|Usage=FLASHONLY|Rotation=0.000|XOffset=0mil|YOffset=0mil|HoleType=Round|Shape=RoundedRectangle|*
%AMROUNDEDRECTD57*
21,1,0.2165,0.0443,0,0,0.0*
21,1,0.2018,0.0591,0,0,0.0*
1,1,0.0148,0.1009,-0.0221*
1,1,0.0148,-0.1009,-0.0221*
1,1,0.0148,-0.1009,0.0221*
1,1,0.0148,0.1009,0.0221*
%
%ADD57ROUNDEDRECTD57*%
%ADD58C,0.0787*%
%ADD59C,0.0394*%
%ADD60C,0.0295*%
%ADD61C,0.0236*%
%ADD62C,0.0100*%
G36*
X035915Y028965D02*
X035895Y028915D01*
X035793D01*
X035777Y028958D01*
Y028991D01*
X035491D01*
Y028724D01*
X035441D01*
Y028674D01*
X035104D01*
Y028541D01*
X034809D01*
Y027418D01*
X034848D01*
X034872Y027369D01*
X034822Y027303D01*
X034774Y027188D01*
X034758Y027064D01*
Y026858D01*
X03449D01*
Y027856D01*
X034271D01*
X034233Y027946D01*
X034158Y028045D01*
X032975Y029227D01*
X032994Y029273D01*
X035607D01*
X035915Y028965D01*
D02*
G37*
G36*
X05689Y051996D02*
X056788Y051877D01*
X056675Y051692D01*
X056592Y051492D01*
X056541Y051281D01*
X056524Y051065D01*
X056541Y050849D01*
X056592Y050638D01*
X056675Y050437D01*
X056788Y050253D01*
X056929Y050088D01*
X057094Y049947D01*
X057279Y049833D01*
X057479Y04975D01*
X05769Y0497D01*
X057906Y049683D01*
X058123Y0497D01*
X058333Y04975D01*
X058534Y049833D01*
X058719Y049947D01*
X058838Y050048D01*
X058888Y050025D01*
X058888Y009979D01*
X058838Y009956D01*
X058719Y010057D01*
X058534Y010171D01*
X058333Y010254D01*
X058123Y010304D01*
X057906Y010321D01*
X05769Y010304D01*
X057479Y010254D01*
X057279Y010171D01*
X057094Y010057D01*
X056929Y009916D01*
X056788Y009751D01*
X056675Y009566D01*
X056592Y009366D01*
X056541Y009155D01*
X056524Y008939D01*
X056541Y008723D01*
X056592Y008512D01*
X056675Y008311D01*
X056788Y008127D01*
X05689Y008008D01*
X056867Y007958D01*
X025737D01*
Y009908D01*
X032432D01*
X032555Y009921D01*
X032674Y009957D01*
X032784Y010015D01*
X032879Y010094D01*
X03447Y011684D01*
X03447Y011684D01*
X034548Y01178D01*
X034607Y011889D01*
X034643Y012008D01*
X034655Y012132D01*
Y013076D01*
X03472D01*
Y013451D01*
Y013827D01*
X034652D01*
Y014121D01*
X034296D01*
X034285Y014126D01*
X03426Y014142D01*
X034233Y014161D01*
X03408Y01429D01*
X034025Y014344D01*
X034023Y014346D01*
X033315Y015054D01*
Y015523D01*
X033315Y015525D01*
X033317Y015602D01*
X033318Y015613D01*
X033883D01*
Y017187D01*
X033074D01*
X033073Y017198D01*
X033071Y017275D01*
X033071Y017277D01*
Y019565D01*
X033071Y019566D01*
X033076Y019696D01*
X03308Y019733D01*
X033086Y019765D01*
X033089Y01978D01*
X033098Y019787D01*
X033121Y019817D01*
X033139Y019835D01*
X033146Y01985D01*
X033169Y019879D01*
X033214Y019987D01*
X033229Y020103D01*
Y020398D01*
X033214Y020514D01*
X033169Y020621D01*
X033098Y020714D01*
X033006Y020785D01*
X032898Y02083D01*
X032782Y020845D01*
X032648D01*
X032561Y020871D01*
X032438Y020883D01*
X032314Y020871D01*
X032227Y020845D01*
X032093D01*
X031978Y02083D01*
X03187Y020785D01*
X031777Y020714D01*
X031706Y020621D01*
X031662Y020514D01*
X031647Y020398D01*
Y020103D01*
X031662Y019987D01*
X031706Y019879D01*
X031729Y01985D01*
X031737Y019835D01*
X031754Y019817D01*
X031777Y019787D01*
X031786Y01978D01*
X03179Y019765D01*
X031795Y019738D01*
X031803Y019636D01*
X031805Y019574D01*
X031805Y019572D01*
Y017277D01*
X031805Y017275D01*
X031803Y017198D01*
X031802Y017187D01*
X031481D01*
Y015613D01*
X032046D01*
X032047Y015602D01*
X032049Y015525D01*
X032049Y015523D01*
Y014792D01*
X032061Y014668D01*
X032097Y014549D01*
X032156Y01444D01*
X032234Y014344D01*
X033167Y013411D01*
X033169Y013409D01*
X033228Y013349D01*
X033273Y013299D01*
X03335Y013205D01*
X033371Y013175D01*
X033387Y013149D01*
X033389Y013144D01*
Y012394D01*
X03217Y011174D01*
X025737D01*
Y013164D01*
X027656D01*
X02778Y013176D01*
X027899Y013212D01*
X028008Y013271D01*
X028104Y01335D01*
X029733Y014979D01*
X029733Y014979D01*
X029812Y015075D01*
X029871Y015185D01*
X029907Y015303D01*
X029919Y015427D01*
Y018235D01*
X029919Y018237D01*
X02992Y018317D01*
X029955D01*
Y018695D01*
X029957Y018712D01*
X029956Y018722D01*
X029957Y018733D01*
X029955Y018742D01*
Y019065D01*
Y019913D01*
X029957Y01993D01*
X029955Y019946D01*
Y020325D01*
X029832D01*
Y021211D01*
X029813Y021352D01*
X029759Y021484D01*
X029672Y021597D01*
X028958Y022311D01*
X028845Y022398D01*
X028713Y022453D01*
X028572Y022471D01*
X028334D01*
X028332Y022471D01*
X028329Y022475D01*
X028305Y022494D01*
X028289Y02251D01*
X028269Y022521D01*
X028232Y02255D01*
X028119Y022596D01*
X027998Y022612D01*
X027582D01*
X027461Y022596D01*
X027348Y02255D01*
X027252Y022475D01*
X027177Y022379D01*
X027131Y022266D01*
X027115Y022145D01*
Y021705D01*
X027131Y021584D01*
X027177Y021472D01*
X027213Y021425D01*
X027177Y021379D01*
X027131Y021266D01*
X027115Y021145D01*
Y020705D01*
X027126Y02062D01*
X027127Y020611D01*
X027128Y020606D01*
X027131Y020584D01*
X027134Y020576D01*
X027134Y020576D01*
X027137Y020568D01*
X027157Y020244D01*
X027157Y020168D01*
X027157Y020165D01*
Y016573D01*
X026146Y015562D01*
X025737D01*
Y016307D01*
X026092D01*
Y017567D01*
X025737D01*
Y022878D01*
X031542D01*
Y022705D01*
X032059D01*
X032069Y022655D01*
X032051Y022647D01*
X032023Y022638D01*
X031988Y02263D01*
X031978Y022629D01*
X031952Y022618D01*
X031934Y022614D01*
X03191Y022601D01*
X031885Y022592D01*
X031882Y022589D01*
X03187Y022584D01*
X03185Y022568D01*
X031842Y022565D01*
X031833Y022556D01*
X031777Y022513D01*
X031706Y022421D01*
X031662Y022313D01*
X031647Y022197D01*
Y021902D01*
X031662Y021786D01*
X031706Y021679D01*
X031777Y021586D01*
X03187Y021515D01*
X031978Y02147D01*
X032093Y021455D01*
X032227D01*
X032314Y021429D01*
X032438Y021417D01*
X032561Y021429D01*
X032648Y021455D01*
X032782D01*
X032898Y02147D01*
X033006Y021515D01*
X033098Y021586D01*
X033169Y021679D01*
X033214Y021786D01*
X033219Y021823D01*
X033223Y021838D01*
X033224Y021858D01*
X033228Y021878D01*
X033229Y021896D01*
X03323Y021901D01*
X033235Y021912D01*
X033243Y021929D01*
X033257Y021952D01*
X033273Y021975D01*
X033335Y02205D01*
X033374Y02209D01*
X033381Y0221D01*
X03339Y022108D01*
X0334Y022124D01*
X033447Y02218D01*
X033505Y02229D01*
X033541Y022409D01*
X033553Y022532D01*
X033553Y022532D01*
Y02274D01*
X033629Y022741D01*
X033632Y022741D01*
X033662D01*
X033664Y022741D01*
X033742Y022741D01*
Y022732D01*
X034121D01*
X034137Y02273D01*
X034154Y022732D01*
X035002D01*
Y023026D01*
X03507D01*
Y023401D01*
Y023777D01*
X035002D01*
Y024071D01*
X034978D01*
Y0241D01*
X034966Y024223D01*
X03493Y024342D01*
X034871Y024451D01*
X034792Y024547D01*
X034792Y024547D01*
X034454Y024886D01*
Y025322D01*
X036022D01*
Y026858D01*
X035772D01*
X035752Y026908D01*
X035776Y026932D01*
X035851Y02703D01*
X035899Y027145D01*
X035915Y027269D01*
Y027418D01*
X036068D01*
Y027793D01*
X037053D01*
Y028915D01*
X036899D01*
Y029131D01*
X036883Y029254D01*
X036836Y029369D01*
X03676Y029468D01*
X036141Y030087D01*
X036042Y030163D01*
X035927Y03021D01*
X035804Y030227D01*
X032413D01*
X028829Y03381D01*
X028829Y033813D01*
X028827Y033823D01*
X028816Y03394D01*
X028778Y034066D01*
X028715Y034183D01*
X028632Y034285D01*
X02853Y034368D01*
X028414Y03443D01*
X028287Y034469D01*
X028156Y034482D01*
X028025Y034469D01*
X027899Y03443D01*
X027783Y034368D01*
X027681Y034285D01*
X027597Y034183D01*
X027535Y034066D01*
X027497Y03394D01*
X027484Y033809D01*
X027497Y033678D01*
X027535Y033552D01*
X027597Y033435D01*
X027681Y033334D01*
X027783Y03325D01*
X027899Y033188D01*
X028025Y033149D01*
X028142Y033138D01*
X028152Y033136D01*
X028155Y033136D01*
X031641Y029651D01*
X031622Y029604D01*
X030401D01*
X029351Y030655D01*
X029351Y030658D01*
X029349Y030668D01*
X029338Y030785D01*
X029299Y030911D01*
X029237Y031027D01*
X029153Y031129D01*
X029052Y031213D01*
X028935Y031275D01*
X028809Y031313D01*
X028678Y031326D01*
X028547Y031313D01*
X028421Y031275D01*
X028304Y031213D01*
X028202Y031129D01*
X028119Y031027D01*
X028057Y030911D01*
X028018Y030785D01*
X028005Y030654D01*
X028018Y030522D01*
X028057Y030396D01*
X028119Y03028D01*
X028202Y030178D01*
X028304Y030094D01*
X028421Y030032D01*
X028547Y029994D01*
X028664Y029982D01*
X028674Y029981D01*
X028677Y029981D01*
X029867Y028791D01*
X029965Y028715D01*
X03008Y028668D01*
X030204Y028651D01*
X032203D01*
X033151Y027703D01*
Y02705D01*
X032154D01*
X032066Y027077D01*
X031935Y02709D01*
X031804Y027077D01*
X031678Y027039D01*
X031561Y026977D01*
X031459Y026893D01*
X031376Y026791D01*
X031314Y026675D01*
X031275Y026549D01*
X031263Y026417D01*
X031275Y026286D01*
X031314Y02616D01*
X031376Y026044D01*
X031459Y025942D01*
X031561Y025858D01*
X031678Y025796D01*
X031804Y025758D01*
X031935Y025745D01*
X032066Y025758D01*
X032154Y025784D01*
X032272D01*
X032293Y025739D01*
X032252Y025689D01*
X03219Y025572D01*
X032151Y025446D01*
X032141Y025343D01*
X031821Y025023D01*
X031742Y02492D01*
X031693Y024801D01*
X031676Y024672D01*
Y024043D01*
X031542D01*
Y02387D01*
X025737D01*
Y052046D01*
X056867D01*
X05689Y051996D01*
D02*
G37*
%LPC*%
G36*
X035391Y028991D02*
X035104D01*
Y028774D01*
X035391D01*
Y028991D01*
D02*
G37*
G36*
X044051Y051529D02*
X04392Y051516D01*
X043794Y051478D01*
X043678Y051415D01*
X043576Y051332D01*
X043492Y05123D01*
X04343Y051114D01*
X043392Y050988D01*
X04338Y05087D01*
X043379Y050861D01*
X043379Y050858D01*
X043309Y050788D01*
X043233Y050689D01*
X043186Y050574D01*
X043169Y050451D01*
Y049939D01*
X043119Y049915D01*
X043042Y049979D01*
X042919Y050045D01*
X042785Y050085D01*
X042646Y050099D01*
X042507Y050085D01*
X042373Y050045D01*
X04225Y049979D01*
X042146Y049893D01*
X042042Y049979D01*
X041919Y050045D01*
X041785Y050085D01*
X041646Y050099D01*
X041507Y050085D01*
X041374Y050045D01*
X04125Y049979D01*
X041146Y049893D01*
X041042Y049979D01*
X040919Y050045D01*
X040785Y050085D01*
X040646Y050099D01*
X040507Y050085D01*
X040374Y050045D01*
X04025Y049979D01*
X040142Y04989D01*
X040054Y049783D01*
X040002Y049686D01*
X039924D01*
X039801Y04967D01*
X039686Y049622D01*
X039587Y049547D01*
X039011Y04897D01*
X039008Y04897D01*
X038998Y048968D01*
X038881Y048957D01*
X038754Y048919D01*
X038638Y048856D01*
X038536Y048773D01*
X038453Y048671D01*
X038397Y048567D01*
X038344Y04855D01*
X037704Y049189D01*
X037606Y049265D01*
X037491Y049313D01*
X037367Y049329D01*
X034239D01*
X034116Y049313D01*
X034001Y049265D01*
X033902Y049189D01*
X033366Y048653D01*
X03329Y048555D01*
X033242Y04844D01*
X033231Y048356D01*
X033178Y048334D01*
X03317Y04834D01*
X033048Y048391D01*
X032917Y048408D01*
X032707D01*
X032631Y048418D01*
X031647D01*
X031467Y048424D01*
X031417Y048429D01*
X031309Y048487D01*
X031191Y048523D01*
X031067Y048535D01*
X030944Y048523D01*
X030825Y048487D01*
X030715Y048428D01*
X03062Y048349D01*
X02947Y0472D01*
X029391Y047104D01*
X029333Y046994D01*
X029297Y046875D01*
X029284Y046752D01*
Y046719D01*
X029234Y046702D01*
X029206Y046739D01*
X028048Y047897D01*
Y04866D01*
X026662D01*
Y047172D01*
Y046172D01*
Y045172D01*
X027672D01*
Y042321D01*
X02767Y042319D01*
X027664Y042311D01*
X027589Y04222D01*
X027527Y042104D01*
X027489Y041978D01*
X027476Y041846D01*
X027489Y041715D01*
X027527Y041589D01*
X027589Y041473D01*
X027673Y041371D01*
X027775Y041287D01*
X027891Y041225D01*
X028017Y041187D01*
X028148Y041174D01*
X02828Y041187D01*
X028406Y041225D01*
X028522Y041287D01*
X028624Y041371D01*
X028708Y041473D01*
X02877Y041589D01*
X028808Y041715D01*
X028821Y041846D01*
X028808Y041978D01*
X02877Y042104D01*
X028708Y04222D01*
X028641Y042301D01*
X028642Y042333D01*
X028686Y042368D01*
X028738Y042352D01*
X028869Y042339D01*
X029Y042352D01*
X029126Y04239D01*
X029243Y042453D01*
X029344Y042536D01*
X029428Y042638D01*
X02949Y042754D01*
X029529Y042881D01*
X029541Y043012D01*
X029529Y043143D01*
X02949Y043269D01*
X029428Y043385D01*
X029353Y043476D01*
X029348Y043484D01*
X029345Y043487D01*
Y045276D01*
X029376Y04529D01*
X029395Y045291D01*
X02947Y045201D01*
X029878Y044793D01*
X029844Y044759D01*
X029765Y044663D01*
X029707Y044553D01*
X029671Y044435D01*
X029658Y044311D01*
Y040581D01*
X029671Y040457D01*
X029707Y040338D01*
X029761Y040237D01*
X029539Y040015D01*
X02946Y039919D01*
X029401Y039809D01*
X029365Y03969D01*
X029353Y039567D01*
Y038041D01*
X029365Y037918D01*
X029389Y037841D01*
X029373Y037828D01*
X029289Y037726D01*
X029227Y03761D01*
X029189Y037484D01*
X029186Y037456D01*
X029139Y037439D01*
X02851Y038068D01*
X028412Y038144D01*
X028297Y038191D01*
X028173Y038207D01*
X028048D01*
Y038475D01*
X026662D01*
Y036987D01*
Y035987D01*
Y034987D01*
X028048D01*
Y035299D01*
X028094Y035318D01*
X032786Y030626D01*
X032885Y03055D01*
X033Y030502D01*
X033123Y030486D01*
X03787D01*
X039151Y029205D01*
X03925Y029129D01*
X039365Y029082D01*
X039488Y029066D01*
X039833D01*
Y028912D01*
X03979Y028896D01*
X039757D01*
Y02861D01*
X040024D01*
Y02856D01*
X040074D01*
Y028224D01*
X040207D01*
Y028108D01*
X040197D01*
Y026572D01*
X041772D01*
Y028108D01*
X041442D01*
X041397Y028217D01*
X04133Y028305D01*
Y029188D01*
X040956D01*
Y030172D01*
X039833D01*
Y030019D01*
X039686D01*
X038766Y030938D01*
X038785Y030984D01*
X042203D01*
X043696Y029492D01*
X043676Y029445D01*
X041939D01*
Y028108D01*
X041917D01*
Y026572D01*
X04282D01*
Y024584D01*
X042754Y024529D01*
X04267Y024427D01*
X042608Y024311D01*
X04257Y024184D01*
X042557Y024053D01*
X04257Y023922D01*
X042608Y023796D01*
X04267Y02368D01*
X042754Y023578D01*
X042856Y023494D01*
X042972Y023432D01*
X043098Y023394D01*
X043229Y023381D01*
X043272Y023385D01*
X043309Y023351D01*
Y021983D01*
X0431D01*
X0431Y021983D01*
X043008Y021986D01*
Y022137D01*
X042654D01*
X042654Y022137D01*
X042652Y022137D01*
X04263D01*
X042613Y02214D01*
X042596Y022137D01*
X040606D01*
Y020563D01*
X041171D01*
X041172Y020552D01*
X041174Y020475D01*
X041174Y020473D01*
Y020243D01*
X040108Y019176D01*
X038571D01*
X038484Y019203D01*
X038352Y019216D01*
X038221Y019203D01*
X038095Y019165D01*
X037979Y019102D01*
X037877Y019019D01*
X037793Y018917D01*
X037731Y018801D01*
X037693Y018675D01*
X03768Y018543D01*
X037693Y018412D01*
X037731Y018286D01*
X037793Y01817D01*
X037877Y018068D01*
X037979Y017984D01*
X038095Y017922D01*
X038221Y017884D01*
X038352Y017871D01*
X038484Y017884D01*
X038571Y01791D01*
X039688D01*
X039707Y017864D01*
X039021Y017179D01*
X038942Y017076D01*
X038893Y016956D01*
X038876Y016828D01*
Y016743D01*
X038742D01*
Y015541D01*
X038692Y015538D01*
X03869Y015562D01*
X038652Y015688D01*
X038589Y015805D01*
X038506Y015907D01*
X038404Y01599D01*
X038288Y016052D01*
X038162Y016091D01*
X03803Y016104D01*
X037899Y016091D01*
X037773Y016052D01*
X037657Y01599D01*
X037555Y015907D01*
X037471Y015805D01*
X037409Y015688D01*
X037371Y015562D01*
X037358Y015431D01*
X037371Y0153D01*
X037409Y015174D01*
X037471Y015057D01*
X037546Y014966D01*
X037552Y014958D01*
X037554Y014956D01*
Y014594D01*
X03757Y014471D01*
X037618Y014356D01*
X037693Y014258D01*
X038039Y013912D01*
X038138Y013836D01*
X038253Y013789D01*
X038376Y013772D01*
X039462D01*
Y013619D01*
X039419Y013603D01*
X039386D01*
Y013317D01*
X039653D01*
Y013267D01*
X039703D01*
Y01293D01*
X039836D01*
Y012635D01*
X040958D01*
Y012823D01*
X041494D01*
X041618Y01284D01*
X041645Y012851D01*
X041687Y012823D01*
Y012753D01*
X043222D01*
Y014327D01*
X041687D01*
Y01401D01*
X041611Y014D01*
X041496Y013953D01*
X041398Y013877D01*
X041297Y013777D01*
X040958D01*
Y013894D01*
X040584D01*
Y014783D01*
X041687D01*
Y014473D01*
X043222D01*
Y016047D01*
X041687D01*
Y015737D01*
X04075D01*
Y016743D01*
X040055D01*
X040036Y016789D01*
X04055Y017304D01*
X046844D01*
X046973Y017321D01*
X047093Y01737D01*
X047195Y017449D01*
X047725Y017979D01*
X047804Y018082D01*
X047854Y018202D01*
X047871Y01833D01*
Y018446D01*
X048138D01*
Y015744D01*
X047901D01*
Y013956D01*
X049388D01*
Y013959D01*
X049428Y013988D01*
X049499Y013967D01*
X049644Y013953D01*
X04979Y013967D01*
X04993Y01401D01*
X05006Y014079D01*
X050173Y014172D01*
X050266Y014285D01*
X050294Y014338D01*
X050359Y014352D01*
X050418Y014307D01*
X050527Y014262D01*
X050594Y014253D01*
Y01485D01*
Y015447D01*
X050527Y015438D01*
X050418Y015393D01*
X050361Y01535D01*
X050361Y01535D01*
X050343Y015349D01*
X050302Y015367D01*
X050302Y015367D01*
X050284Y015449D01*
X050279Y015484D01*
X050266Y015675D01*
X050265Y015745D01*
X050265Y015747D01*
Y015972D01*
X050292Y01606D01*
X050304Y016191D01*
X050292Y016322D01*
X050253Y016448D01*
X050191Y016565D01*
X050107Y016666D01*
X050006Y01675D01*
X049889Y016812D01*
X049763Y016851D01*
X049716Y016855D01*
X049718Y016905D01*
X050745D01*
X051148Y016502D01*
Y015555D01*
X051116Y015528D01*
X051023Y015415D01*
X050995Y015362D01*
X05093Y015348D01*
X050871Y015393D01*
X050762Y015438D01*
X050694Y015447D01*
Y01485D01*
Y014253D01*
X050762Y014262D01*
X050871Y014307D01*
X05093Y014352D01*
X050995Y014338D01*
X051023Y014285D01*
X051116Y014172D01*
X051229Y014079D01*
X051359Y01401D01*
X051499Y013967D01*
X051644Y013953D01*
X05179Y013967D01*
X05193Y01401D01*
X05206Y014079D01*
X052144Y014148D01*
X052229Y014079D01*
X052359Y01401D01*
X052499Y013967D01*
X052644Y013953D01*
X05279Y013967D01*
X05293Y01401D01*
X05306Y014079D01*
X053144Y014148D01*
X053229Y014079D01*
X053359Y01401D01*
X053499Y013967D01*
X053644Y013953D01*
X05379Y013967D01*
X05393Y01401D01*
X05406Y014079D01*
X054173Y014172D01*
X054266Y014285D01*
X054335Y014414D01*
X054377Y014554D01*
X054392Y0147D01*
Y015D01*
X054377Y015146D01*
X054335Y015286D01*
X054266Y015415D01*
X054173Y015528D01*
X05406Y015621D01*
X05393Y01569D01*
X05379Y015733D01*
X053644Y015747D01*
X053499Y015733D01*
X053359Y01569D01*
X053229Y015621D01*
X053191Y01559D01*
X053141Y015613D01*
Y016564D01*
X053124Y016693D01*
X053074Y016812D01*
X052995Y016915D01*
X052995Y016915D01*
X052245Y017665D01*
X052264Y017718D01*
X052352Y017726D01*
X052478Y017764D01*
X052594Y017827D01*
X052696Y01791D01*
X05278Y018012D01*
X052842Y018128D01*
X05288Y018255D01*
X05289Y018353D01*
X053034Y018497D01*
X053113Y0186D01*
X053163Y01872D01*
X053179Y018848D01*
X053179Y018848D01*
Y019851D01*
X053414D01*
X053476Y019848D01*
X053499Y019844D01*
X053504Y01982D01*
X053507Y019758D01*
Y019619D01*
X05348Y019531D01*
X053467Y0194D01*
X05348Y019268D01*
X053518Y019142D01*
X053581Y019026D01*
X053664Y018924D01*
X053766Y01884D01*
X053882Y018778D01*
X054009Y01874D01*
X05414Y018727D01*
X054271Y01874D01*
X054397Y018778D01*
X054513Y01884D01*
X054544Y018866D01*
X054589Y018844D01*
Y012978D01*
X053096Y011485D01*
X045194D01*
X045192Y011485D01*
X045112Y011486D01*
Y011521D01*
X044734D01*
X044718Y011524D01*
X044707Y011522D01*
X044696Y011523D01*
X044688Y011521D01*
X043105D01*
Y011291D01*
X042275D01*
X042273Y011294D01*
X042265Y011299D01*
X042174Y011374D01*
X042057Y011436D01*
X041931Y011475D01*
X0418Y011487D01*
X041669Y011475D01*
X041543Y011436D01*
X041426Y011374D01*
X041324Y011291D01*
X041241Y011189D01*
X041179Y011072D01*
X04114Y010946D01*
X041127Y010815D01*
X04114Y010684D01*
X041179Y010558D01*
X041241Y010441D01*
X041324Y010339D01*
X041426Y010256D01*
X041543Y010194D01*
X041669Y010155D01*
X0418Y010142D01*
X041931Y010155D01*
X042057Y010194D01*
X042174Y010256D01*
X042265Y01033D01*
X042273Y010336D01*
X042275Y010338D01*
X043105D01*
Y010183D01*
X044688D01*
X044696Y010181D01*
X044707Y010182D01*
X044718Y010181D01*
X044734Y010183D01*
X045112D01*
Y010218D01*
X045114Y010218D01*
X045192Y010219D01*
X045194Y010219D01*
X053358D01*
X053481Y010231D01*
X0536Y010267D01*
X05371Y010326D01*
X053806Y010404D01*
X05567Y012269D01*
X055749Y012365D01*
X055807Y012474D01*
X055843Y012593D01*
X055855Y012716D01*
X055855Y012716D01*
Y020216D01*
X057792Y022152D01*
X057792Y022152D01*
X057871Y022248D01*
X057929Y022358D01*
X057965Y022477D01*
X057977Y0226D01*
Y02745D01*
X057977Y02745D01*
X057965Y027573D01*
X057929Y027692D01*
X057871Y027802D01*
X057792Y027898D01*
X05733Y028359D01*
X057329Y028361D01*
X057292Y0284D01*
X057329Y028439D01*
X05733Y028441D01*
X057792Y028902D01*
X057871Y028998D01*
X057929Y029108D01*
X057965Y029227D01*
X057977Y02935D01*
X057977Y02935D01*
Y03325D01*
X057977Y03325D01*
X057965Y033373D01*
X057929Y033492D01*
X057871Y033602D01*
X057792Y033698D01*
X05733Y034159D01*
X057329Y034161D01*
X057292Y0342D01*
X057329Y034239D01*
X05733Y034241D01*
X057742Y034652D01*
X057821Y034748D01*
X057879Y034858D01*
X057915Y034977D01*
X057927Y0351D01*
Y03905D01*
X057915Y039173D01*
X057879Y039292D01*
X057821Y039402D01*
X057742Y039498D01*
X05733Y039909D01*
X057329Y039911D01*
X057292Y03995D01*
X057329Y039989D01*
X05733Y039991D01*
X057742Y040402D01*
X057821Y040498D01*
X057879Y040608D01*
X057915Y040727D01*
X057927Y04085D01*
Y0449D01*
X057915Y045023D01*
X057879Y045142D01*
X057821Y045252D01*
X057742Y045348D01*
X05733Y045759D01*
X057329Y045761D01*
X057273Y04582D01*
X057229Y04587D01*
X057194Y045916D01*
X057165Y045959D01*
X057143Y045997D01*
X057127Y04603D01*
X057116Y046058D01*
X05711Y04608D01*
X057107Y046099D01*
X057105Y046136D01*
X057103Y046144D01*
Y046509D01*
X056725D01*
X056708Y046511D01*
X056697Y046509D01*
X056686Y04651D01*
X056678Y046509D01*
X055686D01*
Y045517D01*
X055684Y045509D01*
X055685Y045497D01*
X055684Y045486D01*
X055686Y04547D01*
Y045091D01*
X055692D01*
X055727Y045041D01*
X055696Y044939D01*
X055682Y0448D01*
X055696Y044661D01*
X055737Y044527D01*
X055802Y044404D01*
X055883Y044306D01*
X055887Y0443D01*
X055891Y044297D01*
X055891Y044296D01*
X055891Y044296D01*
X055898Y044289D01*
Y043606D01*
X055701D01*
Y043472D01*
X05467D01*
X054542Y043455D01*
X054422Y043406D01*
X054319Y043327D01*
X052344Y041351D01*
X052265Y041248D01*
X052215Y041128D01*
X052198Y041D01*
X052198Y031892D01*
X052152Y031873D01*
X0506Y033425D01*
X050497Y033504D01*
X050377Y033553D01*
X050249Y03357D01*
X0502D01*
Y033743D01*
X048192D01*
Y033687D01*
X048006D01*
Y034671D01*
X047921D01*
Y042215D01*
Y049D01*
X047905Y049123D01*
X047857Y049238D01*
X047781Y049337D01*
X046431Y050687D01*
X046333Y050763D01*
X046218Y05081D01*
X046094Y050827D01*
X044944D01*
X044821Y05081D01*
X04476Y050785D01*
X04472Y050815D01*
X044724Y050856D01*
X044711Y050988D01*
X044673Y051114D01*
X04461Y05123D01*
X044527Y051332D01*
X044425Y051415D01*
X044309Y051478D01*
X044182Y051516D01*
X044051Y051529D01*
D02*
G37*
G36*
X051509Y03888D02*
Y038558D01*
X051832D01*
X051825Y038606D01*
X051788Y038697D01*
X051727Y038776D01*
X051649Y038836D01*
X051557Y038874D01*
X051509Y03888D01*
D02*
G37*
G36*
X051409D02*
X051361Y038874D01*
X05127Y038836D01*
X051192Y038776D01*
X051131Y038697D01*
X051094Y038606D01*
X051087Y038558D01*
X051409D01*
Y03888D01*
D02*
G37*
G36*
X051832Y038458D02*
X051509D01*
Y038136D01*
X051557Y038142D01*
X051649Y03818D01*
X051727Y03824D01*
X051788Y038318D01*
X051825Y03841D01*
X051832Y038458D01*
D02*
G37*
G36*
X051409D02*
X051087D01*
X051094Y03841D01*
X051131Y038318D01*
X051192Y03824D01*
X05127Y03818D01*
X051361Y038142D01*
X051409Y038136D01*
Y038458D01*
D02*
G37*
G36*
X039974Y02851D02*
X039757D01*
Y028224D01*
X039974D01*
Y02851D01*
D02*
G37*
G36*
X028048Y02923D02*
X026662D01*
Y027742D01*
Y026742D01*
Y025742D01*
X028048D01*
Y02607D01*
X028094Y02609D01*
X028485Y025698D01*
X028442Y025618D01*
X028404Y025491D01*
X028391Y02536D01*
X028404Y025229D01*
X028442Y025103D01*
X028505Y024987D01*
X028588Y024885D01*
X02869Y024801D01*
X028806Y024739D01*
X028933Y024701D01*
X029064Y024688D01*
X029195Y024701D01*
X029321Y024739D01*
X029437Y024801D01*
X029539Y024885D01*
X029623Y024987D01*
X029685Y025103D01*
X029723Y025229D01*
X029736Y02536D01*
X029723Y025491D01*
X029685Y025618D01*
X029623Y025734D01*
X029539Y025836D01*
X029534Y02584D01*
X029524Y025917D01*
X029476Y026032D01*
X029401Y026131D01*
X029261Y02627D01*
X02928Y026322D01*
X029388Y026355D01*
X029504Y026417D01*
X029606Y026501D01*
X02969Y026603D01*
X029752Y026719D01*
X02979Y026845D01*
X029803Y026976D01*
X02979Y027108D01*
X029752Y027234D01*
X02969Y02735D01*
X029606Y027452D01*
X029504Y027536D01*
X029388Y027598D01*
X029262Y027636D01*
X029145Y027648D01*
X029135Y027649D01*
X029132Y027649D01*
X028081Y0287D01*
X028048Y028739D01*
Y02923D01*
D02*
G37*
G36*
X037742Y026858D02*
X036167D01*
Y025322D01*
X036493D01*
X036494Y025317D01*
X036542Y025202D01*
X036618Y025103D01*
X037281Y024439D01*
X03738Y024363D01*
X037495Y024316D01*
X037618Y0243D01*
X038639D01*
Y024107D01*
X040647D01*
Y02428D01*
X040753D01*
X040921Y024111D01*
X040931Y024012D01*
X040969Y023886D01*
X041031Y02377D01*
X041115Y023668D01*
X041217Y023585D01*
X041333Y023522D01*
X041459Y023484D01*
X041591Y023471D01*
X041722Y023484D01*
X041848Y023522D01*
X041964Y023585D01*
X042066Y023668D01*
X04215Y02377D01*
X042212Y023886D01*
X04225Y024012D01*
X042263Y024144D01*
X04225Y024275D01*
X042212Y024401D01*
X04215Y024517D01*
X042066Y024619D01*
X041964Y024703D01*
X041848Y024765D01*
X041722Y024803D01*
X041623Y024813D01*
X041309Y025127D01*
X041206Y025206D01*
X041087Y025256D01*
X040958Y025272D01*
X040647D01*
Y025445D01*
X038639D01*
Y025253D01*
X037816D01*
X037742Y025326D01*
Y026858D01*
D02*
G37*
G36*
X035456Y023777D02*
X03517D01*
Y023451D01*
X035456D01*
Y023777D01*
D02*
G37*
G36*
Y023351D02*
X03517D01*
Y023026D01*
X035456D01*
Y023351D01*
D02*
G37*
G36*
X039289Y021844D02*
X038432D01*
Y0214D01*
X039289D01*
Y021844D01*
D02*
G37*
G36*
X038332D02*
X037475D01*
Y0214D01*
X038332D01*
Y021844D01*
D02*
G37*
G36*
X036203Y022336D02*
X035401D01*
Y0212D01*
X036576D01*
Y021962D01*
X036564Y022059D01*
X036526Y022149D01*
X036467Y022226D01*
X036389Y022286D01*
X036299Y022323D01*
X036203Y022336D01*
D02*
G37*
G36*
X035301D02*
X0345D01*
X034403Y022323D01*
X034313Y022286D01*
X034235Y022226D01*
X034176Y022149D01*
X034139Y022059D01*
X034126Y021962D01*
Y0212D01*
X035301D01*
Y022336D01*
D02*
G37*
G36*
X039289Y0213D02*
X038432D01*
Y020856D01*
X039289D01*
Y0213D01*
D02*
G37*
G36*
X038332D02*
X037475D01*
Y020856D01*
X038332D01*
Y0213D01*
D02*
G37*
G36*
X036576Y0211D02*
X035401D01*
Y019964D01*
X036203D01*
X036299Y019977D01*
X036389Y020014D01*
X036467Y020074D01*
X036526Y020151D01*
X036564Y020241D01*
X036576Y020338D01*
Y0211D01*
D02*
G37*
G36*
X035301D02*
X034126D01*
Y020338D01*
X034139Y020241D01*
X034176Y020151D01*
X034235Y020074D01*
X034313Y020014D01*
X034403Y019977D01*
X0345Y019964D01*
X035301D01*
Y0211D01*
D02*
G37*
G36*
X03384Y019669D02*
Y019347D01*
X034162D01*
X034156Y019395D01*
X034118Y019487D01*
X034058Y019565D01*
X03398Y019625D01*
X033888Y019663D01*
X03384Y019669D01*
D02*
G37*
G36*
X03374D02*
X033692Y019663D01*
X033601Y019625D01*
X033522Y019565D01*
X033462Y019487D01*
X033424Y019395D01*
X033418Y019347D01*
X03374D01*
Y019669D01*
D02*
G37*
G36*
X034162Y019247D02*
X03384D01*
Y018925D01*
X033888Y018931D01*
X03398Y018969D01*
X034058Y019029D01*
X034118Y019108D01*
X034156Y019199D01*
X034162Y019247D01*
D02*
G37*
G36*
X03374D02*
X033418D01*
X033424Y019199D01*
X033462Y019108D01*
X033522Y019029D01*
X033601Y018969D01*
X033692Y018931D01*
X03374Y018925D01*
Y019247D01*
D02*
G37*
G36*
X037014Y016894D02*
X036157D01*
Y01645D01*
X037014D01*
Y016894D01*
D02*
G37*
G36*
X036057D02*
X0352D01*
Y01645D01*
X036057D01*
Y016894D01*
D02*
G37*
G36*
X037014Y01635D02*
X036157D01*
Y015906D01*
X037014D01*
Y01635D01*
D02*
G37*
G36*
X036057D02*
X0352D01*
Y015906D01*
X036057D01*
Y01635D01*
D02*
G37*
G36*
X035106Y013827D02*
X03482D01*
Y013501D01*
X035106D01*
Y013827D01*
D02*
G37*
G36*
Y013401D02*
X03482D01*
Y013076D01*
X035106D01*
Y013401D01*
D02*
G37*
G36*
X039603Y013217D02*
X039386D01*
Y01293D01*
X039603D01*
Y013217D01*
D02*
G37*
%LPD*%
G36*
X033486Y046888D02*
Y046191D01*
X033502Y046068D01*
X03355Y045953D01*
X033626Y045854D01*
X033915Y045565D01*
X033981Y045514D01*
X033966Y045402D01*
X033983Y045271D01*
X034032Y045152D01*
X033983Y045033D01*
X033966Y044902D01*
X033983Y044771D01*
X034034Y044649D01*
X034114Y044544D01*
X034219Y044463D01*
X034268Y044443D01*
X03426Y044402D01*
X034276Y044321D01*
X034322Y044252D01*
X034391Y044206D01*
X034472Y044189D01*
X035043D01*
X035124Y044206D01*
X035193Y044252D01*
X035239Y044321D01*
X035255Y044402D01*
X035275Y044425D01*
X036201D01*
X036213Y044377D01*
X036197Y044368D01*
X036095Y044285D01*
X036012Y044183D01*
X03595Y044066D01*
X035911Y04394D01*
X035898Y043809D01*
X035911Y043678D01*
X03595Y043552D01*
X036012Y043435D01*
X036095Y043334D01*
X036197Y04325D01*
X036314Y043188D01*
X03644Y043149D01*
X036571Y043137D01*
X036702Y043149D01*
X036828Y043188D01*
X036944Y04325D01*
X037036Y043325D01*
X037043Y04333D01*
X037046Y043333D01*
X037968D01*
X039934Y041367D01*
Y041352D01*
X039948Y041213D01*
X039988Y04108D01*
X040054Y040957D01*
X040142Y040849D01*
X04025Y04076D01*
X040374Y040694D01*
X040507Y040654D01*
X040646Y04064D01*
X040785Y040654D01*
X040901Y040689D01*
X040951Y040662D01*
Y040154D01*
X040329D01*
X039093Y04139D01*
X038994Y041466D01*
X038879Y041513D01*
X038756Y04153D01*
X034248D01*
X034125Y041513D01*
X03401Y041466D01*
X033911Y04139D01*
X033154Y040634D01*
X03312Y04066D01*
X032998Y040711D01*
X032867Y040728D01*
X032657D01*
X032581Y040738D01*
X032581Y040738D01*
X031231D01*
X031051Y040744D01*
X03102Y040747D01*
X030924Y040843D01*
Y044049D01*
X031221Y044345D01*
X031221Y044345D01*
X031255Y044387D01*
X031842D01*
X03185Y044322D01*
X031499Y043971D01*
X031368Y043845D01*
X031353Y043831D01*
X031345Y043827D01*
X031243Y043743D01*
X031159Y043641D01*
X031097Y043525D01*
X031059Y043399D01*
X031046Y043268D01*
X031059Y043137D01*
X031097Y04301D01*
X031159Y042894D01*
X031243Y042792D01*
X031345Y042709D01*
X031461Y042646D01*
X031587Y042608D01*
X031718Y042595D01*
X03185Y042608D01*
X031976Y042646D01*
X032092Y042709D01*
X032194Y042792D01*
X032278Y042894D01*
X03234Y04301D01*
X032378Y043137D01*
X032391Y043268D01*
X032378Y043399D01*
X032367Y043435D01*
X032822Y04389D01*
X032828Y043895D01*
X032917D01*
X033048Y043913D01*
X03317Y043963D01*
X033275Y044044D01*
X033355Y044149D01*
X033406Y044271D01*
X033423Y044402D01*
X033406Y044533D01*
X033357Y044652D01*
X033406Y044771D01*
X033423Y044902D01*
X033406Y045033D01*
X033357Y045152D01*
X033406Y045271D01*
X033423Y045402D01*
X033406Y045533D01*
X033357Y045652D01*
X033406Y045771D01*
X033423Y045902D01*
X033406Y046033D01*
X033355Y046155D01*
X033275Y04626D01*
X03317Y04634D01*
X033121Y046361D01*
X033129Y046402D01*
X033121Y046443D01*
X03317Y046463D01*
X033275Y046544D01*
X033355Y046649D01*
X033406Y046771D01*
X033423Y046902D01*
X033422Y046908D01*
X033436Y046916D01*
X033486Y046888D01*
D02*
G37*
G36*
X055701Y042346D02*
X055995D01*
Y042278D01*
X056371D01*
Y042228D01*
X056421D01*
Y041891D01*
X056662D01*
Y041112D01*
X056435Y040886D01*
X056434Y040885D01*
X056375Y040828D01*
X056325Y040785D01*
X056278Y040749D01*
X056236Y04072D01*
X056198Y040698D01*
X056165Y040682D01*
X056137Y040672D01*
X056114Y040665D01*
X056096Y040662D01*
X056058Y04066D01*
X05605Y040659D01*
X055686D01*
Y04028D01*
X055684Y040264D01*
X055685Y040253D01*
X055684Y040241D01*
X055686Y040233D01*
Y039667D01*
X055684Y039659D01*
X055685Y039647D01*
X055684Y039636D01*
X055686Y03962D01*
Y039241D01*
X055692D01*
X055727Y039191D01*
X055696Y039089D01*
X055682Y03895D01*
X055696Y038811D01*
X055737Y038677D01*
X055802Y038554D01*
X055883Y038456D01*
X055887Y03845D01*
X055891Y038447D01*
X055891Y038446D01*
X055891Y038446D01*
X055898Y038439D01*
Y037556D01*
X055701D01*
X055701Y037556D01*
X055651Y037555D01*
X055551Y037585D01*
X05542Y037598D01*
X055289Y037585D01*
X055163Y037547D01*
X055047Y037485D01*
X054945Y037401D01*
X054861Y037299D01*
X054799Y037183D01*
X054761Y037057D01*
X054748Y036926D01*
X054761Y036795D01*
X054799Y036668D01*
X054861Y036552D01*
X054945Y03645D01*
X055047Y036367D01*
X055163Y036304D01*
X055289Y036266D01*
X05542Y036253D01*
X055551Y036266D01*
X055651Y036296D01*
X055701Y036296D01*
X055701Y036296D01*
X055701Y036296D01*
X055995D01*
Y036228D01*
X056371D01*
Y036178D01*
X056421D01*
Y035842D01*
X056662D01*
Y035362D01*
X056435Y035136D01*
X056434Y035135D01*
X056375Y035078D01*
X056325Y035035D01*
X056278Y034999D01*
X056236Y03497D01*
X056198Y034948D01*
X056165Y034932D01*
X056137Y034922D01*
X056114Y034915D01*
X056096Y034912D01*
X056058Y03491D01*
X05605Y034909D01*
X055686D01*
Y03453D01*
X055684Y034514D01*
X055685Y034503D01*
X055684Y034491D01*
X055686Y034483D01*
Y033917D01*
X055684Y033909D01*
X055685Y033897D01*
X055684Y033886D01*
X055686Y03387D01*
Y033491D01*
X055692D01*
X055727Y033441D01*
X055696Y033339D01*
X055682Y0332D01*
X055696Y033061D01*
X055737Y032927D01*
X055802Y032804D01*
X055883Y032706D01*
X055887Y0327D01*
X055891Y032697D01*
X055891Y032696D01*
X055891Y032696D01*
X055898Y032689D01*
Y031556D01*
X055751D01*
Y031556D01*
X055709Y03153D01*
X055678Y031547D01*
X055551Y031585D01*
X05542Y031598D01*
X055289Y031585D01*
X055163Y031547D01*
X055047Y031485D01*
X054945Y031401D01*
X054861Y031299D01*
X054799Y031183D01*
X054761Y031057D01*
X054748Y030926D01*
X054761Y030795D01*
X054799Y030668D01*
X054861Y030552D01*
X054945Y03045D01*
X055047Y030367D01*
X055163Y030304D01*
X055289Y030266D01*
X05542Y030253D01*
X055551Y030266D01*
X055678Y030304D01*
X055709Y030321D01*
X055751Y030296D01*
Y030296D01*
X056045D01*
Y030228D01*
X056421D01*
Y030178D01*
X056471D01*
Y029841D01*
X056712D01*
Y029612D01*
X056435Y029336D01*
X056434Y029335D01*
X056375Y029278D01*
X056325Y029235D01*
X056278Y029199D01*
X056236Y02917D01*
X056198Y029148D01*
X056165Y029132D01*
X056137Y029122D01*
X056114Y029115D01*
X056096Y029112D01*
X056058Y02911D01*
X05605Y029109D01*
X055686D01*
Y02873D01*
X055684Y028714D01*
X055685Y028703D01*
X055684Y028691D01*
X055686Y028683D01*
Y028117D01*
X055684Y028109D01*
X055685Y028097D01*
X055684Y028086D01*
X055686Y02807D01*
Y027691D01*
X055692D01*
X055727Y027641D01*
X055696Y027539D01*
X055682Y0274D01*
X055696Y027261D01*
X055737Y027127D01*
X055802Y027004D01*
X055883Y026906D01*
X055887Y0269D01*
X055891Y026897D01*
X055891Y026896D01*
X055891Y026896D01*
X055898Y026889D01*
Y026156D01*
X055751D01*
Y026117D01*
X055701Y026094D01*
X055602Y026147D01*
X055476Y026185D01*
X055344Y026198D01*
X055213Y026185D01*
X055087Y026147D01*
X054971Y026085D01*
X054869Y026001D01*
X054785Y025899D01*
X054723Y025783D01*
X054685Y025657D01*
X054672Y025526D01*
X054685Y025395D01*
X054723Y025268D01*
X054785Y025152D01*
X054869Y02505D01*
X054971Y024967D01*
X055087Y024904D01*
X055213Y024866D01*
X055344Y024853D01*
X055476Y024866D01*
X055602Y024904D01*
X055701Y024958D01*
X055751Y024934D01*
Y024896D01*
X056045D01*
Y024828D01*
X056421D01*
Y024778D01*
X056471D01*
Y024441D01*
X056712D01*
Y022862D01*
X056044Y022195D01*
X056012Y022197D01*
X055934Y022257D01*
X055842Y022295D01*
X055794Y022301D01*
Y021945D01*
X055778Y021929D01*
X055744D01*
Y021895D01*
X055728Y021879D01*
X055372D01*
X055378Y021831D01*
X055416Y02174D01*
X055476Y021661D01*
X055478Y021629D01*
X054966Y021117D01*
X053431D01*
Y021182D01*
X053056D01*
Y021282D01*
X053431D01*
Y021568D01*
X05343D01*
X053411Y021614D01*
X054014Y022218D01*
X054087Y022179D01*
X054213Y02214D01*
X054344Y022127D01*
X054476Y02214D01*
X054602Y022179D01*
X054718Y022241D01*
X05482Y022324D01*
X054904Y022426D01*
X054966Y022543D01*
X055004Y022669D01*
X055017Y0228D01*
X055004Y022931D01*
X054966Y023057D01*
X054904Y023174D01*
X05482Y023276D01*
X054718Y023359D01*
X054602Y023421D01*
X054501Y023452D01*
X054475Y023461D01*
X054458Y023512D01*
X054467Y0236D01*
X054454Y023731D01*
X054416Y023857D01*
X054354Y023974D01*
X05427Y024076D01*
X054168Y024159D01*
X054052Y024221D01*
X053926Y02426D01*
X053794Y024273D01*
X053763Y024269D01*
X053726Y024303D01*
Y024386D01*
X053788Y024463D01*
X05385Y024579D01*
X053889Y024705D01*
X053902Y024837D01*
X053889Y024968D01*
X05385Y025094D01*
X053788Y02521D01*
X053705Y025312D01*
X053603Y025396D01*
X053486Y025458D01*
X05336Y025496D01*
X053229Y025509D01*
X053228Y025509D01*
X053191Y025543D01*
X053191Y03586D01*
X053194Y035863D01*
Y03627D01*
Y036677D01*
X053191Y036679D01*
Y040794D01*
X054876Y042479D01*
X055701D01*
Y042346D01*
D02*
G37*
G36*
X033486Y039552D02*
Y038366D01*
X033502Y038243D01*
X03355Y038128D01*
X033626Y038029D01*
X03377Y037885D01*
X033869Y037809D01*
X033924Y037786D01*
X033916Y037721D01*
X033933Y03759D01*
X033982Y037471D01*
X033933Y037352D01*
X033916Y037221D01*
X033933Y03709D01*
X033984Y036968D01*
X034064Y036863D01*
X034169Y036783D01*
X034218Y036763D01*
X03421Y036721D01*
X034226Y03664D01*
X034272Y036571D01*
X034341Y036525D01*
X034422Y036509D01*
X034993D01*
X035074Y036525D01*
X035143Y036571D01*
X035189Y03664D01*
X035205Y036721D01*
X035225Y036745D01*
X036182D01*
X036184Y036743D01*
X036192Y036737D01*
X036283Y036662D01*
X036399Y0366D01*
X036525Y036562D01*
X036656Y036549D01*
X036788Y036562D01*
X036914Y0366D01*
X03703Y036662D01*
X037132Y036746D01*
X037216Y036848D01*
X037278Y036964D01*
X037316Y03709D01*
X037329Y037221D01*
X037316Y037353D01*
X037278Y037479D01*
X037224Y037579D01*
X037292Y037635D01*
X037376Y037737D01*
X037438Y037853D01*
X037477Y037979D01*
X037489Y03811D01*
X037481Y038195D01*
X037526Y038245D01*
X038164D01*
X039473Y036935D01*
X039572Y03686D01*
X039687Y036812D01*
X03981Y036796D01*
X039949D01*
Y036415D01*
X039937D01*
Y034644D01*
X041355D01*
Y03465D01*
X041405Y034685D01*
X041507Y034654D01*
X041646Y03464D01*
X041696Y034645D01*
X041733Y034612D01*
Y033411D01*
X04169Y033395D01*
X041657D01*
Y033109D01*
X041924D01*
Y033009D01*
X041657D01*
Y032723D01*
X041616Y032701D01*
X040345D01*
X0399Y033146D01*
Y033743D01*
X037892D01*
Y033687D01*
X037556D01*
Y034671D01*
X037038D01*
X036347Y035362D01*
X036366Y035398D01*
X036404Y035524D01*
X036417Y035656D01*
X036404Y035787D01*
X036366Y035913D01*
X036304Y036029D01*
X03622Y036131D01*
X036119Y036215D01*
X036002Y036277D01*
X035876Y036315D01*
X035745Y036328D01*
X035614Y036315D01*
X035488Y036277D01*
X035371Y036215D01*
X035269Y036131D01*
X035186Y036029D01*
X035124Y035913D01*
X035085Y035787D01*
X035072Y035656D01*
X035085Y035524D01*
X035124Y035398D01*
X035186Y035282D01*
X035269Y03518D01*
X035285Y035167D01*
X035285Y035167D01*
X035332Y035052D01*
X035408Y034954D01*
X036433Y033928D01*
Y033411D01*
X03639Y033395D01*
X036357D01*
Y033109D01*
X036624D01*
Y033059D01*
X036674D01*
Y032723D01*
X036807D01*
Y032427D01*
X037892D01*
Y032405D01*
X039238D01*
X039659Y031983D01*
X03964Y031937D01*
X034641D01*
X029935Y036643D01*
X029952Y03669D01*
X02998Y036693D01*
X030106Y036731D01*
X030222Y036793D01*
X030286Y036846D01*
X030359Y036774D01*
X030454Y036695D01*
X030564Y036637D01*
X030683Y036601D01*
X030806Y036588D01*
X03093Y036601D01*
X031048Y036637D01*
X031158Y036695D01*
X031176Y03671D01*
X03118Y036711D01*
X031416Y036725D01*
X031787D01*
X03179Y036721D01*
X031807Y03659D01*
X031858Y036468D01*
X031938Y036363D01*
X032043Y036283D01*
X032165Y036232D01*
X032296Y036215D01*
X032867D01*
X032998Y036232D01*
X03312Y036283D01*
X033225Y036363D01*
X033305Y036468D01*
X033356Y03659D01*
X033373Y036721D01*
X033356Y036852D01*
X033307Y036971D01*
X033356Y03709D01*
X033373Y037221D01*
X033356Y037352D01*
X033307Y037471D01*
X033356Y03759D01*
X033373Y037721D01*
X033356Y037852D01*
X033307Y037971D01*
X033356Y03809D01*
X033373Y038221D01*
X033356Y038352D01*
X033305Y038475D01*
X033225Y038579D01*
X03312Y03866D01*
X033071Y03868D01*
X033079Y038721D01*
X033071Y038763D01*
X03312Y038783D01*
X033225Y038863D01*
X033305Y038968D01*
X033356Y03909D01*
X033373Y039221D01*
X033356Y039352D01*
X033317Y039448D01*
X03344Y039571D01*
X033486Y039552D01*
D02*
G37*
G36*
X046968Y034671D02*
X046883D01*
Y033411D01*
X04684Y033395D01*
X046807D01*
Y033109D01*
X047074D01*
Y033059D01*
X047124D01*
Y032723D01*
X047257D01*
Y032427D01*
X048192D01*
Y032405D01*
X0502D01*
X0502Y032405D01*
Y032405D01*
X05024Y032381D01*
X051086Y031535D01*
X051057Y031493D01*
X050961Y031533D01*
X050833Y03155D01*
X04978D01*
X049747Y031587D01*
X049748Y031594D01*
X049004D01*
X049005Y031587D01*
X048972Y03155D01*
X046747D01*
X04515Y033146D01*
Y033743D01*
X04515D01*
X045132Y033774D01*
X045155Y033817D01*
X045193Y033944D01*
X045206Y034075D01*
X045193Y034206D01*
X045155Y034332D01*
X045093Y034448D01*
X045009Y03455D01*
X044907Y034634D01*
X044897Y03464D01*
X044902Y034689D01*
X044919Y034694D01*
X045042Y03476D01*
X045146Y034846D01*
X04525Y03476D01*
X045374Y034694D01*
X045507Y034654D01*
X045646Y03464D01*
X045785Y034654D01*
X045919Y034694D01*
X046042Y03476D01*
X04615Y034849D01*
X046238Y034957D01*
X046304Y03508D01*
X046344Y035213D01*
X046358Y035352D01*
Y035707D01*
X046344Y035846D01*
X046304Y035979D01*
X046238Y036102D01*
X04615Y03621D01*
X046042Y036299D01*
X045919Y036365D01*
X045785Y036405D01*
X045646Y036419D01*
X045507Y036405D01*
X045374Y036365D01*
X045331Y036342D01*
X045288Y036367D01*
Y036642D01*
Y037902D01*
X04509D01*
X045079Y037991D01*
X045031Y038106D01*
X044955Y038205D01*
X044871Y038289D01*
X044871Y038292D01*
X04487Y038301D01*
X044858Y038419D01*
X044862Y038424D01*
X044964Y038437D01*
X045079Y038485D01*
X045177Y038561D01*
X045665Y039048D01*
X04629D01*
Y039796D01*
Y041054D01*
X046304Y04108D01*
X046344Y041213D01*
X046358Y041352D01*
Y041707D01*
X046387Y041738D01*
X046968D01*
Y034671D01*
D02*
G37*
G36*
X046809Y025665D02*
X046314Y02517D01*
X046267Y025189D01*
Y025306D01*
X045061D01*
X045036Y025356D01*
X045078Y025411D01*
X045116Y025502D01*
X045122Y02555D01*
X04475D01*
Y02565D01*
X045122D01*
X045122Y025655D01*
X045166Y025705D01*
X046723D01*
X046786Y025713D01*
X046809Y025665D01*
D02*
G37*
G36*
X04494Y024262D02*
X045008D01*
Y023968D01*
X045892D01*
X045911Y023922D01*
X045683Y023693D01*
X045607Y023595D01*
X045559Y02348D01*
X045551Y023414D01*
X045471D01*
Y023482D01*
X045096D01*
Y023532D01*
X045046D01*
Y023868D01*
X04472D01*
X044705Y023912D01*
Y024262D01*
X04484D01*
Y024637D01*
X04494D01*
Y024262D01*
D02*
G37*
%LPC*%
G36*
X034807Y043273D02*
Y042951D01*
X03513D01*
X035123Y042999D01*
X035086Y043091D01*
X035025Y043169D01*
X034947Y043229D01*
X034856Y043267D01*
X034807Y043273D01*
D02*
G37*
G36*
X034707D02*
X034659Y043267D01*
X034568Y043229D01*
X03449Y043169D01*
X034429Y043091D01*
X034392Y042999D01*
X034385Y042951D01*
X034707D01*
Y043273D01*
D02*
G37*
G36*
X03513Y042851D02*
X034807D01*
Y042529D01*
X034856Y042535D01*
X034947Y042573D01*
X035025Y042633D01*
X035086Y042712D01*
X035123Y042803D01*
X03513Y042851D01*
D02*
G37*
G36*
X034707D02*
X034385D01*
X034392Y042803D01*
X034429Y042712D01*
X03449Y042633D01*
X034568Y042573D01*
X034659Y042535D01*
X034707Y042529D01*
Y042851D01*
D02*
G37*
G36*
X056321Y042178D02*
X055995D01*
Y041891D01*
X056321D01*
Y042178D01*
D02*
G37*
G36*
X053294Y036642D02*
Y03632D01*
X053616D01*
X05361Y036368D01*
X053572Y036459D01*
X053512Y036538D01*
X053434Y036598D01*
X053342Y036636D01*
X053294Y036642D01*
D02*
G37*
G36*
X053616Y03622D02*
X053294D01*
Y035897D01*
X053342Y035904D01*
X053434Y035942D01*
X053512Y036002D01*
X053572Y03608D01*
X05361Y036172D01*
X053616Y03622D01*
D02*
G37*
G36*
X056321Y036128D02*
X055995D01*
Y035842D01*
X056321D01*
Y036128D01*
D02*
G37*
G36*
X056371Y030128D02*
X056045D01*
Y029841D01*
X056371D01*
Y030128D01*
D02*
G37*
G36*
Y024728D02*
X056045D01*
Y024441D01*
X056371D01*
Y024728D01*
D02*
G37*
G36*
X055694Y022301D02*
X055646Y022295D01*
X055555Y022257D01*
X055476Y022197D01*
X055416Y022119D01*
X055378Y022027D01*
X055372Y021979D01*
X055694D01*
Y022301D01*
D02*
G37*
G36*
X033816Y035362D02*
Y03504D01*
X034138D01*
X034132Y035088D01*
X034094Y03518D01*
X034034Y035258D01*
X033955Y035318D01*
X033864Y035356D01*
X033816Y035362D01*
D02*
G37*
G36*
X033716D02*
X033668Y035356D01*
X033576Y035318D01*
X033498Y035258D01*
X033438Y03518D01*
X0334Y035088D01*
X033393Y03504D01*
X033716D01*
Y035362D01*
D02*
G37*
G36*
X034138Y03494D02*
X033816D01*
Y034618D01*
X033864Y034624D01*
X033955Y034662D01*
X034034Y034722D01*
X034094Y034801D01*
X034132Y034892D01*
X034138Y03494D01*
D02*
G37*
G36*
X033716D02*
X033393D01*
X0334Y034892D01*
X033438Y034801D01*
X033498Y034722D01*
X033576Y034662D01*
X033668Y034624D01*
X033716Y034618D01*
Y03494D01*
D02*
G37*
G36*
X036574Y033009D02*
X036357D01*
Y032723D01*
X036574D01*
Y033009D01*
D02*
G37*
G36*
X047024D02*
X046807D01*
Y032723D01*
X047024D01*
Y033009D01*
D02*
G37*
G36*
X049426Y032016D02*
Y031694D01*
X049748D01*
X049742Y031742D01*
X049704Y031833D01*
X049644Y031912D01*
X049565Y031972D01*
X049474Y03201D01*
X049426Y032016D01*
D02*
G37*
G36*
X049326D02*
X049278Y03201D01*
X049187Y031972D01*
X049108Y031912D01*
X049048Y031833D01*
X04901Y031742D01*
X049004Y031694D01*
X049326D01*
Y032016D01*
D02*
G37*
G36*
X045146Y023868D02*
Y023582D01*
X045471D01*
Y023868D01*
X045146D01*
D02*
G37*
%LPD*%
D24*
X041465Y025667D02*
X04241Y024722D01*
Y023091D02*
Y024722D01*
X041851Y022531D02*
X04241Y023091D01*
X030291Y044311D02*
X030773Y044793D01*
X029917Y045648D02*
X030773Y044793D01*
X029917Y045648D02*
Y046752D01*
X02099Y027087D02*
X022775D01*
X021395Y024902D02*
Y026682D01*
X024684Y016937D02*
X025324D01*
X024284Y016537D02*
X024684Y016937D01*
X024284Y014215D02*
Y016537D01*
X024702Y013797D02*
X027656D01*
X024284Y014215D02*
X024702Y013797D01*
X020575Y034018D02*
X020635Y033957D01*
X022379D01*
X02779Y016311D02*
Y020925D01*
X026408Y014929D02*
X02779Y016311D01*
X025324Y014929D02*
X026408D01*
X029286Y015427D02*
Y018947D01*
X027656Y013797D02*
X029286Y015427D01*
X032438Y016644D02*
Y02025D01*
Y016644D02*
X032682Y0164D01*
Y014792D02*
Y0164D01*
Y014792D02*
X034022Y013451D01*
Y012132D02*
Y013451D01*
X032432Y010541D02*
X034022Y012132D01*
X016141Y010541D02*
X032432D01*
X014202Y01248D02*
X016141Y010541D01*
X014202Y01248D02*
Y013571D01*
X021979Y014832D02*
X022076Y014929D01*
X021979Y013581D02*
Y014832D01*
X019757Y018701D02*
X021981Y020925D01*
X023971D01*
X038382Y02135D02*
X039563Y022531D01*
X041851D01*
X040725Y025667D02*
X041465D01*
X040024Y026368D02*
X040725Y025667D01*
X040024Y026368D02*
Y02856D01*
X03487Y028724D02*
X035441D01*
X034494Y028348D02*
X03487Y028724D01*
X034494Y02485D02*
Y028348D01*
X051442Y038526D02*
X051459Y038508D01*
X051442Y038526D02*
Y045104D01*
X054961Y048624D01*
X057363D01*
X058706Y047281D01*
Y014539D02*
Y047281D01*
X054123Y009957D02*
X058706Y014539D01*
X036135Y009957D02*
X054123D01*
X035466Y010626D02*
X036135Y009957D01*
X035466Y010626D02*
Y011978D01*
X019757Y014402D02*
Y014982D01*
X035351Y019593D02*
Y020858D01*
Y02115D01*
X03379Y019297D02*
X035351Y020858D01*
X018926Y013571D02*
X019757Y014402D01*
X020575Y036731D02*
X020866Y036439D01*
X022779D01*
X021065Y046425D02*
X022934D01*
X020575Y046916D02*
X021065Y046425D01*
X038352Y018543D02*
X04035D01*
X04036Y018533D01*
X041807Y01998D01*
Y02135D01*
X034345Y023374D02*
X034372Y023401D01*
X03292Y023374D02*
X034345D01*
X033821Y024624D02*
Y026478D01*
X031935Y026417D02*
X03376D01*
X03292Y022532D02*
Y023374D01*
X032438Y02205D02*
X03292Y022532D01*
X055222Y020478D02*
X057344Y0226D01*
Y022613D01*
Y02745D01*
X056394Y0284D02*
X057344Y02745D01*
X056394Y0284D02*
X057344Y02935D01*
Y03325D01*
X056394Y0342D02*
X057344Y03325D01*
X056394Y0342D02*
X057294Y0351D01*
Y03905D01*
X056394Y03995D02*
X057294Y03905D01*
X056394Y03995D02*
X057294Y04085D01*
Y0449D01*
X056394Y0458D02*
X057294Y0449D01*
X030291Y040581D02*
X030651Y040221D01*
X029852Y037352D02*
X030264Y037764D01*
X029848Y037352D02*
X029852D01*
X030264Y037764D02*
X030806Y037221D01*
X029986Y038041D02*
X030264Y037764D01*
X029986Y038041D02*
Y039567D01*
X030641Y040221D01*
X030291Y040581D02*
Y044311D01*
X029917Y046752D02*
X031067Y047902D01*
X055163Y02251D02*
X055744Y021929D01*
X053056Y021232D02*
X053062Y021226D01*
X053879D01*
X055163Y02251D02*
X056421Y023767D01*
X053879Y021226D02*
X055163Y02251D01*
X056421Y023767D02*
Y024778D01*
X054717D02*
X056421D01*
X053344Y02615D02*
X054717Y024778D01*
X053344Y02615D02*
Y028905D01*
X054617Y030178D01*
X056421D01*
X053344Y03145D02*
X054617Y030178D01*
X053344Y03145D02*
Y034755D01*
X054767Y036178D01*
X053244Y03627D02*
X053918Y036944D01*
X053294Y037568D02*
X053918Y036944D01*
X054684Y036178D02*
X054767D01*
X053989Y036873D02*
X054684Y036178D01*
X054767D02*
X056371D01*
X054672Y042228D02*
X056371D01*
X053294Y04085D02*
X054672Y042228D01*
X053294Y037568D02*
Y04085D01*
X034757Y042901D02*
Y044402D01*
X033766Y03499D02*
X034693D01*
X036624Y033059D01*
X036257Y036721D02*
X038972Y034006D01*
X040978D01*
X041924Y033059D01*
X040978Y034006D02*
X041627Y034656D01*
X04547Y034663D02*
X047074Y033059D01*
X041627Y034656D02*
X044282D01*
X04429Y034663D01*
X04547D01*
X047074Y032075D02*
Y033059D01*
Y032075D02*
X047506Y031644D01*
X049376D01*
X044686Y021078D02*
X045543D01*
X044317Y020709D02*
X044686Y021078D01*
X043676Y02135D02*
X044317Y020709D01*
X041807Y02135D02*
X043676D01*
X044317Y018632D02*
Y020709D01*
X049632Y014863D02*
Y016191D01*
Y014863D02*
X049644Y01485D01*
X05414Y020484D02*
X055216D01*
X053056D02*
X05414D01*
Y0194D02*
Y020484D01*
X055222Y012716D02*
Y020478D01*
X04489Y023738D02*
X045096Y023532D01*
X04489Y023738D02*
Y024637D01*
X053358Y010852D02*
X055222Y012716D01*
X044483Y010852D02*
X053358D01*
X049923Y011978D02*
X050644Y0127D01*
X040016Y011978D02*
X049923D01*
X039644Y01235D02*
X040016Y011978D01*
X039273D02*
X039644Y01235D01*
X035466Y011978D02*
X039273D01*
X03477Y012674D02*
X035466Y011978D01*
X034345Y023429D02*
X034372Y023401D01*
X034345Y023429D02*
Y0241D01*
X033821Y024624D02*
X034345Y0241D01*
X034494Y02485D02*
X03512Y024224D01*
Y023401D02*
Y024224D01*
Y023401D02*
X035351Y02317D01*
Y02115D02*
Y02317D01*
Y02115D02*
X035551Y02135D01*
X038382D01*
X050644Y0127D02*
Y01485D01*
X03477Y012674D02*
Y013451D01*
Y014176D01*
X036107Y015513D01*
Y0164D01*
Y018837D01*
X035351Y019593D02*
X036107Y018837D01*
D25*
X043229Y024053D02*
X043311D01*
X043317Y024059D01*
X030695Y045925D02*
X032608D01*
X032631Y045902D01*
X032006Y045402D02*
X032631D01*
X031981Y045427D02*
X032006Y045402D01*
X052694Y041D02*
X05467Y042976D01*
X052694Y041D02*
X052694Y024613D01*
X052234Y02244D02*
X053229Y023435D01*
Y024837D01*
X052694Y02355D02*
Y024613D01*
X017825Y046016D02*
Y046603D01*
X0173Y047128D02*
X017825Y046603D01*
X016294Y047128D02*
X0173D01*
X032172Y023374D02*
X032172Y023374D01*
X024644Y023374D02*
X032172D01*
X023971Y021925D02*
Y022701D01*
X024644Y023374D01*
X034693Y03499D02*
X034707Y035004D01*
Y036721D01*
X036257D01*
X030806Y037221D02*
X032582D01*
X04666Y020536D02*
X046684Y02056D01*
X046084Y020536D02*
X04666D01*
X045745Y020197D02*
X046084Y020536D01*
X045035Y020197D02*
X045745D01*
X043317Y024059D02*
Y028776D01*
X040344Y0178D02*
X046844D01*
X047374Y01833D01*
X051204Y02056D02*
X05169D01*
X052289Y019961D01*
Y019537D02*
Y019961D01*
X051541Y018789D02*
X052289Y019537D01*
X040958Y024776D02*
X041591Y024144D01*
X040017Y024776D02*
X040958D01*
X047374Y01833D02*
Y01924D01*
X046144Y0215D02*
X046684D01*
X045722Y021078D02*
X046144Y0215D01*
X045543Y021826D02*
X046669D01*
X052683Y018848D02*
Y020061D01*
X052579Y020165D02*
X052683Y020061D01*
X052579Y020165D02*
Y020192D01*
X051902Y02087D02*
X052579Y020192D01*
X05222Y018386D02*
X052683Y018848D01*
X051204Y02087D02*
X051902D01*
X052717Y020478D02*
X053049D01*
X052005Y02119D02*
X052717Y020478D01*
X051204Y02119D02*
X052005D01*
X032811Y025311D02*
Y025315D01*
X032172Y024672D02*
X032811Y025311D01*
X032172Y023374D02*
Y024672D01*
X04767Y023774D02*
X047684Y02376D01*
X04767Y023774D02*
Y024243D01*
X04725Y024663D02*
X04767Y024243D01*
X04725Y024663D02*
Y024823D01*
X031827Y046902D02*
X032631D01*
X030764Y038376D02*
X030918Y038221D01*
X032582D01*
X031728Y039488D02*
X031995Y039221D01*
X030764Y038376D02*
Y038425D01*
X031807Y037721D02*
X032582D01*
X048314Y02376D02*
Y024293D01*
X048638Y024616D01*
Y024852D01*
X04915Y025364D01*
X047998Y023766D02*
X048004Y02376D01*
X047998Y023766D02*
Y024724D01*
X050833Y031053D02*
X051866Y03002D01*
X046541Y031053D02*
X050833D01*
X04452Y033074D02*
X046541Y031053D01*
X050616Y03065D02*
X051384Y029882D01*
X045921Y03065D02*
X050616D01*
X044366Y032205D02*
X045921Y03065D01*
X031718Y043489D02*
X032631Y044402D01*
X031718Y043268D02*
Y043489D01*
X031995Y039221D02*
X032582D01*
X051644Y01485D02*
Y016708D01*
X050951Y017402D02*
X051644Y016708D01*
X049681Y017402D02*
X050951D01*
X048944Y018138D02*
X049681Y017402D01*
X048944Y018138D02*
Y01924D01*
X052644Y01485D02*
Y016564D01*
X051325Y017884D02*
X052644Y016564D01*
X04975Y017884D02*
X051325D01*
X049254Y018379D02*
X04975Y017884D01*
X049254Y018379D02*
Y01924D01*
X049884Y02376D02*
Y02482D01*
X051384Y026319D01*
Y029882D01*
X040139Y032205D02*
X044366D01*
X03927Y033074D02*
X040139Y032205D01*
X051866Y026161D02*
Y03002D01*
X050204Y0245D02*
X051866Y026161D01*
X050249Y033074D02*
X05228Y031043D01*
Y025089D02*
Y031043D01*
X050951Y02376D02*
X05228Y025089D01*
X050204Y02376D02*
Y0245D01*
X050514Y02376D02*
X050951D01*
X04957Y033074D02*
X050249D01*
X052219Y0215D02*
X052493Y021226D01*
X051204Y0215D02*
X052219D01*
X051204Y02181D02*
X052904D01*
X053894Y0228D01*
X054344D01*
X051204Y02213D02*
X052474D01*
X053794Y02345D01*
Y0236D01*
X051904Y02276D02*
X052694Y02355D01*
X051204Y02244D02*
X052234D01*
X051204Y02276D02*
X051904D01*
X05467Y042976D02*
X056371D01*
X056394Y043D01*
Y0448D01*
X056371Y036926D02*
X056394Y03695D01*
Y03895D01*
X05542Y036926D02*
X056371D01*
X056394Y030952D02*
X056421Y030926D01*
X056394Y030952D02*
Y0332D01*
X05542Y030926D02*
X056421D01*
X056394Y025552D02*
X056421Y025526D01*
X056394Y025552D02*
Y0274D01*
X055344Y025526D02*
X056421D01*
X048634Y01486D02*
X048644Y01485D01*
X048634Y01486D02*
Y01924D01*
X045543Y021078D02*
X045722D01*
X046669Y021826D02*
X046684Y02181D01*
X039372Y016828D02*
X040344Y0178D01*
X039372Y016074D02*
Y016828D01*
D26*
X017825Y029054D02*
X018351Y029581D01*
X027355Y027503D02*
X029064Y025794D01*
Y02536D02*
Y025794D01*
X027355Y028503D02*
X027605D01*
X029131Y026976D01*
X024107Y045323D02*
Y045916D01*
X023688Y044904D02*
X024107Y045323D01*
X022753Y044904D02*
X023688D01*
X022332Y045325D02*
X022753Y044904D01*
X017825Y048784D02*
X018278Y049238D01*
X017825Y047866D02*
Y048784D01*
X017814Y047876D02*
X017825Y047866D01*
X016294Y047876D02*
X017814D01*
X038376Y014249D02*
X040023D01*
X03803Y014594D02*
X038376Y014249D01*
X040397Y013265D02*
X040433Y0133D01*
X041494D01*
X039488Y029542D02*
X040394D01*
X038068Y030963D02*
X039488Y029542D01*
X040984Y02734D02*
Y027979D01*
X040769Y028195D02*
X040984Y027979D01*
X040769Y028195D02*
Y028558D01*
X036423Y028354D02*
Y029131D01*
X035804Y02975D02*
X036423Y029131D01*
X032215Y02975D02*
X035804D01*
X035439Y027269D02*
Y02798D01*
X035234Y027064D02*
X035439Y027269D01*
X035234Y02609D02*
Y027064D01*
X027355Y036731D02*
X033123Y030963D01*
X028156Y033809D02*
X032215Y02975D01*
X0324Y029128D02*
X033821Y027708D01*
X030204Y029128D02*
X0324D01*
X028678Y030654D02*
X030204Y029128D01*
X028148Y041846D02*
Y046122D01*
X027355Y046916D02*
X028148Y046122D01*
X033821Y027226D02*
Y027708D01*
X028869Y043012D02*
Y046402D01*
X027355Y047916D02*
X028869Y046402D01*
X03803Y014594D02*
Y015431D01*
X043697Y010815D02*
X043734Y010852D01*
X0418Y010815D02*
X043697D01*
X033123Y030963D02*
X038068D01*
X044419Y028776D02*
Y029442D01*
X0424Y031461D02*
X044419Y029442D01*
X034444Y031461D02*
X0424D01*
X028173Y037731D02*
X034444Y031461D01*
X027355Y037731D02*
X028173D01*
X035745Y035291D02*
X036994Y034041D01*
X035745Y035291D02*
Y035656D01*
X023781Y026177D02*
X024107Y026503D01*
X02258Y026177D02*
X023781D01*
X017825Y028453D02*
Y029054D01*
X023522Y035146D02*
X024107Y035731D01*
X022615Y035146D02*
X023522D01*
X017825Y038625D02*
X018196Y038996D01*
X017825Y037681D02*
Y038625D01*
X016806Y035831D02*
X0178D01*
X023084Y028503D02*
X024107D01*
X022775Y028193D02*
X023084Y028503D01*
X022775Y027835D02*
Y028193D01*
X024009Y037829D02*
X024107Y037731D01*
X023001Y037829D02*
X024009D01*
X022779Y037607D02*
X023001Y037829D01*
X022779Y037187D02*
Y037607D01*
X023204Y047916D02*
X024107D01*
X022934Y047646D02*
X023204Y047916D01*
X022934Y047173D02*
Y047646D01*
X016107Y028453D02*
X017825D01*
X016003Y028349D02*
X016107Y028453D01*
X016003Y027965D02*
Y028349D01*
X017692Y037813D02*
X017825Y037681D01*
X016281Y037813D02*
X017692D01*
X016281Y036356D02*
X016806Y035831D01*
X016281Y036356D02*
Y037065D01*
X044618Y037272D02*
Y037868D01*
X044199Y038287D02*
X044618Y037868D01*
X03602Y03811D02*
X036817D01*
X035631Y037721D02*
X03602Y03811D01*
X034707Y037721D02*
X035631D01*
X044683Y022784D02*
X045096D01*
X044228Y023238D02*
X044683Y022784D01*
X046007Y02213D02*
X046684D01*
X045353Y022784D02*
X046007Y02213D01*
X046217Y02244D02*
X046684D01*
X04602Y022638D02*
X046217Y02244D01*
X048215Y026398D02*
X049061D01*
X046471Y024654D02*
X048215Y026398D01*
X046471Y024637D02*
Y024654D01*
Y023808D02*
Y024637D01*
X042328Y034075D02*
X044533D01*
X042294Y034041D02*
X042328Y034075D01*
X042621Y039386D02*
Y039678D01*
X042392Y039157D02*
X042621Y039386D01*
X040228Y039157D02*
X042392D01*
X038667Y040718D02*
X040228Y039157D01*
X04484Y038898D02*
X045621Y039678D01*
X03975Y038898D02*
X04484D01*
X038426Y040221D02*
X03975Y038898D01*
X043077Y038563D02*
X043618Y038021D01*
X039593Y038563D02*
X043077D01*
X038434Y039721D02*
X039593Y038563D01*
X042398Y038209D02*
X042618Y037988D01*
X042398Y038061D02*
Y038209D01*
X041364Y038169D02*
X041668Y037865D01*
X039445Y038169D02*
X041364D01*
X038393Y039221D02*
X039445Y038169D01*
X034327Y040718D02*
X038667D01*
X033963Y040354D02*
X034327Y040718D01*
X033963Y038366D02*
Y040354D01*
Y038366D02*
X034107Y038221D01*
X034707D01*
X040131Y039678D02*
X041621D01*
X038756Y041053D02*
X040131Y039678D01*
X034248Y041053D02*
X038756D01*
X032916Y039721D02*
X034248Y041053D01*
X032582Y039721D02*
X032916D01*
X043646Y041529D02*
X043677Y041498D01*
Y040197D02*
Y041498D01*
X044228Y023238D02*
Y026398D01*
X045715D01*
X04602Y023356D02*
X046471Y023808D01*
X045638Y024637D02*
X046471D01*
X045096Y022784D02*
X045353D01*
X04602Y022638D02*
Y023356D01*
X042618Y037272D02*
Y037988D01*
X034707Y037221D02*
X036656D01*
X03981Y037272D02*
X040618D01*
X038361Y038721D02*
X03981Y037272D01*
X034707Y038721D02*
X038361D01*
X041668Y037272D02*
Y037865D01*
X034707Y039221D02*
X038393D01*
X043618Y037272D02*
Y038021D01*
X034707Y039721D02*
X038434D01*
X034707Y040221D02*
X038426D01*
X043646Y041529D02*
X044607Y04249D01*
X046325D01*
X046709Y042874D01*
Y044104D01*
X043646Y050451D02*
X044051Y050856D01*
X043646Y04921D02*
Y050451D01*
X047444Y042215D02*
Y049D01*
Y034041D02*
Y042215D01*
X044809D02*
X047444D01*
X044646Y042052D02*
X044809Y042215D01*
X046094Y05035D02*
X047444Y049D01*
X040445Y041529D02*
X040646D01*
X038165Y043809D02*
X040445Y041529D01*
X036571Y043809D02*
X038165D01*
X039012Y048297D02*
X039924Y04921D01*
X040646D01*
X044618Y045072D02*
Y045663D01*
X044169Y046112D02*
X044618Y045663D01*
X034757Y045402D02*
X036185D01*
X042618Y045072D02*
Y045153D01*
X042073Y045699D02*
X042618Y045153D01*
X038763Y046181D02*
X043113D01*
X043668Y045626D01*
X037543Y047402D02*
X038763Y046181D01*
X044798Y046555D02*
X045621Y047378D01*
X038839Y046555D02*
X044798D01*
X037493Y047902D02*
X038839Y046555D01*
X038966Y046886D02*
X042621D01*
X03726Y048593D02*
X038966Y046886D01*
X034757Y044902D02*
X037102D01*
X032631Y047402D02*
X033293D01*
X033703Y047811D01*
Y048316D01*
X034239Y048852D01*
X037367D01*
X038842Y047378D01*
X041621D01*
X034252Y045902D02*
X034757D01*
X033963Y046191D02*
X034252Y045902D01*
X033963Y046191D02*
Y048209D01*
X034346Y048593D01*
X03726D01*
X042621Y046886D02*
Y047378D01*
X042569Y027476D02*
X042704Y02734D01*
X042569Y027476D02*
Y028776D01*
X047819Y033057D02*
X048805D01*
X042669D02*
X043755D01*
X037369D02*
X038505D01*
X044618Y035557D02*
X044646Y035529D01*
X044618Y035557D02*
Y036524D01*
X043618Y035557D02*
X043646Y035529D01*
X043618Y035557D02*
Y036524D01*
X042618Y035557D02*
X042646Y035529D01*
X042618Y035557D02*
Y036524D01*
X041646Y035529D02*
X041668Y035552D01*
Y036524D01*
X040618Y035557D02*
X040646Y035529D01*
X040618Y035557D02*
Y036524D01*
X041621Y040426D02*
X041646Y040451D01*
Y041529D01*
X042621Y040426D02*
X042646Y040451D01*
Y041529D01*
X045621Y040426D02*
X045646Y040451D01*
Y041529D01*
X044646D02*
Y042052D01*
X044944Y05035D02*
X046094D01*
X044646Y050052D02*
X044944Y05035D01*
X044646Y04921D02*
Y050052D01*
X034757Y047902D02*
X037493D01*
X043668Y045072D02*
Y045626D01*
X034757Y047402D02*
X037543D01*
X041668Y045072D02*
Y045476D01*
X041394Y04575D02*
X041668Y045476D01*
X038694Y04575D02*
X041394D01*
X037543Y046902D02*
X038694Y04575D01*
X034757Y046902D02*
X037543D01*
X038822Y045072D02*
X040668D01*
X037493Y046402D02*
X038822Y045072D01*
X034757Y046402D02*
X037493D01*
X044618Y043237D02*
X044646Y04321D01*
X044618Y043237D02*
Y044324D01*
X043646Y04321D02*
X043668Y043232D01*
Y044324D01*
X042618Y043237D02*
X042646Y04321D01*
X042618Y043237D02*
Y044324D01*
X041646Y04321D02*
X041668Y043232D01*
Y044324D01*
X040646Y04321D02*
X040668Y043232D01*
Y044324D01*
X045621Y048126D02*
X045646Y048151D01*
Y04921D01*
X042621Y048126D02*
X042646Y048151D01*
Y04921D01*
X041621Y048126D02*
X041646Y048151D01*
Y04921D01*
X037618Y024776D02*
X039269D01*
X036954Y02544D02*
X037618Y024776D01*
X036954Y02544D02*
Y02609D01*
X040384Y01526D02*
X042454D01*
X04012Y015524D02*
X040384Y01526D01*
X04012Y015524D02*
Y016074D01*
X041734Y01354D02*
X042454D01*
X041494Y0133D02*
X041734Y01354D01*
D27*
X021221Y021939D02*
D03*
X013347D02*
D03*
X021792Y030959D02*
D03*
X013918D02*
D03*
X021694Y040624D02*
D03*
X01382D02*
D03*
X056394Y0274D02*
D03*
Y0332D02*
D03*
Y03895D02*
D03*
Y0448D02*
D03*
D28*
X009087Y026656D02*
D03*
Y049419D02*
D03*
D29*
Y029907D02*
D03*
Y033159D02*
D03*
Y036411D02*
D03*
Y039663D02*
D03*
Y042915D02*
D03*
Y046167D02*
D03*
D30*
X040646Y04321D02*
D03*
Y035529D02*
D03*
D31*
X041646Y04321D02*
D03*
X042646D02*
D03*
X043646D02*
D03*
X044646D02*
D03*
X045646D02*
D03*
X040646Y04921D02*
D03*
X041646D02*
D03*
X042646D02*
D03*
X043646D02*
D03*
X044646D02*
D03*
X045646D02*
D03*
X041646Y035529D02*
D03*
X042646D02*
D03*
X043646D02*
D03*
X044646D02*
D03*
X045646D02*
D03*
X040646Y041529D02*
D03*
X041646D02*
D03*
X042646D02*
D03*
X043646D02*
D03*
X044646D02*
D03*
X045646D02*
D03*
D32*
X014202Y013571D02*
D03*
X015776D02*
D03*
X017351D02*
D03*
X018926D02*
D03*
D33*
X007513Y015041D02*
D03*
D34*
Y01701D02*
D03*
D35*
X053644Y01485D02*
D03*
X052644D02*
D03*
X051644D02*
D03*
X050644D02*
D03*
X049644D02*
D03*
D36*
X048644D02*
D03*
D37*
X056394Y0284D02*
D03*
Y0342D02*
D03*
Y03995D02*
D03*
Y0458D02*
D03*
D38*
X043229Y024053D02*
D03*
X030695Y045925D02*
D03*
X031981Y045427D02*
D03*
X053229Y024837D02*
D03*
X018351Y029581D02*
D03*
X029064Y02536D02*
D03*
X022332Y045325D02*
D03*
X018278Y049238D02*
D03*
X051459Y038508D02*
D03*
X028678Y030654D02*
D03*
X028156Y033809D02*
D03*
X028148Y041846D02*
D03*
X028869Y043012D02*
D03*
X03803Y015431D02*
D03*
X0418Y010815D02*
D03*
X029131Y026976D02*
D03*
X019757Y018701D02*
D03*
Y014982D02*
D03*
X035745Y035656D02*
D03*
X03379Y019297D02*
D03*
X02258Y026177D02*
D03*
X022615Y035146D02*
D03*
X018196Y038996D02*
D03*
X038352Y018543D02*
D03*
X055744Y021929D02*
D03*
X044199Y038287D02*
D03*
X036817Y03811D02*
D03*
X04475Y0256D02*
D03*
X044647Y021826D02*
D03*
X031935Y026417D02*
D03*
X029848Y037352D02*
D03*
X045035Y020197D02*
D03*
X044317Y018632D02*
D03*
X051541Y018789D02*
D03*
X041591Y024144D02*
D03*
X05222Y018386D02*
D03*
X049632Y016191D02*
D03*
X05414Y0194D02*
D03*
X032811Y025315D02*
D03*
X04725Y024823D02*
D03*
X031827Y046902D02*
D03*
X031728Y039488D02*
D03*
X030764Y038376D02*
D03*
X031807Y037721D02*
D03*
X04915Y025364D02*
D03*
X047998Y024724D02*
D03*
X033766Y03499D02*
D03*
X034757Y042901D02*
D03*
X053244Y03627D02*
D03*
X049376Y031644D02*
D03*
X044533Y034075D02*
D03*
X031718Y043268D02*
D03*
X042398Y038061D02*
D03*
X043677Y040197D02*
D03*
X036656Y037221D02*
D03*
X046709Y044104D02*
D03*
X044051Y050856D02*
D03*
X036571Y043809D02*
D03*
X039012Y048297D02*
D03*
X044169Y046112D02*
D03*
X036185Y045402D02*
D03*
X042073Y045699D02*
D03*
X037102Y044902D02*
D03*
X05542Y036926D02*
D03*
X053794Y0236D02*
D03*
X05542Y030926D02*
D03*
X054344Y0228D02*
D03*
X055344Y025526D02*
D03*
D39*
X057906Y051065D02*
D03*
Y008939D02*
D03*
X003182D02*
D03*
Y051065D02*
D03*
D40*
X016281Y037065D02*
D03*
Y037813D02*
D03*
X022773Y043484D02*
D03*
Y042736D02*
D03*
X022379Y033209D02*
D03*
Y033957D02*
D03*
X021395Y024154D02*
D03*
Y024902D02*
D03*
X022775Y027835D02*
D03*
Y027087D02*
D03*
X016003Y027965D02*
D03*
Y027217D02*
D03*
X022779Y037187D02*
D03*
Y036439D02*
D03*
X016294Y047876D02*
D03*
Y047128D02*
D03*
X022934Y047173D02*
D03*
Y046425D02*
D03*
X029286Y018947D02*
D03*
Y019695D02*
D03*
X033821Y027226D02*
D03*
Y026478D02*
D03*
X045096Y023532D02*
D03*
Y022784D02*
D03*
X045543Y021078D02*
D03*
Y021826D02*
D03*
X045621Y048126D02*
D03*
Y047378D02*
D03*
X042621Y048126D02*
D03*
Y047378D02*
D03*
X041621Y048126D02*
D03*
Y047378D02*
D03*
X042618Y044324D02*
D03*
Y045072D02*
D03*
X041668Y044324D02*
D03*
Y045072D02*
D03*
X043668Y044324D02*
D03*
Y045072D02*
D03*
X044618Y044324D02*
D03*
Y045072D02*
D03*
X040668Y044324D02*
D03*
Y045072D02*
D03*
X045621Y040426D02*
D03*
Y039678D02*
D03*
X042621Y040426D02*
D03*
Y039678D02*
D03*
X041621Y040426D02*
D03*
Y039678D02*
D03*
X043618Y036524D02*
D03*
Y037272D02*
D03*
X044618Y036524D02*
D03*
Y037272D02*
D03*
X042618Y036524D02*
D03*
Y037272D02*
D03*
X041668Y036524D02*
D03*
Y037272D02*
D03*
X040618Y036524D02*
D03*
Y037272D02*
D03*
X053056Y021232D02*
D03*
Y020484D02*
D03*
X056421Y024778D02*
D03*
Y025526D02*
D03*
X056371Y042228D02*
D03*
Y042976D02*
D03*
Y036178D02*
D03*
Y036926D02*
D03*
X056421Y030178D02*
D03*
Y030926D02*
D03*
D41*
X017825Y035831D02*
D03*
Y037681D02*
D03*
Y026603D02*
D03*
Y028453D02*
D03*
Y047866D02*
D03*
Y046016D02*
D03*
D42*
X020575Y036731D02*
D03*
Y027503D02*
D03*
Y046916D02*
D03*
D43*
X040397Y013265D02*
D03*
X039653Y013267D02*
D03*
X040023Y014249D02*
D03*
X040769Y028558D02*
D03*
X040024Y02856D02*
D03*
X040394Y029542D02*
D03*
X037369Y033057D02*
D03*
X036624Y033059D02*
D03*
X036994Y034041D02*
D03*
X047819Y033057D02*
D03*
X047074Y033059D02*
D03*
X047444Y034041D02*
D03*
X042669Y033057D02*
D03*
X041924Y033059D02*
D03*
X042294Y034041D02*
D03*
D44*
X035439Y02798D02*
D03*
X035441Y028724D02*
D03*
X036423Y028354D02*
D03*
D45*
X022076Y016937D02*
D03*
Y014929D02*
D03*
X025324Y016937D02*
D03*
Y014929D02*
D03*
D46*
X027355Y026486D02*
D03*
Y028486D02*
D03*
Y027486D02*
D03*
X024107Y026486D02*
D03*
Y028486D02*
D03*
Y027486D02*
D03*
X027355Y045916D02*
D03*
Y047916D02*
D03*
Y046916D02*
D03*
X024107Y045916D02*
D03*
Y047916D02*
D03*
Y046916D02*
D03*
X027355Y035731D02*
D03*
Y037731D02*
D03*
Y036731D02*
D03*
X024107Y035731D02*
D03*
Y037731D02*
D03*
Y036731D02*
D03*
D47*
X02779Y021925D02*
D03*
Y020925D02*
D03*
X023971D02*
D03*
Y021925D02*
D03*
D48*
X039269Y024776D02*
D03*
X040017D02*
D03*
X04957Y033074D02*
D03*
X048822D02*
D03*
X04489Y024637D02*
D03*
X045638D02*
D03*
X034022Y013451D02*
D03*
X03477D02*
D03*
X045167Y028776D02*
D03*
X044419D02*
D03*
X044483Y010852D02*
D03*
X043734D02*
D03*
X03512Y023401D02*
D03*
X034372D02*
D03*
X032172Y023374D02*
D03*
X03292D02*
D03*
X038522Y033074D02*
D03*
X03927D02*
D03*
X043772D02*
D03*
X04452D02*
D03*
X039372Y016074D02*
D03*
X04012D02*
D03*
X043317Y028776D02*
D03*
X042569D02*
D03*
D49*
X036954Y02609D02*
D03*
X035234D02*
D03*
X040984Y02734D02*
D03*
X042704D02*
D03*
D50*
X032438Y02025D02*
D03*
X032438Y02205D02*
D03*
D51*
X035351Y02115D02*
D03*
D52*
X032582Y036721D02*
D03*
Y037221D02*
D03*
Y037721D02*
D03*
Y038221D02*
D03*
Y038721D02*
D03*
Y039221D02*
D03*
Y039721D02*
D03*
Y040221D02*
D03*
X034707Y036721D02*
D03*
Y037221D02*
D03*
Y037721D02*
D03*
Y038221D02*
D03*
Y038721D02*
D03*
Y039221D02*
D03*
Y039721D02*
D03*
Y040221D02*
D03*
X032631Y044402D02*
D03*
Y044902D02*
D03*
Y045402D02*
D03*
Y045902D02*
D03*
Y046402D02*
D03*
Y046902D02*
D03*
Y047402D02*
D03*
Y047902D02*
D03*
X034757Y044402D02*
D03*
Y044902D02*
D03*
Y045402D02*
D03*
Y045902D02*
D03*
Y046402D02*
D03*
Y046902D02*
D03*
Y047402D02*
D03*
Y047902D02*
D03*
D53*
X036107Y0164D02*
D03*
X032682D02*
D03*
X038382Y02135D02*
D03*
X041807D02*
D03*
D54*
X042454Y01526D02*
D03*
Y01354D02*
D03*
D55*
X051204Y02307D02*
D03*
Y02276D02*
D03*
Y02244D02*
D03*
Y02213D02*
D03*
Y02181D02*
D03*
Y0215D02*
D03*
Y02119D02*
D03*
Y02087D02*
D03*
Y02056D02*
D03*
Y02024D02*
D03*
Y01993D02*
D03*
X046684D02*
D03*
Y02024D02*
D03*
Y02056D02*
D03*
Y02087D02*
D03*
Y02119D02*
D03*
Y0215D02*
D03*
Y02181D02*
D03*
Y02213D02*
D03*
Y02244D02*
D03*
Y02276D02*
D03*
Y02307D02*
D03*
D56*
X050514Y01924D02*
D03*
X050204D02*
D03*
X049884D02*
D03*
X049574D02*
D03*
X049254D02*
D03*
X048944D02*
D03*
X048634D02*
D03*
X048314D02*
D03*
X048004D02*
D03*
X047684D02*
D03*
X047374D02*
D03*
Y02376D02*
D03*
X047684D02*
D03*
X048004D02*
D03*
X048314D02*
D03*
X048634D02*
D03*
X048944D02*
D03*
X049254D02*
D03*
X049574D02*
D03*
X049884D02*
D03*
X050204D02*
D03*
X050514D02*
D03*
D57*
X049061Y026398D02*
D03*
X045715D02*
D03*
D58*
X013347Y021939D02*
Y022125D01*
X011288Y030959D02*
X013918D01*
X014402D01*
X017825Y034381D01*
Y035831D01*
X012859Y039663D02*
X01382Y040624D01*
X009087Y039663D02*
X012859D01*
X013812Y040632D02*
X01382Y040624D01*
X013812Y040632D02*
Y042003D01*
X016617Y026603D02*
X017825D01*
X016003Y027217D02*
X016617Y026603D01*
X02099Y027087D02*
X021395Y026682D01*
X020575Y027503D02*
X02099Y027087D01*
X020575Y043585D02*
Y046916D01*
Y036731D02*
Y043585D01*
X020675Y043484D01*
X022773D01*
X013812Y042003D02*
X017825Y046016D01*
X020575Y034018D02*
Y036731D01*
Y027503D02*
Y034018D01*
X007513Y015041D02*
X00757Y014984D01*
X007513Y01701D02*
X00757Y016953D01*
X009087Y033159D02*
X011288Y030959D01*
X013347Y022125D02*
X017825Y026603D01*
X009649Y027217D02*
X016003D01*
X009087Y026656D02*
X009649Y027217D01*
X007158Y031837D02*
X009087Y029907D01*
X007158Y031837D02*
Y034482D01*
X009087Y036411D01*
X006922Y038577D02*
X009087Y036411D01*
X006922Y038577D02*
Y04075D01*
X009087Y042915D01*
Y046167D01*
Y049419D02*
X010615Y050947D01*
X019217D01*
X020575Y046916D02*
Y04959D01*
X019217Y050947D02*
X020575Y04959D01*
X00757Y016953D02*
X015424D01*
X00757Y014984D02*
X015202D01*
X020627Y016957D02*
X020646Y016937D01*
X022076D01*
X015424Y016953D02*
X017351Y015026D01*
X01542Y016957D02*
X015424Y016953D01*
X01542Y016957D02*
X020627D01*
X02007Y011671D02*
X021979Y013581D01*
X015776Y012559D02*
Y013571D01*
Y012559D02*
X016664Y011671D01*
X02007D01*
X015776Y013571D02*
Y014409D01*
X015202Y014984D02*
X015776Y014409D01*
X017351Y013571D02*
Y015026D01*
D59*
X021221Y021939D02*
X021395Y022113D01*
Y024154D01*
X021792Y030959D02*
X022379Y031546D01*
Y033209D01*
X021694Y040624D02*
X022773Y041703D01*
Y042736D01*
D60*
X052493Y021226D02*
X053062D01*
X029286Y019695D02*
Y021211D01*
X028572Y021925D02*
X029286Y021211D01*
X02779Y021925D02*
X028572D01*
X039644Y013258D02*
X039653Y013267D01*
X039644Y01235D02*
Y013258D01*
X055216Y020484D02*
X057344Y022613D01*
D61*
X030884Y044904D02*
X032631D01*
X031067Y047902D02*
X032631D01*
X030651Y040221D02*
X032581D01*
X030641D02*
X030651D01*
X033648Y037234D02*
X03416Y036721D01*
X034707D01*
X034757Y042867D02*
Y042901D01*
X033648Y037234D02*
Y038346D01*
X033273Y038721D02*
X033648Y038346D01*
X04489Y024637D02*
Y025461D01*
X04475Y0256D02*
X04489Y025461D01*
X044647Y021826D02*
X045543D01*
X043676Y02135D02*
X043825Y021499D01*
Y026591D01*
X045167Y027933D01*
Y028776D01*
X03376Y026417D02*
X033821Y026478D01*
X032581Y040221D02*
X032582Y040221D01*
Y038721D02*
X033273D01*
X034266Y044402D02*
X034757D01*
X033825Y044843D02*
X034266Y044402D01*
X033825Y044843D02*
Y045797D01*
X03322Y046402D02*
X033825Y045797D01*
X032631Y046402D02*
X03322D01*
D62*
X003819Y016203D02*
X003032D01*
Y016596D01*
X003163Y016728D01*
X003688D01*
X003819Y016596D01*
Y016203D01*
X003032Y017383D02*
Y017121D01*
X003163Y01699D01*
X003426D01*
X003557Y017121D01*
Y017383D01*
X003426Y017515D01*
X003295D01*
Y01699D01*
X003032Y017777D02*
Y018171D01*
X003163Y018302D01*
X003295Y018171D01*
Y017908D01*
X003426Y017777D01*
X003557Y017908D01*
Y018302D01*
X003032Y018564D02*
Y018827D01*
Y018695D01*
X003557D01*
Y018564D01*
X00277Y019483D02*
Y019614D01*
X002901Y019745D01*
X003557D01*
Y019351D01*
X003426Y01922D01*
X003163D01*
X003032Y019351D01*
Y019745D01*
Y020007D02*
X003557D01*
Y020401D01*
X003426Y020532D01*
X003032D01*
Y021188D02*
Y020926D01*
X003163Y020794D01*
X003426D01*
X003557Y020926D01*
Y021188D01*
X003426Y021319D01*
X003295D01*
Y020794D01*
X003819Y022106D02*
X003032D01*
Y021713D01*
X003163Y021582D01*
X003426D01*
X003557Y021713D01*
Y022106D01*
X003819Y023156D02*
X003032D01*
Y023549D01*
X003163Y023681D01*
X003295D01*
X003426D01*
X003557Y023549D01*
Y023156D01*
Y023943D02*
X003163D01*
X003032Y024074D01*
Y024468D01*
X002901D01*
X00277Y024337D01*
Y024205D01*
X003032Y024468D02*
X003557D01*
X003819Y025517D02*
Y02578D01*
Y025649D01*
X003032D01*
Y025517D01*
Y02578D01*
Y026173D02*
X003819D01*
X003032Y026698D01*
X003819D01*
Y02696D02*
Y027485D01*
Y027223D01*
X003032D01*
M02*
