G04*
G04 #@! TF.GenerationSoftware,Altium Limited,Altium Designer,18.0.7 (293)*
G04*
G04 Layer_Color=32896*
%FSTAX24Y24*%
%MOIN*%
G70*
G01*
G75*
%ADD11C,0.0100*%
%ADD12C,0.0050*%
%ADD66C,0.0236*%
%ADD85C,0.0098*%
%ADD86C,0.0118*%
%ADD87C,0.0079*%
%ADD88C,0.0070*%
%ADD89C,0.0060*%
D11*
X019055Y035801D02*
G03*
X019055Y035801I-00018J0D01*
G01*
Y026572D02*
G03*
X019055Y026572I-00018J0D01*
G01*
Y045986D02*
G03*
X019055Y045986I-00018J0D01*
G01*
X039923Y013257D02*
X040123D01*
X039323D02*
X039373D01*
X039323D02*
Y014157D01*
X039723D01*
X040673Y013257D02*
X040723D01*
Y014157D01*
X040323D02*
X040723D01*
X040294Y02855D02*
X040494D01*
X039694D02*
X039744D01*
X039694D02*
Y02945D01*
X040094D01*
X041044Y02855D02*
X041094D01*
Y02945D01*
X040694D02*
X041094D01*
X035431Y028254D02*
Y028454D01*
Y029004D02*
Y029054D01*
X036331D01*
Y028654D02*
Y029054D01*
X035431Y027654D02*
Y027704D01*
Y027654D02*
X036331D01*
Y028054D01*
X036894Y033049D02*
X037094D01*
X036294D02*
X036344D01*
X036294D02*
Y033949D01*
X036694D01*
X037644Y033049D02*
X037694D01*
Y033949D01*
X037294D02*
X037694D01*
X047344Y033049D02*
X047544D01*
X046744D02*
X046794D01*
X046744D02*
Y033949D01*
X047144D01*
X048094Y033049D02*
X048144D01*
Y033949D01*
X047744D02*
X048144D01*
X042194Y033049D02*
X042394D01*
X041594D02*
X041644D01*
X041594D02*
Y033949D01*
X041994D01*
X042944Y033049D02*
X042994D01*
Y033949D01*
X042594D02*
X042994D01*
X036422Y014372D02*
Y018428D01*
X032367Y015128D02*
X033122Y014372D01*
X036422D01*
X032367Y015128D02*
Y017672D01*
X033122Y018428D01*
X036422D01*
X038067Y019322D02*
Y023378D01*
X041367D02*
X042122Y022622D01*
X038067Y023378D02*
X041367D01*
X042122Y020078D02*
Y022622D01*
X041367Y019322D02*
X042122Y020078D01*
X038067Y019322D02*
X041367D01*
X022601Y022667D02*
X022701Y022767D01*
X022901D01*
X023001Y022667D01*
Y022267D01*
X022901Y022167D01*
X022701D01*
X022601Y022267D01*
X022401Y022767D02*
X022001D01*
Y022667D01*
X022401Y022267D01*
Y022167D01*
X023081Y030431D02*
X023181Y030531D01*
X023381D01*
X023481Y030431D01*
Y030031D01*
X023381Y029931D01*
X023181D01*
X023081Y030031D01*
X022481Y030531D02*
X022681Y030431D01*
X022881Y030231D01*
Y030031D01*
X022781Y029931D01*
X022581D01*
X022481Y030031D01*
Y030131D01*
X022581Y030231D01*
X022881D01*
X023105Y040183D02*
X023205Y040283D01*
X023405D01*
X023505Y040183D01*
Y039783D01*
X023405Y039683D01*
X023205D01*
X023105Y039783D01*
X022905Y039683D02*
X022705D01*
X022805D01*
Y040283D01*
X022905Y040183D01*
X015391Y037407D02*
Y038007D01*
X015091D01*
X014991Y037907D01*
Y037707D01*
X015091Y037607D01*
X015391D01*
X015191D02*
X014991Y037407D01*
X014791D02*
X014591D01*
X014691D01*
Y038007D01*
X014791Y037907D01*
X013891Y037407D02*
X014291D01*
X013891Y037807D01*
Y037907D01*
X013991Y038007D01*
X014191D01*
X014291Y037907D01*
X019879Y03485D02*
Y03425D01*
X019579D01*
X019479Y03435D01*
Y03445D01*
X019579Y03455D01*
X019879D01*
X019579D01*
X019479Y03465D01*
Y03475D01*
X019579Y03485D01*
X019879D01*
X019279D02*
X018879D01*
X019079D01*
Y03425D01*
X018279D02*
X018679D01*
X018279Y03465D01*
Y03475D01*
X018379Y03485D01*
X018579D01*
X018679Y03475D01*
X023721Y044128D02*
Y044728D01*
X023421D01*
X023321Y044628D01*
Y044428D01*
X023421Y044328D01*
X023721D01*
X023521D02*
X023321Y044128D01*
X023121Y044628D02*
X023021Y044728D01*
X022822D01*
X022722Y044628D01*
Y044528D01*
X022822Y044428D01*
X022922D01*
X022822D01*
X022722Y044328D01*
Y044228D01*
X022822Y044128D01*
X023021D01*
X023121Y044228D01*
X028325Y023393D02*
Y022893D01*
X028225Y022793D01*
X028025D01*
X027925Y022893D01*
Y023393D01*
X027725Y022793D02*
X027525D01*
X027625D01*
Y023393D01*
X027725Y023293D01*
X016299Y028618D02*
Y029218D01*
X015999D01*
X015899Y029118D01*
Y028918D01*
X015999Y028818D01*
X016299D01*
X016099D02*
X015899Y028618D01*
X015699D02*
X015499D01*
X015599D01*
Y029218D01*
X015699Y029118D01*
X015199Y029218D02*
X0148D01*
Y029118D01*
X015199Y028718D01*
Y028618D01*
X023678Y024136D02*
Y024736D01*
X023378D01*
X023278Y024636D01*
Y024436D01*
X023378Y024336D01*
X023678D01*
X023478D02*
X023278Y024136D01*
X023078D02*
X022878D01*
X022978D01*
Y024736D01*
X023078Y024636D01*
X022178Y024736D02*
X022578D01*
Y024436D01*
X022378Y024536D01*
X022278D01*
X022178Y024436D01*
Y024236D01*
X022278Y024136D01*
X022478D01*
X022578Y024236D01*
X023075Y028493D02*
Y029093D01*
X022775D01*
X022675Y028993D01*
Y028793D01*
X022775Y028693D01*
X023075D01*
X022875D02*
X022675Y028493D01*
X022475D02*
X022275D01*
X022375D01*
Y029093D01*
X022475Y028993D01*
X021675Y028493D02*
Y029093D01*
X021975Y028793D01*
X021575D01*
X024607Y033222D02*
Y033822D01*
X024307D01*
X024207Y033722D01*
Y033522D01*
X024307Y033422D01*
X024607D01*
X024407D02*
X024207Y033222D01*
X024007D02*
X023807D01*
X023907D01*
Y033822D01*
X024007Y033722D01*
X023507D02*
X023407Y033822D01*
X023208D01*
X023108Y033722D01*
Y033322D01*
X023208Y033222D01*
X023407D01*
X023507Y033322D01*
Y033722D01*
X023073Y037841D02*
Y038441D01*
X022773D01*
X022673Y038341D01*
Y038141D01*
X022773Y038041D01*
X023073D01*
X022873D02*
X022673Y037841D01*
X022473Y037941D02*
X022373Y037841D01*
X022173D01*
X022073Y037941D01*
Y038341D01*
X022173Y038441D01*
X022373D01*
X022473Y038341D01*
Y038241D01*
X022373Y038141D01*
X022073D01*
X029579Y020344D02*
Y020944D01*
X029279D01*
X029179Y020844D01*
Y020644D01*
X029279Y020544D01*
X029579D01*
X029379D02*
X029179Y020344D01*
X028579Y020944D02*
X028779Y020844D01*
X028979Y020644D01*
Y020444D01*
X028879Y020344D01*
X028679D01*
X028579Y020444D01*
Y020544D01*
X028679Y020644D01*
X028979D01*
X016585Y048537D02*
Y049137D01*
X016285D01*
X016185Y049037D01*
Y048837D01*
X016285Y048737D01*
X016585D01*
X016385D02*
X016185Y048537D01*
X015585Y049137D02*
X015985D01*
Y048837D01*
X015785Y048937D01*
X015685D01*
X015585Y048837D01*
Y048637D01*
X015685Y048537D01*
X015885D01*
X015985Y048637D01*
X023229Y047834D02*
Y048434D01*
X022929D01*
X022829Y048334D01*
Y048134D01*
X022929Y048034D01*
X023229D01*
X023029D02*
X022829Y047834D01*
X02263D02*
X02243D01*
X02253D01*
Y048434D01*
X02263Y048334D01*
X027672Y030173D02*
X027872D01*
X027972Y030073D01*
Y029673D01*
X027872Y029573D01*
X027672D01*
X027572Y029673D01*
Y030073D01*
X027672Y030173D01*
X027373D02*
X026973D01*
X027173D01*
Y029573D01*
X026373Y030073D02*
X026473Y030173D01*
X026673D01*
X026773Y030073D01*
Y029673D01*
X026673Y029573D01*
X026473D01*
X026373Y029673D01*
X026173Y029573D02*
Y030173D01*
X025873D01*
X025773Y030073D01*
Y029873D01*
X025873Y029773D01*
X026173D01*
X025573Y030073D02*
X025473Y030173D01*
X025273D01*
X025173Y030073D01*
Y029973D01*
X025273Y029873D01*
X025373D01*
X025273D01*
X025173Y029773D01*
Y029673D01*
X025273Y029573D01*
X025473D01*
X025573Y029673D01*
X027672Y039416D02*
X027872D01*
X027972Y039316D01*
Y038916D01*
X027872Y038816D01*
X027672D01*
X027572Y038916D01*
Y039316D01*
X027672Y039416D01*
X027372D02*
X026972D01*
X027172D01*
Y038816D01*
X026372Y039316D02*
X026472Y039416D01*
X026672D01*
X026772Y039316D01*
Y038916D01*
X026672Y038816D01*
X026472D01*
X026372Y038916D01*
X026172Y038816D02*
Y039416D01*
X025872D01*
X025772Y039316D01*
Y039116D01*
X025872Y039016D01*
X026172D01*
X025173Y038816D02*
X025572D01*
X025173Y039216D01*
Y039316D01*
X025272Y039416D01*
X025472D01*
X025572Y039316D01*
X027675Y049599D02*
X027875D01*
X027975Y049499D01*
Y049099D01*
X027875Y048999D01*
X027675D01*
X027575Y049099D01*
Y049499D01*
X027675Y049599D01*
X027375D02*
X026975D01*
X027175D01*
Y048999D01*
X026376Y049499D02*
X026476Y049599D01*
X026676D01*
X026776Y049499D01*
Y049099D01*
X026676Y048999D01*
X026476D01*
X026376Y049099D01*
X026176Y048999D02*
Y049599D01*
X025876D01*
X025776Y049499D01*
Y049299D01*
X025876Y049199D01*
X026176D01*
X025576Y048999D02*
X025376D01*
X025476D01*
Y049599D01*
X025576Y049499D01*
X019914Y030623D02*
Y030024D01*
X019614D01*
X019514Y030124D01*
Y030224D01*
X019614Y030324D01*
X019914D01*
X019614D01*
X019514Y030423D01*
Y030523D01*
X019614Y030623D01*
X019914D01*
X019314D02*
X018915D01*
X019114D01*
Y030024D01*
X018715Y030523D02*
X018615Y030623D01*
X018415D01*
X018315Y030523D01*
Y030423D01*
X018415Y030324D01*
X018515D01*
X018415D01*
X018315Y030224D01*
Y030124D01*
X018415Y030024D01*
X018615D01*
X018715Y030124D01*
X02176Y0492D02*
Y0486D01*
X02146D01*
X02136Y0487D01*
Y0488D01*
X02146Y0489D01*
X02176D01*
X02146D01*
X02136Y049D01*
Y0491D01*
X02146Y0492D01*
X02176D01*
X02116D02*
X02076D01*
X02096D01*
Y0486D01*
X02056D02*
X02036D01*
X02046D01*
Y0492D01*
X02056Y0491D01*
X019605Y015486D02*
Y014886D01*
X019305D01*
X019205Y014986D01*
Y015086D01*
X019305Y015186D01*
X019605D01*
X019305D01*
X019205Y015286D01*
Y015386D01*
X019305Y015486D01*
X019605D01*
X018605Y014886D02*
X019005D01*
X018605Y015286D01*
Y015386D01*
X018705Y015486D01*
X018905D01*
X019005Y015386D01*
X027056Y0162D02*
Y0156D01*
X026756D01*
X026656Y0157D01*
Y0158D01*
X026756Y0159D01*
X027056D01*
X026756D01*
X026656Y016D01*
Y0161D01*
X026756Y0162D01*
X027056D01*
X026456Y0156D02*
X026256D01*
X026356D01*
Y0162D01*
X026456Y0161D01*
X040274Y02547D02*
Y02607D01*
X039975D01*
X039875Y02597D01*
Y02577D01*
X039975Y02567D01*
X040274D01*
X040075D02*
X039875Y02547D01*
X039375D02*
Y02607D01*
X039675Y02577D01*
X039275D01*
X034114Y02788D02*
Y02848D01*
X033815D01*
X033715Y02838D01*
Y02818D01*
X033815Y02808D01*
X034114D01*
X033915D02*
X033715Y02788D01*
X033115D02*
X033515D01*
X033115Y02828D01*
Y02838D01*
X033215Y02848D01*
X033415D01*
X033515Y02838D01*
X0362Y0295D02*
Y0299D01*
X0363Y03D01*
X0365D01*
X0366Y0299D01*
Y0295D01*
X0365Y0294D01*
X0363D01*
X0364Y0296D02*
X0362Y0294D01*
X0363D02*
X0362Y0295D01*
X036Y0294D02*
X0358D01*
X0359D01*
Y03D01*
X036Y0299D01*
X038511Y02673D02*
Y02613D01*
X038211D01*
X038111Y02623D01*
Y02663D01*
X038211Y02673D01*
X038511D01*
X037911Y02613D02*
X037711D01*
X037811D01*
Y02673D01*
X037911Y02663D01*
X036904Y02348D02*
Y02298D01*
X036804Y02288D01*
X036604D01*
X036504Y02298D01*
Y02348D01*
X036305Y02338D02*
X036205Y02348D01*
X036005D01*
X035905Y02338D01*
Y02328D01*
X036005Y02318D01*
X036105D01*
X036005D01*
X035905Y02308D01*
Y02298D01*
X036005Y02288D01*
X036205D01*
X036305Y02298D01*
X051163Y025468D02*
X051063D01*
X050863Y025668D01*
X051063Y025868D01*
X051163D01*
X050863Y025668D02*
X050563D01*
Y026068D02*
Y026268D01*
Y026168D01*
X051163D01*
X051063Y026068D01*
X035054Y041544D02*
Y041045D01*
X034954Y040945D01*
X034754D01*
X034654Y041045D01*
Y041544D01*
X034154Y040945D02*
Y041544D01*
X034454Y041245D01*
X034054D01*
X035104Y049222D02*
Y048722D01*
X035005Y048622D01*
X034805D01*
X034705Y048722D01*
Y049222D01*
X034105Y048622D02*
X034505D01*
X034105Y049022D01*
Y049122D01*
X034205Y049222D01*
X034405D01*
X034505Y049122D01*
X042696Y038563D02*
Y039163D01*
X042396D01*
X042296Y039063D01*
Y038863D01*
X042396Y038763D01*
X042696D01*
X042496D02*
X042296Y038563D01*
X041796D02*
Y039163D01*
X042096Y038863D01*
X041696D01*
X041496Y039063D02*
X041396Y039163D01*
X041196D01*
X041096Y039063D01*
Y038663D01*
X041196Y038563D01*
X041396D01*
X041496Y038663D01*
Y039063D01*
X056714Y02618D02*
Y02678D01*
X056415D01*
X056315Y02668D01*
Y02648D01*
X056415Y02638D01*
X056714D01*
X056515D02*
X056315Y02618D01*
X056115Y02668D02*
X056015Y02678D01*
X055815D01*
X055715Y02668D01*
Y02658D01*
X055815Y02648D01*
X055915D01*
X055815D01*
X055715Y02638D01*
Y02628D01*
X055815Y02618D01*
X056015D01*
X056115Y02628D01*
X055515D02*
X055415Y02618D01*
X055215D01*
X055115Y02628D01*
Y02668D01*
X055215Y02678D01*
X055415D01*
X055515Y02668D01*
Y02658D01*
X055415Y02648D01*
X055115D01*
X056714Y03158D02*
Y03218D01*
X056415D01*
X056315Y03208D01*
Y03188D01*
X056415Y03178D01*
X056714D01*
X056515D02*
X056315Y03158D01*
X056115Y03208D02*
X056015Y03218D01*
X055815D01*
X055715Y03208D01*
Y03198D01*
X055815Y03188D01*
X055915D01*
X055815D01*
X055715Y03178D01*
Y03168D01*
X055815Y03158D01*
X056015D01*
X056115Y03168D01*
X055515Y03208D02*
X055415Y03218D01*
X055215D01*
X055115Y03208D01*
Y03198D01*
X055215Y03188D01*
X055115Y03178D01*
Y03168D01*
X055215Y03158D01*
X055415D01*
X055515Y03168D01*
Y03178D01*
X055415Y03188D01*
X055515Y03198D01*
Y03208D01*
X055415Y03188D02*
X055215D01*
X056664Y03758D02*
Y03818D01*
X056365D01*
X056265Y03808D01*
Y03788D01*
X056365Y03778D01*
X056664D01*
X056465D02*
X056265Y03758D01*
X056065Y03808D02*
X055965Y03818D01*
X055765D01*
X055665Y03808D01*
Y03798D01*
X055765Y03788D01*
X055865D01*
X055765D01*
X055665Y03778D01*
Y03768D01*
X055765Y03758D01*
X055965D01*
X056065Y03768D01*
X055465Y03818D02*
X055065D01*
Y03808D01*
X055465Y03768D01*
Y03758D01*
X056664Y04363D02*
Y04423D01*
X056365D01*
X056265Y04413D01*
Y04393D01*
X056365Y04383D01*
X056664D01*
X056465D02*
X056265Y04363D01*
X056065Y04413D02*
X055965Y04423D01*
X055765D01*
X055665Y04413D01*
Y04403D01*
X055765Y04393D01*
X055865D01*
X055765D01*
X055665Y04383D01*
Y04373D01*
X055765Y04363D01*
X055965D01*
X056065Y04373D01*
X055065Y04423D02*
X055265Y04413D01*
X055465Y04393D01*
Y04373D01*
X055365Y04363D01*
X055165D01*
X055065Y04373D01*
Y04383D01*
X055165Y04393D01*
X055465D01*
X046912Y036305D02*
Y036905D01*
X046612D01*
X046512Y036805D01*
Y036605D01*
X046612Y036505D01*
X046912D01*
X046712D02*
X046512Y036305D01*
X046312Y036805D02*
X046212Y036905D01*
X046013D01*
X045913Y036805D01*
Y036705D01*
X046013Y036605D01*
X046112D01*
X046013D01*
X045913Y036505D01*
Y036405D01*
X046013Y036305D01*
X046212D01*
X046312Y036405D01*
X045313Y036905D02*
X045713D01*
Y036605D01*
X045513Y036705D01*
X045413D01*
X045313Y036605D01*
Y036405D01*
X045413Y036305D01*
X045613D01*
X045713Y036405D01*
X043015Y042016D02*
Y042616D01*
X042715D01*
X042615Y042516D01*
Y042316D01*
X042715Y042216D01*
X043015D01*
X042815D02*
X042615Y042016D01*
X042415Y042516D02*
X042315Y042616D01*
X042115D01*
X042015Y042516D01*
Y042416D01*
X042115Y042316D01*
X042215D01*
X042115D01*
X042015Y042216D01*
Y042116D01*
X042115Y042016D01*
X042315D01*
X042415Y042116D01*
X041515Y042016D02*
Y042616D01*
X041815Y042316D01*
X041415D01*
X039961Y03623D02*
Y03683D01*
X039662D01*
X039562Y03673D01*
Y03653D01*
X039662Y03643D01*
X039961D01*
X039761D02*
X039562Y03623D01*
X039362Y03673D02*
X039262Y03683D01*
X039062D01*
X038962Y03673D01*
Y03663D01*
X039062Y03653D01*
X039162D01*
X039062D01*
X038962Y03643D01*
Y03633D01*
X039062Y03623D01*
X039262D01*
X039362Y03633D01*
X038762Y03673D02*
X038662Y03683D01*
X038462D01*
X038362Y03673D01*
Y03663D01*
X038462Y03653D01*
X038562D01*
X038462D01*
X038362Y03643D01*
Y03633D01*
X038462Y03623D01*
X038662D01*
X038762Y03633D01*
X040867Y037825D02*
Y038425D01*
X040567D01*
X040467Y038325D01*
Y038125D01*
X040567Y038025D01*
X040867D01*
X040667D02*
X040467Y037825D01*
X040267Y038325D02*
X040167Y038425D01*
X039967D01*
X039867Y038325D01*
Y038225D01*
X039967Y038125D01*
X040067D01*
X039967D01*
X039867Y038025D01*
Y037925D01*
X039967Y037825D01*
X040167D01*
X040267Y037925D01*
X039267Y037825D02*
X039667D01*
X039267Y038225D01*
Y038325D01*
X039367Y038425D01*
X039567D01*
X039667Y038325D01*
X044522Y038665D02*
Y039265D01*
X044223D01*
X044123Y039165D01*
Y038965D01*
X044223Y038865D01*
X044522D01*
X044323D02*
X044123Y038665D01*
X043923Y039165D02*
X043823Y039265D01*
X043623D01*
X043523Y039165D01*
Y039065D01*
X043623Y038965D01*
X043723D01*
X043623D01*
X043523Y038865D01*
Y038765D01*
X043623Y038665D01*
X043823D01*
X043923Y038765D01*
X043323Y038665D02*
X043123D01*
X043223D01*
Y039265D01*
X043323Y039165D01*
X04779Y040646D02*
Y041245D01*
X04749D01*
X04739Y041146D01*
Y040946D01*
X04749Y040846D01*
X04779D01*
X04759D02*
X04739Y040646D01*
X04719Y041146D02*
X04709Y041245D01*
X04689D01*
X04679Y041146D01*
Y041046D01*
X04689Y040946D01*
X04699D01*
X04689D01*
X04679Y040846D01*
Y040746D01*
X04689Y040646D01*
X04709D01*
X04719Y040746D01*
X046591Y041146D02*
X046491Y041245D01*
X046291D01*
X046191Y041146D01*
Y040746D01*
X046291Y040646D01*
X046491D01*
X046591Y040746D01*
Y041146D01*
X040883Y040262D02*
Y040862D01*
X040583D01*
X040483Y040762D01*
Y040562D01*
X040583Y040462D01*
X040883D01*
X040683D02*
X040483Y040262D01*
X039883D02*
X040283D01*
X039883Y040662D01*
Y040762D01*
X039983Y040862D01*
X040183D01*
X040283Y040762D01*
X039683Y040362D02*
X039583Y040262D01*
X039383D01*
X039283Y040362D01*
Y040762D01*
X039383Y040862D01*
X039583D01*
X039683Y040762D01*
Y040662D01*
X039583Y040562D01*
X039283D01*
X050243Y033854D02*
Y034454D01*
X049943D01*
X049843Y034354D01*
Y034154D01*
X049943Y034054D01*
X050243D01*
X050043D02*
X049843Y033854D01*
X049243D02*
X049643D01*
X049243Y034254D01*
Y034354D01*
X049343Y034454D01*
X049543D01*
X049643Y034354D01*
X049043D02*
X048943Y034454D01*
X048743D01*
X048643Y034354D01*
Y034254D01*
X048743Y034154D01*
X048643Y034054D01*
Y033954D01*
X048743Y033854D01*
X048943D01*
X049043Y033954D01*
Y034054D01*
X048943Y034154D01*
X049043Y034254D01*
Y034354D01*
X048943Y034154D02*
X048743D01*
X044774Y03377D02*
Y03437D01*
X044475D01*
X044375Y03427D01*
Y03407D01*
X044475Y03397D01*
X044774D01*
X044575D02*
X044375Y03377D01*
X043775D02*
X044175D01*
X043775Y03417D01*
Y03427D01*
X043875Y03437D01*
X044075D01*
X044175Y03427D01*
X043575Y03437D02*
X043175D01*
Y03427D01*
X043575Y03387D01*
Y03377D01*
X039524D02*
Y03437D01*
X039225D01*
X039125Y03427D01*
Y03407D01*
X039225Y03397D01*
X039524D01*
X039325D02*
X039125Y03377D01*
X038525D02*
X038925D01*
X038525Y03417D01*
Y03427D01*
X038625Y03437D01*
X038825D01*
X038925Y03427D01*
X037925Y03437D02*
X038125Y03427D01*
X038325Y03407D01*
Y03387D01*
X038225Y03377D01*
X038025D01*
X037925Y03387D01*
Y03397D01*
X038025Y03407D01*
X038325D01*
X042997Y04612D02*
Y04672D01*
X042697D01*
X042597Y04662D01*
Y04642D01*
X042697Y04632D01*
X042997D01*
X042797D02*
X042597Y04612D01*
X041997D02*
X042397D01*
X041997Y04652D01*
Y04662D01*
X042097Y04672D01*
X042297D01*
X042397Y04662D01*
X041397Y04672D02*
X041797D01*
Y04642D01*
X041597Y04652D01*
X041497D01*
X041397Y04642D01*
Y04622D01*
X041497Y04612D01*
X041697D01*
X041797Y04622D01*
X046904Y044512D02*
Y045112D01*
X046604D01*
X046504Y045012D01*
Y044812D01*
X046604Y044712D01*
X046904D01*
X046704D02*
X046504Y044512D01*
X045905D02*
X046305D01*
X045905Y044912D01*
Y045012D01*
X046005Y045112D01*
X046205D01*
X046305Y045012D01*
X045405Y044512D02*
Y045112D01*
X045705Y044812D01*
X045305D01*
X044818Y047866D02*
Y048466D01*
X044518D01*
X044418Y048366D01*
Y048166D01*
X044518Y048066D01*
X044818D01*
X044618D02*
X044418Y047866D01*
X043818D02*
X044218D01*
X043818Y048266D01*
Y048366D01*
X043918Y048466D01*
X044118D01*
X044218Y048366D01*
X043618D02*
X043518Y048466D01*
X043318D01*
X043218Y048366D01*
Y048266D01*
X043318Y048166D01*
X043418D01*
X043318D01*
X043218Y048066D01*
Y047966D01*
X043318Y047866D01*
X043518D01*
X043618Y047966D01*
X039995Y04399D02*
Y04459D01*
X039695D01*
X039595Y04449D01*
Y04429D01*
X039695Y04419D01*
X039995D01*
X039795D02*
X039595Y04399D01*
X038995D02*
X039395D01*
X038995Y04439D01*
Y04449D01*
X039095Y04459D01*
X039295D01*
X039395Y04449D01*
X038395Y04399D02*
X038795D01*
X038395Y04439D01*
Y04449D01*
X038495Y04459D01*
X038695D01*
X038795Y04449D01*
X041007Y046344D02*
Y046944D01*
X040707D01*
X040607Y046844D01*
Y046644D01*
X040707Y046544D01*
X041007D01*
X040807D02*
X040607Y046344D01*
X040007D02*
X040407D01*
X040007Y046744D01*
Y046844D01*
X040107Y046944D01*
X040307D01*
X040407Y046844D01*
X039807Y046344D02*
X039607D01*
X039707D01*
Y046944D01*
X039807Y046844D01*
X044893Y045854D02*
Y046454D01*
X044593D01*
X044493Y046354D01*
Y046154D01*
X044593Y046054D01*
X044893D01*
X044693D02*
X044493Y045854D01*
X043893D02*
X044293D01*
X043893Y046254D01*
Y046354D01*
X043993Y046454D01*
X044193D01*
X044293Y046354D01*
X043693D02*
X043593Y046454D01*
X043393D01*
X043293Y046354D01*
Y045954D01*
X043393Y045854D01*
X043593D01*
X043693Y045954D01*
Y046354D01*
X047788Y048037D02*
Y048637D01*
X047488D01*
X047388Y048537D01*
Y048337D01*
X047488Y048237D01*
X047788D01*
X047588D02*
X047388Y048037D01*
X047188D02*
X046988D01*
X047088D01*
Y048637D01*
X047188Y048537D01*
X046689Y048137D02*
X046589Y048037D01*
X046389D01*
X046289Y048137D01*
Y048537D01*
X046389Y048637D01*
X046589D01*
X046689Y048537D01*
Y048437D01*
X046589Y048337D01*
X046289D01*
X041007Y047929D02*
Y048529D01*
X040707D01*
X040607Y048429D01*
Y048229D01*
X040707Y048129D01*
X041007D01*
X040807D02*
X040607Y047929D01*
X040407D02*
X040207D01*
X040307D01*
Y048529D01*
X040407Y048429D01*
X039907D02*
X039807Y048529D01*
X039607D01*
X039507Y048429D01*
Y048329D01*
X039607Y048229D01*
X039507Y048129D01*
Y048029D01*
X039607Y047929D01*
X039807D01*
X039907Y048029D01*
Y048129D01*
X039807Y048229D01*
X039907Y048329D01*
Y048429D01*
X039807Y048229D02*
X039607D01*
X040374Y01677D02*
Y01737D01*
X040075D01*
X039975Y01727D01*
Y01707D01*
X040075Y01697D01*
X040374D01*
X040175D02*
X039975Y01677D01*
X039775D02*
X039575D01*
X039675D01*
Y01737D01*
X039775Y01727D01*
X038875Y01737D02*
X039075Y01727D01*
X039275Y01707D01*
Y01687D01*
X039175Y01677D01*
X038975D01*
X038875Y01687D01*
Y01697D01*
X038975Y01707D01*
X039275D01*
X044734Y011547D02*
Y012147D01*
X044434D01*
X044334Y012047D01*
Y011847D01*
X044434Y011747D01*
X044734D01*
X044534D02*
X044334Y011547D01*
X044134D02*
X043934D01*
X044034D01*
Y012147D01*
X044134Y012047D01*
X043634D02*
X043534Y012147D01*
X043334D01*
X043234Y012047D01*
Y011947D01*
X043334Y011847D01*
X043434D01*
X043334D01*
X043234Y011747D01*
Y011647D01*
X043334Y011547D01*
X043534D01*
X043634Y011647D01*
X043573Y029468D02*
Y030068D01*
X043273D01*
X043173Y029968D01*
Y029768D01*
X043273Y029668D01*
X043573D01*
X043373D02*
X043173Y029468D01*
X042973D02*
X042773D01*
X042873D01*
Y030068D01*
X042973Y029968D01*
X042473Y029468D02*
X042273D01*
X042373D01*
Y030068D01*
X042473Y029968D01*
X045421Y029471D02*
Y030071D01*
X045121D01*
X045021Y029971D01*
Y029771D01*
X045121Y029671D01*
X045421D01*
X045221D02*
X045021Y029471D01*
X044821Y029971D02*
X044721Y030071D01*
X044521D01*
X044421Y029971D01*
Y029871D01*
X044521Y029771D01*
X044421Y029671D01*
Y029571D01*
X044521Y029471D01*
X044721D01*
X044821Y029571D01*
Y029671D01*
X044721Y029771D01*
X044821Y029871D01*
Y029971D01*
X044721Y029771D02*
X044521D01*
X033174Y02407D02*
Y02467D01*
X032875D01*
X032775Y02457D01*
Y02437D01*
X032875Y02427D01*
X033174D01*
X032975D02*
X032775Y02407D01*
X032575Y02467D02*
X032175D01*
Y02457D01*
X032575Y02417D01*
Y02407D01*
X047695Y034717D02*
Y035117D01*
X047795Y035217D01*
X047995D01*
X048094Y035117D01*
Y034717D01*
X047995Y034617D01*
X047795D01*
X047895Y034817D02*
X047695Y034617D01*
X047795D02*
X047695Y034717D01*
X047095Y035217D02*
X047295Y035117D01*
X047495Y034917D01*
Y034717D01*
X047395Y034617D01*
X047195D01*
X047095Y034717D01*
Y034817D01*
X047195Y034917D01*
X047495D01*
X042545Y034717D02*
Y035117D01*
X042645Y035217D01*
X042845D01*
X042944Y035117D01*
Y034717D01*
X042845Y034617D01*
X042645D01*
X042745Y034817D02*
X042545Y034617D01*
X042645D02*
X042545Y034717D01*
X041945Y035217D02*
X042345D01*
Y034917D01*
X042145Y035017D01*
X042045D01*
X041945Y034917D01*
Y034717D01*
X042045Y034617D01*
X042245D01*
X042345Y034717D01*
X037245D02*
Y035117D01*
X037345Y035217D01*
X037545D01*
X037644Y035117D01*
Y034717D01*
X037545Y034617D01*
X037345D01*
X037445Y034817D02*
X037245Y034617D01*
X037345D02*
X037245Y034717D01*
X036745Y034617D02*
Y035217D01*
X037045Y034917D01*
X036645D01*
X039735Y014942D02*
Y015342D01*
X039835Y015442D01*
X040035D01*
X040135Y015342D01*
Y014942D01*
X040035Y014843D01*
X039835D01*
X039935Y015042D02*
X039735Y014843D01*
X039835D02*
X039735Y014942D01*
X039535Y015342D02*
X039435Y015442D01*
X039235D01*
X039135Y015342D01*
Y015242D01*
X039235Y015142D01*
X039335D01*
X039235D01*
X039135Y015042D01*
Y014942D01*
X039235Y014843D01*
X039435D01*
X039535Y014942D01*
X041215Y03061D02*
Y03101D01*
X041315Y03111D01*
X041515D01*
X041614Y03101D01*
Y03061D01*
X041515Y03051D01*
X041315D01*
X041415Y03071D02*
X041215Y03051D01*
X041315D02*
X041215Y03061D01*
X040615Y03051D02*
X041015D01*
X040615Y03091D01*
Y03101D01*
X040715Y03111D01*
X040915D01*
X041015Y03101D01*
X042979Y016761D02*
Y016161D01*
X042679D01*
X042579Y016261D01*
Y016661D01*
X042679Y016761D01*
X042979D01*
X042379Y016661D02*
X042279Y016761D01*
X042079D01*
X041979Y016661D01*
Y016561D01*
X042079Y016461D01*
X042179D01*
X042079D01*
X041979Y016361D01*
Y016261D01*
X042079Y016161D01*
X042279D01*
X042379Y016261D01*
X044489Y028108D02*
Y027508D01*
X044189D01*
X044089Y027608D01*
Y028008D01*
X044189Y028108D01*
X044489D01*
X043489Y027508D02*
X043889D01*
X043489Y027908D01*
Y028008D01*
X043589Y028108D01*
X043789D01*
X043889Y028008D01*
X034975Y02459D02*
X035075Y02469D01*
X035275D01*
X035374Y02459D01*
Y02419D01*
X035275Y02409D01*
X035075D01*
X034975Y02419D01*
X034775Y02409D02*
X034575D01*
X034675D01*
Y02469D01*
X034775Y02459D01*
X034275Y02409D02*
X034075D01*
X034175D01*
Y02469D01*
X034275Y02459D01*
X036585Y013789D02*
X036685Y013889D01*
X036885D01*
X036985Y013789D01*
Y013389D01*
X036885Y013289D01*
X036685D01*
X036585Y013389D01*
X036385Y013289D02*
X036185D01*
X036285D01*
Y013889D01*
X036385Y013789D01*
X035885D02*
X035785Y013889D01*
X035585D01*
X035486Y013789D01*
Y013389D01*
X035585Y013289D01*
X035785D01*
X035885Y013389D01*
Y013789D01*
X036455Y01928D02*
X036555Y01938D01*
X036755D01*
X036854Y01928D01*
Y01888D01*
X036755Y01878D01*
X036555D01*
X036455Y01888D01*
X036255D02*
X036155Y01878D01*
X035955D01*
X035855Y01888D01*
Y01928D01*
X035955Y01938D01*
X036155D01*
X036255Y01928D01*
Y01918D01*
X036155Y01908D01*
X035855D01*
X042155Y02423D02*
X042255Y02433D01*
X042455D01*
X042554Y02423D01*
Y02383D01*
X042455Y02373D01*
X042255D01*
X042155Y02383D01*
X041955Y02423D02*
X041855Y02433D01*
X041655D01*
X041555Y02423D01*
Y02413D01*
X041655Y02403D01*
X041555Y02393D01*
Y02383D01*
X041655Y02373D01*
X041855D01*
X041955Y02383D01*
Y02393D01*
X041855Y02403D01*
X041955Y02413D01*
Y02423D01*
X041855Y02403D02*
X041655D01*
X044103Y023462D02*
X044203Y023562D01*
X044403D01*
X044503Y023462D01*
Y023063D01*
X044403Y022963D01*
X044203D01*
X044103Y023063D01*
X043503Y023562D02*
X043903D01*
Y023263D01*
X043703Y023362D01*
X043603D01*
X043503Y023263D01*
Y023063D01*
X043603Y022963D01*
X043803D01*
X043903Y023063D01*
X043833Y025203D02*
X043933Y025303D01*
X044133D01*
X044233Y025203D01*
Y024803D01*
X044133Y024703D01*
X043933D01*
X043833Y024803D01*
X043333Y024703D02*
Y025303D01*
X043633Y025003D01*
X043233D01*
X052947Y022386D02*
X053047Y022486D01*
X053247D01*
X053347Y022386D01*
Y021986D01*
X053247Y021886D01*
X053047D01*
X052947Y021986D01*
X052747Y022386D02*
X052647Y022486D01*
X052447D01*
X052347Y022386D01*
Y022286D01*
X052447Y022186D01*
X052547D01*
X052447D01*
X052347Y022086D01*
Y021986D01*
X052447Y021886D01*
X052647D01*
X052747Y021986D01*
X046443Y022886D02*
X046543Y022986D01*
X046743D01*
X046843Y022886D01*
Y022486D01*
X046743Y022386D01*
X046543D01*
X046443Y022486D01*
X045844Y022386D02*
X046244D01*
X045844Y022786D01*
Y022886D01*
X045944Y022986D01*
X046144D01*
X046244Y022886D01*
X046944Y024705D02*
Y024505D01*
Y024605D01*
X046345D01*
X046445Y024705D01*
D12*
X024491Y025811D02*
X026971D01*
X026981Y025812D02*
Y026049D01*
X024481Y025812D02*
Y026049D01*
X026981Y028923D02*
Y029161D01*
X024481D02*
X026981D01*
X024481Y028923D02*
Y029161D01*
X024491Y045241D02*
X026971D01*
X026981Y045243D02*
Y045479D01*
X024481Y045243D02*
Y045479D01*
X026981Y048353D02*
Y048591D01*
X024481D02*
X026981D01*
X024481Y048353D02*
Y048591D01*
X024491Y035056D02*
X026971D01*
X026981Y035058D02*
Y035294D01*
X024481Y035058D02*
Y035294D01*
X026981Y038168D02*
Y038406D01*
X024481D02*
X026981D01*
X024481Y038168D02*
Y038406D01*
X024542Y022386D02*
X027219D01*
X024542Y020465D02*
X027219D01*
X035666Y019772D02*
Y019969D01*
Y022331D02*
Y022528D01*
X033304Y019772D02*
Y022528D01*
X032831Y021859D02*
X033304D01*
Y022252D01*
X032831D02*
X033304D01*
X032989Y020953D02*
X033304D01*
Y021347D01*
X032989D02*
X033304D01*
X032989Y020953D02*
Y021347D01*
X032831Y020441D02*
X033304D01*
Y020048D02*
Y020441D01*
X032831Y020048D02*
X033304D01*
Y022528D02*
X035666D01*
X033304Y019772D02*
X035666D01*
X045088Y027348D02*
X049688D01*
X045088Y025448D02*
Y025948D01*
Y026848D02*
Y027348D01*
X049688Y026848D02*
Y027348D01*
X046938Y026398D02*
X047138D01*
Y026098D02*
Y026698D01*
X047288Y025898D02*
Y026898D01*
X047488D01*
Y025898D02*
Y026898D01*
X047288Y025898D02*
X047488D01*
X047638Y026098D02*
Y026698D01*
Y026398D02*
X047838D01*
X045088Y025448D02*
X049688D01*
Y025948D01*
D66*
X033979Y040027D02*
G03*
X033979Y040027I-000118J0D01*
G01*
X034029Y047707D02*
G03*
X034029Y047707I-000118J0D01*
G01*
D85*
X040472Y013657D02*
G03*
X040472Y013657I-000049J0D01*
G01*
X040843Y02895D02*
G03*
X040843Y02895I-000049J0D01*
G01*
X03588Y027954D02*
G03*
X03588Y027954I-000049J0D01*
G01*
X033019Y02025D02*
G03*
X033019Y02025I-000049J0D01*
G01*
X034757Y040546D02*
G03*
X034757Y040546I-000049J0D01*
G01*
X034807Y048227D02*
G03*
X034807Y048227I-000049J0D01*
G01*
X037443Y033449D02*
G03*
X037443Y033449I-000049J0D01*
G01*
X047893D02*
G03*
X047893Y033449I-000049J0D01*
G01*
X042743D02*
G03*
X042743Y033449I-000049J0D01*
G01*
D86*
X028014Y028509D02*
G03*
X028014Y028509I-000039J0D01*
G01*
Y04794D02*
G03*
X028014Y04794I-000039J0D01*
G01*
Y037755D02*
G03*
X028014Y037755I-000039J0D01*
G01*
D87*
X028381Y021917D02*
G03*
X028381Y021917I-000039J0D01*
G01*
X023371Y020389D02*
Y023523D01*
X021221Y020389D02*
X023371D01*
X011171D02*
Y023523D01*
Y020389D02*
X013297D01*
X011171Y023523D02*
X023371D01*
X013297Y020389D02*
X021221D01*
X023942Y029409D02*
Y032543D01*
X021792Y029409D02*
X023942D01*
X011742D02*
Y032543D01*
Y029409D02*
X013868D01*
X011742Y032543D02*
X023942D01*
X013868Y029409D02*
X021792D01*
X023844Y039074D02*
Y042208D01*
X021694Y039074D02*
X023844D01*
X011644D02*
Y042208D01*
Y039074D02*
X01377D01*
X011644Y042208D02*
X023844D01*
X01377Y039074D02*
X021694D01*
X016637Y036752D02*
Y03728D01*
X015927Y036752D02*
X016637D01*
X015927D02*
Y03728D01*
Y037585D02*
Y03813D01*
X016637Y037585D02*
Y03813D01*
X015927D02*
X016637D01*
X022419Y043801D02*
X023129D01*
Y043257D02*
Y043801D01*
X022419Y043257D02*
Y043801D01*
Y042423D02*
Y042951D01*
Y042423D02*
X023129D01*
Y042951D01*
X022735Y032896D02*
Y033424D01*
X022025Y032896D02*
X022735D01*
X022025D02*
Y033424D01*
Y033729D02*
Y034274D01*
X022735Y033729D02*
Y034274D01*
X022025D02*
X022735D01*
X021751Y023841D02*
Y024369D01*
X021041Y023841D02*
X021751D01*
X021041D02*
Y024369D01*
Y024674D02*
Y025219D01*
X021751Y024674D02*
Y025219D01*
X021041D02*
X021751D01*
X022421Y028152D02*
X023131D01*
Y027607D02*
Y028152D01*
X022421Y027607D02*
Y028152D01*
Y026774D02*
Y027302D01*
Y026774D02*
X023131D01*
Y027302D01*
X015649Y028282D02*
X016359D01*
Y027737D02*
Y028282D01*
X015649Y027737D02*
Y028282D01*
Y026904D02*
Y027432D01*
Y026904D02*
X016359D01*
Y027432D01*
X022425Y037504D02*
X023135D01*
Y036959D02*
Y037504D01*
X022425Y036959D02*
Y037504D01*
Y036126D02*
Y036654D01*
Y036126D02*
X023135D01*
Y036654D01*
X01594Y048193D02*
X01665D01*
Y047648D02*
Y048193D01*
X01594Y047648D02*
Y048193D01*
Y046815D02*
Y047343D01*
Y046815D02*
X01665D01*
Y047343D01*
X02258Y04749D02*
X02329D01*
Y046946D02*
Y04749D01*
X02258Y046946D02*
Y04749D01*
Y046112D02*
Y04664D01*
Y046112D02*
X02329D01*
Y04664D01*
X02893Y01863D02*
X02964D01*
X02893D02*
Y019174D01*
X02964Y01863D02*
Y019174D01*
Y01948D02*
Y020008D01*
X02893D02*
X02964D01*
X02893Y01948D02*
Y020008D01*
X038956Y02442D02*
X039484D01*
X038956D02*
Y02513D01*
X039484D01*
X039789D02*
X040333D01*
X039789Y02442D02*
X040333D01*
Y02513D01*
X033464Y027011D02*
Y027539D01*
X034174D01*
Y027011D02*
Y027539D01*
Y026161D02*
Y026706D01*
X033464Y026161D02*
Y026706D01*
Y026161D02*
X034174D01*
X034684Y02649D02*
X034874Y02668D01*
X034684Y0257D02*
X034884Y0255D01*
X034684Y0257D02*
Y026185D01*
X034884Y0255D02*
X037514D01*
Y02668D01*
X034874D02*
X037514D01*
X034684Y026185D02*
Y02649D01*
X049355Y03343D02*
X049883D01*
Y03272D02*
Y03343D01*
X049355Y03272D02*
X049883D01*
X048506D02*
X04905D01*
X048506Y03343D02*
X04905D01*
X048506Y03272D02*
Y03343D01*
X045952Y024286D02*
Y024986D01*
X044572Y024286D02*
Y024986D01*
X045423D02*
X045952D01*
X044572D02*
X045117D01*
X044572Y024286D02*
X045117D01*
X045423D02*
X045952D01*
X040434Y027435D02*
Y02774D01*
X040624Y02793D02*
X043264D01*
Y02675D02*
Y02793D01*
X040634Y02675D02*
X043264D01*
X040434Y02695D02*
Y027435D01*
Y02695D02*
X040634Y02675D01*
X040434Y02774D02*
X040624Y02793D01*
X044744Y022469D02*
X045444D01*
X044744Y023849D02*
X045444D01*
Y022469D02*
Y022999D01*
Y023304D02*
Y023849D01*
X044744Y023304D02*
Y023849D01*
Y022469D02*
Y022999D01*
X045194Y02214D02*
X045894D01*
X045194Y02076D02*
X045894D01*
X045194Y021611D02*
Y02214D01*
Y02076D02*
Y021306D01*
X045894Y02076D02*
Y021306D01*
Y021611D02*
Y02214D01*
X035084Y0131D02*
Y0138D01*
X033704Y0131D02*
Y0138D01*
X034555D02*
X035084D01*
X033704D02*
X03425D01*
X033704Y0131D02*
X03425D01*
X034555D02*
X035084D01*
X045264Y047911D02*
Y048439D01*
X045974D01*
Y047911D02*
Y048439D01*
Y047061D02*
Y047606D01*
X045264Y047061D02*
Y047606D01*
Y047061D02*
X045974D01*
X042264Y047911D02*
Y048439D01*
X042974D01*
Y047911D02*
Y048439D01*
Y047061D02*
Y047606D01*
X042264Y047061D02*
Y047606D01*
Y047061D02*
X042974D01*
X041264Y047911D02*
Y048439D01*
X041974D01*
Y047911D02*
Y048439D01*
Y047061D02*
Y047606D01*
X041264Y047061D02*
Y047606D01*
Y047061D02*
X041974D01*
X042974Y044011D02*
Y044539D01*
X042264Y044011D02*
X042974D01*
X042264D02*
Y044539D01*
Y044844D02*
Y045389D01*
X042974Y044844D02*
Y045389D01*
X042264D02*
X042974D01*
X042024Y044011D02*
Y044539D01*
X041314Y044011D02*
X042024D01*
X041314D02*
Y044539D01*
Y044844D02*
Y045389D01*
X042024Y044844D02*
Y045389D01*
X041314D02*
X042024D01*
X044024Y044011D02*
Y044539D01*
X043314Y044011D02*
X044024D01*
X043314D02*
Y044539D01*
Y044844D02*
Y045389D01*
X044024Y044844D02*
Y045389D01*
X043314D02*
X044024D01*
X044974Y044011D02*
Y044539D01*
X044264Y044011D02*
X044974D01*
X044264D02*
Y044539D01*
Y044844D02*
Y045389D01*
X044974Y044844D02*
Y045389D01*
X044264D02*
X044974D01*
X041024Y044011D02*
Y044539D01*
X040314Y044011D02*
X041024D01*
X040314D02*
Y044539D01*
Y044844D02*
Y045389D01*
X041024Y044844D02*
Y045389D01*
X040314D02*
X041024D01*
X045264Y040211D02*
Y040739D01*
X045974D01*
Y040211D02*
Y040739D01*
Y039361D02*
Y039906D01*
X045264Y039361D02*
Y039906D01*
Y039361D02*
X045974D01*
X042264Y040211D02*
Y040739D01*
X042974D01*
Y040211D02*
Y040739D01*
Y039361D02*
Y039906D01*
X042264Y039361D02*
Y039906D01*
Y039361D02*
X042974D01*
X041264Y040211D02*
Y040739D01*
X041974D01*
Y040211D02*
Y040739D01*
Y039361D02*
Y039906D01*
X041264Y039361D02*
Y039906D01*
Y039361D02*
X041974D01*
X043974Y036211D02*
Y036739D01*
X043264Y036211D02*
X043974D01*
X043264D02*
Y036739D01*
Y037044D02*
Y037589D01*
X043974Y037044D02*
Y037589D01*
X043264D02*
X043974D01*
X044974Y036211D02*
Y036739D01*
X044264Y036211D02*
X044974D01*
X044264D02*
Y036739D01*
Y037044D02*
Y037589D01*
X044974Y037044D02*
Y037589D01*
X044264D02*
X044974D01*
X042974Y036211D02*
Y036739D01*
X042264Y036211D02*
X042974D01*
X042264D02*
Y036739D01*
Y037044D02*
Y037589D01*
X042974Y037044D02*
Y037589D01*
X042264D02*
X042974D01*
X042024Y036211D02*
Y036739D01*
X041314Y036211D02*
X042024D01*
X041314D02*
Y036739D01*
Y037044D02*
Y037589D01*
X042024Y037044D02*
Y037589D01*
X041314D02*
X042024D01*
X040974Y036211D02*
Y036739D01*
X040264Y036211D02*
X040974D01*
X040264D02*
Y036739D01*
Y037044D02*
Y037589D01*
X040974Y037044D02*
Y037589D01*
X040264D02*
X040974D01*
X033034Y036523D02*
X034255D01*
X033034Y04042D02*
X034255D01*
X033034Y036523D02*
Y04042D01*
X034255Y036523D02*
Y04042D01*
X033084Y044203D02*
X034305D01*
X033084Y048101D02*
X034305D01*
X033084Y044203D02*
Y048101D01*
X034305Y044203D02*
Y048101D01*
X041864Y01318D02*
X042054Y01299D01*
X042844D02*
X043044Y01319D01*
X042359Y01299D02*
X042844D01*
X043044Y01319D02*
Y01582D01*
X041864D02*
X043044D01*
X041864Y01318D02*
Y01582D01*
X042054Y01299D02*
X042359D01*
X045483Y02842D02*
Y02913D01*
X044939Y02842D02*
X045483D01*
X044939Y02913D02*
X045483D01*
X044106D02*
X044634D01*
X044106Y02842D02*
Y02913D01*
Y02842D02*
X044634D01*
X044799Y010496D02*
Y011206D01*
X044255Y010496D02*
X044799D01*
X044255Y011206D02*
X044799D01*
X043421D02*
X04395D01*
X043421Y010496D02*
Y011206D01*
Y010496D02*
X04395D01*
X053407Y021017D02*
Y021546D01*
Y020166D02*
Y020712D01*
X052707Y020166D02*
Y020712D01*
Y021017D02*
Y021546D01*
Y020166D02*
X053407D01*
X052707Y021546D02*
X053407D01*
X034905Y02305D02*
X035434D01*
X034054D02*
X0346D01*
X034054Y02375D02*
X0346D01*
X034905D02*
X035434D01*
X034054Y02305D02*
Y02375D01*
X035434Y02305D02*
Y02375D01*
X031856Y02302D02*
Y02373D01*
X0324D01*
X031856Y02302D02*
X0324D01*
X032705D02*
X033233D01*
Y02373D01*
X032705D02*
X033233D01*
X038206Y03272D02*
Y03343D01*
X03875D01*
X038206Y03272D02*
X03875D01*
X039055D02*
X039583D01*
Y03343D01*
X039055D02*
X039583D01*
X043456Y03272D02*
Y03343D01*
X044D01*
X043456Y03272D02*
X044D01*
X044305D02*
X044833D01*
Y03343D01*
X044305D02*
X044833D01*
X056064Y024461D02*
X056774D01*
X056064D02*
Y025006D01*
X056774Y024461D02*
Y025006D01*
Y025311D02*
Y025839D01*
X056064D02*
X056774D01*
X056064Y025311D02*
Y025839D01*
X056014Y041911D02*
X056724D01*
X056014D02*
Y042456D01*
X056724Y041911D02*
Y042456D01*
Y042761D02*
Y043289D01*
X056014D02*
X056724D01*
X056014Y042761D02*
Y043289D01*
Y035861D02*
X056724D01*
X056014D02*
Y036406D01*
X056724Y035861D02*
Y036406D01*
Y036711D02*
Y037239D01*
X056014D02*
X056724D01*
X056014Y036711D02*
Y037239D01*
X056064Y029861D02*
X056774D01*
X056064D02*
Y030406D01*
X056774Y029861D02*
Y030406D01*
Y030711D02*
Y031239D01*
X056064D02*
X056774D01*
X056064Y030711D02*
Y031239D01*
X039056Y01572D02*
Y01643D01*
X0396D01*
X039056Y01572D02*
X0396D01*
X039905D02*
X040433D01*
Y01643D01*
X039905D02*
X040433D01*
X043633Y02842D02*
Y02913D01*
X043089Y02842D02*
X043633D01*
X043089Y02913D02*
X043633D01*
X042256D02*
X042784D01*
X042256Y02842D02*
Y02913D01*
Y02842D02*
X042784D01*
D88*
X016551Y037349D02*
Y037529D01*
X016011Y037349D02*
Y037529D01*
X018475Y035381D02*
X020925D01*
Y038081D01*
X018475D02*
X020925D01*
X018475Y035631D02*
Y038081D01*
Y035381D02*
Y035631D01*
X022503Y043021D02*
Y043201D01*
X023043Y043021D02*
Y043201D01*
X022649Y033493D02*
Y033673D01*
X022109Y033493D02*
Y033673D01*
X018475Y026153D02*
X020925D01*
Y028853D01*
X018475D02*
X020925D01*
X018475Y026403D02*
Y028853D01*
Y026153D02*
Y026403D01*
X021665Y024438D02*
Y024618D01*
X021125Y024438D02*
Y024618D01*
X022505Y027371D02*
Y027551D01*
X023045Y027371D02*
Y027551D01*
X015733Y027501D02*
Y027681D01*
X016273Y027501D02*
Y027681D01*
X022509Y036723D02*
Y036903D01*
X023049Y036723D02*
Y036903D01*
X016024Y047412D02*
Y047592D01*
X016564Y047412D02*
Y047592D01*
X018475Y045566D02*
Y045816D01*
Y048266D01*
X020925D01*
Y045566D02*
Y048266D01*
X018475Y045566D02*
X020925D01*
X022664Y04671D02*
Y04689D01*
X023204Y04671D02*
Y04689D01*
X029556Y019231D02*
Y019411D01*
X029016Y019231D02*
Y019411D01*
X039553Y024506D02*
X039733D01*
X039553Y025046D02*
X039733D01*
X033551Y026762D02*
Y026942D01*
X034091Y026762D02*
Y026942D01*
X049106Y033344D02*
X049286D01*
X049106Y032804D02*
X049286D01*
X045173Y024907D02*
X045353D01*
X045173Y024367D02*
X045353D01*
X045366Y023068D02*
Y023248D01*
X044826Y023068D02*
Y023248D01*
X045273Y021362D02*
Y021542D01*
X045813Y021362D02*
Y021542D01*
X034306Y013721D02*
X034486D01*
X034306Y013181D02*
X034486D01*
X045351Y047662D02*
Y047842D01*
X045891Y047662D02*
Y047842D01*
X042351Y047662D02*
Y047842D01*
X042891Y047662D02*
Y047842D01*
X041351Y047662D02*
Y047842D01*
X041891Y047662D02*
Y047842D01*
X042888Y044608D02*
Y044788D01*
X042348Y044608D02*
Y044788D01*
X041938Y044608D02*
Y044788D01*
X041398Y044608D02*
Y044788D01*
X043938Y044608D02*
Y044788D01*
X043398Y044608D02*
Y044788D01*
X044888Y044608D02*
Y044788D01*
X044348Y044608D02*
Y044788D01*
X040938Y044608D02*
Y044788D01*
X040398Y044608D02*
Y044788D01*
X045351Y039962D02*
Y040142D01*
X045891Y039962D02*
Y040142D01*
X042351Y039962D02*
Y040142D01*
X042891Y039962D02*
Y040142D01*
X041351Y039962D02*
Y040142D01*
X041891Y039962D02*
Y040142D01*
X043888Y036808D02*
Y036988D01*
X043348Y036808D02*
Y036988D01*
X044888Y036808D02*
Y036988D01*
X044348Y036808D02*
Y036988D01*
X042888Y036808D02*
Y036988D01*
X042348Y036808D02*
Y036988D01*
X041938Y036808D02*
Y036988D01*
X041398Y036808D02*
Y036988D01*
X040888Y036808D02*
Y036988D01*
X040348Y036808D02*
Y036988D01*
X044703Y029046D02*
X044883D01*
X044703Y028506D02*
X044883D01*
X044019Y011122D02*
X044199D01*
X044019Y010582D02*
X044199D01*
X053326Y020768D02*
Y020948D01*
X052786Y020768D02*
Y020948D01*
X034656Y023131D02*
X034836D01*
X034656Y023671D02*
X034836D01*
X032456Y023104D02*
X032636D01*
X032456Y023644D02*
X032636D01*
X038806Y032804D02*
X038986D01*
X038806Y033344D02*
X038986D01*
X044056Y032804D02*
X044236D01*
X044056Y033344D02*
X044236D01*
X056691Y025062D02*
Y025242D01*
X056151Y025062D02*
Y025242D01*
X056641Y042512D02*
Y042692D01*
X056101Y042512D02*
Y042692D01*
X056641Y036462D02*
Y036642D01*
X056101Y036462D02*
Y036642D01*
X056691Y030462D02*
Y030642D01*
X056151Y030462D02*
Y030642D01*
X039656Y015804D02*
X039836D01*
X039656Y016344D02*
X039836D01*
X042853Y029046D02*
X043033D01*
X042853Y028506D02*
X043033D01*
D89*
X013454Y014555D02*
X019674D01*
Y012665D02*
Y014555D01*
X013454Y012665D02*
X019674D01*
X013454D02*
Y014555D01*
X050744Y02349D02*
X050934D01*
X046954Y0233D02*
Y02349D01*
Y01951D02*
X047144D01*
X050744D02*
X050934D01*
X046954D02*
Y0197D01*
Y02349D02*
X047144D01*
X050934Y0233D02*
Y02349D01*
Y01951D02*
Y0197D01*
M02*
