G04*
G04 #@! TF.GenerationSoftware,Altium Limited,Altium Designer,18.0.7 (293)*
G04*
G04 Layer_Color=16711935*
%FSLAX44Y44*%
%MOMM*%
G71*
G01*
G75*
%ADD16C,2.2860*%
%ADD17R,2.2860X2.2860*%
%ADD18R,6.6040X4.3180*%
%ADD19O,6.6040X4.3180*%
%ADD20R,4.3180X6.6040*%
%ADD21O,4.3180X6.6040*%
%ADD22O,2.2860X3.0480*%
%ADD23R,2.2860X3.0480*%
%ADD24R,2.1080X2.1080*%
%ADD25C,2.1080*%
%ADD62R,1.9080X1.7080*%
%ADD63R,1.7080X1.9080*%
%ADD64R,4.6080X2.5080*%
%ADD65R,2.5080X2.4080*%
%ADD66R,1.3580X1.7080*%
%ADD67R,2.2880X2.0280*%
%ADD68R,4.8260X1.2080*%
%ADD69O,4.8260X1.2080*%
%ADD70R,1.7080X1.3580*%
%ADD71R,2.4080X2.5080*%
%ADD72R,2.0280X2.2880*%
%ADD73R,1.8080X2.5080*%
%ADD74R,6.8580X6.8580*%
%ADD75R,0.9906X1.9812*%
%ADD76R,1.9812X0.9906*%
G04:AMPARAMS|DCode=77|XSize=6.008mm|YSize=2.008mm|CornerRadius=0.4415mm|HoleSize=0mm|Usage=FLASHONLY|Rotation=0.000|XOffset=0mm|YOffset=0mm|HoleType=Round|Shape=RoundedRectangle|*
%AMROUNDEDRECTD77*
21,1,6.0080,1.1250,0,0,0.0*
21,1,5.1250,2.0080,0,0,0.0*
1,1,0.8830,2.5625,-0.5625*
1,1,0.8830,-2.5625,-0.5625*
1,1,0.8830,-2.5625,0.5625*
1,1,0.8830,2.5625,0.5625*
%
%ADD77ROUNDEDRECTD77*%
%ADD78R,1.7080X2.4080*%
G04:AMPARAMS|DCode=79|XSize=1.508mm|YSize=2.508mm|CornerRadius=0.379mm|HoleSize=0mm|Usage=FLASHONLY|Rotation=180.000|XOffset=0mm|YOffset=0mm|HoleType=Round|Shape=RoundedRectangle|*
%AMROUNDEDRECTD79*
21,1,1.5080,1.7500,0,0,180.0*
21,1,0.7500,2.5080,0,0,180.0*
1,1,0.7580,-0.3750,0.8750*
1,1,0.7580,0.3750,0.8750*
1,1,0.7580,0.3750,-0.8750*
1,1,0.7580,-0.3750,-0.8750*
%
%ADD79ROUNDEDRECTD79*%
G04:AMPARAMS|DCode=80|XSize=6.008mm|YSize=6.208mm|CornerRadius=0.9415mm|HoleSize=0mm|Usage=FLASHONLY|Rotation=180.000|XOffset=0mm|YOffset=0mm|HoleType=Round|Shape=RoundedRectangle|*
%AMROUNDEDRECTD80*
21,1,6.0080,4.3250,0,0,180.0*
21,1,4.1250,6.2080,0,0,180.0*
1,1,1.8830,-2.0625,2.1625*
1,1,1.8830,2.0625,2.1625*
1,1,1.8830,2.0625,-2.1625*
1,1,1.8830,-2.0625,-2.1625*
%
%ADD80ROUNDEDRECTD80*%
%ADD81R,2.5080X1.8080*%
%ADD82R,6.8580X6.8580*%
%ADD83R,2.4080X1.7080*%
G04:AMPARAMS|DCode=84|XSize=1.918mm|YSize=1.978mm|CornerRadius=0.4303mm|HoleSize=0mm|Usage=FLASHONLY|Rotation=180.000|XOffset=0mm|YOffset=0mm|HoleType=Round|Shape=RoundedRectangle|*
%AMROUNDEDRECTD84*
21,1,1.9180,1.1175,0,0,180.0*
21,1,1.0575,1.9780,0,0,180.0*
1,1,0.8605,-0.5288,0.5587*
1,1,0.8605,0.5288,0.5587*
1,1,0.8605,0.5288,-0.5587*
1,1,0.8605,-0.5288,-0.5587*
%
%ADD84ROUNDEDRECTD84*%
D16*
X453642Y819658D02*
D03*
X402841D02*
D03*
X428242D02*
D03*
X504441Y667258D02*
D03*
X428242D02*
D03*
X479041D02*
D03*
X504441Y819658D02*
D03*
X479041D02*
D03*
X453642Y667258D02*
D03*
X709678Y819658D02*
D03*
X658878D02*
D03*
X684278D02*
D03*
X760479Y667258D02*
D03*
X684278D02*
D03*
X735079D02*
D03*
X760479Y819658D02*
D03*
X735079D02*
D03*
X709678Y667258D02*
D03*
X581660Y819658D02*
D03*
X530860D02*
D03*
X556260D02*
D03*
X632460Y667258D02*
D03*
X556260D02*
D03*
X607060D02*
D03*
X632460Y819658D02*
D03*
X607060D02*
D03*
X581660Y667258D02*
D03*
X580390Y1145540D02*
D03*
X529590D02*
D03*
X554990D02*
D03*
X631190Y993140D02*
D03*
X554990D02*
D03*
X605790D02*
D03*
X631190Y1145540D02*
D03*
X605790D02*
D03*
X580390Y993140D02*
D03*
X708409D02*
D03*
X733809Y1145540D02*
D03*
X759209D02*
D03*
X733809Y993140D02*
D03*
X683008D02*
D03*
X759209D02*
D03*
X683008Y1145540D02*
D03*
X657608D02*
D03*
X708409D02*
D03*
X452371Y993140D02*
D03*
X477771Y1145540D02*
D03*
X503172D02*
D03*
X477771Y993140D02*
D03*
X426972D02*
D03*
X503172D02*
D03*
X426972Y1145540D02*
D03*
X401572D02*
D03*
X452371D02*
D03*
D17*
X402841Y667258D02*
D03*
X658878D02*
D03*
X530860D02*
D03*
X529590Y993140D02*
D03*
X657608D02*
D03*
X401572D02*
D03*
D18*
X948690Y704850D02*
D03*
X173990Y871220D02*
D03*
X180340Y549910D02*
D03*
X958850Y333502D02*
D03*
D19*
X948690Y781050D02*
D03*
X173990Y795020D02*
D03*
X180340Y473710D02*
D03*
X958850Y409702D02*
D03*
D20*
X928370Y1087120D02*
D03*
D21*
X852170D02*
D03*
D22*
X574040Y234950D02*
D03*
X548640D02*
D03*
X523240D02*
D03*
X497840D02*
D03*
X472440D02*
D03*
D23*
X447040D02*
D03*
D24*
X218440Y1096010D02*
D03*
X302332Y1097280D02*
D03*
X218440Y962660D02*
D03*
X302332D02*
D03*
D25*
X193040Y1096010D02*
D03*
X276933Y1097280D02*
D03*
X193040Y962660D02*
D03*
X276933D02*
D03*
D62*
X581626Y490924D02*
D03*
Y509924D02*
D03*
X650848Y517659D02*
D03*
Y536659D02*
D03*
X788704Y395536D02*
D03*
Y376536D02*
D03*
X852778Y744836D02*
D03*
Y763836D02*
D03*
X504798Y695306D02*
D03*
Y714306D02*
D03*
X479398Y695306D02*
D03*
Y714306D02*
D03*
X428598Y695306D02*
D03*
Y714306D02*
D03*
X403198Y695306D02*
D03*
Y714306D02*
D03*
X503582Y794404D02*
D03*
Y775404D02*
D03*
X478182Y794404D02*
D03*
Y775404D02*
D03*
X428652Y794404D02*
D03*
Y775404D02*
D03*
X403252Y794404D02*
D03*
Y775404D02*
D03*
X676248Y889616D02*
D03*
Y908616D02*
D03*
X547978Y890886D02*
D03*
Y909886D02*
D03*
X420978Y885806D02*
D03*
Y904806D02*
D03*
X805842Y1059834D02*
D03*
Y1040834D02*
D03*
X805788Y1085196D02*
D03*
Y1104196D02*
D03*
X503528Y1017886D02*
D03*
Y1036886D02*
D03*
X478128Y1017886D02*
D03*
Y1036886D02*
D03*
X426058Y1017886D02*
D03*
Y1036886D02*
D03*
X400658Y1017886D02*
D03*
Y1036886D02*
D03*
X502312Y1122064D02*
D03*
Y1103064D02*
D03*
X476912Y1122064D02*
D03*
Y1103064D02*
D03*
X426112Y1122064D02*
D03*
Y1103064D02*
D03*
X400712Y1122064D02*
D03*
Y1103064D02*
D03*
X308002Y796944D02*
D03*
Y777944D02*
D03*
X250852Y748684D02*
D03*
Y729684D02*
D03*
X277522Y795674D02*
D03*
Y776674D02*
D03*
X250852Y799484D02*
D03*
Y780484D02*
D03*
X277468Y998836D02*
D03*
Y1017836D02*
D03*
X194918Y998836D02*
D03*
Y1017836D02*
D03*
X277522Y1068724D02*
D03*
Y1049724D02*
D03*
X193702Y1068724D02*
D03*
Y1049724D02*
D03*
X976596Y1086554D02*
D03*
Y1105554D02*
D03*
X977292Y1064914D02*
D03*
Y1045914D02*
D03*
Y993794D02*
D03*
Y974794D02*
D03*
X349858Y728326D02*
D03*
Y747326D02*
D03*
D63*
X547936Y509236D02*
D03*
X528936D02*
D03*
X488384Y509304D02*
D03*
X507384D02*
D03*
X691584Y378494D02*
D03*
X710584D02*
D03*
X252164Y826804D02*
D03*
X271164D02*
D03*
X287636Y523902D02*
D03*
X306636D02*
D03*
X260916Y551146D02*
D03*
X241916D02*
D03*
X261004Y521308D02*
D03*
X242004D02*
D03*
X241916Y490882D02*
D03*
X260916D02*
D03*
X243186Y462942D02*
D03*
X262186D02*
D03*
X300884Y459132D02*
D03*
X319883D02*
D03*
X819804Y318108D02*
D03*
X800804D02*
D03*
D64*
X655000Y449580D02*
D03*
X742000D02*
D03*
X656855Y309748D02*
D03*
X743855D02*
D03*
D65*
X896874Y716802D02*
D03*
X853186D02*
D03*
X344424Y491744D02*
D03*
X300736D02*
D03*
D66*
X570890Y909120D02*
D03*
X589788Y909066D02*
D03*
X580390Y884120D02*
D03*
X341020Y461113D02*
D03*
X359918Y461059D02*
D03*
X350520Y436113D02*
D03*
X445160Y905310D02*
D03*
X464058Y905256D02*
D03*
X454660Y880310D02*
D03*
X699160Y909120D02*
D03*
X718058Y909066D02*
D03*
X708660Y884120D02*
D03*
D67*
X858520Y845210D02*
D03*
X909320D02*
D03*
X883920D02*
D03*
X858520Y927710D02*
D03*
X909320D02*
D03*
X883920D02*
D03*
D68*
X604520Y1022350D02*
D03*
X603250Y699770D02*
D03*
D69*
X680720Y1022350D02*
D03*
X604520Y1035050D02*
D03*
Y1047750D02*
D03*
Y1060450D02*
D03*
Y1073150D02*
D03*
Y1085850D02*
D03*
Y1098550D02*
D03*
Y1111250D02*
D03*
X680720D02*
D03*
Y1098550D02*
D03*
Y1085850D02*
D03*
Y1073150D02*
D03*
Y1060450D02*
D03*
Y1047750D02*
D03*
Y1035050D02*
D03*
X679450Y712470D02*
D03*
Y725170D02*
D03*
Y737870D02*
D03*
Y750570D02*
D03*
Y763270D02*
D03*
Y775970D02*
D03*
Y788670D02*
D03*
X603250D02*
D03*
Y775970D02*
D03*
Y763270D02*
D03*
Y750570D02*
D03*
Y737870D02*
D03*
Y725170D02*
D03*
Y712470D02*
D03*
X679450Y699770D02*
D03*
D70*
X303730Y869340D02*
D03*
X303784Y888238D02*
D03*
X328730Y878840D02*
D03*
X879040Y744880D02*
D03*
X879094Y763778D02*
D03*
X904040Y754380D02*
D03*
D71*
X340614Y783336D02*
D03*
Y827024D02*
D03*
D72*
X253390Y655320D02*
D03*
Y680720D02*
D03*
Y629920D02*
D03*
X335890Y655320D02*
D03*
Y680720D02*
D03*
Y629920D02*
D03*
X327000Y354330D02*
D03*
Y405130D02*
D03*
Y379730D02*
D03*
X244500Y354330D02*
D03*
Y405130D02*
D03*
Y379730D02*
D03*
D73*
X205105Y335915D02*
D03*
X158115D02*
D03*
X159385Y639445D02*
D03*
X206375D02*
D03*
D74*
X182245Y405765D02*
D03*
X183515Y709295D02*
D03*
D75*
X561848Y413004D02*
D03*
X553974D02*
D03*
X545846D02*
D03*
X537972D02*
D03*
X529844D02*
D03*
X521970D02*
D03*
X514096D02*
D03*
X505968D02*
D03*
X498094D02*
D03*
X489966D02*
D03*
X482092D02*
D03*
Y298196D02*
D03*
X489966D02*
D03*
X498094D02*
D03*
X505968D02*
D03*
X514096D02*
D03*
X521970D02*
D03*
X529844D02*
D03*
X537972D02*
D03*
X545846D02*
D03*
X553974D02*
D03*
X561848D02*
D03*
D76*
X464566Y395478D02*
D03*
Y387604D02*
D03*
Y379476D02*
D03*
Y371602D02*
D03*
Y363474D02*
D03*
Y355600D02*
D03*
Y347726D02*
D03*
Y339598D02*
D03*
Y331724D02*
D03*
Y323596D02*
D03*
Y315722D02*
D03*
X579374D02*
D03*
Y323596D02*
D03*
Y331724D02*
D03*
Y339598D02*
D03*
Y347726D02*
D03*
Y355600D02*
D03*
Y363474D02*
D03*
Y371602D02*
D03*
Y379476D02*
D03*
Y387604D02*
D03*
Y395478D02*
D03*
D77*
X586060Y558800D02*
D03*
X501060D02*
D03*
D78*
X955144Y536556D02*
D03*
X904144D02*
D03*
X955144Y454056D02*
D03*
X904144D02*
D03*
D79*
X861163Y432047D02*
D03*
X815463Y432047D02*
D03*
D80*
X838314Y506047D02*
D03*
D81*
X934085Y965835D02*
D03*
Y1012825D02*
D03*
D82*
X864235Y989965D02*
D03*
D83*
X822344Y399329D02*
D03*
Y348330D02*
D03*
X904844Y399329D02*
D03*
Y348330D02*
D03*
D84*
X777480Y544830D02*
D03*
Y519430D02*
D03*
X680480D02*
D03*
Y544830D02*
D03*
M02*
