G04*
G04 #@! TF.GenerationSoftware,Altium Limited,Altium Designer,18.0.7 (293)*
G04*
G04 Layer_Color=128*
%FSTAX24Y24*%
%MOIN*%
G70*
G01*
G75*
%ADD81C,0.0020*%
D81*
X021024Y021939D02*
X021418D01*
X021221Y021742D02*
Y022136D01*
X01315Y021939D02*
X013544D01*
X013347Y021742D02*
Y022136D01*
X021595Y030959D02*
X021989D01*
X021792Y030762D02*
Y031156D01*
X013721Y030959D02*
X014115D01*
X013918Y030762D02*
Y031156D01*
X021497Y040624D02*
X021891D01*
X021694Y040427D02*
Y040821D01*
X013623Y040624D02*
X014017D01*
X01382Y040427D02*
Y040821D01*
X008723Y026656D02*
X009452D01*
X009087Y026291D02*
Y02702D01*
X008723Y029907D02*
X009452D01*
X009087Y029543D02*
Y030272D01*
X008723Y033159D02*
X009452D01*
X009087Y032795D02*
Y033524D01*
X008723Y036411D02*
X009452D01*
X009087Y036047D02*
Y036776D01*
X008723Y039663D02*
X009452D01*
X009087Y039299D02*
Y040028D01*
X008723Y042915D02*
X009452D01*
X009087Y042551D02*
Y04328D01*
X008723Y046167D02*
X009452D01*
X009087Y045803D02*
Y046532D01*
X008723Y049419D02*
X009452D01*
X009087Y049055D02*
Y049783D01*
X040489Y04321D02*
X040803D01*
X040646Y043052D02*
Y043367D01*
X041489Y04321D02*
X041803D01*
X041646Y043052D02*
Y043367D01*
X042489Y04321D02*
X042803D01*
X042646Y043052D02*
Y043367D01*
X043489Y04321D02*
X043803D01*
X043646Y043052D02*
Y043367D01*
X044489Y04321D02*
X044803D01*
X044646Y043052D02*
Y043367D01*
X045489Y04321D02*
X045803D01*
X045646Y043052D02*
Y043367D01*
X040489Y04921D02*
X040803D01*
X040646Y049052D02*
Y049367D01*
X041489Y04921D02*
X041803D01*
X041646Y049052D02*
Y049367D01*
X042489Y04921D02*
X042803D01*
X042646Y049052D02*
Y049367D01*
X043489Y04921D02*
X043803D01*
X043646Y049052D02*
Y049367D01*
X044489Y04921D02*
X044803D01*
X044646Y049052D02*
Y049367D01*
X045489Y04921D02*
X045803D01*
X045646Y049052D02*
Y049367D01*
X040489Y035529D02*
X040803D01*
X040646Y035372D02*
Y035687D01*
X041489Y035529D02*
X041803D01*
X041646Y035372D02*
Y035687D01*
X042489Y035529D02*
X042803D01*
X042646Y035372D02*
Y035687D01*
X043489Y035529D02*
X043803D01*
X043646Y035372D02*
Y035687D01*
X044489Y035529D02*
X044803D01*
X044646Y035372D02*
Y035687D01*
X045489Y035529D02*
X045803D01*
X045646Y035372D02*
Y035687D01*
X040489Y041529D02*
X040803D01*
X040646Y041372D02*
Y041687D01*
X041489Y041529D02*
X041803D01*
X041646Y041372D02*
Y041687D01*
X042489Y041529D02*
X042803D01*
X042646Y041372D02*
Y041687D01*
X043489Y041529D02*
X043803D01*
X043646Y041372D02*
Y041687D01*
X044489Y041529D02*
X044803D01*
X044646Y041372D02*
Y041687D01*
X045489Y041529D02*
X045803D01*
X045646Y041372D02*
Y041687D01*
X013946Y013571D02*
X014457D01*
X014202Y013315D02*
Y013827D01*
X01554Y013571D02*
X016013D01*
X015776Y013335D02*
Y013807D01*
X017115Y013571D02*
X017587D01*
X017351Y013335D02*
Y013807D01*
X01869Y013571D02*
X019162D01*
X018926Y013335D02*
Y013807D01*
X007257Y015041D02*
X007768D01*
X007513Y014785D02*
Y015297D01*
X007257Y01701D02*
X007768D01*
X007513Y016754D02*
Y017266D01*
X053444Y01485D02*
X053844D01*
X053644Y01465D02*
Y01505D01*
X052444Y01485D02*
X052844D01*
X052644Y01465D02*
Y01505D01*
X051444Y01485D02*
X051844D01*
X051644Y01465D02*
Y01505D01*
X050444Y01485D02*
X050844D01*
X050644Y01465D02*
Y01505D01*
X049444Y01485D02*
X049844D01*
X049644Y01465D02*
Y01505D01*
X048444Y01485D02*
X048844D01*
X048644Y01465D02*
Y01505D01*
X056237Y0284D02*
X056552D01*
X056394Y028243D02*
Y028557D01*
X056237Y0274D02*
X056552D01*
X056394Y027243D02*
Y027557D01*
X056237Y0342D02*
X056552D01*
X056394Y034043D02*
Y034357D01*
X056237Y0332D02*
X056552D01*
X056394Y033043D02*
Y033357D01*
X056237Y03995D02*
X056552D01*
X056394Y039793D02*
Y040107D01*
X056237Y03895D02*
X056552D01*
X056394Y038793D02*
Y039107D01*
X056237Y0458D02*
X056552D01*
X056394Y045643D02*
Y045957D01*
X056237Y0448D02*
X056552D01*
X056394Y044643D02*
Y044957D01*
X043072Y024053D02*
X043387D01*
X043229Y023896D02*
Y024211D01*
X030537Y045925D02*
X030852D01*
X030695Y045768D02*
Y046083D01*
X031824Y045427D02*
X032139D01*
X031981Y04527D02*
Y045585D01*
X053072Y024837D02*
X053387D01*
X053229Y024679D02*
Y024994D01*
X057316Y051065D02*
X058497D01*
X057906Y050474D02*
Y051656D01*
X057316Y008939D02*
X058497D01*
X057906Y008348D02*
Y00953D01*
X002591Y008939D02*
X003772D01*
X003182Y008348D02*
Y00953D01*
X002591Y051065D02*
X003772D01*
X003182Y050474D02*
Y051656D01*
X018194Y029581D02*
X018509D01*
X018351Y029423D02*
Y029738D01*
X028906Y02536D02*
X029221D01*
X029064Y025203D02*
Y025518D01*
X022174Y045325D02*
X022489D01*
X022332Y045167D02*
Y045482D01*
X018121Y049238D02*
X018436D01*
X018278Y049081D02*
Y049396D01*
X051302Y038508D02*
X051617D01*
X051459Y03835D02*
Y038665D01*
X02852Y030654D02*
X028835D01*
X028678Y030496D02*
Y030811D01*
X027999Y033809D02*
X028314D01*
X028156Y033652D02*
Y033967D01*
X027991Y041846D02*
X028306D01*
X028148Y041689D02*
Y042004D01*
X028711Y043012D02*
X029026D01*
X028869Y042854D02*
Y043169D01*
X037873Y015431D02*
X038188D01*
X03803Y015274D02*
Y015589D01*
X041643Y010815D02*
X041957D01*
X0418Y010657D02*
Y010972D01*
X028973Y026976D02*
X029288D01*
X029131Y026819D02*
Y027134D01*
X019599Y018701D02*
X019914D01*
X019757Y018543D02*
Y018858D01*
X019599Y014982D02*
X019914D01*
X019757Y014825D02*
Y01514D01*
X035587Y035656D02*
X035902D01*
X035745Y035498D02*
Y035813D01*
X033633Y019297D02*
X033948D01*
X03379Y01914D02*
Y019455D01*
X022422Y026177D02*
X022737D01*
X02258Y02602D02*
Y026335D01*
X022457Y035146D02*
X022772D01*
X022615Y034988D02*
Y035303D01*
X018038Y038996D02*
X018353D01*
X018196Y038839D02*
Y039154D01*
X038195Y018543D02*
X03851D01*
X038352Y018386D02*
Y018701D01*
X055587Y021929D02*
X055902D01*
X055744Y021772D02*
Y022087D01*
X044041Y038287D02*
X044356D01*
X044199Y03813D02*
Y038445D01*
X036659Y03811D02*
X036974D01*
X036817Y037953D02*
Y038268D01*
X044593Y0256D02*
X044907D01*
X04475Y025443D02*
Y025758D01*
X044489Y021826D02*
X044804D01*
X044647Y021668D02*
Y021983D01*
X031778Y026417D02*
X032093D01*
X031935Y02626D02*
Y026575D01*
X029691Y037352D02*
X030006D01*
X029848Y037195D02*
Y03751D01*
X044878Y020197D02*
X045193D01*
X045035Y020039D02*
Y020354D01*
X044159Y018632D02*
X044474D01*
X044317Y018474D02*
Y018789D01*
X051384D02*
X051699D01*
X051541Y018632D02*
Y018947D01*
X041433Y024144D02*
X041748D01*
X041591Y023986D02*
Y024301D01*
X052063Y018386D02*
X052378D01*
X05222Y018228D02*
Y018543D01*
X049474Y016191D02*
X049789D01*
X049632Y016033D02*
Y016348D01*
X053982Y0194D02*
X054297D01*
X05414Y019242D02*
Y019557D01*
X032654Y025315D02*
X032968D01*
X032811Y025157D02*
Y025472D01*
X047093Y024823D02*
X047407D01*
X04725Y024665D02*
Y02498D01*
X031669Y046902D02*
X031984D01*
X031827Y046744D02*
Y047059D01*
X031571Y039488D02*
X031886D01*
X031728Y039331D02*
Y039646D01*
X030606Y038376D02*
X030921D01*
X030764Y038219D02*
Y038533D01*
X03165Y037721D02*
X031965D01*
X031807Y037564D02*
Y037879D01*
X048992Y025364D02*
X049307D01*
X04915Y025207D02*
Y025522D01*
X047841Y024724D02*
X048156D01*
X047998Y024567D02*
Y024882D01*
X033608Y03499D02*
X033923D01*
X033766Y034833D02*
Y035148D01*
X0346Y042901D02*
X034915D01*
X034757Y042744D02*
Y043059D01*
X053087Y03627D02*
X053402D01*
X053244Y036112D02*
Y036427D01*
X049219Y031644D02*
X049533D01*
X049376Y031486D02*
Y031801D01*
X044376Y034075D02*
X044691D01*
X044533Y033917D02*
Y034232D01*
X031561Y043268D02*
X031876D01*
X031718Y04311D02*
Y043425D01*
X04224Y038061D02*
X042555D01*
X042398Y037904D02*
Y038219D01*
X04352Y040197D02*
X043835D01*
X043677Y040039D02*
Y040354D01*
X036499Y037221D02*
X036814D01*
X036656Y037064D02*
Y037379D01*
X046551Y044104D02*
X046866D01*
X046709Y043947D02*
Y044262D01*
X043894Y050856D02*
X044209D01*
X044051Y050699D02*
Y051014D01*
X036413Y043809D02*
X036728D01*
X036571Y043652D02*
Y043967D01*
X038854Y048297D02*
X039169D01*
X039012Y04814D02*
Y048455D01*
X044012Y046112D02*
X044327D01*
X044169Y045955D02*
Y04627D01*
X036028Y045402D02*
X036343D01*
X036185Y045244D02*
Y045559D01*
X041915Y045699D02*
X04223D01*
X042073Y045541D02*
Y045856D01*
X036945Y044902D02*
X03726D01*
X037102Y044744D02*
Y045059D01*
X055263Y036926D02*
X055578D01*
X05542Y036768D02*
Y037083D01*
X053637Y0236D02*
X053952D01*
X053794Y023443D02*
Y023757D01*
X055263Y030926D02*
X055578D01*
X05542Y030768D02*
Y031083D01*
X054187Y0228D02*
X054502D01*
X054344Y022643D02*
Y022957D01*
X055187Y025526D02*
X055502D01*
X055344Y025368D02*
Y025683D01*
M02*
