M48
;Layer_Color=9474304
;FILE_FORMAT=4:4
METRIC,LZ
;TYPE=PLATED
T1F00S00C0.7112
T2F00S00C0.8000
T3F00S00C1.0160
T4F00S00C2.4130
%
T01
X0055245Y0027051
X0060452Y0029972
X0078232Y0032766
X0080772Y0045974
X0084455Y0042926
X0075438Y0047752
X0072263Y0054991
X0081812Y0054967
X0074295Y00635
X0070231Y0061849
X0065786Y0060579
X0067056Y0057912
X0064897Y0056007
X0063373Y0053594
X0067437Y0049022
X0057531Y0047371
X00553974Y00483616
X0053848Y0049276
X0052197Y0049149
X0051181Y0046863
X004953Y0048006
X0049657Y0045085
X0049784Y0043053
X0047879Y0043688
Y0045847
X0044958Y0042672
X0042291Y0044958
X0042545Y0039243
X00410972Y00349758
X0043561Y003429
X0060325Y0033401
X0062103Y0033909
X0063373Y0039751
X0059436Y0043942
X0056642Y0050546
X0058166Y0061849
X0061722Y00635
X0051308
X005334Y0060579
X0046609Y0061849
X0045212Y0060579
X0038862Y0049784
X0037084Y0047752
X0035306Y0051562
X0032004Y0054229
X0032893Y0044323
X0026924Y009398
X001778Y0099314
X0024638Y0109093
X0034544Y0103886
X0044323Y0094488
X0047498Y0095504
X0050927Y0097028
X0053467Y0094488
X0058039Y0095504
X0061468Y0097028
X0065659Y0094488
X0061468Y0089154
X0061722Y0084836
X0059436Y0085852
X0054864Y0086995
X00508Y0084836
X0049403Y0086106
X0044577Y0085471
X0043942Y0083566
X0039243Y0084582
X0039624Y0087376
X0039751Y0089789
X0038608Y0079502
X0039878Y0075438
X004572Y0077216
X0053467
X0052324Y0078359
X0057277Y0078994
X0056896Y0077089
X005588Y0070739
X0053467Y006985
X0064897Y0073025
X0063754Y0076073
X0066929Y0085471
X0068453Y0086614
X0056388Y0102235
X0056642Y0107188
X0052578Y0108331
X007112Y0107315
X0073406Y0106807
X0074041Y0108331
X007874Y0107569
X0074803Y0102997
X0071247Y010414
Y0095504
X0074295Y0097028
X0079375Y0093853
X0082677Y008763
X0087249Y0087884
X0076708Y0086487
X007493Y0085217
X0071374Y0085471
X0072263Y0088519
X0071882Y007874
X0073533Y0076835
X0071247Y0075692
X0076708Y0072644
X0078105Y0071882
X00736348Y011176
X0072009Y0110871
X0072898Y0117602
X0069088Y0118618
X0065786Y0119761
X0061087Y0117475
X0058166Y0118745
X0052959Y0119761
X00508Y0117475
X0049022Y0118745
X0044958Y0119634
X00452371Y01116581
X0054356Y0112522
X00554286Y01103064
X0064008Y0110744
T02
X0019304Y0096266
X0021844
X00276933
X00302332
Y0109728
X00276933
X0021844Y0109601
X0019304
T03
X0044704Y0023495
X0047244
X0049784
X0052324
X0054864
X0057404
X00709678Y00667258
X00735079
X00760479
X00684278
X00658878
X0063246
X0060706
X0058166
X0055626
X0053086
X00504441
X00479041
X00453642
X00428242
X00402841
Y00819658
X00428242
X00453642
X00479041
X00504441
X0053086
X0055626
X0058166
X0060706
X0063246
X00658878
X00684278
X00683008Y0099314
X00657608
X0063119
X0060579
X0058039
X0055499
X0052959
X00503172
X00477771
X00452371
X00426972
X00401572
X00708409
X00733809
X00759209
X00760479Y00819658
X00735079
X00709678
X00708409Y0114554
X00733809
X00759209
X00683008
X00657608
X0063119
X0060579
X0058039
X0055499
X0052959
X00503172
X00477771
X00452371
X00426972
X00401572
T04
X0095885Y00333502
Y00409702
X0018034Y0047371
Y0054991
X0017399Y0079502
Y0087122
X0094869Y0078105
Y0070485
X0092837Y0108712
X0085217
M30
