G04*
G04 #@! TF.GenerationSoftware,Altium Limited,Altium Designer,18.0.7 (293)*
G04*
G04 Layer_Color=8388736*
%FSLAX44Y44*%
%MOMM*%
G71*
G01*
G75*
%ADD16C,2.2860*%
%ADD17R,2.2860X2.2860*%
%ADD18R,6.6040X4.3180*%
%ADD19O,6.6040X4.3180*%
%ADD20R,4.3180X6.6040*%
%ADD21O,4.3180X6.6040*%
%ADD22O,2.2860X3.0480*%
%ADD23R,2.2860X3.0480*%
%ADD24R,2.1080X2.1080*%
%ADD25C,2.1080*%
D16*
X453642Y819658D02*
D03*
X402841D02*
D03*
X428242D02*
D03*
X504441Y667258D02*
D03*
X428242D02*
D03*
X479041D02*
D03*
X504441Y819658D02*
D03*
X479041D02*
D03*
X453642Y667258D02*
D03*
X709678Y819658D02*
D03*
X658878D02*
D03*
X684278D02*
D03*
X760479Y667258D02*
D03*
X684278D02*
D03*
X735079D02*
D03*
X760479Y819658D02*
D03*
X735079D02*
D03*
X709678Y667258D02*
D03*
X581660Y819658D02*
D03*
X530860D02*
D03*
X556260D02*
D03*
X632460Y667258D02*
D03*
X556260D02*
D03*
X607060D02*
D03*
X632460Y819658D02*
D03*
X607060D02*
D03*
X581660Y667258D02*
D03*
X580390Y1145540D02*
D03*
X529590D02*
D03*
X554990D02*
D03*
X631190Y993140D02*
D03*
X554990D02*
D03*
X605790D02*
D03*
X631190Y1145540D02*
D03*
X605790D02*
D03*
X580390Y993140D02*
D03*
X708409D02*
D03*
X733809Y1145540D02*
D03*
X759209D02*
D03*
X733809Y993140D02*
D03*
X683008D02*
D03*
X759209D02*
D03*
X683008Y1145540D02*
D03*
X657608D02*
D03*
X708409D02*
D03*
X452371Y993140D02*
D03*
X477771Y1145540D02*
D03*
X503172D02*
D03*
X477771Y993140D02*
D03*
X426972D02*
D03*
X503172D02*
D03*
X426972Y1145540D02*
D03*
X401572D02*
D03*
X452371D02*
D03*
D17*
X402841Y667258D02*
D03*
X658878D02*
D03*
X530860D02*
D03*
X529590Y993140D02*
D03*
X657608D02*
D03*
X401572D02*
D03*
D18*
X948690Y704850D02*
D03*
X173990Y871220D02*
D03*
X180340Y549910D02*
D03*
X958850Y333502D02*
D03*
D19*
X948690Y781050D02*
D03*
X173990Y795020D02*
D03*
X180340Y473710D02*
D03*
X958850Y409702D02*
D03*
D20*
X928370Y1087120D02*
D03*
D21*
X852170D02*
D03*
D22*
X574040Y234950D02*
D03*
X548640D02*
D03*
X523240D02*
D03*
X497840D02*
D03*
X472440D02*
D03*
D23*
X447040D02*
D03*
D24*
X218440Y1096010D02*
D03*
X302332Y1097280D02*
D03*
X218440Y962660D02*
D03*
X302332D02*
D03*
D25*
X193040Y1096010D02*
D03*
X276933Y1097280D02*
D03*
X193040Y962660D02*
D03*
X276933D02*
D03*
M02*
