%FSLAX24Y24*%
%MOIN*%
%IPPOS*%
G75*
%ADD10C,0.03150*%
%ADD11C,0.03940*%
%ADD12C,0.04000*%
%ADD13C,0.04720*%
%ADD14C,0.05120*%
%ADD15C,0.07280*%
%ADD16C,0.11810*%
G54D10*
X51540Y18780D03*
X52220Y18380D03*
X54140Y19400D03*
X41800Y10810D03*
X49630Y16190D03*
X44310Y18630D03*
X38030Y15430D03*
X38350Y18540D03*
X33790Y19290D03*
X19750Y14980D03*
Y18700D03*
X18350Y29580D03*
X29130Y26970D03*
X29060Y25360D03*
X22580Y26170D03*
X32810Y25310D03*
X31930Y26410D03*
X49150Y25360D03*
X47990Y24720D03*
X47250Y24820D03*
X44750Y25600D03*
X43220Y24050D03*
X41590Y24140D03*
X44640Y21820D03*
X45030Y20190D03*
X54340Y22800D03*
X53790Y23600D03*
X53220Y24830D03*
X55340Y25520D03*
X56390Y27400D03*
Y28400D03*
X55740Y21920D03*
X55420Y30920D03*
X53240Y36270D03*
X55420Y36920D03*
X56390Y38950D03*
Y39950D03*
Y34200D03*
Y33200D03*
X51450Y38500D03*
X42390Y38060D03*
X44190Y38280D03*
X40640Y35520D03*
X41640D03*
X42640D03*
X43640D03*
X44640D03*
X45640D03*
X44530Y34070D03*
X49370Y31640D03*
X30760Y38370D03*
X31720Y39480D03*
X31800Y37720D03*
X33760Y34990D03*
X35740Y35650D03*
X36650Y37220D03*
X36810Y38110D03*
X28670Y30650D03*
X22610Y35140D03*
X28150Y33800D03*
X29840Y37350D03*
X18190Y38990D03*
X18270Y49230D03*
X28140Y41840D03*
X28860Y43010D03*
X22330Y45320D03*
X30690Y45920D03*
X37100Y44900D03*
X36180Y45400D03*
X36570Y43800D03*
X34750Y42900D03*
X31710Y43260D03*
X31980Y45420D03*
X39010Y48290D03*
X31820Y46900D03*
X43670Y40190D03*
X43640Y41520D03*
X42640D03*
X41640D03*
X40640D03*
Y43210D03*
X41640D03*
X42640D03*
X43640D03*
X44640D03*
X45640D03*
Y41520D03*
X44640D03*
X46700Y44100D03*
X44160Y46110D03*
X42070Y45690D03*
X45640Y49210D03*
X44640D03*
X43640D03*
X42640D03*
X41640D03*
X40640D03*
X56390Y44800D03*
Y45800D03*
X44050Y50850D03*
G54D11*
X13340Y21930D03*
X21220D03*
X21790Y30950D03*
X13910D03*
X13820Y40620D03*
X21690D03*
G54D12*
X50640Y14850D03*
X51640D03*
X52640D03*
X53640D03*
X48640D03*
X49640D03*
G54D13*
X15770Y13570D03*
X17350D03*
X18920D03*
G54D14*
X14200D03*
X7510Y15040D03*
Y17010D03*
G54D15*
X9080Y26650D03*
Y29900D03*
Y33150D03*
Y36410D03*
Y39660D03*
Y42910D03*
Y46160D03*
Y49410D03*
G54D16*
X3180Y8930D03*
X57900D03*
Y51060D03*
X3180D03*
M02*
