%FSLAX24Y24*%
%MOIN*%
%SFA1B1*%

%IPPOS*%
%AMD70*
4,1,8,-0.020800,-0.032900,0.020800,-0.032900,0.031700,-0.022000,0.031700,0.022000,0.020800,0.032900,-0.020800,0.032900,-0.031700,0.022000,-0.031700,-0.022000,-0.020800,-0.032900,0.0*
1,1,0.021800,-0.020800,-0.022000*
1,1,0.021800,0.020800,-0.022000*
1,1,0.021800,0.020800,0.022000*
1,1,0.021800,-0.020800,0.022000*
%
%AMD73*
4,1,8,-0.043300,0.014800,-0.043300,-0.014800,-0.034400,-0.023700,0.034400,-0.023700,0.043300,-0.014800,0.043300,0.014800,0.034400,0.023700,-0.034400,0.023700,-0.043300,0.014800,0.0*
1,1,0.017800,-0.034400,0.014800*
1,1,0.017800,-0.034400,-0.014800*
1,1,0.017800,0.034400,-0.014800*
1,1,0.017800,0.034400,0.014800*
%
%AMD74*
4,1,8,-0.116200,0.081100,-0.116200,-0.081100,-0.085100,-0.112200,0.085100,-0.112200,0.116200,-0.081100,0.116200,0.081100,0.085100,0.112200,-0.085100,0.112200,-0.116200,0.081100,0.0*
1,1,0.062200,-0.085100,0.081100*
1,1,0.062200,-0.085100,-0.081100*
1,1,0.062200,0.085100,-0.081100*
1,1,0.062200,0.085100,0.081100*
%
%AMD80*
4,1,8,0.100800,0.033500,-0.100800,0.033500,-0.112200,0.022100,-0.112200,-0.022100,-0.100800,-0.033500,0.100800,-0.033500,0.112200,-0.022100,0.112200,0.022100,0.100800,0.033500,0.0*
1,1,0.022800,0.100800,0.022100*
1,1,0.022800,-0.100800,0.022100*
1,1,0.022800,-0.100800,-0.022100*
1,1,0.022800,0.100800,-0.022100*
%
%ADD10C,0.071000*%
%ADD11R,0.117300X0.117300*%
%ADD12C,0.117300*%
%ADD13R,0.071000X0.106400*%
%ADD14O,0.071000X0.106400*%
%ADD15C,0.106400*%
%ADD16C,0.084800*%
%ADD17R,0.084800X0.084800*%
%ADD18O,0.078000X0.108000*%
%ADD19R,0.078000X0.108000*%
%ADD20R,0.071000X0.071000*%
%ADD21C,0.039500*%
%ADD22C,0.204900*%
%ADD23C,0.063100*%
%ADD63R,0.063100X0.055200*%
%ADD64R,0.086700X0.059200*%
%ADD65R,0.258000X0.258000*%
%ADD66R,0.041500X0.055200*%
%ADD67R,0.055200X0.041500*%
%ADD68R,0.082800X0.055200*%
%ADD69R,0.067800X0.078100*%
G04~CAMADD=70~8~0.0~0.0~635.0~659.0~109.0~0.0~15~0.0~0.0~0.0~0.0~0~0.0~0.0~0.0~0.0~0~0.0~0.0~0.0~180.0~634.0~658.0*
%ADD70D70*%
%ADD71R,0.055200X0.063100*%
%ADD72R,0.086700X0.082800*%
G04~CAMADD=73~8~0.0~0.0~474.0~867.0~89.0~0.0~15~0.0~0.0~0.0~0.0~0~0.0~0.0~0.0~0.0~0~0.0~0.0~0.0~90.0~866.0~473.0*
%ADD73D73*%
G04~CAMADD=74~8~0.0~0.0~2245.0~2324.0~311.0~0.0~15~0.0~0.0~0.0~0.0~0~0.0~0.0~0.0~0.0~0~0.0~0.0~0.0~90.0~2324.0~2244.0*
%ADD74D74*%
%ADD75O,0.086700X0.029700*%
%ADD76R,0.169400X0.086700*%
%ADD77R,0.082800X0.086700*%
%ADD78R,0.088000X0.027000*%
%ADD79R,0.027000X0.088000*%
G04~CAMADD=80~8~0.0~0.0~2245.0~671.0~114.0~0.0~15~0.0~0.0~0.0~0.0~0~0.0~0.0~0.0~0.0~0~0.0~0.0~0.0~0.0~2245.0~671.0*
%ADD80D80*%
%LNpcb_washver2-1*%
%LPD*%
G54D10*
X21221Y21939D03*
X13347D03*
X21792Y30959D03*
X13918D03*
X21694Y40624D03*
X13820D03*
X56394Y27400D03*
Y33200D03*
Y38950D03*
Y44800D03*
G54D11*
X9087Y26656D03*
Y49419D03*
G54D12*
X9087Y29907D03*
Y33159D03*
Y36411D03*
Y39663D03*
Y42915D03*
Y46167D03*
G54D13*
X40646Y43210D03*
Y35529D03*
G54D14*
X41646Y43210D03*
X42646D03*
X43646D03*
X44646D03*
X45646D03*
X40646Y49210D03*
X41646D03*
X42646D03*
X43646D03*
X44646D03*
X45646D03*
X41646Y35529D03*
X42646D03*
X43646D03*
X44646D03*
X45646D03*
X40646Y41529D03*
X41646D03*
X42646D03*
X43646D03*
X44646D03*
X45646D03*
G54D15*
X14202Y13571D03*
X15776D03*
X17351D03*
X18926D03*
G54D16*
X7513Y15041D03*
G54D17*
X7513Y17010D03*
G54D18*
X53644Y14850D03*
X52644D03*
X51644D03*
X50644D03*
X49644D03*
G54D19*
X48644Y14850D03*
G54D20*
X56394Y28400D03*
Y34200D03*
Y39950D03*
Y45800D03*
G54D21*
X43229Y24053D03*
X30695Y45925D03*
X31981Y45427D03*
X53229Y24837D03*
X18351Y29581D03*
X29064Y25360D03*
X51459Y38508D03*
X28678Y30654D03*
X28156Y33809D03*
X28148Y41846D03*
X28869Y43012D03*
X38030Y15431D03*
X41800Y10815D03*
X29131Y26976D03*
X19757Y18701D03*
Y14982D03*
X35745Y35656D03*
X33790Y19297D03*
X22580Y26177D03*
X22615Y35146D03*
X18196Y38996D03*
X38352Y18543D03*
X55744Y21929D03*
X44199Y38287D03*
X36817Y38110D03*
X44750Y25600D03*
X44647Y21826D03*
X31935Y26417D03*
X29848Y37352D03*
X45035Y20197D03*
X44317Y18632D03*
X51541Y18789D03*
X41591Y24144D03*
X52220Y18386D03*
X49632Y16191D03*
X54140Y19400D03*
X32811Y25315D03*
X47250Y24823D03*
X31827Y46902D03*
X31728Y39488D03*
X30764Y38376D03*
X31807Y37721D03*
X49150Y25364D03*
X47998Y24724D03*
X33766Y34990D03*
X34757Y42901D03*
X53244Y36270D03*
X49376Y31644D03*
X44533Y34075D03*
X31718Y43268D03*
X42398Y38061D03*
X43677Y40197D03*
X36656Y37221D03*
X46709Y44104D03*
X44051Y50856D03*
X36571Y43809D03*
X39012Y48297D03*
X44169Y46112D03*
X36185Y45402D03*
X42073Y45699D03*
X37102Y44902D03*
X55420Y36926D03*
X53794Y23600D03*
X55420Y30926D03*
X54344Y22800D03*
X55344Y25526D03*
G54D22*
X57906Y51065D03*
Y8939D03*
X3182D03*
Y51065D03*
G54D23*
X22332Y45325D03*
X18278Y49238D03*
G54D63*
X16281Y37065D03*
Y37813D03*
X22773Y43484D03*
Y42736D03*
X22379Y33209D03*
Y33957D03*
X21395Y24154D03*
Y24902D03*
X22775Y27835D03*
Y27087D03*
X16003Y27965D03*
Y27217D03*
X22779Y37187D03*
Y36439D03*
X16294Y47876D03*
Y47128D03*
X22934Y47173D03*
Y46425D03*
X29286Y18947D03*
Y19695D03*
X33821Y27226D03*
Y26478D03*
X45096Y23532D03*
Y22784D03*
X45543Y21078D03*
Y21826D03*
X45621Y48126D03*
Y47378D03*
X42621Y48126D03*
Y47378D03*
X41621Y48126D03*
Y47378D03*
X42618Y44324D03*
Y45072D03*
X41668Y44324D03*
Y45072D03*
X43668Y44324D03*
Y45072D03*
X44618Y44324D03*
Y45072D03*
X40668Y44324D03*
Y45072D03*
X45621Y40426D03*
Y39678D03*
X42621Y40426D03*
Y39678D03*
X41621Y40426D03*
Y39678D03*
X43618Y36524D03*
Y37272D03*
X44618Y36524D03*
Y37272D03*
X42618Y36524D03*
Y37272D03*
X41668Y36524D03*
Y37272D03*
X40618Y36524D03*
Y37272D03*
X53056Y21232D03*
Y20484D03*
X56421Y24778D03*
Y25526D03*
X56371Y42228D03*
Y42976D03*
Y36178D03*
Y36926D03*
X56421Y30178D03*
Y30926D03*
G54D64*
X17825Y35831D03*
Y37681D03*
Y26603D03*
Y28453D03*
Y47866D03*
Y46016D03*
G54D65*
X20575Y36731D03*
Y27503D03*
Y46916D03*
G54D66*
X40397Y13265D03*
X39653Y13267D03*
X40023Y14249D03*
X40769Y28558D03*
X40024Y28560D03*
X40394Y29542D03*
X37369Y33057D03*
X36624Y33059D03*
X36994Y34041D03*
X47819Y33057D03*
X47074Y33059D03*
X47444Y34041D03*
X42669Y33057D03*
X41924Y33059D03*
X42294Y34041D03*
G54D67*
X35439Y27980D03*
X35441Y28724D03*
X36423Y28354D03*
G54D68*
X22076Y16937D03*
Y14929D03*
X25324Y16937D03*
Y14929D03*
G54D69*
X27355Y26486D03*
Y28486D03*
Y27486D03*
X24107Y26486D03*
Y28486D03*
Y27486D03*
X27355Y45916D03*
Y47916D03*
Y46916D03*
X24107Y45916D03*
Y47916D03*
Y46916D03*
X27355Y35731D03*
Y37731D03*
Y36731D03*
X24107Y35731D03*
Y37731D03*
Y36731D03*
G54D70*
X27790Y21925D03*
Y20925D03*
X23971D03*
Y21925D03*
G54D71*
X39269Y24776D03*
X40017D03*
X49570Y33074D03*
X48822D03*
X44890Y24637D03*
X45638D03*
X34022Y13451D03*
X34770D03*
X45167Y28776D03*
X44419D03*
X44483Y10852D03*
X43734D03*
X35120Y23401D03*
X34372D03*
X32172Y23374D03*
X32920D03*
X38522Y33074D03*
X39270D03*
X43772D03*
X44520D03*
X39372Y16074D03*
X40120D03*
X43317Y28776D03*
X42569D03*
G54D72*
X36954Y26090D03*
X35234D03*
X40984Y27340D03*
X42704D03*
G54D73*
X32438Y20250D03*
Y22050D03*
G54D74*
X35351Y21150D03*
G54D75*
X32582Y36721D03*
Y37221D03*
Y37721D03*
Y38221D03*
Y38721D03*
Y39221D03*
Y39721D03*
Y40221D03*
X34707Y36721D03*
Y37221D03*
Y37721D03*
Y38221D03*
Y38721D03*
Y39221D03*
Y39721D03*
Y40221D03*
X32631Y44402D03*
Y44902D03*
Y45402D03*
Y45902D03*
Y46402D03*
Y46902D03*
Y47402D03*
Y47902D03*
X34757Y44402D03*
Y44902D03*
Y45402D03*
Y45902D03*
Y46402D03*
Y46902D03*
Y47402D03*
Y47902D03*
G54D76*
X36107Y16400D03*
X32682D03*
X38382Y21350D03*
X41807D03*
G54D77*
X42454Y15260D03*
Y13540D03*
G54D78*
X51204Y23070D03*
Y22760D03*
Y22440D03*
Y22130D03*
Y21810D03*
Y21500D03*
Y21190D03*
Y20870D03*
Y20560D03*
Y20240D03*
Y19930D03*
X46684D03*
Y20240D03*
Y20560D03*
Y20870D03*
Y21190D03*
Y21500D03*
Y21810D03*
Y22130D03*
Y22440D03*
Y22760D03*
Y23070D03*
G54D79*
X50514Y19240D03*
X50204D03*
X49884D03*
X49574D03*
X49254D03*
X48944D03*
X48634D03*
X48314D03*
X48004D03*
X47684D03*
X47374D03*
Y23760D03*
X47684D03*
X48004D03*
X48314D03*
X48634D03*
X48944D03*
X49254D03*
X49574D03*
X49884D03*
X50204D03*
X50514D03*
G54D80*
X49061Y26398D03*
X45715D03*
M02*