%FSLAX24Y24*%
%MOIN*%
%SFA1B1*%

%IPPOS*%
%ADD81C,0.002000*%
%ADD82C,0.002700*%
%LNpcb_washver2-1*%
%LPD*%
G54D81*
X21141Y21859D02*
Y22019D01*
X21301*
Y21859*
X21141*
X13267D02*
Y22019D01*
X13427*
Y21859*
X13267*
X21712Y30879D02*
Y31039D01*
X21872*
Y30879*
X21712*
X13838D02*
Y31039D01*
X13998*
Y30879*
X13838*
X21614Y40544D02*
Y40704D01*
X21774*
Y40544*
X21614*
X13740D02*
Y40704D01*
X13900*
Y40544*
X13740*
X40646Y43130D02*
X40566Y43290D01*
X40726*
X40646Y43130*
X41646D02*
X41566Y43290D01*
X41726*
X41646Y43130*
X42646D02*
X42566Y43290D01*
X42726*
X42646Y43130*
X43646D02*
X43566Y43290D01*
X43726*
X43646Y43130*
X44646D02*
X44566Y43290D01*
X44726*
X44646Y43130*
X45646D02*
X45566Y43290D01*
X45726*
X45646Y43130*
X40646Y49130D02*
X40566Y49290D01*
X40726*
X40646Y49130*
X41646D02*
X41566Y49290D01*
X41726*
X41646Y49130*
X42646D02*
X42566Y49290D01*
X42726*
X42646Y49130*
X43646D02*
X43566Y49290D01*
X43726*
X43646Y49130*
X44646D02*
X44566Y49290D01*
X44726*
X44646Y49130*
X45646D02*
X45566Y49290D01*
X45726*
X45646Y49130*
X40646Y35449D02*
X40566Y35609D01*
X40726*
X40646Y35449*
X41646D02*
X41566Y35609D01*
X41726*
X41646Y35449*
X42646D02*
X42566Y35609D01*
X42726*
X42646Y35449*
X43646D02*
X43566Y35609D01*
X43726*
X43646Y35449*
X44646D02*
X44566Y35609D01*
X44726*
X44646Y35449*
X45646D02*
X45566Y35609D01*
X45726*
X45646Y35449*
X40646Y41449D02*
X40566Y41609D01*
X40726*
X40646Y41449*
X41646D02*
X41566Y41609D01*
X41726*
X41646Y41449*
X42646D02*
X42566Y41609D01*
X42726*
X42646Y41449*
X43646D02*
X43566Y41609D01*
X43726*
X43646Y41449*
X44646D02*
X44566Y41609D01*
X44726*
X44646Y41449*
X45646D02*
X45566Y41609D01*
X45726*
X45646Y41449*
X14202Y13491D02*
X14242Y13531D01*
X14282*
X14242Y13571*
X14282Y13611*
X14242*
X14202Y13651*
X14162Y13611*
X14122*
X14162Y13571*
X14122Y13531*
X14162*
X14202Y13491*
X15696D02*
X15736Y13571D01*
X15696Y13651*
X15776Y13611*
X15856Y13651*
X15816Y13571*
X15856Y13491*
X15776Y13531*
X15696Y13491*
X17271D02*
X17311Y13571D01*
X17271Y13651*
X17351Y13611*
X17431Y13651*
X17391Y13571*
X17431Y13491*
X17351Y13531*
X17271Y13491*
X18846D02*
X18886Y13571D01*
X18846Y13651*
X18926Y13611*
X19006Y13651*
X18966Y13571*
X19006Y13491*
X18926Y13531*
X18846Y13491*
X7513Y14961D02*
X7553Y15001D01*
X7593*
X7553Y15041*
X7593Y15081*
X7553*
X7513Y15121*
X7473Y15081*
X7433*
X7473Y15041*
X7433Y15001*
X7473*
X7513Y14961*
Y16930D02*
X7553Y16970D01*
X7593*
X7553Y17010*
X7593Y17050*
X7553*
X7513Y17090*
X7473Y17050*
X7433*
X7473Y17010*
X7433Y16970*
X7473*
X7513Y16930*
X53604Y14810D02*
Y14770D01*
X53684*
Y14810*
X53724*
Y14890*
X53684*
Y14930*
X53604*
Y14890*
X53564*
Y14810*
X53604*
X52604D02*
Y14770D01*
X52684*
Y14810*
X52724*
Y14890*
X52684*
Y14930*
X52604*
Y14890*
X52564*
Y14810*
X52604*
X51604D02*
Y14770D01*
X51684*
Y14810*
X51724*
Y14890*
X51684*
Y14930*
X51604*
Y14890*
X51564*
Y14810*
X51604*
X50604D02*
Y14770D01*
X50684*
Y14810*
X50724*
Y14890*
X50684*
Y14930*
X50604*
Y14890*
X50564*
Y14810*
X50604*
X49604D02*
Y14770D01*
X49684*
Y14810*
X49724*
Y14890*
X49684*
Y14930*
X49604*
Y14890*
X49564*
Y14810*
X49604*
X48604D02*
Y14770D01*
X48684*
Y14810*
X48724*
Y14890*
X48684*
Y14930*
X48604*
Y14890*
X48564*
Y14810*
X48604*
X56394Y28320D02*
X56314Y28480D01*
X56474*
X56394Y28320*
Y27320D02*
X56314Y27480D01*
X56474*
X56394Y27320*
Y34120D02*
X56314Y34280D01*
X56474*
X56394Y34120*
Y33120D02*
X56314Y33280D01*
X56474*
X56394Y33120*
Y39870D02*
X56314Y40030D01*
X56474*
X56394Y39870*
Y38870D02*
X56314Y39030D01*
X56474*
X56394Y38870*
Y45720D02*
X56314Y45880D01*
X56474*
X56394Y45720*
Y44720D02*
X56314Y44880D01*
X56474*
X56394Y44720*
X43229Y23973D02*
X43149Y24133D01*
X43309*
X43229Y23973*
X30695Y45845D02*
X30615Y46005D01*
X30775*
X30695Y45845*
X31981Y45347D02*
X31901Y45507D01*
X32061*
X31981Y45347*
X53229Y24757D02*
X53149Y24917D01*
X53309*
X53229Y24757*
X57826Y50985D02*
X57866D01*
X57906Y51025*
X57946Y50985*
X57986*
Y51025*
X57946Y51065*
X57986Y51105*
Y51145*
X57946*
X57906Y51105*
X57866Y51145*
X57826*
Y51105*
X57866Y51065*
X57826Y51025*
Y50985*
Y8859D02*
X57866D01*
X57906Y8899*
X57946Y8859*
X57986*
Y8899*
X57946Y8939*
X57986Y8979*
Y9019*
X57946*
X57906Y8979*
X57866Y9019*
X57826*
Y8979*
X57866Y8939*
X57826Y8899*
Y8859*
X3102D02*
X3142D01*
X3182Y8899*
X3222Y8859*
X3262*
Y8899*
X3222Y8939*
X3262Y8979*
Y9019*
X3222*
X3182Y8979*
X3142Y9019*
X3102*
Y8979*
X3142Y8939*
X3102Y8899*
Y8859*
Y50985D02*
X3142D01*
X3182Y51025*
X3222Y50985*
X3262*
Y51025*
X3222Y51065*
X3262Y51105*
Y51145*
X3222*
X3182Y51105*
X3142Y51145*
X3102*
Y51105*
X3142Y51065*
X3102Y51025*
Y50985*
X18351Y29501D02*
X18271Y29661D01*
X18431*
X18351Y29501*
X29064Y25280D02*
X28984Y25440D01*
X29144*
X29064Y25280*
X22332Y45245D02*
X22252Y45405D01*
X22411*
X22332Y45245*
X18278Y49158D02*
X18198Y49318D01*
X18358*
X18278Y49158*
X51459Y38428D02*
X51379Y38588D01*
X51539*
X51459Y38428*
X28678Y30574D02*
X28598Y30734D01*
X28758*
X28678Y30574*
X28156Y33729D02*
X28076Y33889D01*
X28236*
X28156Y33729*
X28148Y41766D02*
X28068Y41926D01*
X28228*
X28148Y41766*
X28869Y42932D02*
X28789Y43092D01*
X28949*
X28869Y42932*
X38030Y15351D02*
X37950Y15511D01*
X38110*
X38030Y15351*
X41800Y10735D02*
X41720Y10895D01*
X41880*
X41800Y10735*
X29131Y26896D02*
X29051Y27056D01*
X29211*
X29131Y26896*
X19757Y18621D02*
X19677Y18781D01*
X19837*
X19757Y18621*
Y14902D02*
X19677Y15062D01*
X19837*
X19757Y14902*
X35745Y35576D02*
X35665Y35736D01*
X35825*
X35745Y35576*
X33790Y19217D02*
X33710Y19377D01*
X33870*
X33790Y19217*
X22580Y26097D02*
X22500Y26257D01*
X22660*
X22580Y26097*
X22615Y35066D02*
X22535Y35226D01*
X22695*
X22615Y35066*
X18196Y38916D02*
X18116Y39076D01*
X18276*
X18196Y38916*
X38352Y18463D02*
X38272Y18623D01*
X38432*
X38352Y18463*
X55744Y21849D02*
X55664Y22009D01*
X55824*
X55744Y21849*
X44199Y38207D02*
X44119Y38367D01*
X44279*
X44199Y38207*
X36817Y38030D02*
X36737Y38190D01*
X36897*
X36817Y38030*
X44750Y25520D02*
X44670Y25680D01*
X44830*
X44750Y25520*
X44647Y21746D02*
X44567Y21906D01*
X44727*
X44647Y21746*
X31935Y26337D02*
X31855Y26497D01*
X32015*
X31935Y26337*
X29848Y37272D02*
X29768Y37432D01*
X29928*
X29848Y37272*
X45035Y20117D02*
X44955Y20277D01*
X45115*
X45035Y20117*
X44317Y18552D02*
X44237Y18712D01*
X44397*
X44317Y18552*
X51541Y18709D02*
X51461Y18869D01*
X51621*
X51541Y18709*
X41591Y24064D02*
X41511Y24224D01*
X41671*
X41591Y24064*
X52220Y18306D02*
X52140Y18466D01*
X52300*
X52220Y18306*
X49632Y16111D02*
X49552Y16271D01*
X49712*
X49632Y16111*
X54140Y19320D02*
X54060Y19480D01*
X54220*
X54140Y19320*
X32811Y25235D02*
X32731Y25395D01*
X32891*
X32811Y25235*
X47250Y24743D02*
X47170Y24903D01*
X47330*
X47250Y24743*
X31827Y46822D02*
X31747Y46982D01*
X31907*
X31827Y46822*
X31728Y39408D02*
X31648Y39568D01*
X31808*
X31728Y39408*
X30764Y38296D02*
X30684Y38456D01*
X30844*
X30764Y38296*
X31807Y37641D02*
X31727Y37801D01*
X31887*
X31807Y37641*
X49150Y25284D02*
X49070Y25444D01*
X49230*
X49150Y25284*
X47998Y24644D02*
X47918Y24804D01*
X48078*
X47998Y24644*
X33766Y34910D02*
X33686Y35070D01*
X33846*
X33766Y34910*
X34757Y42821D02*
X34677Y42981D01*
X34837*
X34757Y42821*
X53244Y36190D02*
X53164Y36350D01*
X53324*
X53244Y36190*
X49376Y31564D02*
X49296Y31724D01*
X49456*
X49376Y31564*
X44533Y33995D02*
X44453Y34155D01*
X44613*
X44533Y33995*
X31718Y43188D02*
X31639Y43348D01*
X31799*
X31718Y43188*
X42398Y37981D02*
X42318Y38141D01*
X42478*
X42398Y37981*
X43677Y40117D02*
X43597Y40277D01*
X43757*
X43677Y40117*
X36656Y37141D02*
X36576Y37301D01*
X36736*
X36656Y37141*
X46709Y44024D02*
X46629Y44184D01*
X46789*
X46709Y44024*
X44051Y50776D02*
X43971Y50936D01*
X44131*
X44051Y50776*
X36571Y43729D02*
X36491Y43889D01*
X36651*
X36571Y43729*
X39012Y48217D02*
X38932Y48377D01*
X39092*
X39012Y48217*
X44169Y46032D02*
X44089Y46192D01*
X44249*
X44169Y46032*
X36185Y45322D02*
X36105Y45482D01*
X36265*
X36185Y45322*
X42073Y45619D02*
X41993Y45779D01*
X42153*
X42073Y45619*
X37102Y44822D02*
X37022Y44982D01*
X37182*
X37102Y44822*
X55420Y36846D02*
X55340Y37006D01*
X55500*
X55420Y36846*
X53794Y23520D02*
X53714Y23680D01*
X53874*
X53794Y23520*
X55420Y30846D02*
X55340Y31006D01*
X55500*
X55420Y30846*
X54344Y22720D02*
X54264Y22880D01*
X54424*
X54344Y22720*
X55344Y25446D02*
X55264Y25606D01*
X55424*
X55344Y25446*
G54D82*
X9167Y26656D02*
D01*
X9166Y26661*
X9166Y26667*
X9165Y26672*
X9163Y26678*
X9162Y26683*
X9160Y26688*
X9157Y26693*
X9154Y26698*
X9151Y26703*
X9148Y26707*
X9144Y26711*
X9140Y26715*
X9136Y26719*
X9131Y26722*
X9127Y26725*
X9122Y26727*
X9116Y26730*
X9111Y26732*
X9106Y26733*
X9100Y26734*
X9095Y26735*
X9089Y26735*
X9084*
X9078Y26735*
X9073Y26734*
X9067Y26733*
X9062Y26732*
X9057Y26730*
X9051Y26727*
X9047Y26725*
X9042Y26722*
X9037Y26719*
X9033Y26715*
X9029Y26711*
X9025Y26707*
X9022Y26703*
X9019Y26698*
X9016Y26693*
X9013Y26688*
X9011Y26683*
X9010Y26678*
X9008Y26672*
X9007Y26667*
X9007Y26661*
X9007Y26656*
X9007Y26650*
X9007Y26644*
X9008Y26639*
X9010Y26633*
X9011Y26628*
X9013Y26623*
X9016Y26618*
X9019Y26613*
X9022Y26608*
X9025Y26604*
X9029Y26600*
X9033Y26596*
X9037Y26592*
X9042Y26589*
X9047Y26586*
X9051Y26584*
X9057Y26581*
X9062Y26579*
X9067Y26578*
X9073Y26577*
X9078Y26576*
X9084Y26576*
X9089*
X9095Y26576*
X9100Y26577*
X9106Y26578*
X9111Y26579*
X9116Y26581*
X9122Y26584*
X9127Y26586*
X9131Y26589*
X9136Y26592*
X9140Y26596*
X9144Y26600*
X9148Y26604*
X9151Y26608*
X9154Y26613*
X9157Y26618*
X9160Y26623*
X9162Y26628*
X9163Y26633*
X9165Y26639*
X9166Y26644*
X9166Y26650*
X9167Y26656*
Y29907D02*
D01*
X9166Y29912*
X9166Y29918*
X9165Y29923*
X9163Y29929*
X9162Y29934*
X9160Y29939*
X9157Y29944*
X9154Y29949*
X9151Y29954*
X9148Y29958*
X9144Y29962*
X9140Y29966*
X9136Y29970*
X9131Y29973*
X9127Y29976*
X9122Y29978*
X9116Y29981*
X9111Y29983*
X9106Y29984*
X9100Y29985*
X9095Y29986*
X9089Y29986*
X9084*
X9078Y29986*
X9073Y29985*
X9067Y29984*
X9062Y29983*
X9057Y29981*
X9051Y29978*
X9047Y29976*
X9042Y29973*
X9037Y29970*
X9033Y29966*
X9029Y29962*
X9025Y29958*
X9022Y29954*
X9019Y29949*
X9016Y29944*
X9013Y29939*
X9011Y29934*
X9010Y29929*
X9008Y29923*
X9007Y29918*
X9007Y29912*
X9007Y29907*
X9007Y29901*
X9007Y29895*
X9008Y29890*
X9010Y29884*
X9011Y29879*
X9013Y29874*
X9016Y29869*
X9019Y29864*
X9022Y29859*
X9025Y29855*
X9029Y29851*
X9033Y29847*
X9037Y29843*
X9042Y29840*
X9047Y29837*
X9051Y29835*
X9057Y29832*
X9062Y29830*
X9067Y29829*
X9073Y29828*
X9078Y29827*
X9084Y29827*
X9089*
X9095Y29827*
X9100Y29828*
X9106Y29829*
X9111Y29830*
X9116Y29832*
X9122Y29835*
X9127Y29837*
X9131Y29840*
X9136Y29843*
X9140Y29847*
X9144Y29851*
X9148Y29855*
X9151Y29859*
X9154Y29864*
X9157Y29869*
X9160Y29874*
X9162Y29879*
X9163Y29884*
X9165Y29890*
X9166Y29895*
X9166Y29901*
X9167Y29907*
Y33159D02*
D01*
X9166Y33164*
X9166Y33170*
X9165Y33175*
X9163Y33181*
X9162Y33186*
X9160Y33191*
X9157Y33196*
X9154Y33201*
X9151Y33206*
X9148Y33210*
X9144Y33214*
X9140Y33218*
X9136Y33222*
X9131Y33225*
X9127Y33228*
X9122Y33230*
X9116Y33233*
X9111Y33235*
X9106Y33236*
X9100Y33237*
X9095Y33238*
X9089Y33238*
X9084*
X9078Y33238*
X9073Y33237*
X9067Y33236*
X9062Y33235*
X9057Y33233*
X9051Y33230*
X9047Y33228*
X9042Y33225*
X9037Y33222*
X9033Y33218*
X9029Y33214*
X9025Y33210*
X9022Y33206*
X9019Y33201*
X9016Y33196*
X9013Y33191*
X9011Y33186*
X9010Y33181*
X9008Y33175*
X9007Y33170*
X9007Y33164*
X9007Y33159*
X9007Y33153*
X9007Y33147*
X9008Y33142*
X9010Y33136*
X9011Y33131*
X9013Y33126*
X9016Y33121*
X9019Y33116*
X9022Y33111*
X9025Y33107*
X9029Y33103*
X9033Y33099*
X9037Y33095*
X9042Y33092*
X9047Y33089*
X9051Y33087*
X9057Y33084*
X9062Y33082*
X9067Y33081*
X9073Y33080*
X9078Y33079*
X9084Y33079*
X9089*
X9095Y33079*
X9100Y33080*
X9106Y33081*
X9111Y33082*
X9116Y33084*
X9122Y33087*
X9127Y33089*
X9131Y33092*
X9136Y33095*
X9140Y33099*
X9144Y33103*
X9148Y33107*
X9151Y33111*
X9154Y33116*
X9157Y33121*
X9160Y33126*
X9162Y33131*
X9163Y33136*
X9165Y33142*
X9166Y33147*
X9166Y33153*
X9167Y33159*
Y36411D02*
D01*
X9166Y36416*
X9166Y36422*
X9165Y36427*
X9163Y36433*
X9162Y36438*
X9160Y36443*
X9157Y36448*
X9154Y36453*
X9151Y36458*
X9148Y36462*
X9144Y36466*
X9140Y36470*
X9136Y36474*
X9131Y36477*
X9127Y36480*
X9122Y36482*
X9116Y36485*
X9111Y36487*
X9106Y36488*
X9100Y36489*
X9095Y36490*
X9089Y36490*
X9084*
X9078Y36490*
X9073Y36489*
X9067Y36488*
X9062Y36487*
X9057Y36485*
X9051Y36482*
X9047Y36480*
X9042Y36477*
X9037Y36474*
X9033Y36470*
X9029Y36466*
X9025Y36462*
X9022Y36458*
X9019Y36453*
X9016Y36448*
X9013Y36443*
X9011Y36438*
X9010Y36433*
X9008Y36427*
X9007Y36422*
X9007Y36416*
X9007Y36411*
X9007Y36405*
X9007Y36399*
X9008Y36394*
X9010Y36388*
X9011Y36383*
X9013Y36378*
X9016Y36373*
X9019Y36368*
X9022Y36363*
X9025Y36359*
X9029Y36355*
X9033Y36351*
X9037Y36347*
X9042Y36344*
X9047Y36341*
X9051Y36339*
X9057Y36336*
X9062Y36334*
X9067Y36333*
X9073Y36332*
X9078Y36331*
X9084Y36331*
X9089*
X9095Y36331*
X9100Y36332*
X9106Y36333*
X9111Y36334*
X9116Y36336*
X9122Y36339*
X9127Y36341*
X9131Y36344*
X9136Y36347*
X9140Y36351*
X9144Y36355*
X9148Y36359*
X9151Y36363*
X9154Y36368*
X9157Y36373*
X9160Y36378*
X9162Y36383*
X9163Y36388*
X9165Y36394*
X9166Y36399*
X9166Y36405*
X9167Y36411*
Y39663D02*
D01*
X9166Y39668*
X9166Y39674*
X9165Y39679*
X9163Y39685*
X9162Y39690*
X9160Y39695*
X9157Y39700*
X9154Y39705*
X9151Y39710*
X9148Y39714*
X9144Y39718*
X9140Y39722*
X9136Y39726*
X9131Y39729*
X9127Y39732*
X9122Y39734*
X9116Y39737*
X9111Y39739*
X9106Y39740*
X9100Y39741*
X9095Y39742*
X9089Y39742*
X9084*
X9078Y39742*
X9073Y39741*
X9067Y39740*
X9062Y39739*
X9057Y39737*
X9051Y39734*
X9047Y39732*
X9042Y39729*
X9037Y39726*
X9033Y39722*
X9029Y39718*
X9025Y39714*
X9022Y39710*
X9019Y39705*
X9016Y39700*
X9013Y39695*
X9011Y39690*
X9010Y39685*
X9008Y39679*
X9007Y39674*
X9007Y39668*
X9007Y39663*
X9007Y39657*
X9007Y39651*
X9008Y39646*
X9010Y39640*
X9011Y39635*
X9013Y39630*
X9016Y39625*
X9019Y39620*
X9022Y39615*
X9025Y39611*
X9029Y39607*
X9033Y39603*
X9037Y39599*
X9042Y39596*
X9047Y39593*
X9051Y39591*
X9057Y39588*
X9062Y39586*
X9067Y39585*
X9073Y39584*
X9078Y39583*
X9084Y39583*
X9089*
X9095Y39583*
X9100Y39584*
X9106Y39585*
X9111Y39586*
X9116Y39588*
X9122Y39591*
X9127Y39593*
X9131Y39596*
X9136Y39599*
X9140Y39603*
X9144Y39607*
X9148Y39611*
X9151Y39615*
X9154Y39620*
X9157Y39625*
X9160Y39630*
X9162Y39635*
X9163Y39640*
X9165Y39646*
X9166Y39651*
X9166Y39657*
X9167Y39663*
Y42915D02*
D01*
X9166Y42920*
X9166Y42926*
X9165Y42931*
X9163Y42937*
X9162Y42942*
X9160Y42947*
X9157Y42952*
X9154Y42957*
X9151Y42962*
X9148Y42966*
X9144Y42970*
X9140Y42974*
X9136Y42978*
X9131Y42981*
X9127Y42984*
X9122Y42986*
X9116Y42989*
X9111Y42991*
X9106Y42992*
X9100Y42993*
X9095Y42994*
X9089Y42994*
X9084*
X9078Y42994*
X9073Y42993*
X9067Y42992*
X9062Y42991*
X9057Y42989*
X9051Y42986*
X9047Y42984*
X9042Y42981*
X9037Y42978*
X9033Y42974*
X9029Y42970*
X9025Y42966*
X9022Y42962*
X9019Y42957*
X9016Y42952*
X9013Y42947*
X9011Y42942*
X9010Y42937*
X9008Y42931*
X9007Y42926*
X9007Y42920*
X9007Y42915*
X9007Y42909*
X9007Y42903*
X9008Y42898*
X9010Y42892*
X9011Y42887*
X9013Y42882*
X9016Y42877*
X9019Y42872*
X9022Y42867*
X9025Y42863*
X9029Y42859*
X9033Y42855*
X9037Y42851*
X9042Y42848*
X9047Y42845*
X9051Y42843*
X9057Y42840*
X9062Y42838*
X9067Y42837*
X9073Y42836*
X9078Y42835*
X9084Y42835*
X9089*
X9095Y42835*
X9100Y42836*
X9106Y42837*
X9111Y42838*
X9116Y42840*
X9122Y42843*
X9127Y42845*
X9131Y42848*
X9136Y42851*
X9140Y42855*
X9144Y42859*
X9148Y42863*
X9151Y42867*
X9154Y42872*
X9157Y42877*
X9160Y42882*
X9162Y42887*
X9163Y42892*
X9165Y42898*
X9166Y42903*
X9166Y42909*
X9167Y42915*
Y46167D02*
D01*
X9166Y46172*
X9166Y46178*
X9165Y46183*
X9163Y46189*
X9162Y46194*
X9160Y46199*
X9157Y46204*
X9154Y46209*
X9151Y46214*
X9148Y46218*
X9144Y46222*
X9140Y46226*
X9136Y46230*
X9131Y46233*
X9127Y46236*
X9122Y46238*
X9116Y46241*
X9111Y46243*
X9106Y46244*
X9100Y46245*
X9095Y46246*
X9089Y46246*
X9084*
X9078Y46246*
X9073Y46245*
X9067Y46244*
X9062Y46243*
X9057Y46241*
X9051Y46238*
X9047Y46236*
X9042Y46233*
X9037Y46230*
X9033Y46226*
X9029Y46222*
X9025Y46218*
X9022Y46214*
X9019Y46209*
X9016Y46204*
X9013Y46199*
X9011Y46194*
X9010Y46189*
X9008Y46183*
X9007Y46178*
X9007Y46172*
X9007Y46167*
X9007Y46161*
X9007Y46155*
X9008Y46150*
X9010Y46144*
X9011Y46139*
X9013Y46134*
X9016Y46129*
X9019Y46124*
X9022Y46119*
X9025Y46115*
X9029Y46111*
X9033Y46107*
X9037Y46103*
X9042Y46100*
X9047Y46097*
X9051Y46095*
X9057Y46092*
X9062Y46090*
X9067Y46089*
X9073Y46088*
X9078Y46087*
X9084Y46087*
X9089*
X9095Y46087*
X9100Y46088*
X9106Y46089*
X9111Y46090*
X9116Y46092*
X9122Y46095*
X9127Y46097*
X9131Y46100*
X9136Y46103*
X9140Y46107*
X9144Y46111*
X9148Y46115*
X9151Y46119*
X9154Y46124*
X9157Y46129*
X9160Y46134*
X9162Y46139*
X9163Y46144*
X9165Y46150*
X9166Y46155*
X9166Y46161*
X9167Y46167*
Y49419D02*
D01*
X9166Y49424*
X9166Y49430*
X9165Y49435*
X9163Y49441*
X9162Y49446*
X9160Y49451*
X9157Y49456*
X9154Y49461*
X9151Y49466*
X9148Y49470*
X9144Y49474*
X9140Y49478*
X9136Y49482*
X9131Y49485*
X9127Y49488*
X9122Y49490*
X9116Y49493*
X9111Y49495*
X9106Y49496*
X9100Y49497*
X9095Y49498*
X9089Y49498*
X9084*
X9078Y49498*
X9073Y49497*
X9067Y49496*
X9062Y49495*
X9057Y49493*
X9051Y49490*
X9047Y49488*
X9042Y49485*
X9037Y49482*
X9033Y49478*
X9029Y49474*
X9025Y49470*
X9022Y49466*
X9019Y49461*
X9016Y49456*
X9013Y49451*
X9011Y49446*
X9010Y49441*
X9008Y49435*
X9007Y49430*
X9007Y49424*
X9007Y49419*
X9007Y49413*
X9007Y49407*
X9008Y49402*
X9010Y49396*
X9011Y49391*
X9013Y49386*
X9016Y49381*
X9019Y49376*
X9022Y49371*
X9025Y49367*
X9029Y49363*
X9033Y49359*
X9037Y49355*
X9042Y49352*
X9047Y49349*
X9051Y49347*
X9057Y49344*
X9062Y49342*
X9067Y49341*
X9073Y49340*
X9078Y49339*
X9084Y49339*
X9089*
X9095Y49339*
X9100Y49340*
X9106Y49341*
X9111Y49342*
X9116Y49344*
X9122Y49347*
X9127Y49349*
X9131Y49352*
X9136Y49355*
X9140Y49359*
X9144Y49363*
X9148Y49367*
X9151Y49371*
X9154Y49376*
X9157Y49381*
X9160Y49386*
X9162Y49391*
X9163Y49396*
X9165Y49402*
X9166Y49407*
X9166Y49413*
X9167Y49419*
M02*