%FSLAX24Y24*%
%MOIN*%
%SFA1B1*%

%IPPOS*%
%AMD47*
4,1,8,-0.020800,-0.028900,0.020800,-0.028900,0.027700,-0.022000,0.027700,0.022000,0.020800,0.028900,-0.020800,0.028900,-0.027700,0.022000,-0.027700,-0.022000,-0.020800,-0.028900,0.0*
1,1,0.013800,-0.020800,-0.022000*
1,1,0.013800,0.020800,-0.022000*
1,1,0.013800,0.020800,0.022000*
1,1,0.013800,-0.020800,0.022000*
%
%AMD50*
4,1,8,-0.039300,0.014800,-0.039300,-0.014800,-0.034400,-0.019700,0.034400,-0.019700,0.039300,-0.014800,0.039300,0.014800,0.034400,0.019700,-0.034400,0.019700,-0.039300,0.014800,0.0*
1,1,0.009800,-0.034400,0.014800*
1,1,0.009800,-0.034400,-0.014800*
1,1,0.009800,0.034400,-0.014800*
1,1,0.009800,0.034400,0.014800*
%
%AMD51*
4,1,8,-0.112200,0.081100,-0.112200,-0.081100,-0.085100,-0.108200,0.085100,-0.108200,0.112200,-0.081100,0.112200,0.081100,0.085100,0.108200,-0.085100,0.108200,-0.112200,0.081100,0.0*
1,1,0.054200,-0.085100,0.081100*
1,1,0.054200,-0.085100,-0.081100*
1,1,0.054200,0.085100,-0.081100*
1,1,0.054200,0.085100,0.081100*
%
%AMD57*
4,1,8,0.100800,0.029500,-0.100800,0.029500,-0.108200,0.022100,-0.108200,-0.022100,-0.100800,-0.029500,0.100800,-0.029500,0.108200,-0.022100,0.108200,0.022100,0.100800,0.029500,0.0*
1,1,0.014800,0.100800,0.022100*
1,1,0.014800,-0.100800,0.022100*
1,1,0.014800,-0.100800,-0.022100*
1,1,0.014800,0.100800,-0.022100*
%
%ADD24C,0.047200*%
%ADD25C,0.019700*%
%ADD26C,0.015700*%
%ADD27C,0.063000*%
%ADD28R,0.109300X0.109300*%
%ADD29C,0.109300*%
%ADD30R,0.063000X0.098400*%
%ADD31O,0.063000X0.098400*%
%ADD32C,0.098400*%
%ADD33C,0.076800*%
%ADD34R,0.076800X0.076800*%
%ADD35O,0.070000X0.100000*%
%ADD36R,0.070000X0.100000*%
%ADD37R,0.063000X0.063000*%
%ADD38C,0.055100*%
%ADD39C,0.196900*%
%ADD40R,0.055100X0.047200*%
%ADD41R,0.078700X0.051200*%
%ADD42R,0.250000X0.250000*%
%ADD43R,0.033500X0.047200*%
%ADD44R,0.047200X0.033500*%
%ADD45R,0.074800X0.047200*%
%ADD46R,0.059800X0.070100*%
G04~CAMADD=47~8~0.0~0.0~555.0~579.0~69.0~0.0~15~0.0~0.0~0.0~0.0~0~0.0~0.0~0.0~0.0~0~0.0~0.0~0.0~180.0~554.0~578.0*
%ADD47D47*%
%ADD48R,0.047200X0.055100*%
%ADD49R,0.078700X0.074800*%
G04~CAMADD=50~8~0.0~0.0~394.0~787.0~49.0~0.0~15~0.0~0.0~0.0~0.0~0~0.0~0.0~0.0~0.0~0~0.0~0.0~0.0~90.0~786.0~393.0*
%ADD50D50*%
G04~CAMADD=51~8~0.0~0.0~2165.0~2244.0~271.0~0.0~15~0.0~0.0~0.0~0.0~0~0.0~0.0~0.0~0.0~0~0.0~0.0~0.0~90.0~2244.0~2164.0*
%ADD51D51*%
%ADD52O,0.078700X0.021700*%
%ADD53R,0.161400X0.078700*%
%ADD54R,0.074800X0.078700*%
%ADD55R,0.080000X0.019000*%
%ADD56R,0.019000X0.080000*%
G04~CAMADD=57~8~0.0~0.0~2165.0~591.0~74.0~0.0~15~0.0~0.0~0.0~0.0~0~0.0~0.0~0.0~0.0~0~0.0~0.0~0.0~0.0~2165.0~591.0*
%ADD57D57*%
%ADD58C,0.078700*%
%ADD59C,0.039400*%
%ADD60C,0.029500*%
%ADD61C,0.023600*%
%ADD62C,0.010000*%
%LNpcb_washver2-1*%
%LPD*%
G36*
X35915Y28965D02*
X35895Y28915D01*
X35793*
X35777Y28958*
Y28991*
X35491*
Y28724*
X35441*
Y28674*
X35104*
Y28541*
X34809*
Y27418*
X34848*
X34872Y27369*
X34822Y27303*
X34774Y27188*
X34758Y27064*
Y26858*
X34490*
Y27856*
X34271*
X34233Y27946*
X34158Y28045*
X32975Y29227*
X32994Y29273*
X35607*
X35915Y28965*
G37*
G36*
X56890Y51996D02*
X56788Y51877D01*
X56675Y51692*
X56592Y51492*
X56541Y51281*
X56524Y51065*
X56541Y50849*
X56592Y50638*
X56675Y50437*
X56788Y50253*
X56929Y50088*
X57094Y49947*
X57279Y49833*
X57479Y49750*
X57690Y49700*
X57906Y49683*
X58123Y49700*
X58333Y49750*
X58534Y49833*
X58719Y49947*
X58838Y50048*
X58888Y50025*
Y9979*
X58838Y9956*
X58719Y10057*
X58534Y10171*
X58333Y10254*
X58123Y10304*
X57906Y10321*
X57690Y10304*
X57479Y10254*
X57279Y10171*
X57094Y10057*
X56929Y9916*
X56788Y9751*
X56675Y9566*
X56592Y9366*
X56541Y9155*
X56524Y8939*
X56541Y8723*
X56592Y8512*
X56675Y8311*
X56788Y8127*
X56890Y8008*
X56867Y7958*
X25737*
Y9908*
X32432*
X32555Y9921*
X32674Y9957*
X32784Y10015*
X32879Y10094*
X34470Y11684*
X34548Y11780*
X34607Y11889*
X34643Y12008*
X34655Y12132*
Y13076*
X34720*
Y13451*
Y13827*
X34652*
Y14121*
X34296*
X34285Y14126*
X34260Y14142*
X34233Y14161*
X34080Y14290*
X34025Y14344*
X34023Y14346*
X33315Y15054*
Y15523*
Y15525*
X33317Y15602*
X33318Y15613*
X33883*
Y17187*
X33074*
X33073Y17198*
X33071Y17275*
Y17277*
Y19565*
Y19566*
X33076Y19696*
X33080Y19733*
X33086Y19765*
X33089Y19780*
X33098Y19787*
X33121Y19817*
X33139Y19835*
X33146Y19850*
X33169Y19879*
X33214Y19987*
X33229Y20103*
Y20398*
X33214Y20514*
X33169Y20621*
X33098Y20714*
X33006Y20785*
X32898Y20830*
X32782Y20845*
X32648*
X32561Y20871*
X32438Y20883*
X32314Y20871*
X32227Y20845*
X32093*
X31978Y20830*
X31870Y20785*
X31777Y20714*
X31706Y20621*
X31662Y20514*
X31647Y20398*
Y20103*
X31662Y19987*
X31706Y19879*
X31729Y19850*
X31737Y19835*
X31754Y19817*
X31777Y19787*
X31786Y19780*
X31790Y19765*
X31795Y19738*
X31803Y19636*
X31805Y19574*
Y19572*
Y17277*
Y17275*
X31803Y17198*
X31802Y17187*
X31481*
Y15613*
X32046*
X32047Y15602*
X32049Y15525*
Y15523*
Y14792*
X32061Y14668*
X32097Y14549*
X32156Y14440*
X32234Y14344*
X33167Y13411*
X33169Y13409*
X33228Y13349*
X33273Y13299*
X33350Y13205*
X33371Y13175*
X33387Y13149*
X33389Y13144*
Y12394*
X32170Y11174*
X25737*
Y13164*
X27656*
X27780Y13176*
X27899Y13212*
X28008Y13271*
X28104Y13350*
X29733Y14979*
X29812Y15075*
X29871Y15185*
X29907Y15303*
X29919Y15427*
Y18235*
Y18237*
X29920Y18317*
X29955*
Y18695*
X29957Y18712*
X29956Y18722*
X29957Y18733*
X29955Y18742*
Y19065*
Y19913*
X29957Y19930*
X29955Y19946*
Y20325*
X29832*
Y21211*
X29813Y21352*
X29759Y21484*
X29672Y21597*
X28958Y22311*
X28845Y22398*
X28713Y22453*
X28572Y22471*
X28334*
X28332*
X28329Y22475*
X28305Y22494*
X28289Y22510*
X28269Y22521*
X28232Y22550*
X28119Y22596*
X27998Y22612*
X27582*
X27461Y22596*
X27348Y22550*
X27252Y22475*
X27177Y22379*
X27131Y22266*
X27115Y22145*
Y21705*
X27131Y21584*
X27177Y21472*
X27213Y21425*
X27177Y21379*
X27131Y21266*
X27115Y21145*
Y20705*
X27126Y20620*
X27127Y20611*
X27128Y20606*
X27131Y20584*
X27134Y20576*
X27137Y20568*
X27157Y20244*
Y20168*
Y20165*
Y16573*
X26146Y15562*
X25737*
Y16307*
X26092*
Y17567*
X25737*
Y22878*
X31542*
Y22705*
X32059*
X32069Y22655*
X32051Y22647*
X32023Y22638*
X31988Y22630*
X31978Y22629*
X31952Y22618*
X31934Y22614*
X31910Y22601*
X31885Y22592*
X31882Y22589*
X31870Y22584*
X31850Y22568*
X31842Y22565*
X31833Y22556*
X31777Y22513*
X31706Y22421*
X31662Y22313*
X31647Y22197*
Y21902*
X31662Y21786*
X31706Y21679*
X31777Y21586*
X31870Y21515*
X31978Y21470*
X32093Y21455*
X32227*
X32314Y21429*
X32438Y21417*
X32561Y21429*
X32648Y21455*
X32782*
X32898Y21470*
X33006Y21515*
X33098Y21586*
X33169Y21679*
X33214Y21786*
X33219Y21823*
X33223Y21838*
X33224Y21858*
X33228Y21878*
X33229Y21896*
X33230Y21901*
X33235Y21912*
X33243Y21929*
X33257Y21952*
X33273Y21975*
X33335Y22050*
X33374Y22090*
X33381Y22100*
X33390Y22108*
X33400Y22124*
X33447Y22180*
X33505Y22290*
X33541Y22409*
X33553Y22532*
Y22740*
X33629Y22741*
X33632*
X33662*
X33664*
X33742*
Y22732*
X34121*
X34137Y22730*
X34154Y22732*
X35002*
Y23026*
X35070*
Y23401*
Y23777*
X35002*
Y24071*
X34978*
Y24100*
X34966Y24223*
X34930Y24342*
X34871Y24451*
X34792Y24547*
X34454Y24886*
Y25322*
X36022*
Y26858*
X35772*
X35752Y26908*
X35776Y26932*
X35851Y27030*
X35899Y27145*
X35915Y27269*
Y27418*
X36068*
Y27793*
X37053*
Y28915*
X36899*
Y29131*
X36883Y29254*
X36836Y29369*
X36760Y29468*
X36141Y30087*
X36042Y30163*
X35927Y30210*
X35804Y30227*
X32413*
X28829Y33810*
Y33813*
X28827Y33823*
X28816Y33940*
X28778Y34066*
X28715Y34183*
X28632Y34285*
X28530Y34368*
X28414Y34430*
X28287Y34469*
X28156Y34482*
X28025Y34469*
X27899Y34430*
X27783Y34368*
X27681Y34285*
X27597Y34183*
X27535Y34066*
X27497Y33940*
X27484Y33809*
X27497Y33678*
X27535Y33552*
X27597Y33435*
X27681Y33334*
X27783Y33250*
X27899Y33188*
X28025Y33149*
X28142Y33138*
X28152Y33136*
X28155*
X31641Y29651*
X31622Y29604*
X30401*
X29351Y30655*
Y30658*
X29349Y30668*
X29338Y30785*
X29299Y30911*
X29237Y31027*
X29153Y31129*
X29052Y31213*
X28935Y31275*
X28809Y31313*
X28678Y31326*
X28547Y31313*
X28421Y31275*
X28304Y31213*
X28202Y31129*
X28119Y31027*
X28057Y30911*
X28018Y30785*
X28005Y30654*
X28018Y30522*
X28057Y30396*
X28119Y30280*
X28202Y30178*
X28304Y30094*
X28421Y30032*
X28547Y29994*
X28664Y29982*
X28674Y29981*
X28677*
X29867Y28791*
X29965Y28715*
X30080Y28668*
X30204Y28651*
X32203*
X33151Y27703*
Y27050*
X32154*
X32066Y27077*
X31935Y27090*
X31804Y27077*
X31678Y27039*
X31561Y26977*
X31459Y26893*
X31376Y26791*
X31314Y26675*
X31275Y26549*
X31263Y26417*
X31275Y26286*
X31314Y26160*
X31376Y26044*
X31459Y25942*
X31561Y25858*
X31678Y25796*
X31804Y25758*
X31935Y25745*
X32066Y25758*
X32154Y25784*
X32272*
X32293Y25739*
X32252Y25689*
X32190Y25572*
X32151Y25446*
X32141Y25343*
X31821Y25023*
X31742Y24920*
X31693Y24801*
X31676Y24672*
Y24043*
X31542*
Y23870*
X25737*
Y52046*
X56867*
X56890Y51996*
G37*
%LNpcb_washver2-2*%
%LPC*%
G36*
X35391Y28991D02*
X35104D01*
Y28774*
X35391*
Y28991*
G37*
G36*
X44051Y51529D02*
X43920Y51516D01*
X43794Y51478*
X43678Y51415*
X43576Y51332*
X43492Y51230*
X43430Y51114*
X43392Y50988*
X43380Y50870*
X43379Y50861*
Y50858*
X43309Y50788*
X43233Y50689*
X43186Y50574*
X43169Y50451*
Y49939*
X43119Y49915*
X43042Y49979*
X42919Y50045*
X42785Y50085*
X42646Y50099*
X42507Y50085*
X42373Y50045*
X42250Y49979*
X42146Y49893*
X42042Y49979*
X41919Y50045*
X41785Y50085*
X41646Y50099*
X41507Y50085*
X41374Y50045*
X41250Y49979*
X41146Y49893*
X41042Y49979*
X40919Y50045*
X40785Y50085*
X40646Y50099*
X40507Y50085*
X40374Y50045*
X40250Y49979*
X40142Y49890*
X40054Y49783*
X40002Y49686*
X39924*
X39801Y49670*
X39686Y49622*
X39587Y49547*
X39011Y48970*
X39008*
X38998Y48968*
X38881Y48957*
X38754Y48919*
X38638Y48856*
X38536Y48773*
X38453Y48671*
X38397Y48567*
X38344Y48550*
X37704Y49189*
X37606Y49265*
X37491Y49313*
X37367Y49329*
X34239*
X34116Y49313*
X34001Y49265*
X33902Y49189*
X33366Y48653*
X33290Y48555*
X33242Y48440*
X33231Y48356*
X33178Y48334*
X33170Y48340*
X33048Y48391*
X32917Y48408*
X32707*
X32631Y48418*
X31647*
X31467Y48424*
X31417Y48429*
X31309Y48487*
X31191Y48523*
X31067Y48535*
X30944Y48523*
X30825Y48487*
X30715Y48428*
X30620Y48349*
X29470Y47200*
X29391Y47104*
X29333Y46994*
X29297Y46875*
X29284Y46752*
Y46719*
X29234Y46702*
X29206Y46739*
X28048Y47897*
Y48660*
X26662*
Y47172*
Y46172*
Y45172*
X27672*
Y42321*
X27670Y42319*
X27664Y42311*
X27589Y42220*
X27527Y42104*
X27489Y41978*
X27476Y41846*
X27489Y41715*
X27527Y41589*
X27589Y41473*
X27673Y41371*
X27775Y41287*
X27891Y41225*
X28017Y41187*
X28148Y41174*
X28280Y41187*
X28406Y41225*
X28522Y41287*
X28624Y41371*
X28708Y41473*
X28770Y41589*
X28808Y41715*
X28821Y41846*
X28808Y41978*
X28770Y42104*
X28708Y42220*
X28641Y42301*
X28642Y42333*
X28686Y42368*
X28738Y42352*
X28869Y42339*
X29000Y42352*
X29126Y42390*
X29243Y42453*
X29344Y42536*
X29428Y42638*
X29490Y42754*
X29529Y42881*
X29541Y43012*
X29529Y43143*
X29490Y43269*
X29428Y43385*
X29353Y43476*
X29348Y43484*
X29345Y43487*
Y45276*
X29376Y45290*
X29395Y45291*
X29470Y45201*
X29878Y44793*
X29844Y44759*
X29765Y44663*
X29707Y44553*
X29671Y44435*
X29658Y44311*
Y40581*
X29671Y40457*
X29707Y40338*
X29761Y40237*
X29539Y40015*
X29460Y39919*
X29401Y39809*
X29365Y39690*
X29353Y39567*
Y38041*
X29365Y37918*
X29389Y37841*
X29373Y37828*
X29289Y37726*
X29227Y37610*
X29189Y37484*
X29186Y37456*
X29139Y37439*
X28510Y38068*
X28412Y38144*
X28297Y38191*
X28173Y38207*
X28048*
Y38475*
X26662*
Y36987*
Y35987*
Y34987*
X28048*
Y35299*
X28094Y35318*
X32786Y30626*
X32885Y30550*
X33000Y30502*
X33123Y30486*
X37870*
X39151Y29205*
X39250Y29129*
X39365Y29082*
X39488Y29066*
X39833*
Y28912*
X39790Y28896*
X39757*
Y28610*
X40024*
Y28560*
X40074*
Y28224*
X40207*
Y28108*
X40197*
Y26572*
X41772*
Y28108*
X41442*
X41397Y28217*
X41330Y28305*
Y29188*
X40956*
Y30172*
X39833*
Y30019*
X39686*
X38766Y30938*
X38785Y30984*
X42203*
X43696Y29492*
X43676Y29445*
X41939*
Y28108*
X41917*
Y26572*
X42820*
Y24584*
X42754Y24529*
X42670Y24427*
X42608Y24311*
X42570Y24184*
X42557Y24053*
X42570Y23922*
X42608Y23796*
X42670Y23680*
X42754Y23578*
X42856Y23494*
X42972Y23432*
X43098Y23394*
X43229Y23381*
X43272Y23385*
X43309Y23351*
Y21983*
X43100*
X43008Y21986*
Y22137*
X42654*
X42652*
X42630*
X42613Y22140*
X42596Y22137*
X40606*
Y20563*
X41171*
X41172Y20552*
X41174Y20475*
Y20473*
Y20243*
X40108Y19176*
X38571*
X38484Y19203*
X38352Y19216*
X38221Y19203*
X38095Y19165*
X37979Y19102*
X37877Y19019*
X37793Y18917*
X37731Y18801*
X37693Y18675*
X37680Y18543*
X37693Y18412*
X37731Y18286*
X37793Y18170*
X37877Y18068*
X37979Y17984*
X38095Y17922*
X38221Y17884*
X38352Y17871*
X38484Y17884*
X38571Y17910*
X39688*
X39707Y17864*
X39021Y17179*
X38942Y17076*
X38893Y16956*
X38876Y16828*
Y16743*
X38742*
Y15541*
X38692Y15538*
X38690Y15562*
X38652Y15688*
X38589Y15805*
X38506Y15907*
X38404Y15990*
X38288Y16052*
X38162Y16091*
X38030Y16104*
X37899Y16091*
X37773Y16052*
X37657Y15990*
X37555Y15907*
X37471Y15805*
X37409Y15688*
X37371Y15562*
X37358Y15431*
X37371Y15300*
X37409Y15174*
X37471Y15057*
X37546Y14966*
X37552Y14958*
X37554Y14956*
Y14594*
X37570Y14471*
X37618Y14356*
X37693Y14258*
X38039Y13912*
X38138Y13836*
X38253Y13789*
X38376Y13772*
X39462*
Y13619*
X39419Y13603*
X39386*
Y13317*
X39653*
Y13267*
X39703*
Y12930*
X39836*
Y12635*
X40958*
Y12823*
X41494*
X41618Y12840*
X41645Y12851*
X41687Y12823*
Y12753*
X43222*
Y14327*
X41687*
Y14010*
X41611Y14000*
X41496Y13953*
X41398Y13877*
X41297Y13777*
X40958*
Y13894*
X40584*
Y14783*
X41687*
Y14473*
X43222*
Y16047*
X41687*
Y15737*
X40750*
Y16743*
X40055*
X40036Y16789*
X40550Y17304*
X46844*
X46973Y17321*
X47093Y17370*
X47195Y17449*
X47725Y17979*
X47804Y18082*
X47854Y18202*
X47871Y18330*
Y18446*
X48138*
Y15744*
X47901*
Y13956*
X49388*
Y13959*
X49428Y13988*
X49499Y13967*
X49644Y13953*
X49790Y13967*
X49930Y14010*
X50060Y14079*
X50173Y14172*
X50266Y14285*
X50294Y14338*
X50359Y14352*
X50418Y14307*
X50527Y14262*
X50594Y14253*
Y14850*
Y15447*
X50527Y15438*
X50418Y15393*
X50361Y15350*
X50343Y15349*
X50302Y15367*
X50284Y15449*
X50279Y15484*
X50266Y15675*
X50265Y15745*
Y15747*
Y15972*
X50292Y16060*
X50304Y16191*
X50292Y16322*
X50253Y16448*
X50191Y16565*
X50107Y16666*
X50006Y16750*
X49889Y16812*
X49763Y16851*
X49716Y16855*
X49718Y16905*
X50745*
X51148Y16502*
Y15555*
X51116Y15528*
X51023Y15415*
X50995Y15362*
X50930Y15348*
X50871Y15393*
X50762Y15438*
X50694Y15447*
Y14850*
Y14253*
X50762Y14262*
X50871Y14307*
X50930Y14352*
X50995Y14338*
X51023Y14285*
X51116Y14172*
X51229Y14079*
X51359Y14010*
X51499Y13967*
X51644Y13953*
X51790Y13967*
X51930Y14010*
X52060Y14079*
X52144Y14148*
X52229Y14079*
X52359Y14010*
X52499Y13967*
X52644Y13953*
X52790Y13967*
X52930Y14010*
X53060Y14079*
X53144Y14148*
X53229Y14079*
X53359Y14010*
X53499Y13967*
X53644Y13953*
X53790Y13967*
X53930Y14010*
X54060Y14079*
X54173Y14172*
X54266Y14285*
X54335Y14414*
X54377Y14554*
X54392Y14700*
Y15000*
X54377Y15146*
X54335Y15286*
X54266Y15415*
X54173Y15528*
X54060Y15621*
X53930Y15690*
X53790Y15733*
X53644Y15747*
X53499Y15733*
X53359Y15690*
X53229Y15621*
X53191Y15590*
X53141Y15613*
Y16564*
X53124Y16693*
X53074Y16812*
X52995Y16915*
X52245Y17665*
X52264Y17718*
X52352Y17726*
X52478Y17764*
X52594Y17827*
X52696Y17910*
X52780Y18012*
X52842Y18128*
X52880Y18255*
X52890Y18353*
X53034Y18497*
X53113Y18600*
X53163Y18720*
X53179Y18848*
Y19851*
X53414*
X53476Y19848*
X53499Y19844*
X53504Y19820*
X53507Y19758*
Y19619*
X53480Y19531*
X53467Y19400*
X53480Y19268*
X53518Y19142*
X53581Y19026*
X53664Y18924*
X53766Y18840*
X53882Y18778*
X54009Y18740*
X54140Y18727*
X54271Y18740*
X54397Y18778*
X54513Y18840*
X54544Y18866*
X54589Y18844*
Y12978*
X53096Y11485*
X45194*
X45192*
X45112Y11486*
Y11521*
X44734*
X44718Y11524*
X44707Y11522*
X44696Y11523*
X44688Y11521*
X43105*
Y11291*
X42275*
X42273Y11294*
X42265Y11299*
X42174Y11374*
X42057Y11436*
X41931Y11475*
X41800Y11487*
X41669Y11475*
X41543Y11436*
X41426Y11374*
X41324Y11291*
X41241Y11189*
X41179Y11072*
X41140Y10946*
X41127Y10815*
X41140Y10684*
X41179Y10558*
X41241Y10441*
X41324Y10339*
X41426Y10256*
X41543Y10194*
X41669Y10155*
X41800Y10142*
X41931Y10155*
X42057Y10194*
X42174Y10256*
X42265Y10330*
X42273Y10336*
X42275Y10338*
X43105*
Y10183*
X44688*
X44696Y10181*
X44707Y10182*
X44718Y10181*
X44734Y10183*
X45112*
Y10218*
X45114*
X45192Y10219*
X45194*
X53358*
X53481Y10231*
X53600Y10267*
X53710Y10326*
X53806Y10404*
X55670Y12269*
X55749Y12365*
X55807Y12474*
X55843Y12593*
X55855Y12716*
Y20216*
X57792Y22152*
X57871Y22248*
X57929Y22358*
X57965Y22477*
X57977Y22600*
Y27450*
X57965Y27573*
X57929Y27692*
X57871Y27802*
X57792Y27898*
X57330Y28359*
X57329Y28361*
X57292Y28400*
X57329Y28439*
X57330Y28441*
X57792Y28902*
X57871Y28998*
X57929Y29108*
X57965Y29227*
X57977Y29350*
Y33250*
X57965Y33373*
X57929Y33492*
X57871Y33602*
X57792Y33698*
X57330Y34159*
X57329Y34161*
X57292Y34200*
X57329Y34239*
X57330Y34241*
X57742Y34652*
X57821Y34748*
X57879Y34858*
X57915Y34977*
X57927Y35100*
Y39050*
X57915Y39173*
X57879Y39292*
X57821Y39402*
X57742Y39498*
X57330Y39909*
X57329Y39911*
X57292Y39950*
X57329Y39989*
X57330Y39991*
X57742Y40402*
X57821Y40498*
X57879Y40608*
X57915Y40727*
X57927Y40850*
Y44900*
X57915Y45023*
X57879Y45142*
X57821Y45252*
X57742Y45348*
X57330Y45759*
X57329Y45761*
X57273Y45820*
X57229Y45870*
X57194Y45916*
X57165Y45959*
X57143Y45997*
X57127Y46030*
X57116Y46058*
X57110Y46080*
X57107Y46099*
X57105Y46136*
X57103Y46144*
Y46509*
X56725*
X56708Y46511*
X56697Y46509*
X56686Y46510*
X56678Y46509*
X55686*
Y45517*
X55684Y45509*
X55685Y45497*
X55684Y45486*
X55686Y45470*
Y45091*
X55692*
X55727Y45041*
X55696Y44939*
X55682Y44800*
X55696Y44661*
X55737Y44527*
X55802Y44404*
X55883Y44306*
X55887Y44300*
X55891Y44297*
Y44296*
X55898Y44289*
Y43606*
X55701*
Y43472*
X54670*
X54542Y43455*
X54422Y43406*
X54319Y43327*
X52344Y41351*
X52265Y41248*
X52215Y41128*
X52198Y41000*
Y31892*
X52152Y31873*
X50600Y33425*
X50497Y33504*
X50377Y33553*
X50249Y33570*
X50200*
Y33743*
X48192*
Y33687*
X48006*
Y34671*
X47921*
Y42215*
Y49000*
X47905Y49123*
X47857Y49238*
X47781Y49337*
X46431Y50687*
X46333Y50763*
X46218Y50810*
X46094Y50827*
X44944*
X44821Y50810*
X44760Y50785*
X44720Y50815*
X44724Y50856*
X44711Y50988*
X44673Y51114*
X44610Y51230*
X44527Y51332*
X44425Y51415*
X44309Y51478*
X44182Y51516*
X44051Y51529*
G37*
G36*
X51509Y38880D02*
Y38558D01*
X51832*
X51825Y38606*
X51788Y38697*
X51727Y38776*
X51649Y38836*
X51557Y38874*
X51509Y38880*
G37*
G36*
X51409D02*
X51361Y38874D01*
X51270Y38836*
X51192Y38776*
X51131Y38697*
X51094Y38606*
X51087Y38558*
X51409*
Y38880*
G37*
G36*
X51832Y38458D02*
X51509D01*
Y38136*
X51557Y38142*
X51649Y38180*
X51727Y38240*
X51788Y38318*
X51825Y38410*
X51832Y38458*
G37*
G36*
X51409D02*
X51087D01*
X51094Y38410*
X51131Y38318*
X51192Y38240*
X51270Y38180*
X51361Y38142*
X51409Y38136*
Y38458*
G37*
G36*
X39974Y28510D02*
X39757D01*
Y28224*
X39974*
Y28510*
G37*
G36*
X28048Y29230D02*
X26662D01*
Y27742*
Y26742*
Y25742*
X28048*
Y26070*
X28094Y26090*
X28485Y25698*
X28442Y25618*
X28404Y25491*
X28391Y25360*
X28404Y25229*
X28442Y25103*
X28505Y24987*
X28588Y24885*
X28690Y24801*
X28806Y24739*
X28933Y24701*
X29064Y24688*
X29195Y24701*
X29321Y24739*
X29437Y24801*
X29539Y24885*
X29623Y24987*
X29685Y25103*
X29723Y25229*
X29736Y25360*
X29723Y25491*
X29685Y25618*
X29623Y25734*
X29539Y25836*
X29534Y25840*
X29524Y25917*
X29476Y26032*
X29401Y26131*
X29261Y26270*
X29280Y26322*
X29388Y26355*
X29504Y26417*
X29606Y26501*
X29690Y26603*
X29752Y26719*
X29790Y26845*
X29803Y26976*
X29790Y27108*
X29752Y27234*
X29690Y27350*
X29606Y27452*
X29504Y27536*
X29388Y27598*
X29262Y27636*
X29145Y27648*
X29135Y27649*
X29132*
X28081Y28700*
X28048Y28739*
Y29230*
G37*
G36*
X37742Y26858D02*
X36167D01*
Y25322*
X36493*
X36494Y25317*
X36542Y25202*
X36618Y25103*
X37281Y24439*
X37380Y24363*
X37495Y24316*
X37618Y24300*
X38639*
Y24107*
X40647*
Y24280*
X40753*
X40921Y24111*
X40931Y24012*
X40969Y23886*
X41031Y23770*
X41115Y23668*
X41217Y23585*
X41333Y23522*
X41459Y23484*
X41591Y23471*
X41722Y23484*
X41848Y23522*
X41964Y23585*
X42066Y23668*
X42150Y23770*
X42212Y23886*
X42250Y24012*
X42263Y24144*
X42250Y24275*
X42212Y24401*
X42150Y24517*
X42066Y24619*
X41964Y24703*
X41848Y24765*
X41722Y24803*
X41623Y24813*
X41309Y25127*
X41206Y25206*
X41087Y25256*
X40958Y25272*
X40647*
Y25445*
X38639*
Y25253*
X37816*
X37742Y25326*
Y26858*
G37*
G36*
X35456Y23777D02*
X35170D01*
Y23451*
X35456*
Y23777*
G37*
G36*
Y23351D02*
X35170D01*
Y23026*
X35456*
Y23351*
G37*
G36*
X39289Y21844D02*
X38432D01*
Y21400*
X39289*
Y21844*
G37*
G36*
X38332D02*
X37475D01*
Y21400*
X38332*
Y21844*
G37*
G36*
X36203Y22336D02*
X35401D01*
Y21200*
X36576*
Y21962*
X36564Y22059*
X36526Y22149*
X36467Y22226*
X36389Y22286*
X36299Y22323*
X36203Y22336*
G37*
G36*
X35301D02*
X34500D01*
X34403Y22323*
X34313Y22286*
X34235Y22226*
X34176Y22149*
X34139Y22059*
X34126Y21962*
Y21200*
X35301*
Y22336*
G37*
G36*
X39289Y21300D02*
X38432D01*
Y20856*
X39289*
Y21300*
G37*
G36*
X38332D02*
X37475D01*
Y20856*
X38332*
Y21300*
G37*
G36*
X36576Y21100D02*
X35401D01*
Y19964*
X36203*
X36299Y19977*
X36389Y20014*
X36467Y20074*
X36526Y20151*
X36564Y20241*
X36576Y20338*
Y21100*
G37*
G36*
X35301D02*
X34126D01*
Y20338*
X34139Y20241*
X34176Y20151*
X34235Y20074*
X34313Y20014*
X34403Y19977*
X34500Y19964*
X35301*
Y21100*
G37*
G36*
X33840Y19669D02*
Y19347D01*
X34162*
X34156Y19395*
X34118Y19487*
X34058Y19565*
X33980Y19625*
X33888Y19663*
X33840Y19669*
G37*
G36*
X33740D02*
X33692Y19663D01*
X33601Y19625*
X33522Y19565*
X33462Y19487*
X33424Y19395*
X33418Y19347*
X33740*
Y19669*
G37*
G36*
X34162Y19247D02*
X33840D01*
Y18925*
X33888Y18931*
X33980Y18969*
X34058Y19029*
X34118Y19108*
X34156Y19199*
X34162Y19247*
G37*
G36*
X33740D02*
X33418D01*
X33424Y19199*
X33462Y19108*
X33522Y19029*
X33601Y18969*
X33692Y18931*
X33740Y18925*
Y19247*
G37*
G36*
X37014Y16894D02*
X36157D01*
Y16450*
X37014*
Y16894*
G37*
G36*
X36057D02*
X35200D01*
Y16450*
X36057*
Y16894*
G37*
G36*
X37014Y16350D02*
X36157D01*
Y15906*
X37014*
Y16350*
G37*
G36*
X36057D02*
X35200D01*
Y15906*
X36057*
Y16350*
G37*
G36*
X35106Y13827D02*
X34820D01*
Y13501*
X35106*
Y13827*
G37*
G36*
Y13401D02*
X34820D01*
Y13076*
X35106*
Y13401*
G37*
G36*
X39603Y13217D02*
X39386D01*
Y12930*
X39603*
Y13217*
G37*
%LNpcb_washver2-3*%
%LPD*%
G36*
X33486Y46888D02*
Y46191D01*
X33502Y46068*
X33550Y45953*
X33626Y45854*
X33915Y45565*
X33981Y45514*
X33966Y45402*
X33983Y45271*
X34032Y45152*
X33983Y45033*
X33966Y44902*
X33983Y44771*
X34034Y44649*
X34114Y44544*
X34219Y44463*
X34268Y44443*
X34260Y44402*
X34276Y44321*
X34322Y44252*
X34391Y44206*
X34472Y44189*
X35043*
X35124Y44206*
X35193Y44252*
X35239Y44321*
X35255Y44402*
X35275Y44425*
X36201*
X36213Y44377*
X36197Y44368*
X36095Y44285*
X36012Y44183*
X35950Y44066*
X35911Y43940*
X35898Y43809*
X35911Y43678*
X35950Y43552*
X36012Y43435*
X36095Y43334*
X36197Y43250*
X36314Y43188*
X36440Y43149*
X36571Y43137*
X36702Y43149*
X36828Y43188*
X36944Y43250*
X37036Y43325*
X37043Y43330*
X37046Y43333*
X37968*
X39934Y41367*
Y41352*
X39948Y41213*
X39988Y41080*
X40054Y40957*
X40142Y40849*
X40250Y40760*
X40374Y40694*
X40507Y40654*
X40646Y40640*
X40785Y40654*
X40901Y40689*
X40951Y40662*
Y40154*
X40329*
X39093Y41390*
X38994Y41466*
X38879Y41513*
X38756Y41530*
X34248*
X34125Y41513*
X34010Y41466*
X33911Y41390*
X33154Y40634*
X33120Y40660*
X32998Y40711*
X32867Y40728*
X32657*
X32581Y40738*
X31231*
X31051Y40744*
X31020Y40747*
X30924Y40843*
Y44049*
X31221Y44345*
X31255Y44387*
X31842*
X31850Y44322*
X31499Y43971*
X31368Y43845*
X31353Y43831*
X31345Y43827*
X31243Y43743*
X31159Y43641*
X31097Y43525*
X31059Y43399*
X31046Y43268*
X31059Y43137*
X31097Y43010*
X31159Y42894*
X31243Y42792*
X31345Y42709*
X31461Y42646*
X31587Y42608*
X31718Y42595*
X31850Y42608*
X31976Y42646*
X32092Y42709*
X32194Y42792*
X32278Y42894*
X32340Y43010*
X32378Y43137*
X32391Y43268*
X32378Y43399*
X32367Y43435*
X32822Y43890*
X32828Y43895*
X32917*
X33048Y43913*
X33170Y43963*
X33275Y44044*
X33355Y44149*
X33406Y44271*
X33423Y44402*
X33406Y44533*
X33357Y44652*
X33406Y44771*
X33423Y44902*
X33406Y45033*
X33357Y45152*
X33406Y45271*
X33423Y45402*
X33406Y45533*
X33357Y45652*
X33406Y45771*
X33423Y45902*
X33406Y46033*
X33355Y46155*
X33275Y46260*
X33170Y46340*
X33121Y46361*
X33129Y46402*
X33121Y46443*
X33170Y46463*
X33275Y46544*
X33355Y46649*
X33406Y46771*
X33423Y46902*
X33422Y46908*
X33436Y46916*
X33486Y46888*
G37*
G36*
X55701Y42346D02*
X55995D01*
Y42278*
X56371*
Y42228*
X56421*
Y41891*
X56662*
Y41112*
X56435Y40886*
X56434Y40885*
X56375Y40828*
X56325Y40785*
X56278Y40749*
X56236Y40720*
X56198Y40698*
X56165Y40682*
X56137Y40672*
X56114Y40665*
X56096Y40662*
X56058Y40660*
X56050Y40659*
X55686*
Y40280*
X55684Y40264*
X55685Y40253*
X55684Y40241*
X55686Y40233*
Y39667*
X55684Y39659*
X55685Y39647*
X55684Y39636*
X55686Y39620*
Y39241*
X55692*
X55727Y39191*
X55696Y39089*
X55682Y38950*
X55696Y38811*
X55737Y38677*
X55802Y38554*
X55883Y38456*
X55887Y38450*
X55891Y38447*
Y38446*
X55898Y38439*
Y37556*
X55701*
X55651Y37555*
X55551Y37585*
X55420Y37598*
X55289Y37585*
X55163Y37547*
X55047Y37485*
X54945Y37401*
X54861Y37299*
X54799Y37183*
X54761Y37057*
X54748Y36926*
X54761Y36795*
X54799Y36668*
X54861Y36552*
X54945Y36450*
X55047Y36367*
X55163Y36304*
X55289Y36266*
X55420Y36253*
X55551Y36266*
X55651Y36296*
X55701*
X55995*
Y36228*
X56371*
Y36178*
X56421*
Y35842*
X56662*
Y35362*
X56435Y35136*
X56434Y35135*
X56375Y35078*
X56325Y35035*
X56278Y34999*
X56236Y34970*
X56198Y34948*
X56165Y34932*
X56137Y34922*
X56114Y34915*
X56096Y34912*
X56058Y34910*
X56050Y34909*
X55686*
Y34530*
X55684Y34514*
X55685Y34503*
X55684Y34491*
X55686Y34483*
Y33917*
X55684Y33909*
X55685Y33897*
X55684Y33886*
X55686Y33870*
Y33491*
X55692*
X55727Y33441*
X55696Y33339*
X55682Y33200*
X55696Y33061*
X55737Y32927*
X55802Y32804*
X55883Y32706*
X55887Y32700*
X55891Y32697*
Y32696*
X55898Y32689*
Y31556*
X55751*
X55709Y31530*
X55678Y31547*
X55551Y31585*
X55420Y31598*
X55289Y31585*
X55163Y31547*
X55047Y31485*
X54945Y31401*
X54861Y31299*
X54799Y31183*
X54761Y31057*
X54748Y30926*
X54761Y30795*
X54799Y30668*
X54861Y30552*
X54945Y30450*
X55047Y30367*
X55163Y30304*
X55289Y30266*
X55420Y30253*
X55551Y30266*
X55678Y30304*
X55709Y30321*
X55751Y30296*
X56045*
Y30228*
X56421*
Y30178*
X56471*
Y29841*
X56712*
Y29612*
X56435Y29336*
X56434Y29335*
X56375Y29278*
X56325Y29235*
X56278Y29199*
X56236Y29170*
X56198Y29148*
X56165Y29132*
X56137Y29122*
X56114Y29115*
X56096Y29112*
X56058Y29110*
X56050Y29109*
X55686*
Y28730*
X55684Y28714*
X55685Y28703*
X55684Y28691*
X55686Y28683*
Y28117*
X55684Y28109*
X55685Y28097*
X55684Y28086*
X55686Y28070*
Y27691*
X55692*
X55727Y27641*
X55696Y27539*
X55682Y27400*
X55696Y27261*
X55737Y27127*
X55802Y27004*
X55883Y26906*
X55887Y26900*
X55891Y26897*
Y26896*
X55898Y26889*
Y26156*
X55751*
Y26117*
X55701Y26094*
X55602Y26147*
X55476Y26185*
X55344Y26198*
X55213Y26185*
X55087Y26147*
X54971Y26085*
X54869Y26001*
X54785Y25899*
X54723Y25783*
X54685Y25657*
X54672Y25526*
X54685Y25395*
X54723Y25268*
X54785Y25152*
X54869Y25050*
X54971Y24967*
X55087Y24904*
X55213Y24866*
X55344Y24853*
X55476Y24866*
X55602Y24904*
X55701Y24958*
X55751Y24934*
Y24896*
X56045*
Y24828*
X56421*
Y24778*
X56471*
Y24441*
X56712*
Y22862*
X56044Y22195*
X56012Y22197*
X55934Y22257*
X55842Y22295*
X55794Y22301*
Y21945*
X55778Y21929*
X55744*
Y21895*
X55728Y21879*
X55372*
X55378Y21831*
X55416Y21740*
X55476Y21661*
X55478Y21629*
X54966Y21117*
X53431*
Y21182*
X53056*
Y21282*
X53431*
Y21568*
X53430*
X53411Y21614*
X54014Y22218*
X54087Y22179*
X54213Y22140*
X54344Y22127*
X54476Y22140*
X54602Y22179*
X54718Y22241*
X54820Y22324*
X54904Y22426*
X54966Y22543*
X55004Y22669*
X55017Y22800*
X55004Y22931*
X54966Y23057*
X54904Y23174*
X54820Y23276*
X54718Y23359*
X54602Y23421*
X54501Y23452*
X54475Y23461*
X54458Y23512*
X54467Y23600*
X54454Y23731*
X54416Y23857*
X54354Y23974*
X54270Y24076*
X54168Y24159*
X54052Y24221*
X53926Y24260*
X53794Y24273*
X53763Y24269*
X53726Y24303*
Y24386*
X53788Y24463*
X53850Y24579*
X53889Y24705*
X53902Y24837*
X53889Y24968*
X53850Y25094*
X53788Y25210*
X53705Y25312*
X53603Y25396*
X53486Y25458*
X53360Y25496*
X53229Y25509*
X53228*
X53191Y25543*
Y35860*
X53194Y35863*
Y36270*
Y36677*
X53191Y36679*
Y40794*
X54876Y42479*
X55701*
Y42346*
G37*
G36*
X33486Y39552D02*
Y38366D01*
X33502Y38243*
X33550Y38128*
X33626Y38029*
X33770Y37885*
X33869Y37809*
X33924Y37786*
X33916Y37721*
X33933Y37590*
X33982Y37471*
X33933Y37352*
X33916Y37221*
X33933Y37090*
X33984Y36968*
X34064Y36863*
X34169Y36783*
X34218Y36763*
X34210Y36721*
X34226Y36640*
X34272Y36571*
X34341Y36525*
X34422Y36509*
X34993*
X35074Y36525*
X35143Y36571*
X35189Y36640*
X35205Y36721*
X35225Y36745*
X36182*
X36184Y36743*
X36192Y36737*
X36283Y36662*
X36399Y36600*
X36525Y36562*
X36656Y36549*
X36788Y36562*
X36914Y36600*
X37030Y36662*
X37132Y36746*
X37216Y36848*
X37278Y36964*
X37316Y37090*
X37329Y37221*
X37316Y37353*
X37278Y37479*
X37224Y37579*
X37292Y37635*
X37376Y37737*
X37438Y37853*
X37477Y37979*
X37489Y38110*
X37481Y38195*
X37526Y38245*
X38164*
X39473Y36935*
X39572Y36860*
X39687Y36812*
X39810Y36796*
X39949*
Y36415*
X39937*
Y34644*
X41355*
Y34650*
X41405Y34685*
X41507Y34654*
X41646Y34640*
X41696Y34645*
X41733Y34612*
Y33411*
X41690Y33395*
X41657*
Y33109*
X41924*
Y33009*
X41657*
Y32723*
X41616Y32701*
X40345*
X39900Y33146*
Y33743*
X37892*
Y33687*
X37556*
Y34671*
X37038*
X36347Y35362*
X36366Y35398*
X36404Y35524*
X36417Y35656*
X36404Y35787*
X36366Y35913*
X36304Y36029*
X36220Y36131*
X36119Y36215*
X36002Y36277*
X35876Y36315*
X35745Y36328*
X35614Y36315*
X35488Y36277*
X35371Y36215*
X35269Y36131*
X35186Y36029*
X35124Y35913*
X35085Y35787*
X35072Y35656*
X35085Y35524*
X35124Y35398*
X35186Y35282*
X35269Y35180*
X35285Y35167*
X35332Y35052*
X35408Y34954*
X36433Y33928*
Y33411*
X36390Y33395*
X36357*
Y33109*
X36624*
Y33059*
X36674*
Y32723*
X36807*
Y32427*
X37892*
Y32405*
X39238*
X39659Y31983*
X39640Y31937*
X34641*
X29935Y36643*
X29952Y36690*
X29980Y36693*
X30106Y36731*
X30222Y36793*
X30286Y36846*
X30359Y36774*
X30454Y36695*
X30564Y36637*
X30683Y36601*
X30806Y36588*
X30930Y36601*
X31048Y36637*
X31158Y36695*
X31176Y36710*
X31180Y36711*
X31416Y36725*
X31787*
X31790Y36721*
X31807Y36590*
X31858Y36468*
X31938Y36363*
X32043Y36283*
X32165Y36232*
X32296Y36215*
X32867*
X32998Y36232*
X33120Y36283*
X33225Y36363*
X33305Y36468*
X33356Y36590*
X33373Y36721*
X33356Y36852*
X33307Y36971*
X33356Y37090*
X33373Y37221*
X33356Y37352*
X33307Y37471*
X33356Y37590*
X33373Y37721*
X33356Y37852*
X33307Y37971*
X33356Y38090*
X33373Y38221*
X33356Y38352*
X33305Y38475*
X33225Y38579*
X33120Y38660*
X33071Y38680*
X33079Y38721*
X33071Y38763*
X33120Y38783*
X33225Y38863*
X33305Y38968*
X33356Y39090*
X33373Y39221*
X33356Y39352*
X33317Y39448*
X33440Y39571*
X33486Y39552*
G37*
G36*
X46968Y34671D02*
X46883D01*
Y33411*
X46840Y33395*
X46807*
Y33109*
X47074*
Y33059*
X47124*
Y32723*
X47257*
Y32427*
X48192*
Y32405*
X50200*
X50240Y32381*
X51086Y31535*
X51057Y31493*
X50961Y31533*
X50833Y31550*
X49780*
X49747Y31587*
X49748Y31594*
X49004*
X49005Y31587*
X48972Y31550*
X46747*
X45150Y33146*
Y33743*
X45132Y33774*
X45155Y33817*
X45193Y33944*
X45206Y34075*
X45193Y34206*
X45155Y34332*
X45093Y34448*
X45009Y34550*
X44907Y34634*
X44897Y34640*
X44902Y34689*
X44919Y34694*
X45042Y34760*
X45146Y34846*
X45250Y34760*
X45374Y34694*
X45507Y34654*
X45646Y34640*
X45785Y34654*
X45919Y34694*
X46042Y34760*
X46150Y34849*
X46238Y34957*
X46304Y35080*
X46344Y35213*
X46358Y35352*
Y35707*
X46344Y35846*
X46304Y35979*
X46238Y36102*
X46150Y36210*
X46042Y36299*
X45919Y36365*
X45785Y36405*
X45646Y36419*
X45507Y36405*
X45374Y36365*
X45331Y36342*
X45288Y36367*
Y36642*
Y37902*
X45090*
X45079Y37991*
X45031Y38106*
X44955Y38205*
X44871Y38289*
Y38292*
X44870Y38301*
X44858Y38419*
X44862Y38424*
X44964Y38437*
X45079Y38485*
X45177Y38561*
X45665Y39048*
X46290*
Y39796*
Y41054*
X46304Y41080*
X46344Y41213*
X46358Y41352*
Y41707*
X46387Y41738*
X46968*
Y34671*
G37*
G36*
X46809Y25665D02*
X46314Y25170D01*
X46267Y25189*
Y25306*
X45061*
X45036Y25356*
X45078Y25411*
X45116Y25502*
X45122Y25550*
X44750*
Y25650*
X45122*
Y25655*
X45166Y25705*
X46723*
X46786Y25713*
X46809Y25665*
G37*
G36*
X44940Y24262D02*
X45008D01*
Y23968*
X45892*
X45911Y23922*
X45683Y23693*
X45607Y23595*
X45559Y23480*
X45551Y23414*
X45471*
Y23482*
X45096*
Y23532*
X45046*
Y23868*
X44720*
X44705Y23912*
Y24262*
X44840*
Y24637*
X44940*
Y24262*
G37*
%LNpcb_washver2-4*%
%LPC*%
G36*
X34807Y43273D02*
Y42951D01*
X35130*
X35123Y42999*
X35086Y43091*
X35025Y43169*
X34947Y43229*
X34856Y43267*
X34807Y43273*
G37*
G36*
X34707D02*
X34659Y43267D01*
X34568Y43229*
X34490Y43169*
X34429Y43091*
X34392Y42999*
X34385Y42951*
X34707*
Y43273*
G37*
G36*
X35130Y42851D02*
X34807D01*
Y42529*
X34856Y42535*
X34947Y42573*
X35025Y42633*
X35086Y42712*
X35123Y42803*
X35130Y42851*
G37*
G36*
X34707D02*
X34385D01*
X34392Y42803*
X34429Y42712*
X34490Y42633*
X34568Y42573*
X34659Y42535*
X34707Y42529*
Y42851*
G37*
G36*
X56321Y42178D02*
X55995D01*
Y41891*
X56321*
Y42178*
G37*
G36*
X53294Y36642D02*
Y36320D01*
X53616*
X53610Y36368*
X53572Y36459*
X53512Y36538*
X53434Y36598*
X53342Y36636*
X53294Y36642*
G37*
G36*
X53616Y36220D02*
X53294D01*
Y35897*
X53342Y35904*
X53434Y35942*
X53512Y36002*
X53572Y36080*
X53610Y36172*
X53616Y36220*
G37*
G36*
X56321Y36128D02*
X55995D01*
Y35842*
X56321*
Y36128*
G37*
G36*
X56371Y30128D02*
X56045D01*
Y29841*
X56371*
Y30128*
G37*
G36*
Y24728D02*
X56045D01*
Y24441*
X56371*
Y24728*
G37*
G36*
X55694Y22301D02*
X55646Y22295D01*
X55555Y22257*
X55476Y22197*
X55416Y22119*
X55378Y22027*
X55372Y21979*
X55694*
Y22301*
G37*
G36*
X33816Y35362D02*
Y35040D01*
X34138*
X34132Y35088*
X34094Y35180*
X34034Y35258*
X33955Y35318*
X33864Y35356*
X33816Y35362*
G37*
G36*
X33716D02*
X33668Y35356D01*
X33576Y35318*
X33498Y35258*
X33438Y35180*
X33400Y35088*
X33393Y35040*
X33716*
Y35362*
G37*
G36*
X34138Y34940D02*
X33816D01*
Y34618*
X33864Y34624*
X33955Y34662*
X34034Y34722*
X34094Y34801*
X34132Y34892*
X34138Y34940*
G37*
G36*
X33716D02*
X33393D01*
X33400Y34892*
X33438Y34801*
X33498Y34722*
X33576Y34662*
X33668Y34624*
X33716Y34618*
Y34940*
G37*
G36*
X36574Y33009D02*
X36357D01*
Y32723*
X36574*
Y33009*
G37*
G36*
X47024D02*
X46807D01*
Y32723*
X47024*
Y33009*
G37*
G36*
X49426Y32016D02*
Y31694D01*
X49748*
X49742Y31742*
X49704Y31833*
X49644Y31912*
X49565Y31972*
X49474Y32010*
X49426Y32016*
G37*
G36*
X49326D02*
X49278Y32010D01*
X49187Y31972*
X49108Y31912*
X49048Y31833*
X49010Y31742*
X49004Y31694*
X49326*
Y32016*
G37*
G36*
X45146Y23868D02*
Y23582D01*
X45471*
Y23868*
X45146*
G37*
%LNpcb_washver2-5*%
%LPD*%
G54D24*
X41465Y25667D02*
X42410Y24722D01*
Y23091D02*
Y24722D01*
X41851Y22531D02*
X42410Y23091D01*
X30291Y44311D02*
X30773Y44793D01*
X29917Y45648D02*
X30773Y44793D01*
X29917Y45648D02*
Y46752D01*
X20990Y27087D02*
X22775D01*
X21395Y24902D02*
Y26682D01*
X24684Y16937D02*
X25324D01*
X24284Y16537D02*
X24684Y16937D01*
X24284Y14215D02*
Y16537D01*
X24702Y13797D02*
X27656D01*
X24284Y14215D02*
X24702Y13797D01*
X20575Y34018D02*
X20635Y33957D01*
X22379*
X27790Y16311D02*
Y20925D01*
X26408Y14929D02*
X27790Y16311D01*
X25324Y14929D02*
X26408D01*
X29286Y15427D02*
Y18947D01*
X27656Y13797D02*
X29286Y15427D01*
X32438Y16644D02*
Y20250D01*
Y16644D02*
X32682Y16400D01*
Y14792D02*
Y16400D01*
Y14792D02*
X34022Y13451D01*
Y12132D02*
Y13451D01*
X32432Y10541D02*
X34022Y12132D01*
X16141Y10541D02*
X32432D01*
X14202Y12480D02*
X16141Y10541D01*
X14202Y12480D02*
Y13571D01*
X21979Y14832D02*
X22076Y14929D01*
X21979Y13581D02*
Y14832D01*
X19757Y18701D02*
X21981Y20925D01*
X23971*
X38382Y21350D02*
X39563Y22531D01*
X41851*
X40725Y25667D02*
X41465D01*
X40024Y26368D02*
X40725Y25667D01*
X40024Y26368D02*
Y28560D01*
X34870Y28724D02*
X35441D01*
X34494Y28348D02*
X34870Y28724D01*
X34494Y24850D02*
Y28348D01*
X51442Y38526D02*
X51459Y38508D01*
X51442Y38526D02*
Y45104D01*
X54961Y48624*
X57363*
X58706Y47281*
Y14539D02*
Y47281D01*
X54123Y9957D02*
X58706Y14539D01*
X36135Y9957D02*
X54123D01*
X35466Y10626D02*
X36135Y9957D01*
X35466Y10626D02*
Y11978D01*
X19757Y14402D02*
Y14982D01*
X35351Y19593D02*
Y20858D01*
Y21150*
X33790Y19297D02*
X35351Y20858D01*
X18926Y13571D02*
X19757Y14402D01*
X20575Y36731D02*
X20866Y36439D01*
X22779*
X21065Y46425D02*
X22934D01*
X20575Y46916D02*
X21065Y46425D01*
X38352Y18543D02*
X40350D01*
X40360Y18533*
X41807Y19980*
Y21350*
X34345Y23374D02*
X34372Y23401D01*
X32920Y23374D02*
X34345D01*
X33821Y24624D02*
Y26478D01*
X31935Y26417D02*
X33760D01*
X32920Y22532D02*
Y23374D01*
X32438Y22050D02*
X32920Y22532D01*
X55222Y20478D02*
X57344Y22600D01*
Y22613*
Y27450*
X56394Y28400D02*
X57344Y27450D01*
X56394Y28400D02*
X57344Y29350D01*
Y33250*
X56394Y34200D02*
X57344Y33250D01*
X56394Y34200D02*
X57294Y35100D01*
Y39050*
X56394Y39950D02*
X57294Y39050D01*
X56394Y39950D02*
X57294Y40850D01*
Y44900*
X56394Y45800D02*
X57294Y44900D01*
X30291Y40581D02*
X30651Y40221D01*
X29852Y37352D02*
X30264Y37764D01*
X29848Y37352D02*
X29852D01*
X30264Y37764D02*
X30806Y37221D01*
X29986Y38041D02*
X30264Y37764D01*
X29986Y38041D02*
Y39567D01*
X30641Y40221*
X30291Y40581D02*
Y44311D01*
X29917Y46752D02*
X31067Y47902D01*
X55163Y22510D02*
X55744Y21929D01*
X53056Y21232D02*
X53062Y21226D01*
X53879*
X55163Y22510D02*
X56421Y23767D01*
X53879Y21226D02*
X55163Y22510D01*
X56421Y23767D02*
Y24778D01*
X54717D02*
X56421D01*
X53344Y26150D02*
X54717Y24778D01*
X53344Y26150D02*
Y28905D01*
X54617Y30178*
X56421*
X53344Y31450D02*
X54617Y30178D01*
X53344Y31450D02*
Y34755D01*
X54767Y36178*
X53244Y36270D02*
X53918Y36944D01*
X53294Y37568D02*
X53918Y36944D01*
X54684Y36178D02*
X54767D01*
X53989Y36873D02*
X54684Y36178D01*
X54767D02*
X56371D01*
X54672Y42228D02*
X56371D01*
X53294Y40850D02*
X54672Y42228D01*
X53294Y37568D02*
Y40850D01*
X34757Y42901D02*
Y44402D01*
X33766Y34990D02*
X34693D01*
X36624Y33059*
X36257Y36721D02*
X38972Y34006D01*
X40978*
X41924Y33059*
X40978Y34006D02*
X41627Y34656D01*
X45470Y34663D02*
X47074Y33059D01*
X41627Y34656D02*
X44282D01*
X44290Y34663*
X45470*
X47074Y32075D02*
Y33059D01*
Y32075D02*
X47506Y31644D01*
X49376*
X44686Y21078D02*
X45543D01*
X44317Y20709D02*
X44686Y21078D01*
X43676Y21350D02*
X44317Y20709D01*
X41807Y21350D02*
X43676D01*
X44317Y18632D02*
Y20709D01*
X49632Y14863D02*
Y16191D01*
Y14863D02*
X49644Y14850D01*
X54140Y20484D02*
X55216D01*
X53056D02*
X54140D01*
Y19400D02*
Y20484D01*
X55222Y12716D02*
Y20478D01*
X44890Y23738D02*
X45096Y23532D01*
X44890Y23738D02*
Y24637D01*
X53358Y10852D02*
X55222Y12716D01*
X44483Y10852D02*
X53358D01*
X49923Y11978D02*
X50644Y12700D01*
X40016Y11978D02*
X49923D01*
X39644Y12350D02*
X40016Y11978D01*
X39273D02*
X39644Y12350D01*
X35466Y11978D02*
X39273D01*
X34770Y12674D02*
X35466Y11978D01*
X34345Y23429D02*
X34372Y23401D01*
X34345Y23429D02*
Y24100D01*
X33821Y24624D02*
X34345Y24100D01*
X34494Y24850D02*
X35120Y24224D01*
Y23401D02*
Y24224D01*
Y23401D02*
X35351Y23170D01*
Y21150D02*
Y23170D01*
Y21150D02*
X35551Y21350D01*
X38382*
X50644Y12700D02*
Y14850D01*
X34770Y12674D02*
Y13451D01*
Y14176*
X36107Y15513*
Y16400*
Y18837*
X35351Y19593D02*
X36107Y18837D01*
G54D25*
X43229Y24053D02*
X43311D01*
X43317Y24059*
X30695Y45925D02*
X32608D01*
X32631Y45902*
X32006Y45402D02*
X32631D01*
X31981Y45427D02*
X32006Y45402D01*
X52694Y41000D02*
X54670Y42976D01*
X52694Y41000D02*
Y24613D01*
X52234Y22440D02*
X53229Y23435D01*
Y24837*
X52694Y23550D02*
Y24613D01*
X17825Y46016D02*
Y46603D01*
X17300Y47128D02*
X17825Y46603D01*
X16294Y47128D02*
X17300D01*
X32172Y23374D02*
D01*
X24644D02*
X32172D01*
X23971Y21925D02*
Y22701D01*
X24644Y23374*
X34693Y34990D02*
X34707Y35004D01*
Y36721*
X36257*
X30806Y37221D02*
X32582D01*
X46660Y20536D02*
X46684Y20560D01*
X46084Y20536D02*
X46660D01*
X45745Y20197D02*
X46084Y20536D01*
X45035Y20197D02*
X45745D01*
X43317Y24059D02*
Y28776D01*
X40344Y17800D02*
X46844D01*
X47374Y18330*
X51204Y20560D02*
X51690D01*
X52289Y19961*
Y19537D02*
Y19961D01*
X51541Y18789D02*
X52289Y19537D01*
X40958Y24776D02*
X41591Y24144D01*
X40017Y24776D02*
X40958D01*
X47374Y18330D02*
Y19240D01*
X46144Y21500D02*
X46684D01*
X45722Y21078D02*
X46144Y21500D01*
X45543Y21826D02*
X46669D01*
X52683Y18848D02*
Y20061D01*
X52579Y20165D02*
X52683Y20061D01*
X52579Y20165D02*
Y20192D01*
X51902Y20870D02*
X52579Y20192D01*
X52220Y18386D02*
X52683Y18848D01*
X51204Y20870D02*
X51902D01*
X52717Y20478D02*
X53049D01*
X52005Y21190D02*
X52717Y20478D01*
X51204Y21190D02*
X52005D01*
X32811Y25311D02*
Y25315D01*
X32172Y24672D02*
X32811Y25311D01*
X32172Y23374D02*
Y24672D01*
X47670Y23774D02*
X47684Y23760D01*
X47670Y23774D02*
Y24243D01*
X47250Y24663D02*
X47670Y24243D01*
X47250Y24663D02*
Y24823D01*
X31827Y46902D02*
X32631D01*
X30764Y38376D02*
X30918Y38221D01*
X32582*
X31728Y39488D02*
X31995Y39221D01*
X30764Y38376D02*
Y38425D01*
X31807Y37721D02*
X32582D01*
X48314Y23760D02*
Y24293D01*
X48638Y24616*
Y24852*
X49150Y25364*
X47998Y23766D02*
X48004Y23760D01*
X47998Y23766D02*
Y24724D01*
X50833Y31053D02*
X51866Y30020D01*
X46541Y31053D02*
X50833D01*
X44520Y33074D02*
X46541Y31053D01*
X50616Y30650D02*
X51384Y29882D01*
X45921Y30650D02*
X50616D01*
X44366Y32205D02*
X45921Y30650D01*
X31718Y43489D02*
X32631Y44402D01*
X31718Y43268D02*
Y43489D01*
X31995Y39221D02*
X32582D01*
X51644Y14850D02*
Y16708D01*
X50951Y17402D02*
X51644Y16708D01*
X49681Y17402D02*
X50951D01*
X48944Y18138D02*
X49681Y17402D01*
X48944Y18138D02*
Y19240D01*
X52644Y14850D02*
Y16564D01*
X51325Y17884D02*
X52644Y16564D01*
X49750Y17884D02*
X51325D01*
X49254Y18379D02*
X49750Y17884D01*
X49254Y18379D02*
Y19240D01*
X49884Y23760D02*
Y24820D01*
X51384Y26319*
Y29882*
X40139Y32205D02*
X44366D01*
X39270Y33074D02*
X40139Y32205D01*
X51866Y26161D02*
Y30020D01*
X50204Y24500D02*
X51866Y26161D01*
X50249Y33074D02*
X52280Y31043D01*
Y25089D02*
Y31043D01*
X50951Y23760D02*
X52280Y25089D01*
X50204Y23760D02*
Y24500D01*
X50514Y23760D02*
X50951D01*
X49570Y33074D02*
X50249D01*
X52219Y21500D02*
X52493Y21226D01*
X51204Y21500D02*
X52219D01*
X51204Y21810D02*
X52904D01*
X53894Y22800*
X54344*
X51204Y22130D02*
X52474D01*
X53794Y23450*
Y23600*
X51904Y22760D02*
X52694Y23550D01*
X51204Y22440D02*
X52234D01*
X51204Y22760D02*
X51904D01*
X54670Y42976D02*
X56371D01*
X56394Y43000*
Y44800*
X56371Y36926D02*
X56394Y36950D01*
Y38950*
X55420Y36926D02*
X56371D01*
X56394Y30952D02*
X56421Y30926D01*
X56394Y30952D02*
Y33200D01*
X55420Y30926D02*
X56421D01*
X56394Y25552D02*
X56421Y25526D01*
X56394Y25552D02*
Y27400D01*
X55344Y25526D02*
X56421D01*
X48634Y14860D02*
X48644Y14850D01*
X48634Y14860D02*
Y19240D01*
X45543Y21078D02*
X45722D01*
X46669Y21826D02*
X46684Y21810D01*
X39372Y16828D02*
X40344Y17800D01*
X39372Y16074D02*
Y16828D01*
G54D26*
X17825Y29054D02*
X18351Y29581D01*
X27355Y27503D02*
X29064Y25794D01*
Y25360D02*
Y25794D01*
X27355Y28503D02*
X27605D01*
X29131Y26976*
X24107Y45323D02*
Y45916D01*
X23688Y44904D02*
X24107Y45323D01*
X22753Y44904D02*
X23688D01*
X22332Y45325D02*
X22753Y44904D01*
X17825Y48784D02*
X18278Y49238D01*
X17825Y47866D02*
Y48784D01*
X17814Y47876D02*
X17825Y47866D01*
X16294Y47876D02*
X17814D01*
X38376Y14249D02*
X40023D01*
X38030Y14594D02*
X38376Y14249D01*
X40397Y13265D02*
X40433Y13300D01*
X41494*
X39488Y29542D02*
X40394D01*
X38068Y30963D02*
X39488Y29542D01*
X40984Y27340D02*
Y27979D01*
X40769Y28195D02*
X40984Y27979D01*
X40769Y28195D02*
Y28558D01*
X36423Y28354D02*
Y29131D01*
X35804Y29750D02*
X36423Y29131D01*
X32215Y29750D02*
X35804D01*
X35439Y27269D02*
Y27980D01*
X35234Y27064D02*
X35439Y27269D01*
X35234Y26090D02*
Y27064D01*
X27355Y36731D02*
X33123Y30963D01*
X28156Y33809D02*
X32215Y29750D01*
X32400Y29128D02*
X33821Y27708D01*
X30204Y29128D02*
X32400D01*
X28678Y30654D02*
X30204Y29128D01*
X28148Y41846D02*
Y46122D01*
X27355Y46916D02*
X28148Y46122D01*
X33821Y27226D02*
Y27708D01*
X28869Y43012D02*
Y46402D01*
X27355Y47916D02*
X28869Y46402D01*
X38030Y14594D02*
Y15431D01*
X43697Y10815D02*
X43734Y10852D01*
X41800Y10815D02*
X43697D01*
X33123Y30963D02*
X38068D01*
X44419Y28776D02*
Y29442D01*
X42400Y31461D02*
X44419Y29442D01*
X34444Y31461D02*
X42400D01*
X28173Y37731D02*
X34444Y31461D01*
X27355Y37731D02*
X28173D01*
X35745Y35291D02*
X36994Y34041D01*
X35745Y35291D02*
Y35656D01*
X23781Y26177D02*
X24107Y26503D01*
X22580Y26177D02*
X23781D01*
X17825Y28453D02*
Y29054D01*
X23522Y35146D02*
X24107Y35731D01*
X22615Y35146D02*
X23522D01*
X17825Y38625D02*
X18196Y38996D01*
X17825Y37681D02*
Y38625D01*
X16806Y35831D02*
X17800D01*
X23084Y28503D02*
X24107D01*
X22775Y28193D02*
X23084Y28503D01*
X22775Y27835D02*
Y28193D01*
X24009Y37829D02*
X24107Y37731D01*
X23001Y37829D02*
X24009D01*
X22779Y37607D02*
X23001Y37829D01*
X22779Y37187D02*
Y37607D01*
X23204Y47916D02*
X24107D01*
X22934Y47646D02*
X23204Y47916D01*
X22934Y47173D02*
Y47646D01*
X16107Y28453D02*
X17825D01*
X16003Y28349D02*
X16107Y28453D01*
X16003Y27965D02*
Y28349D01*
X17692Y37813D02*
X17825Y37681D01*
X16281Y37813D02*
X17692D01*
X16281Y36356D02*
X16806Y35831D01*
X16281Y36356D02*
Y37065D01*
X44618Y37272D02*
Y37868D01*
X44199Y38287D02*
X44618Y37868D01*
X36020Y38110D02*
X36817D01*
X35631Y37721D02*
X36020Y38110D01*
X34707Y37721D02*
X35631D01*
X44683Y22784D02*
X45096D01*
X44228Y23238D02*
X44683Y22784D01*
X46007Y22130D02*
X46684D01*
X45353Y22784D02*
X46007Y22130D01*
X46217Y22440D02*
X46684D01*
X46020Y22638D02*
X46217Y22440D01*
X48215Y26398D02*
X49061D01*
X46471Y24654D02*
X48215Y26398D01*
X46471Y24637D02*
Y24654D01*
Y23808D02*
Y24637D01*
X42328Y34075D02*
X44533D01*
X42294Y34041D02*
X42328Y34075D01*
X42621Y39386D02*
Y39678D01*
X42392Y39157D02*
X42621Y39386D01*
X40228Y39157D02*
X42392D01*
X38667Y40718D02*
X40228Y39157D01*
X44840Y38898D02*
X45621Y39678D01*
X39750Y38898D02*
X44840D01*
X38426Y40221D02*
X39750Y38898D01*
X43077Y38563D02*
X43618Y38021D01*
X39593Y38563D02*
X43077D01*
X38434Y39721D02*
X39593Y38563D01*
X42398Y38209D02*
X42618Y37988D01*
X42398Y38061D02*
Y38209D01*
X41364Y38169D02*
X41668Y37865D01*
X39445Y38169D02*
X41364D01*
X38393Y39221D02*
X39445Y38169D01*
X34327Y40718D02*
X38667D01*
X33963Y40354D02*
X34327Y40718D01*
X33963Y38366D02*
Y40354D01*
Y38366D02*
X34107Y38221D01*
X34707*
X40131Y39678D02*
X41621D01*
X38756Y41053D02*
X40131Y39678D01*
X34248Y41053D02*
X38756D01*
X32916Y39721D02*
X34248Y41053D01*
X32582Y39721D02*
X32916D01*
X43646Y41529D02*
X43677Y41498D01*
Y40197D02*
Y41498D01*
X44228Y23238D02*
Y26398D01*
X45715*
X46020Y23356D02*
X46471Y23808D01*
X45638Y24637D02*
X46471D01*
X45096Y22784D02*
X45353D01*
X46020Y22638D02*
Y23356D01*
X42618Y37272D02*
Y37988D01*
X34707Y37221D02*
X36656D01*
X39810Y37272D02*
X40618D01*
X38361Y38721D02*
X39810Y37272D01*
X34707Y38721D02*
X38361D01*
X41668Y37272D02*
Y37865D01*
X34707Y39221D02*
X38393D01*
X43618Y37272D02*
Y38021D01*
X34707Y39721D02*
X38434D01*
X34707Y40221D02*
X38426D01*
X43646Y41529D02*
X44607Y42490D01*
X46325*
X46709Y42874*
Y44104*
X43646Y50451D02*
X44051Y50856D01*
X43646Y49210D02*
Y50451D01*
X47444Y42215D02*
Y49000D01*
Y34041D02*
Y42215D01*
X44809D02*
X47444D01*
X44646Y42052D02*
X44809Y42215D01*
X46094Y50350D02*
X47444Y49000D01*
X40445Y41529D02*
X40646D01*
X38165Y43809D02*
X40445Y41529D01*
X36571Y43809D02*
X38165D01*
X39012Y48297D02*
X39924Y49210D01*
X40646*
X44618Y45072D02*
Y45663D01*
X44169Y46112D02*
X44618Y45663D01*
X34757Y45402D02*
X36185D01*
X42618Y45072D02*
Y45153D01*
X42073Y45699D02*
X42618Y45153D01*
X38763Y46181D02*
X43113D01*
X43668Y45626*
X37543Y47402D02*
X38763Y46181D01*
X44798Y46555D02*
X45621Y47378D01*
X38839Y46555D02*
X44798D01*
X37493Y47902D02*
X38839Y46555D01*
X38966Y46886D02*
X42621D01*
X37260Y48593D02*
X38966Y46886D01*
X34757Y44902D02*
X37102D01*
X32631Y47402D02*
X33293D01*
X33703Y47811*
Y48316*
X34239Y48852*
X37367*
X38842Y47378*
X41621*
X34252Y45902D02*
X34757D01*
X33963Y46191D02*
X34252Y45902D01*
X33963Y46191D02*
Y48209D01*
X34346Y48593*
X37260*
X42621Y46886D02*
Y47378D01*
X42569Y27476D02*
X42704Y27340D01*
X42569Y27476D02*
Y28776D01*
X47819Y33057D02*
X48805D01*
X42669D02*
X43755D01*
X37369D02*
X38505D01*
X44618Y35557D02*
X44646Y35529D01*
X44618Y35557D02*
Y36524D01*
X43618Y35557D02*
X43646Y35529D01*
X43618Y35557D02*
Y36524D01*
X42618Y35557D02*
X42646Y35529D01*
X42618Y35557D02*
Y36524D01*
X41646Y35529D02*
X41668Y35552D01*
Y36524*
X40618Y35557D02*
X40646Y35529D01*
X40618Y35557D02*
Y36524D01*
X41621Y40426D02*
X41646Y40451D01*
Y41529*
X42621Y40426D02*
X42646Y40451D01*
Y41529*
X45621Y40426D02*
X45646Y40451D01*
Y41529*
X44646D02*
Y42052D01*
X44944Y50350D02*
X46094D01*
X44646Y50052D02*
X44944Y50350D01*
X44646Y49210D02*
Y50052D01*
X34757Y47902D02*
X37493D01*
X43668Y45072D02*
Y45626D01*
X34757Y47402D02*
X37543D01*
X41668Y45072D02*
Y45476D01*
X41394Y45750D02*
X41668Y45476D01*
X38694Y45750D02*
X41394D01*
X37543Y46902D02*
X38694Y45750D01*
X34757Y46902D02*
X37543D01*
X38822Y45072D02*
X40668D01*
X37493Y46402D02*
X38822Y45072D01*
X34757Y46402D02*
X37493D01*
X44618Y43237D02*
X44646Y43210D01*
X44618Y43237D02*
Y44324D01*
X43646Y43210D02*
X43668Y43232D01*
Y44324*
X42618Y43237D02*
X42646Y43210D01*
X42618Y43237D02*
Y44324D01*
X41646Y43210D02*
X41668Y43232D01*
Y44324*
X40646Y43210D02*
X40668Y43232D01*
Y44324*
X45621Y48126D02*
X45646Y48151D01*
Y49210*
X42621Y48126D02*
X42646Y48151D01*
Y49210*
X41621Y48126D02*
X41646Y48151D01*
Y49210*
X37618Y24776D02*
X39269D01*
X36954Y25440D02*
X37618Y24776D01*
X36954Y25440D02*
Y26090D01*
X40384Y15260D02*
X42454D01*
X40120Y15524D02*
X40384Y15260D01*
X40120Y15524D02*
Y16074D01*
X41734Y13540D02*
X42454D01*
X41494Y13300D02*
X41734Y13540D01*
G54D27*
X21221Y21939D03*
X13347D03*
X21792Y30959D03*
X13918D03*
X21694Y40624D03*
X13820D03*
X56394Y27400D03*
Y33200D03*
Y38950D03*
Y44800D03*
G54D28*
X9087Y26656D03*
Y49419D03*
G54D29*
X9087Y29907D03*
Y33159D03*
Y36411D03*
Y39663D03*
Y42915D03*
Y46167D03*
G54D30*
X40646Y43210D03*
Y35529D03*
G54D31*
X41646Y43210D03*
X42646D03*
X43646D03*
X44646D03*
X45646D03*
X40646Y49210D03*
X41646D03*
X42646D03*
X43646D03*
X44646D03*
X45646D03*
X41646Y35529D03*
X42646D03*
X43646D03*
X44646D03*
X45646D03*
X40646Y41529D03*
X41646D03*
X42646D03*
X43646D03*
X44646D03*
X45646D03*
G54D32*
X14202Y13571D03*
X15776D03*
X17351D03*
X18926D03*
G54D33*
X7513Y15041D03*
G54D34*
X7513Y17010D03*
G54D35*
X53644Y14850D03*
X52644D03*
X51644D03*
X50644D03*
X49644D03*
G54D36*
X48644Y14850D03*
G54D37*
X56394Y28400D03*
Y34200D03*
Y39950D03*
Y45800D03*
G54D38*
X43229Y24053D03*
X30695Y45925D03*
X31981Y45427D03*
X53229Y24837D03*
X18351Y29581D03*
X29064Y25360D03*
X22332Y45325D03*
X18278Y49238D03*
X51459Y38508D03*
X28678Y30654D03*
X28156Y33809D03*
X28148Y41846D03*
X28869Y43012D03*
X38030Y15431D03*
X41800Y10815D03*
X29131Y26976D03*
X19757Y18701D03*
Y14982D03*
X35745Y35656D03*
X33790Y19297D03*
X22580Y26177D03*
X22615Y35146D03*
X18196Y38996D03*
X38352Y18543D03*
X55744Y21929D03*
X44199Y38287D03*
X36817Y38110D03*
X44750Y25600D03*
X44647Y21826D03*
X31935Y26417D03*
X29848Y37352D03*
X45035Y20197D03*
X44317Y18632D03*
X51541Y18789D03*
X41591Y24144D03*
X52220Y18386D03*
X49632Y16191D03*
X54140Y19400D03*
X32811Y25315D03*
X47250Y24823D03*
X31827Y46902D03*
X31728Y39488D03*
X30764Y38376D03*
X31807Y37721D03*
X49150Y25364D03*
X47998Y24724D03*
X33766Y34990D03*
X34757Y42901D03*
X53244Y36270D03*
X49376Y31644D03*
X44533Y34075D03*
X31718Y43268D03*
X42398Y38061D03*
X43677Y40197D03*
X36656Y37221D03*
X46709Y44104D03*
X44051Y50856D03*
X36571Y43809D03*
X39012Y48297D03*
X44169Y46112D03*
X36185Y45402D03*
X42073Y45699D03*
X37102Y44902D03*
X55420Y36926D03*
X53794Y23600D03*
X55420Y30926D03*
X54344Y22800D03*
X55344Y25526D03*
G54D39*
X57906Y51065D03*
Y8939D03*
X3182D03*
Y51065D03*
G54D40*
X16281Y37065D03*
Y37813D03*
X22773Y43484D03*
Y42736D03*
X22379Y33209D03*
Y33957D03*
X21395Y24154D03*
Y24902D03*
X22775Y27835D03*
Y27087D03*
X16003Y27965D03*
Y27217D03*
X22779Y37187D03*
Y36439D03*
X16294Y47876D03*
Y47128D03*
X22934Y47173D03*
Y46425D03*
X29286Y18947D03*
Y19695D03*
X33821Y27226D03*
Y26478D03*
X45096Y23532D03*
Y22784D03*
X45543Y21078D03*
Y21826D03*
X45621Y48126D03*
Y47378D03*
X42621Y48126D03*
Y47378D03*
X41621Y48126D03*
Y47378D03*
X42618Y44324D03*
Y45072D03*
X41668Y44324D03*
Y45072D03*
X43668Y44324D03*
Y45072D03*
X44618Y44324D03*
Y45072D03*
X40668Y44324D03*
Y45072D03*
X45621Y40426D03*
Y39678D03*
X42621Y40426D03*
Y39678D03*
X41621Y40426D03*
Y39678D03*
X43618Y36524D03*
Y37272D03*
X44618Y36524D03*
Y37272D03*
X42618Y36524D03*
Y37272D03*
X41668Y36524D03*
Y37272D03*
X40618Y36524D03*
Y37272D03*
X53056Y21232D03*
Y20484D03*
X56421Y24778D03*
Y25526D03*
X56371Y42228D03*
Y42976D03*
Y36178D03*
Y36926D03*
X56421Y30178D03*
Y30926D03*
G54D41*
X17825Y35831D03*
Y37681D03*
Y26603D03*
Y28453D03*
Y47866D03*
Y46016D03*
G54D42*
X20575Y36731D03*
Y27503D03*
Y46916D03*
G54D43*
X40397Y13265D03*
X39653Y13267D03*
X40023Y14249D03*
X40769Y28558D03*
X40024Y28560D03*
X40394Y29542D03*
X37369Y33057D03*
X36624Y33059D03*
X36994Y34041D03*
X47819Y33057D03*
X47074Y33059D03*
X47444Y34041D03*
X42669Y33057D03*
X41924Y33059D03*
X42294Y34041D03*
G54D44*
X35439Y27980D03*
X35441Y28724D03*
X36423Y28354D03*
G54D45*
X22076Y16937D03*
Y14929D03*
X25324Y16937D03*
Y14929D03*
G54D46*
X27355Y26486D03*
Y28486D03*
Y27486D03*
X24107Y26486D03*
Y28486D03*
Y27486D03*
X27355Y45916D03*
Y47916D03*
Y46916D03*
X24107Y45916D03*
Y47916D03*
Y46916D03*
X27355Y35731D03*
Y37731D03*
Y36731D03*
X24107Y35731D03*
Y37731D03*
Y36731D03*
G54D47*
X27790Y21925D03*
Y20925D03*
X23971D03*
Y21925D03*
G54D48*
X39269Y24776D03*
X40017D03*
X49570Y33074D03*
X48822D03*
X44890Y24637D03*
X45638D03*
X34022Y13451D03*
X34770D03*
X45167Y28776D03*
X44419D03*
X44483Y10852D03*
X43734D03*
X35120Y23401D03*
X34372D03*
X32172Y23374D03*
X32920D03*
X38522Y33074D03*
X39270D03*
X43772D03*
X44520D03*
X39372Y16074D03*
X40120D03*
X43317Y28776D03*
X42569D03*
G54D49*
X36954Y26090D03*
X35234D03*
X40984Y27340D03*
X42704D03*
G54D50*
X32438Y20250D03*
Y22050D03*
G54D51*
X35351Y21150D03*
G54D52*
X32582Y36721D03*
Y37221D03*
Y37721D03*
Y38221D03*
Y38721D03*
Y39221D03*
Y39721D03*
Y40221D03*
X34707Y36721D03*
Y37221D03*
Y37721D03*
Y38221D03*
Y38721D03*
Y39221D03*
Y39721D03*
Y40221D03*
X32631Y44402D03*
Y44902D03*
Y45402D03*
Y45902D03*
Y46402D03*
Y46902D03*
Y47402D03*
Y47902D03*
X34757Y44402D03*
Y44902D03*
Y45402D03*
Y45902D03*
Y46402D03*
Y46902D03*
Y47402D03*
Y47902D03*
G54D53*
X36107Y16400D03*
X32682D03*
X38382Y21350D03*
X41807D03*
G54D54*
X42454Y15260D03*
Y13540D03*
G54D55*
X51204Y23070D03*
Y22760D03*
Y22440D03*
Y22130D03*
Y21810D03*
Y21500D03*
Y21190D03*
Y20870D03*
Y20560D03*
Y20240D03*
Y19930D03*
X46684D03*
Y20240D03*
Y20560D03*
Y20870D03*
Y21190D03*
Y21500D03*
Y21810D03*
Y22130D03*
Y22440D03*
Y22760D03*
Y23070D03*
G54D56*
X50514Y19240D03*
X50204D03*
X49884D03*
X49574D03*
X49254D03*
X48944D03*
X48634D03*
X48314D03*
X48004D03*
X47684D03*
X47374D03*
Y23760D03*
X47684D03*
X48004D03*
X48314D03*
X48634D03*
X48944D03*
X49254D03*
X49574D03*
X49884D03*
X50204D03*
X50514D03*
G54D57*
X49061Y26398D03*
X45715D03*
G54D58*
X13347Y21939D02*
Y22125D01*
X11288Y30959D02*
X13918D01*
X14402*
X17825Y34381*
Y35831*
X12859Y39663D02*
X13820Y40624D01*
X9087Y39663D02*
X12859D01*
X13812Y40632D02*
X13820Y40624D01*
X13812Y40632D02*
Y42003D01*
X16617Y26603D02*
X17825D01*
X16003Y27217D02*
X16617Y26603D01*
X20990Y27087D02*
X21395Y26682D01*
X20575Y27503D02*
X20990Y27087D01*
X20575Y43585D02*
Y46916D01*
Y36731D02*
Y43585D01*
X20675Y43484*
X22773*
X13812Y42003D02*
X17825Y46016D01*
X20575Y34018D02*
Y36731D01*
Y27503D02*
Y34018D01*
X7513Y15041D02*
X7570Y14984D01*
X7513Y17010D02*
X7570Y16953D01*
X9087Y33159D02*
X11288Y30959D01*
X13347Y22125D02*
X17825Y26603D01*
X9649Y27217D02*
X16003D01*
X9087Y26656D02*
X9649Y27217D01*
X7158Y31837D02*
X9087Y29907D01*
X7158Y31837D02*
Y34482D01*
X9087Y36411*
X6922Y38577D02*
X9087Y36411D01*
X6922Y38577D02*
Y40750D01*
X9087Y42915*
Y46167*
Y49419D02*
X10615Y50947D01*
X19217*
X20575Y46916D02*
Y49590D01*
X19217Y50947D02*
X20575Y49590D01*
X7570Y16953D02*
X15424D01*
X7570Y14984D02*
X15202D01*
X20627Y16957D02*
X20646Y16937D01*
X22076*
X15424Y16953D02*
X17351Y15026D01*
X15420Y16957D02*
X15424Y16953D01*
X15420Y16957D02*
X20627D01*
X20070Y11671D02*
X21979Y13581D01*
X15776Y12559D02*
Y13571D01*
Y12559D02*
X16664Y11671D01*
X20070*
X15776Y13571D02*
Y14409D01*
X15202Y14984D02*
X15776Y14409D01*
X17351Y13571D02*
Y15026D01*
G54D59*
X21221Y21939D02*
X21395Y22113D01*
Y24154*
X21792Y30959D02*
X22379Y31546D01*
Y33209*
X21694Y40624D02*
X22773Y41703D01*
Y42736*
G54D60*
X52493Y21226D02*
X53062D01*
X29286Y19695D02*
Y21211D01*
X28572Y21925D02*
X29286Y21211D01*
X27790Y21925D02*
X28572D01*
X39644Y13258D02*
X39653Y13267D01*
X39644Y12350D02*
Y13258D01*
X55216Y20484D02*
X57344Y22613D01*
G54D61*
X30884Y44904D02*
X32631D01*
X31067Y47902D02*
X32631D01*
X30651Y40221D02*
X32581D01*
X30641D02*
X30651D01*
X33648Y37234D02*
X34160Y36721D01*
X34707*
X34757Y42867D02*
Y42901D01*
X33648Y37234D02*
Y38346D01*
X33273Y38721D02*
X33648Y38346D01*
X44890Y24637D02*
Y25461D01*
X44750Y25600D02*
X44890Y25461D01*
X44647Y21826D02*
X45543D01*
X43676Y21350D02*
X43825Y21499D01*
Y26591*
X45167Y27933*
Y28776*
X33760Y26417D02*
X33821Y26478D01*
X32581Y40221D02*
X32582D01*
Y38721D02*
X33273D01*
X34266Y44402D02*
X34757D01*
X33825Y44843D02*
X34266Y44402D01*
X33825Y44843D02*
Y45797D01*
X33220Y46402D02*
X33825Y45797D01*
X32631Y46402D02*
X33220D01*
G54D62*
X3819Y16203D02*
X3032D01*
Y16596*
X3163Y16728*
X3688*
X3819Y16596*
Y16203*
X3032Y17383D02*
Y17121D01*
X3163Y16990*
X3426*
X3557Y17121*
Y17383*
X3426Y17515*
X3295*
Y16990*
X3032Y17777D02*
Y18171D01*
X3163Y18302*
X3295Y18171*
Y17908*
X3426Y17777*
X3557Y17908*
Y18302*
X3032Y18564D02*
Y18827D01*
Y18695*
X3557*
Y18564*
X2770Y19483D02*
Y19614D01*
X2901Y19745*
X3557*
Y19351*
X3426Y19220*
X3163*
X3032Y19351*
Y19745*
Y20007D02*
X3557D01*
Y20401*
X3426Y20532*
X3032*
Y21188D02*
Y20926D01*
X3163Y20794*
X3426*
X3557Y20926*
Y21188*
X3426Y21319*
X3295*
Y20794*
X3819Y22106D02*
X3032D01*
Y21713*
X3163Y21582*
X3426*
X3557Y21713*
Y22106*
X3819Y23156D02*
X3032D01*
Y23549*
X3163Y23681*
X3295*
X3426*
X3557Y23549*
Y23156*
Y23943D02*
X3163D01*
X3032Y24074*
Y24468*
X2901*
X2770Y24337*
Y24205*
X3032Y24468D02*
X3557D01*
X3819Y25517D02*
Y25780D01*
Y25649*
X3032*
Y25517*
Y25780*
Y26173D02*
X3819D01*
X3032Y26698*
X3819*
Y26960D02*
Y27485D01*
Y27223*
X3032*
M02*