%FSTAX23Y23*%
%MOIN*%
%SFA1B1*%

%IPPOS*%
%ADD81C,0.002000*%
%ADD82C,0.002700*%
%LNpcb_washver2-1*%
%LPD*%
G54D81*
X02114Y02185D02*
Y02201D01*
X0213*
Y02185*
X02114*
X01326D02*
Y02201D01*
X01342*
Y02185*
X01326*
X02171Y03087D02*
Y03103D01*
X02187*
Y03087*
X02171*
X01383D02*
Y03103D01*
X01399*
Y03087*
X01383*
X02161Y04054D02*
Y0407D01*
X02177*
Y04054*
X02161*
X01374D02*
Y0407D01*
X0139*
Y04054*
X01374*
X04064Y04313D02*
X04056Y04329D01*
X04072*
X04064Y04313*
X04164D02*
X04156Y04329D01*
X04172*
X04164Y04313*
X04264D02*
X04256Y04329D01*
X04272*
X04264Y04313*
X04364D02*
X04356Y04329D01*
X04372*
X04364Y04313*
X04464D02*
X04456Y04329D01*
X04472*
X04464Y04313*
X04564D02*
X04556Y04329D01*
X04572*
X04564Y04313*
X04064Y04913D02*
X04056Y04929D01*
X04072*
X04064Y04913*
X04164D02*
X04156Y04929D01*
X04172*
X04164Y04913*
X04264D02*
X04256Y04929D01*
X04272*
X04264Y04913*
X04364D02*
X04356Y04929D01*
X04372*
X04364Y04913*
X04464D02*
X04456Y04929D01*
X04472*
X04464Y04913*
X04564D02*
X04556Y04929D01*
X04572*
X04564Y04913*
X04064Y03544D02*
X04056Y0356D01*
X04072*
X04064Y03544*
X04164D02*
X04156Y0356D01*
X04172*
X04164Y03544*
X04264D02*
X04256Y0356D01*
X04272*
X04264Y03544*
X04364D02*
X04356Y0356D01*
X04372*
X04364Y03544*
X04464D02*
X04456Y0356D01*
X04472*
X04464Y03544*
X04564D02*
X04556Y0356D01*
X04572*
X04564Y03544*
X04064Y04144D02*
X04056Y0416D01*
X04072*
X04064Y04144*
X04164D02*
X04156Y0416D01*
X04172*
X04164Y04144*
X04264D02*
X04256Y0416D01*
X04272*
X04264Y04144*
X04364D02*
X04356Y0416D01*
X04372*
X04364Y04144*
X04464D02*
X04456Y0416D01*
X04472*
X04464Y04144*
X04564D02*
X04556Y0416D01*
X04572*
X04564Y04144*
X0142Y01349D02*
X01424Y01353D01*
X01428*
X01424Y01357*
X01428Y01361*
X01424*
X0142Y01365*
X01416Y01361*
X01412*
X01416Y01357*
X01412Y01353*
X01416*
X0142Y01349*
X01569D02*
X01573Y01357D01*
X01569Y01365*
X01577Y01361*
X01585Y01365*
X01581Y01357*
X01585Y01349*
X01577Y01353*
X01569Y01349*
X01727D02*
X01731Y01357D01*
X01727Y01365*
X01735Y01361*
X01743Y01365*
X01739Y01357*
X01743Y01349*
X01735Y01353*
X01727Y01349*
X01884D02*
X01888Y01357D01*
X01884Y01365*
X01892Y01361*
X019Y01365*
X01896Y01357*
X019Y01349*
X01892Y01353*
X01884Y01349*
X00751Y01496D02*
X00755Y015D01*
X00759*
X00755Y01504*
X00759Y01508*
X00755*
X00751Y01512*
X00747Y01508*
X00743*
X00747Y01504*
X00743Y015*
X00747*
X00751Y01496*
Y01693D02*
X00755Y01697D01*
X00759*
X00755Y01701*
X00759Y01705*
X00755*
X00751Y01709*
X00747Y01705*
X00743*
X00747Y01701*
X00743Y01697*
X00747*
X00751Y01693*
X0536Y01481D02*
Y01477D01*
X05368*
Y01481*
X05372*
Y01489*
X05368*
Y01493*
X0536*
Y01489*
X05356*
Y01481*
X0536*
X0526D02*
Y01477D01*
X05268*
Y01481*
X05272*
Y01489*
X05268*
Y01493*
X0526*
Y01489*
X05256*
Y01481*
X0526*
X0516D02*
Y01477D01*
X05168*
Y01481*
X05172*
Y01489*
X05168*
Y01493*
X0516*
Y01489*
X05156*
Y01481*
X0516*
X0506D02*
Y01477D01*
X05068*
Y01481*
X05072*
Y01489*
X05068*
Y01493*
X0506*
Y01489*
X05056*
Y01481*
X0506*
X0496D02*
Y01477D01*
X04968*
Y01481*
X04972*
Y01489*
X04968*
Y01493*
X0496*
Y01489*
X04956*
Y01481*
X0496*
X0486D02*
Y01477D01*
X04868*
Y01481*
X04872*
Y01489*
X04868*
Y01493*
X0486*
Y01489*
X04856*
Y01481*
X0486*
X05639Y02832D02*
X05631Y02848D01*
X05647*
X05639Y02832*
Y02732D02*
X05631Y02748D01*
X05647*
X05639Y02732*
Y03412D02*
X05631Y03428D01*
X05647*
X05639Y03412*
Y03312D02*
X05631Y03328D01*
X05647*
X05639Y03312*
Y03987D02*
X05631Y04003D01*
X05647*
X05639Y03987*
Y03887D02*
X05631Y03903D01*
X05647*
X05639Y03887*
Y04572D02*
X05631Y04588D01*
X05647*
X05639Y04572*
Y04472D02*
X05631Y04488D01*
X05647*
X05639Y04472*
X04322Y02397D02*
X04314Y02413D01*
X0433*
X04322Y02397*
X03069Y04584D02*
X03061Y046D01*
X03077*
X03069Y04584*
X03198Y04534D02*
X0319Y0455D01*
X03206*
X03198Y04534*
X05322Y02475D02*
X05314Y02491D01*
X0533*
X05322Y02475*
X05782Y05098D02*
X05786D01*
X0579Y05102*
X05794Y05098*
X05798*
Y05102*
X05794Y05106*
X05798Y0511*
Y05114*
X05794*
X0579Y0511*
X05786Y05114*
X05782*
Y0511*
X05786Y05106*
X05782Y05102*
Y05098*
Y00885D02*
X05786D01*
X0579Y00889*
X05794Y00885*
X05798*
Y00889*
X05794Y00893*
X05798Y00897*
Y00901*
X05794*
X0579Y00897*
X05786Y00901*
X05782*
Y00897*
X05786Y00893*
X05782Y00889*
Y00885*
X0031D02*
X00314D01*
X00318Y00889*
X00322Y00885*
X00326*
Y00889*
X00322Y00893*
X00326Y00897*
Y00901*
X00322*
X00318Y00897*
X00314Y00901*
X0031*
Y00897*
X00314Y00893*
X0031Y00889*
Y00885*
Y05098D02*
X00314D01*
X00318Y05102*
X00322Y05098*
X00326*
Y05102*
X00322Y05106*
X00326Y0511*
Y05114*
X00322*
X00318Y0511*
X00314Y05114*
X0031*
Y0511*
X00314Y05106*
X0031Y05102*
Y05098*
X01835Y0295D02*
X01827Y02966D01*
X01843*
X01835Y0295*
X02906Y02528D02*
X02898Y02544D01*
X02914*
X02906Y02528*
X02233Y04524D02*
X02225Y0454D01*
X02241*
X02233Y04524*
X01827Y04915D02*
X01819Y04931D01*
X01835*
X01827Y04915*
X05145Y03842D02*
X05137Y03858D01*
X05153*
X05145Y03842*
X02867Y03057D02*
X02859Y03073D01*
X02875*
X02867Y03057*
X02815Y03372D02*
X02807Y03388D01*
X02823*
X02815Y03372*
X02814Y04176D02*
X02806Y04192D01*
X02822*
X02814Y04176*
X02886Y04293D02*
X02878Y04309D01*
X02894*
X02886Y04293*
X03803Y01535D02*
X03795Y01551D01*
X03811*
X03803Y01535*
X0418Y01073D02*
X04172Y01089D01*
X04188*
X0418Y01073*
X02913Y02689D02*
X02905Y02705D01*
X02921*
X02913Y02689*
X01975Y01862D02*
X01967Y01878D01*
X01983*
X01975Y01862*
Y0149D02*
X01967Y01506D01*
X01983*
X01975Y0149*
X03574Y03557D02*
X03566Y03573D01*
X03582*
X03574Y03557*
X03379Y01921D02*
X03371Y01937D01*
X03387*
X03379Y01921*
X02258Y02609D02*
X0225Y02625D01*
X02266*
X02258Y02609*
X02261Y03506D02*
X02253Y03522D01*
X02269*
X02261Y03506*
X01819Y03891D02*
X01811Y03907D01*
X01827*
X01819Y03891*
X03835Y01846D02*
X03827Y01862D01*
X03843*
X03835Y01846*
X05574Y02184D02*
X05566Y022D01*
X05582*
X05574Y02184*
X04419Y0382D02*
X04411Y03836D01*
X04427*
X04419Y0382*
X03681Y03803D02*
X03673Y03819D01*
X03689*
X03681Y03803*
X04475Y02552D02*
X04467Y02568D01*
X04483*
X04475Y02552*
X04464Y02174D02*
X04456Y0219D01*
X04472*
X04464Y02174*
X03193Y02633D02*
X03185Y02649D01*
X03201*
X03193Y02633*
X02984Y03727D02*
X02976Y03743D01*
X02992*
X02984Y03727*
X04503Y02011D02*
X04495Y02027D01*
X04511*
X04503Y02011*
X04431Y01855D02*
X04423Y01871D01*
X04439*
X04431Y01855*
X05154Y0187D02*
X05146Y01886D01*
X05162*
X05154Y0187*
X04159Y02406D02*
X04151Y02422D01*
X04167*
X04159Y02406*
X05222Y0183D02*
X05214Y01846D01*
X0523*
X05222Y0183*
X04963Y01611D02*
X04955Y01627D01*
X04971*
X04963Y01611*
X05414Y01932D02*
X05406Y01948D01*
X05422*
X05414Y01932*
X03281Y02523D02*
X03273Y02539D01*
X03289*
X03281Y02523*
X04725Y02474D02*
X04717Y0249D01*
X04733*
X04725Y02474*
X03182Y04682D02*
X03174Y04698D01*
X0319*
X03182Y04682*
X03172Y0394D02*
X03164Y03956D01*
X0318*
X03172Y0394*
X03076Y03829D02*
X03068Y03845D01*
X03084*
X03076Y03829*
X0318Y03764D02*
X03172Y0378D01*
X03188*
X0318Y03764*
X04915Y02528D02*
X04907Y02544D01*
X04923*
X04915Y02528*
X04799Y02464D02*
X04791Y0248D01*
X04807*
X04799Y02464*
X03376Y03491D02*
X03368Y03507D01*
X03384*
X03376Y03491*
X03475Y04282D02*
X03467Y04298D01*
X03483*
X03475Y04282*
X05324Y03619D02*
X05316Y03635D01*
X05332*
X05324Y03619*
X04937Y03156D02*
X04929Y03172D01*
X04945*
X04937Y03156*
X04453Y03399D02*
X04445Y03415D01*
X04461*
X04453Y03399*
X03171Y04318D02*
X03163Y04334D01*
X03179*
X03171Y04318*
X04239Y03798D02*
X04231Y03814D01*
X04247*
X04239Y03798*
X04367Y04011D02*
X04359Y04027D01*
X04375*
X04367Y04011*
X03665Y03714D02*
X03657Y0373D01*
X03673*
X03665Y03714*
X0467Y04402D02*
X04662Y04418D01*
X04678*
X0467Y04402*
X04405Y05077D02*
X04397Y05093D01*
X04413*
X04405Y05077*
X03657Y04372D02*
X03649Y04388D01*
X03665*
X03657Y04372*
X03901Y04821D02*
X03893Y04837D01*
X03909*
X03901Y04821*
X04416Y04603D02*
X04408Y04619D01*
X04424*
X04416Y04603*
X03618Y04532D02*
X0361Y04548D01*
X03626*
X03618Y04532*
X04207Y04561D02*
X04199Y04577D01*
X04215*
X04207Y04561*
X0371Y04482D02*
X03702Y04498D01*
X03718*
X0371Y04482*
X05542Y03684D02*
X05534Y037D01*
X0555*
X05542Y03684*
X05379Y02352D02*
X05371Y02368D01*
X05387*
X05379Y02352*
X05542Y03084D02*
X05534Y031D01*
X0555*
X05542Y03084*
X05434Y02272D02*
X05426Y02288D01*
X05442*
X05434Y02272*
X05534Y02544D02*
X05526Y0256D01*
X05542*
X05534Y02544*
G54D82*
X00916Y02665D02*
D01*
X00916Y02666*
X00916Y02666*
X00916Y02667*
X00916Y02667*
X00916Y02668*
X00916Y02668*
X00915Y02669*
X00915Y02669*
X00915Y0267*
X00914Y0267*
X00914Y02671*
X00914Y02671*
X00913Y02671*
X00913Y02672*
X00912Y02672*
X00912Y02672*
X00911Y02673*
X00911Y02673*
X0091Y02673*
X0091Y02673*
X00909Y02673*
X00908Y02673*
X00908*
X00907Y02673*
X00907Y02673*
X00906Y02673*
X00906Y02673*
X00905Y02673*
X00905Y02672*
X00904Y02672*
X00904Y02672*
X00903Y02671*
X00903Y02671*
X00902Y02671*
X00902Y0267*
X00902Y0267*
X00901Y02669*
X00901Y02669*
X00901Y02668*
X00901Y02668*
X00901Y02667*
X009Y02667*
X009Y02666*
X009Y02666*
X009Y02665*
X009Y02665*
X009Y02664*
X009Y02663*
X00901Y02663*
X00901Y02662*
X00901Y02662*
X00901Y02661*
X00901Y02661*
X00902Y0266*
X00902Y0266*
X00902Y0266*
X00903Y02659*
X00903Y02659*
X00904Y02658*
X00904Y02658*
X00905Y02658*
X00905Y02658*
X00906Y02657*
X00906Y02657*
X00907Y02657*
X00907Y02657*
X00908Y02657*
X00908*
X00909Y02657*
X0091Y02657*
X0091Y02657*
X00911Y02657*
X00911Y02658*
X00912Y02658*
X00912Y02658*
X00913Y02658*
X00913Y02659*
X00914Y02659*
X00914Y0266*
X00914Y0266*
X00915Y0266*
X00915Y02661*
X00915Y02661*
X00916Y02662*
X00916Y02662*
X00916Y02663*
X00916Y02663*
X00916Y02664*
X00916Y02665*
X00916Y02665*
Y0299D02*
D01*
X00916Y02991*
X00916Y02991*
X00916Y02992*
X00916Y02992*
X00916Y02993*
X00916Y02993*
X00915Y02994*
X00915Y02994*
X00915Y02995*
X00914Y02995*
X00914Y02996*
X00914Y02996*
X00913Y02997*
X00913Y02997*
X00912Y02997*
X00912Y02997*
X00911Y02998*
X00911Y02998*
X0091Y02998*
X0091Y02998*
X00909Y02998*
X00908Y02998*
X00908*
X00907Y02998*
X00907Y02998*
X00906Y02998*
X00906Y02998*
X00905Y02998*
X00905Y02997*
X00904Y02997*
X00904Y02997*
X00903Y02997*
X00903Y02996*
X00902Y02996*
X00902Y02995*
X00902Y02995*
X00901Y02994*
X00901Y02994*
X00901Y02993*
X00901Y02993*
X00901Y02992*
X009Y02992*
X009Y02991*
X009Y02991*
X009Y0299*
X009Y0299*
X009Y02989*
X009Y02989*
X00901Y02988*
X00901Y02987*
X00901Y02987*
X00901Y02986*
X00901Y02986*
X00902Y02985*
X00902Y02985*
X00902Y02985*
X00903Y02984*
X00903Y02984*
X00904Y02984*
X00904Y02983*
X00905Y02983*
X00905Y02983*
X00906Y02983*
X00906Y02982*
X00907Y02982*
X00907Y02982*
X00908Y02982*
X00908*
X00909Y02982*
X0091Y02982*
X0091Y02982*
X00911Y02983*
X00911Y02983*
X00912Y02983*
X00912Y02983*
X00913Y02984*
X00913Y02984*
X00914Y02984*
X00914Y02985*
X00914Y02985*
X00915Y02985*
X00915Y02986*
X00915Y02986*
X00916Y02987*
X00916Y02987*
X00916Y02988*
X00916Y02989*
X00916Y02989*
X00916Y0299*
X00916Y0299*
Y03315D02*
D01*
X00916Y03316*
X00916Y03317*
X00916Y03317*
X00916Y03318*
X00916Y03318*
X00916Y03319*
X00915Y03319*
X00915Y0332*
X00915Y0332*
X00914Y03321*
X00914Y03321*
X00914Y03321*
X00913Y03322*
X00913Y03322*
X00912Y03322*
X00912Y03323*
X00911Y03323*
X00911Y03323*
X0091Y03323*
X0091Y03323*
X00909Y03323*
X00908Y03323*
X00908*
X00907Y03323*
X00907Y03323*
X00906Y03323*
X00906Y03323*
X00905Y03323*
X00905Y03323*
X00904Y03322*
X00904Y03322*
X00903Y03322*
X00903Y03321*
X00902Y03321*
X00902Y03321*
X00902Y0332*
X00901Y0332*
X00901Y03319*
X00901Y03319*
X00901Y03318*
X00901Y03318*
X009Y03317*
X009Y03317*
X009Y03316*
X009Y03315*
X009Y03315*
X009Y03314*
X009Y03314*
X00901Y03313*
X00901Y03313*
X00901Y03312*
X00901Y03312*
X00901Y03311*
X00902Y03311*
X00902Y0331*
X00902Y0331*
X00903Y03309*
X00903Y03309*
X00904Y03309*
X00904Y03308*
X00905Y03308*
X00905Y03308*
X00906Y03308*
X00906Y03308*
X00907Y03308*
X00907Y03307*
X00908Y03307*
X00908*
X00909Y03307*
X0091Y03308*
X0091Y03308*
X00911Y03308*
X00911Y03308*
X00912Y03308*
X00912Y03308*
X00913Y03309*
X00913Y03309*
X00914Y03309*
X00914Y0331*
X00914Y0331*
X00915Y03311*
X00915Y03311*
X00915Y03312*
X00916Y03312*
X00916Y03313*
X00916Y03313*
X00916Y03314*
X00916Y03314*
X00916Y03315*
X00916Y03315*
Y03641D02*
D01*
X00916Y03641*
X00916Y03642*
X00916Y03642*
X00916Y03643*
X00916Y03643*
X00916Y03644*
X00915Y03644*
X00915Y03645*
X00915Y03645*
X00914Y03646*
X00914Y03646*
X00914Y03647*
X00913Y03647*
X00913Y03647*
X00912Y03648*
X00912Y03648*
X00911Y03648*
X00911Y03648*
X0091Y03648*
X0091Y03648*
X00909Y03649*
X00908Y03649*
X00908*
X00907Y03649*
X00907Y03648*
X00906Y03648*
X00906Y03648*
X00905Y03648*
X00905Y03648*
X00904Y03648*
X00904Y03647*
X00903Y03647*
X00903Y03647*
X00902Y03646*
X00902Y03646*
X00902Y03645*
X00901Y03645*
X00901Y03644*
X00901Y03644*
X00901Y03643*
X00901Y03643*
X009Y03642*
X009Y03642*
X009Y03641*
X009Y03641*
X009Y0364*
X009Y03639*
X009Y03639*
X00901Y03638*
X00901Y03638*
X00901Y03637*
X00901Y03637*
X00901Y03636*
X00902Y03636*
X00902Y03635*
X00902Y03635*
X00903Y03635*
X00903Y03634*
X00904Y03634*
X00904Y03634*
X00905Y03633*
X00905Y03633*
X00906Y03633*
X00906Y03633*
X00907Y03633*
X00907Y03633*
X00908Y03633*
X00908*
X00909Y03633*
X0091Y03633*
X0091Y03633*
X00911Y03633*
X00911Y03633*
X00912Y03633*
X00912Y03634*
X00913Y03634*
X00913Y03634*
X00914Y03635*
X00914Y03635*
X00914Y03635*
X00915Y03636*
X00915Y03636*
X00915Y03637*
X00916Y03637*
X00916Y03638*
X00916Y03638*
X00916Y03639*
X00916Y03639*
X00916Y0364*
X00916Y03641*
Y03966D02*
D01*
X00916Y03966*
X00916Y03967*
X00916Y03967*
X00916Y03968*
X00916Y03969*
X00916Y03969*
X00915Y0397*
X00915Y0397*
X00915Y03971*
X00914Y03971*
X00914Y03971*
X00914Y03972*
X00913Y03972*
X00913Y03972*
X00912Y03973*
X00912Y03973*
X00911Y03973*
X00911Y03973*
X0091Y03974*
X0091Y03974*
X00909Y03974*
X00908Y03974*
X00908*
X00907Y03974*
X00907Y03974*
X00906Y03974*
X00906Y03973*
X00905Y03973*
X00905Y03973*
X00904Y03973*
X00904Y03972*
X00903Y03972*
X00903Y03972*
X00902Y03971*
X00902Y03971*
X00902Y03971*
X00901Y0397*
X00901Y0397*
X00901Y03969*
X00901Y03969*
X00901Y03968*
X009Y03967*
X009Y03967*
X009Y03966*
X009Y03966*
X009Y03965*
X009Y03965*
X009Y03964*
X00901Y03964*
X00901Y03963*
X00901Y03963*
X00901Y03962*
X00901Y03962*
X00902Y03961*
X00902Y03961*
X00902Y0396*
X00903Y0396*
X00903Y03959*
X00904Y03959*
X00904Y03959*
X00905Y03959*
X00905Y03958*
X00906Y03958*
X00906Y03958*
X00907Y03958*
X00907Y03958*
X00908Y03958*
X00908*
X00909Y03958*
X0091Y03958*
X0091Y03958*
X00911Y03958*
X00911Y03958*
X00912Y03959*
X00912Y03959*
X00913Y03959*
X00913Y03959*
X00914Y0396*
X00914Y0396*
X00914Y03961*
X00915Y03961*
X00915Y03962*
X00915Y03962*
X00916Y03963*
X00916Y03963*
X00916Y03964*
X00916Y03964*
X00916Y03965*
X00916Y03965*
X00916Y03966*
Y04291D02*
D01*
X00916Y04292*
X00916Y04292*
X00916Y04293*
X00916Y04293*
X00916Y04294*
X00916Y04294*
X00915Y04295*
X00915Y04295*
X00915Y04296*
X00914Y04296*
X00914Y04297*
X00914Y04297*
X00913Y04297*
X00913Y04298*
X00912Y04298*
X00912Y04298*
X00911Y04298*
X00911Y04299*
X0091Y04299*
X0091Y04299*
X00909Y04299*
X00908Y04299*
X00908*
X00907Y04299*
X00907Y04299*
X00906Y04299*
X00906Y04299*
X00905Y04298*
X00905Y04298*
X00904Y04298*
X00904Y04298*
X00903Y04297*
X00903Y04297*
X00902Y04297*
X00902Y04296*
X00902Y04296*
X00901Y04295*
X00901Y04295*
X00901Y04294*
X00901Y04294*
X00901Y04293*
X009Y04293*
X009Y04292*
X009Y04292*
X009Y04291*
X009Y0429*
X009Y0429*
X009Y04289*
X00901Y04289*
X00901Y04288*
X00901Y04288*
X00901Y04287*
X00901Y04287*
X00902Y04286*
X00902Y04286*
X00902Y04285*
X00903Y04285*
X00903Y04285*
X00904Y04284*
X00904Y04284*
X00905Y04284*
X00905Y04284*
X00906Y04283*
X00906Y04283*
X00907Y04283*
X00907Y04283*
X00908Y04283*
X00908*
X00909Y04283*
X0091Y04283*
X0091Y04283*
X00911Y04283*
X00911Y04284*
X00912Y04284*
X00912Y04284*
X00913Y04284*
X00913Y04285*
X00914Y04285*
X00914Y04285*
X00914Y04286*
X00915Y04286*
X00915Y04287*
X00915Y04287*
X00916Y04288*
X00916Y04288*
X00916Y04289*
X00916Y04289*
X00916Y0429*
X00916Y0429*
X00916Y04291*
Y04616D02*
D01*
X00916Y04617*
X00916Y04617*
X00916Y04618*
X00916Y04618*
X00916Y04619*
X00916Y04619*
X00915Y0462*
X00915Y0462*
X00915Y04621*
X00914Y04621*
X00914Y04622*
X00914Y04622*
X00913Y04623*
X00913Y04623*
X00912Y04623*
X00912Y04623*
X00911Y04624*
X00911Y04624*
X0091Y04624*
X0091Y04624*
X00909Y04624*
X00908Y04624*
X00908*
X00907Y04624*
X00907Y04624*
X00906Y04624*
X00906Y04624*
X00905Y04624*
X00905Y04623*
X00904Y04623*
X00904Y04623*
X00903Y04623*
X00903Y04622*
X00902Y04622*
X00902Y04621*
X00902Y04621*
X00901Y0462*
X00901Y0462*
X00901Y04619*
X00901Y04619*
X00901Y04618*
X009Y04618*
X009Y04617*
X009Y04617*
X009Y04616*
X009Y04616*
X009Y04615*
X009Y04615*
X00901Y04614*
X00901Y04613*
X00901Y04613*
X00901Y04612*
X00901Y04612*
X00902Y04611*
X00902Y04611*
X00902Y04611*
X00903Y0461*
X00903Y0461*
X00904Y0461*
X00904Y04609*
X00905Y04609*
X00905Y04609*
X00906Y04609*
X00906Y04608*
X00907Y04608*
X00907Y04608*
X00908Y04608*
X00908*
X00909Y04608*
X0091Y04608*
X0091Y04608*
X00911Y04609*
X00911Y04609*
X00912Y04609*
X00912Y04609*
X00913Y0461*
X00913Y0461*
X00914Y0461*
X00914Y04611*
X00914Y04611*
X00915Y04611*
X00915Y04612*
X00915Y04612*
X00916Y04613*
X00916Y04613*
X00916Y04614*
X00916Y04615*
X00916Y04615*
X00916Y04616*
X00916Y04616*
Y04941D02*
D01*
X00916Y04942*
X00916Y04943*
X00916Y04943*
X00916Y04944*
X00916Y04944*
X00916Y04945*
X00915Y04945*
X00915Y04946*
X00915Y04946*
X00914Y04947*
X00914Y04947*
X00914Y04947*
X00913Y04948*
X00913Y04948*
X00912Y04948*
X00912Y04949*
X00911Y04949*
X00911Y04949*
X0091Y04949*
X0091Y04949*
X00909Y04949*
X00908Y04949*
X00908*
X00907Y04949*
X00907Y04949*
X00906Y04949*
X00906Y04949*
X00905Y04949*
X00905Y04949*
X00904Y04948*
X00904Y04948*
X00903Y04948*
X00903Y04947*
X00902Y04947*
X00902Y04947*
X00902Y04946*
X00901Y04946*
X00901Y04945*
X00901Y04945*
X00901Y04944*
X00901Y04944*
X009Y04943*
X009Y04943*
X009Y04942*
X009Y04941*
X009Y04941*
X009Y0494*
X009Y0494*
X00901Y04939*
X00901Y04939*
X00901Y04938*
X00901Y04938*
X00901Y04937*
X00902Y04937*
X00902Y04936*
X00902Y04936*
X00903Y04935*
X00903Y04935*
X00904Y04935*
X00904Y04934*
X00905Y04934*
X00905Y04934*
X00906Y04934*
X00906Y04934*
X00907Y04934*
X00907Y04933*
X00908Y04933*
X00908*
X00909Y04933*
X0091Y04934*
X0091Y04934*
X00911Y04934*
X00911Y04934*
X00912Y04934*
X00912Y04934*
X00913Y04935*
X00913Y04935*
X00914Y04935*
X00914Y04936*
X00914Y04936*
X00915Y04937*
X00915Y04937*
X00915Y04938*
X00916Y04938*
X00916Y04939*
X00916Y04939*
X00916Y0494*
X00916Y0494*
X00916Y04941*
X00916Y04941*
M02*