%FSTAX23Y23*%
%MOIN*%
%SFA1B1*%

%IPPOS*%
%ADD81C,0.002000*%
%LNpcb_washver2-1*%
%LPD*%
G54D81*
X02102Y02193D02*
X02141D01*
X02122Y02174D02*
Y02213D01*
X01315Y02193D02*
X01354D01*
X01334Y02174D02*
Y02213D01*
X02159Y03095D02*
X02198D01*
X02179Y03076D02*
Y03115D01*
X01372Y03095D02*
X01411D01*
X01391Y03076D02*
Y03115D01*
X02149Y04062D02*
X02189D01*
X02169Y04042D02*
Y04082D01*
X01362Y04062D02*
X01401D01*
X01382Y04042D02*
Y04082D01*
X00872Y02665D02*
X00945D01*
X00908Y02629D02*
Y02702D01*
X00872Y0299D02*
X00945D01*
X00908Y02954D02*
Y03027D01*
X00872Y03315D02*
X00945D01*
X00908Y03279D02*
Y03352D01*
X00872Y03641D02*
X00945D01*
X00908Y03604D02*
Y03677D01*
X00872Y03966D02*
X00945D01*
X00908Y03929D02*
Y04002D01*
X00872Y04291D02*
X00945D01*
X00908Y04255D02*
Y04328D01*
X00872Y04616D02*
X00945D01*
X00908Y0458D02*
Y04653D01*
X00872Y04941D02*
X00945D01*
X00908Y04905D02*
Y04978D01*
X04048Y04321D02*
X0408D01*
X04064Y04305D02*
Y04336D01*
X04148Y04321D02*
X0418D01*
X04164Y04305D02*
Y04336D01*
X04248Y04321D02*
X0428D01*
X04264Y04305D02*
Y04336D01*
X04348Y04321D02*
X0438D01*
X04364Y04305D02*
Y04336D01*
X04448Y04321D02*
X0448D01*
X04464Y04305D02*
Y04336D01*
X04548Y04321D02*
X0458D01*
X04564Y04305D02*
Y04336D01*
X04048Y04921D02*
X0408D01*
X04064Y04905D02*
Y04936D01*
X04148Y04921D02*
X0418D01*
X04164Y04905D02*
Y04936D01*
X04248Y04921D02*
X0428D01*
X04264Y04905D02*
Y04936D01*
X04348Y04921D02*
X0438D01*
X04364Y04905D02*
Y04936D01*
X04448Y04921D02*
X0448D01*
X04464Y04905D02*
Y04936D01*
X04548Y04921D02*
X0458D01*
X04564Y04905D02*
Y04936D01*
X04048Y03552D02*
X0408D01*
X04064Y03537D02*
Y03568D01*
X04148Y03552D02*
X0418D01*
X04164Y03537D02*
Y03568D01*
X04248Y03552D02*
X0428D01*
X04264Y03537D02*
Y03568D01*
X04348Y03552D02*
X0438D01*
X04364Y03537D02*
Y03568D01*
X04448Y03552D02*
X0448D01*
X04464Y03537D02*
Y03568D01*
X04548Y03552D02*
X0458D01*
X04564Y03537D02*
Y03568D01*
X04048Y04152D02*
X0408D01*
X04064Y04137D02*
Y04168D01*
X04148Y04152D02*
X0418D01*
X04164Y04137D02*
Y04168D01*
X04248Y04152D02*
X0428D01*
X04264Y04137D02*
Y04168D01*
X04348Y04152D02*
X0438D01*
X04364Y04137D02*
Y04168D01*
X04448Y04152D02*
X0448D01*
X04464Y04137D02*
Y04168D01*
X04548Y04152D02*
X0458D01*
X04564Y04137D02*
Y04168D01*
X01394Y01357D02*
X01445D01*
X0142Y01331D02*
Y01382D01*
X01554Y01357D02*
X01601D01*
X01577Y01333D02*
Y0138D01*
X01711Y01357D02*
X01758D01*
X01735Y01333D02*
Y0138D01*
X01869Y01357D02*
X01916D01*
X01892Y01333D02*
Y0138D01*
X00725Y01504D02*
X00776D01*
X00751Y01478D02*
Y01529D01*
X00725Y01701D02*
X00776D01*
X00751Y01675D02*
Y01726D01*
X05344Y01485D02*
X05384D01*
X05364Y01465D02*
Y01505D01*
X05244Y01485D02*
X05284D01*
X05264Y01465D02*
Y01505D01*
X05144Y01485D02*
X05184D01*
X05164Y01465D02*
Y01505D01*
X05044Y01485D02*
X05084D01*
X05064Y01465D02*
Y01505D01*
X04944Y01485D02*
X04984D01*
X04964Y01465D02*
Y01505D01*
X04844Y01485D02*
X04884D01*
X04864Y01465D02*
Y01505D01*
X05623Y0284D02*
X05655D01*
X05639Y02824D02*
Y02855D01*
X05623Y0274D02*
X05655D01*
X05639Y02724D02*
Y02755D01*
X05623Y0342D02*
X05655D01*
X05639Y03404D02*
Y03435D01*
X05623Y0332D02*
X05655D01*
X05639Y03304D02*
Y03335D01*
X05623Y03995D02*
X05655D01*
X05639Y03979D02*
Y0401D01*
X05623Y03895D02*
X05655D01*
X05639Y03879D02*
Y0391D01*
X05623Y0458D02*
X05655D01*
X05639Y04564D02*
Y04595D01*
X05623Y0448D02*
X05655D01*
X05639Y04464D02*
Y04495D01*
X04307Y02405D02*
X04338D01*
X04322Y02389D02*
Y02421D01*
X03053Y04592D02*
X03085D01*
X03069Y04576D02*
Y04608D01*
X03182Y04542D02*
X03213D01*
X03198Y04527D02*
Y04558D01*
X05307Y02483D02*
X05338D01*
X05322Y02467D02*
Y02499D01*
X05731Y05106D02*
X05849D01*
X0579Y05047D02*
Y05165D01*
X05731Y00893D02*
X05849D01*
X0579Y00834D02*
Y00953D01*
X00259Y00893D02*
X00377D01*
X00318Y00834D02*
Y00953D01*
X00259Y05106D02*
X00377D01*
X00318Y05047D02*
Y05165D01*
X01819Y02958D02*
X0185D01*
X01835Y02942D02*
Y02973D01*
X0289Y02536D02*
X02922D01*
X02906Y0252D02*
Y02551D01*
X02217Y04532D02*
X02248D01*
X02233Y04516D02*
Y04548D01*
X01812Y04923D02*
X01843D01*
X01827Y04908D02*
Y04939D01*
X0513Y0385D02*
X05161D01*
X05145Y03835D02*
Y03866D01*
X02852Y03065D02*
X02883D01*
X02867Y03049D02*
Y03081D01*
X02799Y0338D02*
X02831D01*
X02815Y03365D02*
Y03396D01*
X02799Y04184D02*
X0283D01*
X02814Y04168D02*
Y042D01*
X02871Y04301D02*
X02902D01*
X02886Y04285D02*
Y04316D01*
X03787Y01543D02*
X03818D01*
X03803Y01527D02*
Y01558D01*
X04164Y01081D02*
X04195D01*
X0418Y01065D02*
Y01097D01*
X02897Y02697D02*
X02928D01*
X02913Y02681D02*
Y02713D01*
X01959Y0187D02*
X01991D01*
X01975Y01854D02*
Y01885D01*
X01959Y01498D02*
X01991D01*
X01975Y01482D02*
Y01514D01*
X03558Y03565D02*
X0359D01*
X03574Y03549D02*
Y03581D01*
X03363Y01929D02*
X03394D01*
X03379Y01914D02*
Y01945D01*
X02242Y02617D02*
X02273D01*
X02258Y02602D02*
Y02633D01*
X02245Y03514D02*
X02277D01*
X02261Y03498D02*
Y0353D01*
X01803Y03899D02*
X01835D01*
X01819Y03883D02*
Y03915D01*
X03819Y01854D02*
X03851D01*
X03835Y01838D02*
Y0187D01*
X05558Y02192D02*
X0559D01*
X05574Y02177D02*
Y02208D01*
X04404Y03828D02*
X04435D01*
X04419Y03813D02*
Y03844D01*
X03665Y03811D02*
X03697D01*
X03681Y03795D02*
Y03826D01*
X04459Y0256D02*
X0449D01*
X04475Y02544D02*
Y02575D01*
X04448Y02182D02*
X0448D01*
X04464Y02166D02*
Y02198D01*
X03177Y02641D02*
X03209D01*
X03193Y02626D02*
Y02657D01*
X02969Y03735D02*
X03D01*
X02984Y03719D02*
Y03751D01*
X04487Y02019D02*
X04519D01*
X04503Y02003D02*
Y02035D01*
X04415Y01863D02*
X04447D01*
X04431Y01847D02*
Y01878D01*
X05138D02*
X05169D01*
X05154Y01863D02*
Y01894D01*
X04143Y02414D02*
X04174D01*
X04159Y02398D02*
Y0243D01*
X05206Y01838D02*
X05237D01*
X05222Y01822D02*
Y01854D01*
X04947Y01619D02*
X04978D01*
X04963Y01603D02*
Y01634D01*
X05398Y0194D02*
X05429D01*
X05414Y01924D02*
Y01955D01*
X03265Y02531D02*
X03296D01*
X03281Y02515D02*
Y02547D01*
X04709Y02482D02*
X0474D01*
X04725Y02466D02*
Y02498D01*
X03166Y0469D02*
X03198D01*
X03182Y04674D02*
Y04705D01*
X03157Y03948D02*
X03188D01*
X03172Y03933D02*
Y03964D01*
X0306Y03837D02*
X03092D01*
X03076Y03821D02*
Y03853D01*
X03165Y03772D02*
X03196D01*
X0318Y03756D02*
Y03787D01*
X04899Y02536D02*
X0493D01*
X04915Y0252D02*
Y02552D01*
X04784Y02472D02*
X04815D01*
X04799Y02456D02*
Y02488D01*
X0336Y03499D02*
X03392D01*
X03376Y03483D02*
Y03514D01*
X0346Y0429D02*
X03491D01*
X03475Y04274D02*
Y04305D01*
X05308Y03627D02*
X0534D01*
X05324Y03611D02*
Y03642D01*
X04921Y03164D02*
X04953D01*
X04937Y03148D02*
Y0318D01*
X04437Y03407D02*
X04469D01*
X04453Y03391D02*
Y03423D01*
X03156Y04326D02*
X03187D01*
X03171Y04311D02*
Y04342D01*
X04224Y03806D02*
X04255D01*
X04239Y0379D02*
Y03821D01*
X04352Y04019D02*
X04383D01*
X04367Y04003D02*
Y04035D01*
X03649Y03722D02*
X03681D01*
X03665Y03706D02*
Y03737D01*
X04655Y0441D02*
X04686D01*
X0467Y04394D02*
Y04426D01*
X04389Y05085D02*
X0442D01*
X04405Y05069D02*
Y05101D01*
X03641Y0438D02*
X03672D01*
X03657Y04365D02*
Y04396D01*
X03885Y04829D02*
X03916D01*
X03901Y04814D02*
Y04845D01*
X04401Y04611D02*
X04432D01*
X04416Y04595D02*
Y04627D01*
X03602Y0454D02*
X03634D01*
X03618Y04524D02*
Y04555D01*
X04191Y04569D02*
X04223D01*
X04207Y04554D02*
Y04585D01*
X03694Y0449D02*
X03726D01*
X0371Y04474D02*
Y04505D01*
X05526Y03692D02*
X05557D01*
X05542Y03676D02*
Y03708D01*
X05363Y0236D02*
X05395D01*
X05379Y02344D02*
Y02375D01*
X05526Y03092D02*
X05557D01*
X05542Y03076D02*
Y03108D01*
X05418Y0228D02*
X0545D01*
X05434Y02264D02*
Y02295D01*
X05518Y02552D02*
X0555D01*
X05534Y02536D02*
Y02568D01*
M02*