%FSTAX23Y23*%
%MOIN*%
%SFA1B1*%

%IPPOS*%
%AMD47*
4,1,8,-0.020800,-0.028900,0.020800,-0.028900,0.027700,-0.022000,0.027700,0.022000,0.020800,0.028900,-0.020800,0.028900,-0.027700,0.022000,-0.027700,-0.022000,-0.020800,-0.028900,0.0*
1,1,0.013800,-0.020800,-0.022000*
1,1,0.013800,0.020800,-0.022000*
1,1,0.013800,0.020800,0.022000*
1,1,0.013800,-0.020800,0.022000*
%
%AMD50*
4,1,8,-0.039300,0.014800,-0.039300,-0.014800,-0.034400,-0.019700,0.034400,-0.019700,0.039300,-0.014800,0.039300,0.014800,0.034400,0.019700,-0.034400,0.019700,-0.039300,0.014800,0.0*
1,1,0.009800,-0.034400,0.014800*
1,1,0.009800,-0.034400,-0.014800*
1,1,0.009800,0.034400,-0.014800*
1,1,0.009800,0.034400,0.014800*
%
%AMD51*
4,1,8,-0.112200,0.081100,-0.112200,-0.081100,-0.085100,-0.108200,0.085100,-0.108200,0.112200,-0.081100,0.112200,0.081100,0.085100,0.108200,-0.085100,0.108200,-0.112200,0.081100,0.0*
1,1,0.054200,-0.085100,0.081100*
1,1,0.054200,-0.085100,-0.081100*
1,1,0.054200,0.085100,-0.081100*
1,1,0.054200,0.085100,0.081100*
%
%AMD57*
4,1,8,0.100800,0.029500,-0.100800,0.029500,-0.108200,0.022100,-0.108200,-0.022100,-0.100800,-0.029500,0.100800,-0.029500,0.108200,-0.022100,0.108200,0.022100,0.100800,0.029500,0.0*
1,1,0.014800,0.100800,0.022100*
1,1,0.014800,-0.100800,0.022100*
1,1,0.014800,-0.100800,-0.022100*
1,1,0.014800,0.100800,-0.022100*
%
%ADD24C,0.047200*%
%ADD25C,0.019700*%
%ADD26C,0.015700*%
%ADD27C,0.063000*%
%ADD28R,0.109300X0.109300*%
%ADD29C,0.109300*%
%ADD30R,0.063000X0.098400*%
%ADD31O,0.063000X0.098400*%
%ADD32C,0.098400*%
%ADD33C,0.076800*%
%ADD34R,0.076800X0.076800*%
%ADD35O,0.070000X0.100000*%
%ADD36R,0.070000X0.100000*%
%ADD37R,0.063000X0.063000*%
%ADD38C,0.055100*%
%ADD39C,0.196900*%
%ADD40R,0.055100X0.047200*%
%ADD41R,0.078700X0.051200*%
%ADD42R,0.250000X0.250000*%
%ADD43R,0.033500X0.047200*%
%ADD44R,0.047200X0.033500*%
%ADD45R,0.074800X0.047200*%
%ADD46R,0.059800X0.070100*%
G04~CAMADD=47~8~0.0~0.0~555.0~579.0~69.0~0.0~15~0.0~0.0~0.0~0.0~0~0.0~0.0~0.0~0.0~0~0.0~0.0~0.0~180.0~554.0~578.0*
%ADD47D47*%
%ADD48R,0.047200X0.055100*%
%ADD49R,0.078700X0.074800*%
G04~CAMADD=50~8~0.0~0.0~394.0~787.0~49.0~0.0~15~0.0~0.0~0.0~0.0~0~0.0~0.0~0.0~0.0~0~0.0~0.0~0.0~90.0~786.0~393.0*
%ADD50D50*%
G04~CAMADD=51~8~0.0~0.0~2165.0~2244.0~271.0~0.0~15~0.0~0.0~0.0~0.0~0~0.0~0.0~0.0~0.0~0~0.0~0.0~0.0~90.0~2244.0~2164.0*
%ADD51D51*%
%ADD52O,0.078700X0.021700*%
%ADD53R,0.161400X0.078700*%
%ADD54R,0.074800X0.078700*%
%ADD55R,0.080000X0.019000*%
%ADD56R,0.019000X0.080000*%
G04~CAMADD=57~8~0.0~0.0~2165.0~591.0~74.0~0.0~15~0.0~0.0~0.0~0.0~0~0.0~0.0~0.0~0.0~0~0.0~0.0~0.0~0.0~2165.0~591.0*
%ADD57D57*%
%ADD58C,0.078700*%
%ADD59C,0.039400*%
%ADD60C,0.029500*%
%ADD61C,0.023600*%
%ADD62C,0.010000*%
%LNpcb_washver2-1*%
%LPD*%
G36*
X03591Y02896D02*
X03589Y02891D01*
X03579*
X03577Y02895*
Y02899*
X03549*
Y02872*
X03544*
Y02867*
X0351*
Y02854*
X0348*
Y02741*
X03484*
X03487Y02736*
X03482Y0273*
X03477Y02718*
X03475Y02706*
Y02685*
X03449*
Y02785*
X03427*
X03423Y02794*
X03415Y02804*
X03297Y02922*
X03299Y02927*
X0356*
X03591Y02896*
G37*
G36*
X05689Y05199D02*
X05678Y05187D01*
X05667Y05169*
X05659Y05149*
X05654Y05128*
X05652Y05106*
X05654Y05084*
X05659Y05063*
X05667Y05043*
X05678Y05025*
X05692Y05008*
X05709Y04994*
X05727Y04983*
X05747Y04975*
X05769Y0497*
X0579Y04968*
X05812Y0497*
X05833Y04975*
X05853Y04983*
X05871Y04994*
X05883Y05004*
X05888Y05002*
Y00997*
X05883Y00995*
X05871Y01005*
X05853Y01017*
X05833Y01025*
X05812Y0103*
X0579Y01032*
X05769Y0103*
X05747Y01025*
X05727Y01017*
X05709Y01005*
X05692Y00991*
X05678Y00975*
X05667Y00956*
X05659Y00936*
X05654Y00915*
X05652Y00893*
X05654Y00872*
X05659Y00851*
X05667Y00831*
X05678Y00812*
X05689Y008*
X05686Y00795*
X02573*
Y0099*
X03243*
X03255Y00992*
X03267Y00995*
X03278Y01001*
X03287Y01009*
X03447Y01168*
X03454Y01178*
X0346Y01188*
X03464Y012*
X03465Y01213*
Y01307*
X03472*
Y01345*
Y01382*
X03465*
Y01412*
X03429*
X03428Y01412*
X03426Y01414*
X03423Y01416*
X03408Y01429*
X03402Y01434*
X03402Y01434*
X03331Y01505*
Y01552*
Y01552*
X03331Y0156*
X03331Y01561*
X03388*
Y01718*
X03307*
X03307Y01719*
X03307Y01727*
Y01727*
Y01956*
Y01956*
X03307Y01969*
X03308Y01973*
X03308Y01976*
X03308Y01978*
X03309Y01978*
X03312Y01981*
X03313Y01983*
X03314Y01985*
X03316Y01987*
X03321Y01998*
X03322Y0201*
Y02039*
X03321Y02051*
X03316Y02062*
X03309Y02071*
X033Y02078*
X03289Y02083*
X03278Y02084*
X03264*
X03256Y02087*
X03243Y02088*
X03231Y02087*
X03222Y02084*
X03209*
X03197Y02083*
X03187Y02078*
X03177Y02071*
X0317Y02062*
X03166Y02051*
X03164Y02039*
Y0201*
X03166Y01998*
X0317Y01987*
X03172Y01985*
X03173Y01983*
X03175Y01981*
X03177Y01978*
X03178Y01978*
X03179Y01976*
X03179Y01973*
X0318Y01963*
X0318Y01957*
Y01957*
Y01727*
Y01727*
X0318Y01719*
X0318Y01718*
X03148*
Y01561*
X03204*
X03204Y0156*
X03204Y01552*
Y01552*
Y01479*
X03206Y01466*
X03209Y01454*
X03215Y01444*
X03223Y01434*
X03316Y01341*
X03316Y0134*
X03322Y01334*
X03327Y01329*
X03335Y0132*
X03337Y01317*
X03338Y01314*
X03338Y01314*
Y01239*
X03217Y01117*
X02573*
Y01316*
X02765*
X02778Y01317*
X02789Y01321*
X028Y01327*
X0281Y01335*
X02973Y01497*
X02981Y01507*
X02987Y01518*
X0299Y0153*
X02991Y01542*
Y01823*
Y01823*
X02992Y01831*
X02995*
Y01869*
X02995Y01871*
X02995Y01872*
X02995Y01873*
X02995Y01874*
Y01906*
Y01991*
X02995Y01993*
X02995Y01994*
Y02032*
X02983*
Y02121*
X02981Y02135*
X02975Y02148*
X02967Y02159*
X02895Y02231*
X02884Y02239*
X02871Y02245*
X02857Y02247*
X02833*
X02833*
X02832Y02247*
X0283Y02249*
X02828Y02251*
X02826Y02252*
X02823Y02255*
X02811Y02259*
X02799Y02261*
X02758*
X02746Y02259*
X02734Y02255*
X02725Y02247*
X02717Y02237*
X02713Y02226*
X02711Y02214*
Y0217*
X02713Y02158*
X02717Y02147*
X02721Y02142*
X02717Y02137*
X02713Y02126*
X02711Y02114*
Y0207*
X02712Y02062*
X02712Y02061*
X02712Y0206*
X02713Y02058*
X02713Y02057*
X02713Y02056*
X02715Y02024*
Y02016*
Y02016*
Y01657*
X02614Y01556*
X02573*
Y0163*
X02609*
Y01756*
X02573*
Y02287*
X03154*
Y0227*
X03205*
X03206Y02265*
X03205Y02264*
X03202Y02263*
X03198Y02263*
X03197Y02262*
X03195Y02261*
X03193Y02261*
X03191Y0226*
X03188Y02259*
X03188Y02258*
X03187Y02258*
X03185Y02256*
X03184Y02256*
X03183Y02255*
X03177Y02251*
X0317Y02242*
X03166Y02231*
X03164Y02219*
Y0219*
X03166Y02178*
X0317Y02167*
X03177Y02158*
X03187Y02151*
X03197Y02147*
X03209Y02145*
X03222*
X03231Y02142*
X03243Y02141*
X03256Y02142*
X03264Y02145*
X03278*
X03289Y02147*
X033Y02151*
X03309Y02158*
X03316Y02167*
X03321Y02178*
X03321Y02182*
X03322Y02183*
X03322Y02185*
X03322Y02187*
X03322Y02189*
X03323Y0219*
X03323Y02191*
X03324Y02192*
X03325Y02195*
X03327Y02197*
X03333Y02205*
X03337Y02209*
X03338Y0221*
X03339Y0221*
X0334Y02212*
X03344Y02218*
X0335Y02229*
X03354Y0224*
X03355Y02253*
Y02274*
X03362Y02274*
X03363*
X03366*
X03366*
X03374*
Y02273*
X03412*
X03413Y02273*
X03415Y02273*
X035*
Y02302*
X03507*
Y0234*
Y02377*
X035*
Y02407*
X03497*
Y0241*
X03496Y02422*
X03493Y02434*
X03487Y02445*
X03479Y02454*
X03445Y02488*
Y02532*
X03602*
Y02685*
X03577*
X03575Y0269*
X03577Y02693*
X03585Y02703*
X03589Y02714*
X03591Y02726*
Y02741*
X03606*
Y02779*
X03705*
Y02891*
X03689*
Y02913*
X03688Y02925*
X03683Y02936*
X03676Y02946*
X03614Y03008*
X03604Y03016*
X03592Y03021*
X0358Y03022*
X03241*
X02882Y03381*
Y03381*
X02882Y03382*
X02881Y03394*
X02877Y03406*
X02871Y03418*
X02863Y03428*
X02853Y03436*
X02841Y03443*
X02828Y03446*
X02815Y03448*
X02802Y03446*
X02789Y03443*
X02778Y03436*
X02768Y03428*
X02759Y03418*
X02753Y03406*
X02749Y03394*
X02748Y0338*
X02749Y03367*
X02753Y03355*
X02759Y03343*
X02768Y03333*
X02778Y03325*
X02789Y03318*
X02802Y03314*
X02814Y03313*
X02815Y03313*
X02815*
X03164Y02965*
X03162Y0296*
X0304*
X02935Y03065*
Y03065*
X02934Y03066*
X02933Y03078*
X02929Y03091*
X02923Y03102*
X02915Y03112*
X02905Y03121*
X02893Y03127*
X0288Y03131*
X02867Y03132*
X02854Y03131*
X02842Y03127*
X0283Y03121*
X0282Y03112*
X02811Y03102*
X02805Y03091*
X02801Y03078*
X028Y03065*
X02801Y03052*
X02805Y03039*
X02811Y03028*
X0282Y03017*
X0283Y03009*
X02842Y03003*
X02854Y02999*
X02866Y02998*
X02867Y02998*
X02867*
X02986Y02879*
X02996Y02871*
X03008Y02866*
X0302Y02865*
X0322*
X03315Y0277*
Y02705*
X03215*
X03206Y02707*
X03193Y02709*
X0318Y02707*
X03167Y02703*
X03156Y02697*
X03145Y02689*
X03137Y02679*
X03131Y02667*
X03127Y02654*
X03126Y02641*
X03127Y02628*
X03131Y02616*
X03137Y02604*
X03145Y02594*
X03156Y02585*
X03167Y02579*
X0318Y02575*
X03193Y02574*
X03206Y02575*
X03215Y02578*
X03227*
X03229Y02573*
X03225Y02568*
X03219Y02557*
X03215Y02544*
X03214Y02534*
X03182Y02502*
X03174Y02492*
X03169Y0248*
X03167Y02467*
Y02404*
X03154*
Y02387*
X02573*
Y05204*
X05686*
X05689Y05199*
G37*
%LNpcb_washver2-2*%
%LPC*%
G36*
X03539Y02899D02*
X0351D01*
Y02877*
X03539*
Y02899*
G37*
G36*
X04405Y05152D02*
X04392Y05151D01*
X04379Y05147*
X04367Y05141*
X04357Y05133*
X04349Y05123*
X04343Y05111*
X04339Y05098*
X04338Y05087*
X04337Y05086*
Y05085*
X0433Y05078*
X04323Y05068*
X04318Y05057*
X04316Y05045*
Y04993*
X04311Y04991*
X04304Y04997*
X04291Y05004*
X04278Y05008*
X04264Y05009*
X0425Y05008*
X04237Y05004*
X04225Y04997*
X04214Y04989*
X04204Y04997*
X04191Y05004*
X04178Y05008*
X04164Y05009*
X0415Y05008*
X04137Y05004*
X04125Y04997*
X04114Y04989*
X04104Y04997*
X04091Y05004*
X04078Y05008*
X04064Y05009*
X0405Y05008*
X04037Y05004*
X04025Y04997*
X04014Y04989*
X04005Y04978*
X04Y04968*
X03992*
X0398Y04967*
X03968Y04962*
X03958Y04954*
X03901Y04897*
X039*
X03899Y04896*
X03888Y04895*
X03875Y04891*
X03863Y04885*
X03853Y04877*
X03845Y04867*
X03839Y04856*
X03834Y04855*
X0377Y04918*
X0376Y04926*
X03749Y04931*
X03736Y04932*
X03423*
X03411Y04931*
X034Y04926*
X0339Y04918*
X03336Y04865*
X03329Y04855*
X03324Y04844*
X03323Y04835*
X03317Y04833*
X03317Y04834*
X03304Y04839*
X03291Y0484*
X0327*
X03263Y04841*
X03164*
X03146Y04842*
X03141Y04842*
X0313Y04848*
X03119Y04852*
X03106Y04853*
X03094Y04852*
X03082Y04848*
X03071Y04842*
X03062Y04834*
X02947Y0472*
X02939Y0471*
X02933Y04699*
X02929Y04687*
X02928Y04675*
Y04671*
X02923Y0467*
X0292Y04673*
X02804Y04789*
Y04866*
X02666*
Y04717*
Y04617*
Y04517*
X02767*
Y04232*
X02767Y04231*
X02766Y04231*
X02758Y04222*
X02752Y0421*
X02748Y04197*
X02747Y04184*
X02748Y04171*
X02752Y04158*
X02758Y04147*
X02767Y04137*
X02777Y04128*
X02789Y04122*
X02801Y04118*
X02814Y04117*
X02828Y04118*
X0284Y04122*
X02852Y04128*
X02862Y04137*
X0287Y04147*
X02877Y04158*
X0288Y04171*
X02882Y04184*
X0288Y04197*
X02877Y0421*
X0287Y04222*
X02864Y0423*
X02864Y04233*
X02868Y04236*
X02873Y04235*
X02886Y04233*
X029Y04235*
X02912Y04239*
X02924Y04245*
X02934Y04253*
X02942Y04263*
X02949Y04275*
X02952Y04288*
X02954Y04301*
X02952Y04314*
X02949Y04326*
X02942Y04338*
X02935Y04347*
X02934Y04348*
X02934Y04348*
Y04527*
X02937Y04529*
X02939Y04529*
X02947Y0452*
X02987Y04479*
X02984Y04475*
X02976Y04466*
X0297Y04455*
X02967Y04443*
X02965Y04431*
Y04058*
X02967Y04045*
X0297Y04033*
X02976Y04023*
X02953Y04001*
X02946Y03991*
X0294Y0398*
X02936Y03969*
X02935Y03956*
Y03804*
X02936Y03791*
X02938Y03784*
X02937Y03782*
X02928Y03772*
X02922Y03761*
X02918Y03748*
X02918Y03745*
X02913Y03743*
X02851Y03806*
X02841Y03814*
X02829Y03819*
X02817Y0382*
X02804*
Y03847*
X02666*
Y03698*
Y03598*
Y03498*
X02804*
Y03529*
X02809Y03531*
X03278Y03062*
X03288Y03055*
X033Y0305*
X03312Y03048*
X03787*
X03915Y0292*
X03925Y02912*
X03936Y02908*
X03948Y02906*
X03983*
Y02891*
X03979Y02889*
X03975*
Y02861*
X04002*
Y02856*
X04007*
Y02822*
X0402*
Y0281*
X04019*
Y02657*
X04177*
Y0281*
X04144*
X04139Y02821*
X04133Y0283*
Y02918*
X04095*
Y03017*
X03983*
Y03001*
X03968*
X03876Y03093*
X03878Y03098*
X0422*
X04369Y02949*
X04367Y02944*
X04193*
Y0281*
X04191*
Y02657*
X04282*
Y02458*
X04275Y02452*
X04267Y02442*
X0426Y02431*
X04257Y02418*
X04255Y02405*
X04257Y02392*
X0426Y02379*
X04267Y02368*
X04275Y02357*
X04285Y02349*
X04297Y02343*
X04309Y02339*
X04322Y02338*
X04327Y02338*
X0433Y02335*
Y02198*
X0431*
X043Y02198*
Y02213*
X04265*
X04265*
X04263*
X04261Y02214*
X04259Y02213*
X0406*
Y02056*
X04117*
X04117Y02055*
X04117Y02047*
Y02047*
Y02024*
X0401Y01917*
X03857*
X03848Y0192*
X03835Y01921*
X03822Y0192*
X03809Y01916*
X03797Y0191*
X03787Y01901*
X03779Y01891*
X03773Y0188*
X03769Y01867*
X03768Y01854*
X03769Y01841*
X03773Y01828*
X03779Y01817*
X03787Y01806*
X03797Y01798*
X03809Y01792*
X03822Y01788*
X03835Y01787*
X03848Y01788*
X03857Y01791*
X03968*
X0397Y01786*
X03902Y01717*
X03894Y01707*
X03889Y01695*
X03887Y01682*
Y01674*
X03874*
Y01554*
X03869Y01553*
X03869Y01556*
X03865Y01568*
X03858Y0158*
X0385Y0159*
X0384Y01599*
X03828Y01605*
X03816Y01609*
X03803Y0161*
X03789Y01609*
X03777Y01605*
X03765Y01599*
X03755Y0159*
X03747Y0158*
X0374Y01568*
X03737Y01556*
X03735Y01543*
X03737Y0153*
X0374Y01517*
X03747Y01505*
X03754Y01496*
X03755Y01495*
X03755Y01495*
Y01459*
X03757Y01447*
X03761Y01435*
X03769Y01425*
X03803Y01391*
X03813Y01383*
X03825Y01378*
X03837Y01377*
X03946*
Y01361*
X03941Y0136*
X03938*
Y01331*
X03965*
Y01326*
X0397*
Y01293*
X03983*
Y01263*
X04095*
Y01282*
X04149*
X04161Y01284*
X04164Y01285*
X04168Y01282*
Y01275*
X04322*
Y01432*
X04168*
Y01401*
X04161Y014*
X04149Y01395*
X04139Y01387*
X04129Y01377*
X04095*
Y01389*
X04058*
Y01478*
X04168*
Y01447*
X04322*
Y01604*
X04168*
Y01573*
X04075*
Y01674*
X04005*
X04003Y01678*
X04055Y0173*
X04684*
X04697Y01732*
X04709Y01737*
X04719Y01744*
X04772Y01797*
X0478Y01808*
X04785Y0182*
X04787Y01833*
Y01844*
X04813*
Y01574*
X0479*
Y01395*
X04938*
Y01395*
X04942Y01398*
X04949Y01396*
X04964Y01395*
X04979Y01396*
X04993Y01401*
X05006Y01407*
X05017Y01417*
X05026Y01428*
X05029Y01433*
X05035Y01435*
X05041Y0143*
X05052Y01426*
X05059Y01425*
Y01485*
Y01544*
X05052Y01543*
X05041Y01539*
X05036Y01535*
X05034Y01534*
X0503Y01536*
X05028Y01544*
X05027Y01548*
X05026Y01567*
X05026Y01574*
Y01574*
Y01597*
X05029Y01606*
X0503Y01619*
X05029Y01632*
X05025Y01644*
X05019Y01656*
X0501Y01666*
X05Y01675*
X04988Y01681*
X04976Y01685*
X04971Y01685*
X04971Y0169*
X05074*
X05114Y0165*
Y01555*
X05111Y01552*
X05102Y01541*
X05099Y01536*
X05093Y01534*
X05087Y01539*
X05076Y01543*
X05069Y01544*
Y01485*
Y01425*
X05076Y01426*
X05087Y0143*
X05093Y01435*
X05099Y01433*
X05102Y01428*
X05111Y01417*
X05122Y01407*
X05135Y01401*
X05149Y01396*
X05164Y01395*
X05179Y01396*
X05193Y01401*
X05206Y01407*
X05214Y01414*
X05222Y01407*
X05235Y01401*
X05249Y01396*
X05264Y01395*
X05279Y01396*
X05293Y01401*
X05306Y01407*
X05314Y01414*
X05322Y01407*
X05335Y01401*
X05349Y01396*
X05364Y01395*
X05379Y01396*
X05393Y01401*
X05406Y01407*
X05417Y01417*
X05426Y01428*
X05433Y01441*
X05437Y01455*
X05439Y0147*
Y015*
X05437Y01514*
X05433Y01528*
X05426Y01541*
X05417Y01552*
X05406Y01562*
X05393Y01569*
X05379Y01573*
X05364Y01574*
X05349Y01573*
X05335Y01569*
X05322Y01562*
X05319Y01559*
X05314Y01561*
Y01656*
X05312Y01669*
X05307Y01681*
X05299Y01691*
X05224Y01766*
X05226Y01771*
X05235Y01772*
X05247Y01776*
X05259Y01782*
X05269Y01791*
X05278Y01801*
X05284Y01812*
X05288Y01825*
X05289Y01835*
X05303Y01849*
X05311Y0186*
X05316Y01872*
X05317Y01884*
Y01985*
X05341*
X05347Y01984*
X05349Y01984*
X0535Y01982*
X0535Y01975*
Y01961*
X05348Y01953*
X05346Y0194*
X05348Y01926*
X05351Y01914*
X05358Y01902*
X05366Y01892*
X05376Y01884*
X05388Y01877*
X054Y01874*
X05414Y01872*
X05427Y01874*
X05439Y01877*
X05451Y01884*
X05454Y01886*
X05458Y01884*
Y01297*
X05309Y01148*
X04519*
X04519*
X04511Y01148*
Y01152*
X04473*
X04471Y01152*
X0447Y01152*
X04469Y01152*
X04468Y01152*
X0431*
Y01129*
X04227*
X04227Y01129*
X04226Y01129*
X04217Y01137*
X04205Y01143*
X04193Y01147*
X0418Y01148*
X04166Y01147*
X04154Y01143*
X04142Y01137*
X04132Y01129*
X04124Y01118*
X04117Y01107*
X04114Y01094*
X04112Y01081*
X04114Y01068*
X04117Y01055*
X04124Y01044*
X04132Y01033*
X04142Y01025*
X04154Y01019*
X04166Y01015*
X0418Y01014*
X04193Y01015*
X04205Y01019*
X04217Y01025*
X04226Y01033*
X04227Y01033*
X04227Y01033*
X0431*
Y01018*
X04468*
X04469Y01018*
X0447Y01018*
X04471Y01018*
X04473Y01018*
X04511*
Y01021*
X04511*
X04519Y01021*
X04519*
X05335*
X05348Y01023*
X0536Y01026*
X05371Y01032*
X0538Y0104*
X05567Y01226*
X05574Y01236*
X0558Y01247*
X05584Y01259*
X05585Y01271*
Y02021*
X05779Y02215*
X05787Y02224*
X05792Y02235*
X05796Y02247*
X05797Y0226*
Y02745*
X05796Y02757*
X05792Y02769*
X05787Y0278*
X05779Y02789*
X05733Y02835*
X05732Y02836*
X05729Y0284*
X05732Y02843*
X05733Y02844*
X05779Y0289*
X05787Y02899*
X05792Y0291*
X05796Y02922*
X05797Y02935*
Y03325*
X05796Y03337*
X05792Y03349*
X05787Y0336*
X05779Y03369*
X05733Y03415*
X05732Y03416*
X05729Y0342*
X05732Y03423*
X05733Y03424*
X05774Y03465*
X05782Y03474*
X05787Y03485*
X05791Y03497*
X05792Y0351*
Y03905*
X05791Y03917*
X05787Y03929*
X05782Y0394*
X05774Y03949*
X05733Y0399*
X05732Y03991*
X05729Y03995*
X05732Y03998*
X05733Y03999*
X05774Y0404*
X05782Y04049*
X05787Y0406*
X05791Y04072*
X05792Y04085*
Y0449*
X05791Y04502*
X05787Y04514*
X05782Y04525*
X05774Y04534*
X05733Y04575*
X05732Y04576*
X05727Y04582*
X05722Y04587*
X05719Y04591*
X05716Y04595*
X05714Y04599*
X05712Y04603*
X05711Y04605*
X05711Y04608*
X0571Y04609*
X0571Y04613*
X0571Y04614*
Y0465*
X05672*
X0567Y04651*
X05669Y0465*
X05668Y04651*
X05667Y0465*
X05568*
Y04551*
X05568Y0455*
X05568Y04549*
X05568Y04548*
X05568Y04547*
Y04509*
X05569*
X05572Y04504*
X05569Y04493*
X05568Y0448*
X05569Y04466*
X05573Y04452*
X0558Y0444*
X05588Y0443*
X05588Y0443*
X05589Y04429*
Y04429*
X05589Y04428*
Y0436*
X0557*
Y04347*
X05467*
X05454Y04345*
X05442Y0434*
X05431Y04332*
X05234Y04135*
X05226Y04124*
X05221Y04112*
X05219Y041*
Y03189*
X05215Y03187*
X0506Y03342*
X05049Y0335*
X05037Y03355*
X05024Y03357*
X0502*
Y03374*
X04819*
Y03368*
X048*
Y03467*
X04792*
Y04221*
Y049*
X0479Y04912*
X04785Y04923*
X04778Y04933*
X04643Y05068*
X04633Y05076*
X04621Y05081*
X04609Y05082*
X04494*
X04482Y05081*
X04476Y05078*
X04472Y05081*
X04472Y05085*
X04471Y05098*
X04467Y05111*
X04461Y05123*
X04452Y05133*
X04442Y05141*
X0443Y05147*
X04418Y05151*
X04405Y05152*
G37*
G36*
X0515Y03888D02*
Y03855D01*
X05183*
X05182Y0386*
X05178Y03869*
X05172Y03877*
X05164Y03883*
X05155Y03887*
X0515Y03888*
G37*
G36*
X0514D02*
X05136Y03887D01*
X05127Y03883*
X05119Y03877*
X05113Y03869*
X05109Y0386*
X05108Y03855*
X0514*
Y03888*
G37*
G36*
X05183Y03845D02*
X0515D01*
Y03813*
X05155Y03814*
X05164Y03818*
X05172Y03824*
X05178Y03831*
X05182Y03841*
X05183Y03845*
G37*
G36*
X0514D02*
X05108D01*
X05109Y03841*
X05113Y03831*
X05119Y03824*
X05127Y03818*
X05136Y03814*
X0514Y03813*
Y03845*
G37*
G36*
X03997Y02851D02*
X03975D01*
Y02822*
X03997*
Y02851*
G37*
G36*
X02804Y02923D02*
X02666D01*
Y02774*
Y02674*
Y02574*
X02804*
Y02607*
X02809Y02609*
X02848Y02569*
X02844Y02561*
X0284Y02549*
X02839Y02536*
X0284Y02522*
X02844Y0251*
X0285Y02498*
X02858Y02488*
X02869Y0248*
X0288Y02473*
X02893Y0247*
X02906Y02468*
X02919Y0247*
X02932Y02473*
X02943Y0248*
X02953Y02488*
X02962Y02498*
X02968Y0251*
X02972Y02522*
X02973Y02536*
X02972Y02549*
X02968Y02561*
X02962Y02573*
X02953Y02583*
X02953Y02584*
X02952Y02591*
X02947Y02603*
X0294Y02613*
X02926Y02627*
X02928Y02632*
X02938Y02635*
X0295Y02641*
X0296Y0265*
X02969Y0266*
X02975Y02671*
X02979Y02684*
X0298Y02697*
X02979Y0271*
X02975Y02723*
X02969Y02735*
X0296Y02745*
X0295Y02753*
X02938Y02759*
X02926Y02763*
X02914Y02764*
X02913Y02764*
X02913*
X02808Y0287*
X02804Y02873*
Y02923*
G37*
G36*
X03774Y02685D02*
X03616D01*
Y02532*
X03649*
X03649Y02531*
X03654Y0252*
X03661Y0251*
X03728Y02443*
X03738Y02436*
X03749Y02431*
X03761Y0243*
X03863*
Y0241*
X04064*
Y02428*
X04075*
X04092Y02411*
X04093Y02401*
X04096Y02388*
X04103Y02377*
X04111Y02366*
X04121Y02358*
X04133Y02352*
X04145Y02348*
X04159Y02347*
X04172Y02348*
X04184Y02352*
X04196Y02358*
X04206Y02366*
X04215Y02377*
X04221Y02388*
X04225Y02401*
X04226Y02414*
X04225Y02427*
X04221Y0244*
X04215Y02451*
X04206Y02461*
X04196Y0247*
X04184Y02476*
X04172Y0248*
X04162Y02481*
X0413Y02512*
X0412Y0252*
X04108Y02525*
X04095Y02527*
X04064*
Y02544*
X03863*
Y02525*
X03781*
X03774Y02532*
Y02685*
G37*
G36*
X03545Y02377D02*
X03517D01*
Y02345*
X03545*
Y02377*
G37*
G36*
Y02335D02*
X03517D01*
Y02302*
X03545*
Y02335*
G37*
G36*
X03928Y02184D02*
X03843D01*
Y0214*
X03928*
Y02184*
G37*
G36*
X03833D02*
X03747D01*
Y0214*
X03833*
Y02184*
G37*
G36*
X0362Y02233D02*
X0354D01*
Y0212*
X03657*
Y02196*
X03656Y02205*
X03652Y02214*
X03646Y02222*
X03638Y02228*
X03629Y02232*
X0362Y02233*
G37*
G36*
X0353D02*
X0345D01*
X0344Y02232*
X03431Y02228*
X03423Y02222*
X03417Y02214*
X03413Y02205*
X03412Y02196*
Y0212*
X0353*
Y02233*
G37*
G36*
X03928Y0213D02*
X03843D01*
Y02085*
X03928*
Y0213*
G37*
G36*
X03833D02*
X03747D01*
Y02085*
X03833*
Y0213*
G37*
G36*
X03657Y0211D02*
X0354D01*
Y01996*
X0362*
X03629Y01997*
X03638Y02001*
X03646Y02007*
X03652Y02015*
X03656Y02024*
X03657Y02033*
Y0211*
G37*
G36*
X0353D02*
X03412D01*
Y02033*
X03413Y02024*
X03417Y02015*
X03423Y02007*
X03431Y02001*
X0344Y01997*
X0345Y01996*
X0353*
Y0211*
G37*
G36*
X03384Y01966D02*
Y01934D01*
X03416*
X03415Y01939*
X03411Y01948*
X03405Y01956*
X03398Y01962*
X03388Y01966*
X03384Y01966*
G37*
G36*
X03374D02*
X03369Y01966D01*
X0336Y01962*
X03352Y01956*
X03346Y01948*
X03342Y01939*
X03341Y01934*
X03374*
Y01966*
G37*
G36*
X03416Y01924D02*
X03384D01*
Y01892*
X03388Y01893*
X03398Y01896*
X03405Y01902*
X03411Y0191*
X03415Y01919*
X03416Y01924*
G37*
G36*
X03374D02*
X03341D01*
X03342Y01919*
X03346Y0191*
X03352Y01902*
X0336Y01896*
X03369Y01893*
X03374Y01892*
Y01924*
G37*
G36*
X03701Y01689D02*
X03615D01*
Y01645*
X03701*
Y01689*
G37*
G36*
X03605D02*
X0352D01*
Y01645*
X03605*
Y01689*
G37*
G36*
X03701Y01635D02*
X03615D01*
Y0159*
X03701*
Y01635*
G37*
G36*
X03605D02*
X0352D01*
Y0159*
X03605*
Y01635*
G37*
G36*
X0351Y01382D02*
X03482D01*
Y0135*
X0351*
Y01382*
G37*
G36*
Y0134D02*
X03482D01*
Y01307*
X0351*
Y0134*
G37*
G36*
X0396Y01321D02*
X03938D01*
Y01293*
X0396*
Y01321*
G37*
%LNpcb_washver2-3*%
%LPD*%
G36*
X03348Y04688D02*
Y04619D01*
X0335Y04606*
X03355Y04595*
X03362Y04585*
X03391Y04556*
X03398Y04551*
X03396Y0454*
X03398Y04527*
X03403Y04515*
X03398Y04503*
X03396Y0449*
X03398Y04477*
X03403Y04464*
X03411Y04454*
X03421Y04446*
X03426Y04444*
X03426Y0444*
X03427Y04432*
X03432Y04425*
X03439Y0442*
X03447Y04418*
X03504*
X03512Y0442*
X03519Y04425*
X03523Y04432*
X03525Y0444*
X03527Y04442*
X0362*
X03621Y04437*
X03619Y04436*
X03609Y04428*
X03601Y04418*
X03595Y04406*
X03591Y04394*
X03589Y0438*
X03591Y04367*
X03595Y04355*
X03601Y04343*
X03609Y04333*
X03619Y04325*
X03631Y04318*
X03644Y04314*
X03657Y04313*
X0367Y04314*
X03682Y04318*
X03694Y04325*
X03703Y04332*
X03704Y04333*
X03704Y04333*
X03796*
X03993Y04136*
Y04135*
X03994Y04121*
X03998Y04108*
X04005Y04095*
X04014Y04084*
X04025Y04076*
X04037Y04069*
X0405Y04065*
X04064Y04064*
X04078Y04065*
X0409Y04068*
X04095Y04066*
Y04015*
X04032*
X03909Y04139*
X03899Y04146*
X03887Y04151*
X03875Y04153*
X03424*
X03412Y04151*
X03401Y04146*
X03391Y04139*
X03315Y04063*
X03312Y04066*
X03299Y04071*
X03286Y04072*
X03265*
X03258Y04073*
X03123*
X03105Y04074*
X03102Y04074*
X03092Y04084*
Y04404*
X03122Y04434*
X03125Y04438*
X03184*
X03185Y04432*
X03149Y04397*
X03136Y04384*
X03135Y04383*
X03134Y04382*
X03124Y04374*
X03115Y04364*
X03109Y04352*
X03105Y04339*
X03104Y04326*
X03105Y04313*
X03109Y04301*
X03115Y04289*
X03124Y04279*
X03134Y0427*
X03146Y04264*
X03158Y0426*
X03171Y04259*
X03185Y0426*
X03197Y04264*
X03209Y0427*
X03219Y04279*
X03227Y04289*
X03234Y04301*
X03237Y04313*
X03239Y04326*
X03237Y04339*
X03236Y04343*
X03282Y04389*
X03282Y04389*
X03291*
X03304Y04391*
X03317Y04396*
X03327Y04404*
X03335Y04414*
X0334Y04427*
X03342Y0444*
X0334Y04453*
X03335Y04465*
X0334Y04477*
X03342Y0449*
X0334Y04503*
X03335Y04515*
X0334Y04527*
X03342Y0454*
X0334Y04553*
X03335Y04565*
X0334Y04577*
X03342Y0459*
X0334Y04603*
X03335Y04615*
X03327Y04626*
X03317Y04634*
X03312Y04636*
X03312Y0464*
X03312Y04644*
X03317Y04646*
X03327Y04654*
X03335Y04664*
X0334Y04677*
X03342Y0469*
X03342Y0469*
X03343Y04691*
X03348Y04688*
G37*
G36*
X0557Y04234D02*
X05599D01*
Y04227*
X05637*
Y04222*
X05642*
Y04189*
X05666*
Y04111*
X05643Y04088*
X05643Y04088*
X05637Y04082*
X05632Y04078*
X05627Y04074*
X05623Y04072*
X05619Y04069*
X05616Y04068*
X05613Y04067*
X05611Y04066*
X05609Y04066*
X05605Y04066*
X05605Y04065*
X05568*
Y04028*
X05568Y04026*
X05568Y04025*
X05568Y04024*
X05568Y04023*
Y03966*
X05568Y03965*
X05568Y03964*
X05568Y03963*
X05568Y03962*
Y03924*
X05569*
X05572Y03919*
X05569Y03908*
X05568Y03895*
X05569Y03881*
X05573Y03867*
X0558Y03855*
X05588Y03845*
X05588Y03845*
X05589Y03844*
Y03844*
X05589Y03843*
Y03755*
X0557*
X05565Y03755*
X05555Y03758*
X05542Y03759*
X05528Y03758*
X05516Y03754*
X05504Y03748*
X05494Y0374*
X05486Y03729*
X05479Y03718*
X05476Y03705*
X05474Y03692*
X05476Y03679*
X05479Y03666*
X05486Y03655*
X05494Y03645*
X05504Y03636*
X05516Y0363*
X05528Y03626*
X05542Y03625*
X05555Y03626*
X05565Y03629*
X0557*
X05599*
Y03622*
X05637*
Y03617*
X05642*
Y03584*
X05666*
Y03536*
X05643Y03513*
X05643Y03513*
X05637Y03507*
X05632Y03503*
X05627Y03499*
X05623Y03497*
X05619Y03494*
X05616Y03493*
X05613Y03492*
X05611Y03491*
X05609Y03491*
X05605Y03491*
X05605Y0349*
X05568*
Y03453*
X05568Y03451*
X05568Y0345*
X05568Y03449*
X05568Y03448*
Y03391*
X05568Y0339*
X05568Y03389*
X05568Y03388*
X05568Y03387*
Y03349*
X05569*
X05572Y03344*
X05569Y03333*
X05568Y0332*
X05569Y03306*
X05573Y03292*
X0558Y0328*
X05588Y0327*
X05588Y0327*
X05589Y03269*
Y03269*
X05589Y03268*
Y03155*
X05575*
X0557Y03153*
X05567Y03154*
X05555Y03158*
X05542Y03159*
X05528Y03158*
X05516Y03154*
X05504Y03148*
X05494Y0314*
X05486Y03129*
X05479Y03118*
X05476Y03105*
X05474Y03092*
X05476Y03079*
X05479Y03066*
X05486Y03055*
X05494Y03045*
X05504Y03036*
X05516Y0303*
X05528Y03026*
X05542Y03025*
X05555Y03026*
X05567Y0303*
X0557Y03032*
X05575Y03029*
X05604*
Y03022*
X05642*
Y03017*
X05647*
Y02984*
X05671*
Y02961*
X05643Y02933*
X05643Y02933*
X05637Y02927*
X05632Y02923*
X05627Y02919*
X05623Y02917*
X05619Y02914*
X05616Y02913*
X05613Y02912*
X05611Y02911*
X05609Y02911*
X05605Y02911*
X05605Y0291*
X05568*
Y02873*
X05568Y02871*
X05568Y0287*
X05568Y02869*
X05568Y02868*
Y02811*
X05568Y0281*
X05568Y02809*
X05568Y02808*
X05568Y02807*
Y02769*
X05569*
X05572Y02764*
X05569Y02753*
X05568Y0274*
X05569Y02726*
X05573Y02712*
X0558Y027*
X05588Y0269*
X05588Y0269*
X05589Y02689*
Y02689*
X05589Y02688*
Y02615*
X05575*
Y02611*
X0557Y02609*
X0556Y02614*
X05547Y02618*
X05534Y02619*
X05521Y02618*
X05508Y02614*
X05497Y02608*
X05486Y026*
X05478Y02589*
X05472Y02578*
X05468Y02565*
X05467Y02552*
X05468Y02539*
X05472Y02526*
X05478Y02515*
X05486Y02505*
X05497Y02496*
X05508Y0249*
X05521Y02486*
X05534Y02485*
X05547Y02486*
X0556Y0249*
X0557Y02495*
X05575Y02493*
Y02489*
X05604*
Y02482*
X05642*
Y02477*
X05647*
Y02444*
X05671*
Y02286*
X05604Y02219*
X05601Y02219*
X05593Y02225*
X05584Y02229*
X05579Y0223*
Y02194*
X05577Y02192*
X05574*
Y02189*
X05572Y02187*
X05537*
X05537Y02183*
X05541Y02174*
X05547Y02166*
X05547Y02162*
X05496Y02111*
X05343*
Y02118*
X05305*
Y02128*
X05343*
Y02156*
X05343*
X05341Y02161*
X05401Y02221*
X05408Y02217*
X05421Y02214*
X05434Y02212*
X05447Y02214*
X0546Y02217*
X05471Y02224*
X05482Y02232*
X0549Y02242*
X05496Y02254*
X055Y02266*
X05501Y0228*
X055Y02293*
X05496Y02305*
X0549Y02317*
X05482Y02327*
X05471Y02335*
X0546Y02342*
X0545Y02345*
X05447Y02346*
X05445Y02351*
X05446Y0236*
X05445Y02373*
X05441Y02385*
X05435Y02397*
X05427Y02407*
X05416Y02415*
X05405Y02422*
X05392Y02426*
X05379Y02427*
X05376Y02426*
X05372Y0243*
Y02438*
X05378Y02446*
X05385Y02457*
X05388Y0247*
X0539Y02483*
X05388Y02496*
X05385Y02509*
X05378Y02521*
X0537Y02531*
X0536Y02539*
X05348Y02545*
X05336Y02549*
X05322Y0255*
X05322*
X05319Y02554*
Y03586*
X05319Y03586*
Y03627*
Y03667*
X05319Y03667*
Y04079*
X05487Y04247*
X0557*
Y04234*
G37*
G36*
X03348Y03955D02*
Y03836D01*
X0335Y03824*
X03355Y03812*
X03362Y03802*
X03377Y03788*
X03386Y0378*
X03392Y03778*
X03391Y03772*
X03393Y03759*
X03398Y03747*
X03393Y03735*
X03391Y03722*
X03393Y03709*
X03398Y03696*
X03406Y03686*
X03416Y03678*
X03421Y03676*
X03421Y03672*
X03422Y03664*
X03427Y03657*
X03434Y03652*
X03442Y0365*
X03499*
X03507Y03652*
X03514Y03657*
X03518Y03664*
X0352Y03672*
X03522Y03674*
X03618*
X03618Y03674*
X03619Y03673*
X03628Y03666*
X03639Y0366*
X03652Y03656*
X03665Y03654*
X03678Y03656*
X03691Y0366*
X03703Y03666*
X03713Y03674*
X03721Y03684*
X03727Y03696*
X03731Y03709*
X03732Y03722*
X03731Y03735*
X03727Y03747*
X03722Y03757*
X03729Y03763*
X03737Y03773*
X03743Y03785*
X03747Y03797*
X03748Y03811*
X03748Y03819*
X03752Y03824*
X03816*
X03947Y03693*
X03957Y03686*
X03968Y03681*
X03981Y03679*
X03994*
Y03641*
X03993*
Y03464*
X04135*
Y03465*
X0414Y03468*
X0415Y03465*
X04164Y03464*
X04169Y03464*
X04173Y03461*
Y03341*
X04169Y03339*
X04165*
Y0331*
X04192*
Y033*
X04165*
Y03272*
X04161Y0327*
X04034*
X0399Y03314*
Y03374*
X03789*
Y03368*
X03755*
Y03467*
X03703*
X03634Y03536*
X03636Y03539*
X0364Y03552*
X03641Y03565*
X0364Y03578*
X03636Y03591*
X0363Y03602*
X03622Y03613*
X03611Y03621*
X036Y03627*
X03587Y03631*
X03574Y03632*
X03561Y03631*
X03548Y03627*
X03537Y03621*
X03526Y03613*
X03518Y03602*
X03512Y03591*
X03508Y03578*
X03507Y03565*
X03508Y03552*
X03512Y03539*
X03518Y03528*
X03526Y03518*
X03528Y03516*
X03533Y03505*
X0354Y03495*
X03643Y03392*
Y03341*
X03639Y03339*
X03635*
Y0331*
X03662*
Y03305*
X03667*
Y03272*
X0368*
Y03242*
X03789*
Y0324*
X03923*
X03965Y03198*
X03964Y03193*
X03464*
X02993Y03664*
X02995Y03669*
X02998Y03669*
X0301Y03673*
X03022Y03679*
X03028Y03684*
X03035Y03677*
X03045Y03669*
X03056Y03663*
X03068Y0366*
X0308Y03658*
X03093Y0366*
X03104Y03663*
X03115Y03669*
X03117Y03671*
X03118Y03671*
X03141Y03672*
X03178*
X03179Y03672*
X0318Y03659*
X03185Y03646*
X03193Y03636*
X03204Y03628*
X03216Y03623*
X03229Y03621*
X03286*
X03299Y03623*
X03312Y03628*
X03322Y03636*
X0333Y03646*
X03335Y03659*
X03337Y03672*
X03335Y03685*
X0333Y03697*
X03335Y03709*
X03337Y03722*
X03335Y03735*
X0333Y03747*
X03335Y03759*
X03337Y03772*
X03335Y03785*
X0333Y03797*
X03335Y03809*
X03337Y03822*
X03335Y03835*
X0333Y03847*
X03322Y03857*
X03312Y03866*
X03307Y03868*
X03307Y03872*
X03307Y03876*
X03312Y03878*
X03322Y03886*
X0333Y03896*
X03335Y03909*
X03337Y03922*
X03335Y03935*
X03331Y03944*
X03344Y03957*
X03348Y03955*
G37*
G36*
X04696Y03467D02*
X04688D01*
Y03341*
X04684Y03339*
X0468*
Y0331*
X04707*
Y03305*
X04712*
Y03272*
X04725*
Y03242*
X04819*
Y0324*
X0502*
X05024Y03238*
X05108Y03153*
X05105Y03149*
X05096Y03153*
X05083Y03155*
X04978*
X04974Y03158*
X04974Y03159*
X049*
X049Y03158*
X04897Y03155*
X04674*
X04515Y03314*
Y03374*
X04513Y03377*
X04515Y03381*
X04519Y03394*
X0452Y03407*
X04519Y0342*
X04515Y03433*
X04509Y03444*
X045Y03455*
X0449Y03463*
X04489Y03464*
X0449Y03468*
X04491Y03469*
X04504Y03476*
X04514Y03484*
X04525Y03476*
X04537Y03469*
X0455Y03465*
X04564Y03464*
X04578Y03465*
X04591Y03469*
X04604Y03476*
X04615Y03484*
X04623Y03495*
X0463Y03508*
X04634Y03521*
X04635Y03535*
Y0357*
X04634Y03584*
X0463Y03597*
X04623Y0361*
X04615Y03621*
X04604Y03629*
X04591Y03636*
X04578Y0364*
X04564Y03641*
X0455Y0364*
X04537Y03636*
X04533Y03634*
X04528Y03636*
Y03664*
Y0379*
X04509*
X04507Y03799*
X04503Y0381*
X04495Y0382*
X04487Y03828*
Y03829*
X04487Y0383*
X04485Y03841*
X04486Y03842*
X04496Y03843*
X04507Y03848*
X04517Y03856*
X04566Y03904*
X04629*
Y03979*
Y04105*
X0463Y04108*
X04634Y04121*
X04635Y04135*
Y0417*
X04638Y04173*
X04696*
Y03467*
G37*
G36*
X0468Y02566D02*
X04631Y02517D01*
X04626Y02518*
Y0253*
X04506*
X04503Y02535*
X04507Y02541*
X04511Y0255*
X04512Y02555*
X04475*
Y02565*
X04512*
Y02565*
X04516Y0257*
X04672*
X04678Y02571*
X0468Y02566*
G37*
G36*
X04494Y02426D02*
X045D01*
Y02396*
X04589*
X04591Y02392*
X04568Y02369*
X0456Y02359*
X04555Y02348*
X04555Y02341*
X04547*
Y02348*
X04509*
Y02353*
X04504*
Y02386*
X04472*
X0447Y02391*
Y02426*
X04484*
Y02463*
X04494*
Y02426*
G37*
%LNpcb_washver2-4*%
%LPC*%
G36*
X0348Y04327D02*
Y04295D01*
X03513*
X03512Y04299*
X03508Y04309*
X03502Y04316*
X03494Y04322*
X03485Y04326*
X0348Y04327*
G37*
G36*
X0347D02*
X03465Y04326D01*
X03456Y04322*
X03449Y04316*
X03442Y04309*
X03439Y04299*
X03438Y04295*
X0347*
Y04327*
G37*
G36*
X03513Y04285D02*
X0348D01*
Y04252*
X03485Y04253*
X03494Y04257*
X03502Y04263*
X03508Y04271*
X03512Y0428*
X03513Y04285*
G37*
G36*
X0347D02*
X03438D01*
X03439Y0428*
X03442Y04271*
X03449Y04263*
X03456Y04257*
X03465Y04253*
X0347Y04252*
Y04285*
G37*
G36*
X05632Y04217D02*
X05599D01*
Y04189*
X05632*
Y04217*
G37*
G36*
X05329Y03664D02*
Y03632D01*
X05361*
X05361Y03636*
X05357Y03645*
X05351Y03653*
X05343Y03659*
X05334Y03663*
X05329Y03664*
G37*
G36*
X05361Y03622D02*
X05329D01*
Y03589*
X05334Y0359*
X05343Y03594*
X05351Y036*
X05357Y03608*
X05361Y03617*
X05361Y03622*
G37*
G36*
X05632Y03612D02*
X05599D01*
Y03584*
X05632*
Y03612*
G37*
G36*
X05637Y03012D02*
X05604D01*
Y02984*
X05637*
Y03012*
G37*
G36*
Y02472D02*
X05604D01*
Y02444*
X05637*
Y02472*
G37*
G36*
X05569Y0223D02*
X05564Y02229D01*
X05555Y02225*
X05547Y02219*
X05541Y02211*
X05537Y02202*
X05537Y02197*
X05569*
Y0223*
G37*
G36*
X03381Y03536D02*
Y03504D01*
X03413*
X03413Y03508*
X03409Y03518*
X03403Y03525*
X03395Y03531*
X03386Y03535*
X03381Y03536*
G37*
G36*
X03371D02*
X03366Y03535D01*
X03357Y03531*
X03349Y03525*
X03343Y03518*
X0334Y03508*
X03339Y03504*
X03371*
Y03536*
G37*
G36*
X03413Y03494D02*
X03381D01*
Y03461*
X03386Y03462*
X03395Y03466*
X03403Y03472*
X03409Y0348*
X03413Y03489*
X03413Y03494*
G37*
G36*
X03371D02*
X03339D01*
X0334Y03489*
X03343Y0348*
X03349Y03472*
X03357Y03466*
X03366Y03462*
X03371Y03461*
Y03494*
G37*
G36*
X03657Y033D02*
X03635D01*
Y03272*
X03657*
Y033*
G37*
G36*
X04702D02*
X0468D01*
Y03272*
X04702*
Y033*
G37*
G36*
X04942Y03201D02*
Y03169D01*
X04974*
X04974Y03174*
X0497Y03183*
X04964Y03191*
X04956Y03197*
X04947Y03201*
X04942Y03201*
G37*
G36*
X04932D02*
X04927Y03201D01*
X04918Y03197*
X0491Y03191*
X04904Y03183*
X04901Y03174*
X049Y03169*
X04932*
Y03201*
G37*
G36*
X04514Y02386D02*
Y02358D01*
X04547*
Y02386*
X04514*
G37*
%LNpcb_washver2-5*%
%LPD*%
G54D24*
X04146Y02566D02*
X04241Y02472D01*
Y02309D02*
Y02472D01*
X04185Y02253D02*
X04241Y02309D01*
X03029Y04431D02*
X03077Y04479D01*
X02991Y04564D02*
X03077Y04479D01*
X02991Y04564D02*
Y04675D01*
X02099Y02708D02*
X02277D01*
X02139Y0249D02*
Y02668D01*
X02468Y01693D02*
X02532D01*
X02428Y01653D02*
X02468Y01693D01*
X02428Y01421D02*
Y01653D01*
X0247Y01379D02*
X02765D01*
X02428Y01421D02*
X0247Y01379D01*
X02057Y03401D02*
X02063Y03395D01*
X02237*
X02779Y01631D02*
Y02092D01*
X0264Y01492D02*
X02779Y01631D01*
X02532Y01492D02*
X0264D01*
X02928Y01542D02*
Y01894D01*
X02765Y01379D02*
X02928Y01542D01*
X03243Y01664D02*
Y02025D01*
Y01664D02*
X03268Y0164D01*
Y01479D02*
Y0164D01*
Y01479D02*
X03402Y01345D01*
Y01213D02*
Y01345D01*
X03243Y01054D02*
X03402Y01213D01*
X01614Y01054D02*
X03243D01*
X0142Y01248D02*
X01614Y01054D01*
X0142Y01248D02*
Y01357D01*
X02197Y01483D02*
X02207Y01492D01*
X02197Y01358D02*
Y01483D01*
X01975Y0187D02*
X02198Y02092D01*
X02397*
X03838Y02135D02*
X03956Y02253D01*
X04185*
X04072Y02566D02*
X04146D01*
X04002Y02636D02*
X04072Y02566D01*
X04002Y02636D02*
Y02856D01*
X03487Y02872D02*
X03544D01*
X03449Y02834D02*
X03487Y02872D01*
X03449Y02485D02*
Y02834D01*
X05144Y03852D02*
X05145Y0385D01*
X05144Y03852D02*
Y0451D01*
X05496Y04862*
X05736*
X0587Y04728*
Y01453D02*
Y04728D01*
X05412Y00995D02*
X0587Y01453D01*
X03613Y00995D02*
X05412D01*
X03546Y01062D02*
X03613Y00995D01*
X03546Y01062D02*
Y01197D01*
X01975Y0144D02*
Y01498D01*
X03535Y01959D02*
Y02085D01*
Y02115*
X03379Y01929D02*
X03535Y02085D01*
X01892Y01357D02*
X01975Y0144D01*
X02057Y03673D02*
X02086Y03643D01*
X02277*
X02106Y04642D02*
X02293D01*
X02057Y04691D02*
X02106Y04642D01*
X03835Y01854D02*
X04035D01*
X04036Y01853*
X0418Y01998*
Y02135*
X03434Y02337D02*
X03437Y0234D01*
X03292Y02337D02*
X03434D01*
X03382Y02462D02*
Y02647D01*
X03193Y02641D02*
X03376D01*
X03292Y02253D02*
Y02337D01*
X03243Y02205D02*
X03292Y02253D01*
X05522Y02047D02*
X05734Y0226D01*
Y02261*
Y02745*
X05639Y0284D02*
X05734Y02745D01*
X05639Y0284D02*
X05734Y02935D01*
Y03325*
X05639Y0342D02*
X05734Y03325D01*
X05639Y0342D02*
X05729Y0351D01*
Y03905*
X05639Y03995D02*
X05729Y03905D01*
X05639Y03995D02*
X05729Y04085D01*
Y0449*
X05639Y0458D02*
X05729Y0449D01*
X03029Y04058D02*
X03065Y04022D01*
X02985Y03735D02*
X03026Y03776D01*
X02984Y03735D02*
X02985D01*
X03026Y03776D02*
X0308Y03722D01*
X02998Y03804D02*
X03026Y03776D01*
X02998Y03804D02*
Y03956D01*
X03064Y04022*
X03029Y04058D02*
Y04431D01*
X02991Y04675D02*
X03106Y0479D01*
X05516Y02251D02*
X05574Y02192D01*
X05305Y02123D02*
X05306Y02122D01*
X05387*
X05516Y02251D02*
X05642Y02376D01*
X05387Y02122D02*
X05516Y02251D01*
X05642Y02376D02*
Y02477D01*
X05471D02*
X05642D01*
X05334Y02615D02*
X05471Y02477D01*
X05334Y02615D02*
Y0289D01*
X05461Y03017*
X05642*
X05334Y03145D02*
X05461Y03017D01*
X05334Y03145D02*
Y03475D01*
X05476Y03617*
X05324Y03627D02*
X05391Y03694D01*
X05329Y03756D02*
X05391Y03694D01*
X05468Y03617D02*
X05476D01*
X05398Y03687D02*
X05468Y03617D01*
X05476D02*
X05637D01*
X05467Y04222D02*
X05637D01*
X05329Y04085D02*
X05467Y04222D01*
X05329Y03756D02*
Y04085D01*
X03475Y0429D02*
Y0444D01*
X03376Y03499D02*
X03469D01*
X03662Y03305*
X03625Y03672D02*
X03897Y034D01*
X04097*
X04192Y03305*
X04097Y034D02*
X04162Y03465D01*
X04547Y03466D02*
X04707Y03305D01*
X04162Y03465D02*
X04428D01*
X04429Y03466*
X04547*
X04707Y03207D02*
Y03305D01*
Y03207D02*
X0475Y03164D01*
X04937*
X04468Y02107D02*
X04554D01*
X04431Y0207D02*
X04468Y02107D01*
X04367Y02135D02*
X04431Y0207D01*
X0418Y02135D02*
X04367D01*
X04431Y01863D02*
Y0207D01*
X04963Y01486D02*
Y01619D01*
Y01486D02*
X04964Y01485D01*
X05414Y02048D02*
X05521D01*
X05305D02*
X05414D01*
Y0194D02*
Y02048D01*
X05522Y01271D02*
Y02047D01*
X04489Y02373D02*
X04509Y02353D01*
X04489Y02373D02*
Y02463D01*
X05335Y01085D02*
X05522Y01271D01*
X04448Y01085D02*
X05335D01*
X04992Y01197D02*
X05064Y0127D01*
X04001Y01197D02*
X04992D01*
X03964Y01235D02*
X04001Y01197D01*
X03927D02*
X03964Y01235D01*
X03546Y01197D02*
X03927D01*
X03477Y01267D02*
X03546Y01197D01*
X03434Y02342D02*
X03437Y0234D01*
X03434Y02342D02*
Y0241D01*
X03382Y02462D02*
X03434Y0241D01*
X03449Y02485D02*
X03512Y02422D01*
Y0234D02*
Y02422D01*
Y0234D02*
X03535Y02317D01*
Y02115D02*
Y02317D01*
Y02115D02*
X03555Y02135D01*
X03838*
X05064Y0127D02*
Y01485D01*
X03477Y01267D02*
Y01345D01*
Y01417*
X0361Y01551*
Y0164*
Y01883*
X03535Y01959D02*
X0361Y01883D01*
G54D25*
X04322Y02405D02*
X04331D01*
X04331Y02405*
X03069Y04592D02*
X0326D01*
X03263Y0459*
X032Y0454D02*
X03263D01*
X03198Y04542D02*
X032Y0454D01*
X05269Y041D02*
X05467Y04297D01*
X05269Y041D02*
Y02461D01*
X05223Y02244D02*
X05322Y02343D01*
Y02483*
X05269Y02355D02*
Y02461D01*
X01782Y04601D02*
Y0466D01*
X0173Y04712D02*
X01782Y0466D01*
X01629Y04712D02*
X0173D01*
X03217Y02337D02*
D01*
X02464D02*
X03217D01*
X02397Y02192D02*
Y0227D01*
X02464Y02337*
X03469Y03499D02*
X0347Y035D01*
Y03672*
X03625*
X0308Y03722D02*
X03258D01*
X04666Y02053D02*
X04668Y02056D01*
X04608Y02053D02*
X04666D01*
X04574Y02019D02*
X04608Y02053D01*
X04503Y02019D02*
X04574D01*
X04331Y02405D02*
Y02877D01*
X04034Y0178D02*
X04684D01*
X04737Y01833*
X0512Y02056D02*
X05169D01*
X05228Y01996*
Y01953D02*
Y01996D01*
X05154Y01878D02*
X05228Y01953D01*
X04095Y02477D02*
X04159Y02414D01*
X04001Y02477D02*
X04095D01*
X04737Y01833D02*
Y01924D01*
X04614Y0215D02*
X04668D01*
X04572Y02107D02*
X04614Y0215D01*
X04554Y02182D02*
X04666D01*
X05268Y01884D02*
Y02006D01*
X05257Y02016D02*
X05268Y02006D01*
X05257Y02016D02*
Y02019D01*
X0519Y02087D02*
X05257Y02019D01*
X05222Y01838D02*
X05268Y01884D01*
X0512Y02087D02*
X0519D01*
X05271Y02047D02*
X05304D01*
X052Y02119D02*
X05271Y02047D01*
X0512Y02119D02*
X052D01*
X03281Y02531D02*
Y02531D01*
X03217Y02467D02*
X03281Y02531D01*
X03217Y02337D02*
Y02467D01*
X04767Y02377D02*
X04768Y02376D01*
X04767Y02377D02*
Y02424D01*
X04725Y02466D02*
X04767Y02424D01*
X04725Y02466D02*
Y02482D01*
X03182Y0469D02*
X03263D01*
X03076Y03837D02*
X03091Y03822D01*
X03258*
X03172Y03948D02*
X03199Y03922D01*
X03076Y03837D02*
Y03842D01*
X0318Y03772D02*
X03258D01*
X04831Y02376D02*
Y02429D01*
X04863Y02461*
Y02485*
X04915Y02536*
X04799Y02376D02*
X048Y02376D01*
X04799Y02376D02*
Y02472D01*
X05083Y03105D02*
X05186Y03002D01*
X04654Y03105D02*
X05083D01*
X04452Y03307D02*
X04654Y03105D01*
X05061Y03065D02*
X05138Y02988D01*
X04592Y03065D02*
X05061D01*
X04436Y0322D02*
X04592Y03065D01*
X03171Y04348D02*
X03263Y0444D01*
X03171Y04326D02*
Y04348D01*
X03199Y03922D02*
X03258D01*
X05164Y01485D02*
Y0167D01*
X05095Y0174D02*
X05164Y0167D01*
X04968Y0174D02*
X05095D01*
X04894Y01813D02*
X04968Y0174D01*
X04894Y01813D02*
Y01924D01*
X05264Y01485D02*
Y01656D01*
X05132Y01788D02*
X05264Y01656D01*
X04975Y01788D02*
X05132D01*
X04925Y01837D02*
X04975Y01788D01*
X04925Y01837D02*
Y01924D01*
X04988Y02376D02*
Y02482D01*
X05138Y02631*
Y02988*
X04013Y0322D02*
X04436D01*
X03927Y03307D02*
X04013Y0322D01*
X05186Y02616D02*
Y03002D01*
X0502Y0245D02*
X05186Y02616D01*
X05024Y03307D02*
X05228Y03104D01*
Y02508D02*
Y03104D01*
X05095Y02376D02*
X05228Y02508D01*
X0502Y02376D02*
Y0245D01*
X05051Y02376D02*
X05095D01*
X04957Y03307D02*
X05024D01*
X05221Y0215D02*
X05249Y02122D01*
X0512Y0215D02*
X05221D01*
X0512Y02181D02*
X0529D01*
X05389Y0228*
X05434*
X0512Y02213D02*
X05247D01*
X05379Y02345*
Y0236*
X0519Y02276D02*
X05269Y02355D01*
X0512Y02244D02*
X05223D01*
X0512Y02276D02*
X0519D01*
X05467Y04297D02*
X05637D01*
X05639Y043*
Y0448*
X05637Y03692D02*
X05639Y03695D01*
Y03895*
X05542Y03692D02*
X05637D01*
X05639Y03095D02*
X05642Y03092D01*
X05639Y03095D02*
Y0332D01*
X05542Y03092D02*
X05642D01*
X05639Y02555D02*
X05642Y02552D01*
X05639Y02555D02*
Y0274D01*
X05534Y02552D02*
X05642D01*
X04863Y01486D02*
X04864Y01485D01*
X04863Y01486D02*
Y01924D01*
X04554Y02107D02*
X04572D01*
X04666Y02182D02*
X04668Y02181D01*
X03937Y01682D02*
X04034Y0178D01*
X03937Y01607D02*
Y01682D01*
G54D26*
X01782Y02905D02*
X01835Y02958D01*
X02735Y0275D02*
X02906Y02579D01*
Y02536D02*
Y02579D01*
X02735Y0285D02*
X0276D01*
X02913Y02697*
X0241Y04532D02*
Y04591D01*
X02368Y0449D02*
X0241Y04532D01*
X02275Y0449D02*
X02368D01*
X02233Y04532D02*
X02275Y0449D01*
X01782Y04878D02*
X01827Y04923D01*
X01782Y04786D02*
Y04878D01*
X01781Y04787D02*
X01782Y04786D01*
X01629Y04787D02*
X01781D01*
X03837Y01424D02*
X04002D01*
X03803Y01459D02*
X03837Y01424D01*
X04039Y01326D02*
X04043Y0133D01*
X04149*
X03948Y02954D02*
X04039D01*
X03806Y03096D02*
X03948Y02954D01*
X04098Y02734D02*
Y02797D01*
X04076Y02819D02*
X04098Y02797D01*
X04076Y02819D02*
Y02855D01*
X03642Y02835D02*
Y02913D01*
X0358Y02975D02*
X03642Y02913D01*
X03221Y02975D02*
X0358D01*
X03543Y02726D02*
Y02798D01*
X03523Y02706D02*
X03543Y02726D01*
X03523Y02609D02*
Y02706D01*
X02735Y03673D02*
X03312Y03096D01*
X02815Y0338D02*
X03221Y02975D01*
X0324Y02912D02*
X03382Y0277D01*
X0302Y02912D02*
X0324D01*
X02867Y03065D02*
X0302Y02912D01*
X02814Y04184D02*
Y04612D01*
X02735Y04691D02*
X02814Y04612D01*
X03382Y02722D02*
Y0277D01*
X02886Y04301D02*
Y0464D01*
X02735Y04791D02*
X02886Y0464D01*
X03803Y01459D02*
Y01543D01*
X04369Y01081D02*
X04373Y01085D01*
X0418Y01081D02*
X04369D01*
X03312Y03096D02*
X03806D01*
X04441Y02877D02*
Y02944D01*
X0424Y03146D02*
X04441Y02944D01*
X03444Y03146D02*
X0424D01*
X02817Y03773D02*
X03444Y03146D01*
X02735Y03773D02*
X02817D01*
X03574Y03529D02*
X03699Y03404D01*
X03574Y03529D02*
Y03565D01*
X02378Y02617D02*
X0241Y0265D01*
X02258Y02617D02*
X02378D01*
X01782Y02845D02*
Y02905D01*
X02352Y03514D02*
X0241Y03573D01*
X02261Y03514D02*
X02352D01*
X01782Y03862D02*
X01819Y03899D01*
X01782Y03768D02*
Y03862D01*
X0168Y03583D02*
X0178D01*
X02308Y0285D02*
X0241D01*
X02277Y02819D02*
X02308Y0285D01*
X02277Y02783D02*
Y02819D01*
X024Y03782D02*
X0241Y03773D01*
X023Y03782D02*
X024D01*
X02277Y0376D02*
X023Y03782D01*
X02277Y03718D02*
Y0376D01*
X0232Y04791D02*
X0241D01*
X02293Y04764D02*
X0232Y04791D01*
X02293Y04717D02*
Y04764D01*
X0161Y02845D02*
X01782D01*
X016Y02834D02*
X0161Y02845D01*
X016Y02796D02*
Y02834D01*
X01769Y03781D02*
X01782Y03768D01*
X01628Y03781D02*
X01769D01*
X01628Y03635D02*
X0168Y03583D01*
X01628Y03635D02*
Y03706D01*
X04461Y03727D02*
Y03786D01*
X04419Y03828D02*
X04461Y03786D01*
X03602Y03811D02*
X03681D01*
X03563Y03772D02*
X03602Y03811D01*
X0347Y03772D02*
X03563D01*
X04468Y02278D02*
X04509D01*
X04422Y02323D02*
X04468Y02278D01*
X046Y02213D02*
X04668D01*
X04535Y02278D02*
X046Y02213D01*
X04621Y02244D02*
X04668D01*
X04602Y02263D02*
X04621Y02244D01*
X04821Y02639D02*
X04906D01*
X04647Y02465D02*
X04821Y02639D01*
X04647Y02463D02*
Y02465D01*
Y0238D02*
Y02463D01*
X04232Y03407D02*
X04453D01*
X04229Y03404D02*
X04232Y03407D01*
X04262Y03938D02*
Y03967D01*
X04239Y03915D02*
X04262Y03938D01*
X04022Y03915D02*
X04239D01*
X03866Y04071D02*
X04022Y03915D01*
X04484Y03889D02*
X04562Y03967D01*
X03975Y03889D02*
X04484D01*
X03842Y04022D02*
X03975Y03889D01*
X04307Y03856D02*
X04361Y03802D01*
X03959Y03856D02*
X04307D01*
X03843Y03972D02*
X03959Y03856D01*
X04239Y0382D02*
X04261Y03798D01*
X04239Y03806D02*
Y0382D01*
X04136Y03816D02*
X04166Y03786D01*
X03944Y03816D02*
X04136D01*
X03839Y03922D02*
X03944Y03816D01*
X03432Y04071D02*
X03866D01*
X03396Y04035D02*
X03432Y04071D01*
X03396Y03836D02*
Y04035D01*
Y03836D02*
X0341Y03822D01*
X0347*
X04013Y03967D02*
X04162D01*
X03875Y04105D02*
X04013Y03967D01*
X03424Y04105D02*
X03875D01*
X03291Y03972D02*
X03424Y04105D01*
X03258Y03972D02*
X03291D01*
X04364Y04152D02*
X04367Y04149D01*
Y04019D02*
Y04149D01*
X04422Y02323D02*
Y02639D01*
X04571*
X04602Y02335D02*
X04647Y0238D01*
X04563Y02463D02*
X04647D01*
X04509Y02278D02*
X04535D01*
X04602Y02263D02*
Y02335D01*
X04261Y03727D02*
Y03798D01*
X0347Y03722D02*
X03665D01*
X03981Y03727D02*
X04061D01*
X03836Y03872D02*
X03981Y03727D01*
X0347Y03872D02*
X03836D01*
X04166Y03727D02*
Y03786D01*
X0347Y03922D02*
X03839D01*
X04361Y03727D02*
Y03802D01*
X0347Y03972D02*
X03843D01*
X0347Y04022D02*
X03842D01*
X04364Y04152D02*
X0446Y04249D01*
X04632*
X0467Y04287*
Y0441*
X04364Y05045D02*
X04405Y05085D01*
X04364Y04921D02*
Y05045D01*
X04744Y04221D02*
Y049D01*
Y03404D02*
Y04221D01*
X0448D02*
X04744D01*
X04464Y04205D02*
X0448Y04221D01*
X04609Y05035D02*
X04744Y049D01*
X04044Y04152D02*
X04064D01*
X03816Y0438D02*
X04044Y04152D01*
X03657Y0438D02*
X03816D01*
X03901Y04829D02*
X03992Y04921D01*
X04064*
X04461Y04507D02*
Y04566D01*
X04416Y04611D02*
X04461Y04566D01*
X03475Y0454D02*
X03618D01*
X04261Y04507D02*
Y04515D01*
X04207Y04569D02*
X04261Y04515D01*
X03876Y04618D02*
X04311D01*
X04366Y04562*
X03754Y0474D02*
X03876Y04618D01*
X04479Y04655D02*
X04562Y04737D01*
X03883Y04655D02*
X04479D01*
X03749Y0479D02*
X03883Y04655D01*
X03896Y04688D02*
X04262D01*
X03726Y04859D02*
X03896Y04688D01*
X03475Y0449D02*
X0371D01*
X03263Y0474D02*
X03329D01*
X0337Y04781*
Y04831*
X03423Y04885*
X03736*
X03884Y04737*
X04162*
X03425Y0459D02*
X03475D01*
X03396Y04619D02*
X03425Y0459D01*
X03396Y04619D02*
Y0482D01*
X03434Y04859*
X03726*
X04262Y04688D02*
Y04737D01*
X04256Y02747D02*
X0427Y02734D01*
X04256Y02747D02*
Y02877D01*
X04781Y03305D02*
X0488D01*
X04266D02*
X04375D01*
X03736D02*
X0385D01*
X04461Y03555D02*
X04464Y03552D01*
X04461Y03555D02*
Y03652D01*
X04361Y03555D02*
X04364Y03552D01*
X04361Y03555D02*
Y03652D01*
X04261Y03555D02*
X04264Y03552D01*
X04261Y03555D02*
Y03652D01*
X04164Y03552D02*
X04166Y03555D01*
Y03652*
X04061Y03555D02*
X04064Y03552D01*
X04061Y03555D02*
Y03652D01*
X04162Y04042D02*
X04164Y04045D01*
Y04152*
X04262Y04042D02*
X04264Y04045D01*
Y04152*
X04562Y04042D02*
X04564Y04045D01*
Y04152*
X04464D02*
Y04205D01*
X04494Y05035D02*
X04609D01*
X04464Y05005D02*
X04494Y05035D01*
X04464Y04921D02*
Y05005D01*
X03475Y0479D02*
X03749D01*
X04366Y04507D02*
Y04562D01*
X03475Y0474D02*
X03754D01*
X04166Y04507D02*
Y04547D01*
X04139Y04575D02*
X04166Y04547D01*
X03869Y04575D02*
X04139D01*
X03754Y0469D02*
X03869Y04575D01*
X03475Y0469D02*
X03754D01*
X03882Y04507D02*
X04066D01*
X03749Y0464D02*
X03882Y04507D01*
X03475Y0464D02*
X03749D01*
X04461Y04323D02*
X04464Y04321D01*
X04461Y04323D02*
Y04432D01*
X04364Y04321D02*
X04366Y04323D01*
Y04432*
X04261Y04323D02*
X04264Y04321D01*
X04261Y04323D02*
Y04432D01*
X04164Y04321D02*
X04166Y04323D01*
Y04432*
X04064Y04321D02*
X04066Y04323D01*
Y04432*
X04562Y04812D02*
X04564Y04815D01*
Y04921*
X04262Y04812D02*
X04264Y04815D01*
Y04921*
X04162Y04812D02*
X04164Y04815D01*
Y04921*
X03761Y02477D02*
X03926D01*
X03695Y02544D02*
X03761Y02477D01*
X03695Y02544D02*
Y02609D01*
X04038Y01526D02*
X04245D01*
X04012Y01552D02*
X04038Y01526D01*
X04012Y01552D02*
Y01607D01*
X04173Y01354D02*
X04245D01*
X04149Y0133D02*
X04173Y01354D01*
G54D27*
X02122Y02193D03*
X01334D03*
X02179Y03095D03*
X01391D03*
X02169Y04062D03*
X01382D03*
X05639Y0274D03*
Y0332D03*
Y03895D03*
Y0448D03*
G54D28*
X00908Y02665D03*
Y04941D03*
G54D29*
X00908Y0299D03*
Y03315D03*
Y03641D03*
Y03966D03*
Y04291D03*
Y04616D03*
G54D30*
X04064Y04321D03*
Y03552D03*
G54D31*
X04164Y04321D03*
X04264D03*
X04364D03*
X04464D03*
X04564D03*
X04064Y04921D03*
X04164D03*
X04264D03*
X04364D03*
X04464D03*
X04564D03*
X04164Y03552D03*
X04264D03*
X04364D03*
X04464D03*
X04564D03*
X04064Y04152D03*
X04164D03*
X04264D03*
X04364D03*
X04464D03*
X04564D03*
G54D32*
X0142Y01357D03*
X01577D03*
X01735D03*
X01892D03*
G54D33*
X00751Y01504D03*
G54D34*
X00751Y01701D03*
G54D35*
X05364Y01485D03*
X05264D03*
X05164D03*
X05064D03*
X04964D03*
G54D36*
X04864Y01485D03*
G54D37*
X05639Y0284D03*
Y0342D03*
Y03995D03*
Y0458D03*
G54D38*
X04322Y02405D03*
X03069Y04592D03*
X03198Y04542D03*
X05322Y02483D03*
X01835Y02958D03*
X02906Y02536D03*
X02233Y04532D03*
X01827Y04923D03*
X05145Y0385D03*
X02867Y03065D03*
X02815Y0338D03*
X02814Y04184D03*
X02886Y04301D03*
X03803Y01543D03*
X0418Y01081D03*
X02913Y02697D03*
X01975Y0187D03*
Y01498D03*
X03574Y03565D03*
X03379Y01929D03*
X02258Y02617D03*
X02261Y03514D03*
X01819Y03899D03*
X03835Y01854D03*
X05574Y02192D03*
X04419Y03828D03*
X03681Y03811D03*
X04475Y0256D03*
X04464Y02182D03*
X03193Y02641D03*
X02984Y03735D03*
X04503Y02019D03*
X04431Y01863D03*
X05154Y01878D03*
X04159Y02414D03*
X05222Y01838D03*
X04963Y01619D03*
X05414Y0194D03*
X03281Y02531D03*
X04725Y02482D03*
X03182Y0469D03*
X03172Y03948D03*
X03076Y03837D03*
X0318Y03772D03*
X04915Y02536D03*
X04799Y02472D03*
X03376Y03499D03*
X03475Y0429D03*
X05324Y03627D03*
X04937Y03164D03*
X04453Y03407D03*
X03171Y04326D03*
X04239Y03806D03*
X04367Y04019D03*
X03665Y03722D03*
X0467Y0441D03*
X04405Y05085D03*
X03657Y0438D03*
X03901Y04829D03*
X04416Y04611D03*
X03618Y0454D03*
X04207Y04569D03*
X0371Y0449D03*
X05542Y03692D03*
X05379Y0236D03*
X05542Y03092D03*
X05434Y0228D03*
X05534Y02552D03*
G54D39*
X0579Y05106D03*
Y00893D03*
X00318D03*
Y05106D03*
G54D40*
X01628Y03706D03*
Y03781D03*
X02277Y04348D03*
Y04273D03*
X02237Y0332D03*
Y03395D03*
X02139Y02415D03*
Y0249D03*
X02277Y02783D03*
Y02708D03*
X016Y02796D03*
Y02721D03*
X02277Y03718D03*
Y03643D03*
X01629Y04787D03*
Y04712D03*
X02293Y04717D03*
Y04642D03*
X02928Y01894D03*
Y01969D03*
X03382Y02722D03*
Y02647D03*
X04509Y02353D03*
Y02278D03*
X04554Y02107D03*
Y02182D03*
X04562Y04812D03*
Y04737D03*
X04262Y04812D03*
Y04737D03*
X04162Y04812D03*
Y04737D03*
X04261Y04432D03*
Y04507D03*
X04166Y04432D03*
Y04507D03*
X04366Y04432D03*
Y04507D03*
X04461Y04432D03*
Y04507D03*
X04066Y04432D03*
Y04507D03*
X04562Y04042D03*
Y03967D03*
X04262Y04042D03*
Y03967D03*
X04162Y04042D03*
Y03967D03*
X04361Y03652D03*
Y03727D03*
X04461Y03652D03*
Y03727D03*
X04261Y03652D03*
Y03727D03*
X04166Y03652D03*
Y03727D03*
X04061Y03652D03*
Y03727D03*
X05305Y02123D03*
Y02048D03*
X05642Y02477D03*
Y02552D03*
X05637Y04222D03*
Y04297D03*
Y03617D03*
Y03692D03*
X05642Y03017D03*
Y03092D03*
G54D41*
X01782Y03583D03*
Y03768D03*
Y0266D03*
Y02845D03*
Y04786D03*
Y04601D03*
G54D42*
X02057Y03673D03*
Y0275D03*
Y04691D03*
G54D43*
X04039Y01326D03*
X03965Y01326D03*
X04002Y01424D03*
X04076Y02855D03*
X04002Y02856D03*
X04039Y02954D03*
X03736Y03305D03*
X03662Y03305D03*
X03699Y03404D03*
X04781Y03305D03*
X04707Y03305D03*
X04744Y03404D03*
X04266Y03305D03*
X04192Y03305D03*
X04229Y03404D03*
G54D44*
X03543Y02798D03*
X03544Y02872D03*
X03642Y02835D03*
G54D45*
X02207Y01693D03*
Y01492D03*
X02532Y01693D03*
Y01492D03*
G54D46*
X02735Y02648D03*
Y02848D03*
Y02748D03*
X0241Y02648D03*
Y02848D03*
Y02748D03*
X02735Y04591D03*
Y04791D03*
Y04691D03*
X0241Y04591D03*
Y04791D03*
Y04691D03*
X02735Y03573D03*
Y03773D03*
Y03673D03*
X0241Y03573D03*
Y03773D03*
Y03673D03*
G54D47*
X02779Y02192D03*
Y02092D03*
X02397D03*
Y02192D03*
G54D48*
X03926Y02477D03*
X04001D03*
X04957Y03307D03*
X04882D03*
X04489Y02463D03*
X04563D03*
X03402Y01345D03*
X03477D03*
X04516Y02877D03*
X04441D03*
X04448Y01085D03*
X04373D03*
X03512Y0234D03*
X03437D03*
X03217Y02337D03*
X03292D03*
X03852Y03307D03*
X03927D03*
X04377D03*
X04452D03*
X03937Y01607D03*
X04012D03*
X04331Y02877D03*
X04256D03*
G54D49*
X03695Y02609D03*
X03523D03*
X04098Y02734D03*
X0427D03*
G54D50*
X03243Y02025D03*
Y02205D03*
G54D51*
X03535Y02115D03*
G54D52*
X03258Y03672D03*
Y03722D03*
Y03772D03*
Y03822D03*
Y03872D03*
Y03922D03*
Y03972D03*
Y04022D03*
X0347Y03672D03*
Y03722D03*
Y03772D03*
Y03822D03*
Y03872D03*
Y03922D03*
Y03972D03*
Y04022D03*
X03263Y0444D03*
Y0449D03*
Y0454D03*
Y0459D03*
Y0464D03*
Y0469D03*
Y0474D03*
Y0479D03*
X03475Y0444D03*
Y0449D03*
Y0454D03*
Y0459D03*
Y0464D03*
Y0469D03*
Y0474D03*
Y0479D03*
G54D53*
X0361Y0164D03*
X03268D03*
X03838Y02135D03*
X0418D03*
G54D54*
X04245Y01526D03*
Y01354D03*
G54D55*
X0512Y02307D03*
Y02276D03*
Y02244D03*
Y02213D03*
Y02181D03*
Y0215D03*
Y02119D03*
Y02087D03*
Y02056D03*
Y02024D03*
Y01993D03*
X04668D03*
Y02024D03*
Y02056D03*
Y02087D03*
Y02119D03*
Y0215D03*
Y02181D03*
Y02213D03*
Y02244D03*
Y02276D03*
Y02307D03*
G54D56*
X05051Y01924D03*
X0502D03*
X04988D03*
X04957D03*
X04925D03*
X04894D03*
X04863D03*
X04831D03*
X048D03*
X04768D03*
X04737D03*
Y02376D03*
X04768D03*
X048D03*
X04831D03*
X04863D03*
X04894D03*
X04925D03*
X04957D03*
X04988D03*
X0502D03*
X05051D03*
G54D57*
X04906Y02639D03*
X04571D03*
G54D58*
X01334Y02193D02*
Y02212D01*
X01128Y03095D02*
X01391D01*
X0144*
X01782Y03438*
Y03583*
X01285Y03966D02*
X01382Y04062D01*
X00908Y03966D02*
X01285D01*
X01381Y04063D02*
X01382Y04062D01*
X01381Y04063D02*
Y042D01*
X01661Y0266D02*
X01782D01*
X016Y02721D02*
X01661Y0266D01*
X02099Y02708D02*
X02139Y02668D01*
X02057Y0275D02*
X02099Y02708D01*
X02057Y04358D02*
Y04691D01*
Y03673D02*
Y04358D01*
X02067Y04348*
X02277*
X01381Y042D02*
X01782Y04601D01*
X02057Y03401D02*
Y03673D01*
Y0275D02*
Y03401D01*
X00751Y01504D02*
X00757Y01498D01*
X00751Y01701D02*
X00757Y01695D01*
X00908Y03315D02*
X01128Y03095D01*
X01334Y02212D02*
X01782Y0266D01*
X00964Y02721D02*
X016D01*
X00908Y02665D02*
X00964Y02721D01*
X00715Y03183D02*
X00908Y0299D01*
X00715Y03183D02*
Y03448D01*
X00908Y03641*
X00692Y03857D02*
X00908Y03641D01*
X00692Y03857D02*
Y04075D01*
X00908Y04291*
Y04616*
Y04941D02*
X01061Y05094D01*
X01921*
X02057Y04691D02*
Y04959D01*
X01921Y05094D02*
X02057Y04959D01*
X00757Y01695D02*
X01542D01*
X00757Y01498D02*
X0152D01*
X02062Y01695D02*
X02064Y01693D01*
X02207*
X01542Y01695D02*
X01735Y01502D01*
X01542Y01695D02*
X01542Y01695D01*
X01542Y01695D02*
X02062D01*
X02007Y01167D02*
X02197Y01358D01*
X01577Y01255D02*
Y01357D01*
Y01255D02*
X01666Y01167D01*
X02007*
X01577Y01357D02*
Y0144D01*
X0152Y01498D02*
X01577Y0144D01*
X01735Y01357D02*
Y01502D01*
G54D59*
X02122Y02193D02*
X02139Y02211D01*
Y02415*
X02179Y03095D02*
X02237Y03154D01*
Y0332*
X02169Y04062D02*
X02277Y0417D01*
Y04273*
G54D60*
X05249Y02122D02*
X05306D01*
X02928Y01969D02*
Y02121D01*
X02857Y02192D02*
X02928Y02121D01*
X02779Y02192D02*
X02857D01*
X03964Y01325D02*
X03965Y01326D01*
X03964Y01235D02*
Y01325D01*
X05521Y02048D02*
X05734Y02261D01*
G54D61*
X03088Y0449D02*
X03263D01*
X03106Y0479D02*
X03263D01*
X03065Y04022D02*
X03258D01*
X03064D02*
X03065D01*
X03364Y03723D02*
X03416Y03672D01*
X0347*
X03475Y04286D02*
Y0429D01*
X03364Y03723D02*
Y03834D01*
X03327Y03872D02*
X03364Y03834D01*
X04489Y02463D02*
Y02546D01*
X04475Y0256D02*
X04489Y02546D01*
X04464Y02182D02*
X04554D01*
X04367Y02135D02*
X04382Y02149D01*
Y02659*
X04516Y02793*
Y02877*
X03376Y02641D02*
X03382Y02647D01*
X03258Y04022D02*
X03258D01*
Y03872D02*
X03327D01*
X03426Y0444D02*
X03475D01*
X03382Y04484D02*
X03426Y0444D01*
X03382Y04484D02*
Y04579D01*
X03322Y0464D02*
X03382Y04579D01*
X03263Y0464D02*
X03322D01*
G54D62*
X00381Y0162D02*
X00303D01*
Y01659*
X00316Y01672*
X00368*
X00381Y01659*
Y0162*
X00303Y01738D02*
Y01712D01*
X00316Y01699*
X00342*
X00355Y01712*
Y01738*
X00342Y01751*
X00329*
Y01699*
X00303Y01777D02*
Y01817D01*
X00316Y0183*
X00329Y01817*
Y0179*
X00342Y01777*
X00355Y0179*
Y0183*
X00303Y01856D02*
Y01882D01*
Y01869*
X00355*
Y01856*
X00277Y01948D02*
Y01961D01*
X0029Y01974*
X00355*
Y01935*
X00342Y01922*
X00316*
X00303Y01935*
Y01974*
Y02D02*
X00355D01*
Y0204*
X00342Y02053*
X00303*
Y02118D02*
Y02092D01*
X00316Y02079*
X00342*
X00355Y02092*
Y02118*
X00342Y02131*
X00329*
Y02079*
X00381Y0221D02*
X00303D01*
Y02171*
X00316Y02158*
X00342*
X00355Y02171*
Y0221*
X00381Y02315D02*
X00303D01*
Y02354*
X00316Y02368*
X00329*
X00342*
X00355Y02354*
Y02315*
Y02394D02*
X00316D01*
X00303Y02407*
Y02446*
X0029*
X00277Y02433*
Y0242*
X00303Y02446D02*
X00355D01*
X00381Y02551D02*
Y02578D01*
Y02564*
X00303*
Y02551*
Y02578*
Y02617D02*
X00381D01*
X00303Y02669*
X00381*
Y02696D02*
Y02748D01*
Y02722*
X00303*
M02*